G04 ================== begin FILE IDENTIFICATION RECORD ==================*
G04 Layout Name:  C:/Users/nxf76403/Work/90818-B/pcb/a080-1/FabOutput/LAY-90818_B.brd*
G04 Film Name:    L1_PS.art*
G04 File Format:  Gerber RS274X*
G04 File Origin:  Cadence Allegro 17.4-S021*
G04 Origin Date:  Mon Sep 18 14:44:30 2023*
G04 *
G04 Layer:  BOARD GEOMETRY/DESIGN_OUTLINE*
G04 Layer:  VIA CLASS/TOP*
G04 Layer:  PIN/TOP*
G04 Layer:  PACKAGE GEOMETRY/SHORT_LAYER_TOP*
G04 Layer:  ETCH/TOP*
G04 Layer:  DRAWING FORMAT/FILM_TITLE_BLOCK*
G04 *
G04 Offset:    (0.000 0.000)*
G04 Mirror:    No*
G04 Mode:      Positive*
G04 Rotation:  0*
G04 FullContactRelief:  No*
G04 UndefLineWidth:     8.000*
G04 ================== end FILE IDENTIFICATION RECORD ====================*
%FSLAX55Y55*MOIN*%
%IR0*IPPOS*OFA0.00000B0.00000*MIA0B0*SFA1.00000B1.00000*%
%ADD13O,.112X.053*%
%AMMACRO66*
4,1,21,.016732,-.00689,
-.009843,-.00689,
-.011039,-.006785,
-.012199,-.006474,
-.013288,-.005967,
-.014272,-.005278,
-.015121,-.004428,
-.01581,-.003445,
-.016317,-.002356,
-.016628,-.001196,
-.016733,0.0,
-.016628,.001197,
-.016317,.002357,
-.015809,.003445,
-.01512,.004429,
-.014271,.005278,
-.013287,.005967,
-.012199,.006475,
-.011038,.006785,
-.009843,.00689,
.016732,.00689,
.016732,-.00689,
0.0*
%
%ADD66MACRO66*%
%ADD41R,.008X.018*%
%ADD42R,.028X.008*%
%ADD52R,.136X.136*%
%AMMACRO61*
4,1,12,-.018299,-.034402,
.073799,-.034402,
.073799,-.012201,
.0915,-.012201,
.0915,.012201,
.073799,.012201,
.073799,.034402,
-.018299,.034402,
-.040402,.012201,
-.0915,.012201,
-.0915,-.012201,
-.040402,-.012201,
-.018299,-.034402,
0.0*
%
%ADD61MACRO61*%
%ADD51O,.011X.035*%
%ADD48O,.035X.011*%
%ADD44R,.024X.02*%
%ADD28O,.04X.07*%
%ADD68R,.03X.034*%
%ADD67R,.06X.022*%
%ADD63R,.03X.015*%
%ADD50R,.011X.035*%
%ADD49R,.035X.011*%
%ADD18O,.06X.035*%
%ADD58R,.032X.024*%
%ADD25O,.035X.06*%
%ADD20R,.024X.032*%
%AMMACRO62*
4,1,21,-.016732,.00689,
.009843,.00689,
.011039,.006785,
.012199,.006474,
.013288,.005967,
.014272,.005278,
.015121,.004428,
.01581,.003445,
.016317,.002356,
.016628,.001196,
.016733,0.0,
.016628,-.001197,
.016317,-.002357,
.015809,-.003445,
.01512,-.004429,
.014271,-.005278,
.013287,-.005967,
.012199,-.006475,
.011038,-.006785,
.009843,-.00689,
-.016732,-.00689,
-.016732,.00689,
0.0*
%
%ADD62MACRO62*%
%ADD57O,.04X.056*%
%ADD16R,.026X.041*%
%ADD26O,.045X.035*%
%AMMACRO72*
4,1,44,-.11811,-.15748,
-.124946,-.156882,
-.131575,-.155106,
-.137795,-.152206,
-.143416,-.148269,
-.148269,-.143417,
-.152205,-.137795,
-.155106,-.131576,
-.156882,-.124947,
-.15748,-.11811,
-.15748,-.11811,
-.15748,.11811,
-.156882,.124946,
-.155106,.131575,
-.152206,.137795,
-.148269,.143416,
-.143417,.148269,
-.137795,.152205,
-.131576,.155106,
-.124947,.156882,
-.11811,.15748,
-.11811,.15748,
.11811,.15748,
.124946,.156882,
.131575,.155106,
.137795,.152206,
.143416,.148269,
.148269,.143417,
.152205,.137795,
.155106,.131576,
.156882,.124947,
.15748,.11811,
.15748,.11811,
.15748,-.11811,
.156882,-.124946,
.155106,-.131575,
.152206,-.137795,
.148269,-.143416,
.143417,-.148269,
.137795,-.152205,
.131576,-.155106,
.124947,-.156882,
.11811,-.15748,
.11811,-.15748,
-.11811,-.15748,
0.0*
%
%ADD72MACRO72*%
%ADD65C,.01*%
%ADD60R,.065X.022*%
%ADD34R,.04X.055*%
%ADD19O,.035X.045*%
%ADD75R,.08X.025*%
%ADD45C,.011*%
%ADD31R,.067X.03*%
%ADD12C,.02*%
%ADD46C,.03*%
%ADD21R,.036X.016*%
%ADD77C,.013*%
%ADD22R,.016X.028*%
%ADD14O,.094X.035*%
%ADD10O,.067X.035*%
%ADD56R,.039X.016*%
%ADD39R,.045X.055*%
%ADD69R,.043X.075*%
%ADD37C,.06*%
%ADD78C,.061*%
%ADD43C,.016*%
%ADD38R,.051X.059*%
%ADD24C,.025*%
%ADD76R,.057X.018*%
%ADD47R,.055X.047*%
%ADD33C,.08*%
%ADD15C,.026*%
%ADD74C,.018*%
%ADD53R,.028X.039*%
%ADD64R,.063X.095*%
%ADD29R,.079X.043*%
%ADD32C,.065*%
%ADD23C,.047*%
%ADD59C,.066*%
%ADD27R,.032X.032*%
%ADD73C,.067*%
%ADD55R,.024X.024*%
%ADD54R,.06X.06*%
%ADD79R,.061X.061*%
%ADD70R,.048X.079*%
%ADD36R,.08X.08*%
%ADD30C,.069*%
%ADD17R,.026X.026*%
%ADD40R,.065X.065*%
%ADD11R,.066X.066*%
%ADD71R,.067X.067*%
%ADD35R,.069X.069*%
%ADD80C,.004*%
%ADD81C,.006*%
%ADD82C,.007*%
%ADD83C,.008*%
%ADD84C,.0035*%
%ADD85C,.0044*%
%ADD86C,.00315*%
%ADD87C,.012*%
%ADD88C,.015*%
%ADD91C,.081004*%
%ADD89C,.092004*%
%ADD90C,.076004*%
G75*
%LPD*%
G75*
G36*
G01X-11500Y53500D02*
X11500D01*
X13000Y52000D01*
Y48500D01*
X12000Y47500D01*
X10865D01*
G02X10526Y48112I0J400D01*
G03X10914Y49463I-2163J1351D01*
G03X8363Y52013I-2550J0D01*
G01X2463D01*
G03X-87Y49463I0J-2550D01*
G03X300Y48112I2550J0D01*
G02X-39Y47500I-339J-212D01*
G01X-3792D01*
G02X-4131Y48112I0J400D01*
G03X-3744Y49463I-2163J1351D01*
G03X-6294Y52013I-2550J0D01*
G01X-9494D01*
G03Y46913I0J-2550D01*
G01X-7553D01*
G02X-7270Y46230I0J-400D01*
G01X-8000Y45500D01*
Y17958D01*
X-9494D01*
G03Y12858I0J-2550D01*
G01X-6294D01*
G03X-3744Y15408I0J2550D01*
G03X-3961Y16438I-2550J0D01*
G02X-3595Y17000I366J162D01*
G01X-235D01*
G02X131Y16438I0J-400D01*
G03X-87Y15408I2333J-1031D01*
G03X2463Y12858I2550J0D01*
G01X8363D01*
G03X10914Y15408I0J2550D01*
G03X10696Y16438I-2550J0D01*
G02X11062Y17000I366J162D01*
G01X15500D01*
X16500Y16000D01*
Y4500D01*
X15500Y3500D01*
X12912D01*
X12891Y3504D01*
G03X12450Y3547I-419J-2004D01*
G01X11550D01*
G03X11109Y3504I-22J-2047D01*
G01X11088Y3500D01*
X9500D01*
X9000Y4000D01*
Y10000D01*
X8000Y11000D01*
X-11000D01*
X-12500Y12500D01*
Y52500D01*
X-11500Y53500D01*
G37*
G36*
G01Y178000D02*
X14840D01*
X15420Y177420D01*
G03X16000Y177180I580J580D01*
G01X21320D01*
X21500Y177000D01*
Y174500D01*
X21500Y169500D01*
X21000Y169000D01*
X18500D01*
X16000Y171500D01*
X-5000D01*
X-7000Y169500D01*
Y145500D01*
X-5324Y143824D01*
G02X-5700Y143152I-283J-283D01*
G03X-6294Y143222I-594J-2480D01*
G01X-9494D01*
G03Y138122I0J-2550D01*
G01X-6294D01*
G03X-3744Y140672I0J2550D01*
G03X-4062Y141906I-2550J0D01*
G02X-3712Y142500I350J194D01*
G01X-118D01*
G02X232Y141906I0J-400D01*
G03X-87Y140672I2232J-1234D01*
G03X2463Y138122I2550J0D01*
G01X8363D01*
G03X10914Y140672I0J2550D01*
G03X10595Y141906I-2550J0D01*
G02X10945Y142500I350J194D01*
G01X14500D01*
X17500Y145500D01*
X23700D01*
X24300Y144900D01*
Y142600D01*
X23700Y142000D01*
X22136D01*
X22102Y142013D01*
G03X21350Y142147I-730J-1913D01*
G01X20450D01*
G03X19698Y142013I-23J-2047D01*
G01X19664Y142000D01*
X19100D01*
X14100Y137000D01*
X-11500D01*
X-12500Y138000D01*
Y177000D01*
X-11500Y178000D01*
G37*
G36*
G01X12912Y-500D02*
X15500D01*
X16000Y-1000D01*
Y-7000D01*
X15500Y-7500D01*
X8500D01*
X7500Y-6500D01*
Y-1000D01*
X8000Y-500D01*
X11088D01*
X11109Y-504D01*
G03X11550Y-547I419J2004D01*
G01X12450D01*
G03X12891Y-504I22J2047D01*
G01X12912Y-500D01*
G37*
G36*
G01X23000Y30000D02*
X23500Y29500D01*
Y25000D01*
X23000Y24500D01*
X19000D01*
X17000Y22500D01*
X12500D01*
X12000Y23000D01*
Y28500D01*
X13500Y30000D01*
X13771D01*
X13812Y29980D01*
G03X15224I706J1436D01*
G01X15265Y30000D01*
X16714D01*
G03X18622I954J1416D01*
G01X23000D01*
G37*
G36*
G01X14569Y63000D02*
X36000D01*
X36500Y62500D01*
Y59000D01*
X36000Y58500D01*
Y49500D01*
X35500Y49000D01*
X29500D01*
X29000Y49500D01*
Y57000D01*
X27000Y59000D01*
X9500D01*
Y63000D01*
X10896D01*
X10921Y62993D01*
G03X14569Y63000I1812J6871D01*
G37*
G36*
G01X9000Y132000D02*
X36000D01*
Y125000D01*
X35000Y124000D01*
X32000D01*
X27000Y129000D01*
X15997D01*
G03X9560Y129021I-3239J-6330D01*
G01X9518Y129000D01*
X9000D01*
X8500Y129500D01*
Y131500D01*
X9000Y132000D01*
G37*
G36*
G01X15000Y136486D02*
X16414Y137900D01*
X31100D01*
X31700Y137300D01*
Y134800D01*
X31400Y134500D01*
X30500D01*
X30100Y134100D01*
X15500D01*
X15000Y134600D01*
Y136486D01*
G37*
G36*
G01X16400Y152000D02*
X22100D01*
X22500Y151600D01*
Y147500D01*
X22000Y147000D01*
X16500D01*
X16000Y147500D01*
Y151600D01*
X16400Y152000D01*
G37*
G36*
G01X17375Y155416D02*
G03I-707J0D01*
G37*
G36*
G01Y164616D02*
G03I-707J0D01*
G37*
G36*
G01X18375Y31416D02*
G03I-707J0D01*
G37*
G36*
G01X25680Y177180D02*
X33820D01*
X34000Y177000D01*
Y170000D01*
X33000Y169000D01*
X26500D01*
X25500Y170000D01*
Y174500D01*
X25500Y177000D01*
X25680Y177180D01*
G37*
G36*
G01X27500Y32500D02*
X34500D01*
X35000Y32000D01*
Y21000D01*
X32000Y18000D01*
X27000D01*
X26500Y18500D01*
Y31500D01*
X27500Y32500D01*
G37*
G36*
G01X26000Y151500D02*
X34300D01*
X37750Y148050D01*
Y136500D01*
X33300D01*
X32900Y136900D01*
Y139900D01*
X32300Y140500D01*
X31600D01*
X27600Y140500D01*
X26500Y140500D01*
X26000Y141000D01*
Y151500D01*
G37*
G36*
G01X37000Y29500D02*
X44000D01*
X44500Y29000D01*
Y19000D01*
X45500Y18000D01*
X53000D01*
X53500Y17500D01*
X65500D01*
X67000Y16000D01*
Y7500D01*
X66500Y7000D01*
X63878D01*
G02X63699Y7758I0J400D01*
G03X66350Y12050I-2149J4292D01*
G03X56750I-4800J0D01*
G03X59401Y7758I4800J0D01*
G02X59222Y7000I-179J-358D01*
G01X48500D01*
X46500Y5000D01*
Y1000D01*
X45500Y0D01*
X38538D01*
G02X38157Y524I0J400D01*
G03X38550Y3000I-7607J2476D01*
G03X34000Y10218I-8000J0D01*
G01Y18500D01*
X36500Y21000D01*
Y29000D01*
X37000Y29500D01*
G37*
G36*
G01X34500Y124400D02*
Y131600D01*
X34900Y132000D01*
X41600D01*
X42000Y131600D01*
Y124400D01*
X41600Y124000D01*
X34900D01*
X34500Y124400D01*
G37*
G36*
G01X42207Y80000D02*
G03I-707J0D01*
G37*
G36*
G01Y89000D02*
G03I-707J0D01*
G37*
G36*
G01Y102500D02*
G03I-707J0D01*
G37*
G36*
G01X55500Y136400D02*
X55100Y136000D01*
X39500D01*
X39000Y136500D01*
Y142500D01*
X39500Y143000D01*
X55100D01*
X55500Y142600D01*
Y136400D01*
G37*
G36*
G01X44000Y48900D02*
Y55600D01*
X44400Y56000D01*
X53600D01*
X54000Y55600D01*
Y48900D01*
X53600Y48500D01*
X44400D01*
X44000Y48900D01*
G37*
G36*
G01X63956Y131500D02*
X64985D01*
G03X66470Y130940I1485J1690D01*
G03X67254Y131081I0J2250D01*
G01X67374Y131126D01*
X68500Y130000D01*
X70336D01*
G03X71000Y129800I664J1000D01*
G01X73700D01*
X73800Y129700D01*
Y127900D01*
X73200Y127300D01*
X56700D01*
X56000Y128000D01*
Y130500D01*
X57000Y131500D01*
X60985D01*
G03X63956I1486J1690D01*
G37*
G36*
G01X84580Y130800D02*
X89490D01*
X89700Y130590D01*
Y129420D01*
X88780Y128500D01*
X85280D01*
X83470Y126690D01*
X78970D01*
X74970Y122690D01*
X72090D01*
X70970Y121570D01*
Y116000D01*
X70470Y115500D01*
X62058D01*
X62026Y115511D01*
G03X61500Y115600I-527J-1511D01*
G03X60974Y115511I0J-1600D01*
G01X60942Y115500D01*
X60000D01*
X59500Y116000D01*
X59470D01*
Y123000D01*
X60470Y124000D01*
X64000D01*
X64500Y124000D01*
X66500Y126000D01*
X67586D01*
X67588Y126000D01*
G03X67600Y126000I10J500D01*
G01X68400D01*
G03X68412Y126000I2J500D01*
G01X68414Y126000D01*
X72086D01*
X72088Y126000D01*
G03X72100Y126000I10J500D01*
G01X72900D01*
G03X72912Y126000I2J500D01*
G01X72914Y126000D01*
X74000D01*
X77190Y129190D01*
X82970D01*
X84580Y130800D01*
G37*
G36*
G01X73470Y121690D02*
X75970D01*
X79970Y125690D01*
X83970D01*
X85880Y127600D01*
X87700D01*
X87970Y127330D01*
Y125900D01*
X87760Y125690D01*
X86400D01*
X84420Y123710D01*
X83990D01*
X83970Y123690D01*
X82970D01*
X79970Y120690D01*
Y115970D01*
X79500Y115500D01*
X73470D01*
X72970Y116000D01*
Y121190D01*
X73470Y121690D01*
G37*
G36*
G01X89207Y62500D02*
G03I-707J0D01*
G37*
G36*
G01Y66500D02*
G03I-707J0D01*
G37*
G36*
G01Y74500D02*
G03I-707J0D01*
G37*
G36*
G01Y91500D02*
G03I-707J0D01*
G37*
G36*
G01Y100000D02*
G03I-707J0D01*
G37*
G36*
G01X125500Y27000D02*
X152500D01*
Y21893D01*
X125581D01*
X125500Y21974D01*
Y27000D01*
G37*
G36*
G01X134000Y44000D02*
X135000Y45000D01*
X145300D01*
X146000Y44300D01*
Y30500D01*
X145100Y29600D01*
X130600D01*
X129700Y30500D01*
Y32200D01*
X134000Y36500D01*
Y44000D01*
G37*
G36*
G01X131970Y143190D02*
X135470D01*
X135970Y142690D01*
Y132690D01*
X135470Y132190D01*
X134517D01*
X134495Y132195D01*
G03X133505I-495J-2195D01*
G01X133483Y132190D01*
X130970D01*
X130470Y132690D01*
Y141690D01*
X131970Y143190D01*
G37*
G36*
G01X138500Y150690D02*
X138640Y150550D01*
Y146360D01*
X138470Y146190D01*
Y145190D01*
X137970Y144690D01*
X132970D01*
X131970Y145690D01*
Y149190D01*
X133470Y150690D01*
X134663D01*
G03X137337I1337J1810D01*
G01X138500D01*
G37*
G36*
G01X149000Y45000D02*
X165000D01*
X165700Y44300D01*
Y33000D01*
X164550Y31850D01*
X158850D01*
X158000Y31000D01*
Y26500D01*
X157000Y25500D01*
X154300D01*
X153800Y26000D01*
Y29000D01*
X153100Y29700D01*
X147900D01*
X147500Y30100D01*
Y37127D01*
G02X148150Y37440I400J0D01*
G03X150400Y36650I2250J2810D01*
G03Y43850I0J3600D01*
G03X148150Y43060I0J-3600D01*
G02X147534Y43534I-250J312D01*
G01X149000Y45000D01*
G37*
G36*
G01X177840Y29500D02*
X188500D01*
X191500Y26500D01*
X192086D01*
X192088Y26500D01*
G03X192100Y26500I10J500D01*
G01X192900D01*
G03X192912Y26500I2J500D01*
G01X192914Y26500D01*
X196500D01*
X197500Y25500D01*
X198000D01*
X201300Y25500D01*
X202300Y24500D01*
Y22400D01*
X201400Y21500D01*
X161160D01*
X161007Y21653D01*
G03X160427Y21893I-580J-580D01*
G01X160107D01*
X159500Y22500D01*
Y29000D01*
X160000Y29500D01*
X169340D01*
Y26990D01*
G03X170340Y25990I1000J0D01*
G01X176840D01*
G03X177840Y26990I0J1000D01*
G01Y29500D01*
G37*
G36*
G01X193300Y37200D02*
X194800D01*
X196000Y36000D01*
X202000D01*
X203100Y34900D01*
Y28600D01*
X202000Y27500D01*
X198000D01*
X196914Y27500D01*
X192000Y27500D01*
X189000Y30500D01*
X188914D01*
X170800Y30500D01*
X170350Y30950D01*
Y36350D01*
X171200Y37200D01*
X191700D01*
G03X192100Y37000I400J300D01*
G01X192900D01*
G03X193300Y37200I0J500D01*
G37*
G36*
G01X183500Y45000D02*
X209500D01*
X210500Y44000D01*
Y39000D01*
X210000Y38500D01*
X206000D01*
X202000Y38500D01*
X198000Y38500D01*
X182500Y38500D01*
Y44000D01*
X183500Y45000D01*
G37*
G36*
G01X215500Y53000D02*
X238000D01*
X239500Y51500D01*
Y38500D01*
X239000Y38000D01*
X233000D01*
X230500Y35500D01*
Y30500D01*
X228500Y28500D01*
X205000D01*
X204500Y29000D01*
Y35000D01*
X205500Y36000D01*
X211500D01*
X213000Y37500D01*
Y50500D01*
X215500Y53000D01*
G37*
G36*
G01X247500Y56000D02*
X255000D01*
X255500Y55500D01*
Y52000D01*
X256000Y51500D01*
X258500Y49000D01*
X258586D01*
X258974Y48612D01*
X258988Y48584D01*
G03X259682Y47890I1424J730D01*
G01X259710Y47876D01*
X260086Y47500D01*
X268000D01*
Y49000D01*
X280000D01*
X280500Y48500D01*
Y27000D01*
X275000Y21500D01*
X260000D01*
X253500Y28000D01*
X233500D01*
X232500Y29000D01*
Y34500D01*
X233500Y35500D01*
X248500D01*
X250500Y37500D01*
Y46000D01*
X246500Y50000D01*
Y51500D01*
X246500Y55000D01*
X247500Y56000D01*
G37*
G36*
G01X241000D02*
X244000D01*
X244500Y55500D01*
Y51500D01*
X244500Y50500D01*
X249500Y45500D01*
Y39000D01*
X248000Y37500D01*
X242000D01*
X240500Y39000D01*
Y55500D01*
X241000Y56000D01*
G37*
G36*
G01X259500D02*
X266000D01*
X267000Y55000D01*
Y51500D01*
X267000Y48500D01*
X260500D01*
X258500Y50500D01*
Y55000D01*
X259500Y56000D01*
G37*
G36*
G01X278500Y92457D02*
X282000D01*
X282034Y92299D01*
G03X283207Y91350I1174J251D01*
G01X295000D01*
Y84000D01*
X294500Y83500D01*
X287000D01*
X283800Y86700D01*
Y87500D01*
G03X283566Y88066I-800J0D01*
G01X280877Y90755D01*
G03X280343Y90989I-566J-566D01*
G03X279448Y91389I-895J-800D01*
G03X279344Y91385I1J-1200D01*
G01X279251Y91377D01*
X278500Y92127D01*
Y92457D01*
G37*
G36*
G01X298000Y91350D02*
X303306D01*
X303332Y91343D01*
G03X303622Y91300I318J1157D01*
G01X303702Y91298D01*
X305000Y90000D01*
X305353D01*
X305392Y89983D01*
G03X306500Y89750I1108J2517D01*
G01X307500D01*
G03X308608Y89983I0J2750D01*
G01X308647Y90000D01*
X309500D01*
X310500Y89000D01*
Y88500D01*
X310500Y84500D01*
X310500Y82500D01*
X310500Y79500D01*
X309500Y78500D01*
X307500D01*
X306518Y79482D01*
X306548Y79593D01*
G03X306600Y80000I-1547J407D01*
G03X306000Y81249I-1600J0D01*
G01Y82000D01*
X304500Y83500D01*
X298500D01*
X298000Y84000D01*
Y91350D01*
G37*
%LPC*%
G75*
G36*
G01X8363Y172177D02*
X2463D01*
G02Y177278I0J2550D01*
G01X8363D01*
G02Y172177I0J-2550D01*
G37*
G36*
G01X-9494Y177278D02*
X-6294D01*
G02Y172177I0J-2550D01*
G01X-9494D01*
G02Y177278I0J2550D01*
G37*
G36*
G01X136600Y37250D02*
Y43250D01*
G02X137400Y44050I800J0D01*
G01X143400D01*
G02X144200Y43250I0J-800D01*
G01Y37250D01*
G02X143400Y36450I-800J0D01*
G01X137400D01*
G02X136600Y37250I0J800D01*
G37*
G36*
G01X261950Y28050D02*
Y34950D01*
G02X262550Y35550I600J0D01*
G01X269450D01*
G02X270050Y34950I0J-600D01*
G01Y28050D01*
G02X269450Y27450I-600J0D01*
G01X262550D01*
G02X261950Y28050I0J600D01*
G37*
G54D91*
X276000Y41500D03*
X266000D03*
X256000D03*
G54D89*
X51550Y12050D03*
G54D90*
X160400Y40250D03*
%LPD*%
G75*
G54D10*
X-7894Y15408D03*
Y49463D03*
Y140672D03*
Y174727D03*
G54D11*
X-2500Y0D03*
X171850Y12050D03*
X329500Y44500D03*
G54D20*
X22240Y27000D03*
X21240Y150000D03*
X26760D03*
X27760Y27000D03*
X104240Y54500D03*
X109760D03*
G54D30*
X41300Y150500D03*
Y164500D03*
X105500Y107000D03*
X122000D03*
X236000Y31500D03*
X246000Y41500D03*
X256000D03*
X266000D03*
X276000D03*
X301800Y45000D03*
G54D21*
X23000Y34350D03*
Y37500D03*
X29693Y34350D03*
Y37500D03*
G54D12*
G01X-7894Y12658D02*
Y15408D01*
G01D02*
X-3544D01*
G01X-7894Y46713D02*
Y49463D01*
G01D02*
Y52213D01*
G01Y49463D02*
X-3544D01*
G01X-7894Y137922D02*
Y140672D01*
G01D02*
Y143422D01*
G01Y140672D02*
X-3544D01*
G01X-7894Y171977D02*
Y174727D01*
G01D02*
X-3544D01*
G01X-287Y15408D02*
X5413D01*
G01X-287Y49463D02*
X5413D01*
G01X-287Y140672D02*
X5413D01*
G01X-287Y174727D02*
X5413D01*
G01X9500Y130500D02*
X7000D01*
X4378Y127878D01*
X2090D01*
G01X5413Y12658D02*
Y15408D01*
G01D02*
X11114D01*
G01X5413Y49463D02*
Y52213D01*
G01Y49463D02*
X11114D01*
G01X5413Y137922D02*
Y140672D01*
G01D02*
X11114D01*
G01X5413Y174727D02*
X11114D01*
G01X9272Y20723D02*
X9494Y20500D01*
X17500D01*
G01X22000D02*
X17500D01*
G01X46677Y71000D02*
X41000D01*
G01X46677Y96000D02*
X41500D01*
G01X47500Y41500D02*
X49600Y39400D01*
X62777D01*
X64777Y37400D01*
Y29423D01*
X68877Y25323D01*
X86323D01*
X88500Y27500D01*
X118600D01*
X128000Y36900D01*
Y45000D01*
X133000Y50000D01*
X152000D01*
X156000Y54000D01*
X178000D01*
X179000Y55000D01*
G01X56500Y122900D02*
Y123500D01*
X52000Y128000D01*
G01X58000Y8500D02*
X61550Y12050D01*
G01X57500Y16000D02*
X61450Y12050D01*
X61550D01*
G01X56000Y52000D02*
X68500D01*
X71500Y49000D01*
Y48806D01*
G01X65100Y8500D02*
X61550Y12050D01*
G01X65500Y16000D02*
X61550Y12050D01*
G01X112000Y176500D02*
X111900Y176600D01*
X73400D01*
X71000Y179000D01*
Y187000D01*
X66000Y192000D01*
G01X81323Y71000D02*
X76100D01*
G01X81323Y96000D02*
X76100D01*
G01X104240Y54500D02*
X101000D01*
G01X112169Y44740D02*
X107719D01*
G01X109760Y54500D02*
Y57260D01*
X112000Y59500D01*
G01X136400Y40250D02*
X140400D01*
G01Y36250D02*
Y40250D01*
G01D02*
X144400D01*
G01X149000Y53750D02*
X148250Y54500D01*
X144500D01*
G01X156400Y40250D02*
X160400D01*
G01Y36250D02*
Y40250D01*
G01D02*
X164400D01*
G01X164500Y48000D02*
X168500D01*
G01X169500Y57500D02*
X165500D01*
X165000Y58000D01*
G01X168500Y48000D02*
X202500D01*
X213225Y58725D01*
X256500D01*
G01X165000Y61000D02*
Y64000D01*
G01X169500Y63500D02*
X169000Y64000D01*
X165000D01*
G01X169500Y57500D02*
X173000D01*
X174000Y58500D01*
G01D02*
X174500Y59000D01*
G01X177500Y60000D02*
X176500Y59000D01*
X174500D01*
G01X288000Y81400D02*
Y80500D01*
X289250Y79250D01*
Y75346D01*
X294096Y70500D01*
X296000D01*
G01X291000Y81500D02*
X293000Y79500D01*
Y77000D01*
G01X295500Y81500D02*
X292525Y84474D01*
G01D02*
Y87500D01*
G01X291680Y159320D02*
X293680Y161320D01*
X293820D01*
X296000Y163500D01*
G01Y64500D02*
Y62000D01*
X295000Y61000D01*
G01X296000Y163500D02*
X302000D01*
G01X296500Y182000D02*
Y175000D01*
X296000Y174500D01*
Y169500D01*
G01D02*
X302000D01*
G01X299000Y81500D02*
Y77000D01*
G01X312500Y77086D02*
X314500Y79086D01*
Y80500D01*
G01X312457Y89957D02*
X314500Y87914D01*
Y86500D01*
G01X767900Y-54600D02*
Y-154600D01*
X367900D01*
G01D02*
Y-54600D01*
X767900D01*
G01X372700Y113500D02*
X367000D01*
G01X396300Y62000D02*
X390800Y67500D01*
X379494D01*
X374004Y62011D01*
G01Y152011D02*
X377000Y155006D01*
Y164500D01*
G01X384004Y152011D02*
X383000Y153015D01*
Y164500D01*
G01X398000Y89000D02*
Y93500D01*
G01X405000Y58000D02*
X406997D01*
X409620Y60623D01*
Y74303D01*
X419300Y83983D01*
Y100233D01*
X420780Y101712D01*
Y137220D01*
X418000Y140000D01*
G01X405780Y61500D02*
X405280Y62000D01*
X402300D01*
G01X401300Y128500D02*
X405500D01*
X407500Y126500D01*
G01X413768Y199933D02*
Y195500D01*
G01X422732Y-3906D02*
Y-8000D01*
G01Y12433D02*
Y17500D01*
X-6000Y193000D03*
Y197000D03*
X9500Y-6000D03*
X5500Y188500D03*
Y197000D03*
X13000Y183594D03*
X9732Y192732D03*
X14500Y-6000D03*
X17500Y20500D03*
X14518Y25266D03*
X17668D03*
Y31416D03*
X14518D03*
X17668Y28416D03*
X14518D03*
X17668Y34416D03*
Y40616D03*
Y37616D03*
X17500Y45500D03*
Y50500D03*
X16200Y136200D03*
X17000Y148000D03*
Y151000D03*
X16668Y155416D03*
Y158416D03*
Y161616D03*
Y164616D03*
X25600Y136000D03*
X31500Y156000D03*
X31550Y159150D03*
X31500Y165500D03*
X31550Y162350D03*
X31500Y171000D03*
Y176000D03*
X32500Y31000D03*
Y58000D03*
Y62000D03*
X36000Y125500D03*
Y130500D03*
X40500Y64000D03*
X41500Y2000D03*
Y7000D03*
Y12000D03*
Y17000D03*
X44500Y33000D03*
X41000Y71000D03*
X41500Y80000D03*
Y82753D03*
Y86000D03*
Y89000D03*
Y92500D03*
Y99500D03*
Y96000D03*
Y102500D03*
Y108000D03*
Y112000D03*
X47500Y41500D03*
X49500Y62800D03*
X49000Y137000D03*
Y140500D03*
X53700Y27700D03*
X49960Y28960D03*
X50000Y51000D03*
Y55000D03*
X52300Y122300D03*
X53000Y137000D03*
Y140500D03*
X57440Y28940D03*
X56000Y52000D03*
X56500Y122900D03*
X57500Y129000D03*
X62000Y36500D03*
X61500Y110000D03*
Y114000D03*
Y140500D03*
X60500Y157300D03*
X67500Y31000D03*
X65692Y130338D03*
X70500Y28000D03*
X71500Y48806D03*
X69500Y137190D03*
X71120Y158380D03*
X74500Y28000D03*
X76000Y48500D03*
X76100Y71000D03*
Y96000D03*
X75000Y140500D03*
X76500Y162000D03*
X81000Y28000D03*
X79037Y37546D03*
X81000Y49000D03*
X84500Y28000D03*
X82000Y120000D03*
X81500Y133688D03*
Y141500D03*
X84500Y162000D03*
X88000Y19000D03*
X89500Y37500D03*
X86000D03*
X85750Y44250D03*
X88500Y62500D03*
Y66500D03*
X86600Y69000D03*
Y72500D03*
X88500Y74500D03*
Y91500D03*
X86600Y94000D03*
Y97500D03*
X88500Y100000D03*
X86000Y148500D03*
X89128D03*
X88565Y152500D03*
X89500Y162000D03*
X91282Y68018D03*
Y64482D03*
X92000Y76800D03*
Y79800D03*
Y86000D03*
Y83000D03*
X91096Y151000D03*
X95500Y19000D03*
X98500Y41500D03*
Y45500D03*
Y48500D03*
X95000Y57550D03*
X98500D03*
X96000Y162000D03*
X98500Y174000D03*
X102500Y22500D03*
X100900Y39500D03*
X101000Y54500D03*
X102000Y57500D03*
X101500Y72000D03*
X99500Y162000D03*
X103000D03*
X107719Y44740D03*
X107000Y77500D03*
X105500Y99000D03*
X106500Y162000D03*
X109000Y33000D03*
X112000Y59500D03*
X110500Y99000D03*
X109500Y162000D03*
X112000Y176500D03*
X116600Y48000D03*
X116000Y69000D03*
Y74000D03*
Y79000D03*
X113807Y87807D03*
X115000Y100500D03*
X114500Y124500D03*
X114968Y146500D03*
X116100Y162000D03*
X121000Y19000D03*
X117000Y17000D03*
X120500Y33210D03*
X117000Y59500D03*
X120500D03*
X121000Y69000D03*
Y74000D03*
Y79000D03*
X117500Y88000D03*
X118500Y120500D03*
X118718Y134437D03*
X116968Y138687D03*
X116892Y143108D03*
X118500Y160500D03*
X125117Y40539D03*
Y47800D03*
X123955Y59585D03*
Y88000D03*
X126600Y22893D03*
X126500Y26000D03*
X126000Y69000D03*
Y74000D03*
Y79000D03*
X128500Y119500D03*
X128450Y128000D03*
X128420Y131690D03*
X128470Y135690D03*
Y144690D03*
Y148690D03*
X134500Y73015D03*
X131500Y128000D03*
X131468Y133187D03*
Y136687D03*
X135100Y22893D03*
X136000Y65581D03*
X136500Y80000D03*
X135000Y115500D03*
X137669Y125000D03*
X136570Y145702D03*
Y149202D03*
X141100Y22893D03*
X143000Y80500D03*
X139500Y109000D03*
X140994Y139400D03*
X147100Y22893D03*
X145950Y61500D03*
Y65500D03*
Y69500D03*
Y73500D03*
X146100Y84400D03*
X146000Y87500D03*
X143500Y199180D03*
X149000Y53750D03*
Y199180D03*
X154133Y73559D03*
X152640Y79000D03*
X160000Y18500D03*
X161063Y23000D03*
X159500Y47500D03*
X160780Y64750D03*
X159500Y78500D03*
X158650Y96050D03*
X160500Y166298D03*
X157500Y164432D03*
X162500Y-3000D03*
X164000Y23000D03*
X164500Y48000D03*
X165000Y58000D03*
Y61000D03*
Y64000D03*
X162500Y78500D03*
X161500Y96000D03*
X165000Y96180D03*
X162000Y110000D03*
X163878Y145000D03*
X162514Y158840D03*
X165120Y170920D03*
X167500Y18000D03*
X168500Y48000D03*
X168000Y73559D03*
Y86000D03*
Y89000D03*
X168500Y104000D03*
X166000Y110000D03*
X167800Y141500D03*
X168000Y145000D03*
X166000Y157900D03*
X168977Y170920D03*
X171000Y73500D03*
Y78500D03*
X174500Y146500D03*
X171000D03*
X176400Y34000D03*
X177000Y79000D03*
X175500Y84000D03*
X178500Y85000D03*
X175500Y87500D03*
X178500Y88500D03*
X175500Y94000D03*
Y91000D03*
X178000Y146500D03*
X178448Y157946D03*
X183267Y74906D03*
X182500Y109000D03*
X181534Y142959D03*
X184100Y32000D03*
Y36000D03*
X186500Y34000D03*
X186300Y77420D03*
X188000Y87000D03*
X188033Y89822D03*
X184500Y142840D03*
X186500Y199720D03*
X190000Y18500D03*
Y22500D03*
X188200Y94000D03*
X189250Y101000D03*
X190140Y107280D03*
X191180Y123442D03*
X192250Y154750D03*
X194500Y22500D03*
X195500Y28500D03*
Y31300D03*
Y34100D03*
X195410Y61241D03*
Y64391D03*
X196750Y69500D03*
X194676Y75574D03*
X193000Y115700D03*
X195500Y154660D03*
X199963Y65680D03*
X199350Y72500D03*
X204000Y65500D03*
X202000Y72500D03*
X204652D03*
X204500Y78470D03*
X210000Y71570D03*
X207252Y72500D03*
X208000Y78570D03*
X208026Y84210D03*
X208000Y88850D03*
X205900Y91500D03*
X216250Y22967D03*
X215500Y113500D03*
X219326Y19000D03*
X228180Y191500D03*
X228360Y-1280D03*
X231449Y97680D03*
X232040Y106570D03*
X231000Y114611D03*
X229820Y179606D03*
X231994Y183569D03*
X229980Y187054D03*
X228500Y197500D03*
X235000Y11000D03*
X235607Y17860D03*
X233074Y21500D03*
X234930Y72570D03*
X236500Y75500D03*
X233000D03*
X236630Y178153D03*
X234906Y186400D03*
X234686Y189600D03*
X233439Y193500D03*
X232967Y198160D03*
X239500Y75500D03*
X241066Y109600D03*
X239640Y185389D03*
X239546Y192411D03*
X242143Y188033D03*
X254000Y64400D03*
X252116Y125879D03*
X257000Y-3000D03*
X256500Y58725D03*
X260412Y49314D03*
X263112D03*
X261512Y59987D03*
X265912Y49314D03*
X264500Y165340D03*
X277600Y75489D03*
X282500Y67000D03*
X288000Y81400D03*
X288950Y109500D03*
X289350Y119160D03*
X288000Y159320D03*
X292000Y35500D03*
Y59500D03*
X295000Y61000D03*
X292000Y65000D03*
X291000Y81500D03*
X291716Y109720D03*
X291680Y159320D03*
X299000Y81500D03*
X295500D03*
X295278Y102940D03*
X297400Y155680D03*
X302000Y38000D03*
X304100Y-1700D03*
X305000Y80000D03*
X305500Y115360D03*
Y151500D03*
Y154500D03*
X309500Y42500D03*
X309320Y46300D03*
X312500Y77086D03*
X312457Y89957D03*
X316000Y42500D03*
X315500Y50500D03*
X321500Y35000D03*
X317500Y36000D03*
X319500Y50500D03*
X318500Y82500D03*
X323500Y38650D03*
X323000Y82500D03*
X322773Y97000D03*
X331000Y87659D03*
X340900Y52000D03*
X346709Y-1709D03*
X347000Y13500D03*
Y17000D03*
Y23320D03*
Y27000D03*
X348000Y32000D03*
X346880Y48620D03*
X347000Y84820D03*
X348500Y88460D03*
X348426Y91500D03*
X347426Y94500D03*
X344426Y98506D03*
Y104320D03*
X351000Y18500D03*
Y22000D03*
X351680Y32172D03*
X350000Y84820D03*
X353000Y175200D03*
X350034Y175280D03*
X356000Y49000D03*
X355100Y97000D03*
X355066Y135600D03*
X356180Y174714D03*
X358500Y46000D03*
X361500Y84500D03*
X357710Y97000D03*
X361000Y117000D03*
X360000Y125000D03*
X357782Y168740D03*
X360841Y168734D03*
X363500Y46000D03*
X364000Y117000D03*
X364500Y123500D03*
X363500Y132000D03*
X362000Y144320D03*
X364000Y166500D03*
X367000Y44180D03*
Y113500D03*
X370500Y135220D03*
X369500Y145820D03*
X368039Y166500D03*
X374500Y42500D03*
X374000Y87500D03*
X375000Y143290D03*
X372500Y144500D03*
X371516Y158891D03*
X383000Y42700D03*
X383205Y45500D03*
X383300Y134500D03*
X384500Y76070D03*
X387974Y166500D03*
X390500Y45500D03*
Y42500D03*
X391500Y76000D03*
X393100Y86200D03*
Y89200D03*
X390937Y110063D03*
X390500Y156000D03*
X397500Y42500D03*
X394874Y110126D03*
X395000Y154000D03*
X398500Y66500D03*
X401000Y79500D03*
X398000Y93500D03*
X398400Y110200D03*
X401500D03*
X400500Y140000D03*
X398500Y148500D03*
X401234Y163320D03*
X399500Y199500D03*
X404858Y42600D03*
X405000Y58000D03*
X405780Y61500D03*
X402300Y66500D03*
X405700D03*
X406000Y100500D03*
X405500Y144500D03*
X403000Y171000D03*
X410291Y-2291D03*
X409000Y15500D03*
X410500Y29000D03*
X410291Y35000D03*
X411000Y95500D03*
X410500Y119800D03*
X407500Y126500D03*
X408500Y163500D03*
Y175000D03*
X413000Y49500D03*
X412500Y175000D03*
X413768Y195500D03*
X417000Y25000D03*
X416100Y106000D03*
Y109500D03*
X415800Y113500D03*
X418000Y140000D03*
X416000Y166500D03*
X422732Y-8000D03*
Y17500D03*
X420080Y79900D03*
G54D40*
X81550Y12050D03*
X136000Y182000D03*
X221750D03*
X292000Y12050D03*
G54D22*
X22622Y45500D03*
Y52500D03*
X25378Y45500D03*
Y52500D03*
G54D31*
X46677Y66000D03*
Y71000D03*
Y76000D03*
Y81000D03*
Y86000D03*
Y91000D03*
Y96000D03*
Y101000D03*
X81323Y66000D03*
Y71000D03*
Y76000D03*
Y81000D03*
Y86000D03*
Y91000D03*
Y96000D03*
Y101000D03*
G54D13*
X2090Y64571D03*
Y127878D03*
G54D23*
X23035Y68430D03*
Y77445D03*
Y115004D03*
Y124020D03*
X27287Y82170D03*
Y90201D03*
Y98233D03*
Y106264D03*
X31618Y86185D03*
Y94217D03*
Y102248D03*
Y110280D03*
G54D32*
X46000Y182000D03*
Y192000D03*
X56000Y182000D03*
Y192000D03*
X66000Y182000D03*
Y192000D03*
X76000Y182000D03*
Y192000D03*
X81550Y2050D03*
X86000Y182000D03*
Y192000D03*
X91550Y2050D03*
Y12050D03*
X96000Y182000D03*
Y192000D03*
X101550Y2050D03*
Y12050D03*
X106000Y182000D03*
Y192000D03*
X111550Y2050D03*
Y12050D03*
X116000Y182000D03*
Y192000D03*
X121550Y2050D03*
Y12050D03*
X126000Y182000D03*
Y192000D03*
X131550Y2050D03*
Y12050D03*
X136000Y192000D03*
X141550Y2050D03*
Y12050D03*
X151550Y2050D03*
Y12050D03*
X151750Y182000D03*
Y192000D03*
X161750Y182000D03*
Y192000D03*
X171750Y182000D03*
Y192000D03*
X181750Y182000D03*
Y192000D03*
X191750Y182000D03*
Y192000D03*
X201750Y182000D03*
Y192000D03*
X211750Y182000D03*
Y192000D03*
X221750D03*
X242000Y2050D03*
Y12050D03*
X252000Y2050D03*
Y12050D03*
X262000Y2050D03*
Y12050D03*
X272000Y2050D03*
Y12050D03*
X282000Y2050D03*
Y12050D03*
X292000Y2050D03*
G54D14*
X5413Y15408D03*
Y49463D03*
Y140672D03*
Y174727D03*
G54D50*
X116075Y64199D03*
Y83801D03*
X120015Y64199D03*
X118045D03*
Y83801D03*
X120015D03*
X123955Y64199D03*
X121985D03*
Y83801D03*
X123955D03*
X125925Y64199D03*
Y83801D03*
G54D41*
X77638Y40146D03*
X79213D03*
Y45854D03*
X77638D03*
X80787Y40146D03*
X82362D03*
Y45854D03*
X80787D03*
G54D15*
X3957Y20723D03*
Y24069D03*
Y27416D03*
Y30762D03*
Y34109D03*
Y37455D03*
Y40802D03*
Y44148D03*
Y145987D03*
Y149334D03*
Y152680D03*
Y156027D03*
Y159373D03*
Y162719D03*
Y166066D03*
Y169412D03*
X9272Y20723D03*
Y24069D03*
Y27416D03*
Y30762D03*
Y34109D03*
Y40802D03*
Y37455D03*
Y145987D03*
Y149334D03*
Y152680D03*
Y156027D03*
Y159373D03*
Y166066D03*
Y162719D03*
G54D33*
X51550Y2050D03*
Y12050D03*
X61550D03*
G54D24*
X21500Y155000D03*
Y159000D03*
Y162500D03*
Y166000D03*
X25500Y155000D03*
Y159000D03*
Y162500D03*
Y166000D03*
X30000Y42000D03*
Y46500D03*
X34000Y42000D03*
Y46500D03*
X42000Y59100D03*
X46000D03*
X62470Y133190D03*
Y137190D03*
X66470Y133190D03*
Y137190D03*
X70500Y31000D03*
Y35000D03*
X68000Y124500D03*
Y128500D03*
X74000Y31000D03*
Y35000D03*
X73500Y52000D03*
X72500Y124500D03*
Y128500D03*
X72470Y133690D03*
X76470D03*
Y137690D03*
X72470D03*
X75500Y165000D03*
Y169000D03*
X77500Y31000D03*
X81000D03*
X77500Y35000D03*
X81000D03*
Y52000D03*
X77500D03*
X80000Y113000D03*
X77500Y142500D03*
Y146500D03*
Y150500D03*
Y154500D03*
X79500Y165000D03*
Y169000D03*
X84500Y31000D03*
Y35000D03*
X85000Y52000D03*
X84000Y113000D03*
X83500Y155000D03*
Y159000D03*
X88000Y31000D03*
Y35000D03*
X87000Y155000D03*
Y159000D03*
X91500Y31000D03*
Y35000D03*
Y41500D03*
Y46000D03*
X90500Y155000D03*
X94000D03*
X90500Y159000D03*
X94000D03*
X95500Y41500D03*
Y46000D03*
X95000Y60500D03*
X98500D03*
X95000Y64500D03*
Y68000D03*
X98500Y64500D03*
Y68000D03*
X95000Y72000D03*
X98500D03*
X95000Y75500D03*
X98500D03*
X95000Y79500D03*
X98500D03*
X95000Y83000D03*
X98500D03*
X95000Y87000D03*
X98500D03*
X97500Y155000D03*
Y159000D03*
X102000Y60500D03*
Y64500D03*
X101000Y155000D03*
Y159000D03*
X105500Y60500D03*
Y64500D03*
Y92000D03*
Y96000D03*
X104500Y155000D03*
X108000D03*
X104500Y159000D03*
X108000D03*
X110500Y92000D03*
Y96000D03*
X114000Y52500D03*
Y56500D03*
X115000Y92000D03*
Y96000D03*
X118000Y52500D03*
Y56500D03*
X122000Y52500D03*
Y56500D03*
X125500Y119500D03*
X121500D03*
Y123000D03*
X125500D03*
X121500Y128000D03*
X125500D03*
X121470Y131690D03*
X125470D03*
Y135690D03*
X121470D03*
Y139690D03*
X125470D03*
Y144690D03*
X121470D03*
Y148690D03*
X125470D03*
X121500Y152500D03*
X125500D03*
X121500Y156500D03*
X125500D03*
X121500Y160500D03*
X125500D03*
X126000Y52500D03*
X130000D03*
X126000Y56500D03*
X130000D03*
X131500Y123000D03*
X134000Y130000D03*
X132000Y152500D03*
Y156500D03*
X139000Y61500D03*
Y65500D03*
Y73000D03*
Y69500D03*
Y83600D03*
Y87500D03*
X135500Y123000D03*
X138000Y130000D03*
X136000Y152500D03*
Y156500D03*
X143000Y61500D03*
Y65500D03*
Y73000D03*
Y69500D03*
Y83600D03*
Y87500D03*
X141000Y114500D03*
Y118000D03*
Y122000D03*
X145000Y106500D03*
Y110500D03*
Y114500D03*
Y118000D03*
Y122000D03*
X144000Y125500D03*
Y129500D03*
X159000Y83500D03*
Y87500D03*
X164500Y83500D03*
Y87500D03*
X162000Y102500D03*
X166000D03*
X162000Y106500D03*
X166000D03*
X168000Y96500D03*
X169500Y134000D03*
Y138000D03*
X174500Y59000D03*
Y63000D03*
X172000Y96500D03*
X173000Y134000D03*
Y138000D03*
X181500Y68500D03*
Y72500D03*
X183500Y135000D03*
Y139000D03*
X185500Y68500D03*
Y72500D03*
X186000Y97500D03*
Y101500D03*
Y105000D03*
Y109000D03*
X192500Y25000D03*
Y29000D03*
Y35500D03*
Y39500D03*
X192000Y58500D03*
Y62500D03*
X196500Y55000D03*
Y58500D03*
X200500Y55000D03*
Y58500D03*
X209000Y25500D03*
Y29500D03*
X228000Y106500D03*
Y110500D03*
Y114000D03*
Y118000D03*
X247500Y145500D03*
Y149500D03*
X268000Y147500D03*
X264500D03*
X268000Y151500D03*
X264500D03*
X280500Y71500D03*
Y75500D03*
X284500Y71500D03*
Y75500D03*
X291500Y143860D03*
Y147860D03*
X312000Y94000D03*
Y98500D03*
X314000Y32000D03*
X317500D03*
X314000Y36000D03*
X316000Y94000D03*
Y98500D03*
X321500Y32000D03*
X347500Y167000D03*
X351500D03*
X359500Y49000D03*
X361500Y77500D03*
Y81500D03*
X363500Y49000D03*
X366000Y88500D03*
Y92000D03*
X364000Y169500D03*
X370000Y88500D03*
Y92000D03*
X368000Y169500D03*
X381000Y49000D03*
X385000D03*
X397500D03*
X401500D03*
X406000D03*
X404000Y79500D03*
Y83500D03*
Y94000D03*
Y98000D03*
X409000Y20500D03*
Y25000D03*
X410000Y49000D03*
X408500Y168000D03*
Y172000D03*
X413000Y20500D03*
Y25000D03*
X412500Y168000D03*
Y172000D03*
G54D60*
X173590Y28090D03*
Y39910D03*
G54D51*
X114105Y64199D03*
Y83801D03*
X127895Y64199D03*
Y83801D03*
G54D42*
X77616Y42213D03*
Y43787D03*
X82384D03*
Y42213D03*
G54D70*
X292525Y87500D03*
X300474D03*
G54D43*
X84468Y122187D03*
X82500Y136070D03*
X85000Y136048D03*
X87968Y119827D03*
X90718Y127937D03*
X93500Y126200D03*
X91078Y136049D03*
X90468Y140187D03*
X95468Y120187D03*
X96998Y126297D03*
X95998Y148187D03*
X99500Y119000D03*
X100470Y127563D03*
X102968Y127500D03*
X100938Y134167D03*
X102500Y142024D03*
X100550Y140740D03*
X100939Y149187D03*
X106453Y126259D03*
X106718Y131937D03*
X104685Y133382D03*
X106858Y138127D03*
X105468Y135687D03*
X109968Y120187D03*
Y148187D03*
X114428Y119387D03*
X112968Y135187D03*
X113000Y144000D03*
X128500Y160874D03*
X127000Y162805D03*
X132500Y160500D03*
X138305Y154000D03*
X136500Y160500D03*
X140520Y146400D03*
X143045Y152742D03*
X139520Y171250D03*
X144000Y146400D03*
X145425Y152742D03*
X143571Y163118D03*
X144020Y168560D03*
X147500Y179500D03*
X148510Y151980D03*
X150153Y149022D03*
X156350Y87500D03*
X156200Y127000D03*
X153427Y138000D03*
X155000Y145500D03*
X152810Y153464D03*
X155500Y177058D03*
X163000Y150680D03*
Y154660D03*
X181000Y150329D03*
X186500Y134720D03*
X187880Y152440D03*
X191500Y135080D03*
X190481Y147481D03*
X192800Y100940D03*
X194500Y135000D03*
X193200Y149400D03*
X197450Y179250D03*
X204320Y131160D03*
X201852Y133271D03*
X205020Y152800D03*
X203140Y166119D03*
X206030Y167529D03*
X214630Y92161D03*
X210420Y95928D03*
X214169Y95432D03*
X211209Y101691D03*
X214600Y100500D03*
X211960Y104340D03*
X212880Y106380D03*
X213500Y111000D03*
X211350Y156500D03*
X214220Y177725D03*
X218630Y88750D03*
X218140Y93500D03*
X218028Y96097D03*
X216000Y97052D03*
X217000Y149280D03*
X215205Y160933D03*
X221380Y94120D03*
X220500Y96136D03*
X223000Y96100D03*
X223260Y151160D03*
X223237Y162720D03*
X227443Y95320D03*
X225378Y96079D03*
X224829Y120120D03*
X227552Y124552D03*
X225240Y124500D03*
X229980Y149280D03*
X235046Y121641D03*
X233049Y125000D03*
X235047Y123841D03*
X234120Y132620D03*
X236500Y132705D03*
X239500Y23620D03*
X237500Y71500D03*
X239800D03*
X240300Y121400D03*
X240324Y118463D03*
X238287Y124179D03*
X239494Y129304D03*
X237308Y169030D03*
X245179Y68470D03*
X242000Y71500D03*
X244000Y128500D03*
X241542D03*
X248000Y25180D03*
X249800Y68500D03*
X247500D03*
X247181Y129973D03*
X247281Y142699D03*
X249307Y152320D03*
X249000Y157389D03*
X245988Y173613D03*
X249320Y173440D03*
X251500Y25620D03*
X254498Y67802D03*
X251083Y79750D03*
X252500Y81975D03*
X253380Y84423D03*
X251737Y98063D03*
X253720Y100031D03*
X253657Y103900D03*
X251689Y106000D03*
X250421Y127579D03*
X253781Y161081D03*
X253167Y167868D03*
X259199Y64531D03*
X256999Y64500D03*
X256950Y67850D03*
X255507Y92157D03*
X257626Y94126D03*
X255626Y96100D03*
X257478Y98185D03*
X255626Y102000D03*
X257726D03*
X255626Y108000D03*
X257594Y106000D03*
X255626Y111874D03*
X257613Y109874D03*
X255500Y131973D03*
X257760Y131942D03*
X255480Y151380D03*
X258280Y163600D03*
X255524Y166348D03*
X259444Y90189D03*
X261500Y92157D03*
X263622Y94016D03*
X263611Y96116D03*
X261426Y98184D03*
X259540Y95980D03*
X263500Y102000D03*
X259438Y100184D03*
X259500Y108000D03*
X263500Y107500D03*
X261531Y105819D03*
X259563Y104087D03*
X261423Y111843D03*
X263500Y109874D03*
X259444Y113856D03*
X263550Y128971D03*
X260310Y129811D03*
X263199Y131832D03*
X261000Y131900D03*
X262427Y143280D03*
X259480Y172500D03*
X267500Y90189D03*
X265500Y92157D03*
X265469Y98044D03*
X267337Y96094D03*
X267317Y99956D03*
X267469Y103969D03*
X267437Y108024D03*
X265347Y111946D03*
X267437Y113830D03*
X266834Y134000D03*
X271091Y58880D03*
X271374Y92126D03*
X269500Y94005D03*
X271474Y96095D03*
X269406Y98063D03*
X271374Y102000D03*
X269274Y102124D03*
X271474Y107994D03*
X269524Y105937D03*
X271374Y111824D03*
X269400Y109993D03*
X270000Y126500D03*
X271500Y128500D03*
X269500Y141400D03*
X270980Y139737D03*
X269554Y155140D03*
X272500Y168480D03*
X274500Y62000D03*
X275428Y97940D03*
X273324Y99931D03*
X275312Y105937D03*
X273343Y104087D03*
X274940Y129534D03*
X274600Y154100D03*
X275500Y168480D03*
X277500Y83000D03*
X279448Y90189D03*
X277280D03*
X281000Y87500D03*
X278000Y133774D03*
X280000Y134774D03*
X277249Y139031D03*
X281272Y136634D03*
X278716Y147213D03*
X280500Y171560D03*
X281500Y199240D03*
X289648Y123620D03*
X288465Y144053D03*
X286180D03*
X289533Y201528D03*
X292500Y119000D03*
X292148Y123680D03*
X292338Y140577D03*
X294601Y140605D03*
X294500Y146820D03*
X291000Y179000D03*
X296265Y128440D03*
X298006Y140760D03*
X295885Y200005D03*
X307656Y110220D03*
X305500Y109220D03*
X308000Y115100D03*
X305818Y119473D03*
X310500Y110320D03*
X312000Y115320D03*
X308818Y119473D03*
X312000Y119560D03*
X313244Y110320D03*
X315000Y115320D03*
Y119560D03*
X315520Y176480D03*
X318305Y97000D03*
X317859Y104400D03*
X320660Y104160D03*
X323226Y104200D03*
X325464Y112680D03*
X324166Y134440D03*
X323640Y168902D03*
X327500Y134400D03*
X329766Y155957D03*
X332530Y144970D03*
X336500Y132280D03*
X336480Y137520D03*
X335485Y144970D03*
X342780Y113700D03*
X342891Y123200D03*
X343380Y142084D03*
X339709Y143000D03*
X340000Y146500D03*
X342858Y161540D03*
X345380Y113700D03*
X345580Y123120D03*
X354256Y166900D03*
G54D34*
X49960Y23670D03*
X53700Y32330D03*
X57440Y23670D03*
G54D16*
X1268Y183594D03*
Y199933D03*
X9732Y183594D03*
Y199933D03*
X414268Y-3906D03*
Y12433D03*
X413768Y183594D03*
Y199933D03*
X422732Y-3906D03*
Y12433D03*
X422232Y183594D03*
Y199933D03*
G54D25*
X19700Y172000D03*
X27300D03*
G54D61*
X179500Y34000D03*
G54D52*
X121000Y74000D03*
G54D80*
G01X246500Y81500D02*
X250614Y85614D01*
X250790Y86039D01*
Y87150D01*
X249720Y88220D01*
G01X251689D02*
Y86118D01*
X251142Y84799D01*
X246844Y80500D01*
G01X296992Y99235D02*
X282617D01*
X282567Y99285D01*
X280285D01*
X279881Y98881D01*
X278430D01*
X277280Y100031D01*
G01X253657Y88220D02*
X252489Y87052D01*
Y85959D01*
X251770Y84224D01*
X250450Y82904D01*
G01X247950Y74450D02*
X255950D01*
X261531Y80031D01*
Y86252D01*
G01X265469D02*
X265669Y86052D01*
Y80369D01*
G01X245750Y84250D02*
X247752Y86252D01*
G01X246532Y87000D02*
X247752Y88220D01*
G01X246536Y91087D02*
X248650D01*
X249720Y92157D01*
G01X242150Y78350D02*
X253850D01*
X257594Y82094D01*
Y86252D01*
G01Y88220D02*
X258761Y87053D01*
Y81761D01*
X254400Y77400D01*
X247748D01*
G01X246634Y83166D02*
X249720Y86252D01*
G01X245900Y87900D02*
X247487Y89487D01*
X250987D01*
X251689Y90189D01*
G01X245851Y89200D02*
X246938Y90287D01*
X249819D01*
X251689Y92157D01*
G01X244527Y94027D02*
X251590D01*
X253657Y96094D01*
G01X249720Y103969D02*
X248650Y105039D01*
X244770D01*
X244500Y104769D01*
G01X245143Y95024D02*
X250619D01*
X251689Y96094D01*
G01X244500Y102500D02*
X245000D01*
X245399Y102899D01*
X250619D01*
X251689Y103969D01*
G01X244500Y103501D02*
X244968Y103969D01*
X247752D01*
G01X246111Y93207D02*
X246131Y93227D01*
X252758D01*
X253657Y94126D01*
G01X244796Y95950D02*
X246950D01*
X247094Y96094D01*
X247752D01*
G01X244500Y100500D02*
X245999D01*
X246600Y101101D01*
X250619D01*
X250910Y100810D01*
X251689Y100031D01*
G01X244500Y101500D02*
X245499D01*
X245999Y102000D01*
X251689D01*
G01X249720Y96094D02*
X248650Y97164D01*
X246664D01*
X246300Y96800D01*
X244500D01*
G01Y98600D02*
X245000D01*
X245263Y98863D01*
X248552D01*
X249720Y100031D01*
G01X244500Y99500D02*
X244663Y99663D01*
X247384D01*
X247752Y100031D01*
G01X253657Y109874D02*
X244626D01*
X244500Y110000D01*
G01Y109000D02*
X252563D01*
X253657Y107906D01*
G01X244500Y111500D02*
X245326Y110674D01*
X252488D01*
X253657Y111843D01*
G01X244500Y97700D02*
X245700D01*
X246063Y98063D01*
X249720D01*
G01X244500Y106937D02*
X244915D01*
X245013Y106839D01*
X245832D01*
X245835Y106836D01*
X248650D01*
X249720Y107906D01*
G01X244915Y107937D02*
X247721D01*
X247752Y107906D01*
G01X249720Y111843D02*
X248570Y112993D01*
X246007D01*
X244500Y114500D01*
G01X247752Y111843D02*
X245656D01*
X244500Y112999D01*
G01X259561Y81061D02*
Y88218D01*
X259563Y88220D01*
G01X244500Y105937D02*
X249720D01*
G01X244500Y117500D02*
X247370Y114630D01*
X250870D01*
X251689Y113811D01*
G01X244500Y116000D02*
X246670Y113830D01*
X249702D01*
X251689Y111843D01*
G01X247507Y120079D02*
X249720Y117866D01*
Y117748D01*
G01X260461Y80347D02*
Y87150D01*
X261531Y88220D01*
G01X249500Y121000D02*
X251689Y118811D01*
Y115780D01*
G01X248500Y120500D02*
X250870Y118130D01*
Y116930D01*
X249720Y115780D01*
G01X262569Y81833D02*
X262601Y81865D01*
Y89119D01*
X261531Y90189D01*
G01X263669Y81181D02*
X263519Y81331D01*
Y90170D01*
X263500Y90189D01*
G01X251007Y121000D02*
X252507Y119500D01*
Y116993D01*
X253657Y115843D01*
Y115780D01*
G01X252500Y121000D02*
X253500Y120000D01*
Y117905D01*
X253657Y117748D01*
G01X254000Y121000D02*
X254500Y120500D01*
Y119501D01*
X254807Y119194D01*
Y114961D01*
X253657Y113811D01*
G01X264694Y80592D02*
Y84806D01*
X264319Y85181D01*
Y89039D01*
X265469Y90189D01*
G01X253657Y98063D02*
X251737D01*
G01X251689Y107906D02*
Y106000D01*
G01X255594Y121000D02*
Y120586D01*
X255626Y120554D01*
Y113811D01*
G01X256594Y121906D02*
Y120554D01*
X256500Y120460D01*
Y115000D01*
X257594Y113906D01*
Y113811D01*
G01X269406Y88220D02*
X268256Y87070D01*
Y85644D01*
X268569Y85331D01*
Y83431D01*
G01X267437Y88220D02*
Y85163D01*
X267519Y85081D01*
Y83161D01*
X268000Y82680D01*
Y78556D01*
G01X267000Y77914D02*
Y82549D01*
X266619Y82930D01*
Y87070D01*
X265469Y88220D01*
G01X257594Y96094D02*
Y98068D01*
X257478Y98185D01*
G01X255626Y100031D02*
X253720D01*
G01X255626Y105937D02*
Y108000D01*
G01X257594Y107906D02*
Y106000D01*
G01X253657Y105937D02*
Y103900D01*
G01X257594Y115780D02*
X258700Y116886D01*
Y121000D01*
G01X259563Y115780D02*
Y120863D01*
X259700Y121000D01*
G01X269406Y86252D02*
Y84594D01*
X270000Y84000D01*
G01X259563Y94126D02*
X257626D01*
G01X261531Y96094D02*
Y98079D01*
X261426Y98184D01*
G01X259540Y95980D02*
X259548Y95972D01*
X259685D01*
X261531Y94126D01*
G01Y109874D02*
X263500D01*
G01X259563D02*
X257613D01*
G01X259500Y108000D02*
X259600D01*
X259694Y107906D01*
X261531D01*
G01X259563Y111843D02*
Y113737D01*
X259444Y113856D01*
G01X261531Y113811D02*
X262699Y114979D01*
Y118699D01*
X262700Y118700D01*
Y119700D01*
X263500Y120500D01*
G01X261531Y117748D02*
Y120031D01*
X261930Y120430D01*
G01X260700Y120700D02*
X260461Y120461D01*
Y117305D01*
X260465Y116846D01*
X261531Y115780D01*
G01X273343Y88220D02*
X274463Y87100D01*
Y83373D01*
G01X267437Y92157D02*
X265500D01*
G01X263611Y96116D02*
X263911D01*
X263933Y96094D01*
X265469D01*
G01Y94126D02*
X263733D01*
X263622Y94016D01*
G01X265347Y111946D02*
X265469Y111824D01*
Y109874D01*
G01Y107906D02*
X263906D01*
X263500Y107500D01*
G01X264500Y120000D02*
X263500Y119000D01*
Y113811D01*
G01X265469D02*
X264300Y114980D01*
Y118299D01*
X265500Y119499D01*
Y123500D01*
G01X267500Y119000D02*
X267000Y118500D01*
Y117311D01*
X265469Y115780D01*
G01X266500Y119226D02*
X265469Y118195D01*
Y117748D01*
G01X275499Y83607D02*
X275263Y83843D01*
Y88172D01*
X275311Y88220D01*
G01X267437Y94126D02*
Y95994D01*
X267337Y96094D01*
G01X269406Y96094D02*
Y98063D01*
G01X267317Y99956D02*
X267544D01*
X267619Y100031D01*
X269406D01*
G01X269274Y102124D02*
Y101971D01*
X271214Y100031D01*
X271374D01*
G01Y105937D02*
X269524D01*
G01X269400Y109993D02*
X269268D01*
X267437Y111824D01*
Y111843D01*
G01X269406Y107906D02*
X271386D01*
X271474Y107994D01*
G01X267437Y109874D02*
Y108024D01*
G01X269406Y113811D02*
X267456D01*
X267437Y113830D01*
G01X269406Y115780D02*
X270500Y116874D01*
Y121562D01*
G01X267437Y115780D02*
X267900Y116243D01*
Y118057D01*
X268500Y118657D01*
Y120500D01*
G01X282500Y93257D02*
X276411D01*
X275311Y92157D01*
G01X282251Y94250D02*
X282058Y94057D01*
X273412D01*
X273343Y94126D01*
G01X271374Y98063D02*
Y96195D01*
X271474Y96095D01*
G01X273343Y96094D02*
X273347D01*
X275193Y97940D01*
X275428D01*
G01X282500Y95581D02*
X282081D01*
X281491Y94991D01*
X279990D01*
X279943Y94944D01*
X276461D01*
X275311Y96094D01*
G01Y100031D02*
X276579Y101299D01*
X282381D01*
X282431Y101249D01*
G01X286643Y102342D02*
X286400Y102099D01*
X275410D01*
X275311Y102000D01*
G01X273324Y99931D02*
X273343Y99912D01*
Y98063D01*
G01X286106Y103306D02*
X285699Y102899D01*
X276381D01*
X275311Y103969D01*
G01X273343Y107906D02*
X275312Y105937D01*
G01X273343Y105937D02*
Y104087D01*
G01X282500Y111086D02*
X281288Y109874D01*
X273343D01*
G01X282414Y109499D02*
X281972Y109056D01*
X276461D01*
X275311Y107906D01*
G01X282500Y112500D02*
X280693Y110693D01*
X274493D01*
X273343Y111843D01*
G01X275311D02*
X275343D01*
X277410Y113910D01*
X280069D01*
X282579Y116420D01*
Y116491D01*
G01X271374Y113811D02*
X271473Y113910D01*
Y121206D01*
X271913Y121646D01*
G01X272520Y120570D02*
Y119020D01*
X272273Y118773D01*
Y114881D01*
X273343Y113811D01*
G01X281852Y118852D02*
Y116871D01*
X279691Y114710D01*
X276210D01*
X275311Y113811D01*
G01X274940Y120684D02*
X274500Y120244D01*
Y116937D01*
X273343Y115780D01*
G01Y117748D02*
X273450Y117855D01*
Y119450D01*
G01X275311Y115780D02*
Y119528D01*
X275500Y119717D01*
Y119915D01*
G01X277500Y83000D02*
Y83500D01*
X276063Y84937D01*
Y87000D01*
X277280Y88217D01*
Y88220D01*
G01X283000Y84000D02*
Y87500D01*
X280311Y90189D01*
X279448D01*
G01X282734Y97381D02*
X280881D01*
X280763Y97263D01*
X278449D01*
X277280Y96094D01*
G01X279248D02*
X280906D01*
X281293Y96481D01*
X282500D01*
G01X277280Y98063D02*
X280194D01*
X280562Y98431D01*
X282133D01*
X282229Y98335D01*
X282500D01*
G01X279248Y100031D02*
X279402Y100185D01*
X296295D01*
G01X282500Y105937D02*
X277280D01*
G01X282500Y104937D02*
X281563D01*
X281381Y105119D01*
X278430D01*
X277280Y103969D01*
G01X285443Y104442D02*
X284937Y103937D01*
X279280D01*
X279248Y103969D01*
G01X282330Y108000D02*
X279342D01*
X279248Y107906D01*
G01X282500Y106937D02*
X279937D01*
X279737Y106737D01*
X278449D01*
X277280Y107906D01*
G01Y111843D02*
X278547Y113110D01*
X280496D01*
X282500Y115114D01*
Y115139D01*
G01X279248Y111843D02*
X280477D01*
X282567Y113933D01*
G01X279248Y115780D02*
X280500Y117032D01*
Y119000D01*
G01X277500Y119171D02*
X277280Y118951D01*
Y117748D01*
G01X276500Y119586D02*
X276111Y119197D01*
Y116949D01*
X277280Y115780D01*
G01X279248Y117748D02*
Y119236D01*
X281554Y121543D01*
G54D35*
X51300Y150500D03*
Y164500D03*
X95500Y107000D03*
X132000D03*
X236000Y41500D03*
X246000Y31500D03*
X256000D03*
X266000D03*
X276000D03*
X291800Y45000D03*
G54D71*
X314004Y62011D03*
Y152011D03*
G54D17*
X9272Y44148D03*
Y169412D03*
X263140Y160370D03*
Y168630D03*
X268260Y160370D03*
Y168630D03*
G54D53*
X113000Y154472D03*
Y161128D03*
X133470Y140862D03*
Y147518D03*
G54D26*
X29600Y136500D03*
Y142500D03*
X62000Y122000D03*
Y128000D03*
X104600Y36100D03*
Y42100D03*
X132000Y25500D03*
Y31500D03*
X138000Y25500D03*
Y31500D03*
X144000Y25500D03*
Y31500D03*
X150000Y25500D03*
Y31500D03*
X169500Y57500D03*
Y63500D03*
X176500Y69000D03*
Y75000D03*
X190500Y69000D03*
Y75000D03*
X200000Y23500D03*
Y29500D03*
Y34500D03*
Y40500D03*
X208000Y34500D03*
Y40500D03*
X296000Y64500D03*
Y70500D03*
Y163500D03*
Y169500D03*
X302000Y163500D03*
Y169500D03*
X307000Y92500D03*
Y98500D03*
X341000Y31000D03*
Y37000D03*
G54D62*
X171693Y83661D03*
Y86221D03*
Y88780D03*
Y91339D03*
G54D44*
X84500Y164728D03*
Y168272D03*
X89500Y164728D03*
Y168272D03*
X292000Y29228D03*
Y32772D03*
G54D81*
G01X277280Y92157D02*
X277480D01*
X279448Y90189D01*
G01X371250Y-145100D02*
X370623Y-145300D01*
X370153Y-145800D01*
X369840Y-146400D01*
X369605Y-147200D01*
X369527Y-148100D01*
X369605Y-149000D01*
X369840Y-149800D01*
X370153Y-150400D01*
X370623Y-150900D01*
X371250Y-151100D01*
X371877Y-150900D01*
X372347Y-150400D01*
X372660Y-149800D01*
X372895Y-149000D01*
X372973Y-148100D01*
X372895Y-147200D01*
X372660Y-146400D01*
X372347Y-145800D01*
X371877Y-145300D01*
X371250Y-145100D01*
G01X378490Y-151100D02*
Y-145100D01*
X375592Y-149400D01*
X379508D01*
G01X371425Y-142067D02*
X371892Y-142400D01*
X372417Y-142600D01*
X372883D01*
X373350Y-142400D01*
X373700Y-142067D01*
X373875Y-141600D01*
X373758Y-141133D01*
X373467Y-140733D01*
X372942Y-140467D01*
X372242Y-140333D01*
X371833Y-140067D01*
X371658Y-139600D01*
X371775Y-139133D01*
X372067Y-138800D01*
X372475Y-138600D01*
X372883D01*
X373292Y-138733D01*
X373642Y-139067D01*
G01X376225Y-142600D02*
Y-138600D01*
G01X378675D02*
Y-142600D01*
G01Y-140600D02*
X376225D01*
G01X383417Y-142600D02*
X381083D01*
Y-138600D01*
X383417D01*
G01X382483Y-140533D02*
X381083D01*
G01X388217Y-142600D02*
X385883D01*
Y-138600D01*
X388217D01*
G01X387283Y-140533D02*
X385883D01*
G01X391850Y-138600D02*
Y-142600D01*
G01X390508Y-138600D02*
X393192D01*
G01X371192Y-81600D02*
X372650Y-77600D01*
X374108Y-81600D01*
G01X373583Y-80200D02*
X371717D01*
G01X376167Y-77600D02*
Y-80467D01*
X376400Y-81067D01*
X376867Y-81467D01*
X377450Y-81600D01*
X378033Y-81467D01*
X378500Y-81067D01*
X378733Y-80467D01*
Y-77600D01*
G01X381025Y-81067D02*
X381492Y-81400D01*
X382017Y-81600D01*
X382483D01*
X382950Y-81400D01*
X383300Y-81067D01*
X383475Y-80600D01*
X383358Y-80133D01*
X383067Y-79733D01*
X382542Y-79467D01*
X381842Y-79333D01*
X381433Y-79067D01*
X381258Y-78600D01*
X381375Y-78133D01*
X381667Y-77800D01*
X382075Y-77600D01*
X382483D01*
X382892Y-77733D01*
X383242Y-78067D01*
G01X387050Y-77600D02*
Y-81600D01*
G01X385708Y-77600D02*
X388392D01*
G01X391150D02*
X392550D01*
G01X391850D02*
Y-81600D01*
G01X391150D02*
X392550D01*
G01X395308D02*
Y-77600D01*
X397992Y-81600D01*
Y-77600D01*
G01X401450Y-81733D02*
X401333Y-81667D01*
Y-81533D01*
X401450Y-81467D01*
X401567Y-81533D01*
Y-81667D01*
X401450Y-81733D01*
G01X411050Y-77600D02*
Y-81600D01*
G01X409708Y-77600D02*
X412392D01*
G01X417017Y-81600D02*
X414683D01*
Y-77600D01*
X417017D01*
G01X416083Y-79533D02*
X414683D01*
G01X419425Y-81600D02*
X421875Y-77600D01*
G01X419425D02*
X421875Y-81600D01*
G01X423992D02*
X425450Y-77600D01*
X426908Y-81600D01*
G01X426383Y-80200D02*
X424517D01*
G01X429025Y-81067D02*
X429492Y-81400D01*
X430017Y-81600D01*
X430483D01*
X430950Y-81400D01*
X431300Y-81067D01*
X431475Y-80600D01*
X431358Y-80133D01*
X431067Y-79733D01*
X430542Y-79467D01*
X429842Y-79333D01*
X429433Y-79067D01*
X429258Y-78600D01*
X429375Y-78133D01*
X429667Y-77800D01*
X430075Y-77600D01*
X430483D01*
X430892Y-77733D01*
X431242Y-78067D01*
G01X439733Y-81600D02*
X439850Y-80733D01*
X440025Y-80000D01*
X440258Y-79333D01*
X440550Y-78600D01*
X441017Y-77600D01*
X438683D01*
G01X444650Y-81600D02*
X445058Y-81533D01*
X445525Y-81333D01*
X445817Y-81000D01*
X445933Y-80533D01*
X445817Y-80067D01*
X445467Y-79667D01*
X444942Y-79467D01*
X444358D01*
X444008Y-79333D01*
X443717Y-79000D01*
X443600Y-78533D01*
X443775Y-78067D01*
X444183Y-77733D01*
X444650Y-77600D01*
X445117Y-77733D01*
X445525Y-78067D01*
X445700Y-78533D01*
X445583Y-79000D01*
X445292Y-79333D01*
X444942Y-79467D01*
X444358D01*
X443833Y-79667D01*
X443483Y-80067D01*
X443367Y-80533D01*
X443483Y-81000D01*
X443775Y-81333D01*
X444242Y-81533D01*
X444650Y-81600D01*
G01X449333D02*
X449450Y-80733D01*
X449625Y-80000D01*
X449858Y-79333D01*
X450150Y-78600D01*
X450617Y-77600D01*
X448283D01*
G01X452967Y-80800D02*
X453317Y-81267D01*
X453783Y-81533D01*
X454308Y-81600D01*
X454775Y-81533D01*
X455242Y-81200D01*
X455533Y-80800D01*
X455592Y-80400D01*
X455475Y-79933D01*
X455067Y-79600D01*
X454658Y-79467D01*
X454133D01*
G01X454658D02*
X455008Y-79267D01*
X455300Y-78933D01*
X455417Y-78533D01*
X455300Y-78133D01*
X455008Y-77800D01*
X454483Y-77600D01*
X453958Y-77667D01*
X453433Y-77933D01*
G01X457767Y-81000D02*
X458117Y-81333D01*
X458525Y-81533D01*
X459050Y-81600D01*
X459575Y-81467D01*
X459983Y-81200D01*
X460275Y-80733D01*
X460333Y-80200D01*
X460217Y-79667D01*
X459925Y-79333D01*
X459517Y-79067D01*
X459108Y-79000D01*
X458700Y-79067D01*
X458175Y-79333D01*
X458350Y-77600D01*
X459925D01*
G01X467367D02*
Y-80467D01*
X467600Y-81067D01*
X468067Y-81467D01*
X468650Y-81600D01*
X469233Y-81467D01*
X469700Y-81067D01*
X469933Y-80467D01*
Y-77600D01*
G01X472225Y-81067D02*
X472692Y-81400D01*
X473217Y-81600D01*
X473683D01*
X474150Y-81400D01*
X474500Y-81067D01*
X474675Y-80600D01*
X474558Y-80133D01*
X474267Y-79733D01*
X473742Y-79467D01*
X473042Y-79333D01*
X472633Y-79067D01*
X472458Y-78600D01*
X472575Y-78133D01*
X472867Y-77800D01*
X473275Y-77600D01*
X473683D01*
X474092Y-77733D01*
X474442Y-78067D01*
G01X476792Y-81600D02*
X478250Y-77600D01*
X479708Y-81600D01*
G01X479183Y-80200D02*
X477317D01*
G01X371542Y-72933D02*
X371950Y-72467D01*
X372300Y-72200D01*
X372767Y-72067D01*
X373175Y-72200D01*
X373467Y-72467D01*
X373700Y-72867D01*
X373758Y-73333D01*
X373700Y-73733D01*
X373467Y-74133D01*
X373117Y-74467D01*
X372708Y-74600D01*
X372242Y-74467D01*
X371833Y-74067D01*
X371600Y-73467D01*
X371542Y-72800D01*
X371658Y-71933D01*
X371833Y-71467D01*
X372125Y-71000D01*
X372533Y-70667D01*
X372942Y-70600D01*
X373350Y-70733D01*
X373642Y-71067D01*
G01X376167Y-74000D02*
X376517Y-74333D01*
X376925Y-74533D01*
X377450Y-74600D01*
X377975Y-74467D01*
X378383Y-74200D01*
X378675Y-73733D01*
X378733Y-73200D01*
X378617Y-72667D01*
X378325Y-72333D01*
X377917Y-72067D01*
X377508Y-72000D01*
X377100Y-72067D01*
X376575Y-72333D01*
X376750Y-70600D01*
X378325D01*
G01X382250D02*
X381783Y-70733D01*
X381433Y-71067D01*
X381200Y-71467D01*
X381025Y-72000D01*
X380967Y-72600D01*
X381025Y-73200D01*
X381200Y-73733D01*
X381433Y-74133D01*
X381783Y-74467D01*
X382250Y-74600D01*
X382717Y-74467D01*
X383067Y-74133D01*
X383300Y-73733D01*
X383475Y-73200D01*
X383533Y-72600D01*
X383475Y-72000D01*
X383300Y-71467D01*
X383067Y-71067D01*
X382717Y-70733D01*
X382250Y-70600D01*
G01X387050Y-74600D02*
Y-70600D01*
X386350Y-71400D01*
G01Y-74600D02*
X387750D01*
G01X394900Y-70600D02*
X395717Y-74600D01*
X396650Y-70600D01*
X397583Y-74600D01*
X398400Y-70600D01*
G01X400750D02*
X402150D01*
G01X401450D02*
Y-74600D01*
G01X400750D02*
X402150D01*
G01X405083Y-70600D02*
Y-74600D01*
X407417D01*
G01X409883Y-70600D02*
Y-74600D01*
X412217D01*
G01X415150Y-70600D02*
X416550D01*
G01X415850D02*
Y-74600D01*
G01X415150D02*
X416550D01*
G01X419192D02*
X420650Y-70600D01*
X422108Y-74600D01*
G01X421583Y-73200D02*
X419717D01*
G01X423933Y-74600D02*
Y-70600D01*
X425450Y-73933D01*
X426967Y-70600D01*
Y-74600D01*
G01X436333Y-70933D02*
X435983Y-70733D01*
X435575Y-70600D01*
X435108D01*
X434583Y-70800D01*
X434175Y-71133D01*
X433883Y-71533D01*
X433650Y-72200D01*
X433592Y-72800D01*
X433708Y-73400D01*
X433883Y-73800D01*
X434233Y-74200D01*
X434642Y-74467D01*
X435050Y-74600D01*
X435458D01*
X435867Y-74467D01*
X436217Y-74267D01*
X436508Y-74000D01*
G01X438392Y-74600D02*
X439850Y-70600D01*
X441308Y-74600D01*
G01X440783Y-73200D02*
X438917D01*
G01X443308Y-74600D02*
Y-70600D01*
X445992Y-74600D01*
Y-70600D01*
G01X448108Y-74600D02*
Y-70600D01*
X450792Y-74600D01*
Y-70600D01*
G01X454250Y-74600D02*
X453783Y-74533D01*
X453375Y-74267D01*
X453025Y-73867D01*
X452792Y-73400D01*
X452675Y-72867D01*
Y-72333D01*
X452792Y-71800D01*
X453025Y-71333D01*
X453375Y-70933D01*
X453783Y-70667D01*
X454250Y-70600D01*
X454717Y-70667D01*
X455125Y-70933D01*
X455475Y-71333D01*
X455708Y-71800D01*
X455825Y-72333D01*
Y-72867D01*
X455708Y-73400D01*
X455475Y-73867D01*
X455125Y-74267D01*
X454717Y-74533D01*
X454250Y-74600D01*
G01X457708D02*
Y-70600D01*
X460392Y-74600D01*
Y-70600D01*
G01X467367Y-74600D02*
Y-70600D01*
X468533D01*
X469000Y-70800D01*
X469350Y-71067D01*
X469642Y-71467D01*
X469875Y-71933D01*
X469933Y-72600D01*
X469875Y-73267D01*
X469642Y-73733D01*
X469350Y-74133D01*
X469000Y-74400D01*
X468533Y-74600D01*
X467367D01*
G01X472283D02*
Y-70600D01*
X473742D01*
X474208Y-70800D01*
X474500Y-71067D01*
X474617Y-71600D01*
X474500Y-72133D01*
X474150Y-72467D01*
X473742Y-72667D01*
X472283D01*
G01X473742D02*
X474617Y-74600D01*
G01X477550Y-70600D02*
X478950D01*
G01X478250D02*
Y-74600D01*
G01X477550D02*
X478950D01*
G01X481592Y-70600D02*
X483050Y-74600D01*
X484508Y-70600D01*
G01X489017Y-74600D02*
X486683D01*
Y-70600D01*
X489017D01*
G01X488083Y-72533D02*
X486683D01*
G01X495700Y-70600D02*
X496517Y-74600D01*
X497450Y-70600D01*
X498383Y-74600D01*
X499200Y-70600D01*
G01X503417Y-74600D02*
X501083D01*
Y-70600D01*
X503417D01*
G01X502483Y-72533D02*
X501083D01*
G01X505825Y-74067D02*
X506292Y-74400D01*
X506817Y-74600D01*
X507283D01*
X507750Y-74400D01*
X508100Y-74067D01*
X508275Y-73600D01*
X508158Y-73133D01*
X507867Y-72733D01*
X507342Y-72467D01*
X506642Y-72333D01*
X506233Y-72067D01*
X506058Y-71600D01*
X506175Y-71133D01*
X506467Y-70800D01*
X506875Y-70600D01*
X507283D01*
X507692Y-70733D01*
X508042Y-71067D01*
G01X511850Y-70600D02*
Y-74600D01*
G01X510508Y-70600D02*
X513192D01*
G01X371553Y-65600D02*
Y-58100D01*
X375847Y-65600D01*
Y-58100D01*
G01X379240Y-65600D02*
X383160Y-58100D01*
G01X379240D02*
X383160Y-65600D01*
G01X386833D02*
Y-58100D01*
X389073D01*
X389820Y-58475D01*
X390380Y-59350D01*
X390567Y-60350D01*
X390380Y-61350D01*
X389913Y-62100D01*
X389073Y-62475D01*
X386833D01*
G01X401740Y-64600D02*
X402487Y-65225D01*
X403327Y-65600D01*
X404073D01*
X404820Y-65225D01*
X405380Y-64600D01*
X405660Y-63725D01*
X405473Y-62850D01*
X405007Y-62100D01*
X404167Y-61600D01*
X403047Y-61350D01*
X402393Y-60850D01*
X402113Y-59975D01*
X402300Y-59100D01*
X402767Y-58475D01*
X403420Y-58100D01*
X404073D01*
X404727Y-58350D01*
X405287Y-58975D01*
G01X413067Y-65600D02*
X409333D01*
Y-58100D01*
X413067D01*
G01X411573Y-61725D02*
X409333D01*
G01X416273Y-65600D02*
Y-58100D01*
X418700Y-64350D01*
X421127Y-58100D01*
Y-65600D01*
G01X425080Y-58100D02*
X427320D01*
G01X426200D02*
Y-65600D01*
G01X425080D02*
X427320D01*
G01X435753Y-58725D02*
X435193Y-58350D01*
X434540Y-58100D01*
X433793D01*
X432953Y-58475D01*
X432300Y-59100D01*
X431833Y-59850D01*
X431460Y-61100D01*
X431367Y-62225D01*
X431553Y-63350D01*
X431833Y-64100D01*
X432393Y-64850D01*
X433047Y-65350D01*
X433700Y-65600D01*
X434353D01*
X435007Y-65350D01*
X435567Y-64975D01*
X436033Y-64475D01*
G01X441200Y-65600D02*
X440453Y-65475D01*
X439800Y-64975D01*
X439240Y-64225D01*
X438867Y-63350D01*
X438680Y-62350D01*
Y-61350D01*
X438867Y-60350D01*
X439240Y-59475D01*
X439800Y-58725D01*
X440453Y-58225D01*
X441200Y-58100D01*
X441947Y-58225D01*
X442600Y-58725D01*
X443160Y-59475D01*
X443533Y-60350D01*
X443720Y-61350D01*
Y-62350D01*
X443533Y-63350D01*
X443160Y-64225D01*
X442600Y-64975D01*
X441947Y-65475D01*
X441200Y-65600D01*
G01X446553D02*
Y-58100D01*
X450847Y-65600D01*
Y-58100D01*
G01X454147Y-65600D02*
Y-58100D01*
X456013D01*
X456760Y-58475D01*
X457320Y-58975D01*
X457787Y-59725D01*
X458160Y-60600D01*
X458253Y-61850D01*
X458160Y-63100D01*
X457787Y-63975D01*
X457320Y-64725D01*
X456760Y-65225D01*
X456013Y-65600D01*
X454147D01*
G01X461647Y-58100D02*
Y-63475D01*
X462020Y-64600D01*
X462767Y-65350D01*
X463700Y-65600D01*
X464633Y-65350D01*
X465380Y-64600D01*
X465753Y-63475D01*
Y-58100D01*
G01X473253Y-58725D02*
X472693Y-58350D01*
X472040Y-58100D01*
X471293D01*
X470453Y-58475D01*
X469800Y-59100D01*
X469333Y-59850D01*
X468960Y-61100D01*
X468867Y-62225D01*
X469053Y-63350D01*
X469333Y-64100D01*
X469893Y-64850D01*
X470547Y-65350D01*
X471200Y-65600D01*
X471853D01*
X472507Y-65350D01*
X473067Y-64975D01*
X473533Y-64475D01*
G01X478700Y-58100D02*
Y-65600D01*
G01X476553Y-58100D02*
X480847D01*
G01X486200Y-65600D02*
X485453Y-65475D01*
X484800Y-64975D01*
X484240Y-64225D01*
X483867Y-63350D01*
X483680Y-62350D01*
Y-61350D01*
X483867Y-60350D01*
X484240Y-59475D01*
X484800Y-58725D01*
X485453Y-58225D01*
X486200Y-58100D01*
X486947Y-58225D01*
X487600Y-58725D01*
X488160Y-59475D01*
X488533Y-60350D01*
X488720Y-61350D01*
Y-62350D01*
X488533Y-63350D01*
X488160Y-64225D01*
X487600Y-64975D01*
X486947Y-65475D01*
X486200Y-65600D01*
G01X491833D02*
Y-58100D01*
X494167D01*
X494913Y-58475D01*
X495380Y-58975D01*
X495567Y-59975D01*
X495380Y-60975D01*
X494820Y-61600D01*
X494167Y-61975D01*
X491833D01*
G01X494167D02*
X495567Y-65600D01*
G01X499240Y-64600D02*
X499987Y-65225D01*
X500827Y-65600D01*
X501573D01*
X502320Y-65225D01*
X502880Y-64600D01*
X503160Y-63725D01*
X502973Y-62850D01*
X502507Y-62100D01*
X501667Y-61600D01*
X500547Y-61350D01*
X499893Y-60850D01*
X499613Y-59975D01*
X499800Y-59100D01*
X500267Y-58475D01*
X500920Y-58100D01*
X501573D01*
X502227Y-58350D01*
X502787Y-58975D01*
G01X377308Y-131600D02*
Y-127600D01*
X379992Y-131600D01*
Y-127600D01*
G01X382225Y-131600D02*
X384675Y-127600D01*
G01X382225D02*
X384675Y-131600D01*
G01X387083D02*
Y-127600D01*
X388483D01*
X388950Y-127800D01*
X389300Y-128267D01*
X389417Y-128800D01*
X389300Y-129333D01*
X389008Y-129733D01*
X388483Y-129933D01*
X387083D01*
G01X393050Y-131733D02*
X392933Y-131667D01*
Y-131533D01*
X393050Y-131467D01*
X393167Y-131533D01*
Y-131667D01*
X393050Y-131733D01*
G01X379650Y-123600D02*
X379183Y-123533D01*
X378775Y-123267D01*
X378425Y-122867D01*
X378192Y-122400D01*
X378075Y-121867D01*
Y-121333D01*
X378192Y-120800D01*
X378425Y-120333D01*
X378775Y-119933D01*
X379183Y-119667D01*
X379650Y-119600D01*
X380117Y-119667D01*
X380525Y-119933D01*
X380875Y-120333D01*
X381108Y-120800D01*
X381225Y-121333D01*
Y-121867D01*
X381108Y-122400D01*
X380875Y-122867D01*
X380525Y-123267D01*
X380117Y-123533D01*
X379650Y-123600D01*
G01X383283D02*
Y-119600D01*
X384742D01*
X385208Y-119800D01*
X385500Y-120067D01*
X385617Y-120600D01*
X385500Y-121133D01*
X385150Y-121467D01*
X384742Y-121667D01*
X383283D01*
G01X384742D02*
X385617Y-123600D01*
G01X393350Y-119600D02*
X394750D01*
G01X394050D02*
Y-123600D01*
G01X393350D02*
X394750D01*
G01X397508D02*
Y-119600D01*
X400192Y-123600D01*
Y-119600D01*
G01X407283Y-123600D02*
Y-119600D01*
X408683D01*
X409150Y-119800D01*
X409500Y-120267D01*
X409617Y-120800D01*
X409500Y-121333D01*
X409208Y-121733D01*
X408683Y-121933D01*
X407283D01*
G01X411792Y-123600D02*
X413250Y-119600D01*
X414708Y-123600D01*
G01X414183Y-122200D02*
X412317D01*
G01X416883Y-123600D02*
Y-119600D01*
X418342D01*
X418808Y-119800D01*
X419100Y-120067D01*
X419217Y-120600D01*
X419100Y-121133D01*
X418750Y-121467D01*
X418342Y-121667D01*
X416883D01*
G01X418342D02*
X419217Y-123600D01*
G01X422850Y-119600D02*
Y-123600D01*
G01X421508Y-119600D02*
X424192D01*
G01X430700D02*
X431517Y-123600D01*
X432450Y-119600D01*
X433383Y-123600D01*
X434200Y-119600D01*
G01X436550D02*
X437950D01*
G01X437250D02*
Y-123600D01*
G01X436550D02*
X437950D01*
G01X442050Y-119600D02*
Y-123600D01*
G01X440708Y-119600D02*
X443392D01*
G01X445625Y-123600D02*
Y-119600D01*
G01X448075D02*
Y-123600D01*
G01Y-121600D02*
X445625D01*
G01X451650Y-123600D02*
X451183Y-123533D01*
X450775Y-123267D01*
X450425Y-122867D01*
X450192Y-122400D01*
X450075Y-121867D01*
Y-121333D01*
X450192Y-120800D01*
X450425Y-120333D01*
X450775Y-119933D01*
X451183Y-119667D01*
X451650Y-119600D01*
X452117Y-119667D01*
X452525Y-119933D01*
X452875Y-120333D01*
X453108Y-120800D01*
X453225Y-121333D01*
Y-121867D01*
X453108Y-122400D01*
X452875Y-122867D01*
X452525Y-123267D01*
X452117Y-123533D01*
X451650Y-123600D01*
G01X455167Y-119600D02*
Y-122467D01*
X455400Y-123067D01*
X455867Y-123467D01*
X456450Y-123600D01*
X457033Y-123467D01*
X457500Y-123067D01*
X457733Y-122467D01*
Y-119600D01*
G01X461250D02*
Y-123600D01*
G01X459908Y-119600D02*
X462592D01*
G01X470850D02*
Y-123600D01*
G01X469508Y-119600D02*
X472192D01*
G01X474425Y-123600D02*
Y-119600D01*
G01X476875D02*
Y-123600D01*
G01Y-121600D02*
X474425D01*
G01X481617Y-123600D02*
X479283D01*
Y-119600D01*
X481617D01*
G01X480683Y-121533D02*
X479283D01*
G01X491333Y-119933D02*
X490983Y-119733D01*
X490575Y-119600D01*
X490108D01*
X489583Y-119800D01*
X489175Y-120133D01*
X488883Y-120533D01*
X488650Y-121200D01*
X488592Y-121800D01*
X488708Y-122400D01*
X488883Y-122800D01*
X489233Y-123200D01*
X489642Y-123467D01*
X490050Y-123600D01*
X490458D01*
X490867Y-123467D01*
X491217Y-123267D01*
X491508Y-123000D01*
G01X494850Y-123600D02*
X494383Y-123533D01*
X493975Y-123267D01*
X493625Y-122867D01*
X493392Y-122400D01*
X493275Y-121867D01*
Y-121333D01*
X493392Y-120800D01*
X493625Y-120333D01*
X493975Y-119933D01*
X494383Y-119667D01*
X494850Y-119600D01*
X495317Y-119667D01*
X495725Y-119933D01*
X496075Y-120333D01*
X496308Y-120800D01*
X496425Y-121333D01*
Y-121867D01*
X496308Y-122400D01*
X496075Y-122867D01*
X495725Y-123267D01*
X495317Y-123533D01*
X494850Y-123600D01*
G01X498308D02*
Y-119600D01*
X500992Y-123600D01*
Y-119600D01*
G01X503225Y-123067D02*
X503692Y-123400D01*
X504217Y-123600D01*
X504683D01*
X505150Y-123400D01*
X505500Y-123067D01*
X505675Y-122600D01*
X505558Y-122133D01*
X505267Y-121733D01*
X504742Y-121467D01*
X504042Y-121333D01*
X503633Y-121067D01*
X503458Y-120600D01*
X503575Y-120133D01*
X503867Y-119800D01*
X504275Y-119600D01*
X504683D01*
X505092Y-119733D01*
X505442Y-120067D01*
G01X510417Y-123600D02*
X508083D01*
Y-119600D01*
X510417D01*
G01X509483Y-121533D02*
X508083D01*
G01X512708Y-123600D02*
Y-119600D01*
X515392Y-123600D01*
Y-119600D01*
G01X518850D02*
Y-123600D01*
G01X517508Y-119600D02*
X520192D01*
G01X528450Y-123600D02*
X527983Y-123533D01*
X527575Y-123267D01*
X527225Y-122867D01*
X526992Y-122400D01*
X526875Y-121867D01*
Y-121333D01*
X526992Y-120800D01*
X527225Y-120333D01*
X527575Y-119933D01*
X527983Y-119667D01*
X528450Y-119600D01*
X528917Y-119667D01*
X529325Y-119933D01*
X529675Y-120333D01*
X529908Y-120800D01*
X530025Y-121333D01*
Y-121867D01*
X529908Y-122400D01*
X529675Y-122867D01*
X529325Y-123267D01*
X528917Y-123533D01*
X528450Y-123600D01*
G01X532142D02*
Y-119600D01*
X534358D01*
G01X533542Y-121533D02*
X532142D01*
G01X378483Y-115600D02*
Y-111600D01*
X379883D01*
X380350Y-111800D01*
X380700Y-112267D01*
X380817Y-112800D01*
X380700Y-113333D01*
X380408Y-113733D01*
X379883Y-113933D01*
X378483D01*
G01X383283Y-115600D02*
Y-111600D01*
X384742D01*
X385208Y-111800D01*
X385500Y-112067D01*
X385617Y-112600D01*
X385500Y-113133D01*
X385150Y-113467D01*
X384742Y-113667D01*
X383283D01*
G01X384742D02*
X385617Y-115600D01*
G01X389250D02*
X388783Y-115533D01*
X388375Y-115267D01*
X388025Y-114867D01*
X387792Y-114400D01*
X387675Y-113867D01*
Y-113333D01*
X387792Y-112800D01*
X388025Y-112333D01*
X388375Y-111933D01*
X388783Y-111667D01*
X389250Y-111600D01*
X389717Y-111667D01*
X390125Y-111933D01*
X390475Y-112333D01*
X390708Y-112800D01*
X390825Y-113333D01*
Y-113867D01*
X390708Y-114400D01*
X390475Y-114867D01*
X390125Y-115267D01*
X389717Y-115533D01*
X389250Y-115600D01*
G01X395333Y-111933D02*
X394983Y-111733D01*
X394575Y-111600D01*
X394108D01*
X393583Y-111800D01*
X393175Y-112133D01*
X392883Y-112533D01*
X392650Y-113200D01*
X392592Y-113800D01*
X392708Y-114400D01*
X392883Y-114800D01*
X393233Y-115200D01*
X393642Y-115467D01*
X394050Y-115600D01*
X394458D01*
X394867Y-115467D01*
X395217Y-115267D01*
X395508Y-115000D01*
G01X397567Y-111600D02*
Y-114467D01*
X397800Y-115067D01*
X398267Y-115467D01*
X398850Y-115600D01*
X399433Y-115467D01*
X399900Y-115067D01*
X400133Y-114467D01*
Y-111600D01*
G01X402483Y-115600D02*
Y-111600D01*
X403942D01*
X404408Y-111800D01*
X404700Y-112067D01*
X404817Y-112600D01*
X404700Y-113133D01*
X404350Y-113467D01*
X403942Y-113667D01*
X402483D01*
G01X403942D02*
X404817Y-115600D01*
G01X409617D02*
X407283D01*
Y-111600D01*
X409617D01*
G01X408683Y-113533D02*
X407283D01*
G01X411733Y-115600D02*
Y-111600D01*
X413250Y-114933D01*
X414767Y-111600D01*
Y-115600D01*
G01X419217D02*
X416883D01*
Y-111600D01*
X419217D01*
G01X418283Y-113533D02*
X416883D01*
G01X421508Y-115600D02*
Y-111600D01*
X424192Y-115600D01*
Y-111600D01*
G01X427650D02*
Y-115600D01*
G01X426308Y-111600D02*
X428992D01*
G01X437250Y-115600D02*
X436783Y-115533D01*
X436375Y-115267D01*
X436025Y-114867D01*
X435792Y-114400D01*
X435675Y-113867D01*
Y-113333D01*
X435792Y-112800D01*
X436025Y-112333D01*
X436375Y-111933D01*
X436783Y-111667D01*
X437250Y-111600D01*
X437717Y-111667D01*
X438125Y-111933D01*
X438475Y-112333D01*
X438708Y-112800D01*
X438825Y-113333D01*
Y-113867D01*
X438708Y-114400D01*
X438475Y-114867D01*
X438125Y-115267D01*
X437717Y-115533D01*
X437250Y-115600D01*
G01X440883D02*
Y-111600D01*
X442342D01*
X442808Y-111800D01*
X443100Y-112067D01*
X443217Y-112600D01*
X443100Y-113133D01*
X442750Y-113467D01*
X442342Y-113667D01*
X440883D01*
G01X442342D02*
X443217Y-115600D01*
G01X450133D02*
Y-111600D01*
X451650Y-114933D01*
X453167Y-111600D01*
Y-115600D01*
G01X454992D02*
X456450Y-111600D01*
X457908Y-115600D01*
G01X457383Y-114200D02*
X455517D01*
G01X459908Y-115600D02*
Y-111600D01*
X462592Y-115600D01*
Y-111600D01*
G01X464767D02*
Y-114467D01*
X465000Y-115067D01*
X465467Y-115467D01*
X466050Y-115600D01*
X466633Y-115467D01*
X467100Y-115067D01*
X467333Y-114467D01*
Y-111600D01*
G01X469742Y-115600D02*
Y-111600D01*
X471958D01*
G01X471142Y-113533D02*
X469742D01*
G01X474192Y-115600D02*
X475650Y-111600D01*
X477108Y-115600D01*
G01X476583Y-114200D02*
X474717D01*
G01X481733Y-111933D02*
X481383Y-111733D01*
X480975Y-111600D01*
X480508D01*
X479983Y-111800D01*
X479575Y-112133D01*
X479283Y-112533D01*
X479050Y-113200D01*
X478992Y-113800D01*
X479108Y-114400D01*
X479283Y-114800D01*
X479633Y-115200D01*
X480042Y-115467D01*
X480450Y-115600D01*
X480858D01*
X481267Y-115467D01*
X481617Y-115267D01*
X481908Y-115000D01*
G01X485250Y-111600D02*
Y-115600D01*
G01X483908Y-111600D02*
X486592D01*
G01X488767D02*
Y-114467D01*
X489000Y-115067D01*
X489467Y-115467D01*
X490050Y-115600D01*
X490633Y-115467D01*
X491100Y-115067D01*
X491333Y-114467D01*
Y-111600D01*
G01X493683Y-115600D02*
Y-111600D01*
X495142D01*
X495608Y-111800D01*
X495900Y-112067D01*
X496017Y-112600D01*
X495900Y-113133D01*
X495550Y-113467D01*
X495142Y-113667D01*
X493683D01*
G01X495142D02*
X496017Y-115600D01*
G01X500817D02*
X498483D01*
Y-111600D01*
X500817D01*
G01X499883Y-113533D02*
X498483D01*
G01X508550Y-111600D02*
X509950D01*
G01X509250D02*
Y-115600D01*
G01X508550D02*
X509950D01*
G01X512708D02*
Y-111600D01*
X515392Y-115600D01*
Y-111600D01*
G01X521900D02*
X522717Y-115600D01*
X523650Y-111600D01*
X524583Y-115600D01*
X525400Y-111600D01*
G01X527225Y-115600D02*
Y-111600D01*
G01X529675D02*
Y-115600D01*
G01Y-113600D02*
X527225D01*
G01X533250Y-115600D02*
X532783Y-115533D01*
X532375Y-115267D01*
X532025Y-114867D01*
X531792Y-114400D01*
X531675Y-113867D01*
Y-113333D01*
X531792Y-112800D01*
X532025Y-112333D01*
X532375Y-111933D01*
X532783Y-111667D01*
X533250Y-111600D01*
X533717Y-111667D01*
X534125Y-111933D01*
X534475Y-112333D01*
X534708Y-112800D01*
X534825Y-113333D01*
Y-113867D01*
X534708Y-114400D01*
X534475Y-114867D01*
X534125Y-115267D01*
X533717Y-115533D01*
X533250Y-115600D01*
G01X536883Y-111600D02*
Y-115600D01*
X539217D01*
G01X544017D02*
X541683D01*
Y-111600D01*
X544017D01*
G01X543083Y-113533D02*
X541683D01*
G01X379117Y-105467D02*
X379350Y-105267D01*
X379525Y-104933D01*
X379642Y-104467D01*
X379525Y-104067D01*
X379292Y-103800D01*
X378883Y-103600D01*
X377308D01*
Y-107600D01*
X379233D01*
X379642Y-107333D01*
X379875Y-106933D01*
X379992Y-106467D01*
X379875Y-106000D01*
X379525Y-105600D01*
X379117Y-105467D01*
X377308D01*
G01X384617Y-107600D02*
X382283D01*
Y-103600D01*
X384617D01*
G01X383683Y-105533D02*
X382283D01*
G01X391767Y-103600D02*
Y-106467D01*
X392000Y-107067D01*
X392467Y-107467D01*
X393050Y-107600D01*
X393633Y-107467D01*
X394100Y-107067D01*
X394333Y-106467D01*
Y-103600D01*
G01X396625Y-107067D02*
X397092Y-107400D01*
X397617Y-107600D01*
X398083D01*
X398550Y-107400D01*
X398900Y-107067D01*
X399075Y-106600D01*
X398958Y-106133D01*
X398667Y-105733D01*
X398142Y-105467D01*
X397442Y-105333D01*
X397033Y-105067D01*
X396858Y-104600D01*
X396975Y-104133D01*
X397267Y-103800D01*
X397675Y-103600D01*
X398083D01*
X398492Y-103733D01*
X398842Y-104067D01*
G01X403817Y-107600D02*
X401483D01*
Y-103600D01*
X403817D01*
G01X402883Y-105533D02*
X401483D01*
G01X406167Y-107600D02*
Y-103600D01*
X407333D01*
X407800Y-103800D01*
X408150Y-104067D01*
X408442Y-104467D01*
X408675Y-104933D01*
X408733Y-105600D01*
X408675Y-106267D01*
X408442Y-106733D01*
X408150Y-107133D01*
X407800Y-107400D01*
X407333Y-107600D01*
X406167D01*
G01X415942D02*
Y-103600D01*
X418158D01*
G01X417342Y-105533D02*
X415942D01*
G01X421850Y-107600D02*
X421383Y-107533D01*
X420975Y-107267D01*
X420625Y-106867D01*
X420392Y-106400D01*
X420275Y-105867D01*
Y-105333D01*
X420392Y-104800D01*
X420625Y-104333D01*
X420975Y-103933D01*
X421383Y-103667D01*
X421850Y-103600D01*
X422317Y-103667D01*
X422725Y-103933D01*
X423075Y-104333D01*
X423308Y-104800D01*
X423425Y-105333D01*
Y-105867D01*
X423308Y-106400D01*
X423075Y-106867D01*
X422725Y-107267D01*
X422317Y-107533D01*
X421850Y-107600D01*
G01X425483D02*
Y-103600D01*
X426942D01*
X427408Y-103800D01*
X427700Y-104067D01*
X427817Y-104600D01*
X427700Y-105133D01*
X427350Y-105467D01*
X426942Y-105667D01*
X425483D01*
G01X426942D02*
X427817Y-107600D01*
G01X437417D02*
X435083D01*
Y-103600D01*
X437417D01*
G01X436483Y-105533D02*
X435083D01*
G01X439708Y-107600D02*
Y-103600D01*
X442392Y-107600D01*
Y-103600D01*
G01X446200Y-105600D02*
X447367D01*
Y-106800D01*
X447017Y-107200D01*
X446608Y-107467D01*
X446025Y-107600D01*
X445442Y-107467D01*
X445033Y-107200D01*
X444683Y-106800D01*
X444450Y-106333D01*
X444333Y-105800D01*
Y-105333D01*
X444450Y-104933D01*
X444683Y-104467D01*
X445033Y-104067D01*
X445383Y-103800D01*
X445850Y-103600D01*
X446258D01*
X446725Y-103733D01*
X447075Y-104000D01*
G01X449950Y-103600D02*
X451350D01*
G01X450650D02*
Y-107600D01*
G01X449950D02*
X451350D01*
G01X454108D02*
Y-103600D01*
X456792Y-107600D01*
Y-103600D01*
G01X461417Y-107600D02*
X459083D01*
Y-103600D01*
X461417D01*
G01X460483Y-105533D02*
X459083D01*
G01X466217Y-107600D02*
X463883D01*
Y-103600D01*
X466217D01*
G01X465283Y-105533D02*
X463883D01*
G01X468683Y-107600D02*
Y-103600D01*
X470142D01*
X470608Y-103800D01*
X470900Y-104067D01*
X471017Y-104600D01*
X470900Y-105133D01*
X470550Y-105467D01*
X470142Y-105667D01*
X468683D01*
G01X470142D02*
X471017Y-107600D01*
G01X473950Y-103600D02*
X475350D01*
G01X474650D02*
Y-107600D01*
G01X473950D02*
X475350D01*
G01X478108D02*
Y-103600D01*
X480792Y-107600D01*
Y-103600D01*
G01X484600Y-105600D02*
X485767D01*
Y-106800D01*
X485417Y-107200D01*
X485008Y-107467D01*
X484425Y-107600D01*
X483842Y-107467D01*
X483433Y-107200D01*
X483083Y-106800D01*
X482850Y-106333D01*
X482733Y-105800D01*
Y-105333D01*
X482850Y-104933D01*
X483083Y-104467D01*
X483433Y-104067D01*
X483783Y-103800D01*
X484250Y-103600D01*
X484658D01*
X485125Y-103733D01*
X485475Y-104000D01*
G01X492567Y-107600D02*
Y-103600D01*
X493733D01*
X494200Y-103800D01*
X494550Y-104067D01*
X494842Y-104467D01*
X495075Y-104933D01*
X495133Y-105600D01*
X495075Y-106267D01*
X494842Y-106733D01*
X494550Y-107133D01*
X494200Y-107400D01*
X493733Y-107600D01*
X492567D01*
G01X499817D02*
X497483D01*
Y-103600D01*
X499817D01*
G01X498883Y-105533D02*
X497483D01*
G01X502225Y-107067D02*
X502692Y-107400D01*
X503217Y-107600D01*
X503683D01*
X504150Y-107400D01*
X504500Y-107067D01*
X504675Y-106600D01*
X504558Y-106133D01*
X504267Y-105733D01*
X503742Y-105467D01*
X503042Y-105333D01*
X502633Y-105067D01*
X502458Y-104600D01*
X502575Y-104133D01*
X502867Y-103800D01*
X503275Y-103600D01*
X503683D01*
X504092Y-103733D01*
X504442Y-104067D01*
G01X507550Y-103600D02*
X508950D01*
G01X508250D02*
Y-107600D01*
G01X507550D02*
X508950D01*
G01X513400Y-105600D02*
X514567D01*
Y-106800D01*
X514217Y-107200D01*
X513808Y-107467D01*
X513225Y-107600D01*
X512642Y-107467D01*
X512233Y-107200D01*
X511883Y-106800D01*
X511650Y-106333D01*
X511533Y-105800D01*
Y-105333D01*
X511650Y-104933D01*
X511883Y-104467D01*
X512233Y-104067D01*
X512583Y-103800D01*
X513050Y-103600D01*
X513458D01*
X513925Y-103733D01*
X514275Y-104000D01*
G01X516508Y-107600D02*
Y-103600D01*
X519192Y-107600D01*
Y-103600D01*
G01X377483Y-99600D02*
Y-95600D01*
X378883D01*
X379350Y-95800D01*
X379700Y-96267D01*
X379817Y-96800D01*
X379700Y-97333D01*
X379408Y-97733D01*
X378883Y-97933D01*
X377483D01*
G01X382283Y-99600D02*
Y-95600D01*
X383742D01*
X384208Y-95800D01*
X384500Y-96067D01*
X384617Y-96600D01*
X384500Y-97133D01*
X384150Y-97467D01*
X383742Y-97667D01*
X382283D01*
G01X383742D02*
X384617Y-99600D01*
G01X388250D02*
X387783Y-99533D01*
X387375Y-99267D01*
X387025Y-98867D01*
X386792Y-98400D01*
X386675Y-97867D01*
Y-97333D01*
X386792Y-96800D01*
X387025Y-96333D01*
X387375Y-95933D01*
X387783Y-95667D01*
X388250Y-95600D01*
X388717Y-95667D01*
X389125Y-95933D01*
X389475Y-96333D01*
X389708Y-96800D01*
X389825Y-97333D01*
Y-97867D01*
X389708Y-98400D01*
X389475Y-98867D01*
X389125Y-99267D01*
X388717Y-99533D01*
X388250Y-99600D01*
G01X391883D02*
Y-95600D01*
X393283D01*
X393750Y-95800D01*
X394100Y-96267D01*
X394217Y-96800D01*
X394100Y-97333D01*
X393808Y-97733D01*
X393283Y-97933D01*
X391883D01*
G01X396683Y-99600D02*
Y-95600D01*
X398142D01*
X398608Y-95800D01*
X398900Y-96067D01*
X399017Y-96600D01*
X398900Y-97133D01*
X398550Y-97467D01*
X398142Y-97667D01*
X396683D01*
G01X398142D02*
X399017Y-99600D01*
G01X401950Y-95600D02*
X403350D01*
G01X402650D02*
Y-99600D01*
G01X401950D02*
X403350D01*
G01X408617D02*
X406283D01*
Y-95600D01*
X408617D01*
G01X407683Y-97533D02*
X406283D01*
G01X412250Y-95600D02*
Y-99600D01*
G01X410908Y-95600D02*
X413592D01*
G01X415592Y-99600D02*
X417050Y-95600D01*
X418508Y-99600D01*
G01X417983Y-98200D02*
X416117D01*
G01X420683Y-99600D02*
Y-95600D01*
X422142D01*
X422608Y-95800D01*
X422900Y-96067D01*
X423017Y-96600D01*
X422900Y-97133D01*
X422550Y-97467D01*
X422142Y-97667D01*
X420683D01*
G01X422142D02*
X423017Y-99600D01*
G01X426650D02*
Y-97800D01*
X425483Y-95600D01*
G01X427817D02*
X426650Y-97800D01*
G01X436250Y-95600D02*
Y-99600D01*
G01X434908Y-95600D02*
X437592D01*
G01X441050Y-99600D02*
X440583Y-99533D01*
X440175Y-99267D01*
X439825Y-98867D01*
X439592Y-98400D01*
X439475Y-97867D01*
Y-97333D01*
X439592Y-96800D01*
X439825Y-96333D01*
X440175Y-95933D01*
X440583Y-95667D01*
X441050Y-95600D01*
X441517Y-95667D01*
X441925Y-95933D01*
X442275Y-96333D01*
X442508Y-96800D01*
X442625Y-97333D01*
Y-97867D01*
X442508Y-98400D01*
X442275Y-98867D01*
X441925Y-99267D01*
X441517Y-99533D01*
X441050Y-99600D01*
G01X449308D02*
Y-95600D01*
X451992Y-99600D01*
Y-95600D01*
G01X454225Y-99600D02*
X456675Y-95600D01*
G01X454225D02*
X456675Y-99600D01*
G01X459083D02*
Y-95600D01*
X460483D01*
X460950Y-95800D01*
X461300Y-96267D01*
X461417Y-96800D01*
X461300Y-97333D01*
X461008Y-97733D01*
X460483Y-97933D01*
X459083D01*
G01X468392Y-99600D02*
X469850Y-95600D01*
X471308Y-99600D01*
G01X470783Y-98200D02*
X468917D01*
G01X473308Y-99600D02*
Y-95600D01*
X475992Y-99600D01*
Y-95600D01*
G01X478167Y-99600D02*
Y-95600D01*
X479333D01*
X479800Y-95800D01*
X480150Y-96067D01*
X480442Y-96467D01*
X480675Y-96933D01*
X480733Y-97600D01*
X480675Y-98267D01*
X480442Y-98733D01*
X480150Y-99133D01*
X479800Y-99400D01*
X479333Y-99600D01*
X478167D01*
G01X487825Y-99067D02*
X488292Y-99400D01*
X488817Y-99600D01*
X489283D01*
X489750Y-99400D01*
X490100Y-99067D01*
X490275Y-98600D01*
X490158Y-98133D01*
X489867Y-97733D01*
X489342Y-97467D01*
X488642Y-97333D01*
X488233Y-97067D01*
X488058Y-96600D01*
X488175Y-96133D01*
X488467Y-95800D01*
X488875Y-95600D01*
X489283D01*
X489692Y-95733D01*
X490042Y-96067D01*
G01X492625Y-99600D02*
Y-95600D01*
G01X495075D02*
Y-99600D01*
G01Y-97600D02*
X492625D01*
G01X497192Y-99600D02*
X498650Y-95600D01*
X500108Y-99600D01*
G01X499583Y-98200D02*
X497717D01*
G01X502283Y-95600D02*
Y-99600D01*
X504617D01*
G01X507083Y-95600D02*
Y-99600D01*
X509417D01*
G01X516508D02*
Y-95600D01*
X519192Y-99600D01*
Y-95600D01*
G01X522650Y-99600D02*
X522183Y-99533D01*
X521775Y-99267D01*
X521425Y-98867D01*
X521192Y-98400D01*
X521075Y-97867D01*
Y-97333D01*
X521192Y-96800D01*
X521425Y-96333D01*
X521775Y-95933D01*
X522183Y-95667D01*
X522650Y-95600D01*
X523117Y-95667D01*
X523525Y-95933D01*
X523875Y-96333D01*
X524108Y-96800D01*
X524225Y-97333D01*
Y-97867D01*
X524108Y-98400D01*
X523875Y-98867D01*
X523525Y-99267D01*
X523117Y-99533D01*
X522650Y-99600D01*
G01X527450Y-95600D02*
Y-99600D01*
G01X526108Y-95600D02*
X528792D01*
G01X378650Y-87600D02*
Y-91600D01*
G01X377308Y-87600D02*
X379992D01*
G01X382225Y-91600D02*
Y-87600D01*
G01X384675D02*
Y-91600D01*
G01Y-89600D02*
X382225D01*
G01X387550Y-87600D02*
X388950D01*
G01X388250D02*
Y-91600D01*
G01X387550D02*
X388950D01*
G01X391825Y-91067D02*
X392292Y-91400D01*
X392817Y-91600D01*
X393283D01*
X393750Y-91400D01*
X394100Y-91067D01*
X394275Y-90600D01*
X394158Y-90133D01*
X393867Y-89733D01*
X393342Y-89467D01*
X392642Y-89333D01*
X392233Y-89067D01*
X392058Y-88600D01*
X392175Y-88133D01*
X392467Y-87800D01*
X392875Y-87600D01*
X393283D01*
X393692Y-87733D01*
X394042Y-88067D01*
G01X401367Y-91600D02*
Y-87600D01*
X402533D01*
X403000Y-87800D01*
X403350Y-88067D01*
X403642Y-88467D01*
X403875Y-88933D01*
X403933Y-89600D01*
X403875Y-90267D01*
X403642Y-90733D01*
X403350Y-91133D01*
X403000Y-91400D01*
X402533Y-91600D01*
X401367D01*
G01X407450D02*
X406983Y-91533D01*
X406575Y-91267D01*
X406225Y-90867D01*
X405992Y-90400D01*
X405875Y-89867D01*
Y-89333D01*
X405992Y-88800D01*
X406225Y-88333D01*
X406575Y-87933D01*
X406983Y-87667D01*
X407450Y-87600D01*
X407917Y-87667D01*
X408325Y-87933D01*
X408675Y-88333D01*
X408908Y-88800D01*
X409025Y-89333D01*
Y-89867D01*
X408908Y-90400D01*
X408675Y-90867D01*
X408325Y-91267D01*
X407917Y-91533D01*
X407450Y-91600D01*
G01X413533Y-87933D02*
X413183Y-87733D01*
X412775Y-87600D01*
X412308D01*
X411783Y-87800D01*
X411375Y-88133D01*
X411083Y-88533D01*
X410850Y-89200D01*
X410792Y-89800D01*
X410908Y-90400D01*
X411083Y-90800D01*
X411433Y-91200D01*
X411842Y-91467D01*
X412250Y-91600D01*
X412658D01*
X413067Y-91467D01*
X413417Y-91267D01*
X413708Y-91000D01*
G01X415767Y-87600D02*
Y-90467D01*
X416000Y-91067D01*
X416467Y-91467D01*
X417050Y-91600D01*
X417633Y-91467D01*
X418100Y-91067D01*
X418333Y-90467D01*
Y-87600D01*
G01X420333Y-91600D02*
Y-87600D01*
X421850Y-90933D01*
X423367Y-87600D01*
Y-91600D01*
G01X427817D02*
X425483D01*
Y-87600D01*
X427817D01*
G01X426883Y-89533D02*
X425483D01*
G01X430108Y-91600D02*
Y-87600D01*
X432792Y-91600D01*
Y-87600D01*
G01X436250D02*
Y-91600D01*
G01X434908Y-87600D02*
X437592D01*
G01X447133Y-87933D02*
X446783Y-87733D01*
X446375Y-87600D01*
X445908D01*
X445383Y-87800D01*
X444975Y-88133D01*
X444683Y-88533D01*
X444450Y-89200D01*
X444392Y-89800D01*
X444508Y-90400D01*
X444683Y-90800D01*
X445033Y-91200D01*
X445442Y-91467D01*
X445850Y-91600D01*
X446258D01*
X446667Y-91467D01*
X447017Y-91267D01*
X447308Y-91000D01*
G01X450650Y-91600D02*
X450183Y-91533D01*
X449775Y-91267D01*
X449425Y-90867D01*
X449192Y-90400D01*
X449075Y-89867D01*
Y-89333D01*
X449192Y-88800D01*
X449425Y-88333D01*
X449775Y-87933D01*
X450183Y-87667D01*
X450650Y-87600D01*
X451117Y-87667D01*
X451525Y-87933D01*
X451875Y-88333D01*
X452108Y-88800D01*
X452225Y-89333D01*
Y-89867D01*
X452108Y-90400D01*
X451875Y-90867D01*
X451525Y-91267D01*
X451117Y-91533D01*
X450650Y-91600D01*
G01X454108D02*
Y-87600D01*
X456792Y-91600D01*
Y-87600D01*
G01X460250D02*
Y-91600D01*
G01X458908Y-87600D02*
X461592D01*
G01X463592Y-91600D02*
X465050Y-87600D01*
X466508Y-91600D01*
G01X465983Y-90200D02*
X464117D01*
G01X469150Y-87600D02*
X470550D01*
G01X469850D02*
Y-91600D01*
G01X469150D02*
X470550D01*
G01X473308D02*
Y-87600D01*
X475992Y-91600D01*
Y-87600D01*
G01X478225Y-91067D02*
X478692Y-91400D01*
X479217Y-91600D01*
X479683D01*
X480150Y-91400D01*
X480500Y-91067D01*
X480675Y-90600D01*
X480558Y-90133D01*
X480267Y-89733D01*
X479742Y-89467D01*
X479042Y-89333D01*
X478633Y-89067D01*
X478458Y-88600D01*
X478575Y-88133D01*
X478867Y-87800D01*
X479275Y-87600D01*
X479683D01*
X480092Y-87733D01*
X480442Y-88067D01*
G01X488350Y-87600D02*
X489750D01*
G01X489050D02*
Y-91600D01*
G01X488350D02*
X489750D01*
G01X492508D02*
Y-87600D01*
X495192Y-91600D01*
Y-87600D01*
G01X497542Y-91600D02*
Y-87600D01*
X499758D01*
G01X498942Y-89533D02*
X497542D01*
G01X503450Y-91600D02*
X502983Y-91533D01*
X502575Y-91267D01*
X502225Y-90867D01*
X501992Y-90400D01*
X501875Y-89867D01*
Y-89333D01*
X501992Y-88800D01*
X502225Y-88333D01*
X502575Y-87933D01*
X502983Y-87667D01*
X503450Y-87600D01*
X503917Y-87667D01*
X504325Y-87933D01*
X504675Y-88333D01*
X504908Y-88800D01*
X505025Y-89333D01*
Y-89867D01*
X504908Y-90400D01*
X504675Y-90867D01*
X504325Y-91267D01*
X503917Y-91533D01*
X503450Y-91600D01*
G01X507083D02*
Y-87600D01*
X508542D01*
X509008Y-87800D01*
X509300Y-88067D01*
X509417Y-88600D01*
X509300Y-89133D01*
X508950Y-89467D01*
X508542Y-89667D01*
X507083D01*
G01X508542D02*
X509417Y-91600D01*
G01X511533D02*
Y-87600D01*
X513050Y-90933D01*
X514567Y-87600D01*
Y-91600D01*
G01X516392D02*
X517850Y-87600D01*
X519308Y-91600D01*
G01X518783Y-90200D02*
X516917D01*
G01X522650Y-87600D02*
Y-91600D01*
G01X521308Y-87600D02*
X523992D01*
G01X526750D02*
X528150D01*
G01X527450D02*
Y-91600D01*
G01X526750D02*
X528150D01*
G01X532250D02*
X531783Y-91533D01*
X531375Y-91267D01*
X531025Y-90867D01*
X530792Y-90400D01*
X530675Y-89867D01*
Y-89333D01*
X530792Y-88800D01*
X531025Y-88333D01*
X531375Y-87933D01*
X531783Y-87667D01*
X532250Y-87600D01*
X532717Y-87667D01*
X533125Y-87933D01*
X533475Y-88333D01*
X533708Y-88800D01*
X533825Y-89333D01*
Y-89867D01*
X533708Y-90400D01*
X533475Y-90867D01*
X533125Y-91267D01*
X532717Y-91533D01*
X532250Y-91600D01*
G01X535708D02*
Y-87600D01*
X538392Y-91600D01*
Y-87600D01*
G01X389750Y-151100D02*
X389123Y-151000D01*
X388575Y-150600D01*
X388105Y-150000D01*
X387792Y-149300D01*
X387635Y-148500D01*
Y-147700D01*
X387792Y-146900D01*
X388105Y-146200D01*
X388575Y-145600D01*
X389123Y-145200D01*
X389750Y-145100D01*
X390377Y-145200D01*
X390925Y-145600D01*
X391395Y-146200D01*
X391708Y-146900D01*
X391865Y-147700D01*
Y-148500D01*
X391708Y-149300D01*
X391395Y-150000D01*
X390925Y-150600D01*
X390377Y-151000D01*
X389750Y-151100D01*
G01X394562D02*
Y-145100D01*
X397538D01*
G01X396442Y-148000D02*
X394562D01*
G01X408650Y-151100D02*
Y-145100D01*
X407710Y-146300D01*
G01Y-151100D02*
X409590D01*
G01X414950Y-145100D02*
X414323Y-145300D01*
X413853Y-145800D01*
X413540Y-146400D01*
X413305Y-147200D01*
X413227Y-148100D01*
X413305Y-149000D01*
X413540Y-149800D01*
X413853Y-150400D01*
X414323Y-150900D01*
X414950Y-151100D01*
X415577Y-150900D01*
X416047Y-150400D01*
X416360Y-149800D01*
X416595Y-149000D01*
X416673Y-148100D01*
X416595Y-147200D01*
X416360Y-146400D01*
X416047Y-145800D01*
X415577Y-145300D01*
X414950Y-145100D01*
G01X421542Y-142600D02*
Y-138600D01*
X423758D01*
G01X422942Y-140533D02*
X421542D01*
G01X426750Y-138600D02*
X428150D01*
G01X427450D02*
Y-142600D01*
G01X426750D02*
X428150D01*
G01X431083Y-138600D02*
Y-142600D01*
X433417D01*
G01X435533D02*
Y-138600D01*
X437050Y-141933D01*
X438567Y-138600D01*
Y-142600D01*
G01X424683Y-145100D02*
Y-151100D01*
X427817D01*
G01X432550D02*
Y-145100D01*
X431610Y-146300D01*
G01Y-151100D02*
X433490D01*
G01X436500Y-153100D02*
X441200D01*
G01X443583Y-151100D02*
Y-145100D01*
X445463D01*
X446090Y-145400D01*
X446560Y-146100D01*
X446717Y-146900D01*
X446560Y-147700D01*
X446168Y-148300D01*
X445463Y-148600D01*
X443583D01*
G01X449805Y-150300D02*
X450432Y-150800D01*
X451137Y-151100D01*
X451763D01*
X452390Y-150800D01*
X452860Y-150300D01*
X453095Y-149600D01*
X452938Y-148900D01*
X452547Y-148300D01*
X451842Y-147900D01*
X450902Y-147700D01*
X450353Y-147300D01*
X450118Y-146600D01*
X450275Y-145900D01*
X450667Y-145400D01*
X451215Y-145100D01*
X451763D01*
X452312Y-145300D01*
X452782Y-145800D01*
G01X546367Y-142600D02*
Y-138600D01*
X547533D01*
X548000Y-138800D01*
X548350Y-139067D01*
X548642Y-139467D01*
X548875Y-139933D01*
X548933Y-140600D01*
X548875Y-141267D01*
X548642Y-141733D01*
X548350Y-142133D01*
X548000Y-142400D01*
X547533Y-142600D01*
X546367D01*
G01X550992D02*
X552450Y-138600D01*
X553908Y-142600D01*
G01X553383Y-141200D02*
X551517D01*
G01X557250Y-138600D02*
Y-142600D01*
G01X555908Y-138600D02*
X558592D01*
G01X563217Y-142600D02*
X560883D01*
Y-138600D01*
X563217D01*
G01X562283Y-140533D02*
X560883D01*
G01X546308Y-62600D02*
Y-58600D01*
X548992Y-62600D01*
Y-58600D01*
G01X550992Y-62600D02*
X552450Y-58600D01*
X553908Y-62600D01*
G01X553383Y-61200D02*
X551517D01*
G01X555733Y-62600D02*
Y-58600D01*
X557250Y-61933D01*
X558767Y-58600D01*
Y-62600D01*
G01X563217D02*
X560883D01*
Y-58600D01*
X563217D01*
G01X562283Y-60533D02*
X560883D01*
G01X549650Y-146600D02*
X549183Y-146733D01*
X548833Y-147067D01*
X548600Y-147467D01*
X548425Y-148000D01*
X548367Y-148600D01*
X548425Y-149200D01*
X548600Y-149733D01*
X548833Y-150133D01*
X549183Y-150467D01*
X549650Y-150600D01*
X550117Y-150467D01*
X550467Y-150133D01*
X550700Y-149733D01*
X550875Y-149200D01*
X550933Y-148600D01*
X550875Y-148000D01*
X550700Y-147467D01*
X550467Y-147067D01*
X550117Y-146733D01*
X549650Y-146600D01*
G01X553458Y-150133D02*
X553867Y-150467D01*
X554333Y-150600D01*
X554800Y-150467D01*
X555208Y-150067D01*
X555500Y-149467D01*
X555617Y-148867D01*
Y-148133D01*
X555500Y-147533D01*
X555208Y-147000D01*
X554858Y-146733D01*
X554450Y-146600D01*
X553983Y-146733D01*
X553633Y-147000D01*
X553400Y-147400D01*
X553283Y-147933D01*
X553400Y-148400D01*
X553692Y-148867D01*
X554042Y-149133D01*
X554450Y-149200D01*
X554917Y-149067D01*
X555267Y-148733D01*
X555617Y-148133D01*
G01X558492Y-149267D02*
X560008D01*
G01X564050Y-150600D02*
Y-146600D01*
X563350Y-147400D01*
G01Y-150600D02*
X564750D01*
G01X567567Y-150000D02*
X567917Y-150333D01*
X568325Y-150533D01*
X568850Y-150600D01*
X569375Y-150467D01*
X569783Y-150200D01*
X570075Y-149733D01*
X570133Y-149200D01*
X570017Y-148667D01*
X569725Y-148333D01*
X569317Y-148067D01*
X568908Y-148000D01*
X568500Y-148067D01*
X567975Y-148333D01*
X568150Y-146600D01*
X569725D01*
G01X572892Y-149267D02*
X574408D01*
G01X577342Y-147267D02*
X577692Y-146867D01*
X578100Y-146667D01*
X578567Y-146600D01*
X579150Y-146733D01*
X579558Y-147067D01*
X579675Y-147467D01*
X579617Y-147867D01*
X579383Y-148200D01*
X578217Y-148867D01*
X577692Y-149333D01*
X577342Y-150000D01*
X577225Y-150600D01*
X579675D01*
G01X581967Y-149800D02*
X582317Y-150267D01*
X582783Y-150533D01*
X583308Y-150600D01*
X583775Y-150533D01*
X584242Y-150200D01*
X584533Y-149800D01*
X584592Y-149400D01*
X584475Y-148933D01*
X584067Y-148600D01*
X583658Y-148467D01*
X583133D01*
G01X583658D02*
X584008Y-148267D01*
X584300Y-147933D01*
X584417Y-147533D01*
X584300Y-147133D01*
X584008Y-146800D01*
X583483Y-146600D01*
X582958Y-146667D01*
X582433Y-146933D01*
G01X555900Y-128433D02*
X559400D01*
G01X560700D02*
X564200D01*
G01X565500D02*
X569000D01*
G01X578133Y-123433D02*
X577783Y-123233D01*
X577375Y-123100D01*
X576908D01*
X576383Y-123300D01*
X575975Y-123633D01*
X575683Y-124033D01*
X575450Y-124700D01*
X575392Y-125300D01*
X575508Y-125900D01*
X575683Y-126300D01*
X576033Y-126700D01*
X576442Y-126967D01*
X576850Y-127100D01*
X577258D01*
X577667Y-126967D01*
X578017Y-126767D01*
X578308Y-126500D01*
G01X581650Y-127100D02*
X581183Y-127033D01*
X580775Y-126767D01*
X580425Y-126367D01*
X580192Y-125900D01*
X580075Y-125367D01*
Y-124833D01*
X580192Y-124300D01*
X580425Y-123833D01*
X580775Y-123433D01*
X581183Y-123167D01*
X581650Y-123100D01*
X582117Y-123167D01*
X582525Y-123433D01*
X582875Y-123833D01*
X583108Y-124300D01*
X583225Y-124833D01*
Y-125367D01*
X583108Y-125900D01*
X582875Y-126367D01*
X582525Y-126767D01*
X582117Y-127033D01*
X581650Y-127100D01*
G01X584933D02*
Y-123100D01*
X586450Y-126433D01*
X587967Y-123100D01*
Y-127100D01*
G01X590083D02*
Y-123100D01*
X591483D01*
X591950Y-123300D01*
X592300Y-123767D01*
X592417Y-124300D01*
X592300Y-124833D01*
X592008Y-125233D01*
X591483Y-125433D01*
X590083D01*
G01X594592Y-127100D02*
X596050Y-123100D01*
X597508Y-127100D01*
G01X596983Y-125700D02*
X595117D01*
G01X599508Y-127100D02*
Y-123100D01*
X602192Y-127100D01*
Y-123100D01*
G01X605650Y-127100D02*
Y-125300D01*
X604483Y-123100D01*
G01X606817D02*
X605650Y-125300D01*
G01X616533Y-123433D02*
X616183Y-123233D01*
X615775Y-123100D01*
X615308D01*
X614783Y-123300D01*
X614375Y-123633D01*
X614083Y-124033D01*
X613850Y-124700D01*
X613792Y-125300D01*
X613908Y-125900D01*
X614083Y-126300D01*
X614433Y-126700D01*
X614842Y-126967D01*
X615250Y-127100D01*
X615658D01*
X616067Y-126967D01*
X616417Y-126767D01*
X616708Y-126500D01*
G01X620050Y-127100D02*
X619583Y-127033D01*
X619175Y-126767D01*
X618825Y-126367D01*
X618592Y-125900D01*
X618475Y-125367D01*
Y-124833D01*
X618592Y-124300D01*
X618825Y-123833D01*
X619175Y-123433D01*
X619583Y-123167D01*
X620050Y-123100D01*
X620517Y-123167D01*
X620925Y-123433D01*
X621275Y-123833D01*
X621508Y-124300D01*
X621625Y-124833D01*
Y-125367D01*
X621508Y-125900D01*
X621275Y-126367D01*
X620925Y-126767D01*
X620517Y-127033D01*
X620050Y-127100D01*
G01X623508D02*
Y-123100D01*
X626192Y-127100D01*
Y-123100D01*
G01X628542Y-127100D02*
Y-123100D01*
X630758D01*
G01X629942Y-125033D02*
X628542D01*
G01X633750Y-123100D02*
X635150D01*
G01X634450D02*
Y-127100D01*
G01X633750D02*
X635150D01*
G01X637967D02*
Y-123100D01*
X639133D01*
X639600Y-123300D01*
X639950Y-123567D01*
X640242Y-123967D01*
X640475Y-124433D01*
X640533Y-125100D01*
X640475Y-125767D01*
X640242Y-126233D01*
X639950Y-126633D01*
X639600Y-126900D01*
X639133Y-127100D01*
X637967D01*
G01X645217D02*
X642883D01*
Y-123100D01*
X645217D01*
G01X644283Y-125033D02*
X642883D01*
G01X647508Y-127100D02*
Y-123100D01*
X650192Y-127100D01*
Y-123100D01*
G01X653650D02*
Y-127100D01*
G01X652308Y-123100D02*
X654992D01*
G01X657750D02*
X659150D01*
G01X658450D02*
Y-127100D01*
G01X657750D02*
X659150D01*
G01X661792D02*
X663250Y-123100D01*
X664708Y-127100D01*
G01X664183Y-125700D02*
X662317D01*
G01X666883Y-123100D02*
Y-127100D01*
X669217D01*
G01X555900Y-111933D02*
X559400D01*
G01X560700D02*
X564200D01*
G01X565500D02*
X569000D01*
G01X578133Y-106933D02*
X577783Y-106733D01*
X577375Y-106600D01*
X576908D01*
X576383Y-106800D01*
X575975Y-107133D01*
X575683Y-107533D01*
X575450Y-108200D01*
X575392Y-108800D01*
X575508Y-109400D01*
X575683Y-109800D01*
X576033Y-110200D01*
X576442Y-110467D01*
X576850Y-110600D01*
X577258D01*
X577667Y-110467D01*
X578017Y-110267D01*
X578308Y-110000D01*
G01X581650Y-110600D02*
X581183Y-110533D01*
X580775Y-110267D01*
X580425Y-109867D01*
X580192Y-109400D01*
X580075Y-108867D01*
Y-108333D01*
X580192Y-107800D01*
X580425Y-107333D01*
X580775Y-106933D01*
X581183Y-106667D01*
X581650Y-106600D01*
X582117Y-106667D01*
X582525Y-106933D01*
X582875Y-107333D01*
X583108Y-107800D01*
X583225Y-108333D01*
Y-108867D01*
X583108Y-109400D01*
X582875Y-109867D01*
X582525Y-110267D01*
X582117Y-110533D01*
X581650Y-110600D01*
G01X584933D02*
Y-106600D01*
X586450Y-109933D01*
X587967Y-106600D01*
Y-110600D01*
G01X590083D02*
Y-106600D01*
X591483D01*
X591950Y-106800D01*
X592300Y-107267D01*
X592417Y-107800D01*
X592300Y-108333D01*
X592008Y-108733D01*
X591483Y-108933D01*
X590083D01*
G01X594592Y-110600D02*
X596050Y-106600D01*
X597508Y-110600D01*
G01X596983Y-109200D02*
X595117D01*
G01X599508Y-110600D02*
Y-106600D01*
X602192Y-110600D01*
Y-106600D01*
G01X605650Y-110600D02*
Y-108800D01*
X604483Y-106600D01*
G01X606817D02*
X605650Y-108800D01*
G01X614550Y-106600D02*
X615950D01*
G01X615250D02*
Y-110600D01*
G01X614550D02*
X615950D01*
G01X618708D02*
Y-106600D01*
X621392Y-110600D01*
Y-106600D01*
G01X624850D02*
Y-110600D01*
G01X623508Y-106600D02*
X626192D01*
G01X630817Y-110600D02*
X628483D01*
Y-106600D01*
X630817D01*
G01X629883Y-108533D02*
X628483D01*
G01X633283Y-110600D02*
Y-106600D01*
X634742D01*
X635208Y-106800D01*
X635500Y-107067D01*
X635617Y-107600D01*
X635500Y-108133D01*
X635150Y-108467D01*
X634742Y-108667D01*
X633283D01*
G01X634742D02*
X635617Y-110600D01*
G01X637908D02*
Y-106600D01*
X640592Y-110600D01*
Y-106600D01*
G01X642592Y-110600D02*
X644050Y-106600D01*
X645508Y-110600D01*
G01X644983Y-109200D02*
X643117D01*
G01X647683Y-106600D02*
Y-110600D01*
X650017D01*
G01X555900Y-95933D02*
X559400D01*
G01X560700D02*
X564200D01*
G01X565500D02*
X569000D01*
G01X578133Y-90933D02*
X577783Y-90733D01*
X577375Y-90600D01*
X576908D01*
X576383Y-90800D01*
X575975Y-91133D01*
X575683Y-91533D01*
X575450Y-92200D01*
X575392Y-92800D01*
X575508Y-93400D01*
X575683Y-93800D01*
X576033Y-94200D01*
X576442Y-94467D01*
X576850Y-94600D01*
X577258D01*
X577667Y-94467D01*
X578017Y-94267D01*
X578308Y-94000D01*
G01X581650Y-94600D02*
X581183Y-94533D01*
X580775Y-94267D01*
X580425Y-93867D01*
X580192Y-93400D01*
X580075Y-92867D01*
Y-92333D01*
X580192Y-91800D01*
X580425Y-91333D01*
X580775Y-90933D01*
X581183Y-90667D01*
X581650Y-90600D01*
X582117Y-90667D01*
X582525Y-90933D01*
X582875Y-91333D01*
X583108Y-91800D01*
X583225Y-92333D01*
Y-92867D01*
X583108Y-93400D01*
X582875Y-93867D01*
X582525Y-94267D01*
X582117Y-94533D01*
X581650Y-94600D01*
G01X584933D02*
Y-90600D01*
X586450Y-93933D01*
X587967Y-90600D01*
Y-94600D01*
G01X590083D02*
Y-90600D01*
X591483D01*
X591950Y-90800D01*
X592300Y-91267D01*
X592417Y-91800D01*
X592300Y-92333D01*
X592008Y-92733D01*
X591483Y-92933D01*
X590083D01*
G01X594592Y-94600D02*
X596050Y-90600D01*
X597508Y-94600D01*
G01X596983Y-93200D02*
X595117D01*
G01X599508Y-94600D02*
Y-90600D01*
X602192Y-94600D01*
Y-90600D01*
G01X605650Y-94600D02*
Y-92800D01*
X604483Y-90600D01*
G01X606817D02*
X605650Y-92800D01*
G01X614083Y-94600D02*
Y-90600D01*
X615483D01*
X615950Y-90800D01*
X616300Y-91267D01*
X616417Y-91800D01*
X616300Y-92333D01*
X616008Y-92733D01*
X615483Y-92933D01*
X614083D01*
G01X618767Y-90600D02*
Y-93467D01*
X619000Y-94067D01*
X619467Y-94467D01*
X620050Y-94600D01*
X620633Y-94467D01*
X621100Y-94067D01*
X621333Y-93467D01*
Y-90600D01*
G01X625317Y-92467D02*
X625550Y-92267D01*
X625725Y-91933D01*
X625842Y-91467D01*
X625725Y-91067D01*
X625492Y-90800D01*
X625083Y-90600D01*
X623508D01*
Y-94600D01*
X625433D01*
X625842Y-94333D01*
X626075Y-93933D01*
X626192Y-93467D01*
X626075Y-93000D01*
X625725Y-92600D01*
X625317Y-92467D01*
X623508D01*
G01X628483Y-90600D02*
Y-94600D01*
X630817D01*
G01X633750Y-90600D02*
X635150D01*
G01X634450D02*
Y-94600D01*
G01X633750D02*
X635150D01*
G01X640533Y-90933D02*
X640183Y-90733D01*
X639775Y-90600D01*
X639308D01*
X638783Y-90800D01*
X638375Y-91133D01*
X638083Y-91533D01*
X637850Y-92200D01*
X637792Y-92800D01*
X637908Y-93400D01*
X638083Y-93800D01*
X638433Y-94200D01*
X638842Y-94467D01*
X639250Y-94600D01*
X639658D01*
X640067Y-94467D01*
X640417Y-94267D01*
X640708Y-94000D01*
G01X560605Y-111600D02*
X563895Y-105300D01*
G01X560605D02*
X563895Y-111600D01*
G01X596308Y-142600D02*
Y-138600D01*
X598992Y-142600D01*
Y-138600D01*
G01X601167D02*
Y-141467D01*
X601400Y-142067D01*
X601867Y-142467D01*
X602450Y-142600D01*
X603033Y-142467D01*
X603500Y-142067D01*
X603733Y-141467D01*
Y-138600D01*
G01X605733Y-142600D02*
Y-138600D01*
X607250Y-141933D01*
X608767Y-138600D01*
Y-142600D01*
G01X612517Y-140467D02*
X612750Y-140267D01*
X612925Y-139933D01*
X613042Y-139467D01*
X612925Y-139067D01*
X612692Y-138800D01*
X612283Y-138600D01*
X610708D01*
Y-142600D01*
X612633D01*
X613042Y-142333D01*
X613275Y-141933D01*
X613392Y-141467D01*
X613275Y-141000D01*
X612925Y-140600D01*
X612517Y-140467D01*
X610708D01*
G01X618017Y-142600D02*
X615683D01*
Y-138600D01*
X618017D01*
G01X617083Y-140533D02*
X615683D01*
G01X620483Y-142600D02*
Y-138600D01*
X621942D01*
X622408Y-138800D01*
X622700Y-139067D01*
X622817Y-139600D01*
X622700Y-140133D01*
X622350Y-140467D01*
X621942Y-140667D01*
X620483D01*
G01X621942D02*
X622817Y-142600D01*
G01X619362Y-72700D02*
Y-66400D01*
X622338D01*
G01X621242Y-69445D02*
X619362D01*
G01X625583Y-72700D02*
Y-66400D01*
X627542D01*
X628168Y-66715D01*
X628560Y-67135D01*
X628717Y-67975D01*
X628560Y-68815D01*
X628090Y-69340D01*
X627542Y-69655D01*
X625583D01*
G01X627542D02*
X628717Y-72700D01*
G01X631727D02*
Y-66400D01*
X633293D01*
X633920Y-66715D01*
X634390Y-67135D01*
X634782Y-67765D01*
X635095Y-68500D01*
X635173Y-69550D01*
X635095Y-70600D01*
X634782Y-71335D01*
X634390Y-71965D01*
X633920Y-72385D01*
X633293Y-72700D01*
X631727D01*
G01X637713D02*
Y-66400D01*
X639750Y-71650D01*
X641787Y-66400D01*
Y-72700D01*
G01X645032Y-70600D02*
X647068D01*
G01X650313Y-72700D02*
Y-66400D01*
X652350Y-71650D01*
X654387Y-66400D01*
Y-72700D01*
G01X660373Y-66925D02*
X659903Y-66610D01*
X659355Y-66400D01*
X658728D01*
X658023Y-66715D01*
X657475Y-67240D01*
X657083Y-67870D01*
X656770Y-68920D01*
X656692Y-69865D01*
X656848Y-70810D01*
X657083Y-71440D01*
X657553Y-72070D01*
X658102Y-72490D01*
X658650Y-72700D01*
X659198D01*
X659747Y-72490D01*
X660217Y-72175D01*
X660608Y-71755D01*
G01X663305Y-72700D02*
X666595Y-66400D01*
G01X663305D02*
X666595Y-72700D01*
G01X669448D02*
Y-66400D01*
X673052Y-72700D01*
Y-66400D01*
G01X676218Y-71965D02*
X676767Y-72490D01*
X677393Y-72700D01*
X678020Y-72490D01*
X678568Y-71860D01*
X678960Y-70915D01*
X679117Y-69970D01*
Y-68815D01*
X678960Y-67870D01*
X678568Y-67030D01*
X678098Y-66610D01*
X677550Y-66400D01*
X676923Y-66610D01*
X676453Y-67030D01*
X676140Y-67660D01*
X675983Y-68500D01*
X676140Y-69235D01*
X676532Y-69970D01*
X677002Y-70390D01*
X677550Y-70495D01*
X678177Y-70285D01*
X678647Y-69760D01*
X679117Y-68815D01*
G01X684790Y-72700D02*
Y-66400D01*
X681892Y-70915D01*
X685808D01*
G01X689993Y-72700D02*
X690150Y-71335D01*
X690385Y-70180D01*
X690698Y-69130D01*
X691090Y-67975D01*
X691717Y-66400D01*
X688583D01*
G01X631250Y-149800D02*
Y-143500D01*
X630310Y-144760D01*
G01Y-149800D02*
X632190D01*
G01X637393D02*
X637550Y-148435D01*
X637785Y-147280D01*
X638098Y-146230D01*
X638490Y-145075D01*
X639117Y-143500D01*
X635983D01*
G01X643850D02*
X643223Y-143710D01*
X642753Y-144235D01*
X642440Y-144865D01*
X642205Y-145705D01*
X642127Y-146650D01*
X642205Y-147595D01*
X642440Y-148435D01*
X642753Y-149065D01*
X643223Y-149590D01*
X643850Y-149800D01*
X644477Y-149590D01*
X644947Y-149065D01*
X645260Y-148435D01*
X645495Y-147595D01*
X645573Y-146650D01*
X645495Y-145705D01*
X645260Y-144865D01*
X644947Y-144235D01*
X644477Y-143710D01*
X643850Y-143500D01*
G01X649132Y-147700D02*
X651168D01*
G01X655118Y-149065D02*
X655667Y-149590D01*
X656293Y-149800D01*
X656920Y-149590D01*
X657468Y-148960D01*
X657860Y-148015D01*
X658017Y-147070D01*
Y-145915D01*
X657860Y-144970D01*
X657468Y-144130D01*
X656998Y-143710D01*
X656450Y-143500D01*
X655823Y-143710D01*
X655353Y-144130D01*
X655040Y-144760D01*
X654883Y-145600D01*
X655040Y-146335D01*
X655432Y-147070D01*
X655902Y-147490D01*
X656450Y-147595D01*
X657077Y-147385D01*
X657547Y-146860D01*
X658017Y-145915D01*
G01X662750Y-143500D02*
X662123Y-143710D01*
X661653Y-144235D01*
X661340Y-144865D01*
X661105Y-145705D01*
X661027Y-146650D01*
X661105Y-147595D01*
X661340Y-148435D01*
X661653Y-149065D01*
X662123Y-149590D01*
X662750Y-149800D01*
X663377Y-149590D01*
X663847Y-149065D01*
X664160Y-148435D01*
X664395Y-147595D01*
X664473Y-146650D01*
X664395Y-145705D01*
X664160Y-144865D01*
X663847Y-144235D01*
X663377Y-143710D01*
X662750Y-143500D01*
G01X669050Y-149800D02*
X669598Y-149695D01*
X670225Y-149380D01*
X670617Y-148855D01*
X670773Y-148120D01*
X670617Y-147385D01*
X670147Y-146755D01*
X669442Y-146440D01*
X668658D01*
X668188Y-146230D01*
X667797Y-145705D01*
X667640Y-144970D01*
X667875Y-144235D01*
X668423Y-143710D01*
X669050Y-143500D01*
X669677Y-143710D01*
X670225Y-144235D01*
X670460Y-144970D01*
X670303Y-145705D01*
X669912Y-146230D01*
X669442Y-146440D01*
X668658D01*
X667953Y-146755D01*
X667483Y-147385D01*
X667327Y-148120D01*
X667483Y-148855D01*
X667875Y-149380D01*
X668502Y-149695D01*
X669050Y-149800D01*
G01X675350D02*
Y-143500D01*
X674410Y-144760D01*
G01Y-149800D02*
X676290D01*
G01X681650D02*
X682198Y-149695D01*
X682825Y-149380D01*
X683217Y-148855D01*
X683373Y-148120D01*
X683217Y-147385D01*
X682747Y-146755D01*
X682042Y-146440D01*
X681258D01*
X680788Y-146230D01*
X680397Y-145705D01*
X680240Y-144970D01*
X680475Y-144235D01*
X681023Y-143710D01*
X681650Y-143500D01*
X682277Y-143710D01*
X682825Y-144235D01*
X683060Y-144970D01*
X682903Y-145705D01*
X682512Y-146230D01*
X682042Y-146440D01*
X681258D01*
X680553Y-146755D01*
X680083Y-147385D01*
X679927Y-148120D01*
X680083Y-148855D01*
X680475Y-149380D01*
X681102Y-149695D01*
X681650Y-149800D01*
G01X724183D02*
Y-143500D01*
X726142D01*
X726768Y-143815D01*
X727160Y-144235D01*
X727317Y-145075D01*
X727160Y-145915D01*
X726690Y-146440D01*
X726142Y-146755D01*
X724183D01*
G01X726142D02*
X727317Y-149800D01*
G01X733617D02*
X730483D01*
Y-143500D01*
X733617D01*
G01X732363Y-146545D02*
X730483D01*
G01X736392Y-143500D02*
X738350Y-149800D01*
X740308Y-143500D01*
G01X751577Y-146440D02*
X751890Y-146125D01*
X752125Y-145600D01*
X752282Y-144865D01*
X752125Y-144235D01*
X751812Y-143815D01*
X751263Y-143500D01*
X749148D01*
Y-149800D01*
X751733D01*
X752282Y-149380D01*
X752595Y-148750D01*
X752752Y-148015D01*
X752595Y-147280D01*
X752125Y-146650D01*
X751577Y-146440D01*
X749148D01*
G54D36*
X61550Y2050D03*
G54D54*
X140400Y40250D03*
X396500Y182000D03*
G54D27*
X33079Y27000D03*
X35579Y138500D03*
X156079Y27000D03*
G54D45*
X87159Y122379D03*
Y124348D03*
X89128Y122379D03*
Y124348D03*
X87159Y126316D03*
Y130253D03*
X89128Y126316D03*
Y130253D03*
X87159Y132222D03*
Y134190D03*
X89128Y132222D03*
Y134190D03*
X87159Y136159D03*
Y138127D03*
X89128Y136159D03*
Y138127D03*
X87159Y142064D03*
X89128D03*
X87159Y144033D03*
Y146001D03*
X89128Y144033D03*
Y146001D03*
X91096Y122379D03*
Y124348D03*
Y134190D03*
Y144033D03*
Y146001D03*
X95033Y122379D03*
Y124348D03*
X97002Y122379D03*
Y124348D03*
X95033Y130253D03*
X97002D03*
X95033Y134190D03*
Y132222D03*
X97002D03*
X95033Y136159D03*
Y138127D03*
X97002D03*
Y136159D03*
X95033Y144033D03*
Y146001D03*
X97002Y144033D03*
Y146001D03*
X98970Y122379D03*
Y124348D03*
X100939Y122379D03*
Y124348D03*
Y130253D03*
X98970D03*
Y126316D03*
Y132222D03*
X100939D03*
X98970Y138127D03*
X100939D03*
X98970Y136159D03*
X100939D03*
X98970Y142064D03*
Y144033D03*
Y146001D03*
X100939Y144033D03*
Y146001D03*
X102907Y122379D03*
Y124348D03*
X106844Y122379D03*
Y124348D03*
X102907Y130253D03*
Y132222D03*
Y134190D03*
X106844D03*
X102907Y138127D03*
Y136159D03*
Y144033D03*
Y146001D03*
X106844Y144033D03*
Y146001D03*
X108813Y122379D03*
Y124348D03*
X110781Y122379D03*
Y124348D03*
X108813Y126316D03*
Y130253D03*
X110781Y126316D03*
Y130253D03*
X108813Y132222D03*
Y134190D03*
X110781Y132222D03*
Y134190D03*
X108813Y136159D03*
Y138127D03*
X110781Y136159D03*
Y138127D03*
X108813Y142064D03*
X110781D03*
X108813Y144033D03*
Y146001D03*
X110781Y144033D03*
Y146001D03*
X249720Y86252D03*
X247752D03*
X249720Y88220D03*
X247752D03*
X249720Y92157D03*
X247752D03*
X249720Y96094D03*
X247752D03*
X249720Y98063D03*
Y100031D03*
X247752D03*
X249720Y103969D03*
X247752D03*
X249720Y105937D03*
Y107906D03*
X247752D03*
X249720Y111843D03*
X247752D03*
X249720Y115780D03*
X247752D03*
X249720Y117748D03*
X247752D03*
X253657Y86252D03*
Y88220D03*
X251689D03*
X253657Y90189D03*
X251689D03*
X253657Y92157D03*
X251689D03*
X253657Y94126D03*
Y96094D03*
X251689D03*
X253657Y98063D03*
X251689Y100031D03*
X253657Y102000D03*
X251689D03*
Y103969D03*
X253657Y105937D03*
Y107906D03*
X251689D03*
X253657Y109874D03*
Y111843D03*
X251689D03*
X253657Y113811D03*
X251689D03*
X253657Y115780D03*
X251689D03*
X253657Y117748D03*
X257594Y86252D03*
Y88220D03*
Y90189D03*
X255626D03*
X257594Y92157D03*
X255626Y94126D03*
X257594Y96094D03*
X255626Y98063D03*
X257594Y100031D03*
X255626D03*
X257594Y103969D03*
X255626D03*
Y105937D03*
X257594Y107906D03*
X255626Y109874D03*
X257594Y111843D03*
Y113811D03*
X255626D03*
X257594Y115780D03*
Y117748D03*
X261531Y86252D03*
Y88220D03*
X259563D03*
X261531Y90189D03*
X259563Y92157D03*
X261531Y94126D03*
X259563D03*
X261531Y96094D03*
X259563Y98063D03*
X261531Y100031D03*
Y102000D03*
Y103969D03*
X259563Y105937D03*
X261531Y107906D03*
Y109874D03*
X259563D03*
Y111843D03*
X261531Y113811D03*
Y115780D03*
X259563D03*
X261531Y117748D03*
X265469Y86252D03*
X267437Y88220D03*
X265469D03*
Y90189D03*
X263500D03*
X267437Y92157D03*
X263500D03*
X267437Y94126D03*
X265469D03*
Y96094D03*
X267437Y98063D03*
X265469Y100031D03*
X263500D03*
X265469Y102000D03*
Y103969D03*
X263500D03*
X267437Y105937D03*
X265469Y107906D03*
X267437Y109874D03*
X265469D03*
X267437Y111843D03*
X263500D03*
X265469Y113811D03*
X263500D03*
X267437Y115780D03*
X265469D03*
Y117748D03*
X269406Y86252D03*
Y88220D03*
X271374Y90189D03*
X269406D03*
Y92157D03*
X271374Y94126D03*
X269406Y96094D03*
X271374Y98063D03*
Y100031D03*
X269406D03*
X271374Y103969D03*
X269406D03*
X271374Y105937D03*
X269406Y107906D03*
X271374Y109874D03*
X269406Y111843D03*
X271374Y113811D03*
X269406D03*
Y115780D03*
Y117748D03*
X273343Y86252D03*
X275311Y88220D03*
X273343D03*
X275311Y90189D03*
X273343D03*
X275311Y92157D03*
X273343D03*
Y94126D03*
X275311Y96094D03*
X273343D03*
Y98063D03*
X275311Y100031D03*
Y102000D03*
X273343D03*
X275311Y103969D03*
X273343Y105937D03*
X275311Y107906D03*
X273343D03*
Y109874D03*
X275311Y111843D03*
X273343D03*
X275311Y113811D03*
X273343D03*
X275311Y115780D03*
X273343D03*
Y117748D03*
X279248Y86252D03*
X277280D03*
X279248Y88220D03*
X277280D03*
X279248Y92157D03*
X277280D03*
X279248Y96094D03*
X277280D03*
Y98063D03*
X279248Y100031D03*
X277280D03*
X279248Y103969D03*
X277280D03*
Y105937D03*
X279248Y107906D03*
X277280D03*
X279248Y111843D03*
X277280D03*
X279248Y115780D03*
X277280D03*
X279248Y117748D03*
X277280D03*
G54D72*
X328500Y7000D03*
G54D18*
X12000Y-2300D03*
Y5300D03*
X20900Y136300D03*
Y143900D03*
G54D63*
X171728Y101441D03*
Y104000D03*
Y106559D03*
X180272Y101441D03*
Y106559D03*
Y104000D03*
G54D82*
G01X85000Y136048D02*
X85070D01*
X85180Y136159D01*
X87159D01*
G01X91078Y136049D02*
X91008D01*
X90898Y136159D01*
X89128D01*
G54D55*
X145000Y98335D03*
Y102665D03*
X166000Y162835D03*
Y167165D03*
G54D73*
X324004Y62011D03*
Y152011D03*
X334004Y62011D03*
Y152011D03*
X344004Y62011D03*
Y152011D03*
X354004Y62011D03*
Y152011D03*
X364004Y62011D03*
Y152011D03*
X374004Y62011D03*
Y152011D03*
X384004Y62011D03*
Y152011D03*
G54D64*
X177500Y87500D03*
G54D37*
X65500Y168000D03*
X150400Y40250D03*
X160400D03*
X246500Y182000D03*
Y192000D03*
X256500Y182000D03*
Y192000D03*
X266500Y182000D03*
Y192000D03*
X276500Y182000D03*
Y192000D03*
X286500Y182000D03*
Y192000D03*
X296500Y182000D03*
Y192000D03*
X306500Y182000D03*
Y192000D03*
X316500Y182000D03*
Y192000D03*
X326500Y182000D03*
Y192000D03*
X336500Y182000D03*
Y192000D03*
X346500Y182000D03*
Y192000D03*
X356500Y182000D03*
Y192000D03*
X366500Y182000D03*
Y192000D03*
X376500Y182000D03*
Y192000D03*
X386500Y182000D03*
Y192000D03*
X396500D03*
X438000Y16000D03*
X437500Y178000D03*
G54D46*
G01X9500Y60500D02*
X5429Y64571D01*
X2090D01*
G01X9272Y24069D02*
X13322D01*
G01D02*
X14518Y25266D01*
G01X12000Y60500D02*
X9500D01*
X99500Y93000D03*
X101000Y167500D03*
X107500D03*
X114500Y167600D03*
X123000Y93000D03*
X130500D03*
X140500Y78300D03*
X266500Y60000D03*
X271000Y63500D03*
X356000Y42500D03*
X361000Y113000D03*
Y120500D03*
Y128500D03*
X363500Y42500D03*
X365500Y99000D03*
X371000Y42500D03*
X375500Y91000D03*
X372000Y99000D03*
X379000Y42500D03*
X378500Y99000D03*
X386500Y42500D03*
X385500Y91000D03*
X385000Y99000D03*
X391500D03*
X394000Y42500D03*
X398000Y99000D03*
X401500Y42500D03*
X410000Y105500D03*
Y115000D03*
X410500Y123000D03*
G54D19*
X22000Y20500D03*
X28000D03*
X89500Y51000D03*
X95500D03*
X135000Y135100D03*
X138500Y54500D03*
Y93000D03*
X141000Y135100D03*
X144500Y54500D03*
Y93000D03*
X159000Y92200D03*
X165000D03*
X242500Y53500D03*
X248500D03*
X254000D03*
X260000D03*
X265000D03*
X271000D03*
X293000Y77000D03*
X299000D03*
X308500Y80500D03*
Y86500D03*
X314500Y80500D03*
Y86500D03*
X320500D03*
Y94000D03*
X326500Y86500D03*
Y94000D03*
X366000Y77500D03*
Y83500D03*
X369500Y49000D03*
X375500D03*
X372000Y77500D03*
Y83500D03*
X377000Y164500D03*
X383000D03*
X396300Y62000D03*
X398000Y89000D03*
X402300Y62000D03*
X404000Y89000D03*
G54D28*
X34000Y52500D03*
X40000Y128000D03*
X46000Y52500D03*
X52000Y128000D03*
G54D83*
G01X87159Y132222D02*
X83999D01*
X83639Y131862D01*
G01X80787Y45854D02*
Y48787D01*
X81000Y49000D01*
G01X89128Y124348D02*
X87159D01*
G01D02*
X86628D01*
X84468Y122187D01*
G01X89128Y126316D02*
Y124348D01*
G01X251083Y79750D02*
X251266Y79932D01*
X253432D01*
X256300Y82800D01*
Y89515D01*
X255626Y90189D01*
G01X252500Y81975D02*
X253195D01*
X255100Y83880D01*
Y88746D01*
X253657Y90189D01*
G01X257594D02*
X259444D01*
G01X273343Y81128D02*
Y86252D01*
G01X428169Y205268D02*
X-7518D01*
G03X-14744Y197724I324J-7543D01*
G01Y-3394D01*
G03X-6870Y-11268I7874J0D01*
G01X30532D01*
X430138D01*
X441949D01*
G03X449823Y-3394I0J7874D01*
G01Y197394D01*
G03X441949Y205268I-7874J0D01*
G01X428169D01*
G54D29*
X40559Y27000D03*
X43059Y138500D03*
X163559Y27000D03*
G54D74*
X365500Y102500D03*
X378500D03*
X381650Y118831D03*
X381094Y122969D03*
X387000Y110000D03*
X388500Y126800D03*
X385000Y126874D03*
X392905Y115095D03*
Y119032D03*
X389000Y119000D03*
X392905Y122968D03*
X392600Y130450D03*
X392905Y126905D03*
G54D47*
X112169Y37260D03*
Y44740D03*
X120831Y37260D03*
Y44740D03*
G54D38*
X68650Y118500D03*
X76350D03*
G54D56*
X161827Y68441D03*
Y73559D03*
X170173Y71000D03*
G54D65*
G01X77638Y45854D02*
Y46862D01*
X76000Y48500D01*
G01X87159Y134190D02*
X86657Y133688D01*
X81500D01*
G01X82500Y136070D02*
X84557Y138127D01*
X87159D01*
G01X89128Y122379D02*
Y120987D01*
X87968Y119827D01*
G01D02*
X87159Y120636D01*
Y122379D01*
G01X86000Y148500D02*
Y147155D01*
X87154Y146001D01*
X87159D01*
G01X89128Y126316D02*
Y126347D01*
X90718Y127937D01*
G01X89128Y146001D02*
Y148500D01*
G01X91096Y146001D02*
Y151000D01*
G01X95033Y122379D02*
Y120622D01*
X95468Y120187D01*
G01X97002Y146001D02*
Y144033D01*
G01Y146001D02*
Y147183D01*
X95998Y148187D01*
G01X98970Y146001D02*
Y147692D01*
G01Y146001D02*
Y144033D01*
G01X107000Y77500D02*
X107545Y76955D01*
X111199D01*
G01X108813Y122379D02*
Y121342D01*
X109968Y120187D01*
G01X118500Y120500D02*
X117600Y121400D01*
X111760D01*
X110781Y122379D01*
G01X108813Y130253D02*
X108402D01*
X106718Y131937D01*
G01X108813Y138127D02*
X106858D01*
G01X108813Y146001D02*
Y147032D01*
X109968Y148187D01*
G01X112000Y59500D02*
X114105Y61605D01*
Y64199D01*
G01X110781Y130253D02*
X114534D01*
X118718Y134437D01*
G01X110781Y138127D02*
X111912D01*
X116892Y143108D01*
G01X113000Y144000D02*
X111064Y142064D01*
X110781D01*
G01X123955Y59585D02*
Y64199D01*
G01X134500Y73015D02*
X130801D01*
G01X176500Y69000D02*
X174500D01*
X172500Y71000D01*
X170173D01*
G01X181925Y60787D02*
X178287D01*
X177500Y60000D01*
G01D02*
X178287Y59213D01*
X181925D01*
G01X181500Y68500D02*
X177000D01*
X176500Y69000D01*
G01X181925Y57638D02*
X183500D01*
G01Y60787D02*
X181925D01*
G01X181500Y68500D02*
Y66250D01*
X181925Y65825D01*
Y62362D01*
G01X188764Y59189D02*
X187213Y57638D01*
X185075D01*
G01X183500Y59213D02*
Y57638D01*
G01D02*
Y55000D01*
G01X188764Y59189D02*
X185099D01*
X185075Y59213D01*
G01Y60787D02*
X187213D01*
X188764Y59236D01*
Y59189D01*
G01X185075Y62362D02*
X191862D01*
X192000Y62500D01*
G01X183500Y62362D02*
Y64250D01*
X185500Y66250D01*
Y68500D01*
G01D02*
X186500Y69500D01*
X190000D01*
X190500Y69000D01*
G01X253380Y84423D02*
X253657Y84700D01*
Y86252D01*
G01X259563Y92157D02*
X257594D01*
G01X255626Y94126D02*
Y92276D01*
X255507Y92157D01*
G01X253657D02*
X255507D01*
G01X253657Y102000D02*
X255626D01*
G01D02*
Y103969D01*
G01X257726Y102000D02*
Y101726D01*
X257594Y101594D01*
Y100031D01*
G01Y103969D02*
X259032D01*
X259150Y104087D01*
X259563D01*
G01X255626Y109874D02*
Y111874D01*
G01X257594Y111843D02*
X255657D01*
X255626Y111874D01*
G01X263500Y92157D02*
X261500D01*
G01X259563D02*
X261500D01*
G01X261531Y102000D02*
X263500D01*
G01X259563Y98063D02*
Y100059D01*
X259438Y100184D01*
G01D02*
X259579D01*
X259732Y100031D01*
X261531D01*
G01Y105819D02*
X261350Y106000D01*
X259626D01*
X259563Y105937D01*
G01X261531Y103969D02*
Y105819D01*
G01X259563Y104087D02*
Y105937D01*
G01X263500Y111843D02*
X261423D01*
G01X267437Y98063D02*
X265488D01*
X265469Y98044D01*
G01X263500Y103969D02*
Y102000D01*
G01X265469D02*
X263500D01*
G01Y100031D02*
Y102000D01*
G01X265469Y100031D02*
Y98044D01*
G01Y103969D02*
X267469D01*
G01X269406Y92157D02*
Y93910D01*
X269500Y94005D01*
G01X273343Y92157D02*
X271405D01*
X271374Y92126D01*
G01D02*
X269437D01*
X269406Y92157D01*
G01Y90189D02*
X267500D01*
G01X271374Y94126D02*
X269622D01*
X269500Y94005D01*
G01X267437Y105937D02*
Y104001D01*
X267469Y103969D01*
G01X269406D02*
X267469D01*
G01X269406Y111843D02*
X271031D01*
X271050Y111824D01*
X271374D01*
G01X274500Y62000D02*
Y58764D01*
X276056Y57209D01*
X291000D01*
X292000Y58209D01*
Y59500D01*
G01X274500Y62000D02*
Y66531D01*
X276491Y68522D01*
G01X271374Y92126D02*
Y94126D01*
G01X275311Y90189D02*
X277280D01*
G01X271374Y102000D02*
X273343D01*
G01X271374Y103969D02*
Y102000D01*
G01Y111824D02*
Y109874D01*
G01X281000Y87500D02*
X280280Y88220D01*
X279248D01*
G01X292000Y65000D02*
Y66500D01*
X288000Y70500D01*
Y73683D01*
X287000Y74683D01*
Y78000D01*
X285000Y80000D01*
Y82000D01*
X283000Y84000D01*
G01X282500Y91000D02*
X282000D01*
X280843Y92157D01*
X279248D01*
G01X292000Y65000D02*
Y59500D01*
G01X367900Y-134600D02*
X767900D01*
G01X367900Y-104600D02*
Y-84600D01*
X767900D01*
G01X381094Y122969D02*
Y122968D01*
X379126Y121000D01*
G01X390937Y124937D02*
X392905Y126905D01*
G01X394874Y113126D02*
Y110126D01*
G01X417900Y-154600D02*
Y-134600D01*
G01X542900Y-84600D02*
Y-54600D01*
G01X543400Y-154600D02*
Y-134600D01*
G01X592900Y-154600D02*
Y-134600D01*
X181925Y57638D03*
Y59213D03*
Y60787D03*
Y62362D03*
X185075Y57638D03*
X183500D03*
X185075Y59213D03*
X183500D03*
X185075Y60787D03*
X183500D03*
X185075Y62362D03*
X183500D03*
G54D84*
G01X3957Y34109D02*
X7303Y30762D01*
X9272D01*
G01Y156027D02*
X7303D01*
X3957Y159373D01*
G01X16668Y158416D02*
X17878Y159626D01*
X18826D01*
X19560Y160360D01*
X20140D01*
X21500Y159000D01*
G01X16668Y161616D02*
X17878Y160406D01*
X18503D01*
X19237Y161140D01*
X20140D01*
X21500Y162500D01*
G01X23000Y34350D02*
X21150D01*
X19965Y35535D01*
X18787D01*
X17668Y34416D01*
G01X23000Y37500D02*
X21000D01*
X19815Y36315D01*
X18968D01*
X17668Y37616D01*
G01X31550Y159150D02*
X30340Y160360D01*
X26860D01*
X25500Y159000D01*
G01X31550Y162350D02*
X30340Y161140D01*
X26860D01*
X25500Y162500D01*
G01X273343Y90189D02*
X272585Y89431D01*
Y88940D01*
X272000Y88355D01*
Y74000D01*
X258720Y60720D01*
X211823D01*
X201823Y50720D01*
X159323D01*
X154823Y46220D01*
X134823D01*
X132280Y43677D01*
Y36177D01*
X120703Y24600D01*
X89703D01*
X87203Y22100D01*
X65900D01*
X61000Y27000D01*
Y32397D01*
X56897Y36500D01*
X45280D01*
X44300Y35520D01*
X33020D01*
X31850Y34350D01*
X29693D01*
G01X271374Y90189D02*
X271805Y89758D01*
Y89263D01*
X271220Y88678D01*
Y74323D01*
X258397Y61500D01*
X211500D01*
X201500Y51500D01*
X159000D01*
X154500Y47000D01*
X134500D01*
X131500Y44000D01*
Y36500D01*
X120380Y25380D01*
X89380D01*
X86880Y22880D01*
X66223D01*
X61780Y27323D01*
Y32720D01*
X57220Y37280D01*
X44957D01*
X43977Y36300D01*
X40338D01*
X39738Y36900D01*
X38938D01*
X38338Y36300D01*
X37538D01*
X36938Y36900D01*
X36138D01*
X35538Y36300D01*
X33068D01*
X31868Y37500D01*
X29693D01*
G54D39*
X64820Y144860D03*
Y153521D03*
X71120Y144860D03*
Y153521D03*
G54D75*
X372700Y113500D03*
Y118500D03*
Y123500D03*
Y128500D03*
X401300Y113500D03*
Y118500D03*
Y123500D03*
Y128500D03*
G54D57*
X162500Y118200D03*
Y124800D03*
X167500Y118200D03*
Y124800D03*
X172500Y118200D03*
Y124800D03*
X177500Y118200D03*
Y124800D03*
X182500Y118200D03*
Y124800D03*
G54D48*
X111199Y67105D03*
Y80895D03*
X130801Y67105D03*
Y80895D03*
G54D66*
X183307Y83661D03*
Y88780D03*
Y86221D03*
Y91339D03*
G54D85*
G01X98500Y174000D02*
X97000Y172500D01*
X72000D01*
X68500Y176000D01*
X37500D01*
X35500Y178000D01*
X16000D01*
X15000Y179000D01*
X-1500D01*
X-8000Y185500D01*
Y195000D01*
X-6000Y197000D01*
G01Y193000D02*
X-4000Y195000D01*
Y198866D01*
X-2933Y199933D01*
X1268D01*
G01Y183594D02*
Y199933D01*
G01X21500Y155000D02*
X20000Y153500D01*
X15500D01*
X13000Y151000D01*
Y145500D01*
X11200Y143700D01*
X7800D01*
X7000Y144500D01*
Y152000D01*
X6320Y152680D01*
X3957D01*
G01X9272Y37455D02*
X13000Y41184D01*
Y45000D01*
X16500Y48500D01*
X24938D01*
X25378Y48940D01*
Y52500D01*
G01X21500Y166000D02*
X21000Y166500D01*
X15500D01*
X11719Y162719D01*
X9272D01*
G01X25378Y45500D02*
Y42940D01*
X24938Y42500D01*
X16500D01*
X14518Y40518D01*
Y31416D01*
G01X25378Y45500D02*
X26500D01*
X30000Y42000D01*
G01Y46500D02*
X28000Y48500D01*
Y52060D01*
X27560Y52500D01*
X25378D01*
G01X42000Y59100D02*
X41380D01*
X23035Y77445D01*
G01X40500Y64000D02*
X38500D01*
X33000Y69500D01*
Y82500D01*
X38500Y88000D01*
Y102100D01*
X44500Y108100D01*
Y116000D01*
X38000Y122500D01*
X24555D01*
X23035Y124020D01*
G01X41500Y112000D02*
X35000Y105500D01*
Y99500D01*
X33733Y98233D01*
X27287D01*
G01X34000Y42000D02*
X35500Y43500D01*
X72000D01*
X73287Y42213D01*
X77616D01*
G01X34000Y46500D02*
X71500D01*
X74213Y43787D01*
X77616D01*
G01X41500Y108000D02*
X36500Y103000D01*
Y99000D01*
X31717Y94217D01*
X31618D01*
G01X42000Y59100D02*
Y60900D01*
X42700Y61600D01*
X46900D01*
X50720Y57780D01*
X86720D01*
X89000Y55500D01*
X96000D01*
X100500Y51000D01*
X111000D01*
X112000Y52000D01*
Y56000D01*
X112500Y56500D01*
X114000D01*
G01X57440Y23670D02*
X55170D01*
X54300Y22800D01*
Y19900D01*
X54740Y19460D01*
X66898D01*
X69460Y16898D01*
Y-2398D01*
X66358Y-5500D01*
X57086D01*
X56000Y-4414D01*
Y-2500D01*
X51550Y1950D01*
Y2050D01*
G01X49960Y23670D02*
Y28960D01*
G01Y23670D02*
X52330D01*
X53300Y22700D01*
Y19400D01*
X54200Y18500D01*
X66500D01*
X68500Y16500D01*
Y-2000D01*
X66000Y-4500D01*
X57500D01*
X57000Y-4000D01*
Y-2500D01*
X61550Y2050D01*
G01X51300Y150500D02*
Y154300D01*
X57500Y160500D01*
X74500D01*
X81500Y153500D01*
Y149692D01*
X87159Y144033D01*
G01X57440Y23670D02*
Y28940D01*
G01X77500Y150500D02*
X76500D01*
X75000Y149000D01*
X65500D01*
X64820Y149680D01*
Y153521D01*
G01X74000Y35000D02*
X70500D01*
G01X77638Y40146D02*
Y39138D01*
X74000Y35500D01*
Y35000D01*
G01X77500Y146500D02*
X75860Y144860D01*
X71120D01*
G01X79037Y37546D02*
Y37537D01*
X77500Y36000D01*
Y35000D01*
G01X79213Y40146D02*
Y37722D01*
X79037Y37546D01*
G01X77500Y52000D02*
Y50000D01*
X79213Y48287D01*
Y45854D01*
G01X89128Y138127D02*
X87668Y139587D01*
X78367D01*
X76470Y137690D01*
G01X89128Y142064D02*
X87758Y140694D01*
X84977D01*
X79134Y146502D01*
X77500Y146500D01*
G01X87159Y142064D02*
X85936D01*
X77500Y150500D01*
G01X167500Y18000D02*
X165680Y16180D01*
X159746D01*
X156853Y19073D01*
X124413D01*
X122486Y21000D01*
X107000D01*
X105500Y19500D01*
X99500D01*
X98000Y21000D01*
X93200D01*
X86500Y14300D01*
Y7000D01*
X81550Y2050D01*
G01X84500Y35000D02*
X81000D01*
G01D02*
Y38000D01*
X80787Y38212D01*
Y40146D01*
G01X86000Y37500D02*
X83500D01*
X82362Y38638D01*
Y40146D01*
G01X91500Y41500D02*
X89500D01*
X88787Y42213D01*
X82384D01*
G01X85750Y44250D02*
X85287Y43787D01*
X82384D01*
G01X85000Y52000D02*
Y50431D01*
X82362Y47793D01*
Y45854D01*
G01X83500Y159000D02*
X87000D01*
G01X84500Y168272D02*
X82772D01*
X79500Y165000D01*
G01X89500Y168272D02*
Y169500D01*
X88000Y171000D01*
X81500D01*
X79500Y169000D01*
G01X160000Y18500D02*
X158427Y20073D01*
X124827D01*
X122900Y22000D01*
X106074D01*
X104574Y20500D01*
X100500D01*
X99000Y22000D01*
X91000D01*
X88000Y19000D01*
G01X86000Y37500D02*
X88000Y35500D01*
Y35000D01*
G01X91500Y46000D02*
X87500D01*
X85750Y44250D01*
G01X89500Y51000D02*
X87500D01*
X86500Y52000D01*
X85000D01*
G01X91096Y122379D02*
Y118096D01*
X86000Y113000D01*
X84000D01*
G01X87000Y159000D02*
X90500D01*
G01X84500Y164728D02*
Y162000D01*
G01X152810Y153464D02*
X147273Y159000D01*
X145500D01*
X141440Y163060D01*
Y195060D01*
X138500Y198000D01*
X92000D01*
X86000Y192000D01*
G01X91500Y41500D02*
Y35000D01*
G01X95500Y107000D02*
Y115474D01*
X93000Y117974D01*
Y122444D01*
X91096Y124348D01*
G01X97002Y130253D02*
X95748Y129000D01*
X93500D01*
X93000Y129500D01*
Y136656D01*
X90468Y139188D01*
Y140187D01*
G01X90500Y155000D02*
X92943Y152557D01*
Y138249D01*
X95033Y136159D01*
G01X89500Y162000D02*
Y164728D01*
G01X221850Y2050D02*
Y2150D01*
X217500Y6500D01*
X165500D01*
X154927Y17073D01*
X119927D01*
X118000Y19000D01*
X107500D01*
X106500Y18000D01*
X96500D01*
X95500Y19000D01*
G01Y41500D02*
X98500D01*
G01Y45500D02*
X98000Y46000D01*
X95500D01*
G01X98500Y48500D02*
X96000Y51000D01*
X95500D01*
G01X96998Y126297D02*
Y126197D01*
X97002Y126193D01*
Y124348D01*
G01X100939Y130253D02*
X98685Y128000D01*
X95300D01*
X93500Y126200D01*
G01X94000Y155000D02*
X93943Y154943D01*
Y141186D01*
X97002Y138127D01*
G01X96000Y162000D02*
Y162500D01*
X101000Y167500D01*
G01X235607Y17860D02*
X237000Y16467D01*
Y-3000D01*
X231900Y-8100D01*
X113600D01*
X106500Y-1000D01*
Y7100D01*
X101550Y12050D01*
G01X111199Y78925D02*
X108575D01*
X107000Y80500D01*
Y85500D01*
X99500Y93000D01*
G01X141000Y114500D02*
X138000Y111500D01*
X107000D01*
X99500Y119000D01*
G01X141000Y118000D02*
X135500Y112500D01*
X108849D01*
X98970Y122379D01*
G01X100470Y127563D02*
X100468Y127561D01*
Y125845D01*
X98970Y124348D01*
G01X102968Y127500D02*
Y126377D01*
X100939Y124348D01*
G01X100938Y134167D02*
X100939Y134166D01*
Y132222D01*
G01Y144033D02*
Y141129D01*
X100550Y140740D01*
G01X121500Y160500D02*
X118000Y157000D01*
Y155000D01*
X114188Y151189D01*
X107970D01*
X104207Y147426D01*
Y141395D01*
X100939Y138127D01*
G01X100939Y149187D02*
X100939Y146001D01*
G01X102500Y22500D02*
Y22560D01*
X102940Y23000D01*
X123314D01*
X125241Y21073D01*
X160427D01*
X161180Y20320D01*
X191680D01*
X193000Y19000D01*
X219326D01*
G01X104600Y36100D02*
X107900D01*
X109060Y37260D01*
X112169D01*
G01X105500Y64500D02*
X102000D01*
G01X111199Y67105D02*
X108105D01*
X105500Y64500D01*
G01X111199Y80895D02*
X109605D01*
X108500Y82000D01*
Y89000D01*
X105500Y92000D01*
G01X135000Y115500D02*
X133250Y113750D01*
X109263D01*
X104207Y118806D01*
Y123048D01*
X102907Y124348D01*
G01X150153Y149022D02*
X148880Y147750D01*
Y133237D01*
X146970Y131327D01*
Y120470D01*
X146500Y120000D01*
X138500D01*
X136100Y117600D01*
X133800D01*
X131200Y115000D01*
X110488D01*
X105468Y120019D01*
Y124187D01*
X104518Y125138D01*
Y128642D01*
X102907Y130253D01*
G01Y134190D02*
X103876D01*
X104685Y133382D01*
G01X121470Y131690D02*
X118472D01*
X115678Y128897D01*
X106232D01*
X102907Y132222D01*
G01X108813Y136159D02*
X105940D01*
X105468Y135687D01*
G01X121500Y156500D02*
X114737Y149737D01*
X108515D01*
X105399Y146621D01*
Y138651D01*
X102907Y136159D01*
G01Y144033D02*
Y142431D01*
X102500Y142024D01*
G01X103000Y162000D02*
X107500Y166500D01*
Y167500D01*
G01X110500Y92000D02*
Y88500D01*
X114105Y84895D01*
Y83801D01*
G01X141000Y122000D02*
X139000D01*
X136086Y119086D01*
X133171D01*
X130586Y116500D01*
X111463D01*
X106844Y121119D01*
Y122379D01*
G01X106453Y126259D02*
X106901D01*
X108813Y124348D01*
G01X121500Y128000D02*
X121186Y127686D01*
X110182D01*
X108813Y126316D01*
G01X121470Y148690D02*
X119733D01*
X111735Y140692D01*
X108272D01*
X107463Y141502D01*
Y142622D01*
X107472Y142633D01*
Y142692D01*
X108813Y144033D01*
G01X114500Y167600D02*
X111400Y164500D01*
X109000D01*
X106500Y162000D01*
G01X235000Y11000D02*
Y-3586D01*
X231486Y-7100D01*
X122600D01*
X117000Y-1500D01*
Y6500D01*
X111550Y11950D01*
Y12050D01*
G01X116075Y64199D02*
Y61149D01*
X114000Y59074D01*
Y56500D01*
G01X116075Y83801D02*
Y85540D01*
X113807Y87807D01*
G01X144000Y125500D02*
X141000D01*
X136000Y120500D01*
X132500D01*
X129500Y117500D01*
X116315D01*
X114428Y119387D01*
G01X114500Y124500D02*
X115000Y125000D01*
X131500D01*
X134000Y127500D01*
Y130000D01*
G01X110781Y124348D02*
X112449Y122680D01*
X117680D01*
X118000Y123000D01*
X121500D01*
G01X110781Y126316D02*
X110965Y126500D01*
X117500D01*
X118000Y126000D01*
X129500D01*
X131500Y128000D01*
G01X121470Y139690D02*
X120690D01*
X113222Y132222D01*
X110781D01*
G01Y134190D02*
X111971D01*
X112968Y135187D01*
G01X121500Y152500D02*
X120500D01*
X114968Y146968D01*
Y146500D01*
G01X117000Y17000D02*
X118000Y16000D01*
X154500D01*
X158500Y12000D01*
Y6600D01*
X167200Y-2100D01*
X207900D01*
X211850Y1850D01*
Y2050D01*
G01X117000Y59500D02*
X118000Y58500D01*
Y56500D01*
G01X118045Y64199D02*
Y60545D01*
X117000Y59500D01*
G01X117500Y88000D02*
X118045Y87455D01*
Y83801D01*
G01X120015D02*
Y88985D01*
X117000Y92000D01*
X115000D01*
G01Y100500D02*
Y96000D01*
G01X132000Y152500D02*
X130468Y150968D01*
Y143687D01*
X128968Y142187D01*
X120468D01*
X116968Y138687D01*
G01X118500Y160500D02*
Y179500D01*
X116000Y182000D01*
G01X143045Y152742D02*
Y156455D01*
X138000Y161500D01*
Y175500D01*
X140500Y178000D01*
Y194000D01*
X138000Y196500D01*
X120500D01*
X116000Y192000D01*
G01X121550Y12050D02*
X126500Y7100D01*
Y-500D01*
X132100Y-6100D01*
X230900D01*
X233180Y-3820D01*
Y18007D01*
X238793Y23620D01*
X239500D01*
G01X121000Y19000D02*
X121927Y18073D01*
X156027D01*
X159000Y15100D01*
X167300D01*
X171100Y18900D01*
X189600D01*
X190000Y18500D01*
G01X122000Y52500D02*
Y49010D01*
X120831Y47840D01*
Y44740D01*
G01X120500Y59500D02*
X122000Y58000D01*
Y56500D01*
G01X121985Y64199D02*
Y60985D01*
X120500Y59500D01*
G01X123000Y93000D02*
Y90780D01*
X121985Y89765D01*
Y83801D01*
G01X145000Y98335D02*
X130665D01*
X122000Y107000D01*
G01X126000Y56500D02*
X125925Y56575D01*
Y64199D01*
G01X130000Y56500D02*
X127895Y58605D01*
Y64199D01*
G01X123955Y88000D02*
Y83801D01*
G01X138500Y93000D02*
X135000D01*
X127895Y85895D01*
Y83801D01*
G01X130500Y93000D02*
X125925Y88425D01*
Y83801D01*
G01X155500Y177058D02*
X154309Y175867D01*
Y159191D01*
X156210Y157290D01*
Y150189D01*
X151820Y145799D01*
Y131934D01*
X149790Y129904D01*
Y98990D01*
X147200Y96400D01*
X128600D01*
X127400Y95200D01*
Y92400D01*
X123955Y88955D01*
Y88000D01*
G01X125500Y123000D02*
X131500D01*
G01X125500Y128000D02*
X128450D01*
G01X132000Y156500D02*
X128000Y152500D01*
X125500D01*
G01X128500Y160874D02*
Y157000D01*
X128000Y156500D01*
X125500D01*
G01Y160500D02*
Y161305D01*
X127000Y162805D01*
G01X131550Y12050D02*
X136000Y7600D01*
Y500D01*
X141600Y-5100D01*
X230400D01*
X232180Y-3320D01*
Y20606D01*
X233074Y21500D01*
G01X139000Y61500D02*
X137507D01*
X131902Y67105D01*
X130801D01*
G01X139000Y65500D02*
X135425Y69075D01*
X130801D01*
G01X139000Y69500D02*
X137455Y71045D01*
X130801D01*
G01X139000Y73000D02*
X137015Y74985D01*
X130801D01*
G01X140500Y78300D02*
X138250D01*
X138150Y78200D01*
X138050D01*
X136805Y76955D01*
X130801D01*
G01X139000Y83600D02*
X137100D01*
X132425Y78925D01*
X130801D01*
G01Y80895D02*
X132395D01*
X139000Y87500D01*
G01X144000Y146400D02*
X145820Y144580D01*
Y134420D01*
X138470Y127070D01*
X135570D01*
X131500Y123000D01*
G01X140520Y146400D02*
Y150020D01*
X141525Y151025D01*
Y155998D01*
X139023Y158500D01*
X133000D01*
X132000Y157500D01*
Y156500D01*
G01X132500Y160500D02*
Y176500D01*
X131500Y177500D01*
Y187500D01*
X136000Y192000D01*
G01X138305Y154000D02*
X136805Y152500D01*
X136000D01*
G01X136500Y160500D02*
X136000Y161000D01*
Y182000D01*
G01X162500Y-3000D02*
X149000D01*
X146500Y-500D01*
Y7100D01*
X141550Y12050D01*
G01X139000Y87500D02*
Y89000D01*
X139500Y89500D01*
X147400D01*
X148500Y88400D01*
Y78500D01*
X151621Y75379D01*
X169121D01*
X171000Y73500D01*
G01X138000Y130000D02*
X139893D01*
X143470Y133577D01*
Y143030D01*
X142040Y144460D01*
Y148040D01*
X145425Y151425D01*
Y152742D01*
G01X139520Y171250D02*
Y163480D01*
X146980Y156020D01*
Y134166D01*
X144400Y131586D01*
Y129900D01*
X144000Y129500D01*
G01X143000Y65500D02*
X145950D01*
G01X143000Y69500D02*
X145950D01*
G01X143000Y73000D02*
X145450D01*
X145950Y73500D01*
G01X146100Y84400D02*
Y76400D01*
X147770Y74730D01*
Y70730D01*
X153750Y64750D01*
X160780D01*
G01X143000Y83600D02*
Y80500D01*
G01X152640Y79000D02*
X149500Y82140D01*
Y90500D01*
X147000Y93000D01*
X144500D01*
G01X145000Y102665D02*
Y106500D01*
G01X147500Y179500D02*
X152645Y174355D01*
Y159526D01*
X155270Y156901D01*
Y150578D01*
X150820Y146129D01*
Y132348D01*
X148850Y130378D01*
Y115850D01*
X147500Y114500D01*
X145000D01*
G01Y118000D02*
X147000D01*
X147910Y118910D01*
Y130853D01*
X149820Y132763D01*
Y146458D01*
X154330Y150968D01*
Y156240D01*
X147500Y163069D01*
Y165080D01*
X144020Y168560D01*
G01X148510Y151980D02*
X147940Y151410D01*
Y133711D01*
X145970Y131741D01*
Y122970D01*
X145000Y122000D01*
G01X143571Y163118D02*
X142500Y164189D01*
Y175500D01*
X145500Y178500D01*
Y197180D01*
X143500Y199180D01*
G01X149000D02*
X147000Y197180D01*
Y188500D01*
X148500Y187000D01*
X154000D01*
X156560Y184440D01*
Y178440D01*
X157500Y177500D01*
Y173500D01*
X155500Y171500D01*
Y160500D01*
X157150Y158850D01*
Y149800D01*
X153427Y146077D01*
Y138000D01*
G01X151550Y12050D02*
X151636D01*
X166786Y-3100D01*
X229571D01*
X230180Y-2491D01*
Y23180D01*
X231500Y24500D01*
X236500D01*
X238080Y26080D01*
X241005D01*
X241905Y25180D01*
X248000D01*
G01X154133Y73559D02*
X161827D01*
G01X155000Y145500D02*
X154947Y145447D01*
Y133777D01*
X152880Y131710D01*
Y131664D01*
X150730Y129514D01*
Y83484D01*
X157714Y76500D01*
X169000D01*
X171000Y78500D01*
G01X162500D02*
X160680Y80320D01*
X157180D01*
X152610Y84890D01*
Y128736D01*
X154880Y131006D01*
X156827Y132953D01*
Y143844D01*
X159250Y146267D01*
Y165048D01*
X160500Y166298D01*
G01X159500Y78500D02*
X157500D01*
X151670Y84330D01*
Y129125D01*
X153880Y131335D01*
Y131380D01*
X155887Y133387D01*
Y144233D01*
X158310Y146656D01*
Y163622D01*
X157500Y164432D01*
G01X171750Y192000D02*
Y191850D01*
X166860Y186960D01*
Y176428D01*
X162380Y171948D01*
Y164500D01*
X160190Y162310D01*
Y145877D01*
X157767Y143454D01*
Y132563D01*
X153550Y128346D01*
Y85950D01*
X158170Y81330D01*
X171670D01*
X174000Y79000D01*
X177000D01*
G01X163000Y154660D02*
X161130Y152790D01*
Y145488D01*
X159000Y143358D01*
Y132467D01*
X154490Y127957D01*
Y90510D01*
X156350Y88650D01*
Y87500D01*
G01X151750Y192000D02*
X157500Y186250D01*
Y179500D01*
X159500Y177500D01*
X164500D01*
X165750Y178750D01*
Y187750D01*
X167500Y189500D01*
Y195000D01*
X169000Y196500D01*
X187586D01*
X190586Y199500D01*
X228932D01*
X231992Y196440D01*
X234940D01*
X236120Y197620D01*
X259380D01*
X262000Y195000D01*
Y171108D01*
X260800Y169908D01*
Y148200D01*
X264819Y144181D01*
Y131161D01*
X263550Y129892D01*
Y128971D01*
G01X305000Y80000D02*
Y78000D01*
X299500Y72500D01*
Y61000D01*
X292000Y53500D01*
X277954D01*
X273000Y58454D01*
Y60000D01*
X272500Y60500D01*
X270140D01*
X266545Y56905D01*
X214405D01*
X203500Y46000D01*
X161000D01*
X159500Y47500D01*
G01X159000Y83500D02*
X164500D01*
G01X156200Y127000D02*
Y126680D01*
X156400Y126480D01*
Y98300D01*
X158650Y96050D01*
G01X163000Y150680D02*
X162160Y149840D01*
Y145189D01*
X160020Y143048D01*
Y130479D01*
X157820Y128279D01*
Y100680D01*
X158910Y99590D01*
X179832D01*
X180272Y100030D01*
Y101441D01*
G01X163878Y145000D02*
X163386D01*
X160960Y142574D01*
Y130089D01*
X158760Y127889D01*
Y101240D01*
X159470Y100530D01*
X164030D01*
X166000Y102500D01*
G01X251500Y25620D02*
X249380Y23500D01*
X242171D01*
X240531Y25140D01*
X238640D01*
X237000Y23500D01*
X232500D01*
X231180Y22180D01*
Y-2906D01*
X229986Y-4100D01*
X163600D01*
X162500Y-3000D01*
G01X161827Y73559D02*
X168000D01*
G01X166000Y110000D02*
X162500Y113500D01*
Y119000D01*
G01X166000Y157900D02*
X166280Y157620D01*
Y144280D01*
X165100Y143100D01*
X162900D01*
X161900Y142100D01*
Y129700D01*
X159700Y127500D01*
Y119620D01*
X160320Y119000D01*
X162500D01*
G01X164500Y134154D02*
Y129500D01*
X162500Y127500D01*
Y124000D01*
G01X162514Y158840D02*
X165340Y156014D01*
Y146562D01*
X163878Y145100D01*
Y145000D01*
G01X161750Y182000D02*
Y185750D01*
X166000Y190000D01*
Y195500D01*
X168500Y198000D01*
X187671D01*
X190531Y200860D01*
X284140D01*
X288880Y196120D01*
X307880D01*
X310500Y193500D01*
Y160000D01*
X314004Y156496D01*
Y152011D01*
G01X415800Y113500D02*
X416520Y114220D01*
Y126980D01*
X409000Y134500D01*
Y158128D01*
X401000Y166128D01*
Y173500D01*
X402500Y175000D01*
Y200000D01*
X399452Y203048D01*
X167548D01*
X161750Y197250D01*
Y192000D01*
G01X171693Y83661D02*
X164661D01*
X164500Y83500D01*
G01X168000Y86000D02*
X168220Y86221D01*
X171693D01*
G01Y88780D02*
X168220D01*
X168000Y89000D01*
G01X166000Y102500D02*
X167000D01*
X168059Y101441D01*
X171728D01*
G01X166000Y106500D02*
Y110000D01*
G01Y106500D02*
X166059Y106559D01*
X171728D01*
G01Y101441D02*
X173978D01*
X174500Y101963D01*
Y107098D01*
X167500Y114098D01*
Y119000D01*
G01Y124000D02*
Y129500D01*
X168000Y130000D01*
X176766D01*
X178500Y131734D01*
Y134154D01*
G01X164500D02*
X167346D01*
X167500Y134000D01*
X169500D01*
G01X168000Y145000D02*
X169000Y146000D01*
Y170897D01*
X168977Y170920D01*
G01X166000Y162835D02*
Y157900D01*
G01X165120Y170920D02*
X166000Y170040D01*
Y167165D01*
G01X178448Y157946D02*
X178500Y157999D01*
Y166000D01*
X167800Y176700D01*
Y185300D01*
X169500Y187000D01*
X177000D01*
X181750Y191750D01*
Y192000D01*
G01X180272Y101441D02*
X176059D01*
X175500Y102000D01*
Y108500D01*
X172500Y111500D01*
Y119000D01*
G01X169500Y134000D02*
X173000D01*
G01X171000Y146500D02*
X173000Y144500D01*
Y138000D01*
G01X211350Y156500D02*
Y160850D01*
X215740Y165240D01*
Y194760D01*
X214000Y196500D01*
X198500D01*
X197000Y195000D01*
Y181100D01*
X193400Y177500D01*
X176250D01*
X171750Y182000D01*
G01X194676Y75574D02*
X192750Y77500D01*
X189007D01*
X187107Y75600D01*
X185546D01*
X184286Y76860D01*
X178360D01*
X176500Y75000D01*
G01X174500Y146500D02*
X175500Y145500D01*
Y134834D01*
X176180Y134154D01*
X178500D01*
G01X177500Y119000D02*
Y104500D01*
X178000Y104000D01*
X180272D01*
G01X186000Y101500D02*
X184000D01*
X181500Y104000D01*
X180272D01*
G01X186000Y105000D02*
X184000D01*
X182441Y106559D01*
X180272D01*
G01X182500Y119000D02*
Y114650D01*
X180272Y112422D01*
Y106559D01*
G01X178000Y146500D02*
X184000D01*
X186500Y144000D01*
Y134720D01*
G01X181000Y150329D02*
X190171Y159500D01*
X197000D01*
X199500Y157000D01*
Y131000D01*
X201442Y129058D01*
Y87058D01*
X206110Y82390D01*
X209582D01*
X211843Y80130D01*
X228630D01*
X230000Y81500D01*
X246500D01*
G01X191180Y123442D02*
Y114320D01*
X194442Y111058D01*
Y85562D01*
X186300Y77420D01*
G01X190140Y107280D02*
X191070Y106350D01*
Y85070D01*
X189527Y83527D01*
X184973D01*
X184839Y83661D01*
X183307D01*
G01X189250Y101000D02*
X190020Y100230D01*
Y92520D01*
X189528Y92028D01*
X185628D01*
X184939Y91339D01*
X183307D01*
G01X190481Y147481D02*
X188020Y145020D01*
Y103020D01*
X186500Y101500D01*
X186000D01*
G01X182500Y119000D02*
X185000D01*
X186000Y120000D01*
Y130000D01*
X186500Y130500D01*
Y134720D01*
G01X183500Y135000D02*
Y130500D01*
X182500Y129500D01*
Y124000D01*
G01X247500Y68500D02*
X245750Y66750D01*
X205750D01*
X205000Y67500D01*
X199100D01*
X198100Y66500D01*
X195000D01*
X193500Y68000D01*
Y74000D01*
X192500Y75000D01*
X190500D01*
G01X193200Y149400D02*
Y146700D01*
X189260Y142760D01*
Y113740D01*
X192800Y110200D01*
Y100940D01*
G01X246844Y80500D02*
X230500D01*
X229130Y79130D01*
X211428D01*
X209168Y81390D01*
X205610D01*
X200442Y86558D01*
Y128058D01*
X198500Y130000D01*
Y156000D01*
X196500Y158000D01*
X191500D01*
X187880Y154380D01*
Y152440D01*
G01X191750Y182000D02*
X186750Y187000D01*
Y193750D01*
X191500Y198500D01*
X216000D01*
X217880Y196620D01*
Y154380D01*
X213000Y149500D01*
Y122500D01*
X209880Y119380D01*
Y103020D01*
X211209Y101691D01*
G01X186500Y199720D02*
X187220D01*
X189360Y201860D01*
X285140D01*
X289880Y197120D01*
X309380D01*
X311500Y195000D01*
Y162119D01*
X318034Y155585D01*
Y143466D01*
X320320Y141180D01*
Y111003D01*
X315017Y105700D01*
X303457D01*
X296992Y99235D01*
G01X194676Y75574D02*
X194930Y75320D01*
Y68570D01*
X195820Y67680D01*
X197504D01*
X198504Y68680D01*
X206320D01*
X207250Y67750D01*
X244459D01*
X245179Y68470D01*
G01X193000Y115700D02*
X195442Y113258D01*
Y79472D01*
X199350Y75564D01*
Y72500D01*
G01X191500Y135080D02*
Y127000D01*
X196442Y122058D01*
Y80632D01*
X204574Y72500D01*
X204652D01*
G01X194500Y135000D02*
Y126500D01*
X197442Y123558D01*
Y81046D01*
X204168Y74320D01*
X205432D01*
X207252Y72500D01*
G01X250450Y82904D02*
Y82692D01*
X247258Y79500D01*
X231000D01*
X229630Y78130D01*
X211014D01*
X208754Y80390D01*
X205110D01*
X199442Y86058D01*
Y127058D01*
X197500Y129000D01*
Y155500D01*
X196400Y156600D01*
X194100D01*
X192250Y154750D01*
G01X191750Y192000D02*
X197250Y197500D01*
X215586D01*
X216750Y196336D01*
Y155250D01*
X212000Y150500D01*
Y123000D01*
X208880Y119880D01*
Y101729D01*
X211009Y99600D01*
X213700D01*
X214600Y100500D01*
G01X196750Y69500D02*
X196930Y69680D01*
X206734D01*
X207664Y68750D01*
X242250D01*
X247950Y74450D01*
G01X195500Y154660D02*
X196500Y153660D01*
Y127500D01*
X198442Y125558D01*
Y81460D01*
X204583Y75320D01*
X208824D01*
X211574Y72570D01*
X234930D01*
G01X201852Y133271D02*
X200680Y134443D01*
Y176020D01*
X197450Y179250D01*
G01X265669Y80369D02*
Y77998D01*
X258141Y70470D01*
X254670D01*
X249950Y65750D01*
X204250D01*
X204000Y65500D01*
G01X199963Y65680D02*
X202793Y62850D01*
X205850D01*
X207750Y64750D01*
X251350D01*
X254402Y67802D01*
X254498D01*
G01X202000Y72500D02*
X203820Y70680D01*
X207149D01*
X208079Y69750D01*
X238050D01*
X239800Y71500D01*
G01X201852Y133271D02*
X202442Y132680D01*
Y90058D01*
X206470Y86030D01*
X208780D01*
X212680Y82130D01*
X224216D01*
X225586Y83500D01*
X245000D01*
X245750Y84250D01*
G01X204320Y131160D02*
X204160D01*
X203442Y130442D01*
Y90558D01*
X206970Y87030D01*
X209195D01*
X213094Y83130D01*
X223801D01*
X225171Y84500D01*
X244032D01*
X246532Y87000D01*
G01X204320Y131160D02*
Y144680D01*
X201620Y147380D01*
Y168620D01*
X206500Y173500D01*
Y186750D01*
X211750Y192000D01*
G01X206030Y167529D02*
Y166859D01*
X203500Y164330D01*
Y151000D01*
X207500Y147000D01*
Y123200D01*
X205442Y121142D01*
Y97358D01*
X215670Y87130D01*
X222144D01*
X223514Y88500D01*
X241909D01*
X245566Y92157D01*
X247752D01*
G01X203140Y166119D02*
X202560Y165539D01*
Y148940D01*
X206140Y145360D01*
Y123440D01*
X204442Y121742D01*
Y96658D01*
X214970Y86130D01*
X222558D01*
X223928Y87500D01*
X242500D01*
X246087Y91087D01*
X246536D01*
G01X208000Y78570D02*
X208385D01*
X209825Y77130D01*
X230130D01*
X231400Y78400D01*
X242100D01*
X242150Y78350D01*
G01X247748Y77400D02*
X231814D01*
X230544Y76130D01*
X209410D01*
X208790Y76750D01*
X206220D01*
X204500Y78470D01*
G01X208026Y84210D02*
X209177D01*
X212257Y81130D01*
X224630D01*
X226000Y82500D01*
X245968D01*
X246634Y83166D01*
G01X208000Y88850D02*
X208789D01*
X213509Y84130D01*
X223387D01*
X224757Y85500D01*
X243500D01*
X245900Y87900D01*
G01X205900Y91500D02*
X207924D01*
X214294Y85130D01*
X222973D01*
X224343Y86500D01*
X243151D01*
X245851Y89200D01*
G01X214220Y177725D02*
Y167220D01*
X208500Y161500D01*
Y122786D01*
X206442Y120728D01*
Y99958D01*
X210420Y95980D01*
Y95928D01*
G01X215205Y160933D02*
X215100Y160828D01*
Y155930D01*
X211000Y151830D01*
Y123871D01*
X207442Y120314D01*
Y101196D01*
X212400Y96239D01*
Y94800D01*
X213400Y93800D01*
X214828D01*
X216000Y94972D01*
Y97052D01*
G01X211750Y182000D02*
Y169250D01*
X205000Y162500D01*
Y152916D01*
X205020Y152896D01*
Y152800D01*
G01X292000Y29228D02*
Y26500D01*
X291000Y25500D01*
X281000D01*
X276000Y20500D01*
X259500D01*
X252860Y27140D01*
X210640D01*
X209000Y25500D01*
G01X210000Y71570D02*
X210820Y70750D01*
X236750D01*
X237500Y71500D01*
G01X210420Y95928D02*
Y94080D01*
X214000Y90500D01*
X241000D01*
X244527Y94027D01*
G01X244500Y104769D02*
X244233Y104502D01*
X212122D01*
X211960Y104340D01*
G01X217000Y149280D02*
X213940Y146220D01*
Y120854D01*
X210880Y117794D01*
Y105420D01*
X211960Y104340D01*
G01X212880Y106380D02*
X212560D01*
X211880Y107060D01*
Y117380D01*
X214880Y120380D01*
Y142880D01*
X219020Y147020D01*
Y167520D01*
X225900Y174400D01*
Y189220D01*
X228180Y191500D01*
G01X228360Y-1280D02*
Y14640D01*
X220033Y22967D01*
X216250D01*
G01X214630Y92161D02*
X215291Y91500D01*
X240454D01*
X243978Y95024D01*
X245143D01*
G01X216000Y97052D02*
Y97967D01*
X220534Y102500D01*
X244500D01*
G01X214169Y95432D02*
X214380Y95643D01*
Y97761D01*
X220119Y103500D01*
X244499D01*
X244500Y103501D01*
G01X229980Y187054D02*
X229880D01*
X228000Y185174D01*
Y173000D01*
X220500Y165500D01*
Y124586D01*
X213500Y117586D01*
Y111000D01*
G01X218630Y88750D02*
X219380Y89500D01*
X241500D01*
X245207Y93207D01*
X246111D01*
G01X218140Y93500D02*
X219140Y92500D01*
X240182D01*
X243632Y95950D01*
X244796D01*
G01X220500Y96136D02*
X224864Y100500D01*
X244500D01*
G01X218028Y96097D02*
X223430Y101500D01*
X244500D01*
G01Y96800D02*
X242800D01*
X239700Y93700D01*
X221800D01*
X221380Y94120D01*
G01X228000Y114000D02*
X227128D01*
X224628Y111500D01*
X219433D01*
X218933Y112000D01*
Y114158D01*
G01X225378Y96079D02*
X226299Y97000D01*
X229308D01*
X230608Y95700D01*
X238200D01*
X241100Y98600D01*
X244500D01*
G01X223000Y96100D02*
X226400Y99500D01*
X244500D01*
G01X228000Y110500D02*
X226000D01*
X224343Y108842D01*
X223067D01*
G01X244500Y110000D02*
X244414D01*
X241914Y112500D01*
X237701D01*
X229201Y121000D01*
X226500D01*
X225620Y120120D01*
X224829D01*
G01X229820Y179606D02*
X229000Y178786D01*
Y167000D01*
X224880Y162880D01*
Y136260D01*
X223620Y135000D01*
Y121329D01*
X224829Y120120D01*
G01X223260Y151160D02*
X222500Y150400D01*
Y119500D01*
X223500Y118500D01*
X225500D01*
X227000Y120000D01*
X228786D01*
X237286Y111500D01*
X241500D01*
X244000Y109000D01*
X244500D01*
G01X225240Y124500D02*
X227740Y122000D01*
X229530D01*
X238030Y113500D01*
X242500D01*
X244500Y111500D01*
G01X225240Y124500D02*
X225820Y125080D01*
Y159820D01*
X231640Y165640D01*
Y180360D01*
X230174Y181826D01*
Y184674D01*
X232000Y186500D01*
Y192061D01*
X233439Y193500D01*
G01X223237Y162720D02*
Y151183D01*
X223260Y151160D01*
G01X227443Y95320D02*
X227529D01*
X228149Y94700D01*
X239200D01*
X242200Y97700D01*
X244500D01*
G01X228000Y110500D02*
X229000D01*
X230000Y111500D01*
X231086D01*
X235649Y106937D01*
X244500D01*
G01X228000Y114000D02*
X228500D01*
X230000Y112500D01*
X231500D01*
X236063Y107937D01*
X244915D01*
G01X244500Y114500D02*
X243000Y116000D01*
X238396D01*
X228460Y125936D01*
Y156460D01*
X237308Y165308D01*
Y169030D01*
G01X244500Y112999D02*
X242999Y114500D01*
X238359D01*
X229819Y123040D01*
X229064D01*
X227552Y124552D01*
G01D02*
X227100Y125004D01*
Y158600D01*
X232640Y164140D01*
Y182923D01*
X231994Y183569D01*
G01X229980Y149280D02*
Y125778D01*
X234117Y121641D01*
X235046D01*
G01X228500Y197500D02*
X230500Y195500D01*
X236000D01*
X237180Y196680D01*
X258906D01*
X261000Y194586D01*
Y171522D01*
X259800Y170322D01*
Y162800D01*
X259380Y162380D01*
Y130901D01*
X260310Y129972D01*
Y129811D01*
G01X234930Y72570D02*
X236040Y73680D01*
X243180D01*
X245900Y76400D01*
X254900D01*
X259561Y81061D01*
G01X232040Y106570D02*
X232673Y105937D01*
X244500D01*
G01X235047Y123841D02*
X235442D01*
X239400Y119883D01*
X242117D01*
X244500Y117500D01*
G01X235046Y121641D02*
X235047Y121640D01*
Y120953D01*
X238957Y117043D01*
X239806D01*
X239849Y117000D01*
X243500D01*
X244500Y116000D01*
G01X234906Y186400D02*
X234910Y186396D01*
Y176090D01*
X238828Y172172D01*
Y164828D01*
X231500Y157500D01*
Y126500D01*
X233000Y125000D01*
X233049D01*
G01X238287Y124179D02*
Y125056D01*
X232500Y130843D01*
Y156000D01*
X239768Y163268D01*
Y175232D01*
X236847Y178153D01*
X236630D01*
G01X234120Y132620D02*
Y130637D01*
X246500Y118257D01*
Y117032D01*
X247752Y115780D01*
G01X234120Y132620D02*
Y155620D01*
X240708Y162208D01*
Y176024D01*
X238550Y178182D01*
Y180950D01*
X236726Y182774D01*
Y194226D01*
X238240Y195740D01*
X252760D01*
X256500Y192000D01*
G01X237308Y169030D02*
Y171692D01*
X233814Y175186D01*
Y184686D01*
X233000Y185500D01*
Y187914D01*
X234686Y189600D01*
G01X232967Y198160D02*
X233367Y198560D01*
X267140D01*
X271400Y194300D01*
Y189400D01*
X273000Y187800D01*
X282300D01*
X286500Y192000D01*
G01X239494Y129304D02*
X239582Y129216D01*
Y128004D01*
X247507Y120079D01*
G01X247752Y117748D02*
Y118419D01*
X236500Y129671D01*
Y132705D01*
G01X239494Y129304D02*
X239582Y129392D01*
Y157082D01*
X242588Y160088D01*
Y176803D01*
X240550Y178841D01*
Y182450D01*
X239640Y183360D01*
Y185389D01*
G01X246500Y192000D02*
X243800Y194700D01*
X238900D01*
X237726Y193526D01*
Y183474D01*
X239550Y181650D01*
Y178512D01*
X241648Y176414D01*
Y160648D01*
X236499Y155498D01*
Y132707D01*
X236500Y132705D01*
G01X241542Y128500D02*
Y157628D01*
X243528Y159614D01*
Y177193D01*
X241550Y179171D01*
Y186053D01*
X239546Y188057D01*
Y192411D01*
G01X242000Y71500D02*
X242500D01*
X246430Y75430D01*
X255544D01*
X260461Y80347D01*
G01X244000Y128500D02*
Y126500D01*
X249500Y121000D01*
G01X244000Y128500D02*
Y158000D01*
X244468Y158468D01*
Y177582D01*
X242550Y179500D01*
Y186550D01*
X242550Y187627D01*
X242143Y188033D01*
G01X241542Y128500D02*
Y127458D01*
X248500Y120500D01*
G01X245179Y68470D02*
X250179Y73470D01*
X256470D01*
X262569Y79569D01*
Y81833D01*
G01X247500Y68500D02*
X251470Y72470D01*
X257313D01*
X263669Y78826D01*
Y81181D01*
G01X247281Y142699D02*
X245526Y140944D01*
Y138982D01*
X245561Y138947D01*
Y129302D01*
X246000Y128863D01*
Y126007D01*
X251007Y121000D01*
G01X247181Y129973D02*
Y126319D01*
X252500Y121000D01*
G01X247500Y145500D02*
X248893Y144107D01*
Y126021D01*
X253914Y121000D01*
X254000D01*
G01X247500Y145500D02*
X246000D01*
X245200Y146300D01*
Y156700D01*
X245988Y157488D01*
Y173613D01*
G01X249000Y157389D02*
X247500Y155889D01*
Y149500D01*
G01X249320Y173440D02*
Y175680D01*
X246500Y178500D01*
Y182000D01*
G01X249800Y68500D02*
X252770Y71470D01*
X257727D01*
X264669Y78412D01*
Y80566D01*
X264694Y80592D01*
G01X249307Y152320D02*
X249880Y151748D01*
Y128019D01*
X250320Y127579D01*
X250421D01*
G01X253167Y167868D02*
X251000Y165701D01*
Y129569D01*
X254922Y125648D01*
X254922Y121672D01*
X255594Y121000D01*
G01X255524Y166348D02*
X252100Y162924D01*
Y129884D01*
X255922Y126062D01*
Y122578D01*
X256594Y121906D01*
G01X255480Y151380D02*
Y142480D01*
X253040Y140040D01*
Y130358D01*
X257594Y125804D01*
Y117748D01*
G01X257000Y-3000D02*
Y5500D01*
X259000Y7500D01*
X267500D01*
X272000Y12000D01*
Y12050D01*
G01X268569Y83431D02*
X269000Y83000D01*
Y76623D01*
X257578Y65202D01*
Y65080D01*
X256999Y64500D01*
G01X268000Y78556D02*
Y77500D01*
X258350Y67850D01*
X256950D01*
G01X254498Y67802D02*
X256165Y69470D01*
X258556D01*
X267000Y77914D01*
G01X255626Y98063D02*
Y96100D01*
G01X258700Y121000D02*
Y126300D01*
X253980Y131020D01*
Y139480D01*
X257000Y142500D01*
Y157862D01*
X253781Y161081D01*
G01X259700Y121000D02*
Y126714D01*
X255500Y130914D01*
Y131973D01*
G01X258280Y163600D02*
Y134780D01*
X255500Y132000D01*
Y131973D01*
G01X259480Y172500D02*
X256500Y175480D01*
Y182000D01*
G01X262000Y2050D02*
X267050Y-3000D01*
X285000D01*
X287500Y-500D01*
Y16000D01*
X289000Y17500D01*
X294500D01*
X313000Y36000D01*
X314000D01*
G01X262000Y12050D02*
X267450Y17500D01*
X275000D01*
X281500Y24000D01*
X291500D01*
X304500Y37000D01*
Y40500D01*
X306000Y42000D01*
Y71500D01*
X309500Y75000D01*
X319500D01*
X329180Y84680D01*
Y123820D01*
X327500Y125500D01*
Y134400D01*
G01X270000Y84000D02*
Y75332D01*
X259199Y64531D01*
G01X263500Y120500D02*
Y126671D01*
X270880Y134051D01*
Y139637D01*
X270980Y139737D01*
G01X261930Y120430D02*
Y130643D01*
X261000Y131573D01*
Y131900D01*
G01X257760Y131942D02*
Y130069D01*
X260700Y127129D01*
Y120700D01*
G01X274463Y83373D02*
X274723Y83113D01*
Y70723D01*
X268500Y64500D01*
Y62000D01*
X266500Y60000D01*
G01X272500Y168480D02*
Y166500D01*
X273000Y166000D01*
Y156000D01*
X271500Y154500D01*
Y145000D01*
X272500Y144000D01*
Y134166D01*
X264500Y126166D01*
Y120000D01*
G01X265500Y123500D02*
Y125752D01*
X273500Y133752D01*
Y144500D01*
X272500Y145500D01*
Y154150D01*
X275500Y157150D01*
Y168480D01*
G01X270000Y126500D02*
X267500Y124000D01*
Y119000D01*
G01X271500Y128500D02*
X269678D01*
X266500Y125322D01*
Y119226D01*
G01X262427Y143280D02*
Y132604D01*
X263199Y131832D01*
G01X264500Y147500D02*
X266534Y145466D01*
Y134300D01*
X266834Y134000D01*
G01X268260Y160370D02*
X264500Y156610D01*
Y151500D01*
G01X268000D02*
Y156492D01*
X270500Y158992D01*
Y162000D01*
X269500Y163000D01*
X263750D01*
X263140Y162390D01*
Y160370D01*
G01X271000Y63500D02*
Y65500D01*
X275723Y70223D01*
Y83383D01*
X275499Y83607D01*
G01X274940Y129534D02*
Y127332D01*
X269500Y121892D01*
Y117842D01*
X269406Y117748D01*
G01X270500Y121562D02*
X276480Y127542D01*
Y138262D01*
X277249Y139031D01*
G01X268500Y120500D02*
Y122221D01*
X273320Y127041D01*
Y130820D01*
X274500Y132000D01*
Y154000D01*
X274600Y154100D01*
G01X269500Y141400D02*
Y141900D01*
X269637Y142037D01*
Y145863D01*
X268000Y147500D01*
G01X269554Y155140D02*
Y155263D01*
X271500Y157209D01*
Y163000D01*
X268260Y166240D01*
Y168630D01*
G01X309500Y42500D02*
X307250Y40250D01*
Y35950D01*
X293300Y22000D01*
X285000D01*
X277000Y14000D01*
Y7050D01*
X272000Y2050D01*
G01Y12050D02*
X282950Y23000D01*
X292400D01*
X305875Y36475D01*
Y40461D01*
X307500Y42086D01*
Y50500D01*
X308500Y51500D01*
Y67914D01*
X311586Y71000D01*
X316914D01*
X333040Y87126D01*
Y124374D01*
X330680Y126734D01*
Y140406D01*
X328334Y142751D01*
Y153566D01*
X323640Y158260D01*
Y168902D01*
G01X276491Y68522D02*
X277500Y69531D01*
Y74900D01*
X277600Y75000D01*
Y75489D01*
G01X283207Y92550D02*
X282500Y93257D01*
G01X283500Y94250D02*
X282251D01*
G01X325464Y112680D02*
Y103964D01*
X322500Y101000D01*
X304500D01*
X299081Y95581D01*
X282500D01*
G01X282431Y101249D02*
X296177D01*
X302628Y107700D01*
X314188D01*
X317500Y111012D01*
Y134671D01*
X305500Y146671D01*
Y151500D01*
G01Y109220D02*
X305220D01*
X304700Y108700D01*
X301900D01*
X297950Y104750D01*
X289051D01*
X286643Y102342D01*
G01X307656Y110220D02*
X306956Y110920D01*
X302420D01*
X297250Y105750D01*
X288550D01*
X286106Y103306D01*
G01X308818Y119473D02*
X307091Y121200D01*
X301376D01*
X295516Y115340D01*
X286754D01*
X282500Y111086D01*
G01X305818Y119473D02*
X301153D01*
X296020Y114340D01*
X287256D01*
X282414Y109499D01*
G01X312000Y119560D02*
X309160Y122400D01*
X301162D01*
X295102Y116340D01*
X286340D01*
X282500Y112500D01*
G01X282579Y116491D02*
X283000Y116912D01*
Y118414D01*
X286566Y121980D01*
X293980D01*
X298041Y126041D01*
Y140725D01*
X298006Y140760D01*
G01X271913Y121646D02*
X278000Y127733D01*
Y133774D01*
G01X280000Y134774D02*
Y128403D01*
X272520Y120923D01*
Y120570D01*
G01X289648Y123620D02*
X286620D01*
X281852Y118852D01*
G01X291000Y179000D02*
X283620Y171620D01*
Y129364D01*
X274940Y120684D01*
G01X273450Y119450D02*
X273520Y119520D01*
Y120594D01*
X281806Y128881D01*
Y136100D01*
X281272Y136634D01*
G01X275500Y119915D02*
X284560Y128975D01*
Y155880D01*
X288000Y159320D01*
G01X280500Y75500D02*
Y75000D01*
X278500Y73000D01*
Y69000D01*
X278079Y68579D01*
Y62500D01*
G01X277600Y75489D02*
Y82900D01*
X277500Y83000D01*
G01X284500Y75500D02*
X283043Y76957D01*
Y80957D01*
X278852Y85148D01*
Y85856D01*
X279248Y86252D01*
G01X280500Y75500D02*
X282043Y77043D01*
Y80543D01*
X277848Y84738D01*
Y85684D01*
X277280Y86252D01*
G01Y88220D02*
X277479D01*
X279448Y90189D01*
G01X320660Y104160D02*
X320271D01*
X318991Y102880D01*
X303466D01*
X297967Y97381D01*
X282734D01*
G01X282500Y96481D02*
X298481D01*
X303940Y101940D01*
X321440D01*
X323226Y103726D01*
Y104200D01*
G01X282500Y98335D02*
X297506D01*
X302992Y103820D01*
X316873D01*
X317453Y104400D01*
X317859D01*
G01X296295Y100185D02*
X296528D01*
X303043Y106700D01*
X314603D01*
X319000Y111097D01*
Y135171D01*
X314004Y140167D01*
Y152011D01*
G01X308000Y115100D02*
X306640Y113740D01*
X300240D01*
X297840Y111340D01*
X288499D01*
X283096Y105937D01*
X282500D01*
G01X313244Y110320D02*
X310764Y112800D01*
X300900D01*
X295850Y107750D01*
X287150D01*
X284337Y104937D01*
X282500D01*
G01X310500Y110320D02*
X308960Y111860D01*
X301749D01*
X296639Y106750D01*
X287750D01*
X285443Y104442D01*
G01X315000Y115320D02*
X313380Y116940D01*
X310560D01*
X309500Y118000D01*
X301095D01*
X296435Y113340D01*
X287670D01*
X282330Y108000D01*
G01X312000Y115320D02*
X310680D01*
X309000Y117000D01*
X301509D01*
X296849Y112340D01*
X288084D01*
X282681Y106937D01*
X282500D01*
G01Y115139D02*
X284500Y117139D01*
Y118500D01*
X286980Y120980D01*
X290520D01*
X292500Y119000D01*
G01X282567Y113933D02*
X285974Y117340D01*
X294687D01*
X300947Y123600D01*
X311220D01*
X315000Y119820D01*
Y119560D01*
G01X280500Y119000D02*
X287562Y126062D01*
X289766D01*
X292148Y123680D01*
G01X288465Y144053D02*
Y130136D01*
X277500Y119171D01*
G01X286180Y144053D02*
Y129266D01*
X276500Y119586D01*
G01X281554Y121543D02*
X292150Y132139D01*
Y140389D01*
X292338Y140577D01*
G01X280500Y171560D02*
Y142282D01*
X277249Y139031D01*
G01X278716Y147213D02*
Y167784D01*
X276500Y170000D01*
Y182000D01*
G01Y192000D02*
Y194240D01*
X281500Y199240D01*
G01X316000Y42500D02*
X310000Y36500D01*
Y34900D01*
X294264Y19165D01*
X288140D01*
X286000Y17025D01*
Y6050D01*
X282000Y2050D01*
G01Y12050D02*
Y16000D01*
X286500Y20500D01*
X293700D01*
X308625Y35425D01*
Y38805D01*
X311320Y41500D01*
Y50320D01*
X319000Y58000D01*
Y64500D01*
X337040Y82540D01*
Y131740D01*
X336500Y132280D01*
G01X284500Y75500D02*
Y75000D01*
X286500Y73000D01*
Y68500D01*
X287921Y67079D01*
Y62500D01*
G01X292000Y2050D02*
Y3500D01*
X298000Y9500D01*
Y14000D01*
X312000Y28000D01*
X333000D01*
X337277Y32277D01*
Y51877D01*
X341364Y55964D01*
X347136D01*
X349500Y58329D01*
Y68250D01*
X353246Y71996D01*
Y136746D01*
X360820Y144320D01*
X362000D01*
G01X304100Y-1700D02*
X295750D01*
X292000Y2050D01*
G01X368039Y166500D02*
Y149039D01*
X365500Y146500D01*
X361106D01*
X352246Y137640D01*
Y72746D01*
X348500Y69000D01*
Y60414D01*
X345543Y57457D01*
X341057D01*
X335820Y52220D01*
Y32820D01*
X332000Y29000D01*
X308950D01*
X292000Y12050D01*
G01X306500Y182000D02*
Y160000D01*
X299790Y153290D01*
Y124790D01*
X294000Y119000D01*
X292500D01*
G01X294601Y140605D02*
Y142899D01*
X293640Y143860D01*
X291500D01*
G01X294500Y146820D02*
X293460Y147860D01*
X291500D01*
G01X317859Y104400D02*
Y104875D01*
X321500Y108516D01*
Y142000D01*
X319034Y144466D01*
Y155999D01*
X312500Y162533D01*
Y196500D01*
X310940Y198060D01*
X293001D01*
X289533Y201528D01*
G01X296265Y128440D02*
X296222Y128482D01*
Y129878D01*
X296221Y129879D01*
Y154501D01*
X297400Y155680D01*
G01X295885Y200005D02*
X296890Y199000D01*
X358500D01*
X361600Y195900D01*
Y179500D01*
X370000Y171100D01*
Y162400D01*
X369000Y161400D01*
Y148000D01*
X363000Y142000D01*
X361466D01*
X355066Y135600D01*
G01X298006Y140760D02*
Y140926D01*
X298041Y140961D01*
Y142199D01*
X298038Y142202D01*
Y153538D01*
X305100Y160600D01*
Y174900D01*
X302000Y178000D01*
Y187500D01*
X306500Y192000D01*
G01X316500Y182000D02*
Y178500D01*
X326000Y169000D01*
Y157314D01*
X329334Y153980D01*
Y143166D01*
X331680Y140820D01*
Y127149D01*
X334040Y124789D01*
Y86711D01*
X317329Y70000D01*
X312000D01*
X309500Y67500D01*
Y46480D01*
X309320Y46300D01*
G01X314000Y36000D02*
X320037Y42037D01*
Y48463D01*
X328500Y56926D01*
Y67500D01*
X340606Y79606D01*
Y139310D01*
X343380Y142084D01*
G01X315500Y50500D02*
X320000Y55000D01*
Y63621D01*
X338120Y81741D01*
Y135880D01*
X336480Y137520D01*
G01X314004Y62011D02*
Y65004D01*
X335040Y86040D01*
Y125203D01*
X332680Y127563D01*
Y144820D01*
X332530Y144970D01*
G01X315520Y176480D02*
Y165480D01*
X320034Y160966D01*
Y145466D01*
X322500Y143000D01*
Y105640D01*
X323226Y104914D01*
Y104200D01*
G01X319500Y50500D02*
X324004Y55004D01*
Y62011D01*
G01X329766Y155957D02*
X329907Y156098D01*
Y167993D01*
X321500Y176400D01*
Y187000D01*
X316500Y192000D01*
G01X342780Y113700D02*
Y113599D01*
X341606Y112426D01*
Y78106D01*
X329500Y66000D01*
Y56000D01*
X322000Y48500D01*
Y44000D01*
X321500Y43500D01*
Y35000D01*
G01D02*
Y32000D01*
G01X323500Y38650D02*
X324500Y39650D01*
Y49000D01*
X332500Y57000D01*
X336000D01*
X339004Y60004D01*
Y68000D01*
X343606Y72602D01*
Y97686D01*
X344426Y98506D01*
G01X324004Y62011D02*
Y65504D01*
X339300Y80800D01*
Y142591D01*
X339709Y143000D01*
G01X324166Y134440D02*
X325000Y133606D01*
Y125000D01*
X327000Y123000D01*
Y101227D01*
X322773Y97000D01*
G01X324004Y152011D02*
Y144496D01*
X329120Y139380D01*
Y126880D01*
X331000Y125000D01*
Y87659D01*
G01X341000Y31000D02*
X335500Y25500D01*
X329500D01*
X328500Y24500D01*
Y7000D01*
G01X326500Y182000D02*
X336500Y172000D01*
Y156000D01*
X338034Y154466D01*
Y139234D01*
X336480Y137680D01*
Y137520D01*
G01X334004Y62011D02*
Y67504D01*
X342606Y76106D01*
Y108606D01*
X345380Y111380D01*
Y113700D01*
G01X334004Y152011D02*
Y146464D01*
X335485Y144984D01*
Y144970D01*
G01X336500Y182000D02*
X339034Y179466D01*
Y147466D01*
X340000Y146500D01*
G01X340900Y52000D02*
X341000Y51900D01*
Y37000D01*
G01X342891Y123200D02*
Y127391D01*
X345000Y129500D01*
Y144500D01*
X340034Y149466D01*
Y172034D01*
X341500Y173500D01*
Y187000D01*
X346500Y192000D01*
G01Y182000D02*
Y176500D01*
X340974Y170974D01*
Y161026D01*
X348034Y153966D01*
Y148949D01*
X346000Y146914D01*
Y123540D01*
X345580Y123120D01*
G01X347000Y13500D02*
X348820Y15320D01*
Y18594D01*
X345000Y22414D01*
Y51000D01*
X350500Y56500D01*
X367500D01*
X369500Y58500D01*
Y65586D01*
X374914Y71000D01*
X388000D01*
X389500Y72500D01*
Y82600D01*
X393100Y86200D01*
G01Y89200D02*
X387500Y83600D01*
Y75000D01*
X384500Y72000D01*
X374500D01*
X368000Y65500D01*
Y59500D01*
X366000Y57500D01*
X350085D01*
X344000Y51414D01*
Y22000D01*
X347000Y19000D01*
Y17000D01*
G01X427000Y101524D02*
X422100Y96624D01*
Y79343D01*
X411400Y68643D01*
Y59971D01*
X407609Y56180D01*
X369680D01*
X369000Y55500D01*
X353000D01*
X349000Y51500D01*
Y45500D01*
X346000Y42500D01*
Y28000D01*
X347000Y27000D01*
G01X344004Y62011D02*
X344606Y62612D01*
Y96106D01*
X346246Y97746D01*
Y102500D01*
X344426Y104320D01*
G01X342858Y161540D02*
X349034Y155363D01*
Y148534D01*
X347246Y146746D01*
Y96894D01*
X345606Y95254D01*
Y86214D01*
X347000Y84820D01*
G01X350034Y175280D02*
X345000Y170246D01*
Y163000D01*
X350034Y157966D01*
Y147534D01*
X348246Y145746D01*
Y95320D01*
X347426Y94500D01*
G01X351000Y22000D02*
X366500Y37500D01*
X389000D01*
X394000Y42500D01*
G01X437000Y81524D02*
X432200Y76724D01*
Y68500D01*
X430636Y66936D01*
X418436D01*
X416000Y64500D01*
Y49500D01*
X402000Y35500D01*
X368000D01*
X351000Y18500D01*
G01X437000Y91524D02*
X432500Y87024D01*
Y79100D01*
X429200Y75800D01*
X424300D01*
X415000Y66500D01*
Y58000D01*
X410000Y53000D01*
X370743D01*
X370243Y52500D01*
X355000D01*
X353500Y51000D01*
Y29500D01*
X347320Y23320D01*
X347000D01*
G01X437000Y101524D02*
X431476Y96000D01*
X424500D01*
X423100Y94600D01*
Y78600D01*
X412400Y67900D01*
Y59556D01*
X408024Y55180D01*
X370094D01*
X369414Y54500D01*
X354171D01*
X350000Y50329D01*
Y44000D01*
X348000Y42000D01*
Y32000D01*
G01X357782Y168740D02*
X359034Y167487D01*
Y147257D01*
X350246Y138469D01*
Y90206D01*
X348500Y88460D01*
G01X360841Y168734D02*
X360034Y167928D01*
Y146843D01*
X351246Y138054D01*
Y86066D01*
X350000Y84820D01*
G01X356180Y174714D02*
X356000Y174534D01*
Y167393D01*
X358034Y165359D01*
Y148034D01*
X349246Y139246D01*
Y92320D01*
X348426Y91500D01*
G01X427000Y91524D02*
X431300Y87224D01*
Y79400D01*
X428857Y76957D01*
X423958D01*
X413400Y66400D01*
Y59142D01*
X408438Y54180D01*
X370509D01*
X369828Y53500D01*
X354585D01*
X351500Y50414D01*
Y32352D01*
X351680Y32172D01*
G01X354004Y62011D02*
X355100Y63106D01*
Y97000D01*
G01X369500Y145820D02*
X364180Y140500D01*
X362540D01*
X354500Y132460D01*
Y103171D01*
X359530Y98141D01*
Y79470D01*
X361500Y77500D01*
G01X372500Y144500D02*
X365500Y137500D01*
X361500D01*
X355500Y131500D01*
Y105500D01*
X361000Y100000D01*
Y96500D01*
X365500Y92000D01*
X366000D01*
G01X354256Y166900D02*
X354500Y166656D01*
Y152506D01*
X354004Y152011D01*
G01X351500Y167000D02*
X354156D01*
X354256Y166900D01*
G01X356000Y42500D02*
Y49000D01*
G01X364004Y62011D02*
X357710Y68305D01*
Y97000D01*
G01X370000Y92000D02*
X367500Y94500D01*
X364586D01*
X362280Y96806D01*
Y102720D01*
X357000Y108000D01*
Y131000D01*
X360000Y134000D01*
X364860D01*
X374150Y143290D01*
X375000D01*
G01X363500Y132000D02*
X360000D01*
X358000Y130000D01*
Y109000D01*
X363280Y103720D01*
Y97220D01*
X365000Y95500D01*
X371000D01*
X375500Y91000D01*
G01X360000Y125000D02*
X361000Y126000D01*
Y128500D01*
G01X363500Y42500D02*
Y46000D01*
G01Y49000D02*
Y46000D01*
G01X366000Y77500D02*
X361500D01*
G01X364000Y117000D02*
Y113800D01*
X363200Y113000D01*
X361000D01*
G01X364000Y117000D02*
Y120960D01*
X364735Y121695D01*
X367060D01*
X367500Y121255D01*
Y119940D01*
X367060Y119500D01*
X366340D01*
X365900Y119060D01*
Y117900D01*
X366358Y117442D01*
X367442D01*
X368500Y118500D01*
X372700D01*
G01X361000Y120500D02*
Y117000D01*
G01Y120500D02*
Y122574D01*
X363746Y125320D01*
X366180D01*
X368000Y123500D01*
X372700D01*
G01X361000Y128500D02*
X365060D01*
X365500Y128940D01*
Y132460D01*
X366440Y133400D01*
X375760D01*
X376200Y132960D01*
Y131740D01*
X375760Y131300D01*
X368140D01*
X367700Y130860D01*
Y128940D01*
X368140Y128500D01*
X372700D01*
G01X364000Y166500D02*
X364004Y166496D01*
Y152011D01*
G01X364000Y169500D02*
Y166500D01*
G01X366000Y88500D02*
Y83500D01*
G01Y92000D02*
Y88500D01*
G01X365500Y99000D02*
Y102500D01*
G01D02*
X368500D01*
X379126Y113126D01*
G01X371516Y158891D02*
X371000Y159406D01*
Y187500D01*
X366500Y192000D01*
G01X371000Y42500D02*
X374500D01*
G01X379535Y80780D02*
X375280D01*
X372000Y77500D01*
G01X379535Y83339D02*
X372161D01*
X372000Y83500D01*
G01Y99000D02*
Y102500D01*
X381000Y111500D01*
Y115000D01*
X383063Y117063D01*
G01X372700Y123500D02*
Y125200D01*
X373500Y126000D01*
X377500D01*
X378800Y127300D01*
X382323D01*
X383063Y126560D01*
Y124937D01*
G01X372700Y128500D02*
X377300D01*
X379300Y130500D01*
X387400D01*
X390500Y127400D01*
Y126500D01*
X385500Y121500D01*
Y118563D01*
X387000Y117063D01*
G01X370500Y135220D02*
X375220D01*
X387974Y147974D01*
Y166500D01*
G01X386500Y182000D02*
X373250Y168750D01*
Y157150D01*
X370000Y153900D01*
Y146320D01*
X369500Y145820D01*
G01X379000Y42500D02*
X382800D01*
X383000Y42700D01*
G01X385500Y91000D02*
Y80000D01*
X383720Y78220D01*
X379535D01*
G01X378500Y99000D02*
Y102500D01*
G01D02*
Y106000D01*
X383063Y110563D01*
Y113126D01*
G01X381650Y118831D02*
X383063Y117418D01*
Y117063D01*
G01X386500Y42500D02*
X390500D01*
G01X383063Y121000D02*
X384500Y119563D01*
Y107500D01*
X385000Y107000D01*
Y99000D01*
G01X391500D02*
Y102500D01*
X387000Y107000D01*
Y110000D01*
G01Y121000D02*
X389000Y119000D01*
G01X383063Y121000D02*
X385000Y122937D01*
Y126874D01*
G01D02*
X387000Y128874D01*
G01X390500Y156000D02*
Y141700D01*
X383300Y134500D01*
G01X395000Y154000D02*
Y174700D01*
X391500Y178200D01*
Y187000D01*
X386500Y192000D01*
G01X389000Y119000D02*
Y108000D01*
X398000Y99000D01*
G01X387000Y110000D02*
Y113126D01*
G01X390937Y117063D02*
X392905Y115095D01*
G01X390937Y121000D02*
X392905Y122968D01*
G01X392600Y130450D02*
X391024Y128874D01*
X390937D01*
G01X394000Y42500D02*
X397500D01*
G01X392905Y119032D02*
X393437Y118500D01*
X401300D01*
G01X398400Y110200D02*
X398000D01*
X396500Y111700D01*
Y115437D01*
X394874Y117063D01*
G01X410000Y115000D02*
X408000Y117000D01*
Y119000D01*
X406000Y121000D01*
X394874D01*
G01X392905Y122968D02*
X392906Y122969D01*
X395969D01*
X396500Y123500D01*
X401300D01*
G01X400500Y140000D02*
X395000Y145500D01*
Y154000D01*
G01X401234Y163320D02*
X407500Y157054D01*
Y133000D01*
X415500Y125000D01*
Y118000D01*
X414060Y116560D01*
Y85060D01*
X398500Y69500D01*
Y66500D01*
G01X398400Y110200D02*
X403100Y105500D01*
X410000D01*
G01X411000Y95500D02*
X413000Y97500D01*
Y125000D01*
X404000Y134000D01*
Y140500D01*
X398500Y146000D01*
Y148500D01*
G01X399500Y199500D02*
X401000Y198000D01*
Y176500D01*
X399000Y174500D01*
Y157500D01*
X405500Y151000D01*
Y144500D01*
G01X401500Y42500D02*
Y49000D01*
G01Y42500D02*
X404758D01*
X404858Y42600D01*
G01X416100Y106000D02*
X415000Y104900D01*
Y84000D01*
X402300Y71300D01*
Y66500D01*
G01X401300Y113500D02*
Y110400D01*
X401500Y110200D01*
G01X410500Y123000D02*
X410000Y123500D01*
X401300D01*
G01X416100Y109500D02*
X417520Y110920D01*
Y129480D01*
X410500Y136500D01*
Y158926D01*
X403000Y166426D01*
Y171000D01*
G01X416000Y166500D02*
X412000Y162500D01*
Y138500D01*
X419060Y131440D01*
Y103060D01*
X417520Y101520D01*
Y84720D01*
X405700Y72900D01*
Y66500D01*
G01X408500Y168000D02*
Y163500D01*
G01X412500Y168000D02*
X408500D01*
G01X414268Y12433D02*
Y19232D01*
X413000Y20500D01*
G01D02*
Y25000D01*
G01D02*
X417000D01*
G01X410500Y123000D02*
Y119800D01*
G01X412500Y168000D02*
X415500Y171000D01*
X420500D01*
X422232Y172732D01*
Y183594D01*
G01X414268Y12433D02*
Y-3906D01*
G01X420080Y79900D02*
X421080Y80900D01*
Y99580D01*
X422500Y101000D01*
Y135560D01*
X422940Y136000D01*
X431476D01*
X437000Y141524D01*
G01X422232Y199933D02*
Y183594D01*
G54D76*
X379535Y75661D03*
Y80780D03*
Y78220D03*
Y83339D03*
X396465Y75661D03*
Y78220D03*
Y80780D03*
Y83339D03*
G54D58*
X164500Y134154D03*
Y140846D03*
X178500Y134154D03*
Y140846D03*
G54D49*
X111199Y69075D03*
Y71045D03*
Y73015D03*
Y74985D03*
Y76955D03*
Y78925D03*
X130801Y71045D03*
Y69075D03*
Y74985D03*
Y73015D03*
Y78925D03*
Y76955D03*
G54D67*
X185660Y28090D03*
Y39910D03*
G54D86*
G01X46677Y66000D02*
X42900D01*
X38410Y70490D01*
X36438D01*
X35590Y71338D01*
Y81877D01*
X38623Y84910D01*
X40410D01*
X41500Y86000D01*
G01X46677Y76000D02*
X43000D01*
X38400Y71400D01*
X36815D01*
X36500Y71715D01*
Y75760D01*
X36815Y76075D01*
X37185D01*
X37500Y76390D01*
Y77020D01*
X37185Y77335D01*
X36815D01*
X36500Y77650D01*
Y78280D01*
X36815Y78595D01*
X37185D01*
X37500Y78910D01*
Y79540D01*
X37185Y79855D01*
X36815D01*
X36500Y80170D01*
Y81500D01*
X39000Y84000D01*
X40253D01*
X41500Y82753D01*
G01X46677Y91000D02*
X43000D01*
X41500Y92500D01*
G01X46677Y101000D02*
X43000D01*
X41500Y99500D01*
G01X81323Y66000D02*
X85400D01*
X86600Y67200D01*
Y69000D01*
G01X81323Y76000D02*
X84500D01*
X86600Y73900D01*
Y72500D01*
G01X81323Y91000D02*
X84500D01*
X86600Y93100D01*
Y94000D01*
G01X81323Y101000D02*
X84500D01*
X86600Y98900D01*
Y97500D01*
G01X91282Y64482D02*
X92595Y65795D01*
X93705D01*
X95000Y64500D01*
G01X91282Y68018D02*
X92595Y66705D01*
X93705D01*
X95000Y68000D01*
G01X92000Y79800D02*
X93013Y80813D01*
X93687D01*
X95000Y79500D01*
G01X92000Y83000D02*
X93277Y81723D01*
X93723D01*
X95000Y83000D01*
G01Y64500D02*
X96295Y65795D01*
X97205D01*
X98500Y64500D01*
G01X95000Y68000D02*
X96295Y66705D01*
X97205D01*
X98500Y68000D01*
G01X95000Y79500D02*
X96295Y80795D01*
X97205D01*
X98500Y79500D01*
G01X95000Y83000D02*
X96295Y81705D01*
X97205D01*
X98500Y83000D01*
G01Y64500D02*
X99795Y65795D01*
X100597D01*
X104407Y69605D01*
X108261D01*
X108791Y69075D01*
X111199D01*
G01X98500Y68000D02*
X99795Y66705D01*
X100220D01*
X104030Y70515D01*
X108261D01*
X108791Y71045D01*
X111199D01*
G01Y73015D02*
X108791D01*
X108261Y73545D01*
X105668D01*
X102090Y77123D01*
Y79623D01*
X100918Y80795D01*
X99795D01*
X98500Y79500D01*
G01X111199Y74985D02*
X108791D01*
X108261Y74455D01*
X106045D01*
X103000Y77500D01*
Y80000D01*
X101295Y81705D01*
X99795D01*
X98500Y83000D01*
G54D59*
X171850Y2050D03*
X181850D03*
Y12050D03*
X191850Y2050D03*
Y12050D03*
X201850Y2050D03*
Y12050D03*
X211850Y2050D03*
Y12050D03*
X221850Y2050D03*
Y12050D03*
G54D77*
X379126Y113126D03*
Y121000D03*
Y117063D03*
Y124937D03*
X383063Y113126D03*
Y121000D03*
Y117063D03*
Y124937D03*
Y128874D03*
X387000Y113126D03*
Y117063D03*
Y121000D03*
Y124937D03*
Y128874D03*
X390937Y113126D03*
Y121000D03*
Y117063D03*
Y124937D03*
Y128874D03*
X394874Y113126D03*
Y121000D03*
Y117063D03*
Y124937D03*
Y128874D03*
G54D68*
X218933Y108842D03*
Y114158D03*
X223067Y108842D03*
Y114158D03*
G54D87*
G01X22622Y45500D02*
X17500D01*
G01Y50500D02*
X19500Y52500D01*
X22622D01*
G01X25500Y155000D02*
X30500D01*
X31500Y156000D01*
G01X25500Y166000D02*
X31000D01*
X31500Y165500D01*
G01X46000Y59100D02*
Y52500D01*
G01X53700Y32330D02*
Y27700D01*
G01X75000Y140500D02*
X61500D01*
G01X64820Y144860D02*
X60640D01*
X60500Y145000D01*
G01X70500Y31000D02*
X67500D01*
G01X83639Y131862D02*
X82777Y131000D01*
X71000D01*
X68810Y133190D01*
X66470D01*
G01Y137190D02*
X69500D01*
G01D02*
X70000Y137690D01*
X72470D01*
G01X77500Y31000D02*
X74000D01*
G01X73500Y52000D02*
Y51000D01*
X76000Y48500D01*
G01X73500Y52000D02*
Y53850D01*
X74650Y55000D01*
X79500D01*
X81000Y53500D01*
Y52000D01*
G01X72470Y133690D02*
Y137690D01*
G01X77500Y142500D02*
X75500Y140500D01*
X75000D01*
G01X77500Y31000D02*
X81000D01*
G01X81500Y133688D02*
X80812D01*
X80810Y133690D01*
X76470D01*
G01X77500Y142500D02*
X80500D01*
X81500Y141500D01*
G01X75500Y165000D02*
Y163000D01*
X76500Y162000D01*
G01X75500Y169000D02*
Y165000D01*
G01X81000Y31000D02*
Y28000D01*
G01X82000Y120000D02*
Y116000D01*
X80000Y114000D01*
Y113000D01*
G01X84468Y122187D02*
X84187D01*
X82000Y120000D01*
G01X89128Y148500D02*
X87028Y150600D01*
X85400D01*
X83500Y152500D01*
Y155000D01*
G01X88000Y31000D02*
X91500D01*
G01X84500D02*
X88000D01*
G01X84500D02*
Y28000D01*
G01X88565Y152500D02*
X88500D01*
X87000Y154000D01*
Y155000D01*
G01X95000Y75500D02*
X93300D01*
X92000Y76800D01*
G01X95000Y87000D02*
X93000D01*
X92000Y86000D01*
G01X95000Y60500D02*
Y57550D01*
G01Y75500D02*
Y72000D01*
G01X94000Y159000D02*
X97500D01*
G01X100900Y39500D02*
Y34200D01*
X102100Y33000D01*
X109000D01*
G01X116600Y48000D02*
X115600Y49000D01*
X103651D01*
X100900Y46249D01*
Y39500D01*
G01X104600Y42100D02*
X103500D01*
X100900Y39500D01*
G01X98500Y60500D02*
Y57550D01*
G01Y72000D02*
Y75500D01*
G01Y72000D02*
X101500D01*
G01X98500Y87000D02*
X100850D01*
X105500Y82350D01*
Y79000D01*
X107000Y77500D01*
G01X97500Y159000D02*
X101000D01*
G01D02*
X104500D01*
G01X99500Y162000D02*
X101000Y160500D01*
Y159000D01*
G01X102000Y60500D02*
Y57500D01*
G01Y60500D02*
X105500D01*
G01Y99000D02*
Y96000D01*
G01X104500Y159000D02*
X108000D01*
G01X109000Y33000D02*
X120290D01*
X120500Y33210D01*
G01X110500Y96000D02*
Y99000D01*
G01X108000Y159000D02*
Y160389D01*
X109500Y161889D01*
Y162000D01*
G01X118000Y52500D02*
X114000D01*
G01X118000D02*
Y49400D01*
X116600Y48000D01*
G01X121500Y119500D02*
X121349Y119349D01*
X119651D01*
X118500Y120500D01*
G01X118718Y134437D02*
X119971Y135690D01*
X121470D01*
G01Y144690D02*
X118474D01*
X116892Y143108D01*
G01X120500Y33210D02*
X120831Y33540D01*
Y37260D01*
G01X125117Y40539D02*
Y38460D01*
X123916Y37260D01*
X120831D01*
G01X125117Y47800D02*
Y40539D01*
G01X130000Y52500D02*
X126000D01*
G01X125500Y119500D02*
X128500D01*
G01X138500Y54500D02*
X133500D01*
X131500Y52500D01*
X130000D01*
G01X135500Y123000D02*
X137500Y125000D01*
X137669D01*
G01X136000Y156500D02*
X139156D01*
X140205Y155451D01*
Y152413D01*
X137479Y149687D01*
G01D02*
X137392D01*
X136907Y149202D01*
X136570D01*
G01X143000Y61500D02*
X138500Y57000D01*
Y54500D01*
G01X145000Y110500D02*
X141000D01*
X139500Y109000D01*
G01X143000Y61500D02*
X145950D01*
G01X143000Y87500D02*
X146000D01*
G01X159000D02*
Y92200D01*
G01D02*
Y93289D01*
X161500Y95789D01*
Y96000D01*
G01X165000Y64000D02*
Y67241D01*
X163800Y68441D01*
X161827D01*
G01X164500Y87500D02*
Y91700D01*
X165000Y92200D01*
G01X162000Y102500D02*
Y106500D01*
G01D02*
Y110000D01*
G01X165000Y92200D02*
X166800Y94000D01*
X170000D01*
X172000Y96000D01*
Y96500D01*
G01X165000Y92200D02*
X165861Y91339D01*
X171693D01*
G01X165000Y96180D02*
X165180D01*
X165500Y96500D01*
X168000D01*
G01X171728Y104000D02*
X168500D01*
G01X164500Y140846D02*
X167146D01*
X167800Y141500D01*
G01D02*
X169500Y139800D01*
Y138000D01*
G01Y63500D02*
X172500D01*
X173000Y63000D01*
X174500D01*
G01X181500Y72500D02*
X185500D01*
G01X181500D02*
Y73139D01*
X183267Y74906D01*
G01X181534Y142959D02*
Y142046D01*
X180334Y140846D01*
X178500D01*
G01X188000Y87000D02*
X187220Y86221D01*
X183307D01*
G01X188033Y89822D02*
X186822D01*
X185780Y88780D01*
X183307D01*
G01X188200Y94000D02*
Y95300D01*
X186000Y97500D01*
G01Y109000D02*
X182500D01*
G01X183500Y139000D02*
X184500Y140000D01*
Y142840D01*
G01X192500Y29000D02*
X193000Y28500D01*
X195500D01*
G01X200500Y55000D02*
Y58500D01*
G01X254000Y64400D02*
X252800Y63200D01*
X209200D01*
X204500Y58500D01*
X200500D01*
G01X215500Y109000D02*
Y106849D01*
X216349Y106000D01*
X225150D01*
X225650Y106500D01*
X228000D01*
G01X215500Y113500D02*
Y109000D01*
G01D02*
X215657Y108842D01*
X218933D01*
G01X223067Y114158D02*
Y116433D01*
X222000Y117500D01*
X216700D01*
X215500Y116300D01*
Y113500D01*
G01X228000Y118000D02*
X224157Y114158D01*
X223067D01*
G01X228000Y106500D02*
X228500Y106000D01*
X231470D01*
X232040Y106570D01*
G01X231000Y114611D02*
X231389D01*
X236400Y109600D01*
X241066D01*
G01X231000Y114611D02*
Y115000D01*
X228000Y118000D01*
G01X261512Y59987D02*
Y61013D01*
X273343Y72843D01*
Y81128D01*
G01X264500Y165340D02*
Y165500D01*
X263140Y166860D01*
Y168630D01*
G01X307000Y92500D02*
X303650D01*
X303600Y92550D01*
X283207D01*
G01X307000Y98500D02*
X305651D01*
X301461Y94310D01*
X298310D01*
X298250Y94250D01*
X283500D01*
G01X280500Y71500D02*
Y69000D01*
X282500Y67000D01*
G01D02*
X284500Y69000D01*
Y71500D01*
G01X292000Y32772D02*
Y35500D01*
G01X312000Y94000D02*
X311000Y93000D01*
X307500D01*
X307000Y92500D01*
G01X312000Y98500D02*
X307000D01*
G01X314000Y32000D02*
X317500D01*
G01X312000Y94000D02*
X315000Y91000D01*
X317500D01*
X320500Y94000D01*
G01X317500Y32000D02*
Y36000D01*
G01X320500Y86500D02*
Y84500D01*
X318500Y82500D01*
G01X326500Y94000D02*
Y92000D01*
X324500Y90000D01*
X321500D01*
X320500Y89000D01*
Y86500D01*
G01X316000Y94000D02*
Y98500D01*
G01X318305Y97000D02*
X316805Y98500D01*
X316000D01*
G01X323000Y82500D02*
X323500D01*
X326500Y85500D01*
Y86500D01*
G01X347500Y167000D02*
Y169634D01*
X353000Y175134D01*
Y175200D01*
G01D02*
X354800Y177000D01*
X361000D01*
X368000Y170000D01*
Y169500D01*
G01X359500Y49000D02*
Y47000D01*
X358500Y46000D01*
G01X361500Y81500D02*
Y84500D01*
G01X369500Y49000D02*
Y46680D01*
X367000Y44180D01*
G01X374000Y87500D02*
X371000D01*
X370000Y88500D01*
G01X379126Y117063D02*
Y116027D01*
X376599Y113500D01*
X372700D01*
G01X375500Y49000D02*
X381000D01*
G01X404000Y94000D02*
X402000Y96000D01*
X386000D01*
X377500Y87500D01*
X374000D01*
G01X381000Y49000D02*
Y47705D01*
X383205Y45500D01*
G01X397500Y49000D02*
X395150Y51350D01*
X383350D01*
X381000Y49000D01*
G01X379535Y75661D02*
X384091D01*
X384500Y76070D01*
G01X385000Y49000D02*
X387000D01*
X390500Y45500D01*
G01X387000Y124937D02*
Y125300D01*
X388500Y126800D01*
G01X390937Y113126D02*
Y110063D01*
G01X406000Y49000D02*
X403650Y51350D01*
X399850D01*
X397500Y49000D01*
G01X401000Y79500D02*
Y77000D01*
X399661Y75661D01*
X396465D01*
G01Y80780D02*
X399720D01*
X401000Y79500D01*
G01X404000D02*
X401000D01*
G01X409000Y20500D02*
Y15500D01*
G01Y25000D02*
Y27500D01*
X410500Y29000D01*
G01X408500Y172000D02*
Y175000D01*
G01X410000Y49000D02*
X412500D01*
X413000Y49500D01*
G01X412500Y172000D02*
Y175000D01*
G54D78*
X427000Y31524D03*
Y41524D03*
Y51524D03*
Y61524D03*
Y71524D03*
Y81524D03*
Y91524D03*
Y101524D03*
Y111524D03*
Y121524D03*
Y131524D03*
Y141524D03*
Y151524D03*
Y161524D03*
X437000Y31524D03*
Y41524D03*
Y51524D03*
Y61524D03*
Y71524D03*
Y81524D03*
Y91524D03*
Y101524D03*
Y111524D03*
Y121524D03*
Y131524D03*
Y141524D03*
Y151524D03*
G54D69*
X278079Y62500D03*
X287921D03*
G54D88*
G01X9732Y183594D02*
X13000D01*
G01X9732Y199933D02*
Y192732D01*
G01X35579Y138500D02*
Y136071D01*
X37150Y134500D01*
X57500D01*
X60190Y137190D01*
X62470D01*
G01X179000Y55000D02*
X183500D01*
G01X60500Y145000D02*
Y141500D01*
X61500Y140500D01*
G01X60500Y157300D02*
Y145000D01*
G01X71120Y158380D02*
X61580D01*
X60500Y157300D01*
G01X66470Y133190D02*
X62470D01*
G01X71120Y158380D02*
Y153521D01*
G01Y158380D02*
X73620D01*
X77500Y154500D01*
G01X97500Y155000D02*
X101000D01*
G01X98970Y147692D02*
X98789Y147874D01*
Y151211D01*
X97500Y152500D01*
Y155000D01*
G01X101000D02*
X104500D01*
G01D02*
X108000D01*
G01D02*
X108328Y154672D01*
X112900D01*
X113000Y154572D01*
Y154472D01*
G01X116100Y162000D02*
X113972D01*
X113100Y161128D01*
X113000D01*
G01X125470Y131690D02*
X128420D01*
G01X125470Y135690D02*
X128470D01*
G01X125470Y139690D02*
Y135690D01*
G01Y144690D02*
X128470D01*
G01X125470Y148690D02*
X128470D01*
G01X140994Y139400D02*
Y139026D01*
X141000Y139020D01*
Y135100D01*
G01X169000Y25000D02*
Y38410D01*
X170500Y39910D01*
X173590D01*
G01X183500Y55000D02*
X196500D01*
G01X188764Y59189D02*
X189453Y58500D01*
X192000D01*
G01D02*
X196500D01*
G01D02*
Y60151D01*
X195410Y61241D01*
G01D02*
Y64391D01*
G01X271091Y58880D02*
X271000Y58789D01*
Y53500D01*
G01X396465Y75661D02*
X391839D01*
X391500Y76000D01*
G01X396465Y78220D02*
X393000D01*
X391500Y76720D01*
Y76000D01*
G01X396465Y83339D02*
X403839D01*
X404000Y83500D01*
G01Y89000D02*
Y83500D01*
G01Y94000D02*
Y89000D01*
G01Y98000D02*
Y98500D01*
X406000Y100500D01*
G01X412500Y175000D02*
X413768Y176268D01*
Y183594D01*
G54D79*
X437000Y161524D03*
M02*
