G04 ================== begin FILE IDENTIFICATION RECORD ==================*
G04 Layout Name:  C:/Users/nxf76403/Work/90818-B/pcb/a080-1/FabOutput/LAY-90818_B.brd*
G04 Film Name:    L2_GND*
G04 File Format:  Gerber RS274X*
G04 File Origin:  Cadence Allegro 17.4-S021*
G04 Origin Date:  Mon Sep 18 14:44:31 2023*
G04 *
G04 Layer:  DRAWING FORMAT/FILM_TITLE_BLOCK*
G04 Layer:  VIA CLASS/GND*
G04 Layer:  PIN/GND*
G04 Layer:  ETCH/GND*
G04 Layer:  BOARD GEOMETRY/DESIGN_OUTLINE*
G04 *
G04 Offset:    (0.000 0.000)*
G04 Mirror:    No*
G04 Mode:      Positive*
G04 Rotation:  0*
G04 FullContactRelief:  No*
G04 UndefLineWidth:     8.000*
G04 ================== end FILE IDENTIFICATION RECORD ====================*
%FSLAX55Y55*MOIN*%
%IR0*IPPOS*OFA0.00000B0.00000*MIA0B0*SFA1.00000B1.00000*%
%ADD19O,.04X.056*%
%ADD12C,.02*%
%ADD18C,.06*%
%ADD22C,.061*%
%ADD17C,.016*%
%ADD15C,.08*%
%ADD11C,.026*%
%ADD21C,.018*%
%ADD16C,.065*%
%ADD10C,.066*%
%ADD20C,.067*%
%ADD14C,.069*%
%ADD13R,.026X.026*%
%ADD23C,.006*%
%ADD24C,.01*%
%ADD25C,.008*%
%ADD28C,.160004*%
%ADD44C,.030004*%
%ADD26C,.032004*%
%ADD43C,.024004*%
%ADD34C,.081004*%
%ADD27C,.072004*%
%ADD38C,.073004*%
%ADD37C,.028004*%
%ADD31C,.082004*%
%ADD42C,.083004*%
%ADD32C,.092004*%
%ADD40C,.085004*%
%ADD39C,.076004*%
%ADD33C,.077004*%
%ADD29C,.067005*%
%ADD36C,.096004*%
%ADD35C,.078004*%
%ADD30C,.067006*%
%ADD41C,.079004*%
G75*
%LPD*%
G75*
G36*
G01X436012Y8343D02*
G03X430024Y600I2012J-7743D01*
G03X434489Y-6576I8000J0D01*
G02X434617Y-7194I-177J-359D01*
G02X430172Y-9268I-4479J3800D01*
G01X-6870D01*
G02X-12744Y-3394I0J5874D01*
G01Y63000D01*
X-3705D01*
G03X-860Y61321I2845J1571D01*
G01X5040D01*
G03X7885Y63000I0J3250D01*
G01X10870D01*
X10921Y62993D01*
X10933Y62990D01*
G03X14544Y62993I1800J6874D01*
G01X14570Y63000D01*
X16000D01*
X16250Y63250D01*
X30254D01*
G02X30900Y62934I246J-316D01*
G01Y58000D01*
G03X34100I1600J0D01*
G01Y80837D01*
X37132Y83868D01*
G03X37600Y85000I-1131J1131D01*
G01Y130500D01*
G03X34400I-1600J0D01*
G01Y130000D01*
X7502D01*
G03X5040Y131129I-2462J-2122D01*
G01X-860D01*
G03X-3322Y130000I0J-3250D01*
G01X-12244D01*
X-12744Y130500D01*
Y197724D01*
G02X-7472Y203268I5550J0D01*
G01X288331D01*
G02X288598Y202570I0J-400D01*
G03X288133Y201528I935J-1042D01*
G03X290933I1400J0D01*
G03X290468Y202570I-1400J0D01*
G02X290735Y203268I267J298D01*
G01X430172D01*
G02X434617Y201194I-34J-5874D01*
G02X434489Y200577I-305J-259D01*
G03X430024Y193400I3536J-7177D01*
G03X436012Y185657I8000J0D01*
G01Y165040D01*
X435873Y164996D01*
G03Y158052I1126J-3472D01*
G01X436012Y158007D01*
Y155040D01*
X435873Y154996D01*
G03Y148052I1126J-3472D01*
G01X436012Y148007D01*
Y145040D01*
X435873Y144996D01*
G03Y138052I1126J-3472D01*
G01X436012Y138007D01*
Y135040D01*
X435873Y134996D01*
G03Y128052I1126J-3472D01*
G01X436012Y128007D01*
Y125040D01*
X435873Y124996D01*
G03Y118052I1126J-3472D01*
G01X436012Y118007D01*
Y115040D01*
X435873Y114996D01*
G03Y108052I1126J-3472D01*
G01X436012Y108007D01*
Y105040D01*
X435873Y104996D01*
G03Y98052I1126J-3472D01*
G01X436012Y98007D01*
Y95040D01*
X435873Y94996D01*
G03Y88052I1126J-3472D01*
G01X436012Y88007D01*
Y85040D01*
X435873Y84996D01*
G03Y78052I1126J-3472D01*
G01X436012Y78007D01*
Y75040D01*
X435873Y74996D01*
G03Y68052I1126J-3472D01*
G01X436012Y68007D01*
Y65040D01*
X435873Y64996D01*
G03Y58052I1126J-3472D01*
G01X436012Y58007D01*
Y55040D01*
X435873Y54996D01*
G03Y48052I1126J-3472D01*
G01X436012Y48007D01*
Y45040D01*
X435873Y44996D01*
G03Y38052I1126J-3472D01*
G01X436012Y38007D01*
Y35040D01*
X435873Y34996D01*
G03Y28052I1126J-3472D01*
G01X436012Y28007D01*
Y8343D01*
G37*
%LPC*%
G75*
G36*
G01X2463Y177078D02*
X8363D01*
G02Y172377I0J-2350D01*
G01X2463D01*
G02Y177078I0J2350D01*
G37*
G36*
G01X-9494D02*
X-6294D01*
G02Y172377I0J-2350D01*
G01X-9494D01*
G02Y177078I0J2350D01*
G37*
G36*
G01X2463Y143022D02*
X8363D01*
G02Y138322I0J-2350D01*
G01X2463D01*
G02Y143022I0J2350D01*
G37*
G36*
G01X-9494D02*
X-6294D01*
G02Y138322I0J-2350D01*
G01X-9494D01*
G02Y143022I0J2350D01*
G37*
G36*
G01X2463Y51813D02*
X8363D01*
G02Y47113I0J-2350D01*
G01X2463D01*
G02Y51813I0J2350D01*
G37*
G36*
G01X-9494D02*
X-6294D01*
G02Y47113I0J-2350D01*
G01X-9494D01*
G02Y51813I0J2350D01*
G37*
G36*
G01X2463Y17758D02*
X8363D01*
G02Y13058I0J-2350D01*
G01X2463D01*
G02Y17758I0J2350D01*
G37*
G36*
G01X-9494D02*
X-6294D01*
G02Y13058I0J-2350D01*
G01X-9494D01*
G02Y17758I0J2350D01*
G37*
G36*
G01X13459Y29616D02*
G03Y30216I-265J300D01*
G02X12918Y31416I1059J1200D01*
G02X16118I1600J0D01*
G02X15576Y30216I-1600J0D01*
G03Y29616I265J-300D01*
G02X15778Y29402I-1059J-1200D01*
G03X16408I315J247D01*
G02X17668Y30016I1260J-986D01*
G02X19268Y28416I0J-1600D01*
G02X18654Y27156I-1600J0D01*
G03Y26526I247J-315D01*
G02X19268Y25266I-986J-1260D01*
G02X17668Y23666I-1600J0D01*
G02X16408Y24279I0J1600D01*
G03X15778I-315J-247D01*
G02X14518Y23666I-1260J986D01*
G02X12918Y25266I0J1600D01*
G02X13531Y26526I1600J0D01*
G03Y27156I-247J315D01*
G02X12918Y28416I986J1260D01*
G02X13459Y29616I1600J0D01*
G37*
G36*
G01X16708Y35696D02*
G03Y36336I-240J320D01*
G02X16068Y37616I960J1280D01*
G02X19268I1600J0D01*
G02X18628Y36336I-1600J0D01*
G03Y35696I240J-320D01*
G02X19268Y34416I-960J-1280D01*
G02X16068I-1600J0D01*
G02X16708Y35696I1600J0D01*
G37*
G36*
G01X2538Y42065D02*
G03X2514Y42622I-299J266D01*
G02X1856Y44148I1443J1526D01*
G02X6057I2100J0D01*
G02X5400Y42622I-2100J0D01*
G03X5376Y42065I275J-291D01*
G02X5857Y40802I-1419J-1264D01*
G02X5260Y39419I-1900J0D01*
G03Y38837I274J-291D01*
G02X5857Y37455I-1304J-1382D01*
G02X5260Y36073I-1900J0D01*
G03Y35491I274J-291D01*
G02X5857Y34109I-1304J-1382D01*
G02X5260Y32726I-1900J0D01*
G03Y32144I274J-291D01*
G02X5857Y30762I-1304J-1382D01*
G02X5260Y29380I-1900J0D01*
G03Y28798I274J-291D01*
G02X5857Y27416I-1304J-1382D01*
G02X5260Y26034I-1900J0D01*
G03Y25452I274J-291D01*
G02X5857Y24069I-1304J-1382D01*
G02X5376Y22806I-1900J0D01*
G03X5400Y22249I299J-266D01*
G02X6057Y20723I-1443J-1526D01*
G02X1856I-2100J0D01*
G02X2514Y22249I2100J0D01*
G03X2538Y22806I-275J291D01*
G02X2056Y24069I1419J1264D01*
G02X2653Y25452I1900J0D01*
G03Y26034I-274J291D01*
G02X2056Y27416I1304J1382D01*
G02X2653Y28798I1900J0D01*
G03Y29380I-274J291D01*
G02X2056Y30762I1304J1382D01*
G02X2653Y32144I1900J0D01*
G03Y32726I-274J291D01*
G02X2056Y34109I1304J1382D01*
G02X2653Y35491I1900J0D01*
G03Y36073I-274J291D01*
G02X2056Y37455I1304J1382D01*
G02X2653Y38837I1900J0D01*
G03Y39419I-274J291D01*
G02X2056Y40802I1304J1382D01*
G02X2538Y42065I1900J0D01*
G37*
G36*
G01X7171Y42848D02*
Y45448D01*
G02X7972Y46248I800J0D01*
G01X10572D01*
G02X11372Y45448I0J-800D01*
G01Y42848D01*
G02X11055Y42211I-800J0D01*
G03X10945Y41702I242J-319D01*
G02X11172Y40802I-1673J-901D01*
G02X10576Y39419I-1900J0D01*
G03Y38837I274J-291D01*
G02X11172Y37455I-1304J-1382D01*
G02X10576Y36073I-1900J0D01*
G03Y35491I274J-291D01*
G02X11172Y34109I-1304J-1382D01*
G02X10576Y32726I-1900J0D01*
G03Y32144I274J-291D01*
G02X11172Y30762I-1304J-1382D01*
G02X10576Y29380I-1900J0D01*
G03Y28798I274J-291D01*
G02X11172Y27416I-1304J-1382D01*
G02X10576Y26034I-1900J0D01*
G03Y25452I274J-291D01*
G02X11172Y24069I-1304J-1382D01*
G02X10691Y22806I-1900J0D01*
G03X10714Y22249I299J-266D01*
G02X11372Y20723I-1443J-1526D01*
G02X7171I-2100J0D01*
G02X7829Y22249I2100J0D01*
G03X7853Y22806I-275J291D01*
G02X7371Y24069I1419J1264D01*
G02X7968Y25452I1900J0D01*
G03Y26034I-274J291D01*
G02X7371Y27416I1304J1382D01*
G02X7968Y28798I1900J0D01*
G03Y29380I-274J291D01*
G02X7371Y30762I1304J1382D01*
G02X7968Y32144I1900J0D01*
G03Y32726I-274J291D01*
G02X7371Y34109I1304J1382D01*
G02X7968Y35491I1900J0D01*
G03Y36073I-274J291D01*
G02X7371Y37455I1304J1382D01*
G02X7968Y38837I1900J0D01*
G03Y39419I-274J291D01*
G02X7371Y40802I1304J1382D01*
G02X7598Y41702I1900J0D01*
G03X7488Y42211I-352J190D01*
G02X7171Y42848I484J638D01*
G37*
G36*
G01X381945Y43903D02*
G03X381986Y44463I-264J301D01*
G02X381605Y45500I1219J1037D01*
G02X384805I1600J0D01*
G02X384260Y44297I-1600J0D01*
G03X384219Y43737I264J-301D01*
G02X384600Y42700I-1219J-1037D01*
G02X381400I-1600J0D01*
G02X381945Y43903I1600J0D01*
G37*
G36*
G01X97441Y46700D02*
G03Y47300I-265J300D01*
G02X96900Y48500I1059J1200D01*
G02X100100I1600J0D01*
G02X99559Y47300I-1600J0D01*
G03Y46700I265J-300D01*
G02X100100Y45500I-1059J-1200D01*
G02X96900I-1600J0D01*
G02X97441Y46700I1600J0D01*
G37*
G36*
G01X261492Y50495D02*
G03X262032I270J295D01*
G02X263112Y50914I1080J-1181D01*
G02X264232Y50457I0J-1600D01*
G03X264792I280J286D01*
G02X265912Y50914I1120J-1143D01*
G02Y47714I0J-1600D01*
G02X264792Y48171I0J1600D01*
G03X264232I-280J-286D01*
G02X263112Y47714I-1120J1143D01*
G02X262032Y48133I0J1600D01*
G03X261492I-270J-295D01*
G02X260412Y47714I-1080J1181D01*
G02Y50914I0J1600D01*
G02X261492Y50495I0J-1600D01*
G37*
G36*
G01X255961Y63560D02*
G03X255332Y63513I-296J-269D01*
G02X254000Y62800I-1332J887D01*
G02Y66000I0J1600D01*
G02X255270Y65374I0J-1600D01*
G03X255901Y65369I317J243D01*
G02X256999Y65900I1098J-869D01*
G02X257947Y65530I0J-1400D01*
G03X258222Y65534I135J147D01*
G02X259199Y65931I977J-1003D01*
G02Y63130I0J-1400D01*
G02X258250Y63500I0J1400D01*
G03X257975Y63497I-135J-147D01*
G02X256999Y63100I-977J1003D01*
G02X255961Y63560I0J1400D01*
G37*
G36*
G01X256016Y66807D02*
G03X255471Y66796I-267J-298D01*
G02X254498Y66402I-974J1006D01*
G02Y69202I0J1400D01*
G02X255432Y68846I0J-1400D01*
G03X255976Y68856I267J298D01*
G02X256950Y69250I974J-1006D01*
G02Y66450I0J-1400D01*
G02X256016Y66807I0J1400D01*
G37*
G36*
G01X246068Y69552D02*
G03X246584Y69559I254J309D01*
G02X247500Y69900I916J-1059D01*
G02X248395Y69577I0J-1400D01*
G03X248906I255J308D01*
G02X249800Y69900I894J-1077D01*
G02Y67100I0J-1400D01*
G02X248906Y67423I0J1400D01*
G03X248395I-256J-308D01*
G02X247500Y67100I-894J1077D01*
G02X246611Y67418I0J1400D01*
G03X246095Y67411I-254J-309D01*
G02X245179Y67070I-916J1059D01*
G02Y69870I0J1400D01*
G02X246068Y69552I0J-1400D01*
G37*
G36*
G01X203061Y73698D02*
G03X203591I265J300D01*
G02X204652Y74100I1061J-1198D01*
G02X205692Y73716I0J-1600D01*
G03X206212I260J304D01*
G02X207252Y74100I1040J-1216D01*
G02X208704Y73172I0J-1600D01*
G03X209254Y72986I363J168D01*
G02X210000Y73170I746J-1416D01*
G02Y69970I0J-1600D01*
G02X208547Y70898I0J1600D01*
G03X207998Y71084I-363J-168D01*
G02X207252Y70900I-746J1416D01*
G02X206212Y71284I0J1600D01*
G03X205692I-260J-304D01*
G02X204652Y70900I-1040J1216D01*
G02X203591Y71302I0J1600D01*
G03X203061I-265J-300D01*
G02X202000Y70900I-1061J1198D01*
G02X200940Y71301I0J1600D01*
G03X200410I-265J-300D01*
G02X199350Y70900I-1060J1199D01*
G02Y74100I0J1600D01*
G02X200410Y73699I0J-1600D01*
G03X200940I265J300D01*
G02X202000Y74100I1060J-1199D01*
G02X203061Y73698I0J-1600D01*
G37*
G36*
G01X169779Y72466D02*
G03X169179Y72477I-305J-259D01*
G02X168000Y71959I-1179J1082D01*
G02Y75159I0J1600D01*
G02X169221Y74594I0J-1600D01*
G03X169821Y74582I305J259D01*
G02X171000Y75100I1179J-1082D01*
G02Y71900I0J-1600D01*
G02X169779Y72466I0J1600D01*
G37*
G36*
G01X161300Y77441D02*
G03X160700I-300J-265D01*
G02X159500Y76900I-1200J1059D01*
G02Y80100I0J1600D01*
G02X160700Y79559I0J-1600D01*
G03X161300I300J265D01*
G02X162500Y80100I1200J-1059D01*
G02Y76900I0J-1600D01*
G02X161300Y77441I0J1600D01*
G37*
G36*
G01X91040Y81080D02*
G03Y81720I-240J320D01*
G02X90400Y83000I960J1280D01*
G02X93600I1600J0D01*
G02X92960Y81720I-1600J0D01*
G03Y81080I240J-320D01*
G02X93600Y79800I-960J-1280D01*
G02X90400I-1600J0D01*
G02X91040Y81080I1600J0D01*
G37*
G36*
G01X348800Y83761D02*
G03X348200I-300J-265D01*
G02X347000Y83220I-1200J1059D01*
G02Y86420I0J1600D01*
G02X348200Y85879I0J-1600D01*
G03X348800I300J265D01*
G02X350000Y86420I1200J-1059D01*
G02Y83220I0J-1600D01*
G02X348800Y83761I0J1600D01*
G37*
G36*
G01X145050Y85607D02*
G03X145030Y86227I-262J302D01*
G02X144400Y87500I970J1273D01*
G02X147600I1600J0D01*
G02X147050Y86293I-1600J0D01*
G03X147070Y85673I262J-302D01*
G02X147700Y84400I-970J-1273D01*
G02X144500I-1600J0D01*
G02X145050Y85607I1600J0D01*
G37*
G36*
G01X166941Y87200D02*
G03Y87800I-265J300D01*
G02X166400Y89000I1059J1200D01*
G02X169600I1600J0D01*
G02X169059Y87800I-1600J0D01*
G03Y87200I265J-300D01*
G02X169600Y86000I-1059J-1200D01*
G02X166400I-1600J0D01*
G02X166941Y87200I1600J0D01*
G37*
G36*
G01X392041Y87400D02*
G03Y88000I-265J300D01*
G02X391500Y89200I1059J1200D01*
G02X394700I1600J0D01*
G02X394159Y88000I-1600J0D01*
G03Y87400I265J-300D01*
G02X394700Y86200I-1059J-1200D01*
G02X391500I-1600J0D01*
G02X392041Y87400I1600J0D01*
G37*
G36*
G01X347096Y92390D02*
G03X346896Y92990I-332J222D01*
G02X345826Y94500I530J1510D01*
G02X349026I1600J0D01*
G02X348756Y93610I-1600J0D01*
G03X348956Y93010I332J-222D01*
G02X350026Y91500I-530J-1510D01*
G02X349495Y90309I-1600J0D01*
G03X349510Y89701I267J-298D01*
G02X350100Y88460I-1010J-1241D01*
G02X346900I-1600J0D01*
G02X347431Y89651I1600J0D01*
G03X347416Y90259I-267J298D01*
G02X346826Y91500I1010J1241D01*
G02X347096Y92390I1600J0D01*
G37*
G36*
G01X214200Y96832D02*
G03X214607Y97192I9J400D01*
G02X216000Y98452I1393J-140D01*
G02X217313Y97539I0J-1400D01*
G03X217566Y97419I188J70D01*
G02X218028Y97497I461J-1322D01*
G02X218973Y97130I0J-1400D01*
G03X219522Y97139I270J295D01*
G02X220500Y97537I978J-1002D01*
G02X221487Y97130I0J-1400D01*
G03X222042Y97122I282J284D01*
G02X223000Y97500I958J-1022D01*
G02X223934Y97143I0J-1400D01*
G03X224463Y97138I267J298D01*
G02X225378Y97480I916J-1059D01*
G02X226633Y96702I0J-1400D01*
G03X226891Y96607I179J89D01*
G02X227443Y96720I552J-1287D01*
G02Y93920I0J-1400D01*
G02X226189Y94698I0J1400D01*
G03X225931Y94793I-179J-89D01*
G02X225378Y94679I-552J1287D01*
G02X224444Y95036I0J1400D01*
G03X223916Y95041I-267J-298D01*
G02X223132Y94706I-916J1059D01*
G03X222773Y94266I38J-398D01*
G02X222780Y94120I-1393J-146D01*
G02X219980I-1400J0D01*
G02X220063Y94595I1400J0D01*
G03X219953Y94848I-188J68D01*
G02X219555Y95104I547J1289D01*
G03X219005Y95095I-270J-295D01*
G02X218893Y94996I-978J1002D01*
G03X218907Y94672I124J-157D01*
G02X219540Y93500I-767J-1172D01*
G02X216740I-1400J0D01*
G02X217128Y94468I1400J0D01*
G03X217103Y95045I-289J277D01*
G02X216715Y95611I924J1052D01*
G03X216461Y95730I-188J-70D01*
G02X216000Y95652I-461J1322D01*
G02X215969Y95652I-2J1400D01*
G03X215562Y95292I-9J-400D01*
G02X214169Y94032I-1393J140D01*
G02Y96832I0J1400D01*
G02X214200Y96832I2J-1400D01*
G37*
G36*
G01X356666Y95787D02*
G03X356144I-261J-303D01*
G02X355100Y95400I-1044J1213D01*
G02Y98600I0J1600D01*
G02X356144Y98213I0J-1600D01*
G03X356666I261J303D01*
G02X357710Y98600I1044J-1213D01*
G02Y95400I0J-1600D01*
G02X356666Y95787I0J1600D01*
G37*
G36*
G01X52500Y58500D02*
Y105100D01*
X54900Y107500D01*
X74000D01*
X74500Y107000D01*
Y97600D01*
G03X75140Y97280I400J0D01*
G02X76100Y97600I960J-1280D01*
G02Y94400I0J-1600D01*
G02X75140Y94720I0J1600D01*
G03X74500Y94400I-240J-320D01*
G01Y72600D01*
G03X75140Y72280I400J0D01*
G02X76100Y72600I960J-1280D01*
G02Y69400I0J-1600D01*
G02X75140Y69720I0J1600D01*
G03X74500Y69400I-240J-320D01*
G01Y58500D01*
X74000Y58000D01*
X53000D01*
X52500Y58500D01*
G37*
G36*
G01X211450Y105644D02*
G03X211565Y105899I-73J186D01*
G02X211480Y106380I1315J481D01*
G02X214280I1400J0D01*
G02X213390Y105076I-1400J0D01*
G03X213275Y104821I73J-186D01*
G02X213360Y104340I-1315J-481D01*
G02X212536Y103064I-1400J0D01*
G03X212369Y102475I165J-365D01*
G02X212609Y101691I-1160J-784D01*
G02X209809I-1400J0D01*
G02X210633Y102967I1400J0D01*
G03X210800Y103556I-165J365D01*
G02X210560Y104340I1160J784D01*
G02X211450Y105644I1400J0D01*
G37*
G36*
G01X400260Y109189D02*
G03X399640I-310J-253D01*
G02X398400Y108600I-1240J1011D01*
G02Y111800I0J1600D01*
G02X399640Y111211I0J-1600D01*
G03X400260I310J253D01*
G02X401500Y111800I1240J-1011D01*
G02Y108600I0J-1600D01*
G02X400260Y109189I0J1600D01*
G37*
G36*
G01X344369Y112732D02*
G03X343791I-289J-277D01*
G02X342780Y112300I-1011J968D01*
G02Y115100I0J1400D01*
G02X343791Y114668I0J-1400D01*
G03X344369I289J277D01*
G02X345380Y115100I1011J-968D01*
G02Y112300I0J-1400D01*
G02X344369Y112732I0J1400D01*
G37*
G36*
G01X307030Y114090D02*
G03X306503Y114113I-277J-289D01*
G02X305500Y113760I-1003J1247D01*
G02Y116960I0J1600D01*
G02X306738Y116374I0J-1600D01*
G03X307259Y116288I309J253D01*
G02X308000Y116500I741J-1188D01*
G02Y113700I0J-1400D01*
G02X307030Y114090I0J1400D01*
G37*
G36*
G01X362800Y115941D02*
G03X362200I-300J-265D01*
G02X361000Y115400I-1200J1059D01*
G02Y118600I0J1600D01*
G02X362200Y118059I0J-1600D01*
G03X362800I300J265D01*
G02X364000Y118600I1200J-1059D01*
G02Y115400I0J-1600D01*
G02X362800Y115941I0J1600D01*
G37*
G36*
G01X344507Y122221D02*
G03X343909Y122239I-307J-257D01*
G02X342891Y121800I-1018J961D01*
G02Y124600I0J1400D01*
G02X343965Y124099I0J-1400D01*
G03X344562Y124081I307J257D01*
G02X345580Y124520I1018J-961D01*
G02Y121720I0J-1400D01*
G02X344507Y122221I0J1400D01*
G37*
G36*
G01X291200Y122650D02*
G03X290644Y122636I-271J-294D01*
G02X289648Y122220I-996J984D01*
G02Y125020I0J1400D01*
G02X290596Y124650I0J-1400D01*
G03X291151Y124664I271J294D01*
G02X292148Y125080I996J-984D01*
G02Y122280I0J-1400D01*
G02X291200Y122650I0J1400D01*
G37*
G36*
G01X226677Y123459D02*
G03X226163Y123448I-250J-312D01*
G02X225240Y123100I-923J1052D01*
G02Y125900I0J1400D01*
G02X226115Y125593I0J-1400D01*
G03X226629Y125605I250J312D01*
G02X227552Y125952I923J-1052D01*
G02Y123152I0J-1400D01*
G02X226677Y123459I0J1400D01*
G37*
G36*
G01X233731Y123363D02*
G03X233287Y123620I-376J-137D01*
G02X233049Y123600I-238J1380D01*
G02Y126400I0J1400D01*
G02X234365Y125478I0J-1400D01*
G03X234809Y125221I376J137D01*
G02X235047Y125241I238J-1380D01*
G02X236447Y123841I0J-1400D01*
G02X236063Y122878I-1400J0D01*
G03X236063Y122603I145J-138D01*
G02X236446Y121641I-1017J-962D01*
G02X233646I-1400J0D01*
G02X234029Y122604I1400J0D01*
G03X234029Y122879I-145J138D01*
G02X233731Y123363I1017J962D01*
G37*
G36*
G01X169559Y127188D02*
G03X170204Y127203I317J244D01*
G02X172500Y128400I2296J-1603D01*
G02X174688Y127348I0J-2800D01*
G03X175312I313J250D01*
G02X177500Y128400I2188J-1748D01*
G02X179796Y127203I0J-2800D01*
G03X180441Y127188I328J229D01*
G02X182500Y128200I2059J-1588D01*
G02X185100Y125600I0J-2600D01*
G01Y124000D01*
G02X183938Y121833I-2600J0D01*
G03Y121167I221J-333D01*
G02X185100Y119000I-1437J-2167D01*
G01Y117400D01*
G02X182500Y114800I-2600J0D01*
G02X180333Y115963I0J2600D01*
G03X179667I-333J-221D01*
G02X175333I-2167J1437D01*
G03X174667I-333J-221D01*
G02X170333I-2167J1437D01*
G03X169667I-333J-221D01*
G02X165333I-2167J1437D01*
G03X164667I-333J-221D01*
G02X162500Y114800I-2167J1437D01*
G02X159900Y117400I0J2600D01*
G01Y119000D01*
G02X161062Y121167I2600J0D01*
G03Y121833I-221J333D01*
G02X159900Y124000I1437J2167D01*
G01Y125600D01*
G02X162500Y128200I2600J0D01*
G02X164667Y127038I0J-2600D01*
G03X165333I333J221D01*
G02X167500Y128200I2167J-1437D01*
G02X169559Y127188I0J-2600D01*
G37*
G36*
G01X250518Y125970D02*
G03X250332Y126181I-200J11D01*
G02X249021Y127579I90J1397D01*
G02X250421Y128979I1400J0D01*
G02X251819Y127664I0J-1400D01*
G03X252029Y127477I200J12D01*
G02X252116Y127479I86J-1598D01*
G02X250516Y125879I0J-1600D01*
G02X250518Y125970I1600J0D01*
G37*
G36*
G01X130280Y126964D02*
G03X129670I-305J-259D01*
G02X128450Y126400I-1220J1036D01*
G02Y129600I0J1600D01*
G02X129670Y129036I0J-1600D01*
G03X130280I305J259D01*
G02X131500Y129600I1220J-1036D01*
G02Y126400I0J-1600D01*
G02X130280Y126964I0J1600D01*
G37*
G36*
G01X269777Y127882D02*
G03X270111Y128327I-64J395D01*
G02X270100Y128500I1389J174D01*
G02X272900I1400J0D01*
G02X271723Y127118I-1400J0D01*
G03X271389Y126673I64J-395D01*
G02X271400Y126500I-1389J-174D01*
G02X268600I-1400J0D01*
G02X269777Y127882I1400J0D01*
G37*
G36*
G01X240274Y127905D02*
G03X240018Y128006I-181J-85D01*
G02X239494Y127904I-524J1298D01*
G02Y130704I0J1400D01*
G02X240762Y129899I0J-1400D01*
G03X241018Y129798I181J85D01*
G02X241542Y129900I524J-1298D01*
G02X242498Y129523I0J-1400D01*
G03X243044I273J292D01*
G02X244000Y129900I956J-1023D01*
G02Y127100I0J-1400D01*
G02X243044Y127477I0J1400D01*
G03X242498I-273J-292D01*
G02X241542Y127100I-956J1023D01*
G02X240274Y127905I0J1400D01*
G37*
G36*
G01X256758Y130965D02*
G03X256475Y130968I-143J-140D01*
G02X255500Y130573I-975J1005D01*
G02Y133373I0J1400D01*
G02X256502Y132951I0J-1400D01*
G03X256785Y132947I143J140D01*
G02X257760Y133342I975J-1005D01*
G02Y130542I0J-1400D01*
G02X256758Y130965I0J1400D01*
G37*
G36*
G01X235612Y131622D02*
G03X235083Y131604I-254J-309D01*
G02X234120Y131220I-963J1016D01*
G02Y134020I0J1400D01*
G02X235008Y133703I0J-1400D01*
G03X235537Y133722I254J309D01*
G02X236500Y134105I963J-1016D01*
G02Y131305I0J-1400D01*
G02X235612Y131622I0J1400D01*
G37*
G36*
G01X279736Y136150D02*
G03X279895Y136382I-38J196D01*
G02X279872Y136634I1377J253D01*
G02X282672I1400J0D01*
G02X281536Y135260I-1400J0D01*
G03X281377Y135027I38J-196D01*
G02X281400Y134774I-1377J-253D01*
G02X280000Y133374I-1400J0D01*
G02X279573Y133441I0J1400D01*
G03X279323Y133316I-61J-190D01*
G02X278000Y132374I-1323J458D01*
G02Y135175I0J1400D01*
G02X278427Y135108I0J-1400D01*
G03X278677Y135233I61J190D01*
G02X279736Y136150I1323J-459D01*
G37*
G36*
G01X293624Y139603D02*
G03X293341Y139599I-140J-143D01*
G02X292338Y139177I-1002J978D01*
G02Y141977I0J1400D01*
G02X293316Y141579I0J-1400D01*
G03X293599Y141583I140J143D01*
G02X294601Y142005I1002J-978D01*
G02Y139205I0J-1400D01*
G02X293624Y139603I0J1400D01*
G37*
G36*
G01X269581Y139796D02*
G03X269396Y140004I-200J8D01*
G02X268100Y141400I104J1396D01*
G02X270900I1400J0D01*
G02X270899Y141342I-1400J-1D01*
G03X271084Y141134I200J-8D01*
G02X272380Y139737I-104J-1396D01*
G02X269580I-1400J0D01*
G02X269581Y139796I1400J1D01*
G37*
G36*
G01X100830Y141907D02*
G03X101317Y142228I93J389D01*
G02X102500Y143224I1183J-204D01*
G02Y140823I0J-1200D01*
G02X102220Y140856I0J1200D01*
G03X101733Y140536I-93J-389D01*
G02X100550Y139540I-1183J204D01*
G02Y141940I0J1200D01*
G02X100830Y141907I0J-1200D01*
G37*
G36*
G01X287576Y142971D02*
G03X287068I-254J-309D01*
G02X286180Y142653I-888J1082D01*
G02Y145453I0J1400D01*
G02X287068Y145135I0J-1400D01*
G03X287576I254J309D01*
G02X288465Y145453I888J-1082D01*
G02Y142653I0J-1400D01*
G02X287576Y142971I0J1400D01*
G37*
G36*
G01X15941Y149200D02*
G03Y149800I-265J300D01*
G02X15400Y151000I1059J1200D01*
G02X18600I1600J0D01*
G02X18059Y149800I-1600J0D01*
G03Y149200I265J-300D01*
G02X18600Y148000I-1059J-1200D01*
G02X15400I-1600J0D01*
G02X15941Y149200I1600J0D01*
G37*
G36*
G01X304441Y152700D02*
G03Y153300I-265J300D01*
G02X303900Y154500I1059J1200D01*
G02X307100I1600J0D01*
G02X306559Y153300I-1600J0D01*
G03Y152700I265J-300D01*
G02X307100Y151500I-1059J-1200D01*
G02X303900I-1600J0D01*
G02X304441Y152700I1600J0D01*
G37*
G36*
G01X15708Y159696D02*
G03Y160336I-240J320D01*
G02X15068Y161616I960J1280D01*
G02X18268I1600J0D01*
G02X17628Y160336I-1600J0D01*
G03Y159696I240J-320D01*
G02X18268Y158416I-960J-1280D01*
G02X15068I-1600J0D01*
G02X15708Y159696I1600J0D01*
G37*
G36*
G01X116941Y160141D02*
G03X116461Y160441I-390J-90D01*
G02X116100Y160400I-361J1559D01*
G02Y163600I0J1600D01*
G02X117659Y162359I0J-1600D01*
G03X118139Y162059I390J90D01*
G02X118500Y162100I361J-1559D01*
G02Y158900I0J-1600D01*
G02X116941Y160141I0J1600D01*
G37*
G36*
G01X30590Y160430D02*
G03Y161070I-240J320D01*
G02X29950Y162350I960J1280D01*
G02X33150I1600J0D01*
G02X32510Y161070I-1600J0D01*
G03Y160430I240J-320D01*
G02X33150Y159150I-960J-1280D01*
G02X29950I-1600J0D01*
G02X30590Y160430I1600J0D01*
G37*
G36*
G01X127105Y160994D02*
G03X126772Y161423I-399J34D01*
G02X125600Y162805I228J1382D01*
G02X128400I1400J0D01*
G02X128395Y162684I-1400J0D01*
G03X128728Y162255I399J-34D01*
G02X129900Y160874I-228J-1381D01*
G02X127100I-1400J0D01*
G02X127105Y160994I1400J0D01*
G37*
G36*
G01X359616Y167706D02*
G03X359004Y167707I-306J-257D01*
G02X357782Y167140I-1222J1033D01*
G02Y170340I0J1600D01*
G02X359007Y169769I0J-1600D01*
G03X359619Y169768I306J257D01*
G02X360841Y170335I1222J-1033D01*
G02Y167134I0J-1600D01*
G02X359616Y167706I0J1600D01*
G37*
G36*
G01X2538Y167330D02*
G03X2514Y167886I-299J266D01*
G02X1856Y169412I1443J1526D01*
G02X6057I2100J0D01*
G02X5400Y167886I-2100J0D01*
G03X5376Y167330I275J-291D01*
G02X5857Y166066I-1419J-1264D01*
G02X5260Y164684I-1900J0D01*
G03Y164102I274J-291D01*
G02X5857Y162719I-1304J-1382D01*
G02X5260Y161337I-1900J0D01*
G03Y160755I274J-291D01*
G02X5857Y159373I-1304J-1382D01*
G02X5260Y157991I-1900J0D01*
G03Y157409I274J-291D01*
G02X5857Y156027I-1304J-1382D01*
G02X5260Y154644I-1900J0D01*
G03Y154062I274J-291D01*
G02X5857Y152680I-1304J-1382D01*
G02X5260Y151298I-1900J0D01*
G03Y150716I274J-291D01*
G02X5857Y149334I-1304J-1382D01*
G02X5376Y148070I-1900J0D01*
G03X5400Y147513I299J-266D01*
G02X6057Y145987I-1443J-1526D01*
G02X1856I-2100J0D01*
G02X2514Y147513I2100J0D01*
G03X2538Y148070I-275J291D01*
G02X2056Y149334I1419J1264D01*
G02X2653Y150716I1900J0D01*
G03Y151298I-274J291D01*
G02X2056Y152680I1304J1382D01*
G02X2653Y154062I1900J0D01*
G03Y154644I-274J291D01*
G02X2056Y156027I1304J1382D01*
G02X2653Y157409I1900J0D01*
G03Y157991I-274J291D01*
G02X2056Y159373I1304J1382D01*
G02X2653Y160755I1900J0D01*
G03Y161337I-274J291D01*
G02X2056Y162719I1304J1382D01*
G02X2653Y164102I1900J0D01*
G03Y164684I-274J291D01*
G02X2056Y166066I1304J1382D01*
G02X2538Y167330I1900J0D01*
G37*
G36*
G01X7171Y168112D02*
Y170712D01*
G02X7972Y171512I800J0D01*
G01X10572D01*
G02X11372Y170712I0J-800D01*
G01Y168112D01*
G02X11055Y167475I-800J0D01*
G03X10945Y166966I242J-319D01*
G02X11172Y166066I-1673J-901D01*
G02X10576Y164684I-1900J0D01*
G03Y164102I274J-291D01*
G02X11172Y162719I-1304J-1382D01*
G02X10576Y161337I-1900J0D01*
G03Y160755I274J-291D01*
G02X11172Y159373I-1304J-1382D01*
G02X10576Y157991I-1900J0D01*
G03Y157409I274J-291D01*
G02X11172Y156027I-1304J-1382D01*
G02X10576Y154644I-1900J0D01*
G03Y154062I274J-291D01*
G02X11172Y152680I-1304J-1382D01*
G02X10576Y151298I-1900J0D01*
G03Y150716I274J-291D01*
G02X11172Y149334I-1304J-1382D01*
G02X10691Y148070I-1900J0D01*
G03X10714Y147513I299J-266D01*
G02X11372Y145987I-1443J-1526D01*
G02X7171I-2100J0D01*
G02X7829Y147513I2100J0D01*
G03X7853Y148070I-275J291D01*
G02X7371Y149334I1419J1264D01*
G02X7968Y150716I1900J0D01*
G03Y151298I-274J291D01*
G02X7371Y152680I1304J1382D01*
G02X7968Y154062I1900J0D01*
G03Y154644I-274J291D01*
G02X7371Y156027I1304J1382D01*
G02X7968Y157409I1900J0D01*
G03Y157991I-274J291D01*
G02X7371Y159373I1304J1382D01*
G02X7968Y160755I1900J0D01*
G03Y161337I-274J291D01*
G02X7371Y162719I1304J1382D01*
G02X7968Y164102I1900J0D01*
G03Y164684I-274J291D01*
G02X7371Y166066I1304J1382D01*
G02X7598Y166966I1900J0D01*
G03X7488Y167475I-352J190D01*
G02X7171Y168112I484J638D01*
G37*
G36*
G01X147545Y180900D02*
G03X147953Y181365I13J400D01*
G02X147900Y182000I3797J635D01*
G02X151750Y178150I3850J0D01*
G02X149350Y178989I0J3850D01*
G03X148745Y178860I-249J-313D01*
G02X147500Y178100I-1245J640D01*
G02Y180900I0J1400D01*
G02X147545Y180900I1J-1400D01*
G37*
G36*
G01X197574Y180645D02*
G03X197999Y181133I35J398D01*
G02X197900Y182000I3751J867D01*
G02X201750Y178150I3850J0D01*
G02X199390Y178958I0J3850D01*
G03X198768Y178777I-245J-316D01*
G02X197450Y177850I-1318J473D01*
G02Y180650I0J1400D01*
G02X197574Y180645I0J-1400D01*
G37*
G36*
G01X212821Y177786D02*
G03X212358Y178198I-400J17D01*
G02X211750Y178150I-609J3802D01*
G02X215600Y182000I0J3850D01*
G02X214740Y179574I-3850J0D01*
G03X214866Y178967I311J-252D01*
G02X215620Y177725I-646J-1242D01*
G02X212820I-1400J0D01*
G02X212821Y177786I1400J1D01*
G37*
G36*
G01X346225Y15600D02*
G02X345400Y17000I775J1400D01*
G02X348600I1600J0D01*
G02X347775Y15600I-1600J0D01*
G03Y14900I194J-350D01*
G02X348600Y13500I-775J-1400D01*
G02X345400I-1600J0D01*
G02X346225Y14900I1600J0D01*
G03Y15600I-194J350D01*
G37*
G36*
G01X350225Y20600D02*
G02X349400Y22000I775J1400D01*
G02X352600I1600J0D01*
G02X351775Y20600I-1600J0D01*
G03Y19900I194J-350D01*
G02X352600Y18500I-775J-1400D01*
G02X349400I-1600J0D01*
G02X350225Y19900I1600J0D01*
G03Y20600I-194J350D01*
G37*
G36*
G01X87400Y36725D02*
G02X86000Y35900I-1400J775D01*
G02Y39100I0J1600D01*
G02X87400Y38275I0J-1600D01*
G03X88100I350J194D01*
G02X89500Y39100I1400J-775D01*
G02Y35900I0J-1600D01*
G02X88100Y36725I0J1600D01*
G03X87400I-350J-194D01*
G37*
G36*
G01X119100Y60275D02*
G02X120500Y61100I1400J-775D01*
G02X121862Y60340I0J-1600D01*
G03X122553Y60357I340J210D01*
G02X123955Y61186I1402J-771D01*
G02Y57985I0J-1600D01*
G02X122593Y58746I0J1600D01*
G03X121902Y58729I-340J-210D01*
G02X120500Y57900I-1402J771D01*
G02X119100Y58725I0J1600D01*
G03X118400I-350J-194D01*
G02X117000Y57900I-1400J775D01*
G02Y61100I0J1600D01*
G02X118400Y60275I0J-1600D01*
G03X119100I350J194D01*
G37*
G36*
G01X403660Y65657D02*
G02X402300Y64900I-1360J843D01*
G02Y68100I0J1600D01*
G02X403660Y67343I0J-1600D01*
G03X404340I340J211D01*
G02X405700Y68100I1360J-843D01*
G02Y64900I0J-1600D01*
G02X404340Y65657I0J1600D01*
G03X403660I-340J-211D01*
G37*
G36*
G01X90534Y66604D02*
G02X89681Y68018I748J1415D01*
G02X92882I1600J0D01*
G02X92029Y66604I-1600J0D01*
G03Y65896I187J-354D01*
G02X92882Y64482I-748J-1415D01*
G02X89681I-1600J0D01*
G02X90534Y65896I1600J0D01*
G03Y66604I-187J354D01*
G37*
G36*
G01X85825Y71100D02*
G02X85000Y72500I775J1400D01*
G02X88200I1600J0D01*
G02X87375Y71100I-1600J0D01*
G03Y70400I194J-350D01*
G02X88200Y69000I-775J-1400D01*
G02X85000I-1600J0D01*
G02X85825Y70400I1600J0D01*
G03Y71100I-194J350D01*
G37*
G36*
G01X233130Y73905D02*
G02X233000Y73900I-130J1595D01*
G02X234600Y75500I0J1600D01*
G02X234414Y74751I-1600J0D01*
G03X234800Y74165I353J-187D01*
G02X234930Y74170I130J-1595D01*
G02X236456Y73053I0J-1600D01*
G03X236984Y72802I381J121D01*
G02X237500Y72900I516J-1302D01*
G02X238395Y72577I0J-1400D01*
G03X238906I255J308D01*
G02X239800Y72900I894J-1077D01*
G02X240762Y72517I0J-1400D01*
G03X241038I138J145D01*
G02X242000Y72900I962J-1017D01*
G02Y70100I0J-1400D01*
G02X241038Y70483I0J1400D01*
G03X240762I-137J-145D01*
G02X239800Y70100I-962J1017D01*
G02X238906Y70423I0J1400D01*
G03X238395I-256J-308D01*
G02X237500Y70100I-894J1077D01*
G02X236213Y70949I0J1400D01*
G03X235662Y71147I-368J-157D01*
G02X234930Y70970I-732J1423D01*
G02X233330Y72570I0J1600D01*
G02X233516Y73319I1600J0D01*
G03X233130Y73905I-353J187D01*
G37*
G36*
G01X205922Y77736D02*
G02X204500Y76869I-1422J733D01*
G02Y80070I0J1600D01*
G02X205878Y79283I0J-1600D01*
G03X206578Y79303I344J203D01*
G02X208000Y80170I1422J-733D01*
G02Y76970I0J-1600D01*
G02X206622Y77756I0J1600D01*
G03X205922Y77736I-344J-203D01*
G37*
G36*
G01X296900Y80725D02*
G02X295500Y79900I-1400J775D01*
G02Y83100I0J1600D01*
G02X296900Y82275I0J-1600D01*
G03X297600I350J194D01*
G02X299000Y83100I1400J-775D01*
G02Y79900I0J-1600D01*
G02X297600Y80725I0J1600D01*
G03X296900I-350J-194D01*
G37*
G36*
G01X252392Y83741D02*
G02X252180Y84423I988J682D01*
G02X254580I1200J0D01*
G02X253708Y83268I-1200J0D01*
G03X253488Y82656I109J-385D01*
G02X253700Y81975I-988J-682D01*
G02X252542Y80775I-1200J0D01*
G03X252188Y80219I14J-400D01*
G02X252284Y79750I-1105J-469D01*
G02X249883I-1200J0D01*
G02X251041Y80950I1200J0D01*
G03X251395Y81506I-14J400D01*
G02X251300Y81975I1105J469D01*
G02X252172Y83129I1200J0D01*
G03X252392Y83741I-109J385D01*
G37*
G36*
G01X40566Y84701D02*
G02X39900Y86000I935J1299D01*
G02X43100I1600J0D01*
G02X42434Y84701I-1600J0D01*
G03Y84052I234J-325D01*
G02X43100Y82753I-935J-1299D01*
G02X39900I-1600J0D01*
G02X40566Y84052I1600J0D01*
G03Y84701I-234J325D01*
G37*
G36*
G01X206070Y89909D02*
G02X205900Y89900I-169J1591D01*
G02X207500Y91500I0J1600D01*
G02X207410Y90971I-1600J0D01*
G03X207830Y90441I378J-132D01*
G02X208000Y90450I169J-1591D01*
G02X206400Y88850I0J-1600D01*
G02X206490Y89379I1600J0D01*
G03X206070Y89909I-378J132D01*
G37*
G36*
G01X258360Y95762D02*
G02X258340Y95980I1180J218D01*
G02X259540Y94780I1200J0D01*
G02X259285Y94807I0J1200D01*
G03X258806Y94344I-85J-391D01*
G02X258826Y94126I-1180J-218D01*
G02X257626Y95326I-1200J0D01*
G02X257882Y95299I0J-1200D01*
G03X258360Y95762I85J391D01*
G37*
G36*
G01X85825Y96100D02*
G02X85000Y97500I775J1400D01*
G02X88200I1600J0D01*
G02X87375Y96100I-1600J0D01*
G03Y95400I194J-350D01*
G02X88200Y94000I-775J-1400D01*
G02X85000I-1600J0D01*
G02X85825Y95400I1600J0D01*
G03Y96100I-194J350D01*
G37*
G36*
G01X40725Y98100D02*
G02X39900Y99500I775J1400D01*
G02X43100I1600J0D01*
G02X42275Y98100I-1600J0D01*
G03Y97400I194J-350D01*
G02Y94600I-775J-1400D01*
G03Y93900I194J-350D01*
G02X43100Y92500I-775J-1400D01*
G02X39900I-1600J0D01*
G02X40725Y93900I1600J0D01*
G03Y94600I-194J350D01*
G02Y97400I775J1400D01*
G03Y98100I-194J350D01*
G37*
G36*
G01X266144Y99703D02*
G02X266117Y99956I1173J253D01*
G02X267317Y98755I1200J0D01*
G02X267104Y98774I0J1200D01*
G03X266642Y98297I-71J-394D01*
G02X266669Y98044I-1173J-253D01*
G02X266635Y97758I-1200J0D01*
G03X267102Y97271I388J-95D01*
G02X267337Y97294I235J-1177D01*
G02X266137Y96094I0J-1200D01*
G02X266171Y96380I1200J0D01*
G03X265704Y96867I-388J95D01*
G02X265469Y96844I-235J1177D01*
G02X265245Y96865I0J1200D01*
G03X264781Y96383I-75J-393D01*
G02X264811Y96116I-1170J-268D01*
G02X264521Y95333I-1200J0D01*
G03X264524Y94808I303J-261D01*
G02X264822Y94016I-901J-793D01*
G02X264803Y93800I-1200J0D01*
G03X265272Y93336I394J-72D01*
G02X265500Y93357I228J-1178D01*
G02X264300Y92157I0J-1200D01*
G02X264319Y92373I1200J0D01*
G03X263850Y92837I-394J72D01*
G02X263622Y92815I-228J1178D01*
G02X262422Y94016I0J1200D01*
G02X262712Y94798I1200J0D01*
G03X262709Y95323I-303J261D01*
G02X262410Y96116I901J792D01*
G02X263611Y97316I1200J0D01*
G02X263834Y97295I0J-1200D01*
G03X264299Y97777I75J393D01*
G02X264269Y98044I1170J268D01*
G02X265469Y99244I1200J0D01*
G02X265682Y99225I0J-1200D01*
G03X266144Y99703I71J394D01*
G37*
G36*
G01X252564Y99709D02*
G02X252520Y100031I1156J323D01*
G02X253720Y98831I1200J0D01*
G02X253389Y98878I0J1200D01*
G03X252893Y98386I-110J-384D01*
G02X252937Y98063I-1156J-323D01*
G02X251737Y99263I-1200J0D01*
G02X252068Y99217I0J-1200D01*
G03X252564Y99709I110J384D01*
G37*
G36*
G01X267639Y102781D02*
G02X267469Y102769I-170J1188D01*
G02X268669Y103969I0J1200D01*
G02X268653Y103773I-1200J0D01*
G03X269104Y103312I395J-65D01*
G02X269274Y103324I170J-1188D01*
G02X268074Y102124I0J-1200D01*
G02X268090Y102320I1200J0D01*
G03X267639Y102781I-395J65D01*
G37*
G36*
G01X318874Y103435D02*
G02X317859Y103000I-1015J965D01*
G02Y105800I0J1400D01*
G02X319023Y105178I0J-1400D01*
G03X319645Y105125I332J222D01*
G02X320660Y105560I1015J-965D01*
G02X321642Y105158I0J-1400D01*
G03X322213Y105166I281J285D01*
G02X323226Y105600I1013J-966D01*
G02Y102800I0J-1400D01*
G02X322243Y103202I0J1400D01*
G03X321673Y103194I-281J-285D01*
G02X320660Y102760I-1013J966D01*
G02X319496Y103382I0J1400D01*
G03X318874Y103435I-332J-222D01*
G37*
G36*
G01X274133Y105712D02*
G02X274112Y105937I1179J225D01*
G02X275312Y104737I1200J0D01*
G02X275014Y104774I0J1200D01*
G03X274522Y104312I-99J-387D01*
G02X274543Y104087I-1179J-225D01*
G02X273343Y105287I-1200J0D01*
G02X273641Y105250I0J-1200D01*
G03X274133Y105712I99J387D01*
G37*
G36*
G01X415325Y108100D02*
G02X414500Y109500I775J1400D01*
G02X417700I1600J0D01*
G02X416875Y108100I-1600J0D01*
G03Y107400I194J-350D01*
G02X417700Y106000I-775J-1400D01*
G02X414500I-1600J0D01*
G02X415325Y107400I1600J0D01*
G03Y108100I-194J350D01*
G37*
G36*
G01X268243Y109674D02*
G02X268200Y109993I1157J319D01*
G02X269400Y108793I1200J0D01*
G02X269085Y108835I0J1200D01*
G03X268594Y108343I-105J-386D01*
G02X268637Y108024I-1157J-319D01*
G02X267437Y109224I-1200J0D01*
G02X267752Y109182I0J-1200D01*
G03X268243Y109674I105J386D01*
G37*
G36*
G01X311567Y111226D02*
G03X312177I305J259D01*
G02X313244Y111720I1067J-907D01*
G02Y108920I0J-1400D01*
G02X312177Y109414I0J1400D01*
G03X311567I-305J-259D01*
G02X310500Y108920I-1067J907D01*
G02X309424Y109424I0J1400D01*
G03X308792Y109402I-307J-256D01*
G02X307656Y108820I-1136J818D01*
G02X307260Y108877I0J1400D01*
G03X306781Y108655I-113J-384D01*
G02X305500Y107820I-1281J565D01*
G02Y110620I0J1400D01*
G02X305896Y110563I0J-1400D01*
G03X306375Y110785I113J384D01*
G02X307656Y111620I1281J-565D01*
G02X308732Y111116I0J-1400D01*
G03X309364Y111138I307J256D01*
G02X310500Y111720I1136J-818D01*
G02X311567Y111226I0J-1400D01*
G37*
G36*
G01X264208Y111566D02*
G02X264147Y111946I1139J379D01*
G02X265347Y110745I1200J0D01*
G02X265100Y110771I0J1200D01*
G03X264639Y110253I-82J-391D01*
G02X264700Y109874I-1139J-379D01*
G02X264305Y108984I-1200J0D01*
G03Y108390I268J-297D01*
G02X264700Y107500I-805J-890D01*
G02X263500Y106300I-1200J0D01*
G02X263220Y106333I0J1200D01*
G03X262728Y105913I-93J-389D01*
G02X262731Y105819I-1196J-94D01*
G02X261531Y104619I-1200J0D01*
G02X261248Y104653I0J1200D01*
G03X260756Y104220I-94J-389D01*
G02X260763Y104087I-1193J-133D01*
G02X259563Y102887I-1200J0D01*
G02X259320Y102912I0J1200D01*
G03X258861Y102390I-81J-392D01*
G02X258926Y102000I-1135J-390D01*
G02X258915Y101834I-1200J0D01*
G03X259343Y101380I396J-55D01*
G02X259438Y101384I95J-1196D01*
G02Y98984I0J-1200D01*
G02X259118Y99027I0J1200D01*
G03X258628Y98527I-107J-386D01*
G02X258678Y98185I-1150J-343D01*
G02X257478Y96984I-1200J0D01*
G02X257224Y97012I0J1200D01*
G03X256761Y96491I-85J-391D01*
G02X256826Y96100I-1135J-390D01*
G02X255626Y97300I-1200J0D01*
G02X255880Y97273I0J-1200D01*
G03X256343Y97794I85J391D01*
G02X256277Y98185I1135J390D01*
G02X257478Y99385I1200J0D01*
G02X257798Y99342I0J-1200D01*
G03X258288Y99841I107J386D01*
G02X258238Y100184I1150J343D01*
G02X258249Y100350I1200J0D01*
G03X257821Y100804I-396J55D01*
G02X257726Y100800I-95J1196D01*
G02Y103200I0J1200D01*
G02X257969Y103175I0J-1200D01*
G03X258428Y103697I81J392D01*
G02X258363Y104087I1135J390D01*
G02X258395Y104362I1200J0D01*
G03X257903Y104840I-389J92D01*
G02X257594Y104800I-308J1160D01*
G02Y107200I0J1200D01*
G02X257870Y107168I0J-1200D01*
G03X258347Y107668I92J389D01*
G02X258300Y108000I1153J332D01*
G02X258322Y108229I1200J0D01*
G03X257850Y108698I-393J76D01*
G02X257613Y108674I-237J1176D01*
G02X257297Y108716I0J1200D01*
G03X256800Y108248I-105J-386D01*
G02X256826Y108000I-1174J-248D01*
G02X255626Y109200I-1200J0D01*
G02X255942Y109158I0J-1200D01*
G03X256439Y109626I105J386D01*
G02X256413Y109874I1174J248D01*
G02X258813I1200J0D01*
G02X258791Y109645I-1200J0D01*
G03X259263Y109177I393J-76D01*
G02X259500Y109200I237J-1176D01*
G02Y106800I0J-1200D01*
G02X259224Y106832I0J1200D01*
G03X258747Y106332I-92J-389D01*
G02X258794Y106000I-1153J-332D01*
G02X258762Y105725I-1200J0D01*
G03X259255Y105247I389J-92D01*
G02X259563Y105287I308J-1160D01*
G02X259846Y105253I0J-1200D01*
G03X260338Y105686I94J389D01*
G02X260331Y105819I1193J133D01*
G02X261531Y107019I1200J0D01*
G02X261811Y106986I0J-1200D01*
G03X262304Y107406I93J389D01*
G02X262300Y107500I1196J94D01*
G02X262695Y108390I1200J0D01*
G03Y108984I-268J297D01*
G02X262300Y109874I805J890D01*
G02X263500Y111074I1200J0D01*
G02X263747Y111049I0J-1200D01*
G03X264208Y111566I82J391D01*
G37*
G36*
G01X313167Y114546D02*
G02X312000Y113920I-1167J774D01*
G02Y116720I0J1400D01*
G02X313167Y116094I0J-1400D01*
G03X313833I333J221D01*
G02X315000Y116720I1167J-774D01*
G02Y113920I0J-1400D01*
G02X313833Y114546I0J1400D01*
G03X313167I-333J-221D01*
G37*
G36*
G01X307652Y120247D02*
G02X308818Y120873I1167J-774D01*
G02X310038Y120161I0J-1400D01*
G03X310745Y120180I348J197D01*
G02X312000Y120960I1255J-620D01*
G02X313167Y120334I0J-1400D01*
G03X313833I333J221D01*
G02X315000Y120960I1167J-774D01*
G02Y118160I0J-1400D01*
G02X313833Y118786I0J1400D01*
G03X313167I-333J-221D01*
G02X312000Y118160I-1167J774D01*
G02X310781Y118872I0J1400D01*
G03X310074Y118852I-348J-197D01*
G02X308818Y118073I-1255J620D01*
G02X307652Y118699I0J1400D01*
G03X306985I-333J-221D01*
G02X305818Y118073I-1167J774D01*
G02Y120873I0J1400D01*
G02X306985Y120247I0J-1400D01*
G03X307652I333J221D01*
G37*
G36*
G01X101388Y126790D02*
G02X100470Y126362I-918J773D01*
G02Y128763I0J1200D01*
G02X101425Y128289I0J-1200D01*
G03X102050Y128273I318J242D01*
G02X102968Y128700I918J-773D01*
G02Y126300I0J-1200D01*
G02X102012Y126774I0J1200D01*
G03X101388Y126790I-318J-242D01*
G37*
G36*
G01X259732Y131305D02*
G02X259600Y131900I1268J595D01*
G02X261000Y133300I1400J0D01*
G02X261994Y132887I0J-1400D01*
G03X262268Y132878I142J141D01*
G02X263199Y133232I931J-1046D01*
G02X264599Y131832I0J-1400D01*
G02X264168Y130821I-1400J0D01*
G03X264246Y130186I277J-289D01*
G02X264950Y128971I-696J-1215D01*
G02X262150I-1400J0D01*
G02X262581Y129981I1400J0D01*
G03X262503Y130617I-277J289D01*
G02X262206Y130845I696J1215D01*
G03X261931Y130854I-142J-141D01*
G02X261664Y130667I-930J1046D01*
G03X261577Y130406I95J-176D01*
G02X261710Y129811I-1268J-595D01*
G02X258910I-1400J0D01*
G02X259646Y131044I1400J0D01*
G03X259732Y131305I-95J176D01*
G37*
G36*
G01X192646Y134276D02*
G02X191500Y133680I-1146J804D01*
G02Y136480I0J1400D01*
G02X192687Y135822I0J-1400D01*
G03X193354Y135804I339J212D01*
G02X194500Y136400I1146J-804D01*
G02Y133600I0J-1400D01*
G02X193313Y134258I0J1400D01*
G03X192646Y134276I-339J-212D01*
G37*
G36*
G01X104436Y135073D02*
G02X104268Y135687I1031J614D01*
G02X106668I1200J0D01*
G02X105912Y134572I-1200J0D01*
G03X105716Y133996I148J-372D01*
G02X105885Y133382I-1031J-614D01*
G02X103484I-1200J0D01*
G02X104241Y134497I1200J0D01*
G03X104436Y135073I-148J372D01*
G37*
G36*
G01X130693Y135287D02*
G02X129868Y136687I775J1400D01*
G02X133068I1600J0D01*
G02X132243Y135287I-1600J0D01*
G03Y134587I194J-350D01*
G02X133068Y133187I-775J-1400D01*
G02X129868I-1600J0D01*
G02X130693Y134587I1600J0D01*
G03Y135287I-194J350D01*
G37*
G36*
G01X48225Y139100D02*
G02X47400Y140500I775J1400D01*
G02X50600I1600J0D01*
G02X49775Y139100I-1600J0D01*
G03Y138400I194J-350D01*
G02X50600Y137000I-775J-1400D01*
G02X47400I-1600J0D01*
G02X48225Y138400I1600J0D01*
G03Y139100I-194J350D01*
G37*
G36*
G01X52225D02*
G02X51400Y140500I775J1400D01*
G02X54600I1600J0D01*
G02X53775Y139100I-1600J0D01*
G03Y138400I194J-350D01*
G02X54600Y137000I-775J-1400D01*
G02X51400I-1600J0D01*
G02X52225Y138400I1600J0D01*
G03Y139100I-194J350D01*
G37*
G36*
G01X333679Y144170D02*
G02X332530Y143570I-1149J800D01*
G02Y146370I0J1400D01*
G02X333679Y145770I0J-1400D01*
G03X334336I328J228D01*
G02X335485Y146370I1149J-800D01*
G02Y143570I0J-1400D01*
G02X334336Y144170I0J1400D01*
G03X333679I-328J-228D01*
G37*
G36*
G01X370330Y144452D02*
G02X369500Y144220I-830J1368D01*
G02Y147420I0J1600D01*
G02X371070Y146132I0J-1600D01*
G03X371670Y145868I392J78D01*
G02X372500Y146100I831J-1368D01*
G02X374002Y145053I0J-1600D01*
G03X374502Y144811I375J138D01*
G02X375000Y144890I498J-1521D01*
G02Y141690I0J-1600D01*
G02X373498Y142737I0J1600D01*
G03X372998Y142979I-375J-138D01*
G02X372500Y142900I-498J1521D01*
G02X370930Y144188I0J1600D01*
G03X370330Y144452I-392J-78D01*
G37*
G36*
G01X113544Y145771D02*
G02X113368Y146500I1425J729D01*
G02X114968Y144900I1600J0D01*
G02X114594Y144944I0J1600D01*
G03X114126Y144416I-94J-389D01*
G02X114200Y144000I-1126J-417D01*
G02X113000Y145200I-1200J0D01*
G02X113141Y145192I0J-1200D01*
G03X113544Y145771I47J397D01*
G37*
G36*
G01X173100Y147275D02*
G02X175900I1400J-775D01*
G03X176600I350J194D01*
G02X178000Y148100I1400J-775D01*
G02Y144900I0J-1600D01*
G02X176600Y145725I0J1600D01*
G03X175900I-350J-194D01*
G02X173100I-1400J775D01*
G03X172400I-350J-194D01*
G02X171000Y144900I-1400J775D01*
G02X170190Y145120I0J1600D01*
G03X169590Y144820I-202J-345D01*
G02X168000Y143400I-1590J180D01*
G02Y146600I0J1600D01*
G02X168810Y146380I0J-1600D01*
G03X169410Y146680I202J345D01*
G02X171000Y148100I1590J-180D01*
G02X172400Y147275I0J-1600D01*
G03X173100I350J194D01*
G37*
G36*
G01X135795Y147802D02*
G02X134970Y149202I775J1400D01*
G02X138170I1600J0D01*
G02X137345Y147802I-1600J0D01*
G03Y147102I194J-350D01*
G02X138170Y145702I-775J-1400D01*
G02X134970I-1600J0D01*
G02X135795Y147102I1600J0D01*
G03Y147802I-194J350D01*
G37*
G36*
G01X89598Y150438D02*
G02X89496Y151000I1498J562D01*
G02X91096Y149400I1600J0D01*
G02X90901Y149412I0J1600D01*
G03X90469Y148900I-49J-397D01*
G02X90528Y148500I-1342J-400D01*
G02X89128Y149900I-1400J0D01*
G02X89202Y149898I0J-1400D01*
G03X89598Y150438I21J399D01*
G37*
G36*
G01X193524Y153782D02*
G02X192250Y153150I-1274J968D01*
G02Y156350I0J1600D01*
G02X193576Y155646I0J-1600D01*
G03X194226Y155628I331J224D01*
G02X195500Y156260I1274J-968D01*
G02Y153060I0J-1600D01*
G02X194174Y153764I0J1600D01*
G03X193524Y153782I-331J-224D01*
G37*
G36*
G01X104400Y161225D02*
G02X103000Y160400I-1400J775D01*
G02Y163600I0J1600D01*
G02X104400Y162775I0J-1600D01*
G03X105100I350J194D01*
G02X106500Y163600I1400J-775D01*
G02Y160400I0J-1600D01*
G02X105100Y161225I0J1600D01*
G03X104400I-350J-194D01*
G37*
G36*
G01X158904Y166189D02*
G02X158900Y166298I1596J109D01*
G02X160500Y164697I1600J0D01*
G02X159697Y164914I0J1600D01*
G03X159097Y164540I-201J-346D01*
G02X159101Y164432I-1596J-109D01*
G02X157500Y166032I-1600J0D01*
G02X158304Y165816I0J-1600D01*
G03X158904Y166189I201J346D01*
G37*
G36*
G01X253608Y166540D02*
G02X253167Y166468I-441J1329D01*
G02Y169269I0J1400D01*
G02X254560Y168015I0J-1400D01*
G03X255084Y167678I398J42D01*
G02X255524Y167749I441J-1329D01*
G02Y164948I0J-1400D01*
G02X254132Y166202I0J1400D01*
G03X253608Y166540I-398J-42D01*
G37*
G36*
G01X273667Y167706D02*
G02X272500Y167080I-1167J774D01*
G02Y169880I0J1400D01*
G02X273667Y169254I0J-1400D01*
G03X274333I333J221D01*
G02X275500Y169880I1167J-774D01*
G02Y167080I0J-1400D01*
G02X274333Y167706I0J1400D01*
G03X273667I-333J-221D01*
G37*
G36*
G01X351192Y174175D02*
G02X350034Y173680I-1157J1105D01*
G02Y176880I0J1600D01*
G02X351250Y176321I0J-1600D01*
G03X351843Y176305I304J260D01*
G02X353000Y176800I1157J-1105D01*
G02X354416Y175946I0J-1600D01*
G03X355052Y175849I354J186D01*
G02X356180Y176314I1128J-1135D01*
G02Y173114I0J-1600D01*
G02X354764Y173968I0J1600D01*
G03X354128Y174065I-354J-186D01*
G02X353000Y173600I-1128J1135D01*
G02X351785Y174159I0J1600D01*
G03X351192Y174175I-304J-260D01*
G37*
G36*
G01X233820Y188254D02*
G02X233086Y189600I866J1346D01*
G02X236287I1600J0D01*
G02X235728Y188386I-1600J0D01*
G03X235772Y187746I260J-304D01*
G02X236507Y186400I-866J-1346D01*
G02X233306I-1600J0D01*
G02X233864Y187614I1600J0D01*
G03X233820Y188254I-260J304D01*
G37*
G36*
G01X143970Y153793D02*
G03X144497Y153791I264J300D01*
G02X145425Y154142I928J-1049D01*
G02X146782Y153084I0J-1400D01*
G03X147468Y152915I388J98D01*
G02X148510Y153380I1042J-935D01*
G02Y150580I0J-1400D01*
G02X147152Y151638I0J1400D01*
G03X146467Y151807I-388J-98D01*
G02X145425Y151342I-1042J935D01*
G02X144497Y151693I0J1400D01*
G03X143970Y151691I-262J-302D01*
G02X143045Y151342I-925J1051D01*
G02Y154142I0J1400D01*
G02X143970Y153793I0J-1400D01*
G37*
G36*
G01X164000Y24600D02*
G02Y21400I0J-1600D01*
G02X162825Y21914I0J1600D01*
G03X162238I-294J-272D01*
G02X161063Y21400I-1175J1086D01*
G02Y24600I0J1600D01*
G02X162238Y24087I0J-1600D01*
G03X162825I294J272D01*
G02X164000Y24600I1175J-1086D01*
G37*
G54D28*
X30550Y3000D03*
X25750Y187800D03*
G54D44*
X365500Y102500D03*
X378500D03*
X387000Y110000D03*
X392905Y115095D03*
X381650Y118831D03*
X392905Y119032D03*
X389000Y119000D03*
X392905Y122968D03*
X385000Y126874D03*
X392600Y130450D03*
X392905Y126905D03*
G54D26*
X70500Y28000D03*
X74500D03*
X159500Y47500D03*
X168500Y48000D03*
X164500D03*
X162500Y-3000D03*
X228360Y-1280D03*
X257000Y-3000D03*
X304100Y-1700D03*
X41500Y2000D03*
Y7000D03*
Y12000D03*
X235000Y11000D03*
X41500Y17000D03*
X88000Y19000D03*
X95500D03*
X167500Y18000D03*
X190000Y18500D03*
X219326Y19000D03*
X235607Y17860D03*
X102500Y22500D03*
X190000D03*
X194500D03*
X216250Y22967D03*
X233074Y21500D03*
X347000Y23320D03*
X84500Y28000D03*
X347000Y27000D03*
X417000Y25000D03*
X32500Y31000D03*
X49960Y28960D03*
X57440Y28940D03*
X67500Y31000D03*
X348000Y32000D03*
X351680Y32172D03*
X410500Y29000D03*
X321500Y35000D03*
X317500Y36000D03*
X47500Y41500D03*
X79037Y37546D03*
X98500Y41500D03*
X302000Y38000D03*
X323500Y38650D03*
X85750Y44250D03*
X107719Y44740D03*
X309500Y42500D03*
X316000D03*
X363500Y46000D03*
X374500Y42500D03*
X390500D03*
X397500D03*
X404858Y42600D03*
X71500Y48806D03*
X76000Y48500D03*
X309320Y46300D03*
X356000Y49000D03*
X413000Y49500D03*
X56000Y52000D03*
X101000Y54500D03*
X149000Y53750D03*
X315500Y50500D03*
X319500D03*
X340900Y52000D03*
X98500Y57550D03*
X165000Y58000D03*
X256500Y58725D03*
X405000Y58000D03*
X112000Y59500D03*
X145950Y61500D03*
X261512Y59987D03*
X295000Y61000D03*
X40500Y64000D03*
X145950Y65500D03*
X160780Y64750D03*
X199963Y65680D03*
X204000Y65500D03*
X398500Y66500D03*
X41000Y71000D03*
X101500Y72000D03*
X145950Y69500D03*
X196750D03*
X134500Y73015D03*
X145950Y73500D03*
X154133Y73559D03*
X183267Y74906D03*
X194676Y75574D03*
X239500Y75500D03*
X107000Y77500D03*
X143000Y80500D03*
X152640Y79000D03*
X171000Y78500D03*
X177000Y79000D03*
X186300Y77420D03*
X288000Y81400D03*
X305000Y80000D03*
X420080Y79900D03*
X208026Y84210D03*
X318500Y82500D03*
X323000D03*
X361500Y84500D03*
X188033Y89822D03*
X312457Y89957D03*
X331000Y87659D03*
X374000Y87500D03*
X158650Y96050D03*
X165000Y96180D03*
X231449Y97680D03*
X322773Y97000D03*
X344426Y98506D03*
X115000Y100500D03*
X189250Y101000D03*
X295278Y102940D03*
X41500Y108000D03*
X190140Y107280D03*
X344426Y104320D03*
X41500Y112000D03*
X61500Y110000D03*
X139500Y109000D03*
X162000Y110000D03*
X166000D03*
X182500Y109000D03*
X291716Y109720D03*
X390937Y110063D03*
X61500Y114000D03*
X135000Y115500D03*
X193000Y115700D03*
X367000Y113500D03*
X415800D03*
X118500Y120500D03*
X410500Y119800D03*
X56500Y122900D03*
X114500Y124500D03*
X137669Y125000D03*
X191180Y123442D03*
X360000Y125000D03*
X81500Y133688D03*
X118718Y134437D03*
X363500Y132000D03*
X383300Y134500D03*
X116968Y138687D03*
X355066Y135600D03*
X370500Y135220D03*
X116892Y143108D03*
X184500Y142840D03*
X400500Y140000D03*
X418000D03*
X163878Y145000D03*
X362000Y144320D03*
X398500Y148500D03*
X405500Y144500D03*
X297400Y155680D03*
X390500Y156000D03*
X162514Y158840D03*
X166000Y157900D03*
X178448Y157946D03*
X288000Y159320D03*
X371516Y158891D03*
X76500Y162000D03*
X96000D03*
X264500Y165340D03*
X364000Y166500D03*
X368039D03*
X387974D03*
X416000D03*
X98500Y174000D03*
X165120Y170920D03*
X168977D03*
X403000Y171000D03*
X408500Y175000D03*
X112000Y176500D03*
X229820Y179606D03*
X236630Y178153D03*
X231994Y183569D03*
X229980Y187054D03*
X239640Y185389D03*
X242143Y188033D03*
X-6000Y193000D03*
X228180Y191500D03*
X239546Y192411D03*
X-6000Y197000D03*
X5500D03*
X228500Y197500D03*
X233439Y193500D03*
X143500Y199180D03*
X149000D03*
X186500Y199720D03*
X232967Y198160D03*
X399500Y199500D03*
X395000Y154000D03*
X401234Y163320D03*
X408500Y163500D03*
X121000Y19000D03*
X117000Y17000D03*
X160000Y18500D03*
X117500Y88000D03*
X113807Y87807D03*
X123955Y88000D03*
X84500Y162000D03*
X89500D03*
X411000Y95500D03*
X406000Y100500D03*
G54D43*
X259444Y90189D03*
X267500D03*
X277280Y90189D03*
X281000Y87500D03*
X255507Y92157D03*
X261426Y98184D03*
X271474Y96095D03*
X269406Y98063D03*
X275428Y97940D03*
X273324Y99931D03*
X253657Y103900D03*
X251689Y106000D03*
X271474Y107994D03*
X269524Y105937D03*
X259444Y113856D03*
X267437Y113830D03*
X87968Y119827D03*
X99500Y119000D03*
X240324Y118463D03*
X93500Y126200D03*
X96998Y126297D03*
X106453Y126259D03*
X100938Y134167D03*
X85000Y136048D03*
X91078Y136049D03*
X112968Y135187D03*
X90468Y140187D03*
G54D34*
X131550Y2050D03*
X141550D03*
X252000D03*
Y12050D03*
X236000Y31500D03*
X246000D03*
X256000D03*
X266000D03*
X276000D03*
X236000Y41500D03*
X246000D03*
X256000D03*
X266000D03*
X276000D03*
X291800Y45000D03*
X95500Y107000D03*
X105500D03*
X122000D03*
X51300Y150500D03*
Y164500D03*
X76000Y192000D03*
G54D27*
X160400Y40250D03*
X140400D03*
X246500Y182000D03*
X256500D03*
X266500D03*
X276500D03*
X286500D03*
X296500D03*
X306500D03*
X316500D03*
X326500D03*
X336500D03*
X346500D03*
X356500D03*
X366500D03*
X376500D03*
X386500D03*
X396500D03*
X246500Y192000D03*
X256500D03*
X266500D03*
X276500D03*
X286500D03*
X306500D03*
X316500D03*
X326500D03*
X336500D03*
X346500D03*
X356500D03*
X366500D03*
X376500D03*
X386500D03*
X396500D03*
G54D38*
X427000Y31524D03*
Y41524D03*
Y51524D03*
Y61524D03*
Y71524D03*
Y81524D03*
Y91524D03*
Y101524D03*
Y111524D03*
Y121524D03*
Y131524D03*
Y141524D03*
Y151524D03*
G54D37*
X239500Y23620D03*
X248000Y25180D03*
X251500Y25620D03*
X271091Y58880D03*
X156350Y87500D03*
X218630Y88750D03*
X214630Y92161D03*
X210420Y95928D03*
X192800Y100940D03*
X214600Y100500D03*
X213500Y111000D03*
X325464Y112680D03*
X114428Y119387D03*
X224829Y120120D03*
X292500Y119000D03*
X238287Y124179D03*
X156200Y127000D03*
X247181Y129973D03*
X274940Y129534D03*
X296265Y128440D03*
X186500Y134720D03*
X201852Y133271D03*
X204320Y131160D03*
X266834Y134000D03*
X324166Y134440D03*
X327500Y134400D03*
X336500Y132280D03*
X153427Y138000D03*
X277249Y139031D03*
X336480Y137520D03*
X247281Y142699D03*
X262427Y143280D03*
X298006Y140760D03*
X343380Y142084D03*
X339709Y143000D03*
X140520Y146400D03*
X155000Y145500D03*
X190481Y147481D03*
X278716Y147213D03*
X294500Y146820D03*
X340000Y146500D03*
X100939Y149187D03*
X163000Y150680D03*
X181000Y150329D03*
X187880Y152440D03*
X193200Y149400D03*
X205020Y152800D03*
X217000Y149280D03*
X223260Y151160D03*
X229980Y149280D03*
X249307Y152320D03*
X255480Y151380D03*
X138305Y154000D03*
X163000Y154660D03*
X211350Y156500D03*
X249000Y157389D03*
X269554Y155140D03*
X274600Y154100D03*
X329766Y155957D03*
X132500Y160500D03*
X136500D03*
X215205Y160933D03*
X253781Y161081D03*
X342858Y161540D03*
X143571Y163118D03*
X203140Y166119D03*
X223237Y162720D03*
X258280Y163600D03*
X144020Y168560D03*
X206030Y167529D03*
X237308Y169030D03*
X323640Y168902D03*
X354256Y166900D03*
X139520Y171250D03*
X245988Y173613D03*
X249320Y173440D03*
X259480Y172500D03*
X280500Y171560D03*
X155500Y177058D03*
X291000Y179000D03*
X315520Y176480D03*
X281500Y199240D03*
X295885Y200005D03*
X150153Y149022D03*
X144000Y146400D03*
X152810Y153464D03*
G54D31*
X-2500Y0D03*
X329500Y44500D03*
G54D42*
X384004Y62011D03*
Y152011D03*
G54D32*
X51550Y2050D03*
X61550D03*
Y12050D03*
G54D40*
X301800Y45000D03*
X132000Y107000D03*
X41300Y150500D03*
Y164500D03*
G54D39*
X150400Y40250D03*
X296500Y192000D03*
G54D33*
X81550Y2050D03*
X91550D03*
X101550D03*
X111550D03*
X121550D03*
X151550D03*
X242000D03*
X262000D03*
X272000D03*
X282000D03*
X292000D03*
X81550Y12050D03*
X91550D03*
X101550D03*
X111550D03*
X131550D03*
X141550D03*
X242000D03*
X262000D03*
X272000D03*
X282000D03*
X292000D03*
X427000Y161524D03*
X46000Y182000D03*
X56000D03*
X66000D03*
X76000D03*
X86000D03*
X96000D03*
X106000D03*
X116000D03*
X126000D03*
X136000D03*
X161750D03*
X171750D03*
X181750D03*
X191750D03*
X221750D03*
X46000Y192000D03*
X56000D03*
X66000D03*
X86000D03*
X96000D03*
X106000D03*
X116000D03*
X126000D03*
X136000D03*
X151750D03*
X161750D03*
X171750D03*
X181750D03*
X191750D03*
X201750D03*
X211750D03*
X221750D03*
X121550Y12050D03*
X151550D03*
G54D29*
X366984Y5113D03*
G54D36*
X51550Y12050D03*
G54D35*
X171850Y2050D03*
X181850D03*
X191850D03*
X201850D03*
X211850D03*
X221850D03*
X171850Y12050D03*
X181850D03*
X191850D03*
X201850D03*
X211850D03*
X221850D03*
G54D30*
X393756Y5113D03*
G54D41*
X314004Y62011D03*
X324004D03*
X334004D03*
X344004D03*
X354004D03*
X364004D03*
X374004D03*
X314004Y152011D03*
X324004D03*
X334004D03*
X344004D03*
X354004D03*
X364004D03*
X374004D03*
%LPD*%
G75*
G54D10*
X-2500Y0D03*
X329500Y44500D03*
G54D20*
X384004Y62011D03*
Y152011D03*
G54D11*
X3957Y20723D03*
Y44148D03*
Y145987D03*
Y169412D03*
X9272Y20723D03*
Y145987D03*
G54D21*
X381094Y122969D03*
X388500Y126800D03*
G54D12*
G01X-6800Y0D02*
X-2500D01*
G01Y-4300D02*
Y0D01*
G01D02*
Y4300D01*
G01Y0D02*
X1800D01*
G01X1656Y20723D02*
X3957D01*
G01D02*
X6257D01*
G01X1656Y44148D02*
X3957D01*
G01D02*
X6257D01*
G01X1656Y145987D02*
X3957D01*
G01D02*
X6257D01*
G01X1656Y169412D02*
X3957D01*
G01D02*
X6257D01*
G01X6971Y20723D02*
X9272D01*
G01X6971Y44148D02*
X9272D01*
G01X6971Y145987D02*
X9272D01*
G01X6971Y169412D02*
X9272D01*
G01Y20723D02*
X11572D01*
G01X9272Y44148D02*
X11572D01*
G01X9272Y145987D02*
X11572D01*
G01X9272Y169412D02*
X11572D01*
G01X32500Y62000D02*
Y58000D01*
G01Y62000D02*
Y81500D01*
X36000Y85000D01*
Y125500D01*
G01D02*
Y130500D01*
G01X36850Y150500D02*
X41300D01*
G01X36850Y164500D02*
X41300D01*
G01Y146050D02*
Y150500D01*
G01D02*
X45750D01*
G01X41300D02*
Y154950D01*
G01Y160050D02*
Y164500D01*
G01D02*
Y168950D01*
G01Y164500D02*
X45750D01*
G01X46550Y12050D02*
X51550D01*
G01D02*
Y17050D01*
G01X71750Y192000D02*
X76000D01*
G01Y187750D02*
Y192000D01*
G01D02*
Y196250D01*
G01Y192000D02*
X80250D01*
G01X127300Y2050D02*
X131550D01*
G01X127550Y107000D02*
X132000D01*
G01X131550Y-2200D02*
Y2050D01*
G01D02*
Y6300D01*
G01Y2050D02*
X135800D01*
G01X132000Y102550D02*
Y107000D01*
G01D02*
Y111450D01*
G01Y107000D02*
X136450D01*
G01X137300Y2050D02*
X141550D01*
G01Y-2200D02*
Y2050D01*
G01D02*
Y6300D01*
G01Y2050D02*
X145800D01*
G01X146400Y40250D02*
X150400D01*
G01Y36250D02*
Y40250D01*
G01D02*
Y44250D01*
G01Y40250D02*
X154400D01*
G01X172500Y124000D02*
Y129900D01*
G01X177500Y124000D02*
Y129700D01*
G01X247750Y2050D02*
X252000D01*
G01X247750Y12050D02*
X252000D01*
G01Y-2200D02*
Y2050D01*
G01D02*
Y6300D01*
G01Y2050D02*
X256250D01*
G01X252000Y7800D02*
Y12050D01*
G01D02*
Y16300D01*
G01Y12050D02*
X256250D01*
G01X292500Y192000D02*
X296500D01*
G01X297350Y45000D02*
X301800D01*
G01X296500Y188000D02*
Y192000D01*
G01D02*
Y196000D01*
G01Y192000D02*
X300500D01*
G01X301800Y40550D02*
Y45000D01*
G01D02*
Y49450D01*
G01Y45000D02*
X306250D01*
G01X325200Y44500D02*
X329500D01*
G01Y40200D02*
Y44500D01*
G01D02*
Y48800D01*
G01Y44500D02*
X333800D01*
G01X767900Y-54600D02*
Y-154600D01*
X367900D01*
G01D02*
Y-54600D01*
X767900D01*
G01X379654Y62011D02*
X384004D01*
G01X379654Y152011D02*
X384004D01*
G01Y57660D02*
Y62011D01*
G01D02*
Y66361D01*
G01Y62011D02*
X388355D01*
G01X384004Y147660D02*
Y152011D01*
G01D02*
Y156361D01*
G01Y152011D02*
X388355D01*
G01X422950Y161524D02*
X427000D01*
G01Y157473D02*
Y161524D01*
G01D02*
Y165574D01*
G01Y161524D02*
X431050D01*
X9500Y-6000D03*
X5500Y188500D03*
X13000Y183594D03*
X9732Y192732D03*
X14500Y-6000D03*
X17500Y20500D03*
X17668Y31416D03*
Y40616D03*
X17500Y45500D03*
Y50500D03*
X16200Y136200D03*
X16668Y155416D03*
Y164616D03*
X25600Y136000D03*
X31500Y156000D03*
Y165500D03*
Y171000D03*
Y176000D03*
X32500Y58000D03*
Y62000D03*
X36000Y125500D03*
Y130500D03*
X44500Y33000D03*
X41500Y80000D03*
Y89000D03*
Y102500D03*
X49500Y62800D03*
X53700Y27700D03*
X50000Y51000D03*
Y55000D03*
X52300Y122300D03*
X57500Y129000D03*
X62000Y36500D03*
X61500Y140500D03*
X60500Y157300D03*
X65692Y130338D03*
X69500Y137190D03*
X71120Y158380D03*
X75000Y140500D03*
X81000Y28000D03*
Y49000D03*
X82000Y120000D03*
X81500Y141500D03*
X88500Y62500D03*
Y66500D03*
Y74500D03*
Y91500D03*
Y100000D03*
X86000Y148500D03*
X88565Y152500D03*
X92000Y76800D03*
Y86000D03*
X95000Y57550D03*
X100900Y39500D03*
X102000Y57500D03*
X99500Y162000D03*
X105500Y99000D03*
X109000Y33000D03*
X110500Y99000D03*
X109500Y162000D03*
X116600Y48000D03*
X116000Y69000D03*
Y74000D03*
Y79000D03*
X120500Y33210D03*
X121000Y69000D03*
Y74000D03*
Y79000D03*
X125117Y40539D03*
Y47800D03*
X126600Y22893D03*
X126500Y26000D03*
X126000Y69000D03*
Y74000D03*
Y79000D03*
X128500Y119500D03*
X128420Y131690D03*
X128470Y135690D03*
Y144690D03*
Y148690D03*
X135100Y22893D03*
X136000Y65581D03*
X136500Y80000D03*
X141100Y22893D03*
X140994Y139400D03*
X147100Y22893D03*
X165000Y61000D03*
Y64000D03*
X161500Y96000D03*
X168500Y104000D03*
X167800Y141500D03*
X176400Y34000D03*
X175500Y84000D03*
X178500Y85000D03*
X175500Y87500D03*
X178500Y88500D03*
X175500Y94000D03*
Y91000D03*
X181534Y142959D03*
X184100Y32000D03*
Y36000D03*
X186500Y34000D03*
X188000Y87000D03*
X188200Y94000D03*
X195500Y28500D03*
Y31300D03*
Y34100D03*
X195410Y61241D03*
Y64391D03*
X215500Y113500D03*
X232040Y106570D03*
X231000Y114611D03*
X236500Y75500D03*
X241066Y109600D03*
X277600Y75489D03*
X282500Y67000D03*
X288950Y109500D03*
X289350Y119160D03*
X292000Y35500D03*
Y59500D03*
Y65000D03*
X291000Y81500D03*
X291680Y159320D03*
X312500Y77086D03*
X346709Y-1709D03*
X346880Y48620D03*
X358500Y46000D03*
X364500Y123500D03*
X367000Y44180D03*
X384500Y76070D03*
X390500Y45500D03*
X391500Y76000D03*
X394874Y110126D03*
X401000Y79500D03*
X398000Y93500D03*
X405780Y61500D03*
X410291Y-2291D03*
X409000Y15500D03*
X410291Y35000D03*
X407500Y126500D03*
X412500Y175000D03*
X413768Y195500D03*
X422732Y-8000D03*
Y17500D03*
G54D13*
X9272Y44148D03*
Y169412D03*
G54D22*
X427000Y161524D03*
G54D23*
G01X374350Y-146000D02*
X373723Y-146200D01*
X373253Y-146700D01*
X372940Y-147300D01*
X372705Y-148100D01*
X372627Y-149000D01*
X372705Y-149900D01*
X372940Y-150700D01*
X373253Y-151300D01*
X373723Y-151800D01*
X374350Y-152000D01*
X374977Y-151800D01*
X375447Y-151300D01*
X375760Y-150700D01*
X375995Y-149900D01*
X376073Y-149000D01*
X375995Y-148100D01*
X375760Y-147300D01*
X375447Y-146700D01*
X374977Y-146200D01*
X374350Y-146000D01*
G01X378927Y-151100D02*
X379397Y-151600D01*
X379945Y-151900D01*
X380650Y-152000D01*
X381355Y-151800D01*
X381903Y-151400D01*
X382295Y-150700D01*
X382373Y-149900D01*
X382217Y-149100D01*
X381825Y-148600D01*
X381277Y-148200D01*
X380728Y-148100D01*
X380180Y-148200D01*
X379475Y-148600D01*
X379710Y-146000D01*
X381825D01*
G01X371425Y-142067D02*
X371892Y-142400D01*
X372417Y-142600D01*
X372883D01*
X373350Y-142400D01*
X373700Y-142067D01*
X373875Y-141600D01*
X373758Y-141133D01*
X373467Y-140733D01*
X372942Y-140467D01*
X372242Y-140333D01*
X371833Y-140067D01*
X371658Y-139600D01*
X371775Y-139133D01*
X372067Y-138800D01*
X372475Y-138600D01*
X372883D01*
X373292Y-138733D01*
X373642Y-139067D01*
G01X376225Y-142600D02*
Y-138600D01*
G01X378675D02*
Y-142600D01*
G01Y-140600D02*
X376225D01*
G01X383417Y-142600D02*
X381083D01*
Y-138600D01*
X383417D01*
G01X382483Y-140533D02*
X381083D01*
G01X388217Y-142600D02*
X385883D01*
Y-138600D01*
X388217D01*
G01X387283Y-140533D02*
X385883D01*
G01X391850Y-138600D02*
Y-142600D01*
G01X390508Y-138600D02*
X393192D01*
G01X371192Y-81600D02*
X372650Y-77600D01*
X374108Y-81600D01*
G01X373583Y-80200D02*
X371717D01*
G01X376167Y-77600D02*
Y-80467D01*
X376400Y-81067D01*
X376867Y-81467D01*
X377450Y-81600D01*
X378033Y-81467D01*
X378500Y-81067D01*
X378733Y-80467D01*
Y-77600D01*
G01X381025Y-81067D02*
X381492Y-81400D01*
X382017Y-81600D01*
X382483D01*
X382950Y-81400D01*
X383300Y-81067D01*
X383475Y-80600D01*
X383358Y-80133D01*
X383067Y-79733D01*
X382542Y-79467D01*
X381842Y-79333D01*
X381433Y-79067D01*
X381258Y-78600D01*
X381375Y-78133D01*
X381667Y-77800D01*
X382075Y-77600D01*
X382483D01*
X382892Y-77733D01*
X383242Y-78067D01*
G01X387050Y-77600D02*
Y-81600D01*
G01X385708Y-77600D02*
X388392D01*
G01X391150D02*
X392550D01*
G01X391850D02*
Y-81600D01*
G01X391150D02*
X392550D01*
G01X395308D02*
Y-77600D01*
X397992Y-81600D01*
Y-77600D01*
G01X401450Y-81733D02*
X401333Y-81667D01*
Y-81533D01*
X401450Y-81467D01*
X401567Y-81533D01*
Y-81667D01*
X401450Y-81733D01*
G01X411050Y-77600D02*
Y-81600D01*
G01X409708Y-77600D02*
X412392D01*
G01X417017Y-81600D02*
X414683D01*
Y-77600D01*
X417017D01*
G01X416083Y-79533D02*
X414683D01*
G01X419425Y-81600D02*
X421875Y-77600D01*
G01X419425D02*
X421875Y-81600D01*
G01X423992D02*
X425450Y-77600D01*
X426908Y-81600D01*
G01X426383Y-80200D02*
X424517D01*
G01X429025Y-81067D02*
X429492Y-81400D01*
X430017Y-81600D01*
X430483D01*
X430950Y-81400D01*
X431300Y-81067D01*
X431475Y-80600D01*
X431358Y-80133D01*
X431067Y-79733D01*
X430542Y-79467D01*
X429842Y-79333D01*
X429433Y-79067D01*
X429258Y-78600D01*
X429375Y-78133D01*
X429667Y-77800D01*
X430075Y-77600D01*
X430483D01*
X430892Y-77733D01*
X431242Y-78067D01*
G01X439733Y-81600D02*
X439850Y-80733D01*
X440025Y-80000D01*
X440258Y-79333D01*
X440550Y-78600D01*
X441017Y-77600D01*
X438683D01*
G01X444650Y-81600D02*
X445058Y-81533D01*
X445525Y-81333D01*
X445817Y-81000D01*
X445933Y-80533D01*
X445817Y-80067D01*
X445467Y-79667D01*
X444942Y-79467D01*
X444358D01*
X444008Y-79333D01*
X443717Y-79000D01*
X443600Y-78533D01*
X443775Y-78067D01*
X444183Y-77733D01*
X444650Y-77600D01*
X445117Y-77733D01*
X445525Y-78067D01*
X445700Y-78533D01*
X445583Y-79000D01*
X445292Y-79333D01*
X444942Y-79467D01*
X444358D01*
X443833Y-79667D01*
X443483Y-80067D01*
X443367Y-80533D01*
X443483Y-81000D01*
X443775Y-81333D01*
X444242Y-81533D01*
X444650Y-81600D01*
G01X449333D02*
X449450Y-80733D01*
X449625Y-80000D01*
X449858Y-79333D01*
X450150Y-78600D01*
X450617Y-77600D01*
X448283D01*
G01X452967Y-80800D02*
X453317Y-81267D01*
X453783Y-81533D01*
X454308Y-81600D01*
X454775Y-81533D01*
X455242Y-81200D01*
X455533Y-80800D01*
X455592Y-80400D01*
X455475Y-79933D01*
X455067Y-79600D01*
X454658Y-79467D01*
X454133D01*
G01X454658D02*
X455008Y-79267D01*
X455300Y-78933D01*
X455417Y-78533D01*
X455300Y-78133D01*
X455008Y-77800D01*
X454483Y-77600D01*
X453958Y-77667D01*
X453433Y-77933D01*
G01X457767Y-81000D02*
X458117Y-81333D01*
X458525Y-81533D01*
X459050Y-81600D01*
X459575Y-81467D01*
X459983Y-81200D01*
X460275Y-80733D01*
X460333Y-80200D01*
X460217Y-79667D01*
X459925Y-79333D01*
X459517Y-79067D01*
X459108Y-79000D01*
X458700Y-79067D01*
X458175Y-79333D01*
X458350Y-77600D01*
X459925D01*
G01X467367D02*
Y-80467D01*
X467600Y-81067D01*
X468067Y-81467D01*
X468650Y-81600D01*
X469233Y-81467D01*
X469700Y-81067D01*
X469933Y-80467D01*
Y-77600D01*
G01X472225Y-81067D02*
X472692Y-81400D01*
X473217Y-81600D01*
X473683D01*
X474150Y-81400D01*
X474500Y-81067D01*
X474675Y-80600D01*
X474558Y-80133D01*
X474267Y-79733D01*
X473742Y-79467D01*
X473042Y-79333D01*
X472633Y-79067D01*
X472458Y-78600D01*
X472575Y-78133D01*
X472867Y-77800D01*
X473275Y-77600D01*
X473683D01*
X474092Y-77733D01*
X474442Y-78067D01*
G01X476792Y-81600D02*
X478250Y-77600D01*
X479708Y-81600D01*
G01X479183Y-80200D02*
X477317D01*
G01X371542Y-72933D02*
X371950Y-72467D01*
X372300Y-72200D01*
X372767Y-72067D01*
X373175Y-72200D01*
X373467Y-72467D01*
X373700Y-72867D01*
X373758Y-73333D01*
X373700Y-73733D01*
X373467Y-74133D01*
X373117Y-74467D01*
X372708Y-74600D01*
X372242Y-74467D01*
X371833Y-74067D01*
X371600Y-73467D01*
X371542Y-72800D01*
X371658Y-71933D01*
X371833Y-71467D01*
X372125Y-71000D01*
X372533Y-70667D01*
X372942Y-70600D01*
X373350Y-70733D01*
X373642Y-71067D01*
G01X376167Y-74000D02*
X376517Y-74333D01*
X376925Y-74533D01*
X377450Y-74600D01*
X377975Y-74467D01*
X378383Y-74200D01*
X378675Y-73733D01*
X378733Y-73200D01*
X378617Y-72667D01*
X378325Y-72333D01*
X377917Y-72067D01*
X377508Y-72000D01*
X377100Y-72067D01*
X376575Y-72333D01*
X376750Y-70600D01*
X378325D01*
G01X382250D02*
X381783Y-70733D01*
X381433Y-71067D01*
X381200Y-71467D01*
X381025Y-72000D01*
X380967Y-72600D01*
X381025Y-73200D01*
X381200Y-73733D01*
X381433Y-74133D01*
X381783Y-74467D01*
X382250Y-74600D01*
X382717Y-74467D01*
X383067Y-74133D01*
X383300Y-73733D01*
X383475Y-73200D01*
X383533Y-72600D01*
X383475Y-72000D01*
X383300Y-71467D01*
X383067Y-71067D01*
X382717Y-70733D01*
X382250Y-70600D01*
G01X387050Y-74600D02*
Y-70600D01*
X386350Y-71400D01*
G01Y-74600D02*
X387750D01*
G01X394900Y-70600D02*
X395717Y-74600D01*
X396650Y-70600D01*
X397583Y-74600D01*
X398400Y-70600D01*
G01X400750D02*
X402150D01*
G01X401450D02*
Y-74600D01*
G01X400750D02*
X402150D01*
G01X405083Y-70600D02*
Y-74600D01*
X407417D01*
G01X409883Y-70600D02*
Y-74600D01*
X412217D01*
G01X415150Y-70600D02*
X416550D01*
G01X415850D02*
Y-74600D01*
G01X415150D02*
X416550D01*
G01X419192D02*
X420650Y-70600D01*
X422108Y-74600D01*
G01X421583Y-73200D02*
X419717D01*
G01X423933Y-74600D02*
Y-70600D01*
X425450Y-73933D01*
X426967Y-70600D01*
Y-74600D01*
G01X436333Y-70933D02*
X435983Y-70733D01*
X435575Y-70600D01*
X435108D01*
X434583Y-70800D01*
X434175Y-71133D01*
X433883Y-71533D01*
X433650Y-72200D01*
X433592Y-72800D01*
X433708Y-73400D01*
X433883Y-73800D01*
X434233Y-74200D01*
X434642Y-74467D01*
X435050Y-74600D01*
X435458D01*
X435867Y-74467D01*
X436217Y-74267D01*
X436508Y-74000D01*
G01X438392Y-74600D02*
X439850Y-70600D01*
X441308Y-74600D01*
G01X440783Y-73200D02*
X438917D01*
G01X443308Y-74600D02*
Y-70600D01*
X445992Y-74600D01*
Y-70600D01*
G01X448108Y-74600D02*
Y-70600D01*
X450792Y-74600D01*
Y-70600D01*
G01X454250Y-74600D02*
X453783Y-74533D01*
X453375Y-74267D01*
X453025Y-73867D01*
X452792Y-73400D01*
X452675Y-72867D01*
Y-72333D01*
X452792Y-71800D01*
X453025Y-71333D01*
X453375Y-70933D01*
X453783Y-70667D01*
X454250Y-70600D01*
X454717Y-70667D01*
X455125Y-70933D01*
X455475Y-71333D01*
X455708Y-71800D01*
X455825Y-72333D01*
Y-72867D01*
X455708Y-73400D01*
X455475Y-73867D01*
X455125Y-74267D01*
X454717Y-74533D01*
X454250Y-74600D01*
G01X457708D02*
Y-70600D01*
X460392Y-74600D01*
Y-70600D01*
G01X467367Y-74600D02*
Y-70600D01*
X468533D01*
X469000Y-70800D01*
X469350Y-71067D01*
X469642Y-71467D01*
X469875Y-71933D01*
X469933Y-72600D01*
X469875Y-73267D01*
X469642Y-73733D01*
X469350Y-74133D01*
X469000Y-74400D01*
X468533Y-74600D01*
X467367D01*
G01X472283D02*
Y-70600D01*
X473742D01*
X474208Y-70800D01*
X474500Y-71067D01*
X474617Y-71600D01*
X474500Y-72133D01*
X474150Y-72467D01*
X473742Y-72667D01*
X472283D01*
G01X473742D02*
X474617Y-74600D01*
G01X477550Y-70600D02*
X478950D01*
G01X478250D02*
Y-74600D01*
G01X477550D02*
X478950D01*
G01X481592Y-70600D02*
X483050Y-74600D01*
X484508Y-70600D01*
G01X489017Y-74600D02*
X486683D01*
Y-70600D01*
X489017D01*
G01X488083Y-72533D02*
X486683D01*
G01X495700Y-70600D02*
X496517Y-74600D01*
X497450Y-70600D01*
X498383Y-74600D01*
X499200Y-70600D01*
G01X503417Y-74600D02*
X501083D01*
Y-70600D01*
X503417D01*
G01X502483Y-72533D02*
X501083D01*
G01X505825Y-74067D02*
X506292Y-74400D01*
X506817Y-74600D01*
X507283D01*
X507750Y-74400D01*
X508100Y-74067D01*
X508275Y-73600D01*
X508158Y-73133D01*
X507867Y-72733D01*
X507342Y-72467D01*
X506642Y-72333D01*
X506233Y-72067D01*
X506058Y-71600D01*
X506175Y-71133D01*
X506467Y-70800D01*
X506875Y-70600D01*
X507283D01*
X507692Y-70733D01*
X508042Y-71067D01*
G01X511850Y-70600D02*
Y-74600D01*
G01X510508Y-70600D02*
X513192D01*
G01X371553Y-65600D02*
Y-58100D01*
X375847Y-65600D01*
Y-58100D01*
G01X379240Y-65600D02*
X383160Y-58100D01*
G01X379240D02*
X383160Y-65600D01*
G01X386833D02*
Y-58100D01*
X389073D01*
X389820Y-58475D01*
X390380Y-59350D01*
X390567Y-60350D01*
X390380Y-61350D01*
X389913Y-62100D01*
X389073Y-62475D01*
X386833D01*
G01X401740Y-64600D02*
X402487Y-65225D01*
X403327Y-65600D01*
X404073D01*
X404820Y-65225D01*
X405380Y-64600D01*
X405660Y-63725D01*
X405473Y-62850D01*
X405007Y-62100D01*
X404167Y-61600D01*
X403047Y-61350D01*
X402393Y-60850D01*
X402113Y-59975D01*
X402300Y-59100D01*
X402767Y-58475D01*
X403420Y-58100D01*
X404073D01*
X404727Y-58350D01*
X405287Y-58975D01*
G01X413067Y-65600D02*
X409333D01*
Y-58100D01*
X413067D01*
G01X411573Y-61725D02*
X409333D01*
G01X416273Y-65600D02*
Y-58100D01*
X418700Y-64350D01*
X421127Y-58100D01*
Y-65600D01*
G01X425080Y-58100D02*
X427320D01*
G01X426200D02*
Y-65600D01*
G01X425080D02*
X427320D01*
G01X435753Y-58725D02*
X435193Y-58350D01*
X434540Y-58100D01*
X433793D01*
X432953Y-58475D01*
X432300Y-59100D01*
X431833Y-59850D01*
X431460Y-61100D01*
X431367Y-62225D01*
X431553Y-63350D01*
X431833Y-64100D01*
X432393Y-64850D01*
X433047Y-65350D01*
X433700Y-65600D01*
X434353D01*
X435007Y-65350D01*
X435567Y-64975D01*
X436033Y-64475D01*
G01X441200Y-65600D02*
X440453Y-65475D01*
X439800Y-64975D01*
X439240Y-64225D01*
X438867Y-63350D01*
X438680Y-62350D01*
Y-61350D01*
X438867Y-60350D01*
X439240Y-59475D01*
X439800Y-58725D01*
X440453Y-58225D01*
X441200Y-58100D01*
X441947Y-58225D01*
X442600Y-58725D01*
X443160Y-59475D01*
X443533Y-60350D01*
X443720Y-61350D01*
Y-62350D01*
X443533Y-63350D01*
X443160Y-64225D01*
X442600Y-64975D01*
X441947Y-65475D01*
X441200Y-65600D01*
G01X446553D02*
Y-58100D01*
X450847Y-65600D01*
Y-58100D01*
G01X454147Y-65600D02*
Y-58100D01*
X456013D01*
X456760Y-58475D01*
X457320Y-58975D01*
X457787Y-59725D01*
X458160Y-60600D01*
X458253Y-61850D01*
X458160Y-63100D01*
X457787Y-63975D01*
X457320Y-64725D01*
X456760Y-65225D01*
X456013Y-65600D01*
X454147D01*
G01X461647Y-58100D02*
Y-63475D01*
X462020Y-64600D01*
X462767Y-65350D01*
X463700Y-65600D01*
X464633Y-65350D01*
X465380Y-64600D01*
X465753Y-63475D01*
Y-58100D01*
G01X473253Y-58725D02*
X472693Y-58350D01*
X472040Y-58100D01*
X471293D01*
X470453Y-58475D01*
X469800Y-59100D01*
X469333Y-59850D01*
X468960Y-61100D01*
X468867Y-62225D01*
X469053Y-63350D01*
X469333Y-64100D01*
X469893Y-64850D01*
X470547Y-65350D01*
X471200Y-65600D01*
X471853D01*
X472507Y-65350D01*
X473067Y-64975D01*
X473533Y-64475D01*
G01X478700Y-58100D02*
Y-65600D01*
G01X476553Y-58100D02*
X480847D01*
G01X486200Y-65600D02*
X485453Y-65475D01*
X484800Y-64975D01*
X484240Y-64225D01*
X483867Y-63350D01*
X483680Y-62350D01*
Y-61350D01*
X483867Y-60350D01*
X484240Y-59475D01*
X484800Y-58725D01*
X485453Y-58225D01*
X486200Y-58100D01*
X486947Y-58225D01*
X487600Y-58725D01*
X488160Y-59475D01*
X488533Y-60350D01*
X488720Y-61350D01*
Y-62350D01*
X488533Y-63350D01*
X488160Y-64225D01*
X487600Y-64975D01*
X486947Y-65475D01*
X486200Y-65600D01*
G01X491833D02*
Y-58100D01*
X494167D01*
X494913Y-58475D01*
X495380Y-58975D01*
X495567Y-59975D01*
X495380Y-60975D01*
X494820Y-61600D01*
X494167Y-61975D01*
X491833D01*
G01X494167D02*
X495567Y-65600D01*
G01X499240Y-64600D02*
X499987Y-65225D01*
X500827Y-65600D01*
X501573D01*
X502320Y-65225D01*
X502880Y-64600D01*
X503160Y-63725D01*
X502973Y-62850D01*
X502507Y-62100D01*
X501667Y-61600D01*
X500547Y-61350D01*
X499893Y-60850D01*
X499613Y-59975D01*
X499800Y-59100D01*
X500267Y-58475D01*
X500920Y-58100D01*
X501573D01*
X502227Y-58350D01*
X502787Y-58975D01*
G01X377308Y-131600D02*
Y-127600D01*
X379992Y-131600D01*
Y-127600D01*
G01X382225Y-131600D02*
X384675Y-127600D01*
G01X382225D02*
X384675Y-131600D01*
G01X387083D02*
Y-127600D01*
X388483D01*
X388950Y-127800D01*
X389300Y-128267D01*
X389417Y-128800D01*
X389300Y-129333D01*
X389008Y-129733D01*
X388483Y-129933D01*
X387083D01*
G01X393050Y-131733D02*
X392933Y-131667D01*
Y-131533D01*
X393050Y-131467D01*
X393167Y-131533D01*
Y-131667D01*
X393050Y-131733D01*
G01X379650Y-123600D02*
X379183Y-123533D01*
X378775Y-123267D01*
X378425Y-122867D01*
X378192Y-122400D01*
X378075Y-121867D01*
Y-121333D01*
X378192Y-120800D01*
X378425Y-120333D01*
X378775Y-119933D01*
X379183Y-119667D01*
X379650Y-119600D01*
X380117Y-119667D01*
X380525Y-119933D01*
X380875Y-120333D01*
X381108Y-120800D01*
X381225Y-121333D01*
Y-121867D01*
X381108Y-122400D01*
X380875Y-122867D01*
X380525Y-123267D01*
X380117Y-123533D01*
X379650Y-123600D01*
G01X383283D02*
Y-119600D01*
X384742D01*
X385208Y-119800D01*
X385500Y-120067D01*
X385617Y-120600D01*
X385500Y-121133D01*
X385150Y-121467D01*
X384742Y-121667D01*
X383283D01*
G01X384742D02*
X385617Y-123600D01*
G01X393350Y-119600D02*
X394750D01*
G01X394050D02*
Y-123600D01*
G01X393350D02*
X394750D01*
G01X397508D02*
Y-119600D01*
X400192Y-123600D01*
Y-119600D01*
G01X407283Y-123600D02*
Y-119600D01*
X408683D01*
X409150Y-119800D01*
X409500Y-120267D01*
X409617Y-120800D01*
X409500Y-121333D01*
X409208Y-121733D01*
X408683Y-121933D01*
X407283D01*
G01X411792Y-123600D02*
X413250Y-119600D01*
X414708Y-123600D01*
G01X414183Y-122200D02*
X412317D01*
G01X416883Y-123600D02*
Y-119600D01*
X418342D01*
X418808Y-119800D01*
X419100Y-120067D01*
X419217Y-120600D01*
X419100Y-121133D01*
X418750Y-121467D01*
X418342Y-121667D01*
X416883D01*
G01X418342D02*
X419217Y-123600D01*
G01X422850Y-119600D02*
Y-123600D01*
G01X421508Y-119600D02*
X424192D01*
G01X430700D02*
X431517Y-123600D01*
X432450Y-119600D01*
X433383Y-123600D01*
X434200Y-119600D01*
G01X436550D02*
X437950D01*
G01X437250D02*
Y-123600D01*
G01X436550D02*
X437950D01*
G01X442050Y-119600D02*
Y-123600D01*
G01X440708Y-119600D02*
X443392D01*
G01X445625Y-123600D02*
Y-119600D01*
G01X448075D02*
Y-123600D01*
G01Y-121600D02*
X445625D01*
G01X451650Y-123600D02*
X451183Y-123533D01*
X450775Y-123267D01*
X450425Y-122867D01*
X450192Y-122400D01*
X450075Y-121867D01*
Y-121333D01*
X450192Y-120800D01*
X450425Y-120333D01*
X450775Y-119933D01*
X451183Y-119667D01*
X451650Y-119600D01*
X452117Y-119667D01*
X452525Y-119933D01*
X452875Y-120333D01*
X453108Y-120800D01*
X453225Y-121333D01*
Y-121867D01*
X453108Y-122400D01*
X452875Y-122867D01*
X452525Y-123267D01*
X452117Y-123533D01*
X451650Y-123600D01*
G01X455167Y-119600D02*
Y-122467D01*
X455400Y-123067D01*
X455867Y-123467D01*
X456450Y-123600D01*
X457033Y-123467D01*
X457500Y-123067D01*
X457733Y-122467D01*
Y-119600D01*
G01X461250D02*
Y-123600D01*
G01X459908Y-119600D02*
X462592D01*
G01X470850D02*
Y-123600D01*
G01X469508Y-119600D02*
X472192D01*
G01X474425Y-123600D02*
Y-119600D01*
G01X476875D02*
Y-123600D01*
G01Y-121600D02*
X474425D01*
G01X481617Y-123600D02*
X479283D01*
Y-119600D01*
X481617D01*
G01X480683Y-121533D02*
X479283D01*
G01X491333Y-119933D02*
X490983Y-119733D01*
X490575Y-119600D01*
X490108D01*
X489583Y-119800D01*
X489175Y-120133D01*
X488883Y-120533D01*
X488650Y-121200D01*
X488592Y-121800D01*
X488708Y-122400D01*
X488883Y-122800D01*
X489233Y-123200D01*
X489642Y-123467D01*
X490050Y-123600D01*
X490458D01*
X490867Y-123467D01*
X491217Y-123267D01*
X491508Y-123000D01*
G01X494850Y-123600D02*
X494383Y-123533D01*
X493975Y-123267D01*
X493625Y-122867D01*
X493392Y-122400D01*
X493275Y-121867D01*
Y-121333D01*
X493392Y-120800D01*
X493625Y-120333D01*
X493975Y-119933D01*
X494383Y-119667D01*
X494850Y-119600D01*
X495317Y-119667D01*
X495725Y-119933D01*
X496075Y-120333D01*
X496308Y-120800D01*
X496425Y-121333D01*
Y-121867D01*
X496308Y-122400D01*
X496075Y-122867D01*
X495725Y-123267D01*
X495317Y-123533D01*
X494850Y-123600D01*
G01X498308D02*
Y-119600D01*
X500992Y-123600D01*
Y-119600D01*
G01X503225Y-123067D02*
X503692Y-123400D01*
X504217Y-123600D01*
X504683D01*
X505150Y-123400D01*
X505500Y-123067D01*
X505675Y-122600D01*
X505558Y-122133D01*
X505267Y-121733D01*
X504742Y-121467D01*
X504042Y-121333D01*
X503633Y-121067D01*
X503458Y-120600D01*
X503575Y-120133D01*
X503867Y-119800D01*
X504275Y-119600D01*
X504683D01*
X505092Y-119733D01*
X505442Y-120067D01*
G01X510417Y-123600D02*
X508083D01*
Y-119600D01*
X510417D01*
G01X509483Y-121533D02*
X508083D01*
G01X512708Y-123600D02*
Y-119600D01*
X515392Y-123600D01*
Y-119600D01*
G01X518850D02*
Y-123600D01*
G01X517508Y-119600D02*
X520192D01*
G01X528450Y-123600D02*
X527983Y-123533D01*
X527575Y-123267D01*
X527225Y-122867D01*
X526992Y-122400D01*
X526875Y-121867D01*
Y-121333D01*
X526992Y-120800D01*
X527225Y-120333D01*
X527575Y-119933D01*
X527983Y-119667D01*
X528450Y-119600D01*
X528917Y-119667D01*
X529325Y-119933D01*
X529675Y-120333D01*
X529908Y-120800D01*
X530025Y-121333D01*
Y-121867D01*
X529908Y-122400D01*
X529675Y-122867D01*
X529325Y-123267D01*
X528917Y-123533D01*
X528450Y-123600D01*
G01X532142D02*
Y-119600D01*
X534358D01*
G01X533542Y-121533D02*
X532142D01*
G01X378483Y-115600D02*
Y-111600D01*
X379883D01*
X380350Y-111800D01*
X380700Y-112267D01*
X380817Y-112800D01*
X380700Y-113333D01*
X380408Y-113733D01*
X379883Y-113933D01*
X378483D01*
G01X383283Y-115600D02*
Y-111600D01*
X384742D01*
X385208Y-111800D01*
X385500Y-112067D01*
X385617Y-112600D01*
X385500Y-113133D01*
X385150Y-113467D01*
X384742Y-113667D01*
X383283D01*
G01X384742D02*
X385617Y-115600D01*
G01X389250D02*
X388783Y-115533D01*
X388375Y-115267D01*
X388025Y-114867D01*
X387792Y-114400D01*
X387675Y-113867D01*
Y-113333D01*
X387792Y-112800D01*
X388025Y-112333D01*
X388375Y-111933D01*
X388783Y-111667D01*
X389250Y-111600D01*
X389717Y-111667D01*
X390125Y-111933D01*
X390475Y-112333D01*
X390708Y-112800D01*
X390825Y-113333D01*
Y-113867D01*
X390708Y-114400D01*
X390475Y-114867D01*
X390125Y-115267D01*
X389717Y-115533D01*
X389250Y-115600D01*
G01X395333Y-111933D02*
X394983Y-111733D01*
X394575Y-111600D01*
X394108D01*
X393583Y-111800D01*
X393175Y-112133D01*
X392883Y-112533D01*
X392650Y-113200D01*
X392592Y-113800D01*
X392708Y-114400D01*
X392883Y-114800D01*
X393233Y-115200D01*
X393642Y-115467D01*
X394050Y-115600D01*
X394458D01*
X394867Y-115467D01*
X395217Y-115267D01*
X395508Y-115000D01*
G01X397567Y-111600D02*
Y-114467D01*
X397800Y-115067D01*
X398267Y-115467D01*
X398850Y-115600D01*
X399433Y-115467D01*
X399900Y-115067D01*
X400133Y-114467D01*
Y-111600D01*
G01X402483Y-115600D02*
Y-111600D01*
X403942D01*
X404408Y-111800D01*
X404700Y-112067D01*
X404817Y-112600D01*
X404700Y-113133D01*
X404350Y-113467D01*
X403942Y-113667D01*
X402483D01*
G01X403942D02*
X404817Y-115600D01*
G01X409617D02*
X407283D01*
Y-111600D01*
X409617D01*
G01X408683Y-113533D02*
X407283D01*
G01X411733Y-115600D02*
Y-111600D01*
X413250Y-114933D01*
X414767Y-111600D01*
Y-115600D01*
G01X419217D02*
X416883D01*
Y-111600D01*
X419217D01*
G01X418283Y-113533D02*
X416883D01*
G01X421508Y-115600D02*
Y-111600D01*
X424192Y-115600D01*
Y-111600D01*
G01X427650D02*
Y-115600D01*
G01X426308Y-111600D02*
X428992D01*
G01X437250Y-115600D02*
X436783Y-115533D01*
X436375Y-115267D01*
X436025Y-114867D01*
X435792Y-114400D01*
X435675Y-113867D01*
Y-113333D01*
X435792Y-112800D01*
X436025Y-112333D01*
X436375Y-111933D01*
X436783Y-111667D01*
X437250Y-111600D01*
X437717Y-111667D01*
X438125Y-111933D01*
X438475Y-112333D01*
X438708Y-112800D01*
X438825Y-113333D01*
Y-113867D01*
X438708Y-114400D01*
X438475Y-114867D01*
X438125Y-115267D01*
X437717Y-115533D01*
X437250Y-115600D01*
G01X440883D02*
Y-111600D01*
X442342D01*
X442808Y-111800D01*
X443100Y-112067D01*
X443217Y-112600D01*
X443100Y-113133D01*
X442750Y-113467D01*
X442342Y-113667D01*
X440883D01*
G01X442342D02*
X443217Y-115600D01*
G01X450133D02*
Y-111600D01*
X451650Y-114933D01*
X453167Y-111600D01*
Y-115600D01*
G01X454992D02*
X456450Y-111600D01*
X457908Y-115600D01*
G01X457383Y-114200D02*
X455517D01*
G01X459908Y-115600D02*
Y-111600D01*
X462592Y-115600D01*
Y-111600D01*
G01X464767D02*
Y-114467D01*
X465000Y-115067D01*
X465467Y-115467D01*
X466050Y-115600D01*
X466633Y-115467D01*
X467100Y-115067D01*
X467333Y-114467D01*
Y-111600D01*
G01X469742Y-115600D02*
Y-111600D01*
X471958D01*
G01X471142Y-113533D02*
X469742D01*
G01X474192Y-115600D02*
X475650Y-111600D01*
X477108Y-115600D01*
G01X476583Y-114200D02*
X474717D01*
G01X481733Y-111933D02*
X481383Y-111733D01*
X480975Y-111600D01*
X480508D01*
X479983Y-111800D01*
X479575Y-112133D01*
X479283Y-112533D01*
X479050Y-113200D01*
X478992Y-113800D01*
X479108Y-114400D01*
X479283Y-114800D01*
X479633Y-115200D01*
X480042Y-115467D01*
X480450Y-115600D01*
X480858D01*
X481267Y-115467D01*
X481617Y-115267D01*
X481908Y-115000D01*
G01X485250Y-111600D02*
Y-115600D01*
G01X483908Y-111600D02*
X486592D01*
G01X488767D02*
Y-114467D01*
X489000Y-115067D01*
X489467Y-115467D01*
X490050Y-115600D01*
X490633Y-115467D01*
X491100Y-115067D01*
X491333Y-114467D01*
Y-111600D01*
G01X493683Y-115600D02*
Y-111600D01*
X495142D01*
X495608Y-111800D01*
X495900Y-112067D01*
X496017Y-112600D01*
X495900Y-113133D01*
X495550Y-113467D01*
X495142Y-113667D01*
X493683D01*
G01X495142D02*
X496017Y-115600D01*
G01X500817D02*
X498483D01*
Y-111600D01*
X500817D01*
G01X499883Y-113533D02*
X498483D01*
G01X508550Y-111600D02*
X509950D01*
G01X509250D02*
Y-115600D01*
G01X508550D02*
X509950D01*
G01X512708D02*
Y-111600D01*
X515392Y-115600D01*
Y-111600D01*
G01X521900D02*
X522717Y-115600D01*
X523650Y-111600D01*
X524583Y-115600D01*
X525400Y-111600D01*
G01X527225Y-115600D02*
Y-111600D01*
G01X529675D02*
Y-115600D01*
G01Y-113600D02*
X527225D01*
G01X533250Y-115600D02*
X532783Y-115533D01*
X532375Y-115267D01*
X532025Y-114867D01*
X531792Y-114400D01*
X531675Y-113867D01*
Y-113333D01*
X531792Y-112800D01*
X532025Y-112333D01*
X532375Y-111933D01*
X532783Y-111667D01*
X533250Y-111600D01*
X533717Y-111667D01*
X534125Y-111933D01*
X534475Y-112333D01*
X534708Y-112800D01*
X534825Y-113333D01*
Y-113867D01*
X534708Y-114400D01*
X534475Y-114867D01*
X534125Y-115267D01*
X533717Y-115533D01*
X533250Y-115600D01*
G01X536883Y-111600D02*
Y-115600D01*
X539217D01*
G01X544017D02*
X541683D01*
Y-111600D01*
X544017D01*
G01X543083Y-113533D02*
X541683D01*
G01X379117Y-105467D02*
X379350Y-105267D01*
X379525Y-104933D01*
X379642Y-104467D01*
X379525Y-104067D01*
X379292Y-103800D01*
X378883Y-103600D01*
X377308D01*
Y-107600D01*
X379233D01*
X379642Y-107333D01*
X379875Y-106933D01*
X379992Y-106467D01*
X379875Y-106000D01*
X379525Y-105600D01*
X379117Y-105467D01*
X377308D01*
G01X384617Y-107600D02*
X382283D01*
Y-103600D01*
X384617D01*
G01X383683Y-105533D02*
X382283D01*
G01X391767Y-103600D02*
Y-106467D01*
X392000Y-107067D01*
X392467Y-107467D01*
X393050Y-107600D01*
X393633Y-107467D01*
X394100Y-107067D01*
X394333Y-106467D01*
Y-103600D01*
G01X396625Y-107067D02*
X397092Y-107400D01*
X397617Y-107600D01*
X398083D01*
X398550Y-107400D01*
X398900Y-107067D01*
X399075Y-106600D01*
X398958Y-106133D01*
X398667Y-105733D01*
X398142Y-105467D01*
X397442Y-105333D01*
X397033Y-105067D01*
X396858Y-104600D01*
X396975Y-104133D01*
X397267Y-103800D01*
X397675Y-103600D01*
X398083D01*
X398492Y-103733D01*
X398842Y-104067D01*
G01X403817Y-107600D02*
X401483D01*
Y-103600D01*
X403817D01*
G01X402883Y-105533D02*
X401483D01*
G01X406167Y-107600D02*
Y-103600D01*
X407333D01*
X407800Y-103800D01*
X408150Y-104067D01*
X408442Y-104467D01*
X408675Y-104933D01*
X408733Y-105600D01*
X408675Y-106267D01*
X408442Y-106733D01*
X408150Y-107133D01*
X407800Y-107400D01*
X407333Y-107600D01*
X406167D01*
G01X415942D02*
Y-103600D01*
X418158D01*
G01X417342Y-105533D02*
X415942D01*
G01X421850Y-107600D02*
X421383Y-107533D01*
X420975Y-107267D01*
X420625Y-106867D01*
X420392Y-106400D01*
X420275Y-105867D01*
Y-105333D01*
X420392Y-104800D01*
X420625Y-104333D01*
X420975Y-103933D01*
X421383Y-103667D01*
X421850Y-103600D01*
X422317Y-103667D01*
X422725Y-103933D01*
X423075Y-104333D01*
X423308Y-104800D01*
X423425Y-105333D01*
Y-105867D01*
X423308Y-106400D01*
X423075Y-106867D01*
X422725Y-107267D01*
X422317Y-107533D01*
X421850Y-107600D01*
G01X425483D02*
Y-103600D01*
X426942D01*
X427408Y-103800D01*
X427700Y-104067D01*
X427817Y-104600D01*
X427700Y-105133D01*
X427350Y-105467D01*
X426942Y-105667D01*
X425483D01*
G01X426942D02*
X427817Y-107600D01*
G01X437417D02*
X435083D01*
Y-103600D01*
X437417D01*
G01X436483Y-105533D02*
X435083D01*
G01X439708Y-107600D02*
Y-103600D01*
X442392Y-107600D01*
Y-103600D01*
G01X446200Y-105600D02*
X447367D01*
Y-106800D01*
X447017Y-107200D01*
X446608Y-107467D01*
X446025Y-107600D01*
X445442Y-107467D01*
X445033Y-107200D01*
X444683Y-106800D01*
X444450Y-106333D01*
X444333Y-105800D01*
Y-105333D01*
X444450Y-104933D01*
X444683Y-104467D01*
X445033Y-104067D01*
X445383Y-103800D01*
X445850Y-103600D01*
X446258D01*
X446725Y-103733D01*
X447075Y-104000D01*
G01X449950Y-103600D02*
X451350D01*
G01X450650D02*
Y-107600D01*
G01X449950D02*
X451350D01*
G01X454108D02*
Y-103600D01*
X456792Y-107600D01*
Y-103600D01*
G01X461417Y-107600D02*
X459083D01*
Y-103600D01*
X461417D01*
G01X460483Y-105533D02*
X459083D01*
G01X466217Y-107600D02*
X463883D01*
Y-103600D01*
X466217D01*
G01X465283Y-105533D02*
X463883D01*
G01X468683Y-107600D02*
Y-103600D01*
X470142D01*
X470608Y-103800D01*
X470900Y-104067D01*
X471017Y-104600D01*
X470900Y-105133D01*
X470550Y-105467D01*
X470142Y-105667D01*
X468683D01*
G01X470142D02*
X471017Y-107600D01*
G01X473950Y-103600D02*
X475350D01*
G01X474650D02*
Y-107600D01*
G01X473950D02*
X475350D01*
G01X478108D02*
Y-103600D01*
X480792Y-107600D01*
Y-103600D01*
G01X484600Y-105600D02*
X485767D01*
Y-106800D01*
X485417Y-107200D01*
X485008Y-107467D01*
X484425Y-107600D01*
X483842Y-107467D01*
X483433Y-107200D01*
X483083Y-106800D01*
X482850Y-106333D01*
X482733Y-105800D01*
Y-105333D01*
X482850Y-104933D01*
X483083Y-104467D01*
X483433Y-104067D01*
X483783Y-103800D01*
X484250Y-103600D01*
X484658D01*
X485125Y-103733D01*
X485475Y-104000D01*
G01X492567Y-107600D02*
Y-103600D01*
X493733D01*
X494200Y-103800D01*
X494550Y-104067D01*
X494842Y-104467D01*
X495075Y-104933D01*
X495133Y-105600D01*
X495075Y-106267D01*
X494842Y-106733D01*
X494550Y-107133D01*
X494200Y-107400D01*
X493733Y-107600D01*
X492567D01*
G01X499817D02*
X497483D01*
Y-103600D01*
X499817D01*
G01X498883Y-105533D02*
X497483D01*
G01X502225Y-107067D02*
X502692Y-107400D01*
X503217Y-107600D01*
X503683D01*
X504150Y-107400D01*
X504500Y-107067D01*
X504675Y-106600D01*
X504558Y-106133D01*
X504267Y-105733D01*
X503742Y-105467D01*
X503042Y-105333D01*
X502633Y-105067D01*
X502458Y-104600D01*
X502575Y-104133D01*
X502867Y-103800D01*
X503275Y-103600D01*
X503683D01*
X504092Y-103733D01*
X504442Y-104067D01*
G01X507550Y-103600D02*
X508950D01*
G01X508250D02*
Y-107600D01*
G01X507550D02*
X508950D01*
G01X513400Y-105600D02*
X514567D01*
Y-106800D01*
X514217Y-107200D01*
X513808Y-107467D01*
X513225Y-107600D01*
X512642Y-107467D01*
X512233Y-107200D01*
X511883Y-106800D01*
X511650Y-106333D01*
X511533Y-105800D01*
Y-105333D01*
X511650Y-104933D01*
X511883Y-104467D01*
X512233Y-104067D01*
X512583Y-103800D01*
X513050Y-103600D01*
X513458D01*
X513925Y-103733D01*
X514275Y-104000D01*
G01X516508Y-107600D02*
Y-103600D01*
X519192Y-107600D01*
Y-103600D01*
G01X377483Y-99600D02*
Y-95600D01*
X378883D01*
X379350Y-95800D01*
X379700Y-96267D01*
X379817Y-96800D01*
X379700Y-97333D01*
X379408Y-97733D01*
X378883Y-97933D01*
X377483D01*
G01X382283Y-99600D02*
Y-95600D01*
X383742D01*
X384208Y-95800D01*
X384500Y-96067D01*
X384617Y-96600D01*
X384500Y-97133D01*
X384150Y-97467D01*
X383742Y-97667D01*
X382283D01*
G01X383742D02*
X384617Y-99600D01*
G01X388250D02*
X387783Y-99533D01*
X387375Y-99267D01*
X387025Y-98867D01*
X386792Y-98400D01*
X386675Y-97867D01*
Y-97333D01*
X386792Y-96800D01*
X387025Y-96333D01*
X387375Y-95933D01*
X387783Y-95667D01*
X388250Y-95600D01*
X388717Y-95667D01*
X389125Y-95933D01*
X389475Y-96333D01*
X389708Y-96800D01*
X389825Y-97333D01*
Y-97867D01*
X389708Y-98400D01*
X389475Y-98867D01*
X389125Y-99267D01*
X388717Y-99533D01*
X388250Y-99600D01*
G01X391883D02*
Y-95600D01*
X393283D01*
X393750Y-95800D01*
X394100Y-96267D01*
X394217Y-96800D01*
X394100Y-97333D01*
X393808Y-97733D01*
X393283Y-97933D01*
X391883D01*
G01X396683Y-99600D02*
Y-95600D01*
X398142D01*
X398608Y-95800D01*
X398900Y-96067D01*
X399017Y-96600D01*
X398900Y-97133D01*
X398550Y-97467D01*
X398142Y-97667D01*
X396683D01*
G01X398142D02*
X399017Y-99600D01*
G01X401950Y-95600D02*
X403350D01*
G01X402650D02*
Y-99600D01*
G01X401950D02*
X403350D01*
G01X408617D02*
X406283D01*
Y-95600D01*
X408617D01*
G01X407683Y-97533D02*
X406283D01*
G01X412250Y-95600D02*
Y-99600D01*
G01X410908Y-95600D02*
X413592D01*
G01X415592Y-99600D02*
X417050Y-95600D01*
X418508Y-99600D01*
G01X417983Y-98200D02*
X416117D01*
G01X420683Y-99600D02*
Y-95600D01*
X422142D01*
X422608Y-95800D01*
X422900Y-96067D01*
X423017Y-96600D01*
X422900Y-97133D01*
X422550Y-97467D01*
X422142Y-97667D01*
X420683D01*
G01X422142D02*
X423017Y-99600D01*
G01X426650D02*
Y-97800D01*
X425483Y-95600D01*
G01X427817D02*
X426650Y-97800D01*
G01X436250Y-95600D02*
Y-99600D01*
G01X434908Y-95600D02*
X437592D01*
G01X441050Y-99600D02*
X440583Y-99533D01*
X440175Y-99267D01*
X439825Y-98867D01*
X439592Y-98400D01*
X439475Y-97867D01*
Y-97333D01*
X439592Y-96800D01*
X439825Y-96333D01*
X440175Y-95933D01*
X440583Y-95667D01*
X441050Y-95600D01*
X441517Y-95667D01*
X441925Y-95933D01*
X442275Y-96333D01*
X442508Y-96800D01*
X442625Y-97333D01*
Y-97867D01*
X442508Y-98400D01*
X442275Y-98867D01*
X441925Y-99267D01*
X441517Y-99533D01*
X441050Y-99600D01*
G01X449308D02*
Y-95600D01*
X451992Y-99600D01*
Y-95600D01*
G01X454225Y-99600D02*
X456675Y-95600D01*
G01X454225D02*
X456675Y-99600D01*
G01X459083D02*
Y-95600D01*
X460483D01*
X460950Y-95800D01*
X461300Y-96267D01*
X461417Y-96800D01*
X461300Y-97333D01*
X461008Y-97733D01*
X460483Y-97933D01*
X459083D01*
G01X468392Y-99600D02*
X469850Y-95600D01*
X471308Y-99600D01*
G01X470783Y-98200D02*
X468917D01*
G01X473308Y-99600D02*
Y-95600D01*
X475992Y-99600D01*
Y-95600D01*
G01X478167Y-99600D02*
Y-95600D01*
X479333D01*
X479800Y-95800D01*
X480150Y-96067D01*
X480442Y-96467D01*
X480675Y-96933D01*
X480733Y-97600D01*
X480675Y-98267D01*
X480442Y-98733D01*
X480150Y-99133D01*
X479800Y-99400D01*
X479333Y-99600D01*
X478167D01*
G01X487825Y-99067D02*
X488292Y-99400D01*
X488817Y-99600D01*
X489283D01*
X489750Y-99400D01*
X490100Y-99067D01*
X490275Y-98600D01*
X490158Y-98133D01*
X489867Y-97733D01*
X489342Y-97467D01*
X488642Y-97333D01*
X488233Y-97067D01*
X488058Y-96600D01*
X488175Y-96133D01*
X488467Y-95800D01*
X488875Y-95600D01*
X489283D01*
X489692Y-95733D01*
X490042Y-96067D01*
G01X492625Y-99600D02*
Y-95600D01*
G01X495075D02*
Y-99600D01*
G01Y-97600D02*
X492625D01*
G01X497192Y-99600D02*
X498650Y-95600D01*
X500108Y-99600D01*
G01X499583Y-98200D02*
X497717D01*
G01X502283Y-95600D02*
Y-99600D01*
X504617D01*
G01X507083Y-95600D02*
Y-99600D01*
X509417D01*
G01X516508D02*
Y-95600D01*
X519192Y-99600D01*
Y-95600D01*
G01X522650Y-99600D02*
X522183Y-99533D01*
X521775Y-99267D01*
X521425Y-98867D01*
X521192Y-98400D01*
X521075Y-97867D01*
Y-97333D01*
X521192Y-96800D01*
X521425Y-96333D01*
X521775Y-95933D01*
X522183Y-95667D01*
X522650Y-95600D01*
X523117Y-95667D01*
X523525Y-95933D01*
X523875Y-96333D01*
X524108Y-96800D01*
X524225Y-97333D01*
Y-97867D01*
X524108Y-98400D01*
X523875Y-98867D01*
X523525Y-99267D01*
X523117Y-99533D01*
X522650Y-99600D01*
G01X527450Y-95600D02*
Y-99600D01*
G01X526108Y-95600D02*
X528792D01*
G01X378650Y-87600D02*
Y-91600D01*
G01X377308Y-87600D02*
X379992D01*
G01X382225Y-91600D02*
Y-87600D01*
G01X384675D02*
Y-91600D01*
G01Y-89600D02*
X382225D01*
G01X387550Y-87600D02*
X388950D01*
G01X388250D02*
Y-91600D01*
G01X387550D02*
X388950D01*
G01X391825Y-91067D02*
X392292Y-91400D01*
X392817Y-91600D01*
X393283D01*
X393750Y-91400D01*
X394100Y-91067D01*
X394275Y-90600D01*
X394158Y-90133D01*
X393867Y-89733D01*
X393342Y-89467D01*
X392642Y-89333D01*
X392233Y-89067D01*
X392058Y-88600D01*
X392175Y-88133D01*
X392467Y-87800D01*
X392875Y-87600D01*
X393283D01*
X393692Y-87733D01*
X394042Y-88067D01*
G01X401367Y-91600D02*
Y-87600D01*
X402533D01*
X403000Y-87800D01*
X403350Y-88067D01*
X403642Y-88467D01*
X403875Y-88933D01*
X403933Y-89600D01*
X403875Y-90267D01*
X403642Y-90733D01*
X403350Y-91133D01*
X403000Y-91400D01*
X402533Y-91600D01*
X401367D01*
G01X407450D02*
X406983Y-91533D01*
X406575Y-91267D01*
X406225Y-90867D01*
X405992Y-90400D01*
X405875Y-89867D01*
Y-89333D01*
X405992Y-88800D01*
X406225Y-88333D01*
X406575Y-87933D01*
X406983Y-87667D01*
X407450Y-87600D01*
X407917Y-87667D01*
X408325Y-87933D01*
X408675Y-88333D01*
X408908Y-88800D01*
X409025Y-89333D01*
Y-89867D01*
X408908Y-90400D01*
X408675Y-90867D01*
X408325Y-91267D01*
X407917Y-91533D01*
X407450Y-91600D01*
G01X413533Y-87933D02*
X413183Y-87733D01*
X412775Y-87600D01*
X412308D01*
X411783Y-87800D01*
X411375Y-88133D01*
X411083Y-88533D01*
X410850Y-89200D01*
X410792Y-89800D01*
X410908Y-90400D01*
X411083Y-90800D01*
X411433Y-91200D01*
X411842Y-91467D01*
X412250Y-91600D01*
X412658D01*
X413067Y-91467D01*
X413417Y-91267D01*
X413708Y-91000D01*
G01X415767Y-87600D02*
Y-90467D01*
X416000Y-91067D01*
X416467Y-91467D01*
X417050Y-91600D01*
X417633Y-91467D01*
X418100Y-91067D01*
X418333Y-90467D01*
Y-87600D01*
G01X420333Y-91600D02*
Y-87600D01*
X421850Y-90933D01*
X423367Y-87600D01*
Y-91600D01*
G01X427817D02*
X425483D01*
Y-87600D01*
X427817D01*
G01X426883Y-89533D02*
X425483D01*
G01X430108Y-91600D02*
Y-87600D01*
X432792Y-91600D01*
Y-87600D01*
G01X436250D02*
Y-91600D01*
G01X434908Y-87600D02*
X437592D01*
G01X447133Y-87933D02*
X446783Y-87733D01*
X446375Y-87600D01*
X445908D01*
X445383Y-87800D01*
X444975Y-88133D01*
X444683Y-88533D01*
X444450Y-89200D01*
X444392Y-89800D01*
X444508Y-90400D01*
X444683Y-90800D01*
X445033Y-91200D01*
X445442Y-91467D01*
X445850Y-91600D01*
X446258D01*
X446667Y-91467D01*
X447017Y-91267D01*
X447308Y-91000D01*
G01X450650Y-91600D02*
X450183Y-91533D01*
X449775Y-91267D01*
X449425Y-90867D01*
X449192Y-90400D01*
X449075Y-89867D01*
Y-89333D01*
X449192Y-88800D01*
X449425Y-88333D01*
X449775Y-87933D01*
X450183Y-87667D01*
X450650Y-87600D01*
X451117Y-87667D01*
X451525Y-87933D01*
X451875Y-88333D01*
X452108Y-88800D01*
X452225Y-89333D01*
Y-89867D01*
X452108Y-90400D01*
X451875Y-90867D01*
X451525Y-91267D01*
X451117Y-91533D01*
X450650Y-91600D01*
G01X454108D02*
Y-87600D01*
X456792Y-91600D01*
Y-87600D01*
G01X460250D02*
Y-91600D01*
G01X458908Y-87600D02*
X461592D01*
G01X463592Y-91600D02*
X465050Y-87600D01*
X466508Y-91600D01*
G01X465983Y-90200D02*
X464117D01*
G01X469150Y-87600D02*
X470550D01*
G01X469850D02*
Y-91600D01*
G01X469150D02*
X470550D01*
G01X473308D02*
Y-87600D01*
X475992Y-91600D01*
Y-87600D01*
G01X478225Y-91067D02*
X478692Y-91400D01*
X479217Y-91600D01*
X479683D01*
X480150Y-91400D01*
X480500Y-91067D01*
X480675Y-90600D01*
X480558Y-90133D01*
X480267Y-89733D01*
X479742Y-89467D01*
X479042Y-89333D01*
X478633Y-89067D01*
X478458Y-88600D01*
X478575Y-88133D01*
X478867Y-87800D01*
X479275Y-87600D01*
X479683D01*
X480092Y-87733D01*
X480442Y-88067D01*
G01X488350Y-87600D02*
X489750D01*
G01X489050D02*
Y-91600D01*
G01X488350D02*
X489750D01*
G01X492508D02*
Y-87600D01*
X495192Y-91600D01*
Y-87600D01*
G01X497542Y-91600D02*
Y-87600D01*
X499758D01*
G01X498942Y-89533D02*
X497542D01*
G01X503450Y-91600D02*
X502983Y-91533D01*
X502575Y-91267D01*
X502225Y-90867D01*
X501992Y-90400D01*
X501875Y-89867D01*
Y-89333D01*
X501992Y-88800D01*
X502225Y-88333D01*
X502575Y-87933D01*
X502983Y-87667D01*
X503450Y-87600D01*
X503917Y-87667D01*
X504325Y-87933D01*
X504675Y-88333D01*
X504908Y-88800D01*
X505025Y-89333D01*
Y-89867D01*
X504908Y-90400D01*
X504675Y-90867D01*
X504325Y-91267D01*
X503917Y-91533D01*
X503450Y-91600D01*
G01X507083D02*
Y-87600D01*
X508542D01*
X509008Y-87800D01*
X509300Y-88067D01*
X509417Y-88600D01*
X509300Y-89133D01*
X508950Y-89467D01*
X508542Y-89667D01*
X507083D01*
G01X508542D02*
X509417Y-91600D01*
G01X511533D02*
Y-87600D01*
X513050Y-90933D01*
X514567Y-87600D01*
Y-91600D01*
G01X516392D02*
X517850Y-87600D01*
X519308Y-91600D01*
G01X518783Y-90200D02*
X516917D01*
G01X522650Y-87600D02*
Y-91600D01*
G01X521308Y-87600D02*
X523992D01*
G01X526750D02*
X528150D01*
G01X527450D02*
Y-91600D01*
G01X526750D02*
X528150D01*
G01X532250D02*
X531783Y-91533D01*
X531375Y-91267D01*
X531025Y-90867D01*
X530792Y-90400D01*
X530675Y-89867D01*
Y-89333D01*
X530792Y-88800D01*
X531025Y-88333D01*
X531375Y-87933D01*
X531783Y-87667D01*
X532250Y-87600D01*
X532717Y-87667D01*
X533125Y-87933D01*
X533475Y-88333D01*
X533708Y-88800D01*
X533825Y-89333D01*
Y-89867D01*
X533708Y-90400D01*
X533475Y-90867D01*
X533125Y-91267D01*
X532717Y-91533D01*
X532250Y-91600D01*
G01X535708D02*
Y-87600D01*
X538392Y-91600D01*
Y-87600D01*
G01X389750Y-151100D02*
X389123Y-151000D01*
X388575Y-150600D01*
X388105Y-150000D01*
X387792Y-149300D01*
X387635Y-148500D01*
Y-147700D01*
X387792Y-146900D01*
X388105Y-146200D01*
X388575Y-145600D01*
X389123Y-145200D01*
X389750Y-145100D01*
X390377Y-145200D01*
X390925Y-145600D01*
X391395Y-146200D01*
X391708Y-146900D01*
X391865Y-147700D01*
Y-148500D01*
X391708Y-149300D01*
X391395Y-150000D01*
X390925Y-150600D01*
X390377Y-151000D01*
X389750Y-151100D01*
G01X394562D02*
Y-145100D01*
X397538D01*
G01X396442Y-148000D02*
X394562D01*
G01X408650Y-151100D02*
Y-145100D01*
X407710Y-146300D01*
G01Y-151100D02*
X409590D01*
G01X414950Y-145100D02*
X414323Y-145300D01*
X413853Y-145800D01*
X413540Y-146400D01*
X413305Y-147200D01*
X413227Y-148100D01*
X413305Y-149000D01*
X413540Y-149800D01*
X413853Y-150400D01*
X414323Y-150900D01*
X414950Y-151100D01*
X415577Y-150900D01*
X416047Y-150400D01*
X416360Y-149800D01*
X416595Y-149000D01*
X416673Y-148100D01*
X416595Y-147200D01*
X416360Y-146400D01*
X416047Y-145800D01*
X415577Y-145300D01*
X414950Y-145100D01*
G01X421542Y-142600D02*
Y-138600D01*
X423758D01*
G01X422942Y-140533D02*
X421542D01*
G01X426750Y-138600D02*
X428150D01*
G01X427450D02*
Y-142600D01*
G01X426750D02*
X428150D01*
G01X431083Y-138600D02*
Y-142600D01*
X433417D01*
G01X435533D02*
Y-138600D01*
X437050Y-141933D01*
X438567Y-138600D01*
Y-142600D01*
G01X425283Y-144500D02*
Y-150500D01*
X428417D01*
G01X431662Y-145500D02*
X432132Y-144900D01*
X432680Y-144600D01*
X433307Y-144500D01*
X434090Y-144700D01*
X434638Y-145200D01*
X434795Y-145800D01*
X434717Y-146400D01*
X434403Y-146900D01*
X432837Y-147900D01*
X432132Y-148600D01*
X431662Y-149600D01*
X431505Y-150500D01*
X434795D01*
G01X437100Y-152500D02*
X441800D01*
G01X446220Y-147500D02*
X447787D01*
Y-149300D01*
X447317Y-149900D01*
X446768Y-150300D01*
X445985Y-150500D01*
X445202Y-150300D01*
X444653Y-149900D01*
X444183Y-149300D01*
X443870Y-148600D01*
X443713Y-147800D01*
Y-147100D01*
X443870Y-146500D01*
X444183Y-145800D01*
X444653Y-145200D01*
X445123Y-144800D01*
X445750Y-144500D01*
X446298D01*
X446925Y-144700D01*
X447395Y-145100D01*
G01X450248Y-150500D02*
Y-144500D01*
X453852Y-150500D01*
Y-144500D01*
G01X456627Y-150500D02*
Y-144500D01*
X458193D01*
X458820Y-144800D01*
X459290Y-145200D01*
X459682Y-145800D01*
X459995Y-146500D01*
X460073Y-147500D01*
X459995Y-148500D01*
X459682Y-149200D01*
X459290Y-149800D01*
X458820Y-150200D01*
X458193Y-150500D01*
X456627D01*
G01X546367Y-142600D02*
Y-138600D01*
X547533D01*
X548000Y-138800D01*
X548350Y-139067D01*
X548642Y-139467D01*
X548875Y-139933D01*
X548933Y-140600D01*
X548875Y-141267D01*
X548642Y-141733D01*
X548350Y-142133D01*
X548000Y-142400D01*
X547533Y-142600D01*
X546367D01*
G01X550992D02*
X552450Y-138600D01*
X553908Y-142600D01*
G01X553383Y-141200D02*
X551517D01*
G01X557250Y-138600D02*
Y-142600D01*
G01X555908Y-138600D02*
X558592D01*
G01X563217Y-142600D02*
X560883D01*
Y-138600D01*
X563217D01*
G01X562283Y-140533D02*
X560883D01*
G01X546308Y-62600D02*
Y-58600D01*
X548992Y-62600D01*
Y-58600D01*
G01X550992Y-62600D02*
X552450Y-58600D01*
X553908Y-62600D01*
G01X553383Y-61200D02*
X551517D01*
G01X555733Y-62600D02*
Y-58600D01*
X557250Y-61933D01*
X558767Y-58600D01*
Y-62600D01*
G01X563217D02*
X560883D01*
Y-58600D01*
X563217D01*
G01X562283Y-60533D02*
X560883D01*
G01X549650Y-146600D02*
X549183Y-146733D01*
X548833Y-147067D01*
X548600Y-147467D01*
X548425Y-148000D01*
X548367Y-148600D01*
X548425Y-149200D01*
X548600Y-149733D01*
X548833Y-150133D01*
X549183Y-150467D01*
X549650Y-150600D01*
X550117Y-150467D01*
X550467Y-150133D01*
X550700Y-149733D01*
X550875Y-149200D01*
X550933Y-148600D01*
X550875Y-148000D01*
X550700Y-147467D01*
X550467Y-147067D01*
X550117Y-146733D01*
X549650Y-146600D01*
G01X553458Y-150133D02*
X553867Y-150467D01*
X554333Y-150600D01*
X554800Y-150467D01*
X555208Y-150067D01*
X555500Y-149467D01*
X555617Y-148867D01*
Y-148133D01*
X555500Y-147533D01*
X555208Y-147000D01*
X554858Y-146733D01*
X554450Y-146600D01*
X553983Y-146733D01*
X553633Y-147000D01*
X553400Y-147400D01*
X553283Y-147933D01*
X553400Y-148400D01*
X553692Y-148867D01*
X554042Y-149133D01*
X554450Y-149200D01*
X554917Y-149067D01*
X555267Y-148733D01*
X555617Y-148133D01*
G01X558492Y-149267D02*
X560008D01*
G01X564050Y-150600D02*
Y-146600D01*
X563350Y-147400D01*
G01Y-150600D02*
X564750D01*
G01X567567Y-150000D02*
X567917Y-150333D01*
X568325Y-150533D01*
X568850Y-150600D01*
X569375Y-150467D01*
X569783Y-150200D01*
X570075Y-149733D01*
X570133Y-149200D01*
X570017Y-148667D01*
X569725Y-148333D01*
X569317Y-148067D01*
X568908Y-148000D01*
X568500Y-148067D01*
X567975Y-148333D01*
X568150Y-146600D01*
X569725D01*
G01X572892Y-149267D02*
X574408D01*
G01X577342Y-147267D02*
X577692Y-146867D01*
X578100Y-146667D01*
X578567Y-146600D01*
X579150Y-146733D01*
X579558Y-147067D01*
X579675Y-147467D01*
X579617Y-147867D01*
X579383Y-148200D01*
X578217Y-148867D01*
X577692Y-149333D01*
X577342Y-150000D01*
X577225Y-150600D01*
X579675D01*
G01X581967Y-149800D02*
X582317Y-150267D01*
X582783Y-150533D01*
X583308Y-150600D01*
X583775Y-150533D01*
X584242Y-150200D01*
X584533Y-149800D01*
X584592Y-149400D01*
X584475Y-148933D01*
X584067Y-148600D01*
X583658Y-148467D01*
X583133D01*
G01X583658D02*
X584008Y-148267D01*
X584300Y-147933D01*
X584417Y-147533D01*
X584300Y-147133D01*
X584008Y-146800D01*
X583483Y-146600D01*
X582958Y-146667D01*
X582433Y-146933D01*
G01X555900Y-128433D02*
X559400D01*
G01X560700D02*
X564200D01*
G01X565500D02*
X569000D01*
G01X578133Y-123433D02*
X577783Y-123233D01*
X577375Y-123100D01*
X576908D01*
X576383Y-123300D01*
X575975Y-123633D01*
X575683Y-124033D01*
X575450Y-124700D01*
X575392Y-125300D01*
X575508Y-125900D01*
X575683Y-126300D01*
X576033Y-126700D01*
X576442Y-126967D01*
X576850Y-127100D01*
X577258D01*
X577667Y-126967D01*
X578017Y-126767D01*
X578308Y-126500D01*
G01X581650Y-127100D02*
X581183Y-127033D01*
X580775Y-126767D01*
X580425Y-126367D01*
X580192Y-125900D01*
X580075Y-125367D01*
Y-124833D01*
X580192Y-124300D01*
X580425Y-123833D01*
X580775Y-123433D01*
X581183Y-123167D01*
X581650Y-123100D01*
X582117Y-123167D01*
X582525Y-123433D01*
X582875Y-123833D01*
X583108Y-124300D01*
X583225Y-124833D01*
Y-125367D01*
X583108Y-125900D01*
X582875Y-126367D01*
X582525Y-126767D01*
X582117Y-127033D01*
X581650Y-127100D01*
G01X584933D02*
Y-123100D01*
X586450Y-126433D01*
X587967Y-123100D01*
Y-127100D01*
G01X590083D02*
Y-123100D01*
X591483D01*
X591950Y-123300D01*
X592300Y-123767D01*
X592417Y-124300D01*
X592300Y-124833D01*
X592008Y-125233D01*
X591483Y-125433D01*
X590083D01*
G01X594592Y-127100D02*
X596050Y-123100D01*
X597508Y-127100D01*
G01X596983Y-125700D02*
X595117D01*
G01X599508Y-127100D02*
Y-123100D01*
X602192Y-127100D01*
Y-123100D01*
G01X605650Y-127100D02*
Y-125300D01*
X604483Y-123100D01*
G01X606817D02*
X605650Y-125300D01*
G01X616533Y-123433D02*
X616183Y-123233D01*
X615775Y-123100D01*
X615308D01*
X614783Y-123300D01*
X614375Y-123633D01*
X614083Y-124033D01*
X613850Y-124700D01*
X613792Y-125300D01*
X613908Y-125900D01*
X614083Y-126300D01*
X614433Y-126700D01*
X614842Y-126967D01*
X615250Y-127100D01*
X615658D01*
X616067Y-126967D01*
X616417Y-126767D01*
X616708Y-126500D01*
G01X620050Y-127100D02*
X619583Y-127033D01*
X619175Y-126767D01*
X618825Y-126367D01*
X618592Y-125900D01*
X618475Y-125367D01*
Y-124833D01*
X618592Y-124300D01*
X618825Y-123833D01*
X619175Y-123433D01*
X619583Y-123167D01*
X620050Y-123100D01*
X620517Y-123167D01*
X620925Y-123433D01*
X621275Y-123833D01*
X621508Y-124300D01*
X621625Y-124833D01*
Y-125367D01*
X621508Y-125900D01*
X621275Y-126367D01*
X620925Y-126767D01*
X620517Y-127033D01*
X620050Y-127100D01*
G01X623508D02*
Y-123100D01*
X626192Y-127100D01*
Y-123100D01*
G01X628542Y-127100D02*
Y-123100D01*
X630758D01*
G01X629942Y-125033D02*
X628542D01*
G01X633750Y-123100D02*
X635150D01*
G01X634450D02*
Y-127100D01*
G01X633750D02*
X635150D01*
G01X637967D02*
Y-123100D01*
X639133D01*
X639600Y-123300D01*
X639950Y-123567D01*
X640242Y-123967D01*
X640475Y-124433D01*
X640533Y-125100D01*
X640475Y-125767D01*
X640242Y-126233D01*
X639950Y-126633D01*
X639600Y-126900D01*
X639133Y-127100D01*
X637967D01*
G01X645217D02*
X642883D01*
Y-123100D01*
X645217D01*
G01X644283Y-125033D02*
X642883D01*
G01X647508Y-127100D02*
Y-123100D01*
X650192Y-127100D01*
Y-123100D01*
G01X653650D02*
Y-127100D01*
G01X652308Y-123100D02*
X654992D01*
G01X657750D02*
X659150D01*
G01X658450D02*
Y-127100D01*
G01X657750D02*
X659150D01*
G01X661792D02*
X663250Y-123100D01*
X664708Y-127100D01*
G01X664183Y-125700D02*
X662317D01*
G01X666883Y-123100D02*
Y-127100D01*
X669217D01*
G01X555900Y-111933D02*
X559400D01*
G01X560700D02*
X564200D01*
G01X565500D02*
X569000D01*
G01X578133Y-106933D02*
X577783Y-106733D01*
X577375Y-106600D01*
X576908D01*
X576383Y-106800D01*
X575975Y-107133D01*
X575683Y-107533D01*
X575450Y-108200D01*
X575392Y-108800D01*
X575508Y-109400D01*
X575683Y-109800D01*
X576033Y-110200D01*
X576442Y-110467D01*
X576850Y-110600D01*
X577258D01*
X577667Y-110467D01*
X578017Y-110267D01*
X578308Y-110000D01*
G01X581650Y-110600D02*
X581183Y-110533D01*
X580775Y-110267D01*
X580425Y-109867D01*
X580192Y-109400D01*
X580075Y-108867D01*
Y-108333D01*
X580192Y-107800D01*
X580425Y-107333D01*
X580775Y-106933D01*
X581183Y-106667D01*
X581650Y-106600D01*
X582117Y-106667D01*
X582525Y-106933D01*
X582875Y-107333D01*
X583108Y-107800D01*
X583225Y-108333D01*
Y-108867D01*
X583108Y-109400D01*
X582875Y-109867D01*
X582525Y-110267D01*
X582117Y-110533D01*
X581650Y-110600D01*
G01X584933D02*
Y-106600D01*
X586450Y-109933D01*
X587967Y-106600D01*
Y-110600D01*
G01X590083D02*
Y-106600D01*
X591483D01*
X591950Y-106800D01*
X592300Y-107267D01*
X592417Y-107800D01*
X592300Y-108333D01*
X592008Y-108733D01*
X591483Y-108933D01*
X590083D01*
G01X594592Y-110600D02*
X596050Y-106600D01*
X597508Y-110600D01*
G01X596983Y-109200D02*
X595117D01*
G01X599508Y-110600D02*
Y-106600D01*
X602192Y-110600D01*
Y-106600D01*
G01X605650Y-110600D02*
Y-108800D01*
X604483Y-106600D01*
G01X606817D02*
X605650Y-108800D01*
G01X614550Y-106600D02*
X615950D01*
G01X615250D02*
Y-110600D01*
G01X614550D02*
X615950D01*
G01X618708D02*
Y-106600D01*
X621392Y-110600D01*
Y-106600D01*
G01X624850D02*
Y-110600D01*
G01X623508Y-106600D02*
X626192D01*
G01X630817Y-110600D02*
X628483D01*
Y-106600D01*
X630817D01*
G01X629883Y-108533D02*
X628483D01*
G01X633283Y-110600D02*
Y-106600D01*
X634742D01*
X635208Y-106800D01*
X635500Y-107067D01*
X635617Y-107600D01*
X635500Y-108133D01*
X635150Y-108467D01*
X634742Y-108667D01*
X633283D01*
G01X634742D02*
X635617Y-110600D01*
G01X637908D02*
Y-106600D01*
X640592Y-110600D01*
Y-106600D01*
G01X642592Y-110600D02*
X644050Y-106600D01*
X645508Y-110600D01*
G01X644983Y-109200D02*
X643117D01*
G01X647683Y-106600D02*
Y-110600D01*
X650017D01*
G01X555900Y-95933D02*
X559400D01*
G01X560700D02*
X564200D01*
G01X565500D02*
X569000D01*
G01X578133Y-90933D02*
X577783Y-90733D01*
X577375Y-90600D01*
X576908D01*
X576383Y-90800D01*
X575975Y-91133D01*
X575683Y-91533D01*
X575450Y-92200D01*
X575392Y-92800D01*
X575508Y-93400D01*
X575683Y-93800D01*
X576033Y-94200D01*
X576442Y-94467D01*
X576850Y-94600D01*
X577258D01*
X577667Y-94467D01*
X578017Y-94267D01*
X578308Y-94000D01*
G01X581650Y-94600D02*
X581183Y-94533D01*
X580775Y-94267D01*
X580425Y-93867D01*
X580192Y-93400D01*
X580075Y-92867D01*
Y-92333D01*
X580192Y-91800D01*
X580425Y-91333D01*
X580775Y-90933D01*
X581183Y-90667D01*
X581650Y-90600D01*
X582117Y-90667D01*
X582525Y-90933D01*
X582875Y-91333D01*
X583108Y-91800D01*
X583225Y-92333D01*
Y-92867D01*
X583108Y-93400D01*
X582875Y-93867D01*
X582525Y-94267D01*
X582117Y-94533D01*
X581650Y-94600D01*
G01X584933D02*
Y-90600D01*
X586450Y-93933D01*
X587967Y-90600D01*
Y-94600D01*
G01X590083D02*
Y-90600D01*
X591483D01*
X591950Y-90800D01*
X592300Y-91267D01*
X592417Y-91800D01*
X592300Y-92333D01*
X592008Y-92733D01*
X591483Y-92933D01*
X590083D01*
G01X594592Y-94600D02*
X596050Y-90600D01*
X597508Y-94600D01*
G01X596983Y-93200D02*
X595117D01*
G01X599508Y-94600D02*
Y-90600D01*
X602192Y-94600D01*
Y-90600D01*
G01X605650Y-94600D02*
Y-92800D01*
X604483Y-90600D01*
G01X606817D02*
X605650Y-92800D01*
G01X614083Y-94600D02*
Y-90600D01*
X615483D01*
X615950Y-90800D01*
X616300Y-91267D01*
X616417Y-91800D01*
X616300Y-92333D01*
X616008Y-92733D01*
X615483Y-92933D01*
X614083D01*
G01X618767Y-90600D02*
Y-93467D01*
X619000Y-94067D01*
X619467Y-94467D01*
X620050Y-94600D01*
X620633Y-94467D01*
X621100Y-94067D01*
X621333Y-93467D01*
Y-90600D01*
G01X625317Y-92467D02*
X625550Y-92267D01*
X625725Y-91933D01*
X625842Y-91467D01*
X625725Y-91067D01*
X625492Y-90800D01*
X625083Y-90600D01*
X623508D01*
Y-94600D01*
X625433D01*
X625842Y-94333D01*
X626075Y-93933D01*
X626192Y-93467D01*
X626075Y-93000D01*
X625725Y-92600D01*
X625317Y-92467D01*
X623508D01*
G01X628483Y-90600D02*
Y-94600D01*
X630817D01*
G01X633750Y-90600D02*
X635150D01*
G01X634450D02*
Y-94600D01*
G01X633750D02*
X635150D01*
G01X640533Y-90933D02*
X640183Y-90733D01*
X639775Y-90600D01*
X639308D01*
X638783Y-90800D01*
X638375Y-91133D01*
X638083Y-91533D01*
X637850Y-92200D01*
X637792Y-92800D01*
X637908Y-93400D01*
X638083Y-93800D01*
X638433Y-94200D01*
X638842Y-94467D01*
X639250Y-94600D01*
X639658D01*
X640067Y-94467D01*
X640417Y-94267D01*
X640708Y-94000D01*
G01X560605Y-111600D02*
X563895Y-105300D01*
G01X560605D02*
X563895Y-111600D01*
G01X596308Y-142600D02*
Y-138600D01*
X598992Y-142600D01*
Y-138600D01*
G01X601167D02*
Y-141467D01*
X601400Y-142067D01*
X601867Y-142467D01*
X602450Y-142600D01*
X603033Y-142467D01*
X603500Y-142067D01*
X603733Y-141467D01*
Y-138600D01*
G01X605733Y-142600D02*
Y-138600D01*
X607250Y-141933D01*
X608767Y-138600D01*
Y-142600D01*
G01X612517Y-140467D02*
X612750Y-140267D01*
X612925Y-139933D01*
X613042Y-139467D01*
X612925Y-139067D01*
X612692Y-138800D01*
X612283Y-138600D01*
X610708D01*
Y-142600D01*
X612633D01*
X613042Y-142333D01*
X613275Y-141933D01*
X613392Y-141467D01*
X613275Y-141000D01*
X612925Y-140600D01*
X612517Y-140467D01*
X610708D01*
G01X618017Y-142600D02*
X615683D01*
Y-138600D01*
X618017D01*
G01X617083Y-140533D02*
X615683D01*
G01X620483Y-142600D02*
Y-138600D01*
X621942D01*
X622408Y-138800D01*
X622700Y-139067D01*
X622817Y-139600D01*
X622700Y-140133D01*
X622350Y-140467D01*
X621942Y-140667D01*
X620483D01*
G01X621942D02*
X622817Y-142600D01*
G01X619362Y-72700D02*
Y-66400D01*
X622338D01*
G01X621242Y-69445D02*
X619362D01*
G01X625583Y-72700D02*
Y-66400D01*
X627542D01*
X628168Y-66715D01*
X628560Y-67135D01*
X628717Y-67975D01*
X628560Y-68815D01*
X628090Y-69340D01*
X627542Y-69655D01*
X625583D01*
G01X627542D02*
X628717Y-72700D01*
G01X631727D02*
Y-66400D01*
X633293D01*
X633920Y-66715D01*
X634390Y-67135D01*
X634782Y-67765D01*
X635095Y-68500D01*
X635173Y-69550D01*
X635095Y-70600D01*
X634782Y-71335D01*
X634390Y-71965D01*
X633920Y-72385D01*
X633293Y-72700D01*
X631727D01*
G01X637713D02*
Y-66400D01*
X639750Y-71650D01*
X641787Y-66400D01*
Y-72700D01*
G01X645032Y-70600D02*
X647068D01*
G01X650313Y-72700D02*
Y-66400D01*
X652350Y-71650D01*
X654387Y-66400D01*
Y-72700D01*
G01X660373Y-66925D02*
X659903Y-66610D01*
X659355Y-66400D01*
X658728D01*
X658023Y-66715D01*
X657475Y-67240D01*
X657083Y-67870D01*
X656770Y-68920D01*
X656692Y-69865D01*
X656848Y-70810D01*
X657083Y-71440D01*
X657553Y-72070D01*
X658102Y-72490D01*
X658650Y-72700D01*
X659198D01*
X659747Y-72490D01*
X660217Y-72175D01*
X660608Y-71755D01*
G01X663305Y-72700D02*
X666595Y-66400D01*
G01X663305D02*
X666595Y-72700D01*
G01X669448D02*
Y-66400D01*
X673052Y-72700D01*
Y-66400D01*
G01X676218Y-71965D02*
X676767Y-72490D01*
X677393Y-72700D01*
X678020Y-72490D01*
X678568Y-71860D01*
X678960Y-70915D01*
X679117Y-69970D01*
Y-68815D01*
X678960Y-67870D01*
X678568Y-67030D01*
X678098Y-66610D01*
X677550Y-66400D01*
X676923Y-66610D01*
X676453Y-67030D01*
X676140Y-67660D01*
X675983Y-68500D01*
X676140Y-69235D01*
X676532Y-69970D01*
X677002Y-70390D01*
X677550Y-70495D01*
X678177Y-70285D01*
X678647Y-69760D01*
X679117Y-68815D01*
G01X684790Y-72700D02*
Y-66400D01*
X681892Y-70915D01*
X685808D01*
G01X689993Y-72700D02*
X690150Y-71335D01*
X690385Y-70180D01*
X690698Y-69130D01*
X691090Y-67975D01*
X691717Y-66400D01*
X688583D01*
G01X631250Y-149800D02*
Y-143500D01*
X630310Y-144760D01*
G01Y-149800D02*
X632190D01*
G01X637393D02*
X637550Y-148435D01*
X637785Y-147280D01*
X638098Y-146230D01*
X638490Y-145075D01*
X639117Y-143500D01*
X635983D01*
G01X643850D02*
X643223Y-143710D01*
X642753Y-144235D01*
X642440Y-144865D01*
X642205Y-145705D01*
X642127Y-146650D01*
X642205Y-147595D01*
X642440Y-148435D01*
X642753Y-149065D01*
X643223Y-149590D01*
X643850Y-149800D01*
X644477Y-149590D01*
X644947Y-149065D01*
X645260Y-148435D01*
X645495Y-147595D01*
X645573Y-146650D01*
X645495Y-145705D01*
X645260Y-144865D01*
X644947Y-144235D01*
X644477Y-143710D01*
X643850Y-143500D01*
G01X649132Y-147700D02*
X651168D01*
G01X655118Y-149065D02*
X655667Y-149590D01*
X656293Y-149800D01*
X656920Y-149590D01*
X657468Y-148960D01*
X657860Y-148015D01*
X658017Y-147070D01*
Y-145915D01*
X657860Y-144970D01*
X657468Y-144130D01*
X656998Y-143710D01*
X656450Y-143500D01*
X655823Y-143710D01*
X655353Y-144130D01*
X655040Y-144760D01*
X654883Y-145600D01*
X655040Y-146335D01*
X655432Y-147070D01*
X655902Y-147490D01*
X656450Y-147595D01*
X657077Y-147385D01*
X657547Y-146860D01*
X658017Y-145915D01*
G01X662750Y-143500D02*
X662123Y-143710D01*
X661653Y-144235D01*
X661340Y-144865D01*
X661105Y-145705D01*
X661027Y-146650D01*
X661105Y-147595D01*
X661340Y-148435D01*
X661653Y-149065D01*
X662123Y-149590D01*
X662750Y-149800D01*
X663377Y-149590D01*
X663847Y-149065D01*
X664160Y-148435D01*
X664395Y-147595D01*
X664473Y-146650D01*
X664395Y-145705D01*
X664160Y-144865D01*
X663847Y-144235D01*
X663377Y-143710D01*
X662750Y-143500D01*
G01X669050Y-149800D02*
X669598Y-149695D01*
X670225Y-149380D01*
X670617Y-148855D01*
X670773Y-148120D01*
X670617Y-147385D01*
X670147Y-146755D01*
X669442Y-146440D01*
X668658D01*
X668188Y-146230D01*
X667797Y-145705D01*
X667640Y-144970D01*
X667875Y-144235D01*
X668423Y-143710D01*
X669050Y-143500D01*
X669677Y-143710D01*
X670225Y-144235D01*
X670460Y-144970D01*
X670303Y-145705D01*
X669912Y-146230D01*
X669442Y-146440D01*
X668658D01*
X667953Y-146755D01*
X667483Y-147385D01*
X667327Y-148120D01*
X667483Y-148855D01*
X667875Y-149380D01*
X668502Y-149695D01*
X669050Y-149800D01*
G01X675350D02*
Y-143500D01*
X674410Y-144760D01*
G01Y-149800D02*
X676290D01*
G01X681650D02*
X682198Y-149695D01*
X682825Y-149380D01*
X683217Y-148855D01*
X683373Y-148120D01*
X683217Y-147385D01*
X682747Y-146755D01*
X682042Y-146440D01*
X681258D01*
X680788Y-146230D01*
X680397Y-145705D01*
X680240Y-144970D01*
X680475Y-144235D01*
X681023Y-143710D01*
X681650Y-143500D01*
X682277Y-143710D01*
X682825Y-144235D01*
X683060Y-144970D01*
X682903Y-145705D01*
X682512Y-146230D01*
X682042Y-146440D01*
X681258D01*
X680553Y-146755D01*
X680083Y-147385D01*
X679927Y-148120D01*
X680083Y-148855D01*
X680475Y-149380D01*
X681102Y-149695D01*
X681650Y-149800D01*
G01X724183D02*
Y-143500D01*
X726142D01*
X726768Y-143815D01*
X727160Y-144235D01*
X727317Y-145075D01*
X727160Y-145915D01*
X726690Y-146440D01*
X726142Y-146755D01*
X724183D01*
G01X726142D02*
X727317Y-149800D01*
G01X733617D02*
X730483D01*
Y-143500D01*
X733617D01*
G01X732363Y-146545D02*
X730483D01*
G01X736392Y-143500D02*
X738350Y-149800D01*
X740308Y-143500D01*
G01X751577Y-146440D02*
X751890Y-146125D01*
X752125Y-145600D01*
X752282Y-144865D01*
X752125Y-144235D01*
X751812Y-143815D01*
X751263Y-143500D01*
X749148D01*
Y-149800D01*
X751733D01*
X752282Y-149380D01*
X752595Y-148750D01*
X752752Y-148015D01*
X752595Y-147280D01*
X752125Y-146650D01*
X751577Y-146440D01*
X749148D01*
G54D14*
X41300Y150500D03*
Y164500D03*
X132000Y107000D03*
X301800Y45000D03*
G54D24*
G01X367900Y-134600D02*
X767900D01*
G01X367900Y-104600D02*
Y-84600D01*
X767900D01*
G01X417900Y-154600D02*
Y-134600D01*
G01X542900Y-84600D02*
Y-54600D01*
G01X543400Y-154600D02*
Y-134600D01*
G01X592900Y-154600D02*
Y-134600D01*
G54D15*
X51550Y12050D03*
G54D25*
G01X428169Y205268D02*
X-7518D01*
G03X-14744Y197724I324J-7543D01*
G01Y-3394D01*
G03X-6870Y-11268I7874J0D01*
G01X30532D01*
X430138D01*
X441949D01*
G03X449823Y-3394I0J7874D01*
G01Y197394D01*
G03X441949Y205268I-7874J0D01*
G01X428169D01*
G54D16*
X76000Y192000D03*
X131550Y2050D03*
X141550D03*
X252000D03*
Y12050D03*
G54D17*
X84468Y122187D03*
X82500Y136070D03*
X90718Y127937D03*
X95468Y120187D03*
X95998Y148187D03*
X106718Y131937D03*
X106858Y138127D03*
X109968Y120187D03*
Y148187D03*
X240300Y121400D03*
X255626Y102000D03*
Y111874D03*
X261500Y92157D03*
X263500Y102000D03*
X261423Y111843D03*
X271374Y92126D03*
X269500Y94005D03*
X271374Y102000D03*
Y111824D03*
X274500Y62000D03*
X277500Y83000D03*
X279448Y90189D03*
X318305Y97000D03*
G54D18*
X150400Y40250D03*
X296500Y192000D03*
G54D19*
X172500Y124800D03*
X177500D03*
M02*
