G04 ================== begin FILE IDENTIFICATION RECORD ==================*
G04 Layout Name:  C:/Users/nxf76403/Work/90818-B/pcb/a080-1/FabOutput/LAY-90818_B.brd*
G04 Film Name:    L4_SS.art*
G04 File Format:  Gerber RS274X*
G04 File Origin:  Cadence Allegro 17.4-S021*
G04 Origin Date:  Mon Sep 18 14:44:30 2023*
G04 *
G04 Layer:  BOARD GEOMETRY/DESIGN_OUTLINE*
G04 Layer:  VIA CLASS/BOTTOM*
G04 Layer:  PIN/BOTTOM*
G04 Layer:  PACKAGE GEOMETRY/SHORT_LAYER_BOTTOM*
G04 Layer:  ETCH/BOTTOM*
G04 Layer:  DRAWING FORMAT/FILM_TITLE_BLOCK*
G04 *
G04 Offset:    (0.000 0.000)*
G04 Mirror:    No*
G04 Mode:      Positive*
G04 Rotation:  0*
G04 FullContactRelief:  No*
G04 UndefLineWidth:     8.000*
G04 ================== end FILE IDENTIFICATION RECORD ====================*
%FSLAX55Y55*MOIN*%
%IR0*IPPOS*OFA0.00000B0.00000*MIA0B0*SFA1.00000B1.00000*%
%ADD13O,.112X.053*%
%AMMACRO43*
4,1,22,.015,-.018405,
.015,.003405,
.014772,.00601,
.014094,.008535,
.012989,.010905,
.011489,.013046,
.009639,.014895,
.007497,.016394,
.005127,.017498,
.002602,.018175,
-.000003,.018402,
-.002608,.018173,
-.005133,.017496,
-.007503,.016391,
-.009644,.014891,
-.011493,.013041,
-.012992,.010899,
-.014096,.008529,
-.014773,.006004,
-.015,.003405,
-.015,-.018405,
0.0,-.009655,
.015,-.018405,
0.0*
%
%ADD43MACRO43*%
%AMMACRO42*
4,1,6,-.015,.0088,
0.0,.0175,
.015,.0088,
.015,-.0088,
0.0,-.0175,
-.015,-.0088,
-.015,.0088,
0.0*
%
%ADD42MACRO42*%
%AMMACRO34*
4,1,22,-.018405,-.015,
.003405,-.015,
.00601,-.014772,
.008535,-.014094,
.010905,-.012989,
.013046,-.011489,
.014895,-.009639,
.016394,-.007497,
.017498,-.005127,
.018175,-.002602,
.018402,.000003,
.018173,.002608,
.017496,.005133,
.016391,.007503,
.014891,.009644,
.013041,.011493,
.010899,.012992,
.008529,.014096,
.006004,.014773,
.003405,.015,
-.018405,.015,
-.009655,0.0,
-.018405,-.015,
0.0*
%
%ADD34MACRO34*%
%AMMACRO32*
4,1,6,.0088,.015,
.0175,0.0,
.0088,-.015,
-.0088,-.015,
-.0175,0.0,
-.0088,.015,
.0088,.015,
0.0*
%
%ADD32MACRO32*%
%ADD18R,.025X.012*%
%ADD19O,.06X.035*%
%ADD23O,.035X.06*%
%AMMACRO46*
4,1,6,.015,-.0088,
0.0,-.0175,
-.015,-.0088,
-.015,.0088,
0.0,.0175,
.015,.0088,
.015,-.0088,
0.0*
%
%ADD46MACRO46*%
%ADD39O,.04X.056*%
%AMMACRO36*
4,1,6,-.0088,-.015,
-.0175,0.0,
-.0088,.015,
.0088,.015,
.0175,0.0,
.0088,-.015,
-.0088,-.015,
0.0*
%
%ADD36MACRO36*%
%ADD26O,.045X.035*%
%ADD35O,.035X.045*%
%ADD21R,.018X.051*%
%ADD12C,.02*%
%ADD51R,.024X.055*%
%ADD44C,.03*%
%AMMACRO41*
4,1,22,-.015,.018405,
-.015,-.003405,
-.014772,-.00601,
-.014094,-.008535,
-.012989,-.010905,
-.011489,-.013046,
-.009639,-.014895,
-.007497,-.016394,
-.005127,-.017498,
-.002602,-.018175,
.000003,-.018402,
.002608,-.018173,
.005133,-.017496,
.007503,-.016391,
.009644,-.014891,
.011493,-.013041,
.012992,-.010899,
.014096,-.008529,
.014773,-.006004,
.015,-.003405,
.015,.018405,
0.0,.009655,
-.015,.018405,
0.0*
%
%ADD41MACRO41*%
%ADD15O,.094X.035*%
%ADD10O,.067X.035*%
%AMMACRO33*
4,1,22,.018405,.015,
-.003405,.015,
-.00601,.014772,
-.008535,.014094,
-.010905,.012989,
-.013046,.011489,
-.014895,.009639,
-.016394,.007497,
-.017498,.005127,
-.018175,.002602,
-.018402,-.000003,
-.018173,-.002608,
-.017496,-.005133,
-.016391,-.007503,
-.014891,-.009644,
-.013041,-.011493,
-.010899,-.012992,
-.008529,-.014096,
-.006004,-.014773,
-.003405,-.015,
.018405,-.015,
.009655,0.0,
.018405,.015,
0.0*
%
%ADD33MACRO33*%
%ADD38C,.06*%
%ADD52C,.061*%
%ADD49R,.043X.094*%
%ADD31C,.016*%
%ADD14C,.025*%
%ADD29R,.039X.028*%
%ADD25C,.08*%
%ADD16C,.026*%
%ADD50C,.018*%
%ADD45R,.04X.04*%
%ADD24C,.065*%
%ADD20C,.047*%
%ADD40C,.066*%
%ADD48C,.067*%
%ADD37R,.06X.06*%
%ADD53R,.061X.061*%
%ADD28R,.08X.08*%
%ADD22C,.069*%
%ADD17R,.026X.026*%
%ADD30R,.065X.065*%
%ADD11R,.066X.066*%
%ADD47R,.067X.067*%
%ADD27R,.069X.069*%
%ADD54C,.004*%
%ADD55C,.006*%
%ADD56C,.0035*%
%ADD57C,.0044*%
%ADD58C,.00315*%
%ADD59C,.01*%
%ADD60C,.012*%
%ADD61C,.015*%
%ADD62C,.008*%
%ADD63C,.032004*%
%ADD64C,.077004*%
G75*
%LPD*%
G75*
G36*
G01X-10000Y56500D02*
X27000D01*
X27500Y56000D01*
Y52500D01*
X27000D01*
X22000Y52500D01*
X19414Y52500D01*
X15086Y52500D01*
X15085Y52500D01*
X14000D01*
X11485Y49985D01*
G02X10817Y50158I-283J283D01*
G03X8363Y52013I-2454J-695D01*
G01X2463D01*
G03X-87Y49463I0J-2550D01*
G03X300Y48112I2550J0D01*
G02X-39Y47500I-339J-212D01*
G01X-3792D01*
G02X-4131Y48112I0J400D01*
G03X-3744Y49463I-2163J1351D01*
G03X-6294Y52013I-2550J0D01*
G01X-9494D01*
G03X-10450Y51827I0J-2550D01*
G02X-11000Y52198I-150J371D01*
G01Y55500D01*
X-10000Y56500D01*
G37*
G36*
G01X29242Y159400D02*
G03X29290Y159401I-1J1000D01*
G02X29500Y159201I10J-200D01*
G01Y148500D01*
X28000Y147000D01*
X12300D01*
X11300Y148000D01*
X11273D01*
G02X11099Y148299I0J200D01*
G03X11372Y149334I-1827J1035D01*
G03X10809Y150764I-2100J0D01*
G02X10819Y151319I293J272D01*
G01X12000Y152500D01*
X26000D01*
X27000Y153500D01*
Y159400D01*
X29242D01*
G37*
G36*
G01X15500Y51500D02*
X19000D01*
X22000Y48500D01*
X27000Y48500D01*
X31000Y48500D01*
X35500Y48500D01*
X36500Y47500D01*
Y41500D01*
X35500Y40500D01*
X30108D01*
X30076Y40511D01*
G03X29742Y40569I-334J-943D01*
G01X27242D01*
G03X26909Y40511I0J-1000D01*
G01X26876Y40500D01*
X24124D01*
X24091Y40511D01*
G03X23758Y40569I-334J-943D01*
G01X21258D01*
G03X20924Y40511I0J-1000D01*
G01X20892Y40500D01*
X20000D01*
X19000Y39500D01*
X16500D01*
X15000Y41000D01*
Y51000D01*
X15500Y51500D01*
G37*
G36*
G01X31000Y62000D02*
X44000D01*
X45000Y61000D01*
Y53500D01*
X44000Y52500D01*
X36000D01*
X31000Y52500D01*
X30000Y53500D01*
Y61000D01*
X31000Y62000D01*
G37*
G36*
G01X59500Y109400D02*
Y114600D01*
X59900Y115000D01*
X67600D01*
X68000Y114600D01*
Y109400D01*
X67600Y109000D01*
X59900D01*
X59500Y109400D01*
G37*
G36*
G01X69000Y29000D02*
X79000D01*
X79482Y28518D01*
X79452Y28407D01*
G03X79400Y28000I1547J-407D01*
G03X80000Y26751I1600J0D01*
G01Y18500D01*
X77500Y16000D01*
Y7500D01*
X79274Y5726D01*
G02X79232Y5124I-283J-283D01*
G03X77700Y2050I2318J-3074D01*
G03X85400I3850J0D01*
G03X84231Y4813I-3850J0D01*
G02X84510Y5500I279J287D01*
G01X88309D01*
G02X88601Y4826I0J-400D01*
G03X87500Y2050I2949J-2776D01*
G03X95600I4050J0D01*
G03X94499Y4826I-4050J0D01*
G02X94791Y5500I291J274D01*
G01X98590D01*
G02X98869Y4813I0J-400D01*
G03X97700Y2050I2681J-2763D01*
G03X105400I3850J0D01*
G03X104870Y3999I-3850J0D01*
G01X104792Y4132D01*
X106160Y5500D01*
X108309D01*
G02X108601Y4826I0J-400D01*
G03X107500Y2050I2949J-2776D01*
G03X115600I4050J0D01*
G03X114160Y5147I-4050J0D01*
G01X114089Y5207D01*
Y5500D01*
X114500D01*
X116500Y3500D01*
Y-5000D01*
X114500Y-7000D01*
X70500D01*
X68000Y-4500D01*
Y28000D01*
X69000Y29000D01*
G37*
G36*
G01X87000Y122000D02*
X92000D01*
X92500Y121500D01*
Y111050D01*
X92050D01*
G03X91450Y110450I0J-600D01*
G01Y109000D01*
X71500D01*
X71000Y109500D01*
Y113500D01*
X77000D01*
X81000Y113500D01*
X85500Y113500D01*
X86500Y114500D01*
Y116086D01*
X86500Y116088D01*
G03X86500Y116100I-500J10D01*
G01Y116900D01*
G03X86500Y116912I-500J2D01*
G01X86500Y116914D01*
Y121500D01*
X87000Y122000D01*
G37*
G36*
G01X100500Y79500D02*
X107000D01*
X108000Y78500D01*
Y76900D01*
X106700Y75600D01*
Y67800D01*
X108000Y66500D01*
X108200Y66300D01*
X111700D01*
X112894Y65106D01*
X112910Y65068D01*
G03X113100Y64694I2091J832D01*
G01Y62671D01*
X113087Y62637D01*
G03X112950Y61900I1913J-737D01*
G03X113087Y61164I2050J0D01*
G01X113100Y61129D01*
Y59000D01*
X112500Y58400D01*
X103323D01*
G03X102000Y59100I-1323J-900D01*
G03X100400Y57500I0J-1600D01*
G03X100400Y57485I1600J3D01*
G01X100401Y57401D01*
X97500Y54500D01*
X80500D01*
X78000Y57000D01*
Y66500D01*
X79000Y67500D01*
X82500D01*
X84500Y67500D01*
X86300Y65700D01*
Y61900D01*
X87700Y60500D01*
X90000D01*
X99500Y70000D01*
Y78500D01*
X100500Y79500D01*
G37*
G36*
G01X75500Y123000D02*
X85000D01*
X85500Y122500D01*
Y121914D01*
X85500Y116000D01*
X85000Y115500D01*
X81000D01*
X77000Y115500D01*
X75500Y115500D01*
X75000Y116000D01*
Y122500D01*
X75500Y123000D01*
G37*
G36*
G01X121843Y80400D02*
X126600D01*
X127000Y80000D01*
Y68500D01*
X126500Y68000D01*
X115500D01*
X115000Y68500D01*
Y74549D01*
X115005Y74569D01*
G03X115050Y75000I-2005J430D01*
G03X115005Y75431I-2050J0D01*
G01X115000Y75451D01*
Y79500D01*
X115900Y80400D01*
X119157D01*
G03X121843I1343J2400D01*
G37*
G36*
G01X117000Y153500D02*
X132500D01*
X132680Y153320D01*
Y144500D01*
G03X132920Y143920I820J0D01*
G01X133000Y143840D01*
Y133000D01*
X131820Y131820D01*
X131500D01*
G03X130920Y131580I0J-820D01*
G01X130340Y131000D01*
X129952D01*
Y131228D01*
X129960Y131254D01*
G03X130020Y131690I-1540J436D01*
G03X126820I-1600J0D01*
G03X126837Y131458I1600J0D01*
G02X126441Y131000I-396J-58D01*
G01X124500D01*
X123470Y129970D01*
Y120500D01*
X122470Y119500D01*
X118000D01*
X117320Y120180D01*
Y128500D01*
G03X117080Y129080I-820J0D01*
G01X116000Y130160D01*
Y136769D01*
G02X116514Y137153I400J0D01*
G03X116968Y137087I454J1534D01*
G03Y140287I0J1600D01*
G03X116514Y140221I0J-1600D01*
G02X116000Y140605I-114J384D01*
G01Y145277D01*
G03Y147723I-1032J1223D01*
G01Y152500D01*
X117000Y153500D01*
G37*
G36*
G01X144200Y43000D02*
X146000D01*
Y30500D01*
X155000Y21500D01*
Y15010D01*
G02X154313Y14731I-400J0D01*
G03X151550Y15900I-2763J-2681D01*
G03Y8200I0J-3850D01*
G03X154313Y9369I0J3850D01*
G02X155000Y9090I287J-279D01*
G01Y5291D01*
G02X154326Y4999I-400J0D01*
G03X151550Y6100I-2776J-2949D01*
G03X147500Y2050I0J-4050D01*
G03X148689Y-817I4050J0D01*
G02X148407Y-1500I-283J-283D01*
G01X144403D01*
G02X144135Y-804I0J400D01*
G03X145400Y2050I-2585J2854D01*
G03X137700I-3850J0D01*
G03X138965Y-804I3850J0D01*
G02X138697Y-1500I-269J-296D01*
G01X137000D01*
X136500Y-1000D01*
Y22118D01*
G03Y23668I-1400J775D01*
G01Y36159D01*
G02X137067Y36522I400J0D01*
G03X137400Y36450I333J728D01*
G01X143400D01*
G03X144200Y37250I0J800D01*
G01Y43000D01*
G37*
G36*
G01X166249Y60000D02*
X169400D01*
Y26974D01*
X162426Y20000D01*
X160558D01*
X160526Y20011D01*
G03X160000Y20100I-527J-1511D01*
G03X159474Y20011I0J-1600D01*
G01X159442Y20000D01*
X156000D01*
Y21914D01*
X156000Y26000D01*
X163000Y33000D01*
Y37760D01*
G03Y42740I-2600J2490D01*
G01Y49840D01*
X163180Y50020D01*
G03X163420Y50600I-580J580D01*
G01Y60000D01*
X163748D01*
X163807Y59933D01*
G03X165000Y59400I1193J1067D01*
G03X166249Y60000I0J1600D01*
G37*
G36*
G01X237500Y67000D02*
X240500D01*
X255000Y52500D01*
X264140D01*
X267500Y49140D01*
Y49000D01*
X261000Y42500D01*
Y39000D01*
X259500Y37500D01*
X253000D01*
X252000Y38500D01*
Y44500D01*
X237000Y59500D01*
Y66500D01*
X237500Y67000D01*
G37*
G36*
G01X279000Y113500D02*
X292500D01*
X293000Y113000D01*
X293500D01*
X297500Y113000D01*
X299500Y113000D01*
X303500Y113000D01*
X304000Y112500D01*
Y109000D01*
X303500Y108500D01*
X294150D01*
G03X292500Y109050I-1650J-2200D01*
G03X291373Y108809I0J-2750D01*
G01X291248Y108752D01*
X290551Y109449D01*
X290550Y109530D01*
G03X288950Y111100I-1600J-30D01*
G03X287700Y110500I0J-1600D01*
G01X279000D01*
X278500Y111000D01*
Y113000D01*
X279000Y113500D01*
G37*
G36*
G01X287680Y120180D02*
X290878D01*
G02X291238Y119607I0J-400D01*
G03X291100Y119000I1262J-607D01*
G03X292500Y117600I1400J0D01*
G03X293900Y118982I0J1400D01*
G01X293903Y119180D01*
X298000D01*
Y116500D01*
X297000Y115500D01*
X279000D01*
X278500Y116000D01*
Y117125D01*
X279574Y118200D01*
X285334D01*
G03X285900Y118434I0J800D01*
G01X285966Y118500D01*
X286000D01*
X287680Y120180D01*
G37*
%LPC*%
G75*
G54D63*
X95000Y57550D03*
X128470Y135690D03*
Y144690D03*
Y148690D03*
X141100Y22893D03*
X147100D03*
G54D64*
X141550Y12050D03*
%LPD*%
G75*
G54D10*
X-7894Y15408D03*
Y49463D03*
Y140672D03*
Y174727D03*
G54D11*
X-2500Y0D03*
X171850Y12050D03*
X329500Y44500D03*
G54D20*
X23035Y68430D03*
Y77445D03*
Y115004D03*
Y124020D03*
X27287Y82170D03*
Y90201D03*
Y98233D03*
Y106264D03*
X31618Y86185D03*
Y94217D03*
Y102248D03*
Y110280D03*
G54D30*
X81550Y12050D03*
X136000Y182000D03*
X221750D03*
X292000Y12050D03*
G54D12*
G01X-7894Y49463D02*
Y52213D01*
G01Y49463D02*
X-3544D01*
G01X-287D02*
X5413D01*
G01D02*
Y52213D01*
G01X17668Y28416D02*
X25416D01*
X28492Y31492D01*
G01X56000Y52000D02*
X52000Y48000D01*
X47500D01*
X34532Y35032D01*
X32000D01*
G01X32500Y31000D02*
X37000D01*
X47500Y41500D01*
G01X45500Y104000D02*
X44829D01*
X43429Y105400D01*
X40600D01*
X38600Y103400D01*
Y98400D01*
X41000Y96000D01*
X41500D01*
G01X45500Y71000D02*
X41000D01*
G01X49500D02*
Y104000D01*
G01D02*
X49521D01*
X57000Y111479D01*
Y112000D01*
G01X49500D02*
Y108000D01*
G01Y120500D02*
Y116000D01*
G01D02*
X53000D01*
G01X49500Y112000D02*
X53000D01*
G01X57000Y116000D02*
Y112000D01*
G01X56500Y122900D02*
X57000Y122400D01*
Y116000D01*
G01X71500Y44500D02*
Y48806D01*
G01X76500Y162000D02*
X74500Y160000D01*
Y158500D01*
G01X80500Y71500D02*
X76600D01*
X76100Y71000D01*
G01D02*
Y96000D01*
G01X80500D02*
X76100D01*
G01X78500Y158500D02*
Y155000D01*
G01D02*
X82500D01*
G01X80500Y92000D02*
X86500Y86000D01*
X92000D01*
G01X87000Y155000D02*
X82500D01*
G01X87300Y2050D02*
X91550D01*
G01Y-2200D02*
Y2050D01*
G01D02*
X95800D01*
G01X107300D02*
X111550D01*
G01Y-2200D02*
Y2050D01*
G01D02*
X115800D01*
G01X140400Y40250D02*
X144400D01*
G01X140400Y36250D02*
Y40250D01*
G01X147300Y2050D02*
X151550D01*
G01D02*
Y6300D01*
G01X239412Y64411D02*
X226500Y77323D01*
Y80500D01*
G01X229500Y86300D02*
X226500Y83300D01*
Y80500D01*
G01X229500Y92300D02*
X235500D01*
G01X235300Y98500D02*
X232269D01*
X231449Y97680D01*
G01X235500Y92300D02*
X239700D01*
X240500Y91500D01*
G01X235300Y98500D02*
X235496Y98304D01*
X244197D01*
X244700Y97800D01*
G01X239000Y78500D02*
X239500Y78000D01*
Y75500D01*
G01X239000Y82500D02*
X239500Y83000D01*
X244000D01*
G01X240500Y91500D02*
X244500D01*
G01X243500Y116500D02*
X242287D01*
X240324Y118463D01*
G01X244000Y77000D02*
X248333D01*
X249168Y77834D01*
G01X252500Y81975D02*
X252375Y82100D01*
X244900D01*
X244000Y83000D01*
G01X244700Y97800D02*
X248200D01*
G01X249500Y122500D02*
X252116Y125116D01*
Y125879D01*
G01X257000Y76500D02*
X254333D01*
X252917Y77916D01*
G01X252500Y81975D02*
X256375D01*
X257000Y82600D01*
G01X250000Y90000D02*
Y85000D01*
G01D02*
X252803D01*
X253380Y84423D01*
G01X249500Y122500D02*
Y116500D01*
G01X255000Y126500D02*
X252737D01*
X252116Y125879D01*
G01X405000Y58000D02*
X392100D01*
X390100Y56000D01*
X306500D01*
X302900Y52400D01*
X269332D01*
X264344Y57387D01*
X257838D01*
X256500Y58725D01*
G01X257000Y82600D02*
Y86500D01*
X258000Y87500D01*
G01X255000Y123000D02*
Y119500D01*
G01Y126500D02*
Y123000D01*
G01X259000D02*
Y119500D01*
G01Y126500D02*
Y123000D01*
G01X268000Y76500D02*
X263000D01*
G01D02*
Y82600D01*
G01X276000Y31500D02*
X278500Y29000D01*
X288000D01*
G01Y35000D02*
X281500Y41500D01*
X276000D01*
G01X277600Y75489D02*
X276589Y76500D01*
X274000D01*
G01X284000Y116500D02*
X280000D01*
G01X288000D02*
X284000D01*
G01X296050Y28100D02*
X291900D01*
X291000Y29000D01*
X288000D01*
G01X288500Y85500D02*
X290000D01*
X292500Y88000D01*
X293500D01*
G01X291800Y45000D02*
Y42200D01*
X296050Y37950D01*
Y35500D01*
G01X293500Y84000D02*
X291000Y81500D01*
G01X298500Y91500D02*
X297000D01*
X293500Y88000D01*
G01X298500Y85500D02*
Y84677D01*
X295500Y81677D01*
Y81500D01*
G01X303950Y31800D02*
Y36050D01*
X302000Y38000D01*
G01X306000Y85500D02*
X303994D01*
X299994Y81500D01*
X299000D01*
G01X305500Y115360D02*
X304740Y116120D01*
X302380D01*
X301500Y117000D01*
G01X318500Y82500D02*
X316240Y84760D01*
X315143D01*
X315124Y84780D01*
X313220D01*
X310000Y88000D01*
Y89000D01*
X307500Y91500D01*
X306000D01*
G01X316500Y88500D02*
X313914D01*
X312457Y89957D01*
G01X323000Y82500D02*
X322500Y83000D01*
Y88500D01*
G01X346709Y6787D02*
Y-1709D01*
G01Y42220D02*
Y48448D01*
X346880Y48620D01*
G01X374000Y87500D02*
X371000Y84500D01*
X361500D01*
G01X368500Y123500D02*
X364500D01*
G01X767900Y-54600D02*
Y-154600D01*
X367900D01*
G01D02*
Y-54600D01*
X767900D01*
G01X368500Y123500D02*
X371500D01*
X372500Y122500D01*
X374000D01*
G01X418000Y140000D02*
X405591D01*
X401591Y144000D01*
X399333D01*
X396833Y146500D01*
X381500D01*
X375989Y152011D01*
X374004D01*
G01X383205Y50094D02*
Y45500D01*
G01X391866Y50094D02*
Y46866D01*
X390500Y45500D01*
G01X410291Y6787D02*
Y-2291D01*
G01Y42220D02*
Y35000D01*
X-6000Y193000D03*
Y197000D03*
X9500Y-6000D03*
X5500Y188500D03*
Y197000D03*
X13000Y183594D03*
X9732Y192732D03*
X14500Y-6000D03*
X17500Y20500D03*
X14518Y25266D03*
X17668D03*
Y31416D03*
X14518D03*
X17668Y28416D03*
X14518D03*
X17668Y34416D03*
Y40616D03*
Y37616D03*
X17500Y45500D03*
Y50500D03*
X16200Y136200D03*
X17000Y148000D03*
Y151000D03*
X16668Y155416D03*
Y158416D03*
Y161616D03*
Y164616D03*
X25600Y136000D03*
X31500Y156000D03*
X31550Y159150D03*
X31500Y165500D03*
X31550Y162350D03*
X31500Y171000D03*
Y176000D03*
X32500Y31000D03*
Y58000D03*
Y62000D03*
X36000Y125500D03*
Y130500D03*
X40500Y64000D03*
X41500Y2000D03*
Y7000D03*
Y12000D03*
Y17000D03*
X44500Y33000D03*
X41000Y71000D03*
X41500Y80000D03*
Y82753D03*
Y86000D03*
Y89000D03*
Y92500D03*
Y99500D03*
Y96000D03*
Y102500D03*
Y108000D03*
Y112000D03*
X47500Y41500D03*
X49500Y62800D03*
X49000Y137000D03*
Y140500D03*
X53700Y27700D03*
X49960Y28960D03*
X50000Y51000D03*
Y55000D03*
X52300Y122300D03*
X53000Y137000D03*
Y140500D03*
X57440Y28940D03*
X56000Y52000D03*
X56500Y122900D03*
X57500Y129000D03*
X62000Y36500D03*
X61500Y110000D03*
Y114000D03*
Y140500D03*
X60500Y157300D03*
X67500Y31000D03*
X65692Y130338D03*
X70500Y28000D03*
X71500Y48806D03*
X69500Y137190D03*
X71120Y158380D03*
X74500Y28000D03*
X76000Y48500D03*
X76100Y71000D03*
Y96000D03*
X75000Y140500D03*
X76500Y162000D03*
X81000Y28000D03*
X79037Y37546D03*
X81000Y49000D03*
X84500Y28000D03*
X82000Y120000D03*
X81500Y133688D03*
Y141500D03*
X84500Y162000D03*
X88000Y19000D03*
X89500Y37500D03*
X86000D03*
X85750Y44250D03*
X88500Y62500D03*
Y66500D03*
X86600Y69000D03*
Y72500D03*
X88500Y74500D03*
Y91500D03*
X86600Y94000D03*
Y97500D03*
X88500Y100000D03*
X86000Y148500D03*
X89128D03*
X88565Y152500D03*
X89500Y162000D03*
X91282Y68018D03*
Y64482D03*
X92000Y76800D03*
Y79800D03*
Y86000D03*
Y83000D03*
X91096Y151000D03*
X95500Y19000D03*
X98500Y41500D03*
Y45500D03*
Y48500D03*
X95000Y57550D03*
X98500D03*
X96000Y162000D03*
X98500Y174000D03*
X102500Y22500D03*
X100900Y39500D03*
X101000Y54500D03*
X102000Y57500D03*
X101500Y72000D03*
X99500Y162000D03*
X103000D03*
X107719Y44740D03*
X107000Y77500D03*
X105500Y99000D03*
X106500Y162000D03*
X109000Y33000D03*
X112000Y59500D03*
X110500Y99000D03*
X109500Y162000D03*
X112000Y176500D03*
X116600Y48000D03*
X116000Y69000D03*
Y74000D03*
Y79000D03*
X113807Y87807D03*
X115000Y100500D03*
X114500Y124500D03*
X114968Y146500D03*
X116100Y162000D03*
X121000Y19000D03*
X117000Y17000D03*
X120500Y33210D03*
X117000Y59500D03*
X120500D03*
X121000Y69000D03*
Y74000D03*
Y79000D03*
X117500Y88000D03*
X118500Y120500D03*
X118718Y134437D03*
X116968Y138687D03*
X116892Y143108D03*
X118500Y160500D03*
X125117Y40539D03*
Y47800D03*
X123955Y59585D03*
Y88000D03*
X126600Y22893D03*
X126500Y26000D03*
X126000Y69000D03*
Y74000D03*
Y79000D03*
X128500Y119500D03*
X128450Y128000D03*
X128420Y131690D03*
X128470Y135690D03*
Y144690D03*
Y148690D03*
X134500Y73015D03*
X131500Y128000D03*
X131468Y133187D03*
Y136687D03*
X135100Y22893D03*
X136000Y65581D03*
X136500Y80000D03*
X135000Y115500D03*
X137669Y125000D03*
X136570Y145702D03*
Y149202D03*
X141100Y22893D03*
X143000Y80500D03*
X139500Y109000D03*
X140994Y139400D03*
X147100Y22893D03*
X145950Y61500D03*
Y65500D03*
Y69500D03*
Y73500D03*
X146100Y84400D03*
X146000Y87500D03*
X143500Y199180D03*
X149000Y53750D03*
Y199180D03*
X154133Y73559D03*
X152640Y79000D03*
X160000Y18500D03*
X161063Y23000D03*
X159500Y47500D03*
X160780Y64750D03*
X159500Y78500D03*
X158650Y96050D03*
X160500Y166298D03*
X157500Y164432D03*
X162500Y-3000D03*
X164000Y23000D03*
X164500Y48000D03*
X165000Y58000D03*
Y61000D03*
Y64000D03*
X162500Y78500D03*
X161500Y96000D03*
X165000Y96180D03*
X162000Y110000D03*
X163878Y145000D03*
X162514Y158840D03*
X165120Y170920D03*
X167500Y18000D03*
X168500Y48000D03*
X168000Y73559D03*
Y86000D03*
Y89000D03*
X168500Y104000D03*
X166000Y110000D03*
X167800Y141500D03*
X168000Y145000D03*
X166000Y157900D03*
X168977Y170920D03*
X171000Y73500D03*
Y78500D03*
X174500Y146500D03*
X171000D03*
X176400Y34000D03*
X177000Y79000D03*
X175500Y84000D03*
X178500Y85000D03*
X175500Y87500D03*
X178500Y88500D03*
X175500Y94000D03*
Y91000D03*
X178000Y146500D03*
X178448Y157946D03*
X183267Y74906D03*
X182500Y109000D03*
X181534Y142959D03*
X184100Y32000D03*
Y36000D03*
X186500Y34000D03*
X186300Y77420D03*
X188000Y87000D03*
X188033Y89822D03*
X184500Y142840D03*
X186500Y199720D03*
X190000Y18500D03*
Y22500D03*
X188200Y94000D03*
X189250Y101000D03*
X190140Y107280D03*
X191180Y123442D03*
X192250Y154750D03*
X194500Y22500D03*
X195500Y28500D03*
Y31300D03*
Y34100D03*
X195410Y61241D03*
Y64391D03*
X196750Y69500D03*
X194676Y75574D03*
X193000Y115700D03*
X195500Y154660D03*
X199963Y65680D03*
X199350Y72500D03*
X204000Y65500D03*
X202000Y72500D03*
X204652D03*
X204500Y78470D03*
X210000Y71570D03*
X207252Y72500D03*
X208000Y78570D03*
X208026Y84210D03*
X208000Y88850D03*
X205900Y91500D03*
X216250Y22967D03*
X215500Y113500D03*
X219326Y19000D03*
X228180Y191500D03*
X228360Y-1280D03*
X231449Y97680D03*
X232040Y106570D03*
X231000Y114611D03*
X229820Y179606D03*
X231994Y183569D03*
X229980Y187054D03*
X228500Y197500D03*
X235000Y11000D03*
X235607Y17860D03*
X233074Y21500D03*
X234930Y72570D03*
X236500Y75500D03*
X233000D03*
X236630Y178153D03*
X234906Y186400D03*
X234686Y189600D03*
X233439Y193500D03*
X232967Y198160D03*
X239500Y75500D03*
X241066Y109600D03*
X239640Y185389D03*
X239546Y192411D03*
X242143Y188033D03*
X254000Y64400D03*
X252116Y125879D03*
X257000Y-3000D03*
X256500Y58725D03*
X260412Y49314D03*
X263112D03*
X261512Y59987D03*
X265912Y49314D03*
X264500Y165340D03*
X277600Y75489D03*
X282500Y67000D03*
X288000Y81400D03*
X288950Y109500D03*
X289350Y119160D03*
X288000Y159320D03*
X292000Y35500D03*
Y59500D03*
X295000Y61000D03*
X292000Y65000D03*
X291000Y81500D03*
X291716Y109720D03*
X291680Y159320D03*
X299000Y81500D03*
X295500D03*
X295278Y102940D03*
X297400Y155680D03*
X302000Y38000D03*
X304100Y-1700D03*
X305000Y80000D03*
X305500Y115360D03*
Y151500D03*
Y154500D03*
X309500Y42500D03*
X309320Y46300D03*
X312500Y77086D03*
X312457Y89957D03*
X316000Y42500D03*
X315500Y50500D03*
X321500Y35000D03*
X317500Y36000D03*
X319500Y50500D03*
X318500Y82500D03*
X323500Y38650D03*
X323000Y82500D03*
X322773Y97000D03*
X331000Y87659D03*
X340900Y52000D03*
X346709Y-1709D03*
X347000Y13500D03*
Y17000D03*
Y23320D03*
Y27000D03*
X348000Y32000D03*
X346880Y48620D03*
X347000Y84820D03*
X348500Y88460D03*
X348426Y91500D03*
X347426Y94500D03*
X344426Y98506D03*
Y104320D03*
X351000Y18500D03*
Y22000D03*
X351680Y32172D03*
X350000Y84820D03*
X353000Y175200D03*
X350034Y175280D03*
X356000Y49000D03*
X355100Y97000D03*
X355066Y135600D03*
X356180Y174714D03*
X358500Y46000D03*
X361500Y84500D03*
X357710Y97000D03*
X361000Y117000D03*
X360000Y125000D03*
X357782Y168740D03*
X360841Y168734D03*
X363500Y46000D03*
X364000Y117000D03*
X364500Y123500D03*
X363500Y132000D03*
X362000Y144320D03*
X364000Y166500D03*
X367000Y44180D03*
Y113500D03*
X370500Y135220D03*
X369500Y145820D03*
X368039Y166500D03*
X374500Y42500D03*
X374000Y87500D03*
X375000Y143290D03*
X372500Y144500D03*
X371516Y158891D03*
X383000Y42700D03*
X383205Y45500D03*
X383300Y134500D03*
X384500Y76070D03*
X387974Y166500D03*
X390500Y45500D03*
Y42500D03*
X391500Y76000D03*
X393100Y86200D03*
Y89200D03*
X390937Y110063D03*
X390500Y156000D03*
X397500Y42500D03*
X394874Y110126D03*
X395000Y154000D03*
X398500Y66500D03*
X401000Y79500D03*
X398000Y93500D03*
X398400Y110200D03*
X401500D03*
X400500Y140000D03*
X398500Y148500D03*
X401234Y163320D03*
X399500Y199500D03*
X404858Y42600D03*
X405000Y58000D03*
X405780Y61500D03*
X402300Y66500D03*
X405700D03*
X406000Y100500D03*
X405500Y144500D03*
X403000Y171000D03*
X410291Y-2291D03*
X409000Y15500D03*
X410500Y29000D03*
X410291Y35000D03*
X411000Y95500D03*
X410500Y119800D03*
X407500Y126500D03*
X408500Y163500D03*
Y175000D03*
X413000Y49500D03*
X412500Y175000D03*
X413768Y195500D03*
X417000Y25000D03*
X416100Y106000D03*
Y109500D03*
X415800Y113500D03*
X418000Y140000D03*
X416000Y166500D03*
X422732Y-8000D03*
Y17500D03*
X420080Y79900D03*
G54D21*
X25500Y37000D03*
X25000Y161000D03*
G54D22*
X41300Y150500D03*
Y164500D03*
X105500Y107000D03*
X122000D03*
X236000Y31500D03*
X246000Y41500D03*
X256000D03*
X266000D03*
X276000D03*
X301800Y45000D03*
G54D40*
X171850Y2050D03*
X181850D03*
Y12050D03*
X191850Y2050D03*
Y12050D03*
X201850Y2050D03*
Y12050D03*
X211850Y2050D03*
Y12050D03*
X221850Y2050D03*
Y12050D03*
G54D31*
X84468Y122187D03*
X82500Y136070D03*
X85000Y136048D03*
X87968Y119827D03*
X90718Y127937D03*
X93500Y126200D03*
X91078Y136049D03*
X90468Y140187D03*
X95468Y120187D03*
X96998Y126297D03*
X95998Y148187D03*
X99500Y119000D03*
X100470Y127563D03*
X102968Y127500D03*
X100938Y134167D03*
X102500Y142024D03*
X100550Y140740D03*
X100939Y149187D03*
X106453Y126259D03*
X106718Y131937D03*
X104685Y133382D03*
X106858Y138127D03*
X105468Y135687D03*
X109968Y120187D03*
Y148187D03*
X114428Y119387D03*
X112968Y135187D03*
X113000Y144000D03*
X128500Y160874D03*
X127000Y162805D03*
X132500Y160500D03*
X138305Y154000D03*
X136500Y160500D03*
X140520Y146400D03*
X143045Y152742D03*
X139520Y171250D03*
X144000Y146400D03*
X145425Y152742D03*
X143571Y163118D03*
X144020Y168560D03*
X147500Y179500D03*
X148510Y151980D03*
X150153Y149022D03*
X156350Y87500D03*
X156200Y127000D03*
X153427Y138000D03*
X155000Y145500D03*
X152810Y153464D03*
X155500Y177058D03*
X163000Y150680D03*
Y154660D03*
X181000Y150329D03*
X186500Y134720D03*
X187880Y152440D03*
X191500Y135080D03*
X190481Y147481D03*
X192800Y100940D03*
X194500Y135000D03*
X193200Y149400D03*
X197450Y179250D03*
X204320Y131160D03*
X201852Y133271D03*
X205020Y152800D03*
X203140Y166119D03*
X206030Y167529D03*
X214630Y92161D03*
X210420Y95928D03*
X214169Y95432D03*
X211209Y101691D03*
X214600Y100500D03*
X211960Y104340D03*
X212880Y106380D03*
X213500Y111000D03*
X211350Y156500D03*
X214220Y177725D03*
X218630Y88750D03*
X218140Y93500D03*
X218028Y96097D03*
X216000Y97052D03*
X217000Y149280D03*
X215205Y160933D03*
X221380Y94120D03*
X220500Y96136D03*
X223000Y96100D03*
X223260Y151160D03*
X223237Y162720D03*
X227443Y95320D03*
X225378Y96079D03*
X224829Y120120D03*
X227552Y124552D03*
X225240Y124500D03*
X229980Y149280D03*
X235046Y121641D03*
X233049Y125000D03*
X235047Y123841D03*
X234120Y132620D03*
X236500Y132705D03*
X239500Y23620D03*
X237500Y71500D03*
X239800D03*
X240300Y121400D03*
X240324Y118463D03*
X238287Y124179D03*
X239494Y129304D03*
X237308Y169030D03*
X245179Y68470D03*
X242000Y71500D03*
X244000Y128500D03*
X241542D03*
X248000Y25180D03*
X249800Y68500D03*
X247500D03*
X247181Y129973D03*
X247281Y142699D03*
X249307Y152320D03*
X249000Y157389D03*
X245988Y173613D03*
X249320Y173440D03*
X251500Y25620D03*
X254498Y67802D03*
X251083Y79750D03*
X252500Y81975D03*
X253380Y84423D03*
X251737Y98063D03*
X253720Y100031D03*
X253657Y103900D03*
X251689Y106000D03*
X250421Y127579D03*
X253781Y161081D03*
X253167Y167868D03*
X259199Y64531D03*
X256999Y64500D03*
X256950Y67850D03*
X255507Y92157D03*
X257626Y94126D03*
X255626Y96100D03*
X257478Y98185D03*
X255626Y102000D03*
X257726D03*
X255626Y108000D03*
X257594Y106000D03*
X255626Y111874D03*
X257613Y109874D03*
X255500Y131973D03*
X257760Y131942D03*
X255480Y151380D03*
X258280Y163600D03*
X255524Y166348D03*
X259444Y90189D03*
X261500Y92157D03*
X263622Y94016D03*
X263611Y96116D03*
X261426Y98184D03*
X259540Y95980D03*
X263500Y102000D03*
X259438Y100184D03*
X259500Y108000D03*
X263500Y107500D03*
X261531Y105819D03*
X259563Y104087D03*
X261423Y111843D03*
X263500Y109874D03*
X259444Y113856D03*
X263550Y128971D03*
X260310Y129811D03*
X263199Y131832D03*
X261000Y131900D03*
X262427Y143280D03*
X259480Y172500D03*
X267500Y90189D03*
X265500Y92157D03*
X265469Y98044D03*
X267337Y96094D03*
X267317Y99956D03*
X267469Y103969D03*
X267437Y108024D03*
X265347Y111946D03*
X267437Y113830D03*
X266834Y134000D03*
X271091Y58880D03*
X271374Y92126D03*
X269500Y94005D03*
X271474Y96095D03*
X269406Y98063D03*
X271374Y102000D03*
X269274Y102124D03*
X271474Y107994D03*
X269524Y105937D03*
X271374Y111824D03*
X269400Y109993D03*
X270000Y126500D03*
X271500Y128500D03*
X269500Y141400D03*
X270980Y139737D03*
X269554Y155140D03*
X272500Y168480D03*
X274500Y62000D03*
X275428Y97940D03*
X273324Y99931D03*
X275312Y105937D03*
X273343Y104087D03*
X274940Y129534D03*
X274600Y154100D03*
X275500Y168480D03*
X277500Y83000D03*
X279448Y90189D03*
X277280D03*
X281000Y87500D03*
X278000Y133774D03*
X280000Y134774D03*
X277249Y139031D03*
X281272Y136634D03*
X278716Y147213D03*
X280500Y171560D03*
X281500Y199240D03*
X289648Y123620D03*
X288465Y144053D03*
X286180D03*
X289533Y201528D03*
X292500Y119000D03*
X292148Y123680D03*
X292338Y140577D03*
X294601Y140605D03*
X294500Y146820D03*
X291000Y179000D03*
X296265Y128440D03*
X298006Y140760D03*
X295885Y200005D03*
X307656Y110220D03*
X305500Y109220D03*
X308000Y115100D03*
X305818Y119473D03*
X310500Y110320D03*
X312000Y115320D03*
X308818Y119473D03*
X312000Y119560D03*
X313244Y110320D03*
X315000Y115320D03*
Y119560D03*
X315520Y176480D03*
X318305Y97000D03*
X317859Y104400D03*
X320660Y104160D03*
X323226Y104200D03*
X325464Y112680D03*
X324166Y134440D03*
X323640Y168902D03*
X327500Y134400D03*
X329766Y155957D03*
X332530Y144970D03*
X336500Y132280D03*
X336480Y137520D03*
X335485Y144970D03*
X342780Y113700D03*
X342891Y123200D03*
X343380Y142084D03*
X339709Y143000D03*
X340000Y146500D03*
X342858Y161540D03*
X345380Y113700D03*
X345580Y123120D03*
X354256Y166900D03*
G54D13*
X2090Y64571D03*
Y127878D03*
G54D50*
X365500Y102500D03*
X378500D03*
X381650Y118831D03*
X381094Y122969D03*
X387000Y110000D03*
X388500Y126800D03*
X385000Y126874D03*
X392905Y115095D03*
Y119032D03*
X389000Y119000D03*
X392905Y122968D03*
X392600Y130450D03*
X392905Y126905D03*
G54D14*
X-2500Y188500D03*
Y193000D03*
Y197000D03*
X1500Y188500D03*
Y193000D03*
Y197000D03*
X45500Y66500D03*
Y71000D03*
Y104000D03*
Y108000D03*
Y112000D03*
Y116000D03*
Y120500D03*
Y124000D03*
X48000Y33000D03*
X49500Y66500D03*
Y71000D03*
Y104000D03*
Y108000D03*
Y112000D03*
Y116000D03*
Y120500D03*
Y124000D03*
X52000Y33000D03*
X53000Y112000D03*
Y116000D03*
X55500Y33000D03*
X57000Y112000D03*
Y116000D03*
X59500Y33000D03*
X64700Y30000D03*
Y34000D03*
X74500Y158500D03*
X78000Y28500D03*
Y32500D03*
X81000Y45000D03*
X77000D03*
X80500Y92000D03*
Y96000D03*
X78500Y151000D03*
Y155000D03*
Y158500D03*
X82000Y40500D03*
X84000Y116500D03*
X85500Y145500D03*
X82500Y151000D03*
Y155000D03*
X88000Y31000D03*
Y35000D03*
X86000Y40500D03*
X89500Y44000D03*
Y48500D03*
X88000Y116500D03*
X89500Y145500D03*
X93500Y44000D03*
Y48500D03*
X90500Y121000D03*
Y125000D03*
X94500Y131000D03*
X90500D03*
X109000Y75000D03*
X113000Y44500D03*
X115000Y61900D03*
Y65900D03*
X113000Y75000D03*
X112500Y149500D03*
X116500D03*
X117000Y44500D03*
X120000Y63000D03*
X124000D03*
X125500Y83000D03*
X122000Y116000D03*
X129500Y83000D03*
X126000Y116000D03*
X131500Y73500D03*
Y77500D03*
X139000Y65500D03*
Y73000D03*
Y69500D03*
Y83600D03*
X143000Y65500D03*
Y73000D03*
Y69500D03*
Y83600D03*
X181000Y87000D03*
X185000D03*
X237000Y150500D03*
X239000Y78500D03*
Y82500D03*
X240500Y87500D03*
Y91500D03*
X241000Y150500D03*
X244500Y87500D03*
Y91500D03*
X244700Y97800D03*
Y101800D03*
X250000Y90000D03*
X248200Y97800D03*
Y101800D03*
X246600Y109300D03*
X250600D03*
X254000Y90000D03*
X255000Y119500D03*
Y123000D03*
Y126500D03*
X258000Y87500D03*
X259000Y119500D03*
Y123000D03*
Y126500D03*
X262000Y87500D03*
X270000Y86500D03*
X274000D03*
X278000Y102500D03*
Y106500D03*
X280000Y112500D03*
Y116500D03*
X283500Y86000D03*
Y90000D03*
X282000Y102500D03*
Y106500D03*
X284000Y112500D03*
Y116500D03*
X288000Y112500D03*
Y116500D03*
X293500Y84000D03*
Y88000D03*
X374000Y118500D03*
Y122500D03*
X378000Y114500D03*
Y118500D03*
X394000Y107000D03*
X398000D03*
X402000Y104500D03*
X398000Y127000D03*
X402000D03*
X406000Y104500D03*
G54D41*
X181000Y32588D03*
Y54588D03*
X191500Y32588D03*
Y54738D03*
X203000Y32588D03*
Y54738D03*
X312800Y39088D03*
X319700D03*
X409500Y108888D03*
G54D23*
X42200Y24000D03*
X49800D03*
X57200D03*
X64800D03*
G54D32*
X99000Y28500D03*
X116500Y27500D03*
X125500Y167000D03*
X150000Y162000D03*
X402500Y154000D03*
G54D60*
G01X1500Y188500D02*
X5500D01*
G01X1500Y193000D02*
Y197000D01*
G01D02*
X5500D01*
G01X25000Y158000D02*
Y161000D01*
G01X28492Y31492D02*
Y35032D01*
G01X25500Y37000D02*
Y41500D01*
G01X32000Y35032D02*
X28492D01*
G01X64800Y24000D02*
Y21300D01*
X62500Y19000D01*
X43500D01*
X42200Y20300D01*
Y24000D01*
G01X48000Y33000D02*
X44500D01*
G01X49500Y66500D02*
Y62800D01*
G01X52300Y122300D02*
X50600Y124000D01*
X49500D01*
G01X59500Y33000D02*
Y34000D01*
X62000Y36500D01*
G01X64700Y30000D02*
Y24100D01*
X64800Y24000D01*
G01X64700Y34000D02*
X62200Y36500D01*
X62000D01*
G01X67500Y31000D02*
X69000Y32500D01*
X78000D01*
G01D02*
X80000Y30500D01*
X82000D01*
X84500Y28000D01*
G01X78000Y32500D02*
X82000Y36500D01*
Y40500D01*
G01D02*
X80500D01*
X77000Y44000D01*
Y45000D01*
G01D02*
Y47500D01*
X76000Y48500D01*
G01X81000Y45000D02*
Y49000D01*
G01X85500Y145500D02*
Y148000D01*
X86000Y148500D01*
G01X89500Y44000D02*
Y37500D01*
G01Y48500D02*
Y44000D01*
G01X90500Y131000D02*
Y128155D01*
X90718Y127937D01*
G01X90500Y125000D02*
Y127719D01*
X90718Y127937D01*
G01X89500Y145500D02*
Y148128D01*
X89128Y148500D01*
G01X113000Y44500D02*
X107960D01*
X107719Y44740D01*
G01X110000Y64500D02*
Y61500D01*
X112000Y59500D01*
G01X112500Y149500D02*
X111281D01*
X109968Y148187D01*
G01X115000Y61900D02*
X114400D01*
X112000Y59500D01*
G01X115000Y65900D02*
Y68000D01*
X116000Y69000D01*
G01Y74000D02*
X115000Y75000D01*
X113000D01*
G01X117000Y44500D02*
Y47600D01*
X116600Y48000D01*
G01X120000Y63000D02*
Y65350D01*
X121000Y66350D01*
Y69000D01*
G01X124000Y63000D02*
X123955Y62955D01*
Y59585D01*
G01X126000Y79000D02*
X127500Y77500D01*
X131500D01*
G01X127500Y123500D02*
Y120500D01*
X128500Y119500D01*
G01X133500Y123500D02*
Y121000D01*
X128500Y116000D01*
X126000D01*
G01X131500Y73500D02*
X134015D01*
X134500Y73015D01*
G01X136000Y65581D02*
X136419D01*
X136500Y65500D01*
X139000D01*
G01Y73000D02*
X137015D01*
X137000Y73015D01*
X134500D01*
G01X136500Y80000D02*
Y81100D01*
X139000Y83600D01*
G01X133500Y123500D02*
X136169D01*
X137669Y125000D01*
G01X139000Y69500D02*
Y65500D01*
G01X178900Y92600D02*
X177500Y94000D01*
X175500D01*
G01X185000Y87000D02*
Y87700D01*
X187122Y89822D01*
X188033D01*
G01D02*
X185255Y92600D01*
X184900D01*
G01X233000Y75500D02*
X232500Y76000D01*
Y80500D01*
G01X235300Y104500D02*
X237000D01*
X239700Y101800D01*
X244700D01*
G01X232040Y106570D02*
Y105960D01*
X233500Y104500D01*
X235300D01*
G01X255507Y92157D02*
X255164Y92500D01*
X245500D01*
X244500Y91500D01*
G01X246600Y109300D02*
X241366D01*
X241066Y109600D01*
G01X259438Y100184D02*
X256684D01*
X252638Y96138D01*
X249862D01*
X248200Y97800D01*
G01Y101800D02*
X244700D01*
G01X250600Y109300D02*
X250935D01*
X257726Y102509D01*
Y102000D01*
G01X254000Y64400D02*
X258413Y59987D01*
X261512D01*
G01X259444Y90189D02*
X262000Y87633D01*
Y87500D01*
G01X263000Y82600D02*
Y85100D01*
X262000Y86100D01*
Y87500D01*
G01X277500Y83000D02*
X274000Y86500D01*
G01X278000Y102500D02*
X282000D01*
G01D02*
X291300D01*
X292500Y103700D01*
Y105800D01*
G01D02*
X294078D01*
X295278Y104600D01*
Y102940D01*
G01X378000Y118500D02*
X374000D01*
G01X394000Y107000D02*
X390937Y110063D01*
G01X402000Y104500D02*
X396500D01*
X394000Y107000D01*
G01X392905Y126905D02*
X393000Y127000D01*
X398000D01*
G01X402000Y104500D02*
Y106000D01*
X403700Y107700D01*
Y118300D01*
X398000Y124000D01*
Y127000D01*
G01X406000Y104500D02*
Y100500D01*
G54D24*
X46000Y182000D03*
Y192000D03*
X56000Y182000D03*
Y192000D03*
X66000Y182000D03*
Y192000D03*
X76000Y182000D03*
Y192000D03*
X81550Y2050D03*
X86000Y182000D03*
Y192000D03*
X91550Y2050D03*
Y12050D03*
X96000Y182000D03*
Y192000D03*
X101550Y2050D03*
Y12050D03*
X106000Y182000D03*
Y192000D03*
X111550Y2050D03*
Y12050D03*
X116000Y182000D03*
Y192000D03*
X121550Y2050D03*
Y12050D03*
X126000Y182000D03*
Y192000D03*
X131550Y2050D03*
Y12050D03*
X136000Y192000D03*
X141550Y2050D03*
Y12050D03*
X151550Y2050D03*
Y12050D03*
X151750Y182000D03*
Y192000D03*
X161750Y182000D03*
Y192000D03*
X171750Y182000D03*
Y192000D03*
X181750Y182000D03*
Y192000D03*
X191750Y182000D03*
Y192000D03*
X201750Y182000D03*
Y192000D03*
X211750Y182000D03*
Y192000D03*
X221750D03*
X242000Y2050D03*
Y12050D03*
X252000Y2050D03*
Y12050D03*
X262000Y2050D03*
Y12050D03*
X272000Y2050D03*
Y12050D03*
X282000Y2050D03*
Y12050D03*
X292000Y2050D03*
G54D33*
X95588Y28500D03*
X113088Y27500D03*
X115237Y156500D03*
X122088Y167000D03*
X140088Y149300D03*
X146588Y162000D03*
X157088Y91500D03*
X171238Y142400D03*
X181888Y156400D03*
X191588Y86800D03*
X195938Y103000D03*
X196438Y114500D03*
X201088Y155800D03*
X219088Y99100D03*
X377238Y166600D03*
X393088Y166500D03*
X402088Y148000D03*
X399088Y154000D03*
G54D15*
X5413Y15408D03*
Y49463D03*
Y140672D03*
Y174727D03*
G54D51*
X370213Y50094D03*
X374543D03*
X378874D03*
X383205D03*
X387535D03*
X391866D03*
X396197D03*
X400528D03*
X404858D03*
G54D42*
X181000Y36000D03*
Y58000D03*
X191500Y36000D03*
Y58150D03*
X203000Y36000D03*
Y58150D03*
G54D61*
G01X78500Y151000D02*
Y144500D01*
X81500Y141500D01*
G01X78500Y151000D02*
X82500D01*
G01D02*
X87066D01*
X88565Y152500D01*
G01X91096Y151000D02*
Y153404D01*
X89500Y155000D01*
X87000D01*
G01X116000Y69000D02*
X114500Y70500D01*
X110000D01*
G01X107000Y77500D02*
X109000Y75500D01*
Y75000D01*
G01X116000Y79000D02*
X114500Y80500D01*
Y83300D01*
G01X130100Y63000D02*
X124000D01*
G01X130100Y69000D02*
X126000D01*
G01X129500Y83000D02*
X129536D01*
X134500Y78036D01*
Y73015D01*
G01X129500Y83000D02*
X133500Y87000D01*
X145500D01*
X146000Y87500D01*
G01X145950Y61500D02*
X136000D01*
X133750Y63750D01*
Y67250D01*
X134500Y68000D01*
Y73015D01*
G01X168500Y58500D02*
Y67000D01*
X174530Y73030D01*
Y80030D01*
X176000Y81500D01*
X178500D01*
X181000Y84000D01*
Y87000D01*
G01X235500Y86300D02*
Y76500D01*
X236500Y75500D01*
G01X235500Y86300D02*
X235700Y86500D01*
X238500D01*
X239500Y87500D01*
X240500D01*
G01X243500Y122500D02*
X241400D01*
X240300Y121400D01*
G01X249168Y77834D02*
X251083Y79750D01*
G01X240500Y87500D02*
X244500D01*
G01X252917Y77916D02*
X251083Y79750D01*
G01X259444Y90189D02*
X254189D01*
X254000Y90000D01*
G01X255626Y111874D02*
Y115626D01*
X258500Y118500D01*
Y119000D01*
X259000Y119500D01*
G01X270000Y86500D02*
Y87689D01*
X267500Y90189D01*
G01X283500Y90000D02*
X279637D01*
X279448Y90189D01*
G01X277280D02*
Y90779D01*
X279001Y92500D01*
X287500D01*
X288500Y91500D01*
G01X282000Y106500D02*
X278000D01*
G01X288000Y81400D02*
X286600D01*
X283500Y84500D01*
Y86000D01*
G01D02*
X282500D01*
X281000Y87500D01*
G01X282000Y106500D02*
X282700Y105800D01*
X286500D01*
G01X288950Y109500D02*
Y109310D01*
X286500Y106861D01*
Y105800D01*
G01X368500Y117500D02*
Y115000D01*
X367000Y113500D01*
G01X368500Y117500D02*
X373000D01*
X374000Y118500D01*
G54D16*
X3957Y20723D03*
Y24069D03*
Y27416D03*
Y30762D03*
Y34109D03*
Y37455D03*
Y40802D03*
Y44148D03*
Y145987D03*
Y149334D03*
Y152680D03*
Y156027D03*
Y159373D03*
Y162719D03*
Y166066D03*
Y169412D03*
X9272Y20723D03*
Y24069D03*
Y27416D03*
Y30762D03*
Y34109D03*
Y40802D03*
Y37455D03*
Y145987D03*
Y149334D03*
Y152680D03*
Y156027D03*
Y159373D03*
Y166066D03*
Y162719D03*
G54D25*
X51550Y2050D03*
Y12050D03*
X61550D03*
G54D52*
X427000Y31524D03*
Y41524D03*
Y51524D03*
Y61524D03*
Y71524D03*
Y81524D03*
Y91524D03*
Y101524D03*
Y111524D03*
Y121524D03*
Y131524D03*
Y141524D03*
Y151524D03*
Y161524D03*
X437000Y31524D03*
Y41524D03*
Y51524D03*
Y61524D03*
Y71524D03*
Y81524D03*
Y91524D03*
Y101524D03*
Y111524D03*
Y121524D03*
Y131524D03*
Y141524D03*
Y151524D03*
G54D34*
X102412Y28500D03*
X119912Y27500D03*
X122062Y156500D03*
X128913Y167000D03*
X146912Y149300D03*
X153412Y162000D03*
X163912Y91500D03*
X178062Y142400D03*
X188712Y156400D03*
X198412Y86800D03*
X202762Y103000D03*
X203262Y114500D03*
X207912Y155800D03*
X225912Y99100D03*
X384062Y166600D03*
X399912Y166500D03*
X405912Y154000D03*
X408912Y148000D03*
G54D43*
X181000Y39412D03*
Y61412D03*
X191500Y39412D03*
Y61562D03*
X203000Y39412D03*
Y61562D03*
X312800Y45912D03*
X319700D03*
X409500Y115712D03*
G54D62*
G01X428169Y205268D02*
X-7518D01*
G03X-14744Y197724I324J-7543D01*
G01Y-3394D01*
G03X-6870Y-11268I7874J0D01*
G01X30532D01*
X430138D01*
X441949D01*
G03X449823Y-3394I0J7874D01*
G01Y197394D01*
G03X441949Y205268I-7874J0D01*
G01X428169D01*
G54D17*
X9272Y44148D03*
Y169412D03*
G54D53*
X437000Y161524D03*
G54D44*
G01X3957Y166066D02*
X1566D01*
X-255Y164245D01*
Y151455D01*
X1866Y149334D01*
X3957D01*
G01D02*
X9272D01*
G01X3957Y166066D02*
X9272D01*
G01Y149334D02*
X11572D01*
X250000Y85000D03*
G54D35*
X111000Y94000D03*
X114500Y83300D03*
X117000Y94000D03*
X120500Y83300D03*
X129500Y57000D03*
Y92500D03*
X127500Y123500D03*
X133500D03*
X135500Y57000D03*
Y92500D03*
X138500Y129500D03*
Y136000D03*
X142000Y102500D03*
Y112500D03*
Y119000D03*
X148000Y102500D03*
Y112500D03*
Y119000D03*
X144500Y129500D03*
Y136000D03*
X178900Y92600D03*
X175500Y102500D03*
X181500D03*
X184900Y92600D03*
X195500Y93200D03*
X196000Y121000D03*
X201500Y93200D03*
X202000Y121000D03*
X214000Y123000D03*
X220000D03*
X226500Y80500D03*
X232500D03*
X243500Y116500D03*
Y122500D03*
X249500Y116500D03*
Y122500D03*
X257000Y76500D03*
Y82600D03*
X263000Y76500D03*
Y82600D03*
X268000Y76500D03*
X274000D03*
X286500Y105800D03*
X292500D03*
X316500Y88500D03*
X322500D03*
X387000Y134500D03*
X393000D03*
X405500Y166500D03*
X411500D03*
G54D26*
X50500Y38500D03*
Y44500D03*
X57000Y38500D03*
Y44500D03*
X71500Y38500D03*
Y44500D03*
X80500Y65500D03*
Y71500D03*
X79000Y111500D03*
Y117500D03*
X110000Y64500D03*
Y70500D03*
X130100Y63000D03*
Y69000D03*
X229500Y86300D03*
Y92300D03*
X235500Y86300D03*
Y92300D03*
X235300Y98500D03*
Y104500D03*
X244000Y77000D03*
Y83000D03*
X288000Y29000D03*
Y35000D03*
X288500Y85500D03*
Y91500D03*
X295500Y111000D03*
Y117000D03*
X298500Y85500D03*
Y91500D03*
X301500Y111000D03*
Y117000D03*
X306000Y85500D03*
Y91500D03*
X368500Y117500D03*
Y123500D03*
G54D54*
G01X97968Y134187D02*
X102968Y129187D01*
Y127501D01*
X102968Y127500D01*
G01X266110Y115978D02*
X263623Y113491D01*
Y109997D01*
X263500Y109874D01*
G01Y107500D02*
X263400D01*
X261900Y109000D01*
Y110300D01*
X262823Y111223D01*
Y114323D01*
X265170Y116670D01*
G01X256010Y94490D02*
X259014Y97494D01*
X260006D01*
X260716Y96784D01*
X262084D01*
X265100Y99800D01*
Y104857D01*
X267437Y107194D01*
Y108024D01*
G01X265100Y87580D02*
X262591Y90089D01*
X261588D01*
X257626Y94051D01*
Y94126D01*
G01X270500Y120586D02*
Y114913D01*
X265000Y109413D01*
Y107020D01*
X261000Y103020D01*
Y99766D01*
X259734Y98500D01*
X257793D01*
X257478Y98185D01*
G01X257594Y106000D02*
X259500D01*
X260900Y107400D01*
Y109731D01*
X257800Y112831D01*
Y114552D01*
X259248Y116000D01*
X260631D01*
X262509Y117877D01*
Y121809D01*
G01X260970Y117970D02*
X259942Y116942D01*
X259058D01*
X257000Y114884D01*
Y112500D01*
X259013Y110487D01*
Y108487D01*
X259500Y108000D01*
G01X266500Y87500D02*
X262900Y91100D01*
Y92737D01*
X259657Y95980D01*
X259540D01*
G01X271500Y119500D02*
Y114782D01*
X266000Y109282D01*
Y106889D01*
X262000Y102889D01*
Y98756D01*
X261428Y98184D01*
X261426D01*
G01X260356Y113856D02*
X259444D01*
G01X267600Y87900D02*
X265500Y90000D01*
Y92157D01*
G01X274265Y89406D02*
X270263D01*
X265654Y94016D01*
X263622D01*
G01X274860Y90226D02*
X270774D01*
X264884Y96116D01*
X263611D01*
G01X265347Y111946D02*
X266000Y112598D01*
Y114500D01*
X267050Y115550D01*
G01X271985Y93500D02*
X269391Y96094D01*
X267337D01*
G01X277470Y95970D02*
X276660Y95160D01*
X274840D01*
X272400Y97600D01*
X269869D01*
X269406Y98063D01*
G01X277000Y97000D02*
X276500Y96500D01*
X274888D01*
X272888Y98500D01*
X271000D01*
X269544Y99956D01*
X267317D01*
G01X269274Y102124D02*
Y101726D01*
X270500Y100500D01*
X271913D01*
X272913Y101500D01*
X275252D01*
X277072Y99680D01*
X284680D01*
G01X284000Y100500D02*
X277384D01*
X275197Y102687D01*
X272713D01*
X269524Y105876D01*
Y105937D01*
G01X273000Y111000D02*
X272300Y110300D01*
X269707D01*
X269400Y109993D01*
G01X267437Y108024D02*
X269524D01*
X271000Y109500D01*
X272631D01*
X273311Y110180D01*
X273340D01*
X273820Y110660D01*
Y118320D01*
X277500Y122000D01*
G01X273129Y94340D02*
X271474Y95995D01*
Y96095D01*
G01X273324Y99931D02*
X275569D01*
X276640Y98860D01*
X285048D01*
X285308Y99120D01*
G01X275312Y105937D02*
Y107612D01*
X277000Y109300D01*
Y116757D01*
X279243Y119000D01*
X285334D01*
X287334Y121000D01*
G01X278829Y120000D02*
X276000Y117171D01*
Y109500D01*
X273912Y107412D01*
Y104656D01*
X273343Y104087D01*
G01X271474Y107994D02*
X271563Y107906D01*
X272906D01*
X274874Y109874D01*
Y117460D01*
X278414Y121000D01*
G54D27*
X51300Y150500D03*
Y164500D03*
X95500Y107000D03*
X132000D03*
X236000Y41500D03*
X246000Y31500D03*
X256000D03*
X266000D03*
X276000D03*
X291800Y45000D03*
G54D45*
X296050Y28100D03*
Y35500D03*
X303950Y31800D03*
G54D36*
X118650Y156500D03*
X143500Y149300D03*
X160500Y91500D03*
X174650Y142400D03*
X185300Y156400D03*
X195000Y86800D03*
X199350Y103000D03*
X199850Y114500D03*
X204500Y155800D03*
X222500Y99100D03*
X380650Y166600D03*
X396500Y166500D03*
X405500Y148000D03*
G54D18*
X22508Y35032D03*
Y38968D03*
Y37000D03*
X22008Y161000D03*
Y159032D03*
Y162968D03*
X28492Y35032D03*
Y38968D03*
Y37000D03*
X27992Y161000D03*
Y159032D03*
Y162968D03*
G54D55*
G01X344950Y-7000D02*
Y-4500D01*
X345370Y-5000D01*
G01Y-7000D02*
X344530D01*
G01X342320D02*
X342250Y-6458D01*
X342145Y-6000D01*
X342005Y-5583D01*
X341830Y-5125D01*
X341550Y-4500D01*
X342950D01*
G01X339550D02*
X339830Y-4583D01*
X340040Y-4792D01*
X340180Y-5042D01*
X340285Y-5375D01*
X340320Y-5750D01*
X340285Y-6125D01*
X340180Y-6458D01*
X340040Y-6708D01*
X339830Y-6917D01*
X339550Y-7000D01*
X339270Y-6917D01*
X339060Y-6708D01*
X338920Y-6458D01*
X338815Y-6125D01*
X338780Y-5750D01*
X338815Y-5375D01*
X338920Y-5042D01*
X339060Y-4792D01*
X339270Y-4583D01*
X339550Y-4500D01*
G01X337305Y-6167D02*
X336395D01*
G01X334745Y-6708D02*
X334500Y-6917D01*
X334220Y-7000D01*
X333940Y-6917D01*
X333695Y-6667D01*
X333520Y-6292D01*
X333450Y-5917D01*
Y-5458D01*
X333520Y-5083D01*
X333695Y-4750D01*
X333905Y-4583D01*
X334150Y-4500D01*
X334430Y-4583D01*
X334640Y-4750D01*
X334780Y-5000D01*
X334850Y-5333D01*
X334780Y-5625D01*
X334605Y-5917D01*
X334395Y-6083D01*
X334150Y-6125D01*
X333870Y-6042D01*
X333660Y-5833D01*
X333450Y-5458D01*
G01X331450Y-4500D02*
X331730Y-4583D01*
X331940Y-4792D01*
X332080Y-5042D01*
X332185Y-5375D01*
X332220Y-5750D01*
X332185Y-6125D01*
X332080Y-6458D01*
X331940Y-6708D01*
X331730Y-6917D01*
X331450Y-7000D01*
X331170Y-6917D01*
X330960Y-6708D01*
X330820Y-6458D01*
X330715Y-6125D01*
X330680Y-5750D01*
X330715Y-5375D01*
X330820Y-5042D01*
X330960Y-4792D01*
X331170Y-4583D01*
X331450Y-4500D01*
G01X328750Y-7000D02*
X328505Y-6958D01*
X328225Y-6833D01*
X328050Y-6625D01*
X327980Y-6333D01*
X328050Y-6042D01*
X328260Y-5792D01*
X328575Y-5667D01*
X328925D01*
X329135Y-5583D01*
X329310Y-5375D01*
X329380Y-5083D01*
X329275Y-4792D01*
X329030Y-4583D01*
X328750Y-4500D01*
X328470Y-4583D01*
X328225Y-4792D01*
X328120Y-5083D01*
X328190Y-5375D01*
X328365Y-5583D01*
X328575Y-5667D01*
X328925D01*
X329240Y-5792D01*
X329450Y-6042D01*
X329520Y-6333D01*
X329450Y-6625D01*
X329275Y-6833D01*
X328995Y-6958D01*
X328750Y-7000D01*
G01X326050D02*
Y-4500D01*
X326470Y-5000D01*
G01Y-7000D02*
X325630D01*
G01X323350D02*
X323105Y-6958D01*
X322825Y-6833D01*
X322650Y-6625D01*
X322580Y-6333D01*
X322650Y-6042D01*
X322860Y-5792D01*
X323175Y-5667D01*
X323525D01*
X323735Y-5583D01*
X323910Y-5375D01*
X323980Y-5083D01*
X323875Y-4792D01*
X323630Y-4583D01*
X323350Y-4500D01*
X323070Y-4583D01*
X322825Y-4792D01*
X322720Y-5083D01*
X322790Y-5375D01*
X322965Y-5583D01*
X323175Y-5667D01*
X323525D01*
X323840Y-5792D01*
X324050Y-6042D01*
X324120Y-6333D01*
X324050Y-6625D01*
X323875Y-6833D01*
X323595Y-6958D01*
X323350Y-7000D01*
G01X318650D02*
Y-4500D01*
X317775D01*
X317495Y-4625D01*
X317320Y-4792D01*
X317250Y-5125D01*
X317320Y-5458D01*
X317530Y-5667D01*
X317775Y-5792D01*
X318650D01*
G01X317775D02*
X317250Y-7000D01*
G01X314550D02*
X315950D01*
Y-4500D01*
X314550D01*
G01X315110Y-5708D02*
X315950D01*
G01X313425Y-4500D02*
X312550Y-7000D01*
X311675Y-4500D01*
G01X306870Y-5667D02*
X306730Y-5542D01*
X306625Y-5333D01*
X306555Y-5042D01*
X306625Y-4792D01*
X306765Y-4625D01*
X307010Y-4500D01*
X307955D01*
Y-7000D01*
X306800D01*
X306555Y-6833D01*
X306415Y-6583D01*
X306345Y-6292D01*
X306415Y-6000D01*
X306625Y-5750D01*
X306870Y-5667D01*
X307955D01*
G01X371750Y-145100D02*
X371123Y-145300D01*
X370653Y-145800D01*
X370340Y-146400D01*
X370105Y-147200D01*
X370027Y-148100D01*
X370105Y-149000D01*
X370340Y-149800D01*
X370653Y-150400D01*
X371123Y-150900D01*
X371750Y-151100D01*
X372377Y-150900D01*
X372847Y-150400D01*
X373160Y-149800D01*
X373395Y-149000D01*
X373473Y-148100D01*
X373395Y-147200D01*
X373160Y-146400D01*
X372847Y-145800D01*
X372377Y-145300D01*
X371750Y-145100D01*
G01X377893Y-151100D02*
X378050Y-149800D01*
X378285Y-148700D01*
X378598Y-147700D01*
X378990Y-146600D01*
X379617Y-145100D01*
X376483D01*
G01X371425Y-142067D02*
X371892Y-142400D01*
X372417Y-142600D01*
X372883D01*
X373350Y-142400D01*
X373700Y-142067D01*
X373875Y-141600D01*
X373758Y-141133D01*
X373467Y-140733D01*
X372942Y-140467D01*
X372242Y-140333D01*
X371833Y-140067D01*
X371658Y-139600D01*
X371775Y-139133D01*
X372067Y-138800D01*
X372475Y-138600D01*
X372883D01*
X373292Y-138733D01*
X373642Y-139067D01*
G01X376225Y-142600D02*
Y-138600D01*
G01X378675D02*
Y-142600D01*
G01Y-140600D02*
X376225D01*
G01X383417Y-142600D02*
X381083D01*
Y-138600D01*
X383417D01*
G01X382483Y-140533D02*
X381083D01*
G01X388217Y-142600D02*
X385883D01*
Y-138600D01*
X388217D01*
G01X387283Y-140533D02*
X385883D01*
G01X391850Y-138600D02*
Y-142600D01*
G01X390508Y-138600D02*
X393192D01*
G01X371192Y-81600D02*
X372650Y-77600D01*
X374108Y-81600D01*
G01X373583Y-80200D02*
X371717D01*
G01X376167Y-77600D02*
Y-80467D01*
X376400Y-81067D01*
X376867Y-81467D01*
X377450Y-81600D01*
X378033Y-81467D01*
X378500Y-81067D01*
X378733Y-80467D01*
Y-77600D01*
G01X381025Y-81067D02*
X381492Y-81400D01*
X382017Y-81600D01*
X382483D01*
X382950Y-81400D01*
X383300Y-81067D01*
X383475Y-80600D01*
X383358Y-80133D01*
X383067Y-79733D01*
X382542Y-79467D01*
X381842Y-79333D01*
X381433Y-79067D01*
X381258Y-78600D01*
X381375Y-78133D01*
X381667Y-77800D01*
X382075Y-77600D01*
X382483D01*
X382892Y-77733D01*
X383242Y-78067D01*
G01X387050Y-77600D02*
Y-81600D01*
G01X385708Y-77600D02*
X388392D01*
G01X391150D02*
X392550D01*
G01X391850D02*
Y-81600D01*
G01X391150D02*
X392550D01*
G01X395308D02*
Y-77600D01*
X397992Y-81600D01*
Y-77600D01*
G01X401450Y-81733D02*
X401333Y-81667D01*
Y-81533D01*
X401450Y-81467D01*
X401567Y-81533D01*
Y-81667D01*
X401450Y-81733D01*
G01X411050Y-77600D02*
Y-81600D01*
G01X409708Y-77600D02*
X412392D01*
G01X417017Y-81600D02*
X414683D01*
Y-77600D01*
X417017D01*
G01X416083Y-79533D02*
X414683D01*
G01X419425Y-81600D02*
X421875Y-77600D01*
G01X419425D02*
X421875Y-81600D01*
G01X423992D02*
X425450Y-77600D01*
X426908Y-81600D01*
G01X426383Y-80200D02*
X424517D01*
G01X429025Y-81067D02*
X429492Y-81400D01*
X430017Y-81600D01*
X430483D01*
X430950Y-81400D01*
X431300Y-81067D01*
X431475Y-80600D01*
X431358Y-80133D01*
X431067Y-79733D01*
X430542Y-79467D01*
X429842Y-79333D01*
X429433Y-79067D01*
X429258Y-78600D01*
X429375Y-78133D01*
X429667Y-77800D01*
X430075Y-77600D01*
X430483D01*
X430892Y-77733D01*
X431242Y-78067D01*
G01X439733Y-81600D02*
X439850Y-80733D01*
X440025Y-80000D01*
X440258Y-79333D01*
X440550Y-78600D01*
X441017Y-77600D01*
X438683D01*
G01X444650Y-81600D02*
X445058Y-81533D01*
X445525Y-81333D01*
X445817Y-81000D01*
X445933Y-80533D01*
X445817Y-80067D01*
X445467Y-79667D01*
X444942Y-79467D01*
X444358D01*
X444008Y-79333D01*
X443717Y-79000D01*
X443600Y-78533D01*
X443775Y-78067D01*
X444183Y-77733D01*
X444650Y-77600D01*
X445117Y-77733D01*
X445525Y-78067D01*
X445700Y-78533D01*
X445583Y-79000D01*
X445292Y-79333D01*
X444942Y-79467D01*
X444358D01*
X443833Y-79667D01*
X443483Y-80067D01*
X443367Y-80533D01*
X443483Y-81000D01*
X443775Y-81333D01*
X444242Y-81533D01*
X444650Y-81600D01*
G01X449333D02*
X449450Y-80733D01*
X449625Y-80000D01*
X449858Y-79333D01*
X450150Y-78600D01*
X450617Y-77600D01*
X448283D01*
G01X452967Y-80800D02*
X453317Y-81267D01*
X453783Y-81533D01*
X454308Y-81600D01*
X454775Y-81533D01*
X455242Y-81200D01*
X455533Y-80800D01*
X455592Y-80400D01*
X455475Y-79933D01*
X455067Y-79600D01*
X454658Y-79467D01*
X454133D01*
G01X454658D02*
X455008Y-79267D01*
X455300Y-78933D01*
X455417Y-78533D01*
X455300Y-78133D01*
X455008Y-77800D01*
X454483Y-77600D01*
X453958Y-77667D01*
X453433Y-77933D01*
G01X457767Y-81000D02*
X458117Y-81333D01*
X458525Y-81533D01*
X459050Y-81600D01*
X459575Y-81467D01*
X459983Y-81200D01*
X460275Y-80733D01*
X460333Y-80200D01*
X460217Y-79667D01*
X459925Y-79333D01*
X459517Y-79067D01*
X459108Y-79000D01*
X458700Y-79067D01*
X458175Y-79333D01*
X458350Y-77600D01*
X459925D01*
G01X467367D02*
Y-80467D01*
X467600Y-81067D01*
X468067Y-81467D01*
X468650Y-81600D01*
X469233Y-81467D01*
X469700Y-81067D01*
X469933Y-80467D01*
Y-77600D01*
G01X472225Y-81067D02*
X472692Y-81400D01*
X473217Y-81600D01*
X473683D01*
X474150Y-81400D01*
X474500Y-81067D01*
X474675Y-80600D01*
X474558Y-80133D01*
X474267Y-79733D01*
X473742Y-79467D01*
X473042Y-79333D01*
X472633Y-79067D01*
X472458Y-78600D01*
X472575Y-78133D01*
X472867Y-77800D01*
X473275Y-77600D01*
X473683D01*
X474092Y-77733D01*
X474442Y-78067D01*
G01X476792Y-81600D02*
X478250Y-77600D01*
X479708Y-81600D01*
G01X479183Y-80200D02*
X477317D01*
G01X371542Y-72933D02*
X371950Y-72467D01*
X372300Y-72200D01*
X372767Y-72067D01*
X373175Y-72200D01*
X373467Y-72467D01*
X373700Y-72867D01*
X373758Y-73333D01*
X373700Y-73733D01*
X373467Y-74133D01*
X373117Y-74467D01*
X372708Y-74600D01*
X372242Y-74467D01*
X371833Y-74067D01*
X371600Y-73467D01*
X371542Y-72800D01*
X371658Y-71933D01*
X371833Y-71467D01*
X372125Y-71000D01*
X372533Y-70667D01*
X372942Y-70600D01*
X373350Y-70733D01*
X373642Y-71067D01*
G01X376167Y-74000D02*
X376517Y-74333D01*
X376925Y-74533D01*
X377450Y-74600D01*
X377975Y-74467D01*
X378383Y-74200D01*
X378675Y-73733D01*
X378733Y-73200D01*
X378617Y-72667D01*
X378325Y-72333D01*
X377917Y-72067D01*
X377508Y-72000D01*
X377100Y-72067D01*
X376575Y-72333D01*
X376750Y-70600D01*
X378325D01*
G01X382250D02*
X381783Y-70733D01*
X381433Y-71067D01*
X381200Y-71467D01*
X381025Y-72000D01*
X380967Y-72600D01*
X381025Y-73200D01*
X381200Y-73733D01*
X381433Y-74133D01*
X381783Y-74467D01*
X382250Y-74600D01*
X382717Y-74467D01*
X383067Y-74133D01*
X383300Y-73733D01*
X383475Y-73200D01*
X383533Y-72600D01*
X383475Y-72000D01*
X383300Y-71467D01*
X383067Y-71067D01*
X382717Y-70733D01*
X382250Y-70600D01*
G01X387050Y-74600D02*
Y-70600D01*
X386350Y-71400D01*
G01Y-74600D02*
X387750D01*
G01X394900Y-70600D02*
X395717Y-74600D01*
X396650Y-70600D01*
X397583Y-74600D01*
X398400Y-70600D01*
G01X400750D02*
X402150D01*
G01X401450D02*
Y-74600D01*
G01X400750D02*
X402150D01*
G01X405083Y-70600D02*
Y-74600D01*
X407417D01*
G01X409883Y-70600D02*
Y-74600D01*
X412217D01*
G01X415150Y-70600D02*
X416550D01*
G01X415850D02*
Y-74600D01*
G01X415150D02*
X416550D01*
G01X419192D02*
X420650Y-70600D01*
X422108Y-74600D01*
G01X421583Y-73200D02*
X419717D01*
G01X423933Y-74600D02*
Y-70600D01*
X425450Y-73933D01*
X426967Y-70600D01*
Y-74600D01*
G01X436333Y-70933D02*
X435983Y-70733D01*
X435575Y-70600D01*
X435108D01*
X434583Y-70800D01*
X434175Y-71133D01*
X433883Y-71533D01*
X433650Y-72200D01*
X433592Y-72800D01*
X433708Y-73400D01*
X433883Y-73800D01*
X434233Y-74200D01*
X434642Y-74467D01*
X435050Y-74600D01*
X435458D01*
X435867Y-74467D01*
X436217Y-74267D01*
X436508Y-74000D01*
G01X438392Y-74600D02*
X439850Y-70600D01*
X441308Y-74600D01*
G01X440783Y-73200D02*
X438917D01*
G01X443308Y-74600D02*
Y-70600D01*
X445992Y-74600D01*
Y-70600D01*
G01X448108Y-74600D02*
Y-70600D01*
X450792Y-74600D01*
Y-70600D01*
G01X454250Y-74600D02*
X453783Y-74533D01*
X453375Y-74267D01*
X453025Y-73867D01*
X452792Y-73400D01*
X452675Y-72867D01*
Y-72333D01*
X452792Y-71800D01*
X453025Y-71333D01*
X453375Y-70933D01*
X453783Y-70667D01*
X454250Y-70600D01*
X454717Y-70667D01*
X455125Y-70933D01*
X455475Y-71333D01*
X455708Y-71800D01*
X455825Y-72333D01*
Y-72867D01*
X455708Y-73400D01*
X455475Y-73867D01*
X455125Y-74267D01*
X454717Y-74533D01*
X454250Y-74600D01*
G01X457708D02*
Y-70600D01*
X460392Y-74600D01*
Y-70600D01*
G01X467367Y-74600D02*
Y-70600D01*
X468533D01*
X469000Y-70800D01*
X469350Y-71067D01*
X469642Y-71467D01*
X469875Y-71933D01*
X469933Y-72600D01*
X469875Y-73267D01*
X469642Y-73733D01*
X469350Y-74133D01*
X469000Y-74400D01*
X468533Y-74600D01*
X467367D01*
G01X472283D02*
Y-70600D01*
X473742D01*
X474208Y-70800D01*
X474500Y-71067D01*
X474617Y-71600D01*
X474500Y-72133D01*
X474150Y-72467D01*
X473742Y-72667D01*
X472283D01*
G01X473742D02*
X474617Y-74600D01*
G01X477550Y-70600D02*
X478950D01*
G01X478250D02*
Y-74600D01*
G01X477550D02*
X478950D01*
G01X481592Y-70600D02*
X483050Y-74600D01*
X484508Y-70600D01*
G01X489017Y-74600D02*
X486683D01*
Y-70600D01*
X489017D01*
G01X488083Y-72533D02*
X486683D01*
G01X495700Y-70600D02*
X496517Y-74600D01*
X497450Y-70600D01*
X498383Y-74600D01*
X499200Y-70600D01*
G01X503417Y-74600D02*
X501083D01*
Y-70600D01*
X503417D01*
G01X502483Y-72533D02*
X501083D01*
G01X505825Y-74067D02*
X506292Y-74400D01*
X506817Y-74600D01*
X507283D01*
X507750Y-74400D01*
X508100Y-74067D01*
X508275Y-73600D01*
X508158Y-73133D01*
X507867Y-72733D01*
X507342Y-72467D01*
X506642Y-72333D01*
X506233Y-72067D01*
X506058Y-71600D01*
X506175Y-71133D01*
X506467Y-70800D01*
X506875Y-70600D01*
X507283D01*
X507692Y-70733D01*
X508042Y-71067D01*
G01X511850Y-70600D02*
Y-74600D01*
G01X510508Y-70600D02*
X513192D01*
G01X371553Y-65600D02*
Y-58100D01*
X375847Y-65600D01*
Y-58100D01*
G01X379240Y-65600D02*
X383160Y-58100D01*
G01X379240D02*
X383160Y-65600D01*
G01X386833D02*
Y-58100D01*
X389073D01*
X389820Y-58475D01*
X390380Y-59350D01*
X390567Y-60350D01*
X390380Y-61350D01*
X389913Y-62100D01*
X389073Y-62475D01*
X386833D01*
G01X401740Y-64600D02*
X402487Y-65225D01*
X403327Y-65600D01*
X404073D01*
X404820Y-65225D01*
X405380Y-64600D01*
X405660Y-63725D01*
X405473Y-62850D01*
X405007Y-62100D01*
X404167Y-61600D01*
X403047Y-61350D01*
X402393Y-60850D01*
X402113Y-59975D01*
X402300Y-59100D01*
X402767Y-58475D01*
X403420Y-58100D01*
X404073D01*
X404727Y-58350D01*
X405287Y-58975D01*
G01X413067Y-65600D02*
X409333D01*
Y-58100D01*
X413067D01*
G01X411573Y-61725D02*
X409333D01*
G01X416273Y-65600D02*
Y-58100D01*
X418700Y-64350D01*
X421127Y-58100D01*
Y-65600D01*
G01X425080Y-58100D02*
X427320D01*
G01X426200D02*
Y-65600D01*
G01X425080D02*
X427320D01*
G01X435753Y-58725D02*
X435193Y-58350D01*
X434540Y-58100D01*
X433793D01*
X432953Y-58475D01*
X432300Y-59100D01*
X431833Y-59850D01*
X431460Y-61100D01*
X431367Y-62225D01*
X431553Y-63350D01*
X431833Y-64100D01*
X432393Y-64850D01*
X433047Y-65350D01*
X433700Y-65600D01*
X434353D01*
X435007Y-65350D01*
X435567Y-64975D01*
X436033Y-64475D01*
G01X441200Y-65600D02*
X440453Y-65475D01*
X439800Y-64975D01*
X439240Y-64225D01*
X438867Y-63350D01*
X438680Y-62350D01*
Y-61350D01*
X438867Y-60350D01*
X439240Y-59475D01*
X439800Y-58725D01*
X440453Y-58225D01*
X441200Y-58100D01*
X441947Y-58225D01*
X442600Y-58725D01*
X443160Y-59475D01*
X443533Y-60350D01*
X443720Y-61350D01*
Y-62350D01*
X443533Y-63350D01*
X443160Y-64225D01*
X442600Y-64975D01*
X441947Y-65475D01*
X441200Y-65600D01*
G01X446553D02*
Y-58100D01*
X450847Y-65600D01*
Y-58100D01*
G01X454147Y-65600D02*
Y-58100D01*
X456013D01*
X456760Y-58475D01*
X457320Y-58975D01*
X457787Y-59725D01*
X458160Y-60600D01*
X458253Y-61850D01*
X458160Y-63100D01*
X457787Y-63975D01*
X457320Y-64725D01*
X456760Y-65225D01*
X456013Y-65600D01*
X454147D01*
G01X461647Y-58100D02*
Y-63475D01*
X462020Y-64600D01*
X462767Y-65350D01*
X463700Y-65600D01*
X464633Y-65350D01*
X465380Y-64600D01*
X465753Y-63475D01*
Y-58100D01*
G01X473253Y-58725D02*
X472693Y-58350D01*
X472040Y-58100D01*
X471293D01*
X470453Y-58475D01*
X469800Y-59100D01*
X469333Y-59850D01*
X468960Y-61100D01*
X468867Y-62225D01*
X469053Y-63350D01*
X469333Y-64100D01*
X469893Y-64850D01*
X470547Y-65350D01*
X471200Y-65600D01*
X471853D01*
X472507Y-65350D01*
X473067Y-64975D01*
X473533Y-64475D01*
G01X478700Y-58100D02*
Y-65600D01*
G01X476553Y-58100D02*
X480847D01*
G01X486200Y-65600D02*
X485453Y-65475D01*
X484800Y-64975D01*
X484240Y-64225D01*
X483867Y-63350D01*
X483680Y-62350D01*
Y-61350D01*
X483867Y-60350D01*
X484240Y-59475D01*
X484800Y-58725D01*
X485453Y-58225D01*
X486200Y-58100D01*
X486947Y-58225D01*
X487600Y-58725D01*
X488160Y-59475D01*
X488533Y-60350D01*
X488720Y-61350D01*
Y-62350D01*
X488533Y-63350D01*
X488160Y-64225D01*
X487600Y-64975D01*
X486947Y-65475D01*
X486200Y-65600D01*
G01X491833D02*
Y-58100D01*
X494167D01*
X494913Y-58475D01*
X495380Y-58975D01*
X495567Y-59975D01*
X495380Y-60975D01*
X494820Y-61600D01*
X494167Y-61975D01*
X491833D01*
G01X494167D02*
X495567Y-65600D01*
G01X499240Y-64600D02*
X499987Y-65225D01*
X500827Y-65600D01*
X501573D01*
X502320Y-65225D01*
X502880Y-64600D01*
X503160Y-63725D01*
X502973Y-62850D01*
X502507Y-62100D01*
X501667Y-61600D01*
X500547Y-61350D01*
X499893Y-60850D01*
X499613Y-59975D01*
X499800Y-59100D01*
X500267Y-58475D01*
X500920Y-58100D01*
X501573D01*
X502227Y-58350D01*
X502787Y-58975D01*
G01X377308Y-131600D02*
Y-127600D01*
X379992Y-131600D01*
Y-127600D01*
G01X382225Y-131600D02*
X384675Y-127600D01*
G01X382225D02*
X384675Y-131600D01*
G01X387083D02*
Y-127600D01*
X388483D01*
X388950Y-127800D01*
X389300Y-128267D01*
X389417Y-128800D01*
X389300Y-129333D01*
X389008Y-129733D01*
X388483Y-129933D01*
X387083D01*
G01X393050Y-131733D02*
X392933Y-131667D01*
Y-131533D01*
X393050Y-131467D01*
X393167Y-131533D01*
Y-131667D01*
X393050Y-131733D01*
G01X379650Y-123600D02*
X379183Y-123533D01*
X378775Y-123267D01*
X378425Y-122867D01*
X378192Y-122400D01*
X378075Y-121867D01*
Y-121333D01*
X378192Y-120800D01*
X378425Y-120333D01*
X378775Y-119933D01*
X379183Y-119667D01*
X379650Y-119600D01*
X380117Y-119667D01*
X380525Y-119933D01*
X380875Y-120333D01*
X381108Y-120800D01*
X381225Y-121333D01*
Y-121867D01*
X381108Y-122400D01*
X380875Y-122867D01*
X380525Y-123267D01*
X380117Y-123533D01*
X379650Y-123600D01*
G01X383283D02*
Y-119600D01*
X384742D01*
X385208Y-119800D01*
X385500Y-120067D01*
X385617Y-120600D01*
X385500Y-121133D01*
X385150Y-121467D01*
X384742Y-121667D01*
X383283D01*
G01X384742D02*
X385617Y-123600D01*
G01X393350Y-119600D02*
X394750D01*
G01X394050D02*
Y-123600D01*
G01X393350D02*
X394750D01*
G01X397508D02*
Y-119600D01*
X400192Y-123600D01*
Y-119600D01*
G01X407283Y-123600D02*
Y-119600D01*
X408683D01*
X409150Y-119800D01*
X409500Y-120267D01*
X409617Y-120800D01*
X409500Y-121333D01*
X409208Y-121733D01*
X408683Y-121933D01*
X407283D01*
G01X411792Y-123600D02*
X413250Y-119600D01*
X414708Y-123600D01*
G01X414183Y-122200D02*
X412317D01*
G01X416883Y-123600D02*
Y-119600D01*
X418342D01*
X418808Y-119800D01*
X419100Y-120067D01*
X419217Y-120600D01*
X419100Y-121133D01*
X418750Y-121467D01*
X418342Y-121667D01*
X416883D01*
G01X418342D02*
X419217Y-123600D01*
G01X422850Y-119600D02*
Y-123600D01*
G01X421508Y-119600D02*
X424192D01*
G01X430700D02*
X431517Y-123600D01*
X432450Y-119600D01*
X433383Y-123600D01*
X434200Y-119600D01*
G01X436550D02*
X437950D01*
G01X437250D02*
Y-123600D01*
G01X436550D02*
X437950D01*
G01X442050Y-119600D02*
Y-123600D01*
G01X440708Y-119600D02*
X443392D01*
G01X445625Y-123600D02*
Y-119600D01*
G01X448075D02*
Y-123600D01*
G01Y-121600D02*
X445625D01*
G01X451650Y-123600D02*
X451183Y-123533D01*
X450775Y-123267D01*
X450425Y-122867D01*
X450192Y-122400D01*
X450075Y-121867D01*
Y-121333D01*
X450192Y-120800D01*
X450425Y-120333D01*
X450775Y-119933D01*
X451183Y-119667D01*
X451650Y-119600D01*
X452117Y-119667D01*
X452525Y-119933D01*
X452875Y-120333D01*
X453108Y-120800D01*
X453225Y-121333D01*
Y-121867D01*
X453108Y-122400D01*
X452875Y-122867D01*
X452525Y-123267D01*
X452117Y-123533D01*
X451650Y-123600D01*
G01X455167Y-119600D02*
Y-122467D01*
X455400Y-123067D01*
X455867Y-123467D01*
X456450Y-123600D01*
X457033Y-123467D01*
X457500Y-123067D01*
X457733Y-122467D01*
Y-119600D01*
G01X461250D02*
Y-123600D01*
G01X459908Y-119600D02*
X462592D01*
G01X470850D02*
Y-123600D01*
G01X469508Y-119600D02*
X472192D01*
G01X474425Y-123600D02*
Y-119600D01*
G01X476875D02*
Y-123600D01*
G01Y-121600D02*
X474425D01*
G01X481617Y-123600D02*
X479283D01*
Y-119600D01*
X481617D01*
G01X480683Y-121533D02*
X479283D01*
G01X491333Y-119933D02*
X490983Y-119733D01*
X490575Y-119600D01*
X490108D01*
X489583Y-119800D01*
X489175Y-120133D01*
X488883Y-120533D01*
X488650Y-121200D01*
X488592Y-121800D01*
X488708Y-122400D01*
X488883Y-122800D01*
X489233Y-123200D01*
X489642Y-123467D01*
X490050Y-123600D01*
X490458D01*
X490867Y-123467D01*
X491217Y-123267D01*
X491508Y-123000D01*
G01X494850Y-123600D02*
X494383Y-123533D01*
X493975Y-123267D01*
X493625Y-122867D01*
X493392Y-122400D01*
X493275Y-121867D01*
Y-121333D01*
X493392Y-120800D01*
X493625Y-120333D01*
X493975Y-119933D01*
X494383Y-119667D01*
X494850Y-119600D01*
X495317Y-119667D01*
X495725Y-119933D01*
X496075Y-120333D01*
X496308Y-120800D01*
X496425Y-121333D01*
Y-121867D01*
X496308Y-122400D01*
X496075Y-122867D01*
X495725Y-123267D01*
X495317Y-123533D01*
X494850Y-123600D01*
G01X498308D02*
Y-119600D01*
X500992Y-123600D01*
Y-119600D01*
G01X503225Y-123067D02*
X503692Y-123400D01*
X504217Y-123600D01*
X504683D01*
X505150Y-123400D01*
X505500Y-123067D01*
X505675Y-122600D01*
X505558Y-122133D01*
X505267Y-121733D01*
X504742Y-121467D01*
X504042Y-121333D01*
X503633Y-121067D01*
X503458Y-120600D01*
X503575Y-120133D01*
X503867Y-119800D01*
X504275Y-119600D01*
X504683D01*
X505092Y-119733D01*
X505442Y-120067D01*
G01X510417Y-123600D02*
X508083D01*
Y-119600D01*
X510417D01*
G01X509483Y-121533D02*
X508083D01*
G01X512708Y-123600D02*
Y-119600D01*
X515392Y-123600D01*
Y-119600D01*
G01X518850D02*
Y-123600D01*
G01X517508Y-119600D02*
X520192D01*
G01X528450Y-123600D02*
X527983Y-123533D01*
X527575Y-123267D01*
X527225Y-122867D01*
X526992Y-122400D01*
X526875Y-121867D01*
Y-121333D01*
X526992Y-120800D01*
X527225Y-120333D01*
X527575Y-119933D01*
X527983Y-119667D01*
X528450Y-119600D01*
X528917Y-119667D01*
X529325Y-119933D01*
X529675Y-120333D01*
X529908Y-120800D01*
X530025Y-121333D01*
Y-121867D01*
X529908Y-122400D01*
X529675Y-122867D01*
X529325Y-123267D01*
X528917Y-123533D01*
X528450Y-123600D01*
G01X532142D02*
Y-119600D01*
X534358D01*
G01X533542Y-121533D02*
X532142D01*
G01X378483Y-115600D02*
Y-111600D01*
X379883D01*
X380350Y-111800D01*
X380700Y-112267D01*
X380817Y-112800D01*
X380700Y-113333D01*
X380408Y-113733D01*
X379883Y-113933D01*
X378483D01*
G01X383283Y-115600D02*
Y-111600D01*
X384742D01*
X385208Y-111800D01*
X385500Y-112067D01*
X385617Y-112600D01*
X385500Y-113133D01*
X385150Y-113467D01*
X384742Y-113667D01*
X383283D01*
G01X384742D02*
X385617Y-115600D01*
G01X389250D02*
X388783Y-115533D01*
X388375Y-115267D01*
X388025Y-114867D01*
X387792Y-114400D01*
X387675Y-113867D01*
Y-113333D01*
X387792Y-112800D01*
X388025Y-112333D01*
X388375Y-111933D01*
X388783Y-111667D01*
X389250Y-111600D01*
X389717Y-111667D01*
X390125Y-111933D01*
X390475Y-112333D01*
X390708Y-112800D01*
X390825Y-113333D01*
Y-113867D01*
X390708Y-114400D01*
X390475Y-114867D01*
X390125Y-115267D01*
X389717Y-115533D01*
X389250Y-115600D01*
G01X395333Y-111933D02*
X394983Y-111733D01*
X394575Y-111600D01*
X394108D01*
X393583Y-111800D01*
X393175Y-112133D01*
X392883Y-112533D01*
X392650Y-113200D01*
X392592Y-113800D01*
X392708Y-114400D01*
X392883Y-114800D01*
X393233Y-115200D01*
X393642Y-115467D01*
X394050Y-115600D01*
X394458D01*
X394867Y-115467D01*
X395217Y-115267D01*
X395508Y-115000D01*
G01X397567Y-111600D02*
Y-114467D01*
X397800Y-115067D01*
X398267Y-115467D01*
X398850Y-115600D01*
X399433Y-115467D01*
X399900Y-115067D01*
X400133Y-114467D01*
Y-111600D01*
G01X402483Y-115600D02*
Y-111600D01*
X403942D01*
X404408Y-111800D01*
X404700Y-112067D01*
X404817Y-112600D01*
X404700Y-113133D01*
X404350Y-113467D01*
X403942Y-113667D01*
X402483D01*
G01X403942D02*
X404817Y-115600D01*
G01X409617D02*
X407283D01*
Y-111600D01*
X409617D01*
G01X408683Y-113533D02*
X407283D01*
G01X411733Y-115600D02*
Y-111600D01*
X413250Y-114933D01*
X414767Y-111600D01*
Y-115600D01*
G01X419217D02*
X416883D01*
Y-111600D01*
X419217D01*
G01X418283Y-113533D02*
X416883D01*
G01X421508Y-115600D02*
Y-111600D01*
X424192Y-115600D01*
Y-111600D01*
G01X427650D02*
Y-115600D01*
G01X426308Y-111600D02*
X428992D01*
G01X437250Y-115600D02*
X436783Y-115533D01*
X436375Y-115267D01*
X436025Y-114867D01*
X435792Y-114400D01*
X435675Y-113867D01*
Y-113333D01*
X435792Y-112800D01*
X436025Y-112333D01*
X436375Y-111933D01*
X436783Y-111667D01*
X437250Y-111600D01*
X437717Y-111667D01*
X438125Y-111933D01*
X438475Y-112333D01*
X438708Y-112800D01*
X438825Y-113333D01*
Y-113867D01*
X438708Y-114400D01*
X438475Y-114867D01*
X438125Y-115267D01*
X437717Y-115533D01*
X437250Y-115600D01*
G01X440883D02*
Y-111600D01*
X442342D01*
X442808Y-111800D01*
X443100Y-112067D01*
X443217Y-112600D01*
X443100Y-113133D01*
X442750Y-113467D01*
X442342Y-113667D01*
X440883D01*
G01X442342D02*
X443217Y-115600D01*
G01X450133D02*
Y-111600D01*
X451650Y-114933D01*
X453167Y-111600D01*
Y-115600D01*
G01X454992D02*
X456450Y-111600D01*
X457908Y-115600D01*
G01X457383Y-114200D02*
X455517D01*
G01X459908Y-115600D02*
Y-111600D01*
X462592Y-115600D01*
Y-111600D01*
G01X464767D02*
Y-114467D01*
X465000Y-115067D01*
X465467Y-115467D01*
X466050Y-115600D01*
X466633Y-115467D01*
X467100Y-115067D01*
X467333Y-114467D01*
Y-111600D01*
G01X469742Y-115600D02*
Y-111600D01*
X471958D01*
G01X471142Y-113533D02*
X469742D01*
G01X474192Y-115600D02*
X475650Y-111600D01*
X477108Y-115600D01*
G01X476583Y-114200D02*
X474717D01*
G01X481733Y-111933D02*
X481383Y-111733D01*
X480975Y-111600D01*
X480508D01*
X479983Y-111800D01*
X479575Y-112133D01*
X479283Y-112533D01*
X479050Y-113200D01*
X478992Y-113800D01*
X479108Y-114400D01*
X479283Y-114800D01*
X479633Y-115200D01*
X480042Y-115467D01*
X480450Y-115600D01*
X480858D01*
X481267Y-115467D01*
X481617Y-115267D01*
X481908Y-115000D01*
G01X485250Y-111600D02*
Y-115600D01*
G01X483908Y-111600D02*
X486592D01*
G01X488767D02*
Y-114467D01*
X489000Y-115067D01*
X489467Y-115467D01*
X490050Y-115600D01*
X490633Y-115467D01*
X491100Y-115067D01*
X491333Y-114467D01*
Y-111600D01*
G01X493683Y-115600D02*
Y-111600D01*
X495142D01*
X495608Y-111800D01*
X495900Y-112067D01*
X496017Y-112600D01*
X495900Y-113133D01*
X495550Y-113467D01*
X495142Y-113667D01*
X493683D01*
G01X495142D02*
X496017Y-115600D01*
G01X500817D02*
X498483D01*
Y-111600D01*
X500817D01*
G01X499883Y-113533D02*
X498483D01*
G01X508550Y-111600D02*
X509950D01*
G01X509250D02*
Y-115600D01*
G01X508550D02*
X509950D01*
G01X512708D02*
Y-111600D01*
X515392Y-115600D01*
Y-111600D01*
G01X521900D02*
X522717Y-115600D01*
X523650Y-111600D01*
X524583Y-115600D01*
X525400Y-111600D01*
G01X527225Y-115600D02*
Y-111600D01*
G01X529675D02*
Y-115600D01*
G01Y-113600D02*
X527225D01*
G01X533250Y-115600D02*
X532783Y-115533D01*
X532375Y-115267D01*
X532025Y-114867D01*
X531792Y-114400D01*
X531675Y-113867D01*
Y-113333D01*
X531792Y-112800D01*
X532025Y-112333D01*
X532375Y-111933D01*
X532783Y-111667D01*
X533250Y-111600D01*
X533717Y-111667D01*
X534125Y-111933D01*
X534475Y-112333D01*
X534708Y-112800D01*
X534825Y-113333D01*
Y-113867D01*
X534708Y-114400D01*
X534475Y-114867D01*
X534125Y-115267D01*
X533717Y-115533D01*
X533250Y-115600D01*
G01X536883Y-111600D02*
Y-115600D01*
X539217D01*
G01X544017D02*
X541683D01*
Y-111600D01*
X544017D01*
G01X543083Y-113533D02*
X541683D01*
G01X379117Y-105467D02*
X379350Y-105267D01*
X379525Y-104933D01*
X379642Y-104467D01*
X379525Y-104067D01*
X379292Y-103800D01*
X378883Y-103600D01*
X377308D01*
Y-107600D01*
X379233D01*
X379642Y-107333D01*
X379875Y-106933D01*
X379992Y-106467D01*
X379875Y-106000D01*
X379525Y-105600D01*
X379117Y-105467D01*
X377308D01*
G01X384617Y-107600D02*
X382283D01*
Y-103600D01*
X384617D01*
G01X383683Y-105533D02*
X382283D01*
G01X391767Y-103600D02*
Y-106467D01*
X392000Y-107067D01*
X392467Y-107467D01*
X393050Y-107600D01*
X393633Y-107467D01*
X394100Y-107067D01*
X394333Y-106467D01*
Y-103600D01*
G01X396625Y-107067D02*
X397092Y-107400D01*
X397617Y-107600D01*
X398083D01*
X398550Y-107400D01*
X398900Y-107067D01*
X399075Y-106600D01*
X398958Y-106133D01*
X398667Y-105733D01*
X398142Y-105467D01*
X397442Y-105333D01*
X397033Y-105067D01*
X396858Y-104600D01*
X396975Y-104133D01*
X397267Y-103800D01*
X397675Y-103600D01*
X398083D01*
X398492Y-103733D01*
X398842Y-104067D01*
G01X403817Y-107600D02*
X401483D01*
Y-103600D01*
X403817D01*
G01X402883Y-105533D02*
X401483D01*
G01X406167Y-107600D02*
Y-103600D01*
X407333D01*
X407800Y-103800D01*
X408150Y-104067D01*
X408442Y-104467D01*
X408675Y-104933D01*
X408733Y-105600D01*
X408675Y-106267D01*
X408442Y-106733D01*
X408150Y-107133D01*
X407800Y-107400D01*
X407333Y-107600D01*
X406167D01*
G01X415942D02*
Y-103600D01*
X418158D01*
G01X417342Y-105533D02*
X415942D01*
G01X421850Y-107600D02*
X421383Y-107533D01*
X420975Y-107267D01*
X420625Y-106867D01*
X420392Y-106400D01*
X420275Y-105867D01*
Y-105333D01*
X420392Y-104800D01*
X420625Y-104333D01*
X420975Y-103933D01*
X421383Y-103667D01*
X421850Y-103600D01*
X422317Y-103667D01*
X422725Y-103933D01*
X423075Y-104333D01*
X423308Y-104800D01*
X423425Y-105333D01*
Y-105867D01*
X423308Y-106400D01*
X423075Y-106867D01*
X422725Y-107267D01*
X422317Y-107533D01*
X421850Y-107600D01*
G01X425483D02*
Y-103600D01*
X426942D01*
X427408Y-103800D01*
X427700Y-104067D01*
X427817Y-104600D01*
X427700Y-105133D01*
X427350Y-105467D01*
X426942Y-105667D01*
X425483D01*
G01X426942D02*
X427817Y-107600D01*
G01X437417D02*
X435083D01*
Y-103600D01*
X437417D01*
G01X436483Y-105533D02*
X435083D01*
G01X439708Y-107600D02*
Y-103600D01*
X442392Y-107600D01*
Y-103600D01*
G01X446200Y-105600D02*
X447367D01*
Y-106800D01*
X447017Y-107200D01*
X446608Y-107467D01*
X446025Y-107600D01*
X445442Y-107467D01*
X445033Y-107200D01*
X444683Y-106800D01*
X444450Y-106333D01*
X444333Y-105800D01*
Y-105333D01*
X444450Y-104933D01*
X444683Y-104467D01*
X445033Y-104067D01*
X445383Y-103800D01*
X445850Y-103600D01*
X446258D01*
X446725Y-103733D01*
X447075Y-104000D01*
G01X449950Y-103600D02*
X451350D01*
G01X450650D02*
Y-107600D01*
G01X449950D02*
X451350D01*
G01X454108D02*
Y-103600D01*
X456792Y-107600D01*
Y-103600D01*
G01X461417Y-107600D02*
X459083D01*
Y-103600D01*
X461417D01*
G01X460483Y-105533D02*
X459083D01*
G01X466217Y-107600D02*
X463883D01*
Y-103600D01*
X466217D01*
G01X465283Y-105533D02*
X463883D01*
G01X468683Y-107600D02*
Y-103600D01*
X470142D01*
X470608Y-103800D01*
X470900Y-104067D01*
X471017Y-104600D01*
X470900Y-105133D01*
X470550Y-105467D01*
X470142Y-105667D01*
X468683D01*
G01X470142D02*
X471017Y-107600D01*
G01X473950Y-103600D02*
X475350D01*
G01X474650D02*
Y-107600D01*
G01X473950D02*
X475350D01*
G01X478108D02*
Y-103600D01*
X480792Y-107600D01*
Y-103600D01*
G01X484600Y-105600D02*
X485767D01*
Y-106800D01*
X485417Y-107200D01*
X485008Y-107467D01*
X484425Y-107600D01*
X483842Y-107467D01*
X483433Y-107200D01*
X483083Y-106800D01*
X482850Y-106333D01*
X482733Y-105800D01*
Y-105333D01*
X482850Y-104933D01*
X483083Y-104467D01*
X483433Y-104067D01*
X483783Y-103800D01*
X484250Y-103600D01*
X484658D01*
X485125Y-103733D01*
X485475Y-104000D01*
G01X492567Y-107600D02*
Y-103600D01*
X493733D01*
X494200Y-103800D01*
X494550Y-104067D01*
X494842Y-104467D01*
X495075Y-104933D01*
X495133Y-105600D01*
X495075Y-106267D01*
X494842Y-106733D01*
X494550Y-107133D01*
X494200Y-107400D01*
X493733Y-107600D01*
X492567D01*
G01X499817D02*
X497483D01*
Y-103600D01*
X499817D01*
G01X498883Y-105533D02*
X497483D01*
G01X502225Y-107067D02*
X502692Y-107400D01*
X503217Y-107600D01*
X503683D01*
X504150Y-107400D01*
X504500Y-107067D01*
X504675Y-106600D01*
X504558Y-106133D01*
X504267Y-105733D01*
X503742Y-105467D01*
X503042Y-105333D01*
X502633Y-105067D01*
X502458Y-104600D01*
X502575Y-104133D01*
X502867Y-103800D01*
X503275Y-103600D01*
X503683D01*
X504092Y-103733D01*
X504442Y-104067D01*
G01X507550Y-103600D02*
X508950D01*
G01X508250D02*
Y-107600D01*
G01X507550D02*
X508950D01*
G01X513400Y-105600D02*
X514567D01*
Y-106800D01*
X514217Y-107200D01*
X513808Y-107467D01*
X513225Y-107600D01*
X512642Y-107467D01*
X512233Y-107200D01*
X511883Y-106800D01*
X511650Y-106333D01*
X511533Y-105800D01*
Y-105333D01*
X511650Y-104933D01*
X511883Y-104467D01*
X512233Y-104067D01*
X512583Y-103800D01*
X513050Y-103600D01*
X513458D01*
X513925Y-103733D01*
X514275Y-104000D01*
G01X516508Y-107600D02*
Y-103600D01*
X519192Y-107600D01*
Y-103600D01*
G01X377483Y-99600D02*
Y-95600D01*
X378883D01*
X379350Y-95800D01*
X379700Y-96267D01*
X379817Y-96800D01*
X379700Y-97333D01*
X379408Y-97733D01*
X378883Y-97933D01*
X377483D01*
G01X382283Y-99600D02*
Y-95600D01*
X383742D01*
X384208Y-95800D01*
X384500Y-96067D01*
X384617Y-96600D01*
X384500Y-97133D01*
X384150Y-97467D01*
X383742Y-97667D01*
X382283D01*
G01X383742D02*
X384617Y-99600D01*
G01X388250D02*
X387783Y-99533D01*
X387375Y-99267D01*
X387025Y-98867D01*
X386792Y-98400D01*
X386675Y-97867D01*
Y-97333D01*
X386792Y-96800D01*
X387025Y-96333D01*
X387375Y-95933D01*
X387783Y-95667D01*
X388250Y-95600D01*
X388717Y-95667D01*
X389125Y-95933D01*
X389475Y-96333D01*
X389708Y-96800D01*
X389825Y-97333D01*
Y-97867D01*
X389708Y-98400D01*
X389475Y-98867D01*
X389125Y-99267D01*
X388717Y-99533D01*
X388250Y-99600D01*
G01X391883D02*
Y-95600D01*
X393283D01*
X393750Y-95800D01*
X394100Y-96267D01*
X394217Y-96800D01*
X394100Y-97333D01*
X393808Y-97733D01*
X393283Y-97933D01*
X391883D01*
G01X396683Y-99600D02*
Y-95600D01*
X398142D01*
X398608Y-95800D01*
X398900Y-96067D01*
X399017Y-96600D01*
X398900Y-97133D01*
X398550Y-97467D01*
X398142Y-97667D01*
X396683D01*
G01X398142D02*
X399017Y-99600D01*
G01X401950Y-95600D02*
X403350D01*
G01X402650D02*
Y-99600D01*
G01X401950D02*
X403350D01*
G01X408617D02*
X406283D01*
Y-95600D01*
X408617D01*
G01X407683Y-97533D02*
X406283D01*
G01X412250Y-95600D02*
Y-99600D01*
G01X410908Y-95600D02*
X413592D01*
G01X415592Y-99600D02*
X417050Y-95600D01*
X418508Y-99600D01*
G01X417983Y-98200D02*
X416117D01*
G01X420683Y-99600D02*
Y-95600D01*
X422142D01*
X422608Y-95800D01*
X422900Y-96067D01*
X423017Y-96600D01*
X422900Y-97133D01*
X422550Y-97467D01*
X422142Y-97667D01*
X420683D01*
G01X422142D02*
X423017Y-99600D01*
G01X426650D02*
Y-97800D01*
X425483Y-95600D01*
G01X427817D02*
X426650Y-97800D01*
G01X436250Y-95600D02*
Y-99600D01*
G01X434908Y-95600D02*
X437592D01*
G01X441050Y-99600D02*
X440583Y-99533D01*
X440175Y-99267D01*
X439825Y-98867D01*
X439592Y-98400D01*
X439475Y-97867D01*
Y-97333D01*
X439592Y-96800D01*
X439825Y-96333D01*
X440175Y-95933D01*
X440583Y-95667D01*
X441050Y-95600D01*
X441517Y-95667D01*
X441925Y-95933D01*
X442275Y-96333D01*
X442508Y-96800D01*
X442625Y-97333D01*
Y-97867D01*
X442508Y-98400D01*
X442275Y-98867D01*
X441925Y-99267D01*
X441517Y-99533D01*
X441050Y-99600D01*
G01X449308D02*
Y-95600D01*
X451992Y-99600D01*
Y-95600D01*
G01X454225Y-99600D02*
X456675Y-95600D01*
G01X454225D02*
X456675Y-99600D01*
G01X459083D02*
Y-95600D01*
X460483D01*
X460950Y-95800D01*
X461300Y-96267D01*
X461417Y-96800D01*
X461300Y-97333D01*
X461008Y-97733D01*
X460483Y-97933D01*
X459083D01*
G01X468392Y-99600D02*
X469850Y-95600D01*
X471308Y-99600D01*
G01X470783Y-98200D02*
X468917D01*
G01X473308Y-99600D02*
Y-95600D01*
X475992Y-99600D01*
Y-95600D01*
G01X478167Y-99600D02*
Y-95600D01*
X479333D01*
X479800Y-95800D01*
X480150Y-96067D01*
X480442Y-96467D01*
X480675Y-96933D01*
X480733Y-97600D01*
X480675Y-98267D01*
X480442Y-98733D01*
X480150Y-99133D01*
X479800Y-99400D01*
X479333Y-99600D01*
X478167D01*
G01X487825Y-99067D02*
X488292Y-99400D01*
X488817Y-99600D01*
X489283D01*
X489750Y-99400D01*
X490100Y-99067D01*
X490275Y-98600D01*
X490158Y-98133D01*
X489867Y-97733D01*
X489342Y-97467D01*
X488642Y-97333D01*
X488233Y-97067D01*
X488058Y-96600D01*
X488175Y-96133D01*
X488467Y-95800D01*
X488875Y-95600D01*
X489283D01*
X489692Y-95733D01*
X490042Y-96067D01*
G01X492625Y-99600D02*
Y-95600D01*
G01X495075D02*
Y-99600D01*
G01Y-97600D02*
X492625D01*
G01X497192Y-99600D02*
X498650Y-95600D01*
X500108Y-99600D01*
G01X499583Y-98200D02*
X497717D01*
G01X502283Y-95600D02*
Y-99600D01*
X504617D01*
G01X507083Y-95600D02*
Y-99600D01*
X509417D01*
G01X516508D02*
Y-95600D01*
X519192Y-99600D01*
Y-95600D01*
G01X522650Y-99600D02*
X522183Y-99533D01*
X521775Y-99267D01*
X521425Y-98867D01*
X521192Y-98400D01*
X521075Y-97867D01*
Y-97333D01*
X521192Y-96800D01*
X521425Y-96333D01*
X521775Y-95933D01*
X522183Y-95667D01*
X522650Y-95600D01*
X523117Y-95667D01*
X523525Y-95933D01*
X523875Y-96333D01*
X524108Y-96800D01*
X524225Y-97333D01*
Y-97867D01*
X524108Y-98400D01*
X523875Y-98867D01*
X523525Y-99267D01*
X523117Y-99533D01*
X522650Y-99600D01*
G01X527450Y-95600D02*
Y-99600D01*
G01X526108Y-95600D02*
X528792D01*
G01X378650Y-87600D02*
Y-91600D01*
G01X377308Y-87600D02*
X379992D01*
G01X382225Y-91600D02*
Y-87600D01*
G01X384675D02*
Y-91600D01*
G01Y-89600D02*
X382225D01*
G01X387550Y-87600D02*
X388950D01*
G01X388250D02*
Y-91600D01*
G01X387550D02*
X388950D01*
G01X391825Y-91067D02*
X392292Y-91400D01*
X392817Y-91600D01*
X393283D01*
X393750Y-91400D01*
X394100Y-91067D01*
X394275Y-90600D01*
X394158Y-90133D01*
X393867Y-89733D01*
X393342Y-89467D01*
X392642Y-89333D01*
X392233Y-89067D01*
X392058Y-88600D01*
X392175Y-88133D01*
X392467Y-87800D01*
X392875Y-87600D01*
X393283D01*
X393692Y-87733D01*
X394042Y-88067D01*
G01X401367Y-91600D02*
Y-87600D01*
X402533D01*
X403000Y-87800D01*
X403350Y-88067D01*
X403642Y-88467D01*
X403875Y-88933D01*
X403933Y-89600D01*
X403875Y-90267D01*
X403642Y-90733D01*
X403350Y-91133D01*
X403000Y-91400D01*
X402533Y-91600D01*
X401367D01*
G01X407450D02*
X406983Y-91533D01*
X406575Y-91267D01*
X406225Y-90867D01*
X405992Y-90400D01*
X405875Y-89867D01*
Y-89333D01*
X405992Y-88800D01*
X406225Y-88333D01*
X406575Y-87933D01*
X406983Y-87667D01*
X407450Y-87600D01*
X407917Y-87667D01*
X408325Y-87933D01*
X408675Y-88333D01*
X408908Y-88800D01*
X409025Y-89333D01*
Y-89867D01*
X408908Y-90400D01*
X408675Y-90867D01*
X408325Y-91267D01*
X407917Y-91533D01*
X407450Y-91600D01*
G01X413533Y-87933D02*
X413183Y-87733D01*
X412775Y-87600D01*
X412308D01*
X411783Y-87800D01*
X411375Y-88133D01*
X411083Y-88533D01*
X410850Y-89200D01*
X410792Y-89800D01*
X410908Y-90400D01*
X411083Y-90800D01*
X411433Y-91200D01*
X411842Y-91467D01*
X412250Y-91600D01*
X412658D01*
X413067Y-91467D01*
X413417Y-91267D01*
X413708Y-91000D01*
G01X415767Y-87600D02*
Y-90467D01*
X416000Y-91067D01*
X416467Y-91467D01*
X417050Y-91600D01*
X417633Y-91467D01*
X418100Y-91067D01*
X418333Y-90467D01*
Y-87600D01*
G01X420333Y-91600D02*
Y-87600D01*
X421850Y-90933D01*
X423367Y-87600D01*
Y-91600D01*
G01X427817D02*
X425483D01*
Y-87600D01*
X427817D01*
G01X426883Y-89533D02*
X425483D01*
G01X430108Y-91600D02*
Y-87600D01*
X432792Y-91600D01*
Y-87600D01*
G01X436250D02*
Y-91600D01*
G01X434908Y-87600D02*
X437592D01*
G01X447133Y-87933D02*
X446783Y-87733D01*
X446375Y-87600D01*
X445908D01*
X445383Y-87800D01*
X444975Y-88133D01*
X444683Y-88533D01*
X444450Y-89200D01*
X444392Y-89800D01*
X444508Y-90400D01*
X444683Y-90800D01*
X445033Y-91200D01*
X445442Y-91467D01*
X445850Y-91600D01*
X446258D01*
X446667Y-91467D01*
X447017Y-91267D01*
X447308Y-91000D01*
G01X450650Y-91600D02*
X450183Y-91533D01*
X449775Y-91267D01*
X449425Y-90867D01*
X449192Y-90400D01*
X449075Y-89867D01*
Y-89333D01*
X449192Y-88800D01*
X449425Y-88333D01*
X449775Y-87933D01*
X450183Y-87667D01*
X450650Y-87600D01*
X451117Y-87667D01*
X451525Y-87933D01*
X451875Y-88333D01*
X452108Y-88800D01*
X452225Y-89333D01*
Y-89867D01*
X452108Y-90400D01*
X451875Y-90867D01*
X451525Y-91267D01*
X451117Y-91533D01*
X450650Y-91600D01*
G01X454108D02*
Y-87600D01*
X456792Y-91600D01*
Y-87600D01*
G01X460250D02*
Y-91600D01*
G01X458908Y-87600D02*
X461592D01*
G01X463592Y-91600D02*
X465050Y-87600D01*
X466508Y-91600D01*
G01X465983Y-90200D02*
X464117D01*
G01X469150Y-87600D02*
X470550D01*
G01X469850D02*
Y-91600D01*
G01X469150D02*
X470550D01*
G01X473308D02*
Y-87600D01*
X475992Y-91600D01*
Y-87600D01*
G01X478225Y-91067D02*
X478692Y-91400D01*
X479217Y-91600D01*
X479683D01*
X480150Y-91400D01*
X480500Y-91067D01*
X480675Y-90600D01*
X480558Y-90133D01*
X480267Y-89733D01*
X479742Y-89467D01*
X479042Y-89333D01*
X478633Y-89067D01*
X478458Y-88600D01*
X478575Y-88133D01*
X478867Y-87800D01*
X479275Y-87600D01*
X479683D01*
X480092Y-87733D01*
X480442Y-88067D01*
G01X488350Y-87600D02*
X489750D01*
G01X489050D02*
Y-91600D01*
G01X488350D02*
X489750D01*
G01X492508D02*
Y-87600D01*
X495192Y-91600D01*
Y-87600D01*
G01X497542Y-91600D02*
Y-87600D01*
X499758D01*
G01X498942Y-89533D02*
X497542D01*
G01X503450Y-91600D02*
X502983Y-91533D01*
X502575Y-91267D01*
X502225Y-90867D01*
X501992Y-90400D01*
X501875Y-89867D01*
Y-89333D01*
X501992Y-88800D01*
X502225Y-88333D01*
X502575Y-87933D01*
X502983Y-87667D01*
X503450Y-87600D01*
X503917Y-87667D01*
X504325Y-87933D01*
X504675Y-88333D01*
X504908Y-88800D01*
X505025Y-89333D01*
Y-89867D01*
X504908Y-90400D01*
X504675Y-90867D01*
X504325Y-91267D01*
X503917Y-91533D01*
X503450Y-91600D01*
G01X507083D02*
Y-87600D01*
X508542D01*
X509008Y-87800D01*
X509300Y-88067D01*
X509417Y-88600D01*
X509300Y-89133D01*
X508950Y-89467D01*
X508542Y-89667D01*
X507083D01*
G01X508542D02*
X509417Y-91600D01*
G01X511533D02*
Y-87600D01*
X513050Y-90933D01*
X514567Y-87600D01*
Y-91600D01*
G01X516392D02*
X517850Y-87600D01*
X519308Y-91600D01*
G01X518783Y-90200D02*
X516917D01*
G01X522650Y-87600D02*
Y-91600D01*
G01X521308Y-87600D02*
X523992D01*
G01X526750D02*
X528150D01*
G01X527450D02*
Y-91600D01*
G01X526750D02*
X528150D01*
G01X532250D02*
X531783Y-91533D01*
X531375Y-91267D01*
X531025Y-90867D01*
X530792Y-90400D01*
X530675Y-89867D01*
Y-89333D01*
X530792Y-88800D01*
X531025Y-88333D01*
X531375Y-87933D01*
X531783Y-87667D01*
X532250Y-87600D01*
X532717Y-87667D01*
X533125Y-87933D01*
X533475Y-88333D01*
X533708Y-88800D01*
X533825Y-89333D01*
Y-89867D01*
X533708Y-90400D01*
X533475Y-90867D01*
X533125Y-91267D01*
X532717Y-91533D01*
X532250Y-91600D01*
G01X535708D02*
Y-87600D01*
X538392Y-91600D01*
Y-87600D01*
G01X389750Y-151100D02*
X389123Y-151000D01*
X388575Y-150600D01*
X388105Y-150000D01*
X387792Y-149300D01*
X387635Y-148500D01*
Y-147700D01*
X387792Y-146900D01*
X388105Y-146200D01*
X388575Y-145600D01*
X389123Y-145200D01*
X389750Y-145100D01*
X390377Y-145200D01*
X390925Y-145600D01*
X391395Y-146200D01*
X391708Y-146900D01*
X391865Y-147700D01*
Y-148500D01*
X391708Y-149300D01*
X391395Y-150000D01*
X390925Y-150600D01*
X390377Y-151000D01*
X389750Y-151100D01*
G01X394562D02*
Y-145100D01*
X397538D01*
G01X396442Y-148000D02*
X394562D01*
G01X408650Y-151100D02*
Y-145100D01*
X407710Y-146300D01*
G01Y-151100D02*
X409590D01*
G01X414950Y-145100D02*
X414323Y-145300D01*
X413853Y-145800D01*
X413540Y-146400D01*
X413305Y-147200D01*
X413227Y-148100D01*
X413305Y-149000D01*
X413540Y-149800D01*
X413853Y-150400D01*
X414323Y-150900D01*
X414950Y-151100D01*
X415577Y-150900D01*
X416047Y-150400D01*
X416360Y-149800D01*
X416595Y-149000D01*
X416673Y-148100D01*
X416595Y-147200D01*
X416360Y-146400D01*
X416047Y-145800D01*
X415577Y-145300D01*
X414950Y-145100D01*
G01X421542Y-142600D02*
Y-138600D01*
X423758D01*
G01X422942Y-140533D02*
X421542D01*
G01X426750Y-138600D02*
X428150D01*
G01X427450D02*
Y-142600D01*
G01X426750D02*
X428150D01*
G01X431083Y-138600D02*
Y-142600D01*
X433417D01*
G01X435533D02*
Y-138600D01*
X437050Y-141933D01*
X438567Y-138600D01*
Y-142600D01*
G01X424183Y-145100D02*
Y-151100D01*
X427317D01*
G01X432990D02*
Y-145100D01*
X430092Y-149400D01*
X434008D01*
G01X436000Y-153100D02*
X440700D01*
G01X443005Y-150300D02*
X443632Y-150800D01*
X444337Y-151100D01*
X444963D01*
X445590Y-150800D01*
X446060Y-150300D01*
X446295Y-149600D01*
X446138Y-148900D01*
X445747Y-148300D01*
X445042Y-147900D01*
X444102Y-147700D01*
X443553Y-147300D01*
X443318Y-146600D01*
X443475Y-145900D01*
X443867Y-145400D01*
X444415Y-145100D01*
X444963D01*
X445512Y-145300D01*
X445982Y-145800D01*
G01X449305Y-150300D02*
X449932Y-150800D01*
X450637Y-151100D01*
X451263D01*
X451890Y-150800D01*
X452360Y-150300D01*
X452595Y-149600D01*
X452438Y-148900D01*
X452047Y-148300D01*
X451342Y-147900D01*
X450402Y-147700D01*
X449853Y-147300D01*
X449618Y-146600D01*
X449775Y-145900D01*
X450167Y-145400D01*
X450715Y-145100D01*
X451263D01*
X451812Y-145300D01*
X452282Y-145800D01*
G01X546367Y-142600D02*
Y-138600D01*
X547533D01*
X548000Y-138800D01*
X548350Y-139067D01*
X548642Y-139467D01*
X548875Y-139933D01*
X548933Y-140600D01*
X548875Y-141267D01*
X548642Y-141733D01*
X548350Y-142133D01*
X548000Y-142400D01*
X547533Y-142600D01*
X546367D01*
G01X550992D02*
X552450Y-138600D01*
X553908Y-142600D01*
G01X553383Y-141200D02*
X551517D01*
G01X557250Y-138600D02*
Y-142600D01*
G01X555908Y-138600D02*
X558592D01*
G01X563217Y-142600D02*
X560883D01*
Y-138600D01*
X563217D01*
G01X562283Y-140533D02*
X560883D01*
G01X546308Y-62600D02*
Y-58600D01*
X548992Y-62600D01*
Y-58600D01*
G01X550992Y-62600D02*
X552450Y-58600D01*
X553908Y-62600D01*
G01X553383Y-61200D02*
X551517D01*
G01X555733Y-62600D02*
Y-58600D01*
X557250Y-61933D01*
X558767Y-58600D01*
Y-62600D01*
G01X563217D02*
X560883D01*
Y-58600D01*
X563217D01*
G01X562283Y-60533D02*
X560883D01*
G01X549650Y-146600D02*
X549183Y-146733D01*
X548833Y-147067D01*
X548600Y-147467D01*
X548425Y-148000D01*
X548367Y-148600D01*
X548425Y-149200D01*
X548600Y-149733D01*
X548833Y-150133D01*
X549183Y-150467D01*
X549650Y-150600D01*
X550117Y-150467D01*
X550467Y-150133D01*
X550700Y-149733D01*
X550875Y-149200D01*
X550933Y-148600D01*
X550875Y-148000D01*
X550700Y-147467D01*
X550467Y-147067D01*
X550117Y-146733D01*
X549650Y-146600D01*
G01X553458Y-150133D02*
X553867Y-150467D01*
X554333Y-150600D01*
X554800Y-150467D01*
X555208Y-150067D01*
X555500Y-149467D01*
X555617Y-148867D01*
Y-148133D01*
X555500Y-147533D01*
X555208Y-147000D01*
X554858Y-146733D01*
X554450Y-146600D01*
X553983Y-146733D01*
X553633Y-147000D01*
X553400Y-147400D01*
X553283Y-147933D01*
X553400Y-148400D01*
X553692Y-148867D01*
X554042Y-149133D01*
X554450Y-149200D01*
X554917Y-149067D01*
X555267Y-148733D01*
X555617Y-148133D01*
G01X558492Y-149267D02*
X560008D01*
G01X564050Y-150600D02*
Y-146600D01*
X563350Y-147400D01*
G01Y-150600D02*
X564750D01*
G01X567567Y-150000D02*
X567917Y-150333D01*
X568325Y-150533D01*
X568850Y-150600D01*
X569375Y-150467D01*
X569783Y-150200D01*
X570075Y-149733D01*
X570133Y-149200D01*
X570017Y-148667D01*
X569725Y-148333D01*
X569317Y-148067D01*
X568908Y-148000D01*
X568500Y-148067D01*
X567975Y-148333D01*
X568150Y-146600D01*
X569725D01*
G01X572892Y-149267D02*
X574408D01*
G01X577342Y-147267D02*
X577692Y-146867D01*
X578100Y-146667D01*
X578567Y-146600D01*
X579150Y-146733D01*
X579558Y-147067D01*
X579675Y-147467D01*
X579617Y-147867D01*
X579383Y-148200D01*
X578217Y-148867D01*
X577692Y-149333D01*
X577342Y-150000D01*
X577225Y-150600D01*
X579675D01*
G01X581967Y-149800D02*
X582317Y-150267D01*
X582783Y-150533D01*
X583308Y-150600D01*
X583775Y-150533D01*
X584242Y-150200D01*
X584533Y-149800D01*
X584592Y-149400D01*
X584475Y-148933D01*
X584067Y-148600D01*
X583658Y-148467D01*
X583133D01*
G01X583658D02*
X584008Y-148267D01*
X584300Y-147933D01*
X584417Y-147533D01*
X584300Y-147133D01*
X584008Y-146800D01*
X583483Y-146600D01*
X582958Y-146667D01*
X582433Y-146933D01*
G01X555900Y-128433D02*
X559400D01*
G01X560700D02*
X564200D01*
G01X565500D02*
X569000D01*
G01X578133Y-123433D02*
X577783Y-123233D01*
X577375Y-123100D01*
X576908D01*
X576383Y-123300D01*
X575975Y-123633D01*
X575683Y-124033D01*
X575450Y-124700D01*
X575392Y-125300D01*
X575508Y-125900D01*
X575683Y-126300D01*
X576033Y-126700D01*
X576442Y-126967D01*
X576850Y-127100D01*
X577258D01*
X577667Y-126967D01*
X578017Y-126767D01*
X578308Y-126500D01*
G01X581650Y-127100D02*
X581183Y-127033D01*
X580775Y-126767D01*
X580425Y-126367D01*
X580192Y-125900D01*
X580075Y-125367D01*
Y-124833D01*
X580192Y-124300D01*
X580425Y-123833D01*
X580775Y-123433D01*
X581183Y-123167D01*
X581650Y-123100D01*
X582117Y-123167D01*
X582525Y-123433D01*
X582875Y-123833D01*
X583108Y-124300D01*
X583225Y-124833D01*
Y-125367D01*
X583108Y-125900D01*
X582875Y-126367D01*
X582525Y-126767D01*
X582117Y-127033D01*
X581650Y-127100D01*
G01X584933D02*
Y-123100D01*
X586450Y-126433D01*
X587967Y-123100D01*
Y-127100D01*
G01X590083D02*
Y-123100D01*
X591483D01*
X591950Y-123300D01*
X592300Y-123767D01*
X592417Y-124300D01*
X592300Y-124833D01*
X592008Y-125233D01*
X591483Y-125433D01*
X590083D01*
G01X594592Y-127100D02*
X596050Y-123100D01*
X597508Y-127100D01*
G01X596983Y-125700D02*
X595117D01*
G01X599508Y-127100D02*
Y-123100D01*
X602192Y-127100D01*
Y-123100D01*
G01X605650Y-127100D02*
Y-125300D01*
X604483Y-123100D01*
G01X606817D02*
X605650Y-125300D01*
G01X616533Y-123433D02*
X616183Y-123233D01*
X615775Y-123100D01*
X615308D01*
X614783Y-123300D01*
X614375Y-123633D01*
X614083Y-124033D01*
X613850Y-124700D01*
X613792Y-125300D01*
X613908Y-125900D01*
X614083Y-126300D01*
X614433Y-126700D01*
X614842Y-126967D01*
X615250Y-127100D01*
X615658D01*
X616067Y-126967D01*
X616417Y-126767D01*
X616708Y-126500D01*
G01X620050Y-127100D02*
X619583Y-127033D01*
X619175Y-126767D01*
X618825Y-126367D01*
X618592Y-125900D01*
X618475Y-125367D01*
Y-124833D01*
X618592Y-124300D01*
X618825Y-123833D01*
X619175Y-123433D01*
X619583Y-123167D01*
X620050Y-123100D01*
X620517Y-123167D01*
X620925Y-123433D01*
X621275Y-123833D01*
X621508Y-124300D01*
X621625Y-124833D01*
Y-125367D01*
X621508Y-125900D01*
X621275Y-126367D01*
X620925Y-126767D01*
X620517Y-127033D01*
X620050Y-127100D01*
G01X623508D02*
Y-123100D01*
X626192Y-127100D01*
Y-123100D01*
G01X628542Y-127100D02*
Y-123100D01*
X630758D01*
G01X629942Y-125033D02*
X628542D01*
G01X633750Y-123100D02*
X635150D01*
G01X634450D02*
Y-127100D01*
G01X633750D02*
X635150D01*
G01X637967D02*
Y-123100D01*
X639133D01*
X639600Y-123300D01*
X639950Y-123567D01*
X640242Y-123967D01*
X640475Y-124433D01*
X640533Y-125100D01*
X640475Y-125767D01*
X640242Y-126233D01*
X639950Y-126633D01*
X639600Y-126900D01*
X639133Y-127100D01*
X637967D01*
G01X645217D02*
X642883D01*
Y-123100D01*
X645217D01*
G01X644283Y-125033D02*
X642883D01*
G01X647508Y-127100D02*
Y-123100D01*
X650192Y-127100D01*
Y-123100D01*
G01X653650D02*
Y-127100D01*
G01X652308Y-123100D02*
X654992D01*
G01X657750D02*
X659150D01*
G01X658450D02*
Y-127100D01*
G01X657750D02*
X659150D01*
G01X661792D02*
X663250Y-123100D01*
X664708Y-127100D01*
G01X664183Y-125700D02*
X662317D01*
G01X666883Y-123100D02*
Y-127100D01*
X669217D01*
G01X555900Y-111933D02*
X559400D01*
G01X560700D02*
X564200D01*
G01X565500D02*
X569000D01*
G01X578133Y-106933D02*
X577783Y-106733D01*
X577375Y-106600D01*
X576908D01*
X576383Y-106800D01*
X575975Y-107133D01*
X575683Y-107533D01*
X575450Y-108200D01*
X575392Y-108800D01*
X575508Y-109400D01*
X575683Y-109800D01*
X576033Y-110200D01*
X576442Y-110467D01*
X576850Y-110600D01*
X577258D01*
X577667Y-110467D01*
X578017Y-110267D01*
X578308Y-110000D01*
G01X581650Y-110600D02*
X581183Y-110533D01*
X580775Y-110267D01*
X580425Y-109867D01*
X580192Y-109400D01*
X580075Y-108867D01*
Y-108333D01*
X580192Y-107800D01*
X580425Y-107333D01*
X580775Y-106933D01*
X581183Y-106667D01*
X581650Y-106600D01*
X582117Y-106667D01*
X582525Y-106933D01*
X582875Y-107333D01*
X583108Y-107800D01*
X583225Y-108333D01*
Y-108867D01*
X583108Y-109400D01*
X582875Y-109867D01*
X582525Y-110267D01*
X582117Y-110533D01*
X581650Y-110600D01*
G01X584933D02*
Y-106600D01*
X586450Y-109933D01*
X587967Y-106600D01*
Y-110600D01*
G01X590083D02*
Y-106600D01*
X591483D01*
X591950Y-106800D01*
X592300Y-107267D01*
X592417Y-107800D01*
X592300Y-108333D01*
X592008Y-108733D01*
X591483Y-108933D01*
X590083D01*
G01X594592Y-110600D02*
X596050Y-106600D01*
X597508Y-110600D01*
G01X596983Y-109200D02*
X595117D01*
G01X599508Y-110600D02*
Y-106600D01*
X602192Y-110600D01*
Y-106600D01*
G01X605650Y-110600D02*
Y-108800D01*
X604483Y-106600D01*
G01X606817D02*
X605650Y-108800D01*
G01X614550Y-106600D02*
X615950D01*
G01X615250D02*
Y-110600D01*
G01X614550D02*
X615950D01*
G01X618708D02*
Y-106600D01*
X621392Y-110600D01*
Y-106600D01*
G01X624850D02*
Y-110600D01*
G01X623508Y-106600D02*
X626192D01*
G01X630817Y-110600D02*
X628483D01*
Y-106600D01*
X630817D01*
G01X629883Y-108533D02*
X628483D01*
G01X633283Y-110600D02*
Y-106600D01*
X634742D01*
X635208Y-106800D01*
X635500Y-107067D01*
X635617Y-107600D01*
X635500Y-108133D01*
X635150Y-108467D01*
X634742Y-108667D01*
X633283D01*
G01X634742D02*
X635617Y-110600D01*
G01X637908D02*
Y-106600D01*
X640592Y-110600D01*
Y-106600D01*
G01X642592Y-110600D02*
X644050Y-106600D01*
X645508Y-110600D01*
G01X644983Y-109200D02*
X643117D01*
G01X647683Y-106600D02*
Y-110600D01*
X650017D01*
G01X555900Y-95933D02*
X559400D01*
G01X560700D02*
X564200D01*
G01X565500D02*
X569000D01*
G01X578133Y-90933D02*
X577783Y-90733D01*
X577375Y-90600D01*
X576908D01*
X576383Y-90800D01*
X575975Y-91133D01*
X575683Y-91533D01*
X575450Y-92200D01*
X575392Y-92800D01*
X575508Y-93400D01*
X575683Y-93800D01*
X576033Y-94200D01*
X576442Y-94467D01*
X576850Y-94600D01*
X577258D01*
X577667Y-94467D01*
X578017Y-94267D01*
X578308Y-94000D01*
G01X581650Y-94600D02*
X581183Y-94533D01*
X580775Y-94267D01*
X580425Y-93867D01*
X580192Y-93400D01*
X580075Y-92867D01*
Y-92333D01*
X580192Y-91800D01*
X580425Y-91333D01*
X580775Y-90933D01*
X581183Y-90667D01*
X581650Y-90600D01*
X582117Y-90667D01*
X582525Y-90933D01*
X582875Y-91333D01*
X583108Y-91800D01*
X583225Y-92333D01*
Y-92867D01*
X583108Y-93400D01*
X582875Y-93867D01*
X582525Y-94267D01*
X582117Y-94533D01*
X581650Y-94600D01*
G01X584933D02*
Y-90600D01*
X586450Y-93933D01*
X587967Y-90600D01*
Y-94600D01*
G01X590083D02*
Y-90600D01*
X591483D01*
X591950Y-90800D01*
X592300Y-91267D01*
X592417Y-91800D01*
X592300Y-92333D01*
X592008Y-92733D01*
X591483Y-92933D01*
X590083D01*
G01X594592Y-94600D02*
X596050Y-90600D01*
X597508Y-94600D01*
G01X596983Y-93200D02*
X595117D01*
G01X599508Y-94600D02*
Y-90600D01*
X602192Y-94600D01*
Y-90600D01*
G01X605650Y-94600D02*
Y-92800D01*
X604483Y-90600D01*
G01X606817D02*
X605650Y-92800D01*
G01X614083Y-94600D02*
Y-90600D01*
X615483D01*
X615950Y-90800D01*
X616300Y-91267D01*
X616417Y-91800D01*
X616300Y-92333D01*
X616008Y-92733D01*
X615483Y-92933D01*
X614083D01*
G01X618767Y-90600D02*
Y-93467D01*
X619000Y-94067D01*
X619467Y-94467D01*
X620050Y-94600D01*
X620633Y-94467D01*
X621100Y-94067D01*
X621333Y-93467D01*
Y-90600D01*
G01X625317Y-92467D02*
X625550Y-92267D01*
X625725Y-91933D01*
X625842Y-91467D01*
X625725Y-91067D01*
X625492Y-90800D01*
X625083Y-90600D01*
X623508D01*
Y-94600D01*
X625433D01*
X625842Y-94333D01*
X626075Y-93933D01*
X626192Y-93467D01*
X626075Y-93000D01*
X625725Y-92600D01*
X625317Y-92467D01*
X623508D01*
G01X628483Y-90600D02*
Y-94600D01*
X630817D01*
G01X633750Y-90600D02*
X635150D01*
G01X634450D02*
Y-94600D01*
G01X633750D02*
X635150D01*
G01X640533Y-90933D02*
X640183Y-90733D01*
X639775Y-90600D01*
X639308D01*
X638783Y-90800D01*
X638375Y-91133D01*
X638083Y-91533D01*
X637850Y-92200D01*
X637792Y-92800D01*
X637908Y-93400D01*
X638083Y-93800D01*
X638433Y-94200D01*
X638842Y-94467D01*
X639250Y-94600D01*
X639658D01*
X640067Y-94467D01*
X640417Y-94267D01*
X640708Y-94000D01*
G01X560605Y-111600D02*
X563895Y-105300D01*
G01X560605D02*
X563895Y-111600D01*
G01X596308Y-142600D02*
Y-138600D01*
X598992Y-142600D01*
Y-138600D01*
G01X601167D02*
Y-141467D01*
X601400Y-142067D01*
X601867Y-142467D01*
X602450Y-142600D01*
X603033Y-142467D01*
X603500Y-142067D01*
X603733Y-141467D01*
Y-138600D01*
G01X605733Y-142600D02*
Y-138600D01*
X607250Y-141933D01*
X608767Y-138600D01*
Y-142600D01*
G01X612517Y-140467D02*
X612750Y-140267D01*
X612925Y-139933D01*
X613042Y-139467D01*
X612925Y-139067D01*
X612692Y-138800D01*
X612283Y-138600D01*
X610708D01*
Y-142600D01*
X612633D01*
X613042Y-142333D01*
X613275Y-141933D01*
X613392Y-141467D01*
X613275Y-141000D01*
X612925Y-140600D01*
X612517Y-140467D01*
X610708D01*
G01X618017Y-142600D02*
X615683D01*
Y-138600D01*
X618017D01*
G01X617083Y-140533D02*
X615683D01*
G01X620483Y-142600D02*
Y-138600D01*
X621942D01*
X622408Y-138800D01*
X622700Y-139067D01*
X622817Y-139600D01*
X622700Y-140133D01*
X622350Y-140467D01*
X621942Y-140667D01*
X620483D01*
G01X621942D02*
X622817Y-142600D01*
G01X619362Y-72700D02*
Y-66400D01*
X622338D01*
G01X621242Y-69445D02*
X619362D01*
G01X625583Y-72700D02*
Y-66400D01*
X627542D01*
X628168Y-66715D01*
X628560Y-67135D01*
X628717Y-67975D01*
X628560Y-68815D01*
X628090Y-69340D01*
X627542Y-69655D01*
X625583D01*
G01X627542D02*
X628717Y-72700D01*
G01X631727D02*
Y-66400D01*
X633293D01*
X633920Y-66715D01*
X634390Y-67135D01*
X634782Y-67765D01*
X635095Y-68500D01*
X635173Y-69550D01*
X635095Y-70600D01*
X634782Y-71335D01*
X634390Y-71965D01*
X633920Y-72385D01*
X633293Y-72700D01*
X631727D01*
G01X637713D02*
Y-66400D01*
X639750Y-71650D01*
X641787Y-66400D01*
Y-72700D01*
G01X645032Y-70600D02*
X647068D01*
G01X650313Y-72700D02*
Y-66400D01*
X652350Y-71650D01*
X654387Y-66400D01*
Y-72700D01*
G01X660373Y-66925D02*
X659903Y-66610D01*
X659355Y-66400D01*
X658728D01*
X658023Y-66715D01*
X657475Y-67240D01*
X657083Y-67870D01*
X656770Y-68920D01*
X656692Y-69865D01*
X656848Y-70810D01*
X657083Y-71440D01*
X657553Y-72070D01*
X658102Y-72490D01*
X658650Y-72700D01*
X659198D01*
X659747Y-72490D01*
X660217Y-72175D01*
X660608Y-71755D01*
G01X663305Y-72700D02*
X666595Y-66400D01*
G01X663305D02*
X666595Y-72700D01*
G01X669448D02*
Y-66400D01*
X673052Y-72700D01*
Y-66400D01*
G01X676218Y-71965D02*
X676767Y-72490D01*
X677393Y-72700D01*
X678020Y-72490D01*
X678568Y-71860D01*
X678960Y-70915D01*
X679117Y-69970D01*
Y-68815D01*
X678960Y-67870D01*
X678568Y-67030D01*
X678098Y-66610D01*
X677550Y-66400D01*
X676923Y-66610D01*
X676453Y-67030D01*
X676140Y-67660D01*
X675983Y-68500D01*
X676140Y-69235D01*
X676532Y-69970D01*
X677002Y-70390D01*
X677550Y-70495D01*
X678177Y-70285D01*
X678647Y-69760D01*
X679117Y-68815D01*
G01X684790Y-72700D02*
Y-66400D01*
X681892Y-70915D01*
X685808D01*
G01X689993Y-72700D02*
X690150Y-71335D01*
X690385Y-70180D01*
X690698Y-69130D01*
X691090Y-67975D01*
X691717Y-66400D01*
X688583D01*
G01X631250Y-149800D02*
Y-143500D01*
X630310Y-144760D01*
G01Y-149800D02*
X632190D01*
G01X637393D02*
X637550Y-148435D01*
X637785Y-147280D01*
X638098Y-146230D01*
X638490Y-145075D01*
X639117Y-143500D01*
X635983D01*
G01X643850D02*
X643223Y-143710D01*
X642753Y-144235D01*
X642440Y-144865D01*
X642205Y-145705D01*
X642127Y-146650D01*
X642205Y-147595D01*
X642440Y-148435D01*
X642753Y-149065D01*
X643223Y-149590D01*
X643850Y-149800D01*
X644477Y-149590D01*
X644947Y-149065D01*
X645260Y-148435D01*
X645495Y-147595D01*
X645573Y-146650D01*
X645495Y-145705D01*
X645260Y-144865D01*
X644947Y-144235D01*
X644477Y-143710D01*
X643850Y-143500D01*
G01X649132Y-147700D02*
X651168D01*
G01X655118Y-149065D02*
X655667Y-149590D01*
X656293Y-149800D01*
X656920Y-149590D01*
X657468Y-148960D01*
X657860Y-148015D01*
X658017Y-147070D01*
Y-145915D01*
X657860Y-144970D01*
X657468Y-144130D01*
X656998Y-143710D01*
X656450Y-143500D01*
X655823Y-143710D01*
X655353Y-144130D01*
X655040Y-144760D01*
X654883Y-145600D01*
X655040Y-146335D01*
X655432Y-147070D01*
X655902Y-147490D01*
X656450Y-147595D01*
X657077Y-147385D01*
X657547Y-146860D01*
X658017Y-145915D01*
G01X662750Y-143500D02*
X662123Y-143710D01*
X661653Y-144235D01*
X661340Y-144865D01*
X661105Y-145705D01*
X661027Y-146650D01*
X661105Y-147595D01*
X661340Y-148435D01*
X661653Y-149065D01*
X662123Y-149590D01*
X662750Y-149800D01*
X663377Y-149590D01*
X663847Y-149065D01*
X664160Y-148435D01*
X664395Y-147595D01*
X664473Y-146650D01*
X664395Y-145705D01*
X664160Y-144865D01*
X663847Y-144235D01*
X663377Y-143710D01*
X662750Y-143500D01*
G01X669050Y-149800D02*
X669598Y-149695D01*
X670225Y-149380D01*
X670617Y-148855D01*
X670773Y-148120D01*
X670617Y-147385D01*
X670147Y-146755D01*
X669442Y-146440D01*
X668658D01*
X668188Y-146230D01*
X667797Y-145705D01*
X667640Y-144970D01*
X667875Y-144235D01*
X668423Y-143710D01*
X669050Y-143500D01*
X669677Y-143710D01*
X670225Y-144235D01*
X670460Y-144970D01*
X670303Y-145705D01*
X669912Y-146230D01*
X669442Y-146440D01*
X668658D01*
X667953Y-146755D01*
X667483Y-147385D01*
X667327Y-148120D01*
X667483Y-148855D01*
X667875Y-149380D01*
X668502Y-149695D01*
X669050Y-149800D01*
G01X675350D02*
Y-143500D01*
X674410Y-144760D01*
G01Y-149800D02*
X676290D01*
G01X681650D02*
X682198Y-149695D01*
X682825Y-149380D01*
X683217Y-148855D01*
X683373Y-148120D01*
X683217Y-147385D01*
X682747Y-146755D01*
X682042Y-146440D01*
X681258D01*
X680788Y-146230D01*
X680397Y-145705D01*
X680240Y-144970D01*
X680475Y-144235D01*
X681023Y-143710D01*
X681650Y-143500D01*
X682277Y-143710D01*
X682825Y-144235D01*
X683060Y-144970D01*
X682903Y-145705D01*
X682512Y-146230D01*
X682042Y-146440D01*
X681258D01*
X680553Y-146755D01*
X680083Y-147385D01*
X679927Y-148120D01*
X680083Y-148855D01*
X680475Y-149380D01*
X681102Y-149695D01*
X681650Y-149800D01*
G01X724183D02*
Y-143500D01*
X726142D01*
X726768Y-143815D01*
X727160Y-144235D01*
X727317Y-145075D01*
X727160Y-145915D01*
X726690Y-146440D01*
X726142Y-146755D01*
X724183D01*
G01X726142D02*
X727317Y-149800D01*
G01X733617D02*
X730483D01*
Y-143500D01*
X733617D01*
G01X732363Y-146545D02*
X730483D01*
G01X736392Y-143500D02*
X738350Y-149800D01*
X740308Y-143500D01*
G01X751577Y-146440D02*
X751890Y-146125D01*
X752125Y-145600D01*
X752282Y-144865D01*
X752125Y-144235D01*
X751812Y-143815D01*
X751263Y-143500D01*
X749148D01*
Y-149800D01*
X751733D01*
X752282Y-149380D01*
X752595Y-148750D01*
X752752Y-148015D01*
X752595Y-147280D01*
X752125Y-146650D01*
X751577Y-146440D01*
X749148D01*
G54D28*
X61550Y2050D03*
G54D37*
X140400Y40250D03*
X396500Y182000D03*
G54D46*
X312800Y42500D03*
X319700D03*
X409500Y112300D03*
G54D19*
X24500Y46700D03*
Y54300D03*
X33500Y46700D03*
Y54300D03*
G54D56*
G01X3957Y30762D02*
X7303Y34109D01*
X9272D01*
G01Y159373D02*
X7303D01*
X3957Y156027D01*
G01X9272Y30762D02*
X10555Y32046D01*
X11748D01*
X15323Y35620D01*
X16464D01*
X17668Y34416D01*
G01X9272Y34109D02*
X10555Y32826D01*
X11425D01*
X15000Y36400D01*
X16452D01*
X17668Y37616D01*
G01X16668Y158416D02*
X15458Y159626D01*
X14326D01*
X12010Y157310D01*
X10555D01*
X9272Y156027D01*
G01Y159373D02*
X10555Y158090D01*
X11686D01*
X14003Y160406D01*
X15458D01*
X16668Y161616D01*
G01Y158416D02*
X17878Y159626D01*
X19489D01*
X20083Y159032D01*
X22008D01*
G01X16668Y161616D02*
X17878Y160406D01*
X19489D01*
X20083Y161000D01*
X22008D01*
G01X17668Y34416D02*
X18878Y35626D01*
X19989D01*
X20583Y35032D01*
X22508D01*
G01X17668Y37616D02*
X18878Y36406D01*
X19989D01*
X20583Y37000D01*
X22508D01*
G01X85000Y136048D02*
X87699D01*
X88049Y136398D01*
Y137151D01*
X86980Y138220D01*
X79220D01*
X75220Y134220D01*
X63680D01*
X55250Y142650D01*
X54900Y143000D01*
X36697D01*
X34320Y145377D01*
Y159780D01*
X33740Y160360D01*
X32760D01*
X31550Y159150D01*
G01X91078Y136049D02*
X89179D01*
X88829Y136399D01*
Y137474D01*
X87303Y139000D01*
X78897D01*
X74897Y135000D01*
X64003D01*
X55223Y143780D01*
X37020D01*
X35100Y145700D01*
Y160103D01*
X34063Y161140D01*
X32760D01*
X31550Y162350D01*
G54D47*
X314004Y62011D03*
Y152011D03*
G54D29*
X66172Y112000D03*
X72828D03*
G54D38*
X150400Y40250D03*
X160400D03*
X246500Y182000D03*
Y192000D03*
X256500Y182000D03*
Y192000D03*
X266500Y182000D03*
Y192000D03*
X276500Y182000D03*
Y192000D03*
X286500Y182000D03*
Y192000D03*
X296500Y182000D03*
Y192000D03*
X306500Y182000D03*
Y192000D03*
X316500Y182000D03*
Y192000D03*
X326500Y182000D03*
Y192000D03*
X336500Y182000D03*
Y192000D03*
X346500Y182000D03*
Y192000D03*
X356500Y182000D03*
Y192000D03*
X366500Y182000D03*
Y192000D03*
X376500Y182000D03*
Y192000D03*
X386500Y182000D03*
Y192000D03*
X396500D03*
G54D57*
G01X-6000Y193000D02*
X-2500D01*
G01X-6000Y197000D02*
X-2500D01*
G01Y188500D02*
Y181500D01*
X-500Y179500D01*
X14500D01*
X16000Y178000D01*
X35500D01*
X38207Y175293D01*
X49807D01*
X59400Y165700D01*
X118800D01*
X124000Y160500D01*
X128126D01*
X128500Y160874D01*
G01X-2500Y193000D02*
Y188500D01*
G01X3957Y27416D02*
X6500Y24872D01*
Y18940D01*
X6940Y18500D01*
X11500D01*
X12000Y19000D01*
Y29000D01*
X14416Y31416D01*
X14518D01*
G01X23035Y68430D02*
X36070D01*
X38000Y66500D01*
X45500D01*
G01X23035Y115004D02*
X29531Y121500D01*
X43000D01*
X45500Y124000D01*
G01X27287Y106264D02*
X32264D01*
X42000Y116000D01*
X45500D01*
G01X31618Y110280D02*
X39338Y118000D01*
X43000D01*
X45500Y120500D01*
G01X40500Y64000D02*
X44500D01*
X51500Y57000D01*
X56000D01*
X60380Y52620D01*
X102591D01*
X105471Y55500D01*
X113000D01*
X117000Y59500D01*
G01X45500Y108000D02*
X41500D01*
G01X45500Y112000D02*
X41500D01*
G01X125500Y167000D02*
Y168569D01*
X124840Y169229D01*
X120559D01*
X118029Y166700D01*
X61800D01*
X50500Y178000D01*
Y187500D01*
X46000Y192000D01*
G01X49960Y28960D02*
X49800Y28800D01*
Y24000D01*
G01X52000Y33000D02*
Y31000D01*
X49960Y28960D01*
G01X50500Y38500D02*
Y34500D01*
X52000Y33000D01*
G01X50500Y44500D02*
X52000D01*
X55000Y47500D01*
X64086D01*
X68266Y51680D01*
X102980D01*
X105300Y54000D01*
X143500D01*
X150919Y61419D01*
Y74705D01*
X160714Y84500D01*
X166500D01*
X168000Y86000D01*
G01X51300Y164500D02*
X78900D01*
X84800Y158600D01*
X89912D01*
X93000Y155512D01*
Y142719D01*
X90468Y140187D01*
G01X402500Y154000D02*
Y156000D01*
X401000Y157500D01*
X392903D01*
X387913Y162491D01*
X346715D01*
X344266Y164940D01*
X328940D01*
X326479Y162479D01*
X286479D01*
X285140Y161140D01*
X257261D01*
X254651Y163750D01*
X225686D01*
X223571Y165865D01*
X205544D01*
X203770Y167639D01*
X174978D01*
X171839Y164500D01*
X159865D01*
X157325Y167040D01*
X134960D01*
X131770Y170230D01*
X120230D01*
X118000Y168000D01*
X62800D01*
X52000Y178800D01*
Y188000D01*
X56000Y192000D01*
G01X55500Y33000D02*
Y30880D01*
X57440Y28940D01*
G01X57000Y38500D02*
Y34500D01*
X55500Y33000D01*
G01X144020Y168560D02*
X135440D01*
X132830Y171170D01*
X118670D01*
X116598Y169098D01*
X68902D01*
X56000Y182000D01*
G01X57440Y28940D02*
X57200Y28700D01*
Y24000D01*
G01X57000Y44500D02*
X62500D01*
X68740Y50740D01*
X103740D01*
X105955Y52955D01*
X143955D01*
X152068Y61068D01*
Y74068D01*
X161000Y83000D01*
X168000D01*
X170000Y85000D01*
Y87000D01*
X168000Y89000D01*
G01X139520Y171250D02*
X138660Y172110D01*
X117610D01*
X115598Y170098D01*
X77902D01*
X66000Y182000D01*
G01X71500Y38500D02*
X78082D01*
X79037Y37546D01*
G01X76000Y182000D02*
X86902Y171098D01*
X114748D01*
X116699Y173050D01*
X143824D01*
X146976Y169898D01*
X162162D01*
X163800Y168260D01*
X170282D01*
X173421Y171399D01*
X206968D01*
X208743Y169625D01*
X225129D01*
X227244Y167510D01*
X250010D01*
X252020Y169520D01*
X256048D01*
X257936Y167632D01*
X261468D01*
X262928Y169092D01*
X271888D01*
X272500Y168480D01*
G01X112650Y27500D02*
Y24000D01*
X106500Y17850D01*
Y10000D01*
X103500Y7000D01*
X86600D01*
X81550Y12050D01*
G01X88000Y31000D02*
Y19000D01*
G01X86000Y37500D02*
X88000Y35500D01*
Y35000D01*
G01X86000Y40500D02*
Y44000D01*
X85750Y44250D01*
G01X84500Y162000D02*
X86800Y159700D01*
X90226D01*
X94000Y155926D01*
Y138156D01*
X97968Y134187D01*
G01X237308Y169030D02*
X235773Y170565D01*
X209132D01*
X207358Y172339D01*
X173031D01*
X169892Y169200D01*
X164227D01*
X162590Y170838D01*
X147366D01*
X144213Y173990D01*
X116310D01*
X114500Y172180D01*
X95820D01*
X86000Y182000D01*
G01X91550Y12050D02*
Y22050D01*
X95150Y25650D01*
Y28500D01*
G01X89500Y162000D02*
X98000Y153500D01*
Y139500D01*
X101813Y135687D01*
X105468D01*
G01X99000Y28500D02*
Y22500D01*
X95500Y19000D01*
G01X95150Y28500D02*
Y30560D01*
X95770Y31180D01*
X121290D01*
X127800Y37690D01*
Y45300D01*
X130820Y48320D01*
X152033D01*
X156662Y52950D01*
Y69463D01*
X171000Y83800D01*
Y95086D01*
X173764Y97850D01*
X203011D01*
X211541Y106380D01*
X212880D01*
G01X93500Y44000D02*
X96000D01*
X98500Y41500D01*
G01Y45500D02*
X95500Y48500D01*
X93500D01*
G01X96998Y126297D02*
Y121502D01*
X99500Y119000D01*
G01X93500Y126200D02*
X93700D01*
X94500Y127000D01*
Y131000D01*
G01X96000Y162000D02*
X99500Y158500D01*
Y150626D01*
X100939Y149187D01*
G01X168977Y170920D02*
X168020D01*
X166222Y172718D01*
X148144D01*
X144992Y175870D01*
X115350D01*
X114000Y174520D01*
X103480D01*
X96000Y182000D01*
G01Y192000D02*
X105000Y201000D01*
X147180D01*
X149000Y199180D01*
G01X160780Y64750D02*
Y51354D01*
X153726Y44300D01*
X134100D01*
X132500Y42700D01*
Y21600D01*
X126500Y15600D01*
Y8700D01*
X124800Y7000D01*
X106500D01*
X101550Y2050D01*
G01X98500Y41500D02*
X100700D01*
X109020Y49820D01*
X151629D01*
X155514Y53705D01*
Y70952D01*
X162500Y77938D01*
Y78500D01*
G01X98500Y48500D02*
X103900D01*
X107310Y51910D01*
X149910D01*
X153216Y55216D01*
Y72642D01*
X154133Y73559D01*
G01X98500Y45500D02*
X102700D01*
X108065Y50865D01*
X150769D01*
X154365Y54461D01*
Y71217D01*
X159500Y76352D01*
Y78500D01*
G01X114428Y119387D02*
X111315Y122500D01*
X105463D01*
X100470Y127493D01*
Y127563D01*
G01X116968Y138687D02*
X113687D01*
X110500Y135500D01*
Y132500D01*
X108187Y130187D01*
X104918D01*
X100939Y134167D01*
X100938D01*
G01X103000Y162000D02*
X103250Y161750D01*
Y147750D01*
X100550Y145050D01*
Y140740D01*
G01X165120Y170920D02*
X164262Y171778D01*
X147755D01*
X144603Y174930D01*
X115910D01*
X114500Y173520D01*
X98980D01*
X98500Y174000D01*
G01X102500Y22500D02*
X102850Y22850D01*
Y28500D01*
G01X177500Y119000D02*
Y116000D01*
X175750Y114250D01*
X153750D01*
X153100Y113600D01*
Y102600D01*
X149000Y98500D01*
X114000D01*
X105500Y107000D01*
G01X114968Y146500D02*
X112500D01*
X109000Y143000D01*
Y136500D01*
X105887Y133387D01*
X104690D01*
X104685Y133382D01*
G01X106500Y162000D02*
X105500Y161000D01*
Y145024D01*
X102500Y142024D01*
G01X143500Y199180D02*
X113180D01*
X106000Y192000D01*
G01X114500Y124500D02*
X114155D01*
X112396Y126259D01*
X106453D01*
G01X357782Y168740D02*
X357062Y169460D01*
X347722D01*
X346602Y170580D01*
X323169D01*
X321809Y169220D01*
X283379D01*
X282219Y168060D01*
X278500D01*
X276452Y170108D01*
X262499D01*
X261139Y168748D01*
X258149D01*
X256384Y170513D01*
X251523D01*
X249460Y168450D01*
X241701D01*
X238646Y171505D01*
X209522D01*
X207369Y173658D01*
X148534D01*
X145381Y176810D01*
X114690D01*
X109500Y182000D01*
X106000D01*
G01X211960Y104340D02*
X210915D01*
X203425Y96850D01*
X174179D01*
X172000Y94671D01*
Y83000D01*
X157811Y68811D01*
Y52194D01*
X152597Y46980D01*
X132180D01*
X129700Y44500D01*
Y37700D01*
X122000Y30000D01*
X113500D01*
X112650Y29150D01*
Y27500D01*
G01X113807Y87807D02*
X111000Y90615D01*
Y94000D01*
G01X122000Y116000D02*
X116665D01*
X116500Y116165D01*
Y128500D01*
X112968Y132032D01*
Y135187D01*
G01X342858Y161540D02*
X330129D01*
X328206Y159617D01*
X296628D01*
X293672Y156660D01*
X253393D01*
X251003Y159050D01*
X226965D01*
X225295Y157380D01*
X213949D01*
X212045Y159285D01*
X200874D01*
X199159Y161000D01*
X177739D01*
X172919Y156180D01*
X160991D01*
X160551Y156620D01*
X143050D01*
X137650Y162020D01*
X131796D01*
X128276Y158500D01*
X124000D01*
X118680Y163820D01*
X114820D01*
X114000Y163000D01*
Y160000D01*
X114800Y159200D01*
Y156500D01*
G01X116500Y27500D02*
Y17500D01*
X117000Y17000D01*
G01X117500Y88000D02*
X119500Y90000D01*
X123520D01*
X123960Y90440D01*
Y94060D01*
X124400Y94500D01*
X125560D01*
X126000Y94060D01*
Y87195D01*
X126440Y86755D01*
X128755D01*
X129500Y87500D01*
Y92500D01*
G01X117000Y94000D02*
Y97060D01*
X117440Y97500D01*
X120193D01*
X120633Y97060D01*
Y96440D01*
X121073Y96000D01*
X121953D01*
X122393Y96440D01*
Y97060D01*
X122833Y97500D01*
X123713D01*
X124153Y97060D01*
Y96440D01*
X124593Y96000D01*
X125473D01*
X125913Y96440D01*
Y97060D01*
X126353Y97500D01*
X127233D01*
X127673Y97060D01*
Y96440D01*
X128113Y96000D01*
X128993D01*
X129433Y96440D01*
Y97060D01*
X129873Y97500D01*
X130753D01*
X131193Y97060D01*
Y96440D01*
X131633Y96000D01*
X132513D01*
X132953Y96440D01*
Y97060D01*
X133393Y97500D01*
X134273D01*
X134713Y97060D01*
Y96440D01*
X135153Y96000D01*
X136033D01*
X136473Y96440D01*
Y97060D01*
X136913Y97500D01*
X138791D01*
X139231Y97060D01*
Y93940D01*
X139671Y93500D01*
X140551D01*
X140991Y93940D01*
Y97060D01*
X141431Y97500D01*
X142311D01*
X142751Y97060D01*
Y93940D01*
X143191Y93500D01*
X144071D01*
X144511Y93940D01*
Y97060D01*
X144951Y97500D01*
X145524D01*
X145964Y97060D01*
Y96440D01*
X146404Y96000D01*
X147284D01*
X147724Y96440D01*
Y97060D01*
X148164Y97500D01*
X149686D01*
X154500Y102314D01*
Y107602D01*
X154940Y108042D01*
X157560D01*
X158000Y108482D01*
Y109362D01*
X157560Y109802D01*
X154940D01*
X154500Y110242D01*
Y112810D01*
X154940Y113250D01*
X155790D01*
X156230Y112810D01*
Y111940D01*
X156670Y111500D01*
X157551D01*
X157990Y111940D01*
Y112810D01*
X158430Y113250D01*
X176750D01*
X177500Y114000D01*
X184000D01*
X185500Y115500D01*
Y125500D01*
X186820Y126820D01*
X206663D01*
X209662Y129820D01*
X231970D01*
X232470Y129320D01*
X239478D01*
X239494Y129304D01*
G01X115000Y100500D02*
X140000D01*
X142000Y102500D01*
G01X118650Y156500D02*
Y160350D01*
X118500Y160500D01*
G01X121550Y12050D02*
Y12150D01*
X131500Y22100D01*
Y43800D01*
X133340Y45640D01*
X153162D01*
X158960Y51438D01*
Y67420D01*
X170040Y78500D01*
X171000D01*
G01X121000Y19000D02*
X120350Y19650D01*
Y27500D01*
G01X120500Y59500D02*
X123000Y57000D01*
X129500D01*
G01X123955Y88000D02*
X122230D01*
X120500Y86270D01*
Y83300D01*
G01D02*
X122970D01*
X123270Y83000D01*
X125500D01*
G01X122000Y116000D02*
Y107000D01*
G01X122500Y156500D02*
X132000D01*
X133500Y155000D01*
Y144500D01*
X135940Y142060D01*
X145235D01*
X152215Y135080D01*
X184080D01*
X185240Y136240D01*
X190340D01*
X191500Y135080D01*
G01X121650Y167000D02*
Y165350D01*
X122500Y164500D01*
X129892D01*
X130552Y165160D01*
X154340D01*
X157000Y162500D01*
X172592D01*
X175792Y165700D01*
X201229D01*
X202945Y163985D01*
X221972D01*
X223237Y162720D01*
G01X162514Y158840D02*
X162174Y158500D01*
X145000D01*
X139600Y163900D01*
X130622D01*
X130222Y163500D01*
X127695D01*
X127000Y162805D01*
G01X380650Y166600D02*
Y169350D01*
X379540Y170460D01*
X348052D01*
X346992Y171520D01*
X322694D01*
X321334Y170160D01*
X282990D01*
X281830Y169000D01*
X279000D01*
X276876Y171124D01*
X262070D01*
X260810Y169864D01*
X258363D01*
X256720Y171507D01*
X251026D01*
X248910Y169390D01*
X242176D01*
X239121Y172445D01*
X209911D01*
X207758Y174598D01*
X148923D01*
X145771Y177750D01*
X130250D01*
X126000Y182000D01*
G01X396500Y166500D02*
Y164500D01*
X395500Y163500D01*
X392000D01*
X390000Y165500D01*
Y168500D01*
X387040Y171460D01*
X348381D01*
X347381Y172460D01*
X322220D01*
X320860Y171100D01*
X282600D01*
X281540Y170040D01*
X279500D01*
X277400Y172140D01*
X261640D01*
X260480Y170980D01*
X258576D01*
X257056Y172500D01*
X250529D01*
X248419Y170390D01*
X243610D01*
X240615Y173385D01*
X210301D01*
X208148Y175538D01*
X149313D01*
X142000Y182850D01*
Y186000D01*
X140000Y188000D01*
X130000D01*
X126000Y192000D01*
G01X128450Y128000D02*
X128500D01*
X131500Y131000D01*
X132500D01*
X134500Y133000D01*
Y139000D01*
X136620Y141120D01*
X144373D01*
X151353Y134140D01*
X185920D01*
X186500Y134720D01*
G01X131500Y128000D02*
X133000Y129500D01*
X138500D01*
G01X132500Y160500D02*
X134707Y158293D01*
Y144707D01*
X136414Y143000D01*
X146096D01*
X149096Y140000D01*
X160500D01*
X163540Y136960D01*
X183301D01*
X184461Y138120D01*
X240860D01*
X243356Y135624D01*
X243357D01*
X244387Y134593D01*
X264058D01*
X266110Y132542D01*
Y115978D01*
G01X166000Y157900D02*
X165220Y157120D01*
X161380D01*
X160940Y157560D01*
X143440D01*
X138040Y162960D01*
X131011D01*
X128925Y160874D01*
X128500D01*
G01X129350Y167000D02*
Y168360D01*
X129790Y168800D01*
X131200D01*
X133900Y166100D01*
X155833D01*
X157500Y164432D01*
G01X156650Y91500D02*
X154730Y89580D01*
Y83730D01*
X149770Y78770D01*
Y62170D01*
X144600Y57000D01*
X135500D01*
G01Y92500D02*
X138291D01*
X138731Y92060D01*
Y89440D01*
X139171Y89000D01*
X140051D01*
X140491Y89440D01*
Y92060D01*
X140931Y92500D01*
X141811D01*
X142251Y92060D01*
Y89440D01*
X142691Y89000D01*
X143665D01*
X144105Y89440D01*
Y91560D01*
X144545Y92000D01*
X145425D01*
X145865Y91560D01*
Y89760D01*
X146305Y89320D01*
X147060D01*
X147500Y89760D01*
Y93900D01*
X159500Y105900D01*
Y111810D01*
X159940Y112250D01*
X168055D01*
X168494Y111810D01*
Y109940D01*
X168934Y109500D01*
X169814D01*
X170255Y109940D01*
Y111810D01*
X170694Y112250D01*
X171574D01*
X172014Y111810D01*
Y109940D01*
X172455Y109500D01*
X173334D01*
X173774Y109940D01*
Y111810D01*
X174214Y112250D01*
X175094D01*
X175535Y111810D01*
Y109940D01*
X175974Y109500D01*
X178500D01*
X179077Y110077D01*
Y110700D01*
X178200Y111577D01*
Y112199D01*
X178822Y112822D01*
X179444D01*
X180322Y111944D01*
X180944D01*
X181250Y112250D01*
X183750D01*
X186500Y115000D01*
Y123000D01*
X189380Y125880D01*
X207137D01*
X210137Y128880D01*
X231580D01*
X231980Y128480D01*
X237020D01*
X237826Y127675D01*
X240716D01*
X241542Y128500D01*
G01X142000Y112500D02*
X138000D01*
X135000Y115500D01*
G01X187880Y152440D02*
X187180Y153140D01*
X156860D01*
X154320Y155680D01*
X141320D01*
X136500Y160500D01*
G01X138500Y129500D02*
Y136000D01*
G01X139650Y149300D02*
Y149000D01*
X139000Y148350D01*
Y144380D01*
X139440Y143940D01*
X146957D01*
X149882Y141015D01*
X160814D01*
X163930Y137900D01*
X182912D01*
X184072Y139060D01*
X241250D01*
X243746Y136564D01*
X244777Y135533D01*
X265301D01*
X266834Y134000D01*
G01X140520Y146400D02*
X142040Y144880D01*
X147819D01*
X150668Y142030D01*
X161445D01*
X164635Y138840D01*
X182522D01*
X183682Y140000D01*
X241639D01*
X245139Y136500D01*
X266500D01*
X269314Y133686D01*
Y127186D01*
X270000Y126500D01*
G01X138305Y154000D02*
X138805Y154500D01*
X149624D01*
X153444Y150680D01*
X163000D01*
G01X253167Y167868D02*
X251869Y166570D01*
X226854D01*
X224739Y168685D01*
X208353D01*
X206579Y170459D01*
X173810D01*
X170671Y167320D01*
X163240D01*
X161602Y168958D01*
X146587D01*
X144294Y171250D01*
X139520D01*
G01X143000Y65500D02*
X145950D01*
G01X175500Y102500D02*
X174000Y101000D01*
X161000D01*
X153790Y93790D01*
Y85790D01*
X148770Y80770D01*
Y68320D01*
X145950Y65500D01*
G01X143000Y69500D02*
X145950D01*
G01X214000Y123000D02*
X212000D01*
X207000Y118000D01*
X191500D01*
X190500Y117000D01*
Y112500D01*
X184180Y106180D01*
X164766D01*
X152850Y94264D01*
Y90000D01*
X150900Y88050D01*
Y84400D01*
X147770Y81270D01*
Y71320D01*
X145950Y69500D01*
G01X143000Y73000D02*
X145450D01*
X145950Y73500D01*
G01X143000Y80500D02*
Y83600D01*
G01X196000Y121000D02*
X192900D01*
X189000Y117100D01*
Y112926D01*
X183254Y107180D01*
X163680D01*
X149800Y93300D01*
Y92300D01*
X150240Y91860D01*
X151060D01*
X151500Y91420D01*
Y90540D01*
X151060Y90100D01*
X150240D01*
X149800Y89660D01*
Y84800D01*
X147500Y82500D01*
X145426D01*
X144326Y83600D01*
X143000D01*
G01X146100Y84400D02*
X148700Y87000D01*
Y93700D01*
X165000Y110000D01*
X166000D01*
G01X142000Y112500D02*
Y119000D01*
G01X236500Y132705D02*
X234965Y134240D01*
X204970D01*
X202251Y131520D01*
X189298D01*
X188558Y132260D01*
X150760D01*
X148000Y129500D01*
X144500D01*
G01Y136000D02*
X147300Y133200D01*
X188947D01*
X189687Y132460D01*
X201041D01*
X201852Y133271D01*
G01X271500Y128500D02*
X270500Y129500D01*
Y134079D01*
X266963Y137617D01*
X245352D01*
X242029Y140940D01*
X183293D01*
X182133Y139780D01*
X165025D01*
X161760Y143045D01*
X151455D01*
X148100Y146400D01*
X144000D01*
G01X143500Y149300D02*
Y152242D01*
X143045Y152697D01*
Y152742D01*
G01X145425D02*
X146183Y153500D01*
X149294D01*
X153634Y149160D01*
X177773D01*
X179434Y147499D01*
X186342D01*
X189141Y144700D01*
X243586D01*
X245587Y142699D01*
X247281D01*
G01X215205Y160933D02*
X214033Y162105D01*
X202042D01*
X200327Y163820D01*
X176571D01*
X173311Y160560D01*
X161560D01*
X160500Y159500D01*
X147000D01*
X146150Y160350D01*
Y162000D01*
G01X150000D02*
Y163780D01*
X149560Y164220D01*
X144674D01*
X143571Y163118D01*
G01X255524Y166348D02*
X254806Y165630D01*
X226465D01*
X224350Y167745D01*
X207964D01*
X206189Y169519D01*
X174200D01*
X171060Y166380D01*
X162850D01*
X161212Y168018D01*
X144562D01*
X144020Y168560D01*
G01X244000Y128500D02*
X243833D01*
X241409Y130924D01*
X238339D01*
X237575Y130160D01*
X232959D01*
X232359Y130760D01*
X209188D01*
X206188Y127760D01*
X187740D01*
X187000Y128500D01*
X160500D01*
X158956Y126956D01*
Y125540D01*
X158516Y125100D01*
X153440D01*
X153000Y124660D01*
Y122154D01*
X153440Y121714D01*
X158516D01*
X158956Y121274D01*
Y120394D01*
X158516Y119954D01*
X153440D01*
X153000Y119514D01*
Y118634D01*
X153440Y118194D01*
X158516D01*
X158956Y117754D01*
Y116440D01*
X158516Y116000D01*
X153700D01*
X151600Y113900D01*
Y109178D01*
X151160Y108738D01*
X146740D01*
X146300Y108298D01*
Y107418D01*
X146740Y106978D01*
X151160D01*
X151600Y106538D01*
Y103100D01*
X151000Y102500D01*
X148000D01*
G01Y112500D02*
Y113500D01*
X151500Y117000D01*
Y126000D01*
X155880Y130380D01*
X187779D01*
X188519Y129640D01*
X205140D01*
X208140Y132640D01*
X234100D01*
X234120Y132620D01*
G01X148000Y119000D02*
Y124970D01*
X154350Y131320D01*
X188168D01*
X188908Y130580D01*
X203740D01*
X204320Y131160D01*
G01X147350Y149300D02*
Y149203D01*
X151053Y145500D01*
X155000D01*
G01X148510Y151980D02*
X149485D01*
X153245Y148220D01*
X172780D01*
X174500Y146500D01*
G01X150153Y149022D02*
X152155Y147020D01*
X160194D01*
X160214Y147000D01*
X170500D01*
X171000Y146500D01*
G01X245988Y173613D02*
X244336Y175265D01*
X211406D01*
X209253Y177418D01*
X159312D01*
X158053Y178678D01*
X154678D01*
X153730Y177730D01*
X149270D01*
X147500Y179500D01*
G01X253720Y100031D02*
Y100645D01*
X249266Y105100D01*
X240400D01*
X236000Y109500D01*
X230982D01*
X226982Y105500D01*
X216074D01*
X213574Y108000D01*
X211746D01*
X202706Y98960D01*
X171960D01*
X166750Y93750D01*
Y90324D01*
X162426Y86000D01*
X159640D01*
X152640Y79000D01*
G01X265170Y116670D02*
Y132152D01*
X263729Y133593D01*
X244058D01*
X242967Y134684D01*
X240471Y137180D01*
X184851D01*
X183691Y136020D01*
X161973D01*
X159993Y138000D01*
X153427D01*
G01X255480Y151380D02*
X254900Y150800D01*
X248122D01*
X244572Y154350D01*
X228912D01*
X227242Y152680D01*
X215412D01*
X212132Y149400D01*
X195600D01*
X194080Y150920D01*
X184080D01*
X182800Y152200D01*
X154073D01*
X152810Y153464D01*
G01X153850Y162000D02*
X154350Y161500D01*
X172922D01*
X176182Y164760D01*
X200840D01*
X202555Y163045D01*
X216275D01*
X218120Y161200D01*
X225127D01*
X225797Y161870D01*
X252992D01*
X253781Y161081D01*
G01X289533Y201528D02*
X288013Y203048D01*
X160048D01*
X156500Y199500D01*
Y186750D01*
X151750Y182000D01*
G01X159500Y47500D02*
X162600Y50600D01*
Y68659D01*
X167500Y73559D01*
X168000D01*
G01X164350Y91500D02*
Y89350D01*
X162500Y87500D01*
X156350D01*
G01X160500Y91500D02*
Y94200D01*
X158650Y96050D01*
G01X156200Y127000D02*
Y127320D01*
X158320Y129440D01*
X187389D01*
X188129Y128700D01*
X205714D01*
X208714Y131700D01*
X232749D01*
X233449Y131000D01*
X237086D01*
X237950Y131864D01*
X241799D01*
X243543Y130120D01*
X247034D01*
X247181Y129973D01*
G01X157500Y164432D02*
X158432Y163500D01*
X172169D01*
X175309Y166640D01*
X202619D01*
X203140Y166119D01*
G01X249320Y173440D02*
X247210Y171330D01*
X244670D01*
X241675Y174325D01*
X210690D01*
X208537Y176478D01*
X156080D01*
X155500Y177058D01*
G01X160000Y18500D02*
Y-3200D01*
X163550Y-6750D01*
X301750D01*
X308450Y-50D01*
Y8750D01*
X317200Y17500D01*
X343000D01*
X347000Y13500D01*
G01X162500Y-3000D02*
Y18914D01*
X170220Y26634D01*
Y65442D01*
X178100Y73322D01*
Y76556D01*
X185038Y83494D01*
X197772D01*
X198850Y84571D01*
Y86800D01*
G01X170800Y142400D02*
X169980Y143220D01*
X165558D01*
X163878Y144900D01*
Y145000D01*
G01X286180Y144053D02*
X284900Y142773D01*
X275727D01*
X273700Y144800D01*
X261596D01*
X261016Y144220D01*
X245396D01*
X243976Y145640D01*
X189530D01*
X186732Y148439D01*
X180061D01*
X177820Y150680D01*
X163000D01*
G01Y154660D02*
X172729D01*
X178129Y160060D01*
X198769D01*
X200485Y158345D01*
X211655D01*
X213560Y156440D01*
X225684D01*
X227354Y158110D01*
X246129D01*
X248454Y155786D01*
X251049D01*
X252055Y154780D01*
X267765D01*
X268925Y153620D01*
X271620D01*
X273620Y155620D01*
X294046D01*
X297103Y158677D01*
X371302D01*
X371516Y158891D01*
G01X162514Y158840D02*
Y158966D01*
X163168Y159620D01*
X173700D01*
X176960Y162880D01*
X199938D01*
X201653Y161165D01*
X212823D01*
X214728Y159260D01*
X224516D01*
X226186Y160930D01*
X251782D01*
X253452Y159260D01*
X287940D01*
X288000Y159320D01*
G01X160500Y166298D02*
X161358Y165440D01*
X171450D01*
X174589Y168579D01*
X204980D01*
X206030Y167529D01*
G01X171850Y2050D02*
X167950D01*
X164250Y5750D01*
Y19050D01*
X171260Y26060D01*
Y65068D01*
X179180Y72988D01*
Y76222D01*
X185452Y82494D01*
X198994D01*
X205900Y89400D01*
Y91500D01*
G01X208000Y88850D02*
X200644Y81494D01*
X185866D01*
X180180Y75807D01*
Y72574D01*
X172300Y64694D01*
Y25374D01*
X165500Y18574D01*
Y9500D01*
X168000Y7000D01*
X176900D01*
X181850Y2050D01*
G01X167500Y18000D02*
X173340Y23840D01*
Y64320D01*
X181180Y72160D01*
Y75393D01*
X186281Y80494D01*
X204310D01*
X208026Y84210D01*
G01X251689Y106000D02*
X250689Y107000D01*
X241333D01*
X236667Y111666D01*
Y125833D01*
X236000Y126500D01*
X230500D01*
X230000Y127000D01*
X211086D01*
X208086Y124000D01*
X194170D01*
X188000Y117830D01*
Y114300D01*
X184520Y110820D01*
X181746D01*
X179106Y108180D01*
X167820D01*
X166000Y110000D01*
G01X174650Y142400D02*
Y143969D01*
X173839Y144780D01*
X168220D01*
X168000Y145000D01*
G01X166000Y157900D02*
X173310D01*
X177350Y161940D01*
X199548D01*
X201264Y160225D01*
X212434D01*
X214339Y158320D01*
X224905D01*
X226576Y159990D01*
X251393D01*
X253783Y157600D01*
X292600D01*
X295599Y160599D01*
X327774D01*
X330235Y163060D01*
X343487D01*
X345937Y160611D01*
X385889D01*
X390500Y156000D01*
G01X171850Y12050D02*
X174500Y14700D01*
Y41500D01*
X184000Y51000D01*
Y57500D01*
X183500Y58000D01*
X181000D01*
G01X195500Y93200D02*
X192850Y95850D01*
X174650D01*
X173000Y94200D01*
Y75500D01*
X171000Y73500D01*
G01X181000Y54150D02*
X177440D01*
X177000Y54590D01*
Y66065D01*
X186300Y75365D01*
Y77420D01*
G01X195000Y86800D02*
Y85500D01*
X194000Y84500D01*
X184630D01*
X179130Y79000D01*
X177000D01*
G01X174500Y146500D02*
X176380Y144620D01*
X179391D01*
X180390Y145619D01*
X185563D01*
X188362Y142820D01*
X242807D01*
X245748Y139880D01*
X267358D01*
X273238Y134000D01*
X275934D01*
X277329Y135394D01*
X279380D01*
X280000Y134774D01*
G01X181850Y12050D02*
X178400Y15500D01*
Y35400D01*
X179000Y36000D01*
X181000D01*
G01Y32150D02*
Y25000D01*
X186500Y19500D01*
Y-3000D01*
X189250Y-5750D01*
X300050D01*
X304100Y-1700D01*
G01X181000Y39850D02*
X185500Y44350D01*
Y71100D01*
X192794Y78394D01*
X200606D01*
X202500Y76500D01*
X205930D01*
X208000Y78570D01*
G01X181000Y61850D02*
Y68351D01*
X192143Y79494D01*
X203476D01*
X204500Y78470D01*
G01X181500Y102500D02*
X187934D01*
X194228Y108795D01*
X203795D01*
X213000Y118000D01*
X223000D01*
X224829Y119829D01*
Y120120D01*
G01X178500Y142400D02*
X180779Y144679D01*
X185174D01*
X187973Y141880D01*
X242418D01*
X245498Y138800D01*
X267109D01*
X273754Y132155D01*
X281912D01*
X284717Y134960D01*
X323646D01*
X324166Y134440D01*
G01X178000Y146500D02*
X179500D01*
X179559Y146559D01*
X185953D01*
X188752Y143760D01*
X243197D01*
X246137Y140820D01*
X267748D01*
X273568Y135000D01*
X275520D01*
X276931Y136411D01*
X278420D01*
X280889Y138880D01*
X290642D01*
X292338Y140577D01*
G01X332530Y144970D02*
X332060Y144500D01*
X302743D01*
X302043Y145200D01*
X289462D01*
X288049Y146613D01*
X285119D01*
X283200Y144693D01*
X277140D01*
X275153Y146680D01*
X260487D01*
X259907Y146100D01*
X246175D01*
X244755Y147520D01*
X192592D01*
X190612Y149500D01*
X181829D01*
X181000Y150329D01*
G01X181450Y156400D02*
Y154520D01*
X181890Y154080D01*
X189000D01*
X191080Y152000D01*
X194329D01*
X195989Y150340D01*
X211743D01*
X215023Y153620D01*
X226853D01*
X228523Y155290D01*
X244961D01*
X247931Y152320D01*
X249307D01*
G01X185300Y156400D02*
Y158480D01*
X184860Y158920D01*
X179421D01*
X178448Y157946D01*
G01X186500Y199720D02*
Y187000D01*
X181750Y182250D01*
Y182000D01*
G01X190000Y18500D02*
X187500Y16000D01*
Y-1200D01*
X191050Y-4750D01*
X298250D01*
X306200Y3200D01*
Y8586D01*
X316114Y18500D01*
X345500D01*
X347000Y17000D01*
G01X191500Y36000D02*
X189000D01*
X188500Y35500D01*
Y28500D01*
X192500Y24500D01*
Y12700D01*
X191850Y12050D01*
G01X191500Y39850D02*
X187000Y44350D01*
Y68250D01*
X194324Y75574D01*
X194676D01*
G01X191500Y54300D02*
X189700D01*
X188500Y55500D01*
Y66500D01*
X197500Y75500D01*
X207000D01*
X210000Y72500D01*
Y71570D01*
G01X195500Y103000D02*
X191250D01*
X189250Y101000D01*
G01X196000Y114500D02*
X190140Y108640D01*
Y107280D01*
G01X288465Y144053D02*
Y144060D01*
X286851Y145673D01*
X285509D01*
X283549Y143713D01*
X276454D01*
X274427Y145740D01*
X261122D01*
X260541Y145160D01*
X245785D01*
X244365Y146580D01*
X191382D01*
X190481Y147481D01*
G01X189150Y156400D02*
X189220Y156470D01*
X193690D01*
X195500Y154660D01*
G01X228360Y-1280D02*
Y-1921D01*
X226531Y-3750D01*
X197750D01*
X191950Y2050D01*
X191850D01*
G01X191500Y32150D02*
Y29000D01*
X197000Y23500D01*
Y0D01*
X199750Y-2750D01*
X223250D01*
X227000Y1000D01*
X230000D01*
X234000Y-3000D01*
X257000D01*
G01X191500Y58150D02*
X194350D01*
X195250Y57250D01*
Y44250D01*
X198500Y41000D01*
Y27000D01*
X201850Y23650D01*
Y12050D01*
G01X191500Y62000D02*
Y64250D01*
X196750Y69500D01*
G01X191150Y86800D02*
Y88650D01*
X192000Y89500D01*
X200500D01*
X201500Y90500D01*
Y93200D01*
G01X203200Y103000D02*
Y101200D01*
X202500Y100500D01*
X193240D01*
X192800Y100940D01*
G01X193000Y115700D02*
X194100Y116800D01*
X199410D01*
X199850Y116360D01*
Y114500D01*
G01X191180Y123442D02*
X192678Y124940D01*
X207611D01*
X210611Y127940D01*
X231191D01*
X231491Y127640D01*
X236672D01*
X237577Y126735D01*
X247286D01*
X249750Y129199D01*
X257308D01*
X260009Y131900D01*
X261000D01*
G01X191500Y135080D02*
X193180Y133400D01*
X198900D01*
X200680Y135180D01*
X239812D01*
X242188Y132804D01*
X243399Y131593D01*
X248407D01*
X249801Y130199D01*
X256016D01*
X257760Y131942D01*
G01X255500Y131973D02*
X254880Y132593D01*
X243728D01*
X242578Y133744D01*
X242577D01*
X240201Y136120D01*
X195620D01*
X194500Y135000D01*
G01X340000Y146500D02*
X339910Y146590D01*
X331859D01*
X330769Y145500D01*
X303157D01*
X299157Y149500D01*
X259000D01*
X258420Y148920D01*
X247343D01*
X243793Y152470D01*
X229691D01*
X226861Y149640D01*
X218860D01*
X217700Y150800D01*
X216300D01*
X213960Y148460D01*
X194140D01*
X193200Y149400D01*
G01X192250Y154750D02*
X194060Y152940D01*
X195060D01*
X196720Y151280D01*
X211354D01*
X214634Y154560D01*
X226463D01*
X228133Y156230D01*
X245351D01*
X247675Y153906D01*
X250159D01*
X251165Y152900D01*
X266327D01*
X267727Y151500D01*
X301000D01*
X304900Y147600D01*
X328260D01*
X329000Y148340D01*
Y152900D01*
X332400Y156300D01*
X367871D01*
X369500Y154671D01*
Y149000D01*
X371000Y147500D01*
X377983D01*
X381083Y144400D01*
X396500D01*
X398863Y142037D01*
X401037D01*
X405574Y137500D01*
X431024D01*
X437000Y131524D01*
G01X203000Y32150D02*
X200850D01*
X200000Y33000D01*
Y43500D01*
X197500Y46000D01*
Y67000D01*
X199000Y68500D01*
Y70000D01*
X197500Y71500D01*
Y73500D01*
X198500Y74500D01*
X200000D01*
X202000Y72500D01*
G01X203000Y39850D02*
Y44000D01*
X199000Y48000D01*
Y64717D01*
X199963Y65680D01*
G01X203000Y54300D02*
X201200D01*
X200500Y55000D01*
Y63643D01*
X202000Y65143D01*
Y69850D01*
X199350Y72500D01*
G01Y103000D02*
Y105850D01*
X200500Y107000D01*
X204000D01*
X214000Y117000D01*
X230517D01*
X235046Y121529D01*
Y121641D01*
G01X200650Y155800D02*
X196640D01*
X195500Y154660D01*
G01X221750Y192000D02*
X216750Y187000D01*
X199000D01*
X197450Y185450D01*
Y179250D01*
G01X201850Y2050D02*
X206300Y6500D01*
X224000D01*
X227000Y9500D01*
Y13500D01*
X223500Y17000D01*
X216814D01*
X209500Y24314D01*
Y66000D01*
X204652Y70848D01*
Y72500D01*
G01X203000Y36000D02*
X205000D01*
X206000Y35000D01*
Y23000D01*
X211850Y17150D01*
Y12050D01*
G01X203000Y58150D02*
X206850D01*
X208000Y57000D01*
Y24400D01*
X220350Y12050D01*
X221850D01*
G01X203000Y62000D02*
Y64500D01*
X204000Y65500D01*
G01X211209Y101691D02*
X202718Y93200D01*
X201500D01*
G01X203700Y114500D02*
X206000D01*
X211500Y120000D01*
X221000D01*
X223880Y122880D01*
X228171D01*
X229349Y124058D01*
X232058D01*
X233000Y125000D01*
X233049D01*
G01X199850Y114500D02*
Y112650D01*
X201000Y111500D01*
X204414D01*
X211914Y119000D01*
X221414D01*
X224294Y121880D01*
X232597D01*
X234558Y123841D01*
X235047D01*
G01X202000Y121000D02*
X204479D01*
X204919Y121440D01*
Y122560D01*
X205359Y123000D01*
X206239D01*
X206679Y122560D01*
Y121440D01*
X207119Y121000D01*
X208000D01*
X213020Y126020D01*
X226084D01*
X227552Y124552D01*
G01X437000Y151524D02*
X432476Y147000D01*
X420300D01*
X415800Y151500D01*
X394926D01*
X392500Y153926D01*
Y156574D01*
X387523Y161551D01*
X346326D01*
X343877Y164000D01*
X329760D01*
X327300Y161539D01*
X286868D01*
X285529Y160200D01*
X256812D01*
X254202Y162810D01*
X225296D01*
X223182Y164925D01*
X204334D01*
X203140Y166119D01*
G01X201750Y182000D02*
X206000D01*
X211795Y176205D01*
X245295D01*
X245600Y175900D01*
X314940D01*
X315520Y176480D01*
G01X228500Y197500D02*
X207250D01*
X201750Y192000D01*
G01X219326Y19000D02*
X216229D01*
X210500Y24729D01*
Y68066D01*
X207252Y71314D01*
Y72500D01*
G01X351000Y18500D02*
X350000Y19500D01*
X315700D01*
X302700Y6500D01*
X235500D01*
X221180Y20820D01*
X215823D01*
X211820Y24823D01*
Y72324D01*
X209820Y74324D01*
Y79324D01*
X208644Y80500D01*
X206500D01*
X204500Y78500D01*
Y78470D01*
G01Y155800D02*
Y153320D01*
X205020Y152800D01*
G01X208350Y155800D02*
X210650D01*
X211350Y156500D01*
G01X406350Y154000D02*
Y157650D01*
X404000Y160000D01*
X392659D01*
X389228Y163431D01*
X347105D01*
X344655Y165880D01*
X328086D01*
X325766Y163560D01*
X285865D01*
X284385Y162080D01*
X257650D01*
X255040Y164690D01*
X226075D01*
X223960Y166805D01*
X206754D01*
X206030Y167529D01*
G01X216250Y22967D02*
X213000Y26217D01*
Y72558D01*
X210820Y74738D01*
Y91980D01*
X208800Y94000D01*
Y96991D01*
X214309Y102500D01*
X227400D01*
X228500Y101400D01*
Y96640D01*
X230280Y94860D01*
X242140D01*
X243000Y94000D01*
X255520D01*
X256010Y94490D01*
G01X216000Y97052D02*
X213463D01*
X212010Y95599D01*
Y75152D01*
X214200Y72962D01*
Y34800D01*
X215893Y33107D01*
Y28421D01*
X233314Y11000D01*
X235000D01*
G01X404858Y42600D02*
X399758Y37500D01*
X363926D01*
X347926Y21500D01*
X314600D01*
X309100Y16000D01*
X304581D01*
X304141Y15560D01*
Y12640D01*
X303701Y12200D01*
X302821D01*
X302381Y12640D01*
Y15560D01*
X301941Y16000D01*
X301061D01*
X300621Y15560D01*
Y12640D01*
X300181Y12200D01*
X299301D01*
X298861Y12640D01*
Y15560D01*
X298321Y16100D01*
X238100D01*
X236833Y14833D01*
X230896D01*
X216893Y28835D01*
Y33907D01*
X215200Y35600D01*
Y73377D01*
X213010Y75567D01*
Y94273D01*
X214169Y95432D01*
G01X218650Y99100D02*
X215600D01*
X215000Y98500D01*
X212992D01*
X210420Y95928D01*
G01X255626Y96100D02*
X255600D01*
X254350Y94850D01*
X243650D01*
X242640Y95860D01*
X230695D01*
X229500Y97055D01*
Y102000D01*
X228000Y103500D01*
X213411D01*
X211602Y101691D01*
X211209D01*
G01X251737Y98063D02*
Y101356D01*
X248893Y104200D01*
X239800D01*
X235500Y108500D01*
X231396D01*
X227396Y104500D01*
X215660D01*
X213780Y106380D01*
X212880D01*
G01X305500Y151500D02*
X304420Y152580D01*
X267976D01*
X266716Y153840D01*
X251666D01*
X250660Y154846D01*
X248064D01*
X245740Y157170D01*
X227744D01*
X226074Y155500D01*
X212350D01*
X211350Y156500D01*
G01X347000Y23320D02*
X337820D01*
X337000Y22500D01*
X314100D01*
X308600Y17000D01*
X237500D01*
X236540Y16040D01*
X231103D01*
X217893Y29250D01*
Y34321D01*
X216200Y36014D01*
Y73791D01*
X214010Y75981D01*
Y91541D01*
X214630Y92161D01*
G01X218028Y96097D02*
X216520Y94590D01*
Y91760D01*
X215010Y90250D01*
Y76395D01*
X218893Y72512D01*
Y70805D01*
X218453Y70365D01*
X217840D01*
X217400Y69925D01*
Y69045D01*
X217840Y68605D01*
X218453D01*
X218893Y68165D01*
Y67285D01*
X218453Y66845D01*
X217840D01*
X217400Y66405D01*
Y65525D01*
X217840Y65085D01*
X218453D01*
X218893Y64645D01*
Y63765D01*
X218453Y63325D01*
X217840D01*
X217400Y62885D01*
Y62005D01*
X217840Y61565D01*
X218453D01*
X218893Y61125D01*
Y60245D01*
X218453Y59805D01*
X217840D01*
X217400Y59365D01*
Y58485D01*
X217840Y58045D01*
X218453D01*
X218893Y57605D01*
Y56725D01*
X218453Y56285D01*
X217840D01*
X217400Y55845D01*
Y54965D01*
X217840Y54525D01*
X218453D01*
X218893Y54085D01*
Y53205D01*
X218453Y52765D01*
X217840D01*
X217400Y52325D01*
Y51445D01*
X217840Y51005D01*
X218453D01*
X218893Y50565D01*
Y49685D01*
X218453Y49245D01*
X217840D01*
X217400Y48805D01*
Y47925D01*
X217840Y47485D01*
X218453D01*
X218893Y47045D01*
Y46165D01*
X218453Y45725D01*
X217840D01*
X217400Y45285D01*
Y44405D01*
X217840Y43965D01*
X218453D01*
X218893Y43525D01*
Y42645D01*
X218453Y42205D01*
X217840D01*
X217400Y41765D01*
Y40885D01*
X217840Y40445D01*
X218453D01*
X218893Y40005D01*
Y39125D01*
X218453Y38685D01*
X217840D01*
X217400Y38245D01*
Y37365D01*
X217840Y36925D01*
X218453D01*
X218893Y36485D01*
Y29664D01*
X230697Y17860D01*
X235607D01*
G01X233074Y21500D02*
X229886D01*
X220893Y30493D01*
Y45774D01*
X221333Y46214D01*
X224260D01*
X224700Y46654D01*
Y47534D01*
X224260Y47974D01*
X221333D01*
X220893Y48414D01*
Y49294D01*
X221333Y49734D01*
X224260D01*
X224700Y50174D01*
Y51054D01*
X224260Y51494D01*
X221333D01*
X220893Y51934D01*
Y52814D01*
X221333Y53254D01*
X224260D01*
X224700Y53694D01*
Y54574D01*
X224260Y55014D01*
X221333D01*
X220893Y55454D01*
Y56334D01*
X221333Y56774D01*
X224260D01*
X224700Y57214D01*
Y58094D01*
X224260Y58534D01*
X221333D01*
X220893Y58974D01*
Y59854D01*
X221333Y60294D01*
X224260D01*
X224700Y60734D01*
Y61614D01*
X224260Y62054D01*
X221333D01*
X220893Y62494D01*
Y63374D01*
X221333Y63814D01*
X224260D01*
X224700Y64254D01*
Y65134D01*
X224260Y65574D01*
X221333D01*
X220893Y66014D01*
Y66894D01*
X221333Y67334D01*
X224260D01*
X224700Y67774D01*
Y68654D01*
X224260Y69094D01*
X221333D01*
X220893Y69534D01*
Y73341D01*
X217010Y77224D01*
Y89421D01*
X219760Y92171D01*
Y95396D01*
X220500Y96136D01*
G01X347000Y27000D02*
X346200Y26200D01*
X337467D01*
X335867Y24600D01*
X313044D01*
X307444Y19000D01*
X237500D01*
X236820Y19680D01*
X230292D01*
X219893Y30078D01*
Y72926D01*
X216010Y76810D01*
Y89835D01*
X218140Y91965D01*
Y93500D01*
G01X222500Y99100D02*
Y101000D01*
X222000Y101500D01*
X215600D01*
X214600Y100500D01*
G01X213500Y111000D02*
Y109488D01*
X216488Y106500D01*
X226567D01*
X230777Y110710D01*
X236209D01*
X240919Y106000D01*
X249638D01*
X251738Y103900D01*
X253657D01*
G01X237000Y150500D02*
X236500Y151000D01*
X229550D01*
X227250Y148700D01*
X217580D01*
X217000Y149280D01*
G01X286500Y182000D02*
X282680Y178180D01*
X241320D01*
X239000Y180500D01*
X234500D01*
X231725Y177725D01*
X214220D01*
G01X218630Y88750D02*
Y77018D01*
X226424Y69224D01*
Y27076D01*
X230000Y23500D01*
X235829D01*
X238329Y21000D01*
X306333D01*
X312133Y26800D01*
X334955D01*
X336455Y28300D01*
X343780D01*
X345300Y29820D01*
X349328D01*
X351680Y32172D01*
G01X348000Y32000D02*
X346066D01*
X343466Y29400D01*
X336141D01*
X334641Y27900D01*
X311677D01*
X305777Y22000D01*
X238743D01*
X236243Y24500D01*
X231500D01*
X227932Y28068D01*
Y69131D01*
X220250Y76813D01*
Y88750D01*
X221380Y89880D01*
Y94120D01*
G01X239500Y23620D02*
X237620Y25500D01*
X232500D01*
X229500Y28500D01*
Y52493D01*
X229940Y52933D01*
X232699D01*
X233139Y53373D01*
Y54373D01*
X232699Y54813D01*
X229840D01*
X229400Y55253D01*
Y56133D01*
X229840Y56573D01*
X232699D01*
X233139Y57013D01*
Y57893D01*
X232699Y58333D01*
X229840D01*
X229400Y58773D01*
Y59653D01*
X229840Y60093D01*
X232699D01*
X233139Y60533D01*
Y61413D01*
X232699Y61853D01*
X229840D01*
X229400Y62293D01*
Y63173D01*
X229840Y63613D01*
X232699D01*
X233139Y64053D01*
Y65338D01*
X232152Y66325D01*
X231530D01*
X230514Y65308D01*
X229892D01*
X229319Y65881D01*
Y66603D01*
X230286Y67569D01*
Y68192D01*
X221250Y77227D01*
Y88164D01*
X223000Y89914D01*
Y96100D01*
G01X225240Y124500D02*
X223500D01*
X222000Y123000D01*
X220000D01*
G01X221750Y182000D02*
X226000Y186250D01*
Y191830D01*
X230500Y196330D01*
Y200500D01*
X232108Y202108D01*
X283892D01*
X285892Y200108D01*
X292471D01*
X295303Y202940D01*
X393889D01*
X397329Y199500D01*
X399500D01*
G01X227443Y95320D02*
X226000Y93877D01*
Y89250D01*
X223250Y86500D01*
Y78056D01*
X235902Y65403D01*
Y51298D01*
X241000Y46200D01*
Y28000D01*
X242200Y26800D01*
X250320D01*
X251500Y25620D01*
G01X248000Y25180D02*
X240320D01*
X238500Y27000D01*
X233000D01*
X231000Y29000D01*
Y48500D01*
X234446Y51946D01*
Y65445D01*
X222250Y77641D01*
Y87750D01*
X224500Y90000D01*
Y95201D01*
X225378Y96079D01*
G01X226350Y99100D02*
Y97051D01*
X225378Y96079D01*
G01X223260Y151160D02*
X227051D01*
X229301Y153410D01*
X244182D01*
X247732Y149860D01*
X257360D01*
X258000Y150500D01*
X300000D01*
X304000Y146500D01*
X330354D01*
X331444Y147590D01*
X337590D01*
X342011Y152011D01*
X344004D01*
G01X294500Y146820D02*
X293767Y147553D01*
X284730D01*
X282870Y145693D01*
X277807D01*
X275880Y147620D01*
X260088D01*
X259508Y147040D01*
X246564D01*
X245144Y148460D01*
X230800D01*
X229980Y149280D01*
G01X229820Y179606D02*
X228160Y181266D01*
Y188160D01*
X230793Y190793D01*
Y193428D01*
X238025Y200660D01*
X282340D01*
X283732Y199268D01*
X292819D01*
X295551Y202000D01*
X393500D01*
X402000Y193500D01*
Y187500D01*
X396500Y182000D01*
G01X376500Y192000D02*
Y195000D01*
X371500Y200000D01*
X299586D01*
X296333Y196748D01*
X279252D01*
X277280Y198720D01*
X241232D01*
X229980Y187468D01*
Y187054D01*
G01X232967Y198160D02*
Y197467D01*
X228180Y192680D01*
Y191500D01*
G01X235000Y11000D02*
X238500Y7500D01*
X302286D01*
X315286Y20500D01*
X349500D01*
X351000Y22000D01*
G01X233074Y21500D02*
X236414D01*
X237914Y20000D01*
X306889D01*
X312589Y25700D01*
X335411D01*
X337011Y27300D01*
X344580D01*
X346100Y28820D01*
X352417D01*
X363297Y39700D01*
X380000D01*
X383000Y42700D01*
G01X427000Y81524D02*
Y81523D01*
X422727Y77250D01*
X399000D01*
X395637Y80613D01*
X378219D01*
X375148Y77542D01*
X348542D01*
X346266Y75266D01*
X306766D01*
X304970Y73470D01*
X235830D01*
X234930Y72570D01*
G01X336500Y192000D02*
X332500Y188000D01*
X262500D01*
X261000Y189500D01*
Y194120D01*
X259220Y195900D01*
X244814D01*
X242500Y193586D01*
Y191376D01*
X237524Y186400D01*
X234906D01*
G01X266500Y182000D02*
X263500D01*
X259500Y186000D01*
X244300D01*
X241869Y183569D01*
X231994D01*
G01X266500Y192000D02*
X261660Y196840D01*
X244340D01*
X241500Y194000D01*
Y191790D01*
X239310Y189600D01*
X234686D01*
G01X233439Y193500D02*
X239599Y199660D01*
X277840D01*
X279912Y197588D01*
X295759D01*
X299171Y201000D01*
X387500D01*
X396500Y192000D01*
G01X235607Y17860D02*
X235747Y18000D01*
X308000D01*
X313500Y23500D01*
X336181D01*
X337821Y25140D01*
X350152D01*
X363512Y38500D01*
X385762D01*
X386202Y38940D01*
Y43460D01*
X386642Y43900D01*
X387522D01*
X387962Y43460D01*
Y38940D01*
X388402Y38500D01*
X390060D01*
X390500Y38940D01*
Y42500D01*
G01X374500D02*
X374200Y42200D01*
X371992D01*
X371552Y41760D01*
Y41340D01*
X371112Y40900D01*
X370232D01*
X369792Y41340D01*
Y41760D01*
X369352Y42200D01*
X368472D01*
X368032Y41760D01*
Y41340D01*
X367592Y40900D01*
X366712D01*
X366272Y41340D01*
Y41760D01*
X365832Y42200D01*
X364952D01*
X364512Y41760D01*
Y41340D01*
X364072Y40900D01*
X363192D01*
X362752Y41340D01*
Y41760D01*
X362312Y42200D01*
X361300D01*
X360693Y41593D01*
Y40971D01*
X361521Y40143D01*
Y39521D01*
X360898Y38898D01*
X360276D01*
X359448Y39726D01*
X358826D01*
X358204Y39104D01*
Y38482D01*
X359032Y37654D01*
Y37032D01*
X358409Y36409D01*
X357787D01*
X356959Y37237D01*
X356337D01*
X355714Y36615D01*
Y35992D01*
X356542Y35164D01*
Y34542D01*
X355361Y33361D01*
X354739D01*
X353600Y34500D01*
X347429D01*
X346989Y34060D01*
Y33740D01*
X346549Y33300D01*
X345669D01*
X345229Y33740D01*
Y34060D01*
X344789Y34500D01*
X343755D01*
X343315Y34060D01*
Y31140D01*
X342875Y30700D01*
X341995D01*
X341555Y31140D01*
Y35864D01*
X341115Y36304D01*
X338840D01*
X338400Y35864D01*
Y33259D01*
X339768Y31891D01*
Y31268D01*
X339146Y30646D01*
X338524D01*
X337489Y31681D01*
X336866D01*
X334185Y29000D01*
X311222D01*
X305222Y23000D01*
X240120D01*
X239500Y23620D01*
G01X237500Y71500D02*
X237509D01*
X255009Y54000D01*
X263800D01*
X268300Y49500D01*
X306120D01*
X309320Y46300D01*
G01X315500Y50500D02*
X268714D01*
X264214Y55000D01*
X256209D01*
X239800Y71409D01*
Y71500D01*
G01X255626Y108000D02*
X254800D01*
X250300Y112500D01*
X240000D01*
X237680Y114820D01*
Y123572D01*
X238287Y124179D01*
G01X250421Y127579D02*
X248577Y125735D01*
X242274D01*
X238680Y122141D01*
Y115820D01*
X241160Y113340D01*
X250648D01*
X254114Y109874D01*
X257613D01*
G01X236630Y178153D02*
X237543Y177240D01*
X245600D01*
X246000Y176840D01*
X312340D01*
X313600Y178100D01*
X372600D01*
X376500Y182000D01*
G01X356500D02*
X353000D01*
X349000Y186000D01*
X262124D01*
X261164Y186960D01*
X243660D01*
X242089Y185389D01*
X239640D01*
G01X356500Y192000D02*
Y195000D01*
X352500Y199000D01*
X300000D01*
X296908Y195908D01*
X278592D01*
X276720Y197780D01*
X243180D01*
X239546Y194146D01*
Y192411D01*
G01X427000Y71524D02*
X419891D01*
X415281Y76134D01*
X398616D01*
X395337Y79413D01*
X378716D01*
X375692Y76389D01*
X348989D01*
X346865Y74266D01*
X307865D01*
X306070Y72470D01*
X242970D01*
X242000Y71500D01*
G01X241000Y150500D02*
X244433D01*
X246953Y147980D01*
X259119D01*
X259699Y148560D01*
X277370D01*
X278716Y147213D01*
G01X366500Y182000D02*
X362200Y186300D01*
X351700D01*
X351000Y187000D01*
X262312D01*
X261312Y188000D01*
X242850D01*
X242817Y188033D01*
X242143D01*
G01X363500Y46000D02*
X359548Y42048D01*
X358925D01*
X356398Y44575D01*
X355775D01*
X355153Y43953D01*
Y43331D01*
X357681Y40803D01*
Y40181D01*
X357058Y39558D01*
X356436D01*
X353408Y42586D01*
X352786D01*
X352164Y41964D01*
Y41342D01*
X355192Y38314D01*
Y37692D01*
X353500Y36000D01*
X343640D01*
X343200Y36440D01*
Y47860D01*
X342760Y48300D01*
X337140D01*
X336700Y47860D01*
Y46907D01*
X337140Y46467D01*
X340660D01*
X341100Y46027D01*
Y45147D01*
X340660Y44707D01*
X337140D01*
X336700Y44267D01*
Y43387D01*
X337140Y42947D01*
X340660D01*
X341100Y42507D01*
Y41627D01*
X340660Y41187D01*
X337140D01*
X336700Y40747D01*
Y39867D01*
X337140Y39427D01*
X340660D01*
X341100Y38987D01*
Y38107D01*
X340660Y37667D01*
X337140D01*
X336700Y37227D01*
Y33070D01*
X333730Y30100D01*
X310766D01*
X304666Y24000D01*
X249000D01*
X248000Y25000D01*
Y25180D01*
G01X437000Y61524D02*
X432024Y66500D01*
X422567D01*
X414050Y75017D01*
X397232D01*
X394037Y78213D01*
X379213D01*
X376236Y75236D01*
X349251D01*
X347280Y73266D01*
X308280D01*
X306484Y71470D01*
X248179D01*
X245179Y68470D01*
G01X427000Y61524D02*
X425197D01*
X412819Y73901D01*
X349330D01*
X347694Y72266D01*
X308694D01*
X306898Y70470D01*
X249470D01*
X247500Y68500D01*
G01X247281Y142699D02*
X248221Y141760D01*
X265760D01*
X266920Y142920D01*
X272247D01*
X274407Y140760D01*
X288816D01*
X291376Y143320D01*
X301094D01*
X302034Y142380D01*
X339089D01*
X339709Y143000D01*
G01X245988Y173613D02*
X247335Y174960D01*
X318751D01*
X320891Y177100D01*
X379229D01*
X381829Y174500D01*
X399500D01*
X403000Y171000D01*
G01X251500Y25620D02*
X252120Y25000D01*
X304252D01*
X310452Y31200D01*
X324583D01*
X325023Y31640D01*
Y34060D01*
X325463Y34500D01*
X326343D01*
X326783Y34060D01*
Y31640D01*
X327223Y31200D01*
X328103D01*
X328543Y31640D01*
Y34060D01*
X328983Y34500D01*
X329863D01*
X330303Y34060D01*
Y31640D01*
X330743Y31200D01*
X333274D01*
X335320Y33246D01*
Y49660D01*
X335760Y50100D01*
X342360D01*
X342800Y50540D01*
Y53360D01*
X343240Y53800D01*
X344079D01*
X344519Y53360D01*
Y50940D01*
X344959Y50500D01*
X345839D01*
X346279Y50940D01*
Y53360D01*
X346819Y53900D01*
X347868D01*
X348308Y53460D01*
Y50140D01*
X348748Y49700D01*
X349628D01*
X350068Y50140D01*
Y53360D01*
X350508Y53800D01*
X351440D01*
X351880Y53360D01*
Y44940D01*
X352320Y44500D01*
X353200D01*
X353640Y44940D01*
Y53260D01*
X354180Y53800D01*
X355560D01*
X356000Y53360D01*
Y49000D01*
G01X427000Y51524D02*
X420500Y58024D01*
Y63874D01*
X411589Y72785D01*
X349628D01*
X348108Y71266D01*
X309108D01*
X307313Y69470D01*
X250770D01*
X249800Y68500D01*
G01X249000Y157389D02*
X251335D01*
X253004Y155720D01*
X268974D01*
X269554Y155140D01*
G01X253167Y167868D02*
X256370D01*
X257723Y166516D01*
X261798D01*
X263358Y168076D01*
X269424D01*
X272260Y165240D01*
X283472D01*
X284632Y166400D01*
X324618D01*
X326918Y168700D01*
X345824D01*
X347624Y166900D01*
X354256D01*
G01X350034Y175280D02*
X320485D01*
X319225Y174020D01*
X249900D01*
X249320Y173440D01*
G01X256999Y64500D02*
Y64439D01*
X258643Y62795D01*
X261454D01*
X270069Y54180D01*
X297680D01*
X310766Y67266D01*
X349766D01*
X350820Y68320D01*
X406666D01*
X415500Y59486D01*
Y36000D01*
X425000Y26500D01*
X431976D01*
X437000Y31524D01*
G01Y41524D02*
X431976Y36500D01*
X424500D01*
X417500Y43500D01*
Y62180D01*
X409127Y70552D01*
X350224D01*
X348937Y69266D01*
X309937D01*
X296851Y56180D01*
X270898D01*
X260927Y66151D01*
X256149D01*
X254498Y67802D01*
G01X256950Y67850D02*
X257300Y67500D01*
X276000D01*
X278500Y65000D01*
X285500D01*
X287871Y67371D01*
X306628D01*
X309523Y70266D01*
X348523D01*
X349926Y71669D01*
X410358D01*
X419500Y62527D01*
Y49024D01*
X427000Y41524D01*
G01X420080Y79900D02*
Y80120D01*
X418387Y81813D01*
X377722D01*
X374603Y78695D01*
X348194D01*
X346180Y76680D01*
X315625D01*
X313305Y79000D01*
X308500D01*
X304500Y75000D01*
X280663D01*
X274194Y81470D01*
X268530D01*
X265100Y84900D01*
Y87580D01*
G01X355066Y135600D02*
X350771D01*
X347071Y131900D01*
X340814D01*
X337854Y128940D01*
X320640D01*
X319520Y130060D01*
X287157D01*
X282888Y125790D01*
X275705D01*
X270500Y120586D01*
G01X262509Y121809D02*
X261930Y122388D01*
Y129935D01*
X263199Y131204D01*
Y131832D01*
G01X260310Y129811D02*
X260970Y129151D01*
Y117970D01*
G01X255524Y166348D02*
X256473Y165400D01*
X262127D01*
X263787Y167060D01*
X268940D01*
X271700Y164300D01*
X283947D01*
X285107Y165460D01*
X325007D01*
X327307Y167760D01*
X345434D01*
X347884Y165311D01*
X362811D01*
X364000Y166500D01*
G01X259199Y64531D02*
X261133D01*
X270484Y55180D01*
X297266D01*
X310351Y68266D01*
X349351D01*
X350522Y69436D01*
X407896D01*
X416500Y60833D01*
Y42024D01*
X427000Y31524D01*
G01X437000Y71524D02*
X432000Y76524D01*
Y83500D01*
X429500Y86000D01*
X420488D01*
X417501Y83013D01*
X377224D01*
X374059Y79847D01*
X347847D01*
X345680Y77680D01*
X316040D01*
X313720Y80000D01*
X308000D01*
X304200Y76200D01*
X280877D01*
X274608Y82470D01*
X269030D01*
X266500Y85000D01*
Y87500D01*
G01X296265Y128440D02*
X295645Y129060D01*
X287572D01*
X283009Y124498D01*
X276498D01*
X271500Y119500D01*
G01X263550Y128971D02*
Y117050D01*
X260356Y113856D01*
G01X258280Y163600D02*
X258580Y163300D01*
X284276D01*
X285476Y164500D01*
X325377D01*
X327697Y166820D01*
X345045D01*
X347494Y164371D01*
X389800D01*
X392771Y161400D01*
X406400D01*
X408500Y163500D01*
G01X259480Y172500D02*
Y172640D01*
X259920Y173080D01*
X319700D01*
X320960Y174340D01*
X348160D01*
X349040Y173460D01*
X354926D01*
X356180Y174714D01*
G01X305000Y80000D02*
X302250Y77250D01*
X281242D01*
X274962Y83530D01*
X269470D01*
X267600Y85400D01*
Y87900D01*
G01X437000Y51524D02*
X441000Y55524D01*
Y86000D01*
X440000Y87000D01*
X420074D01*
X417287Y84213D01*
X376727D01*
X373515Y81000D01*
X347500D01*
X345180Y78680D01*
X316454D01*
X313134Y82000D01*
X304426D01*
X300676Y78250D01*
X285421D01*
X274265Y89406D01*
G01X350000Y84820D02*
X348180Y83000D01*
X329000D01*
X326500Y80500D01*
X316048D01*
X313548Y83000D01*
X304012D01*
X300262Y79250D01*
X285836D01*
X274860Y90226D01*
G01X267050Y115550D02*
Y133784D01*
X266834Y134000D01*
G01X262427Y143280D02*
X263007Y143860D01*
X272973D01*
X275133Y141700D01*
X288427D01*
X290987Y144260D01*
X301568D01*
X302438Y143390D01*
X333905D01*
X335485Y144970D01*
G01X347000Y84820D02*
X330680D01*
X323500Y92000D01*
X316000D01*
X314030Y93970D01*
X277970D01*
X277500Y93500D01*
X271985D01*
G01X348500Y88460D02*
X338040D01*
X336500Y90000D01*
X329500D01*
X325500Y94000D01*
X317000D01*
X315030Y95970D01*
X277470D01*
G01X322773Y97000D02*
X320773Y95000D01*
X317414D01*
X315414Y97000D01*
X277000D01*
G01X284680Y99680D02*
X285120Y100120D01*
X309620D01*
X310100Y100600D01*
X325900D01*
X327994Y98506D01*
X344426D01*
G01X393100Y89200D02*
X389300Y93000D01*
X355500D01*
X348043Y100457D01*
X327457D01*
X326374Y101540D01*
X309540D01*
X309120Y101120D01*
X284620D01*
X284000Y100500D01*
G01X437000Y121524D02*
X442000Y116524D01*
Y108440D01*
X440560Y107000D01*
X433500D01*
X432000Y108500D01*
Y113500D01*
X429500Y116000D01*
X424500D01*
X408500Y132000D01*
X399493D01*
X394023Y137470D01*
X362641D01*
X358951Y133780D01*
X350366D01*
X347286Y130700D01*
X341029D01*
X338269Y127940D01*
X320226D01*
X319226Y128940D01*
X301783D01*
X299663Y126820D01*
X295542D01*
X294242Y128120D01*
X288046D01*
X283246Y123320D01*
X276734D01*
X273000Y119586D01*
Y111000D01*
G01X277500Y122000D02*
X283500D01*
X288680Y127180D01*
X293768D01*
X295068Y125880D01*
X300137D01*
X302257Y128000D01*
X318751D01*
X319811Y126940D01*
X338683D01*
X341443Y129700D01*
X348200D01*
X351100Y132600D01*
X359186D01*
X361806Y135220D01*
X370500D01*
G01X267437Y113830D02*
X269400Y115793D01*
Y121400D01*
X274790Y126790D01*
X282474D01*
X286683Y131000D01*
X319994D01*
X321054Y129940D01*
X337440D01*
X340400Y132900D01*
X346400D01*
X351970Y138470D01*
X394681D01*
X400151Y133000D01*
X409612D01*
X425611Y117000D01*
X431524D01*
X437000Y111524D01*
G01X270000Y126500D02*
X272500D01*
X273791Y127790D01*
X282059D01*
X286309Y132040D01*
X320368D01*
X321468Y130940D01*
X335160D01*
X336500Y132280D01*
G01X269500Y141400D02*
X272100D01*
X274548Y138952D01*
X277170D01*
X277249Y139031D01*
G01X270980Y139737D02*
X273306Y137411D01*
X278090D01*
X280499Y139820D01*
X289291D01*
X291851Y142380D01*
X300620D01*
X301620Y141380D01*
X340380D01*
X343320Y144320D01*
X362000D01*
G01X331000Y87659D02*
X329341D01*
X324000Y93000D01*
X316500D01*
X314530Y94970D01*
X277630D01*
X277000Y94340D01*
X273129D01*
G01X348426Y91500D02*
X331000D01*
X323780Y98720D01*
X316720D01*
X316040Y98040D01*
X275527D01*
X275428Y97940D01*
G01X285308Y99120D02*
X315620D01*
X316160Y99660D01*
X324840D01*
X330000Y94500D01*
X347426D01*
G01X287334Y121000D02*
X302329D01*
X304509Y123180D01*
X316500D01*
X317740Y121940D01*
X341631D01*
X342891Y123200D01*
G01X345580Y123120D02*
X343880Y124820D01*
X342220D01*
X340340Y122940D01*
X318154D01*
X316914Y124180D01*
X304094D01*
X301914Y122000D01*
X286920D01*
X284920Y120000D01*
X278829D01*
G01X278414Y121000D02*
X283914D01*
X289154Y126240D01*
X293293D01*
X294593Y124940D01*
X300611D01*
X302732Y127060D01*
X318277D01*
X319397Y125940D01*
X339097D01*
X341857Y128700D01*
X348700D01*
X351600Y131600D01*
X359600D01*
X362000Y134000D01*
X364500D01*
X366000Y132500D01*
X385000D01*
X388775Y128725D01*
X394725D01*
X397000Y131000D01*
X407700D01*
X427000Y111700D01*
Y111524D01*
G01X271500Y128500D02*
X274155Y131155D01*
X282412D01*
X285277Y134020D01*
X321217D01*
X322417Y132820D01*
X325706D01*
X327286Y134400D01*
X327500D01*
G01X274940Y129534D02*
X282206D01*
X285752Y133080D01*
X320743D01*
X321943Y131880D01*
X329380D01*
X331400Y133900D01*
X345253D01*
X350823Y139470D01*
X395095D01*
X400565Y134000D01*
X410500D01*
X422976Y121524D01*
X427000D01*
G01X274600Y154100D02*
X274740Y153960D01*
X298254D01*
X300794Y156500D01*
X329222D01*
X329766Y155957D01*
G01X368039Y166500D02*
X366039Y168500D01*
X363039D01*
X361554Y167014D01*
X356527D01*
X355021Y168520D01*
X347333D01*
X346213Y169640D01*
X326528D01*
X324228Y167340D01*
X284243D01*
X283083Y166180D01*
X274800D01*
X272500Y168480D01*
G01X275500D02*
X276860Y167120D01*
X282609D01*
X283769Y168280D01*
X323018D01*
X323640Y168902D01*
G01X278000Y133774D02*
X278620Y133155D01*
X281497D01*
X284403Y136060D01*
X329026D01*
X330186Y134900D01*
X344839D01*
X350409Y140470D01*
X395509D01*
X400980Y135000D01*
X412500D01*
X415976Y131524D01*
X427000D01*
G01X417000Y25000D02*
X421000D01*
X422000Y24000D01*
X439500D01*
X444000Y28500D01*
Y125500D01*
X443000Y126500D01*
X434000D01*
X431500Y129000D01*
Y134000D01*
X429500Y136000D01*
X401394D01*
X395924Y141470D01*
X349994D01*
X344424Y135900D01*
X330600D01*
X329500Y137000D01*
X283928D01*
X281703Y134774D01*
X280000D01*
G01X281272Y136634D02*
X282577Y137940D01*
X330060D01*
X330480Y137520D01*
X336480D01*
G01X392650Y166500D02*
Y168350D01*
X388540Y172460D01*
X348711D01*
X347771Y173400D01*
X321746D01*
X320386Y172040D01*
X281080D01*
X280600Y171560D01*
X280500D01*
G01X295885Y200005D02*
X294308Y198428D01*
X282312D01*
X281500Y199240D01*
G01X342780Y113700D02*
X342180Y114300D01*
X317420D01*
X316920Y113800D01*
X311200D01*
X310000Y115000D01*
Y117000D01*
X309147Y117853D01*
X305147D01*
X303000Y120000D01*
X293500D01*
X292500Y119000D01*
G01X292148Y123680D02*
X292828Y123000D01*
X301500D01*
X303680Y125180D01*
X317328D01*
X318568Y123940D01*
X339926D01*
X342186Y126200D01*
X349600D01*
X351900Y128500D01*
X383374D01*
X385000Y126874D01*
G01X363500Y132000D02*
X362100Y130600D01*
X352014D01*
X349114Y127700D01*
X342272D01*
X339511Y124940D01*
X318983D01*
X317803Y126120D01*
X303206D01*
X301086Y124000D01*
X294119D01*
X292819Y125300D01*
X291328D01*
X289648Y123620D01*
G01X291000Y179000D02*
X292000Y178000D01*
X310500D01*
X314500Y182000D01*
X316500D01*
G01X294601Y140605D02*
X296066Y139140D01*
X346250D01*
X349580Y142470D01*
X374180D01*
X375000Y143290D01*
G01X297400Y155680D02*
X299397Y157677D01*
X368823D01*
X369500Y157000D01*
X387000D01*
X393500Y150500D01*
X408500D01*
X409350Y149650D01*
Y148000D01*
G01X343380Y142084D02*
X341646Y140350D01*
X298416D01*
X298006Y140760D01*
G01X411000Y95500D02*
X410500Y95000D01*
X403000D01*
X402000Y96000D01*
X395500D01*
X394440Y94940D01*
X360560D01*
X360000Y95500D01*
Y98000D01*
X359000Y99000D01*
X357003D01*
X349083Y106920D01*
X307580D01*
X305500Y109000D01*
Y109220D01*
G01X392905Y119032D02*
Y119995D01*
X391434Y121466D01*
X389823D01*
X389383Y121906D01*
Y122860D01*
X388943Y123300D01*
X388063D01*
X387623Y122860D01*
Y121906D01*
X387183Y121466D01*
X386534D01*
X385376Y122624D01*
Y123624D01*
X384631Y124368D01*
X383631D01*
X380900Y127100D01*
X353043D01*
X346883Y120940D01*
X317326D01*
X316085Y122180D01*
X308526D01*
X305818Y119473D01*
G01X312800Y42500D02*
X309500D01*
G01X312800Y46350D02*
X310370D01*
X310320Y46300D01*
X309320D01*
G01X378500Y102500D02*
X376400Y104600D01*
X375000D01*
X374560Y104160D01*
Y98840D01*
X374120Y98400D01*
X373240D01*
X372800Y98840D01*
Y104160D01*
X372360Y104600D01*
X371480D01*
X371040Y104160D01*
Y98840D01*
X370600Y98400D01*
X369720D01*
X369280Y98840D01*
Y104160D01*
X368840Y104600D01*
X354270D01*
X350070Y108800D01*
X312020D01*
X310500Y110320D01*
G01X307656Y110220D02*
X310016Y107860D01*
X349640D01*
X354300Y103200D01*
X357357D01*
X357797Y102760D01*
Y100940D01*
X358237Y100500D01*
X359117D01*
X359557Y100940D01*
Y102760D01*
X359997Y103200D01*
X360877D01*
X361317Y102760D01*
Y96840D01*
X361757Y96400D01*
X362637D01*
X363077Y96840D01*
Y97999D01*
X363517Y98439D01*
X365860D01*
X366300Y98879D01*
Y99759D01*
X365860Y100199D01*
X363517D01*
X363077Y100639D01*
Y102760D01*
X363517Y103200D01*
X364800D01*
X365500Y102500D01*
G01X308000Y115100D02*
X310240Y112860D01*
X322634D01*
X324434Y111060D01*
X351040D01*
X354100Y108000D01*
X378500D01*
X382500Y112000D01*
X396600D01*
X398400Y110200D01*
G01X360000Y125000D02*
X358380Y123380D01*
X357625D01*
X357185Y123820D01*
Y125460D01*
X356745Y125900D01*
X355865D01*
X355425Y125460D01*
Y123820D01*
X354985Y123380D01*
X354318D01*
X353878Y123820D01*
Y124760D01*
X353438Y125200D01*
X352558D01*
X352118Y124760D01*
Y123820D01*
X348238Y119940D01*
X316911D01*
X315671Y121180D01*
X310526D01*
X308818Y119473D01*
G01X312800Y38650D02*
Y34700D01*
X313500Y34000D01*
X320500D01*
X321500Y35000D01*
G01X319700Y46350D02*
X319650D01*
X315500Y50500D01*
G01X313244Y110320D02*
X313444Y110120D01*
X350080D01*
X353700Y106500D01*
X378140D01*
X380480Y104160D01*
Y100840D01*
X380920Y100400D01*
X381800D01*
X382240Y100840D01*
Y104160D01*
X382680Y104600D01*
X383560D01*
X384000Y104160D01*
Y100840D01*
X384440Y100400D01*
X385320D01*
X385760Y100840D01*
Y104160D01*
X387000Y105400D01*
Y110000D01*
G01X315000Y115320D02*
X346051D01*
X349371Y112000D01*
X351900D01*
X354400Y109500D01*
X377500D01*
X381375Y113375D01*
X394175D01*
X395300Y114500D01*
Y120573D01*
X392905Y122968D01*
G01X312000Y115320D02*
X313620Y116940D01*
X346060D01*
X347218Y115782D01*
X347840D01*
X348468Y116410D01*
X351090D01*
X351500Y116000D01*
Y115000D01*
X351002Y114502D01*
X350000D01*
X349560Y114062D01*
Y113440D01*
X350000Y113000D01*
X352015D01*
X353946Y114932D01*
X354568D01*
X355191Y114309D01*
Y113687D01*
X353863Y112359D01*
Y111737D01*
X354700Y110900D01*
X356796D01*
X357236Y111340D01*
Y114660D01*
X357676Y115100D01*
X358556D01*
X358996Y114660D01*
Y111340D01*
X359436Y110900D01*
X363562D01*
X364002Y111340D01*
Y112263D01*
X363562Y112703D01*
X361140D01*
X360700Y113143D01*
Y114023D01*
X361140Y114463D01*
X362960D01*
X363400Y114903D01*
Y116400D01*
X364000Y117000D01*
G01X389000Y119000D02*
X387496D01*
X386198Y120298D01*
X385576D01*
X384550Y119272D01*
X383928D01*
X383305Y119895D01*
Y120517D01*
X384331Y121542D01*
Y122165D01*
X380496Y126000D01*
X379363D01*
X378923Y125560D01*
Y121440D01*
X378483Y121000D01*
X377603D01*
X377163Y121440D01*
Y125560D01*
X376723Y126000D01*
X375849D01*
X375409Y125560D01*
Y125140D01*
X374969Y124700D01*
X374089D01*
X373649Y125140D01*
Y125560D01*
X373209Y126000D01*
X364000D01*
X360106Y122106D01*
X352606D01*
X349440Y118940D01*
X315620D01*
X315000Y119560D01*
G01X361000Y117000D02*
X361426D01*
X363463Y119037D01*
X364962D01*
X365402Y119477D01*
Y120598D01*
X364310Y121690D01*
X362091D01*
X361651Y121250D01*
Y119340D01*
X361211Y118900D01*
X360331D01*
X359891Y119340D01*
Y120560D01*
X359451Y121000D01*
X358449D01*
X358009Y120560D01*
Y116740D01*
X357569Y116300D01*
X356689D01*
X356249Y116740D01*
Y120560D01*
X355809Y121000D01*
X354929D01*
X354489Y120560D01*
Y116740D01*
X354049Y116300D01*
X353169D01*
X352735Y116735D01*
Y118765D01*
X352341Y119159D01*
X351719D01*
X350500Y117940D01*
X313620D01*
X312000Y119560D01*
G01X319700Y38650D02*
X323500D01*
G01X319700Y42500D02*
X316000D01*
G01X319500Y50500D02*
X321000Y52000D01*
X340900D01*
G01X344426Y104320D02*
X344106Y104000D01*
X329000D01*
X327280Y105720D01*
X318704D01*
X317859Y104875D01*
Y104400D01*
G01X320660Y104160D02*
X320671D01*
X322351Y102480D01*
X327020D01*
X328000Y101500D01*
X350600D01*
X355100Y97000D01*
G01X357710D02*
X357533D01*
X352033Y102500D01*
X328500D01*
X326360Y104640D01*
X323666D01*
X323226Y104200D01*
G01X345380Y113700D02*
X343680Y112000D01*
X326144D01*
X325464Y112680D01*
G01X405500Y166500D02*
Y172000D01*
X401200Y176300D01*
X385200D01*
X381600Y179900D01*
Y185400D01*
X379500Y187500D01*
X353340D01*
X351500Y189340D01*
Y194300D01*
X349300Y196500D01*
X331000D01*
X326500Y192000D01*
G01X331000Y87659D02*
X332019Y86640D01*
X353640D01*
X357800Y90800D01*
X386600D01*
X391200Y86200D01*
X393100D01*
G01X335485Y144970D02*
X341070D01*
X342240Y146140D01*
X365360D01*
X367500Y144000D01*
X372000D01*
X372500Y144500D01*
G01X344004Y152011D02*
X348875Y147140D01*
X368180D01*
X369500Y145820D01*
G01X370213Y50094D02*
Y53360D01*
X369773Y53800D01*
X365014D01*
X364574Y53360D01*
Y52363D01*
X365014Y51923D01*
X367360D01*
X367800Y51483D01*
Y50603D01*
X367360Y50163D01*
X365014D01*
X364574Y49723D01*
Y48634D01*
X364034Y48094D01*
X363254D01*
X362814Y48534D01*
Y53360D01*
X362374Y53800D01*
X361494D01*
X361054Y53360D01*
Y48634D01*
X360514Y48094D01*
X359734D01*
X359294Y48534D01*
Y53360D01*
X358854Y53800D01*
X357974D01*
X357534Y53360D01*
Y49440D01*
X357094Y49000D01*
X356000D01*
G01X374543Y50094D02*
Y46440D01*
X374103Y46000D01*
X371796D01*
X371356Y45560D01*
Y43840D01*
X370916Y43400D01*
X370036D01*
X369596Y43840D01*
Y45560D01*
X369156Y46000D01*
X367916D01*
X367476Y46440D01*
Y47360D01*
X367036Y47800D01*
X366156D01*
X365716Y47360D01*
Y46440D01*
X365276Y46000D01*
X363500D01*
G01X364000Y117000D02*
X365180Y115820D01*
Y112320D01*
X366000Y111500D01*
X375000D01*
X378000Y114500D01*
G01X376800Y166600D02*
X373880Y169520D01*
X361627D01*
X360841Y168734D01*
G01X400500Y140000D02*
X399000D01*
X396000Y143000D01*
X380500D01*
X377500Y146000D01*
X374000D01*
X372500Y144500D01*
G01X378874Y50094D02*
Y46220D01*
X378434Y45780D01*
X376340D01*
X375900Y45340D01*
Y44460D01*
X376340Y44020D01*
X378434D01*
X378874Y43580D01*
Y41540D01*
X378434Y41100D01*
X375900D01*
X374500Y42500D01*
G01X392905Y115095D02*
X378595D01*
X378000Y114500D01*
G01X381650Y118831D02*
X383481Y117000D01*
X390873D01*
X392905Y119032D01*
G01X387535Y50094D02*
Y47235D01*
X383000Y42700D01*
G01X385000Y126874D02*
X387186Y124688D01*
X393618D01*
X396829Y121477D01*
X401500Y110200D01*
G01X387000Y134500D02*
X383300D01*
G01X384500Y166600D02*
X387874D01*
X387974Y166500D01*
G01X390500Y42500D02*
X391000D01*
X396197Y47697D01*
Y50094D01*
G01X387535D02*
Y53035D01*
X388500Y54000D01*
X392000D01*
X394000Y56000D01*
X406000D01*
X407500Y57500D01*
Y62571D01*
X406571Y63500D01*
X401500D01*
X398500Y66500D01*
G01X392600Y130450D02*
X393000Y130850D01*
Y134500D01*
G01X398650Y154000D02*
X395000D01*
G01X400528Y50094D02*
Y45528D01*
X397500Y42500D01*
G01X396197Y50094D02*
Y53897D01*
X397300Y55000D01*
X407086D01*
X408500Y56414D01*
Y63071D01*
X406891Y64680D01*
X404120D01*
X402300Y66500D01*
G01X398000Y107000D02*
X398300D01*
X401500Y110200D01*
G01X401650Y148000D02*
X399000D01*
X398500Y148500D01*
G01X400350Y166500D02*
Y164204D01*
X401234Y163320D01*
G01X400528Y50094D02*
Y53560D01*
X400968Y54000D01*
X407500D01*
X409500Y56000D01*
Y63400D01*
X406400Y66500D01*
X405700D01*
G01X410500Y119800D02*
X409200D01*
X402000Y127000D01*
G01X404858Y50094D02*
Y42600D01*
G01X409500Y116150D02*
X407650D01*
X406500Y115000D01*
Y107500D01*
X408000Y106000D01*
X416100D01*
G01X405500Y148000D02*
Y144500D01*
G01X409350Y148000D02*
X414850Y142500D01*
X426024D01*
X427000Y141524D01*
G01Y151524D02*
X424524Y154000D01*
X406350D01*
G01X409500Y108450D02*
X415050D01*
X416100Y109500D01*
G01X409500Y112300D02*
X414600D01*
X415800Y113500D01*
G01X411500Y166500D02*
X416000D01*
G54D48*
X324004Y62011D03*
Y152011D03*
X334004Y62011D03*
Y152011D03*
X344004Y62011D03*
Y152011D03*
X354004Y62011D03*
Y152011D03*
X364004Y62011D03*
Y152011D03*
X374004Y62011D03*
Y152011D03*
X384004Y62011D03*
Y152011D03*
G54D39*
X162500Y118200D03*
Y124800D03*
X167500Y118200D03*
Y124800D03*
X172500Y118200D03*
Y124800D03*
X177500Y118200D03*
Y124800D03*
X182500Y118200D03*
Y124800D03*
G54D58*
G01X27287Y82170D02*
X30817Y82036D01*
X31132Y81697D01*
X38139Y74690D01*
X44190D01*
X46500Y77000D01*
Y95624D01*
X45624Y96500D01*
X44500D01*
X41500Y99500D01*
G01X27287Y90201D02*
X32611D01*
X36000Y93590D01*
X37123D01*
X37590Y93123D01*
Y84769D01*
X38438Y83921D01*
X40331D01*
X41500Y82753D01*
G01X31618Y86185D02*
X31485Y82655D01*
X31787Y82329D01*
X38516Y75600D01*
X43813D01*
X45590Y77377D01*
Y86705D01*
X45275Y87020D01*
X45015D01*
X44700Y87335D01*
Y87965D01*
X45015Y88280D01*
X45275D01*
X45590Y88595D01*
Y89225D01*
X45275Y89540D01*
X45015D01*
X44700Y89855D01*
Y90485D01*
X45015Y90800D01*
X45275D01*
X45590Y91115D01*
Y91745D01*
X45275Y92060D01*
X45015D01*
X44700Y92375D01*
Y93005D01*
X45015Y93320D01*
X45275D01*
X45590Y93635D01*
Y95247D01*
X45275Y95562D01*
X43547D01*
X41500Y93514D01*
Y92500D01*
G01X31618Y102248D02*
X35000Y98866D01*
Y95500D01*
X36000Y94500D01*
X37500D01*
X38500Y93500D01*
Y85146D01*
X38815Y84831D01*
X40331D01*
X41500Y86000D01*
G01X91282Y68018D02*
Y66815D01*
X91597Y66500D01*
X93000D01*
X97000Y70500D01*
Y73713D01*
X96123Y74590D01*
X93877D01*
X91935Y72648D01*
Y72203D01*
X92096Y72042D01*
Y71597D01*
X91651Y71151D01*
X91206D01*
X91044Y71312D01*
X90599D01*
X89887Y70600D01*
X86915D01*
X86600Y70285D01*
Y69000D01*
G01Y72500D02*
X87590Y71510D01*
X89510D01*
X93500Y75500D01*
X96500D01*
X97910Y74090D01*
Y70123D01*
X93377Y65590D01*
X92390D01*
X91282Y64482D01*
G01X92000Y79800D02*
X92790Y80590D01*
X93877D01*
X95500Y82213D01*
Y89287D01*
X88582Y96205D01*
X86915D01*
X86600Y96520D01*
Y97500D01*
G01X92000Y83000D02*
Y81946D01*
X92446Y81500D01*
X93500D01*
X94590Y82590D01*
Y88910D01*
X93947Y89553D01*
X93502D01*
X93297Y89349D01*
X92852D01*
X92406Y89794D01*
Y90240D01*
X92610Y90444D01*
Y90890D01*
X92165Y91335D01*
X91720D01*
X91515Y91130D01*
X91070D01*
X90624Y91576D01*
Y92022D01*
X90828Y92226D01*
Y92672D01*
X88205Y95295D01*
X86915D01*
X86600Y94980D01*
Y94000D01*
G54D49*
X346709Y6787D03*
Y42220D03*
X410291Y6787D03*
Y42220D03*
G54D59*
G01X16668Y155416D02*
X22416D01*
X25000Y158000D01*
G01X367900Y-134600D02*
X767900D01*
G01X367900Y-104600D02*
Y-84600D01*
X767900D01*
G01X417900Y-154600D02*
Y-134600D01*
G01X542900Y-84600D02*
Y-54600D01*
G01X543400Y-154600D02*
Y-134600D01*
G01X592900Y-154600D02*
Y-134600D01*
M02*
