M48
INCH
T01C.024
T02C.028
;EXTENTS: -21.821 -20.521 32.679  21.979  
;LEADER: 12 
;HEADER: 
;CODE  : ASCII 
;FILE  : C:/Users/nxf76403/Work/90818-B/pcb/a080-1/FabOutput/ncroute_1-4.rou for board C:/Users/nxf76403/Work/90818-B/pcb/a080-1/FabOutput/LAY-90818_B.brd, layers TOP to BOTTOM
%
G90
F1
M16
T02
M16
G00X-0000860Y0127878
G40
M15
G01X0005040Y0127878
M16
G00X-0000860Y0064571
G40
M15
G01X0005040Y0064571
M16
T01
M16
G00X-0009444Y0015408
G40
M15
G01X-0006344Y0015408
M16
G00X-0009444Y0049463
G40
M15
G01X-0006344Y0049463
M16
G00X0002463Y0049463
G40
M15
G01X0008363Y0049463
M16
G00X0002463Y0015408
G40
M15
G01X0008363Y0015408
M16
G00X-0009444Y0140672
G40
M15
G01X-0006344Y0140672
M16
G00X-0009444Y0174727
G40
M15
G01X-0006344Y0174727
M16
G00X0002463Y0174727
G40
M15
G01X0008363Y0174727
M16
G00X0002463Y0140672
G40
M15
G01X0008363Y0140672
M16
G40
M30
