G04 ================== begin FILE IDENTIFICATION RECORD ==================*
G04 Layout Name:  C:/Users/nxf76403/Work/90818-B/pcb/a080-1/FabOutput/LAY-90818_B.brd*
G04 Film Name:    psp.art*
G04 File Format:  Gerber RS274X*
G04 File Origin:  Cadence Allegro 17.4-S021*
G04 Origin Date:  Mon Sep 18 14:44:30 2023*
G04 *
G04 Layer:  PIN/PASTEMASK_TOP*
G04 Layer:  PACKAGE GEOMETRY/PASTEMASK_TOP*
G04 Layer:  DRAWING FORMAT/FILM_TITLE_BLOCK*
G04 Layer:  BOARD GEOMETRY/DESIGN_OUTLINE*
G04 Layer:  BOARD GEOMETRY/CUTOUT*
G04 Layer:  BOARD GEOMETRY/PASTEMASK_TOP*
G04 *
G04 Offset:    (0.000 0.000)*
G04 Mirror:    No*
G04 Mode:      Positive*
G04 Rotation:  0*
G04 FullContactRelief:  No*
G04 UndefLineWidth:     8.000*
G04 ================== end FILE IDENTIFICATION RECORD ====================*
%FSLAX55Y55*MOIN*%
%IR0*IPPOS*OFA0.00000B0.00000*MIA0B0*SFA1.00000B1.00000*%
%AMMACRO43*
4,1,21,.015748,-.005906,
-.009843,-.005906,
-.010869,-.005816,
-.011863,-.00555,
-.012796,-.005115,
-.013639,-.004524,
-.014367,-.003796,
-.014958,-.002953,
-.015393,-.00202,
-.015659,-.001025,
-.015749,0.0,
-.015659,.001026,
-.015392,.00202,
-.014957,.002953,
-.014366,.003797,
-.013638,.004525,
-.012795,.005115,
-.011862,.00555,
-.010868,.005816,
-.009843,.005906,
.015748,.005906,
.015748,-.005906,
0.0*
%
%ADD43MACRO43*%
%ADD26R,.008X.018*%
%ADD27R,.028X.008*%
%ADD42C,.008*%
%ADD34O,.011X.035*%
%ADD31O,.035X.011*%
%ADD28R,.024X.02*%
%AMMACRO40*
4,1,21,-.015748,.005906,
.009843,.005906,
.010869,.005816,
.011863,.00555,
.012796,.005115,
.013639,.004524,
.014367,.003796,
.014958,.002953,
.015393,.00202,
.015659,.001025,
.015749,0.0,
.015659,-.001026,
.015392,-.00202,
.014957,-.002953,
.014366,-.003797,
.013638,-.004525,
.012795,-.005115,
.011862,-.00555,
.010868,-.005816,
.009843,-.005906,
-.015748,-.005906,
-.015748,.005906,
0.0*
%
%ADD40MACRO40*%
%ADD20O,.04X.07*%
%ADD45R,.03X.034*%
%ADD44R,.06X.022*%
%ADD41R,.03X.015*%
%ADD33R,.011X.035*%
%ADD15R,.012X.024*%
%ADD32R,.035X.011*%
%ADD11O,.06X.035*%
%ADD38R,.032X.024*%
%ADD17O,.035X.06*%
%ADD13R,.024X.032*%
%ADD10R,.026X.041*%
%ADD18O,.045X.035*%
%ADD39R,.065X.022*%
%ADD23R,.04X.055*%
%ADD12O,.035X.045*%
%ADD49R,.08X.025*%
%ADD29C,.011*%
%ADD22R,.067X.03*%
%ADD14R,.036X.016*%
%ADD51C,.013*%
%ADD37R,.039X.016*%
%ADD25R,.045X.055*%
%ADD47R,.043X.075*%
%ADD24R,.051X.059*%
%ADD16C,.025*%
%ADD50R,.057X.018*%
%ADD30R,.055X.047*%
%ADD35R,.028X.039*%
%ADD21R,.079X.043*%
%ADD19R,.032X.032*%
%ADD36R,.024X.024*%
%ADD48R,.048X.079*%
%ADD46R,.026X.026*%
%ADD52C,.006*%
%ADD53C,.01*%
%ADD54C,.02*%
G75*
%LPD*%
G75*
G36*
G01X170350Y35220D02*
X175460D01*
X177670Y37440D01*
X177930D01*
Y30560D01*
X177670D01*
X175460Y32780D01*
X170350D01*
Y35220D01*
G37*
G36*
G01X177008Y87008D02*
X174449D01*
Y83071D01*
X177008D01*
Y87008D01*
G37*
G36*
G01Y91929D02*
X174449D01*
Y87992D01*
X177008D01*
Y91929D01*
G37*
G36*
G01X178710Y37440D02*
X184620D01*
Y30560D01*
X178710D01*
Y37440D01*
G37*
G36*
G01X180551Y87008D02*
X177992D01*
Y83071D01*
X180551D01*
Y87008D01*
G37*
G36*
G01Y91929D02*
X177992D01*
Y87992D01*
X180551D01*
Y91929D01*
G37*
G36*
G01X186880Y37440D02*
Y35220D01*
X188650D01*
Y32780D01*
X186880D01*
Y30560D01*
X185410D01*
Y37440D01*
X186880D01*
G37*
G36*
G01X120500Y67700D02*
X114700D01*
Y73500D01*
X120500D01*
Y67700D01*
G37*
G36*
G01Y74500D02*
X114700D01*
Y80300D01*
X120500D01*
Y74500D01*
G37*
G36*
G01X127300Y67700D02*
X121500D01*
Y73500D01*
X127300D01*
Y67700D01*
G37*
G36*
G01Y74500D02*
X121500D01*
Y80300D01*
X127300D01*
Y74500D01*
G37*
G54D10*
X1268Y183594D03*
Y199933D03*
X9732Y183594D03*
Y199933D03*
X414268Y-3906D03*
Y12433D03*
X413768Y183594D03*
Y199933D03*
X422732Y-3906D03*
Y12433D03*
X422232Y183594D03*
Y199933D03*
G54D11*
X12000Y-2300D03*
Y5300D03*
X20900Y136300D03*
Y143900D03*
G54D20*
X34000Y52500D03*
X40000Y128000D03*
X46000Y52500D03*
X52000Y128000D03*
G54D21*
X40559Y27000D03*
X43059Y138500D03*
X163559Y27000D03*
G54D30*
X112169Y37260D03*
Y44740D03*
X120831Y37260D03*
Y44740D03*
G54D12*
X22000Y20500D03*
X28000D03*
X89500Y51000D03*
X95500D03*
X135000Y135100D03*
X138500Y54500D03*
Y93000D03*
X141000Y135100D03*
X144500Y54500D03*
Y93000D03*
X159000Y92200D03*
X165000D03*
X242500Y53500D03*
X248500D03*
X254000D03*
X260000D03*
X265000D03*
X271000D03*
X293000Y77000D03*
X299000D03*
X308500Y80500D03*
Y86500D03*
X314500Y80500D03*
Y86500D03*
X320500D03*
Y94000D03*
X326500Y86500D03*
Y94000D03*
X366000Y77500D03*
Y83500D03*
X369500Y49000D03*
X375500D03*
X372000Y77500D03*
Y83500D03*
X377000Y164500D03*
X383000D03*
X396300Y62000D03*
X398000Y89000D03*
X402300Y62000D03*
X404000Y89000D03*
G54D22*
X46677Y66000D03*
Y71000D03*
Y76000D03*
Y81000D03*
Y86000D03*
Y91000D03*
Y96000D03*
Y101000D03*
X81323Y66000D03*
Y71000D03*
Y76000D03*
Y81000D03*
Y86000D03*
Y91000D03*
Y96000D03*
Y101000D03*
G54D13*
X22240Y27000D03*
X21240Y150000D03*
X26760D03*
X27760Y27000D03*
X104240Y54500D03*
X109760D03*
G54D40*
X171693Y83661D03*
Y86221D03*
Y88780D03*
Y91339D03*
G54D31*
X111199Y67105D03*
Y80895D03*
X130801Y67105D03*
Y80895D03*
G54D50*
X379535Y75661D03*
Y80780D03*
Y78220D03*
Y83339D03*
X396465Y75661D03*
Y78220D03*
Y80780D03*
Y83339D03*
G54D14*
X23000Y34350D03*
Y37500D03*
X29693Y34350D03*
Y37500D03*
G54D23*
X49960Y23670D03*
X53700Y32330D03*
X57440Y23670D03*
G54D32*
X111199Y69075D03*
Y71045D03*
Y73015D03*
Y74985D03*
Y76955D03*
Y78925D03*
X130801Y71045D03*
Y69075D03*
Y74985D03*
Y73015D03*
Y78925D03*
Y76955D03*
G54D41*
X171728Y101441D03*
Y104000D03*
Y106559D03*
X180272Y101441D03*
Y106559D03*
Y104000D03*
G54D24*
X68650Y118500D03*
X76350D03*
G54D51*
X379126Y113126D03*
Y121000D03*
Y117063D03*
Y124937D03*
X383063Y113126D03*
Y121000D03*
Y117063D03*
Y124937D03*
Y128874D03*
X387000Y113126D03*
Y117063D03*
Y121000D03*
Y124937D03*
Y128874D03*
X390937Y113126D03*
Y121000D03*
Y117063D03*
Y124937D03*
Y128874D03*
X394874Y113126D03*
Y121000D03*
Y117063D03*
Y124937D03*
Y128874D03*
G54D15*
X22622Y45500D03*
Y52500D03*
X25378Y45500D03*
Y52500D03*
G54D33*
X116075Y64199D03*
Y83801D03*
X120015Y64199D03*
X118045D03*
Y83801D03*
X120015D03*
X123955Y64199D03*
X121985D03*
Y83801D03*
X123955D03*
X125925Y64199D03*
Y83801D03*
G54D42*
G01X428169Y205268D02*
X-7518D01*
G03X-14744Y197724I324J-7543D01*
G01Y-3394D01*
G03X-6870Y-11268I7874J0D01*
G01X30532D01*
X430138D01*
X441949D01*
G03X449823Y-3394I0J7874D01*
G01Y197394D01*
G03X441949Y205268I-7874J0D01*
G01X428169D01*
G01X-14744Y123784D02*
X7770D01*
G02X17838Y123220I4988J-1114D01*
G01Y69867D01*
G02X7770Y68665I-5106J-2D01*
G01X-14744D01*
Y123784D01*
X181925Y57638D03*
Y59213D03*
Y60787D03*
Y62362D03*
X185075Y57638D03*
X183500D03*
X185075Y59213D03*
X183500D03*
X185075Y60787D03*
X183500D03*
X185075Y62362D03*
X183500D03*
G54D52*
G01X371750Y-145100D02*
X371123Y-145300D01*
X370653Y-145800D01*
X370340Y-146400D01*
X370105Y-147200D01*
X370027Y-148100D01*
X370105Y-149000D01*
X370340Y-149800D01*
X370653Y-150400D01*
X371123Y-150900D01*
X371750Y-151100D01*
X372377Y-150900D01*
X372847Y-150400D01*
X373160Y-149800D01*
X373395Y-149000D01*
X373473Y-148100D01*
X373395Y-147200D01*
X373160Y-146400D01*
X372847Y-145800D01*
X372377Y-145300D01*
X371750Y-145100D01*
G01X378050Y-151100D02*
Y-145100D01*
X377110Y-146300D01*
G01Y-151100D02*
X378990D01*
G01X371425Y-142067D02*
X371892Y-142400D01*
X372417Y-142600D01*
X372883D01*
X373350Y-142400D01*
X373700Y-142067D01*
X373875Y-141600D01*
X373758Y-141133D01*
X373467Y-140733D01*
X372942Y-140467D01*
X372242Y-140333D01*
X371833Y-140067D01*
X371658Y-139600D01*
X371775Y-139133D01*
X372067Y-138800D01*
X372475Y-138600D01*
X372883D01*
X373292Y-138733D01*
X373642Y-139067D01*
G01X376225Y-142600D02*
Y-138600D01*
G01X378675D02*
Y-142600D01*
G01Y-140600D02*
X376225D01*
G01X383417Y-142600D02*
X381083D01*
Y-138600D01*
X383417D01*
G01X382483Y-140533D02*
X381083D01*
G01X388217Y-142600D02*
X385883D01*
Y-138600D01*
X388217D01*
G01X387283Y-140533D02*
X385883D01*
G01X391850Y-138600D02*
Y-142600D01*
G01X390508Y-138600D02*
X393192D01*
G01X371192Y-81600D02*
X372650Y-77600D01*
X374108Y-81600D01*
G01X373583Y-80200D02*
X371717D01*
G01X376167Y-77600D02*
Y-80467D01*
X376400Y-81067D01*
X376867Y-81467D01*
X377450Y-81600D01*
X378033Y-81467D01*
X378500Y-81067D01*
X378733Y-80467D01*
Y-77600D01*
G01X381025Y-81067D02*
X381492Y-81400D01*
X382017Y-81600D01*
X382483D01*
X382950Y-81400D01*
X383300Y-81067D01*
X383475Y-80600D01*
X383358Y-80133D01*
X383067Y-79733D01*
X382542Y-79467D01*
X381842Y-79333D01*
X381433Y-79067D01*
X381258Y-78600D01*
X381375Y-78133D01*
X381667Y-77800D01*
X382075Y-77600D01*
X382483D01*
X382892Y-77733D01*
X383242Y-78067D01*
G01X387050Y-77600D02*
Y-81600D01*
G01X385708Y-77600D02*
X388392D01*
G01X391150D02*
X392550D01*
G01X391850D02*
Y-81600D01*
G01X391150D02*
X392550D01*
G01X395308D02*
Y-77600D01*
X397992Y-81600D01*
Y-77600D01*
G01X401450Y-81733D02*
X401333Y-81667D01*
Y-81533D01*
X401450Y-81467D01*
X401567Y-81533D01*
Y-81667D01*
X401450Y-81733D01*
G01X411050Y-77600D02*
Y-81600D01*
G01X409708Y-77600D02*
X412392D01*
G01X417017Y-81600D02*
X414683D01*
Y-77600D01*
X417017D01*
G01X416083Y-79533D02*
X414683D01*
G01X419425Y-81600D02*
X421875Y-77600D01*
G01X419425D02*
X421875Y-81600D01*
G01X423992D02*
X425450Y-77600D01*
X426908Y-81600D01*
G01X426383Y-80200D02*
X424517D01*
G01X429025Y-81067D02*
X429492Y-81400D01*
X430017Y-81600D01*
X430483D01*
X430950Y-81400D01*
X431300Y-81067D01*
X431475Y-80600D01*
X431358Y-80133D01*
X431067Y-79733D01*
X430542Y-79467D01*
X429842Y-79333D01*
X429433Y-79067D01*
X429258Y-78600D01*
X429375Y-78133D01*
X429667Y-77800D01*
X430075Y-77600D01*
X430483D01*
X430892Y-77733D01*
X431242Y-78067D01*
G01X439733Y-81600D02*
X439850Y-80733D01*
X440025Y-80000D01*
X440258Y-79333D01*
X440550Y-78600D01*
X441017Y-77600D01*
X438683D01*
G01X444650Y-81600D02*
X445058Y-81533D01*
X445525Y-81333D01*
X445817Y-81000D01*
X445933Y-80533D01*
X445817Y-80067D01*
X445467Y-79667D01*
X444942Y-79467D01*
X444358D01*
X444008Y-79333D01*
X443717Y-79000D01*
X443600Y-78533D01*
X443775Y-78067D01*
X444183Y-77733D01*
X444650Y-77600D01*
X445117Y-77733D01*
X445525Y-78067D01*
X445700Y-78533D01*
X445583Y-79000D01*
X445292Y-79333D01*
X444942Y-79467D01*
X444358D01*
X443833Y-79667D01*
X443483Y-80067D01*
X443367Y-80533D01*
X443483Y-81000D01*
X443775Y-81333D01*
X444242Y-81533D01*
X444650Y-81600D01*
G01X449333D02*
X449450Y-80733D01*
X449625Y-80000D01*
X449858Y-79333D01*
X450150Y-78600D01*
X450617Y-77600D01*
X448283D01*
G01X452967Y-80800D02*
X453317Y-81267D01*
X453783Y-81533D01*
X454308Y-81600D01*
X454775Y-81533D01*
X455242Y-81200D01*
X455533Y-80800D01*
X455592Y-80400D01*
X455475Y-79933D01*
X455067Y-79600D01*
X454658Y-79467D01*
X454133D01*
G01X454658D02*
X455008Y-79267D01*
X455300Y-78933D01*
X455417Y-78533D01*
X455300Y-78133D01*
X455008Y-77800D01*
X454483Y-77600D01*
X453958Y-77667D01*
X453433Y-77933D01*
G01X457767Y-81000D02*
X458117Y-81333D01*
X458525Y-81533D01*
X459050Y-81600D01*
X459575Y-81467D01*
X459983Y-81200D01*
X460275Y-80733D01*
X460333Y-80200D01*
X460217Y-79667D01*
X459925Y-79333D01*
X459517Y-79067D01*
X459108Y-79000D01*
X458700Y-79067D01*
X458175Y-79333D01*
X458350Y-77600D01*
X459925D01*
G01X467367D02*
Y-80467D01*
X467600Y-81067D01*
X468067Y-81467D01*
X468650Y-81600D01*
X469233Y-81467D01*
X469700Y-81067D01*
X469933Y-80467D01*
Y-77600D01*
G01X472225Y-81067D02*
X472692Y-81400D01*
X473217Y-81600D01*
X473683D01*
X474150Y-81400D01*
X474500Y-81067D01*
X474675Y-80600D01*
X474558Y-80133D01*
X474267Y-79733D01*
X473742Y-79467D01*
X473042Y-79333D01*
X472633Y-79067D01*
X472458Y-78600D01*
X472575Y-78133D01*
X472867Y-77800D01*
X473275Y-77600D01*
X473683D01*
X474092Y-77733D01*
X474442Y-78067D01*
G01X476792Y-81600D02*
X478250Y-77600D01*
X479708Y-81600D01*
G01X479183Y-80200D02*
X477317D01*
G01X371542Y-72933D02*
X371950Y-72467D01*
X372300Y-72200D01*
X372767Y-72067D01*
X373175Y-72200D01*
X373467Y-72467D01*
X373700Y-72867D01*
X373758Y-73333D01*
X373700Y-73733D01*
X373467Y-74133D01*
X373117Y-74467D01*
X372708Y-74600D01*
X372242Y-74467D01*
X371833Y-74067D01*
X371600Y-73467D01*
X371542Y-72800D01*
X371658Y-71933D01*
X371833Y-71467D01*
X372125Y-71000D01*
X372533Y-70667D01*
X372942Y-70600D01*
X373350Y-70733D01*
X373642Y-71067D01*
G01X376167Y-74000D02*
X376517Y-74333D01*
X376925Y-74533D01*
X377450Y-74600D01*
X377975Y-74467D01*
X378383Y-74200D01*
X378675Y-73733D01*
X378733Y-73200D01*
X378617Y-72667D01*
X378325Y-72333D01*
X377917Y-72067D01*
X377508Y-72000D01*
X377100Y-72067D01*
X376575Y-72333D01*
X376750Y-70600D01*
X378325D01*
G01X382250D02*
X381783Y-70733D01*
X381433Y-71067D01*
X381200Y-71467D01*
X381025Y-72000D01*
X380967Y-72600D01*
X381025Y-73200D01*
X381200Y-73733D01*
X381433Y-74133D01*
X381783Y-74467D01*
X382250Y-74600D01*
X382717Y-74467D01*
X383067Y-74133D01*
X383300Y-73733D01*
X383475Y-73200D01*
X383533Y-72600D01*
X383475Y-72000D01*
X383300Y-71467D01*
X383067Y-71067D01*
X382717Y-70733D01*
X382250Y-70600D01*
G01X387050Y-74600D02*
Y-70600D01*
X386350Y-71400D01*
G01Y-74600D02*
X387750D01*
G01X394900Y-70600D02*
X395717Y-74600D01*
X396650Y-70600D01*
X397583Y-74600D01*
X398400Y-70600D01*
G01X400750D02*
X402150D01*
G01X401450D02*
Y-74600D01*
G01X400750D02*
X402150D01*
G01X405083Y-70600D02*
Y-74600D01*
X407417D01*
G01X409883Y-70600D02*
Y-74600D01*
X412217D01*
G01X415150Y-70600D02*
X416550D01*
G01X415850D02*
Y-74600D01*
G01X415150D02*
X416550D01*
G01X419192D02*
X420650Y-70600D01*
X422108Y-74600D01*
G01X421583Y-73200D02*
X419717D01*
G01X423933Y-74600D02*
Y-70600D01*
X425450Y-73933D01*
X426967Y-70600D01*
Y-74600D01*
G01X436333Y-70933D02*
X435983Y-70733D01*
X435575Y-70600D01*
X435108D01*
X434583Y-70800D01*
X434175Y-71133D01*
X433883Y-71533D01*
X433650Y-72200D01*
X433592Y-72800D01*
X433708Y-73400D01*
X433883Y-73800D01*
X434233Y-74200D01*
X434642Y-74467D01*
X435050Y-74600D01*
X435458D01*
X435867Y-74467D01*
X436217Y-74267D01*
X436508Y-74000D01*
G01X438392Y-74600D02*
X439850Y-70600D01*
X441308Y-74600D01*
G01X440783Y-73200D02*
X438917D01*
G01X443308Y-74600D02*
Y-70600D01*
X445992Y-74600D01*
Y-70600D01*
G01X448108Y-74600D02*
Y-70600D01*
X450792Y-74600D01*
Y-70600D01*
G01X454250Y-74600D02*
X453783Y-74533D01*
X453375Y-74267D01*
X453025Y-73867D01*
X452792Y-73400D01*
X452675Y-72867D01*
Y-72333D01*
X452792Y-71800D01*
X453025Y-71333D01*
X453375Y-70933D01*
X453783Y-70667D01*
X454250Y-70600D01*
X454717Y-70667D01*
X455125Y-70933D01*
X455475Y-71333D01*
X455708Y-71800D01*
X455825Y-72333D01*
Y-72867D01*
X455708Y-73400D01*
X455475Y-73867D01*
X455125Y-74267D01*
X454717Y-74533D01*
X454250Y-74600D01*
G01X457708D02*
Y-70600D01*
X460392Y-74600D01*
Y-70600D01*
G01X467367Y-74600D02*
Y-70600D01*
X468533D01*
X469000Y-70800D01*
X469350Y-71067D01*
X469642Y-71467D01*
X469875Y-71933D01*
X469933Y-72600D01*
X469875Y-73267D01*
X469642Y-73733D01*
X469350Y-74133D01*
X469000Y-74400D01*
X468533Y-74600D01*
X467367D01*
G01X472283D02*
Y-70600D01*
X473742D01*
X474208Y-70800D01*
X474500Y-71067D01*
X474617Y-71600D01*
X474500Y-72133D01*
X474150Y-72467D01*
X473742Y-72667D01*
X472283D01*
G01X473742D02*
X474617Y-74600D01*
G01X477550Y-70600D02*
X478950D01*
G01X478250D02*
Y-74600D01*
G01X477550D02*
X478950D01*
G01X481592Y-70600D02*
X483050Y-74600D01*
X484508Y-70600D01*
G01X489017Y-74600D02*
X486683D01*
Y-70600D01*
X489017D01*
G01X488083Y-72533D02*
X486683D01*
G01X495700Y-70600D02*
X496517Y-74600D01*
X497450Y-70600D01*
X498383Y-74600D01*
X499200Y-70600D01*
G01X503417Y-74600D02*
X501083D01*
Y-70600D01*
X503417D01*
G01X502483Y-72533D02*
X501083D01*
G01X505825Y-74067D02*
X506292Y-74400D01*
X506817Y-74600D01*
X507283D01*
X507750Y-74400D01*
X508100Y-74067D01*
X508275Y-73600D01*
X508158Y-73133D01*
X507867Y-72733D01*
X507342Y-72467D01*
X506642Y-72333D01*
X506233Y-72067D01*
X506058Y-71600D01*
X506175Y-71133D01*
X506467Y-70800D01*
X506875Y-70600D01*
X507283D01*
X507692Y-70733D01*
X508042Y-71067D01*
G01X511850Y-70600D02*
Y-74600D01*
G01X510508Y-70600D02*
X513192D01*
G01X371553Y-65600D02*
Y-58100D01*
X375847Y-65600D01*
Y-58100D01*
G01X379240Y-65600D02*
X383160Y-58100D01*
G01X379240D02*
X383160Y-65600D01*
G01X386833D02*
Y-58100D01*
X389073D01*
X389820Y-58475D01*
X390380Y-59350D01*
X390567Y-60350D01*
X390380Y-61350D01*
X389913Y-62100D01*
X389073Y-62475D01*
X386833D01*
G01X401740Y-64600D02*
X402487Y-65225D01*
X403327Y-65600D01*
X404073D01*
X404820Y-65225D01*
X405380Y-64600D01*
X405660Y-63725D01*
X405473Y-62850D01*
X405007Y-62100D01*
X404167Y-61600D01*
X403047Y-61350D01*
X402393Y-60850D01*
X402113Y-59975D01*
X402300Y-59100D01*
X402767Y-58475D01*
X403420Y-58100D01*
X404073D01*
X404727Y-58350D01*
X405287Y-58975D01*
G01X413067Y-65600D02*
X409333D01*
Y-58100D01*
X413067D01*
G01X411573Y-61725D02*
X409333D01*
G01X416273Y-65600D02*
Y-58100D01*
X418700Y-64350D01*
X421127Y-58100D01*
Y-65600D01*
G01X425080Y-58100D02*
X427320D01*
G01X426200D02*
Y-65600D01*
G01X425080D02*
X427320D01*
G01X435753Y-58725D02*
X435193Y-58350D01*
X434540Y-58100D01*
X433793D01*
X432953Y-58475D01*
X432300Y-59100D01*
X431833Y-59850D01*
X431460Y-61100D01*
X431367Y-62225D01*
X431553Y-63350D01*
X431833Y-64100D01*
X432393Y-64850D01*
X433047Y-65350D01*
X433700Y-65600D01*
X434353D01*
X435007Y-65350D01*
X435567Y-64975D01*
X436033Y-64475D01*
G01X441200Y-65600D02*
X440453Y-65475D01*
X439800Y-64975D01*
X439240Y-64225D01*
X438867Y-63350D01*
X438680Y-62350D01*
Y-61350D01*
X438867Y-60350D01*
X439240Y-59475D01*
X439800Y-58725D01*
X440453Y-58225D01*
X441200Y-58100D01*
X441947Y-58225D01*
X442600Y-58725D01*
X443160Y-59475D01*
X443533Y-60350D01*
X443720Y-61350D01*
Y-62350D01*
X443533Y-63350D01*
X443160Y-64225D01*
X442600Y-64975D01*
X441947Y-65475D01*
X441200Y-65600D01*
G01X446553D02*
Y-58100D01*
X450847Y-65600D01*
Y-58100D01*
G01X454147Y-65600D02*
Y-58100D01*
X456013D01*
X456760Y-58475D01*
X457320Y-58975D01*
X457787Y-59725D01*
X458160Y-60600D01*
X458253Y-61850D01*
X458160Y-63100D01*
X457787Y-63975D01*
X457320Y-64725D01*
X456760Y-65225D01*
X456013Y-65600D01*
X454147D01*
G01X461647Y-58100D02*
Y-63475D01*
X462020Y-64600D01*
X462767Y-65350D01*
X463700Y-65600D01*
X464633Y-65350D01*
X465380Y-64600D01*
X465753Y-63475D01*
Y-58100D01*
G01X473253Y-58725D02*
X472693Y-58350D01*
X472040Y-58100D01*
X471293D01*
X470453Y-58475D01*
X469800Y-59100D01*
X469333Y-59850D01*
X468960Y-61100D01*
X468867Y-62225D01*
X469053Y-63350D01*
X469333Y-64100D01*
X469893Y-64850D01*
X470547Y-65350D01*
X471200Y-65600D01*
X471853D01*
X472507Y-65350D01*
X473067Y-64975D01*
X473533Y-64475D01*
G01X478700Y-58100D02*
Y-65600D01*
G01X476553Y-58100D02*
X480847D01*
G01X486200Y-65600D02*
X485453Y-65475D01*
X484800Y-64975D01*
X484240Y-64225D01*
X483867Y-63350D01*
X483680Y-62350D01*
Y-61350D01*
X483867Y-60350D01*
X484240Y-59475D01*
X484800Y-58725D01*
X485453Y-58225D01*
X486200Y-58100D01*
X486947Y-58225D01*
X487600Y-58725D01*
X488160Y-59475D01*
X488533Y-60350D01*
X488720Y-61350D01*
Y-62350D01*
X488533Y-63350D01*
X488160Y-64225D01*
X487600Y-64975D01*
X486947Y-65475D01*
X486200Y-65600D01*
G01X491833D02*
Y-58100D01*
X494167D01*
X494913Y-58475D01*
X495380Y-58975D01*
X495567Y-59975D01*
X495380Y-60975D01*
X494820Y-61600D01*
X494167Y-61975D01*
X491833D01*
G01X494167D02*
X495567Y-65600D01*
G01X499240Y-64600D02*
X499987Y-65225D01*
X500827Y-65600D01*
X501573D01*
X502320Y-65225D01*
X502880Y-64600D01*
X503160Y-63725D01*
X502973Y-62850D01*
X502507Y-62100D01*
X501667Y-61600D01*
X500547Y-61350D01*
X499893Y-60850D01*
X499613Y-59975D01*
X499800Y-59100D01*
X500267Y-58475D01*
X500920Y-58100D01*
X501573D01*
X502227Y-58350D01*
X502787Y-58975D01*
G01X377308Y-131600D02*
Y-127600D01*
X379992Y-131600D01*
Y-127600D01*
G01X382225Y-131600D02*
X384675Y-127600D01*
G01X382225D02*
X384675Y-131600D01*
G01X387083D02*
Y-127600D01*
X388483D01*
X388950Y-127800D01*
X389300Y-128267D01*
X389417Y-128800D01*
X389300Y-129333D01*
X389008Y-129733D01*
X388483Y-129933D01*
X387083D01*
G01X393050Y-131733D02*
X392933Y-131667D01*
Y-131533D01*
X393050Y-131467D01*
X393167Y-131533D01*
Y-131667D01*
X393050Y-131733D01*
G01X379650Y-123600D02*
X379183Y-123533D01*
X378775Y-123267D01*
X378425Y-122867D01*
X378192Y-122400D01*
X378075Y-121867D01*
Y-121333D01*
X378192Y-120800D01*
X378425Y-120333D01*
X378775Y-119933D01*
X379183Y-119667D01*
X379650Y-119600D01*
X380117Y-119667D01*
X380525Y-119933D01*
X380875Y-120333D01*
X381108Y-120800D01*
X381225Y-121333D01*
Y-121867D01*
X381108Y-122400D01*
X380875Y-122867D01*
X380525Y-123267D01*
X380117Y-123533D01*
X379650Y-123600D01*
G01X383283D02*
Y-119600D01*
X384742D01*
X385208Y-119800D01*
X385500Y-120067D01*
X385617Y-120600D01*
X385500Y-121133D01*
X385150Y-121467D01*
X384742Y-121667D01*
X383283D01*
G01X384742D02*
X385617Y-123600D01*
G01X393350Y-119600D02*
X394750D01*
G01X394050D02*
Y-123600D01*
G01X393350D02*
X394750D01*
G01X397508D02*
Y-119600D01*
X400192Y-123600D01*
Y-119600D01*
G01X407283Y-123600D02*
Y-119600D01*
X408683D01*
X409150Y-119800D01*
X409500Y-120267D01*
X409617Y-120800D01*
X409500Y-121333D01*
X409208Y-121733D01*
X408683Y-121933D01*
X407283D01*
G01X411792Y-123600D02*
X413250Y-119600D01*
X414708Y-123600D01*
G01X414183Y-122200D02*
X412317D01*
G01X416883Y-123600D02*
Y-119600D01*
X418342D01*
X418808Y-119800D01*
X419100Y-120067D01*
X419217Y-120600D01*
X419100Y-121133D01*
X418750Y-121467D01*
X418342Y-121667D01*
X416883D01*
G01X418342D02*
X419217Y-123600D01*
G01X422850Y-119600D02*
Y-123600D01*
G01X421508Y-119600D02*
X424192D01*
G01X430700D02*
X431517Y-123600D01*
X432450Y-119600D01*
X433383Y-123600D01*
X434200Y-119600D01*
G01X436550D02*
X437950D01*
G01X437250D02*
Y-123600D01*
G01X436550D02*
X437950D01*
G01X442050Y-119600D02*
Y-123600D01*
G01X440708Y-119600D02*
X443392D01*
G01X445625Y-123600D02*
Y-119600D01*
G01X448075D02*
Y-123600D01*
G01Y-121600D02*
X445625D01*
G01X451650Y-123600D02*
X451183Y-123533D01*
X450775Y-123267D01*
X450425Y-122867D01*
X450192Y-122400D01*
X450075Y-121867D01*
Y-121333D01*
X450192Y-120800D01*
X450425Y-120333D01*
X450775Y-119933D01*
X451183Y-119667D01*
X451650Y-119600D01*
X452117Y-119667D01*
X452525Y-119933D01*
X452875Y-120333D01*
X453108Y-120800D01*
X453225Y-121333D01*
Y-121867D01*
X453108Y-122400D01*
X452875Y-122867D01*
X452525Y-123267D01*
X452117Y-123533D01*
X451650Y-123600D01*
G01X455167Y-119600D02*
Y-122467D01*
X455400Y-123067D01*
X455867Y-123467D01*
X456450Y-123600D01*
X457033Y-123467D01*
X457500Y-123067D01*
X457733Y-122467D01*
Y-119600D01*
G01X461250D02*
Y-123600D01*
G01X459908Y-119600D02*
X462592D01*
G01X470850D02*
Y-123600D01*
G01X469508Y-119600D02*
X472192D01*
G01X474425Y-123600D02*
Y-119600D01*
G01X476875D02*
Y-123600D01*
G01Y-121600D02*
X474425D01*
G01X481617Y-123600D02*
X479283D01*
Y-119600D01*
X481617D01*
G01X480683Y-121533D02*
X479283D01*
G01X491333Y-119933D02*
X490983Y-119733D01*
X490575Y-119600D01*
X490108D01*
X489583Y-119800D01*
X489175Y-120133D01*
X488883Y-120533D01*
X488650Y-121200D01*
X488592Y-121800D01*
X488708Y-122400D01*
X488883Y-122800D01*
X489233Y-123200D01*
X489642Y-123467D01*
X490050Y-123600D01*
X490458D01*
X490867Y-123467D01*
X491217Y-123267D01*
X491508Y-123000D01*
G01X494850Y-123600D02*
X494383Y-123533D01*
X493975Y-123267D01*
X493625Y-122867D01*
X493392Y-122400D01*
X493275Y-121867D01*
Y-121333D01*
X493392Y-120800D01*
X493625Y-120333D01*
X493975Y-119933D01*
X494383Y-119667D01*
X494850Y-119600D01*
X495317Y-119667D01*
X495725Y-119933D01*
X496075Y-120333D01*
X496308Y-120800D01*
X496425Y-121333D01*
Y-121867D01*
X496308Y-122400D01*
X496075Y-122867D01*
X495725Y-123267D01*
X495317Y-123533D01*
X494850Y-123600D01*
G01X498308D02*
Y-119600D01*
X500992Y-123600D01*
Y-119600D01*
G01X503225Y-123067D02*
X503692Y-123400D01*
X504217Y-123600D01*
X504683D01*
X505150Y-123400D01*
X505500Y-123067D01*
X505675Y-122600D01*
X505558Y-122133D01*
X505267Y-121733D01*
X504742Y-121467D01*
X504042Y-121333D01*
X503633Y-121067D01*
X503458Y-120600D01*
X503575Y-120133D01*
X503867Y-119800D01*
X504275Y-119600D01*
X504683D01*
X505092Y-119733D01*
X505442Y-120067D01*
G01X510417Y-123600D02*
X508083D01*
Y-119600D01*
X510417D01*
G01X509483Y-121533D02*
X508083D01*
G01X512708Y-123600D02*
Y-119600D01*
X515392Y-123600D01*
Y-119600D01*
G01X518850D02*
Y-123600D01*
G01X517508Y-119600D02*
X520192D01*
G01X528450Y-123600D02*
X527983Y-123533D01*
X527575Y-123267D01*
X527225Y-122867D01*
X526992Y-122400D01*
X526875Y-121867D01*
Y-121333D01*
X526992Y-120800D01*
X527225Y-120333D01*
X527575Y-119933D01*
X527983Y-119667D01*
X528450Y-119600D01*
X528917Y-119667D01*
X529325Y-119933D01*
X529675Y-120333D01*
X529908Y-120800D01*
X530025Y-121333D01*
Y-121867D01*
X529908Y-122400D01*
X529675Y-122867D01*
X529325Y-123267D01*
X528917Y-123533D01*
X528450Y-123600D01*
G01X532142D02*
Y-119600D01*
X534358D01*
G01X533542Y-121533D02*
X532142D01*
G01X378483Y-115600D02*
Y-111600D01*
X379883D01*
X380350Y-111800D01*
X380700Y-112267D01*
X380817Y-112800D01*
X380700Y-113333D01*
X380408Y-113733D01*
X379883Y-113933D01*
X378483D01*
G01X383283Y-115600D02*
Y-111600D01*
X384742D01*
X385208Y-111800D01*
X385500Y-112067D01*
X385617Y-112600D01*
X385500Y-113133D01*
X385150Y-113467D01*
X384742Y-113667D01*
X383283D01*
G01X384742D02*
X385617Y-115600D01*
G01X389250D02*
X388783Y-115533D01*
X388375Y-115267D01*
X388025Y-114867D01*
X387792Y-114400D01*
X387675Y-113867D01*
Y-113333D01*
X387792Y-112800D01*
X388025Y-112333D01*
X388375Y-111933D01*
X388783Y-111667D01*
X389250Y-111600D01*
X389717Y-111667D01*
X390125Y-111933D01*
X390475Y-112333D01*
X390708Y-112800D01*
X390825Y-113333D01*
Y-113867D01*
X390708Y-114400D01*
X390475Y-114867D01*
X390125Y-115267D01*
X389717Y-115533D01*
X389250Y-115600D01*
G01X395333Y-111933D02*
X394983Y-111733D01*
X394575Y-111600D01*
X394108D01*
X393583Y-111800D01*
X393175Y-112133D01*
X392883Y-112533D01*
X392650Y-113200D01*
X392592Y-113800D01*
X392708Y-114400D01*
X392883Y-114800D01*
X393233Y-115200D01*
X393642Y-115467D01*
X394050Y-115600D01*
X394458D01*
X394867Y-115467D01*
X395217Y-115267D01*
X395508Y-115000D01*
G01X397567Y-111600D02*
Y-114467D01*
X397800Y-115067D01*
X398267Y-115467D01*
X398850Y-115600D01*
X399433Y-115467D01*
X399900Y-115067D01*
X400133Y-114467D01*
Y-111600D01*
G01X402483Y-115600D02*
Y-111600D01*
X403942D01*
X404408Y-111800D01*
X404700Y-112067D01*
X404817Y-112600D01*
X404700Y-113133D01*
X404350Y-113467D01*
X403942Y-113667D01*
X402483D01*
G01X403942D02*
X404817Y-115600D01*
G01X409617D02*
X407283D01*
Y-111600D01*
X409617D01*
G01X408683Y-113533D02*
X407283D01*
G01X411733Y-115600D02*
Y-111600D01*
X413250Y-114933D01*
X414767Y-111600D01*
Y-115600D01*
G01X419217D02*
X416883D01*
Y-111600D01*
X419217D01*
G01X418283Y-113533D02*
X416883D01*
G01X421508Y-115600D02*
Y-111600D01*
X424192Y-115600D01*
Y-111600D01*
G01X427650D02*
Y-115600D01*
G01X426308Y-111600D02*
X428992D01*
G01X437250Y-115600D02*
X436783Y-115533D01*
X436375Y-115267D01*
X436025Y-114867D01*
X435792Y-114400D01*
X435675Y-113867D01*
Y-113333D01*
X435792Y-112800D01*
X436025Y-112333D01*
X436375Y-111933D01*
X436783Y-111667D01*
X437250Y-111600D01*
X437717Y-111667D01*
X438125Y-111933D01*
X438475Y-112333D01*
X438708Y-112800D01*
X438825Y-113333D01*
Y-113867D01*
X438708Y-114400D01*
X438475Y-114867D01*
X438125Y-115267D01*
X437717Y-115533D01*
X437250Y-115600D01*
G01X440883D02*
Y-111600D01*
X442342D01*
X442808Y-111800D01*
X443100Y-112067D01*
X443217Y-112600D01*
X443100Y-113133D01*
X442750Y-113467D01*
X442342Y-113667D01*
X440883D01*
G01X442342D02*
X443217Y-115600D01*
G01X450133D02*
Y-111600D01*
X451650Y-114933D01*
X453167Y-111600D01*
Y-115600D01*
G01X454992D02*
X456450Y-111600D01*
X457908Y-115600D01*
G01X457383Y-114200D02*
X455517D01*
G01X459908Y-115600D02*
Y-111600D01*
X462592Y-115600D01*
Y-111600D01*
G01X464767D02*
Y-114467D01*
X465000Y-115067D01*
X465467Y-115467D01*
X466050Y-115600D01*
X466633Y-115467D01*
X467100Y-115067D01*
X467333Y-114467D01*
Y-111600D01*
G01X469742Y-115600D02*
Y-111600D01*
X471958D01*
G01X471142Y-113533D02*
X469742D01*
G01X474192Y-115600D02*
X475650Y-111600D01*
X477108Y-115600D01*
G01X476583Y-114200D02*
X474717D01*
G01X481733Y-111933D02*
X481383Y-111733D01*
X480975Y-111600D01*
X480508D01*
X479983Y-111800D01*
X479575Y-112133D01*
X479283Y-112533D01*
X479050Y-113200D01*
X478992Y-113800D01*
X479108Y-114400D01*
X479283Y-114800D01*
X479633Y-115200D01*
X480042Y-115467D01*
X480450Y-115600D01*
X480858D01*
X481267Y-115467D01*
X481617Y-115267D01*
X481908Y-115000D01*
G01X485250Y-111600D02*
Y-115600D01*
G01X483908Y-111600D02*
X486592D01*
G01X488767D02*
Y-114467D01*
X489000Y-115067D01*
X489467Y-115467D01*
X490050Y-115600D01*
X490633Y-115467D01*
X491100Y-115067D01*
X491333Y-114467D01*
Y-111600D01*
G01X493683Y-115600D02*
Y-111600D01*
X495142D01*
X495608Y-111800D01*
X495900Y-112067D01*
X496017Y-112600D01*
X495900Y-113133D01*
X495550Y-113467D01*
X495142Y-113667D01*
X493683D01*
G01X495142D02*
X496017Y-115600D01*
G01X500817D02*
X498483D01*
Y-111600D01*
X500817D01*
G01X499883Y-113533D02*
X498483D01*
G01X508550Y-111600D02*
X509950D01*
G01X509250D02*
Y-115600D01*
G01X508550D02*
X509950D01*
G01X512708D02*
Y-111600D01*
X515392Y-115600D01*
Y-111600D01*
G01X521900D02*
X522717Y-115600D01*
X523650Y-111600D01*
X524583Y-115600D01*
X525400Y-111600D01*
G01X527225Y-115600D02*
Y-111600D01*
G01X529675D02*
Y-115600D01*
G01Y-113600D02*
X527225D01*
G01X533250Y-115600D02*
X532783Y-115533D01*
X532375Y-115267D01*
X532025Y-114867D01*
X531792Y-114400D01*
X531675Y-113867D01*
Y-113333D01*
X531792Y-112800D01*
X532025Y-112333D01*
X532375Y-111933D01*
X532783Y-111667D01*
X533250Y-111600D01*
X533717Y-111667D01*
X534125Y-111933D01*
X534475Y-112333D01*
X534708Y-112800D01*
X534825Y-113333D01*
Y-113867D01*
X534708Y-114400D01*
X534475Y-114867D01*
X534125Y-115267D01*
X533717Y-115533D01*
X533250Y-115600D01*
G01X536883Y-111600D02*
Y-115600D01*
X539217D01*
G01X544017D02*
X541683D01*
Y-111600D01*
X544017D01*
G01X543083Y-113533D02*
X541683D01*
G01X379117Y-105467D02*
X379350Y-105267D01*
X379525Y-104933D01*
X379642Y-104467D01*
X379525Y-104067D01*
X379292Y-103800D01*
X378883Y-103600D01*
X377308D01*
Y-107600D01*
X379233D01*
X379642Y-107333D01*
X379875Y-106933D01*
X379992Y-106467D01*
X379875Y-106000D01*
X379525Y-105600D01*
X379117Y-105467D01*
X377308D01*
G01X384617Y-107600D02*
X382283D01*
Y-103600D01*
X384617D01*
G01X383683Y-105533D02*
X382283D01*
G01X391767Y-103600D02*
Y-106467D01*
X392000Y-107067D01*
X392467Y-107467D01*
X393050Y-107600D01*
X393633Y-107467D01*
X394100Y-107067D01*
X394333Y-106467D01*
Y-103600D01*
G01X396625Y-107067D02*
X397092Y-107400D01*
X397617Y-107600D01*
X398083D01*
X398550Y-107400D01*
X398900Y-107067D01*
X399075Y-106600D01*
X398958Y-106133D01*
X398667Y-105733D01*
X398142Y-105467D01*
X397442Y-105333D01*
X397033Y-105067D01*
X396858Y-104600D01*
X396975Y-104133D01*
X397267Y-103800D01*
X397675Y-103600D01*
X398083D01*
X398492Y-103733D01*
X398842Y-104067D01*
G01X403817Y-107600D02*
X401483D01*
Y-103600D01*
X403817D01*
G01X402883Y-105533D02*
X401483D01*
G01X406167Y-107600D02*
Y-103600D01*
X407333D01*
X407800Y-103800D01*
X408150Y-104067D01*
X408442Y-104467D01*
X408675Y-104933D01*
X408733Y-105600D01*
X408675Y-106267D01*
X408442Y-106733D01*
X408150Y-107133D01*
X407800Y-107400D01*
X407333Y-107600D01*
X406167D01*
G01X415942D02*
Y-103600D01*
X418158D01*
G01X417342Y-105533D02*
X415942D01*
G01X421850Y-107600D02*
X421383Y-107533D01*
X420975Y-107267D01*
X420625Y-106867D01*
X420392Y-106400D01*
X420275Y-105867D01*
Y-105333D01*
X420392Y-104800D01*
X420625Y-104333D01*
X420975Y-103933D01*
X421383Y-103667D01*
X421850Y-103600D01*
X422317Y-103667D01*
X422725Y-103933D01*
X423075Y-104333D01*
X423308Y-104800D01*
X423425Y-105333D01*
Y-105867D01*
X423308Y-106400D01*
X423075Y-106867D01*
X422725Y-107267D01*
X422317Y-107533D01*
X421850Y-107600D01*
G01X425483D02*
Y-103600D01*
X426942D01*
X427408Y-103800D01*
X427700Y-104067D01*
X427817Y-104600D01*
X427700Y-105133D01*
X427350Y-105467D01*
X426942Y-105667D01*
X425483D01*
G01X426942D02*
X427817Y-107600D01*
G01X437417D02*
X435083D01*
Y-103600D01*
X437417D01*
G01X436483Y-105533D02*
X435083D01*
G01X439708Y-107600D02*
Y-103600D01*
X442392Y-107600D01*
Y-103600D01*
G01X446200Y-105600D02*
X447367D01*
Y-106800D01*
X447017Y-107200D01*
X446608Y-107467D01*
X446025Y-107600D01*
X445442Y-107467D01*
X445033Y-107200D01*
X444683Y-106800D01*
X444450Y-106333D01*
X444333Y-105800D01*
Y-105333D01*
X444450Y-104933D01*
X444683Y-104467D01*
X445033Y-104067D01*
X445383Y-103800D01*
X445850Y-103600D01*
X446258D01*
X446725Y-103733D01*
X447075Y-104000D01*
G01X449950Y-103600D02*
X451350D01*
G01X450650D02*
Y-107600D01*
G01X449950D02*
X451350D01*
G01X454108D02*
Y-103600D01*
X456792Y-107600D01*
Y-103600D01*
G01X461417Y-107600D02*
X459083D01*
Y-103600D01*
X461417D01*
G01X460483Y-105533D02*
X459083D01*
G01X466217Y-107600D02*
X463883D01*
Y-103600D01*
X466217D01*
G01X465283Y-105533D02*
X463883D01*
G01X468683Y-107600D02*
Y-103600D01*
X470142D01*
X470608Y-103800D01*
X470900Y-104067D01*
X471017Y-104600D01*
X470900Y-105133D01*
X470550Y-105467D01*
X470142Y-105667D01*
X468683D01*
G01X470142D02*
X471017Y-107600D01*
G01X473950Y-103600D02*
X475350D01*
G01X474650D02*
Y-107600D01*
G01X473950D02*
X475350D01*
G01X478108D02*
Y-103600D01*
X480792Y-107600D01*
Y-103600D01*
G01X484600Y-105600D02*
X485767D01*
Y-106800D01*
X485417Y-107200D01*
X485008Y-107467D01*
X484425Y-107600D01*
X483842Y-107467D01*
X483433Y-107200D01*
X483083Y-106800D01*
X482850Y-106333D01*
X482733Y-105800D01*
Y-105333D01*
X482850Y-104933D01*
X483083Y-104467D01*
X483433Y-104067D01*
X483783Y-103800D01*
X484250Y-103600D01*
X484658D01*
X485125Y-103733D01*
X485475Y-104000D01*
G01X492567Y-107600D02*
Y-103600D01*
X493733D01*
X494200Y-103800D01*
X494550Y-104067D01*
X494842Y-104467D01*
X495075Y-104933D01*
X495133Y-105600D01*
X495075Y-106267D01*
X494842Y-106733D01*
X494550Y-107133D01*
X494200Y-107400D01*
X493733Y-107600D01*
X492567D01*
G01X499817D02*
X497483D01*
Y-103600D01*
X499817D01*
G01X498883Y-105533D02*
X497483D01*
G01X502225Y-107067D02*
X502692Y-107400D01*
X503217Y-107600D01*
X503683D01*
X504150Y-107400D01*
X504500Y-107067D01*
X504675Y-106600D01*
X504558Y-106133D01*
X504267Y-105733D01*
X503742Y-105467D01*
X503042Y-105333D01*
X502633Y-105067D01*
X502458Y-104600D01*
X502575Y-104133D01*
X502867Y-103800D01*
X503275Y-103600D01*
X503683D01*
X504092Y-103733D01*
X504442Y-104067D01*
G01X507550Y-103600D02*
X508950D01*
G01X508250D02*
Y-107600D01*
G01X507550D02*
X508950D01*
G01X513400Y-105600D02*
X514567D01*
Y-106800D01*
X514217Y-107200D01*
X513808Y-107467D01*
X513225Y-107600D01*
X512642Y-107467D01*
X512233Y-107200D01*
X511883Y-106800D01*
X511650Y-106333D01*
X511533Y-105800D01*
Y-105333D01*
X511650Y-104933D01*
X511883Y-104467D01*
X512233Y-104067D01*
X512583Y-103800D01*
X513050Y-103600D01*
X513458D01*
X513925Y-103733D01*
X514275Y-104000D01*
G01X516508Y-107600D02*
Y-103600D01*
X519192Y-107600D01*
Y-103600D01*
G01X377483Y-99600D02*
Y-95600D01*
X378883D01*
X379350Y-95800D01*
X379700Y-96267D01*
X379817Y-96800D01*
X379700Y-97333D01*
X379408Y-97733D01*
X378883Y-97933D01*
X377483D01*
G01X382283Y-99600D02*
Y-95600D01*
X383742D01*
X384208Y-95800D01*
X384500Y-96067D01*
X384617Y-96600D01*
X384500Y-97133D01*
X384150Y-97467D01*
X383742Y-97667D01*
X382283D01*
G01X383742D02*
X384617Y-99600D01*
G01X388250D02*
X387783Y-99533D01*
X387375Y-99267D01*
X387025Y-98867D01*
X386792Y-98400D01*
X386675Y-97867D01*
Y-97333D01*
X386792Y-96800D01*
X387025Y-96333D01*
X387375Y-95933D01*
X387783Y-95667D01*
X388250Y-95600D01*
X388717Y-95667D01*
X389125Y-95933D01*
X389475Y-96333D01*
X389708Y-96800D01*
X389825Y-97333D01*
Y-97867D01*
X389708Y-98400D01*
X389475Y-98867D01*
X389125Y-99267D01*
X388717Y-99533D01*
X388250Y-99600D01*
G01X391883D02*
Y-95600D01*
X393283D01*
X393750Y-95800D01*
X394100Y-96267D01*
X394217Y-96800D01*
X394100Y-97333D01*
X393808Y-97733D01*
X393283Y-97933D01*
X391883D01*
G01X396683Y-99600D02*
Y-95600D01*
X398142D01*
X398608Y-95800D01*
X398900Y-96067D01*
X399017Y-96600D01*
X398900Y-97133D01*
X398550Y-97467D01*
X398142Y-97667D01*
X396683D01*
G01X398142D02*
X399017Y-99600D01*
G01X401950Y-95600D02*
X403350D01*
G01X402650D02*
Y-99600D01*
G01X401950D02*
X403350D01*
G01X408617D02*
X406283D01*
Y-95600D01*
X408617D01*
G01X407683Y-97533D02*
X406283D01*
G01X412250Y-95600D02*
Y-99600D01*
G01X410908Y-95600D02*
X413592D01*
G01X415592Y-99600D02*
X417050Y-95600D01*
X418508Y-99600D01*
G01X417983Y-98200D02*
X416117D01*
G01X420683Y-99600D02*
Y-95600D01*
X422142D01*
X422608Y-95800D01*
X422900Y-96067D01*
X423017Y-96600D01*
X422900Y-97133D01*
X422550Y-97467D01*
X422142Y-97667D01*
X420683D01*
G01X422142D02*
X423017Y-99600D01*
G01X426650D02*
Y-97800D01*
X425483Y-95600D01*
G01X427817D02*
X426650Y-97800D01*
G01X436250Y-95600D02*
Y-99600D01*
G01X434908Y-95600D02*
X437592D01*
G01X441050Y-99600D02*
X440583Y-99533D01*
X440175Y-99267D01*
X439825Y-98867D01*
X439592Y-98400D01*
X439475Y-97867D01*
Y-97333D01*
X439592Y-96800D01*
X439825Y-96333D01*
X440175Y-95933D01*
X440583Y-95667D01*
X441050Y-95600D01*
X441517Y-95667D01*
X441925Y-95933D01*
X442275Y-96333D01*
X442508Y-96800D01*
X442625Y-97333D01*
Y-97867D01*
X442508Y-98400D01*
X442275Y-98867D01*
X441925Y-99267D01*
X441517Y-99533D01*
X441050Y-99600D01*
G01X449308D02*
Y-95600D01*
X451992Y-99600D01*
Y-95600D01*
G01X454225Y-99600D02*
X456675Y-95600D01*
G01X454225D02*
X456675Y-99600D01*
G01X459083D02*
Y-95600D01*
X460483D01*
X460950Y-95800D01*
X461300Y-96267D01*
X461417Y-96800D01*
X461300Y-97333D01*
X461008Y-97733D01*
X460483Y-97933D01*
X459083D01*
G01X468392Y-99600D02*
X469850Y-95600D01*
X471308Y-99600D01*
G01X470783Y-98200D02*
X468917D01*
G01X473308Y-99600D02*
Y-95600D01*
X475992Y-99600D01*
Y-95600D01*
G01X478167Y-99600D02*
Y-95600D01*
X479333D01*
X479800Y-95800D01*
X480150Y-96067D01*
X480442Y-96467D01*
X480675Y-96933D01*
X480733Y-97600D01*
X480675Y-98267D01*
X480442Y-98733D01*
X480150Y-99133D01*
X479800Y-99400D01*
X479333Y-99600D01*
X478167D01*
G01X487825Y-99067D02*
X488292Y-99400D01*
X488817Y-99600D01*
X489283D01*
X489750Y-99400D01*
X490100Y-99067D01*
X490275Y-98600D01*
X490158Y-98133D01*
X489867Y-97733D01*
X489342Y-97467D01*
X488642Y-97333D01*
X488233Y-97067D01*
X488058Y-96600D01*
X488175Y-96133D01*
X488467Y-95800D01*
X488875Y-95600D01*
X489283D01*
X489692Y-95733D01*
X490042Y-96067D01*
G01X492625Y-99600D02*
Y-95600D01*
G01X495075D02*
Y-99600D01*
G01Y-97600D02*
X492625D01*
G01X497192Y-99600D02*
X498650Y-95600D01*
X500108Y-99600D01*
G01X499583Y-98200D02*
X497717D01*
G01X502283Y-95600D02*
Y-99600D01*
X504617D01*
G01X507083Y-95600D02*
Y-99600D01*
X509417D01*
G01X516508D02*
Y-95600D01*
X519192Y-99600D01*
Y-95600D01*
G01X522650Y-99600D02*
X522183Y-99533D01*
X521775Y-99267D01*
X521425Y-98867D01*
X521192Y-98400D01*
X521075Y-97867D01*
Y-97333D01*
X521192Y-96800D01*
X521425Y-96333D01*
X521775Y-95933D01*
X522183Y-95667D01*
X522650Y-95600D01*
X523117Y-95667D01*
X523525Y-95933D01*
X523875Y-96333D01*
X524108Y-96800D01*
X524225Y-97333D01*
Y-97867D01*
X524108Y-98400D01*
X523875Y-98867D01*
X523525Y-99267D01*
X523117Y-99533D01*
X522650Y-99600D01*
G01X527450Y-95600D02*
Y-99600D01*
G01X526108Y-95600D02*
X528792D01*
G01X378650Y-87600D02*
Y-91600D01*
G01X377308Y-87600D02*
X379992D01*
G01X382225Y-91600D02*
Y-87600D01*
G01X384675D02*
Y-91600D01*
G01Y-89600D02*
X382225D01*
G01X387550Y-87600D02*
X388950D01*
G01X388250D02*
Y-91600D01*
G01X387550D02*
X388950D01*
G01X391825Y-91067D02*
X392292Y-91400D01*
X392817Y-91600D01*
X393283D01*
X393750Y-91400D01*
X394100Y-91067D01*
X394275Y-90600D01*
X394158Y-90133D01*
X393867Y-89733D01*
X393342Y-89467D01*
X392642Y-89333D01*
X392233Y-89067D01*
X392058Y-88600D01*
X392175Y-88133D01*
X392467Y-87800D01*
X392875Y-87600D01*
X393283D01*
X393692Y-87733D01*
X394042Y-88067D01*
G01X401367Y-91600D02*
Y-87600D01*
X402533D01*
X403000Y-87800D01*
X403350Y-88067D01*
X403642Y-88467D01*
X403875Y-88933D01*
X403933Y-89600D01*
X403875Y-90267D01*
X403642Y-90733D01*
X403350Y-91133D01*
X403000Y-91400D01*
X402533Y-91600D01*
X401367D01*
G01X407450D02*
X406983Y-91533D01*
X406575Y-91267D01*
X406225Y-90867D01*
X405992Y-90400D01*
X405875Y-89867D01*
Y-89333D01*
X405992Y-88800D01*
X406225Y-88333D01*
X406575Y-87933D01*
X406983Y-87667D01*
X407450Y-87600D01*
X407917Y-87667D01*
X408325Y-87933D01*
X408675Y-88333D01*
X408908Y-88800D01*
X409025Y-89333D01*
Y-89867D01*
X408908Y-90400D01*
X408675Y-90867D01*
X408325Y-91267D01*
X407917Y-91533D01*
X407450Y-91600D01*
G01X413533Y-87933D02*
X413183Y-87733D01*
X412775Y-87600D01*
X412308D01*
X411783Y-87800D01*
X411375Y-88133D01*
X411083Y-88533D01*
X410850Y-89200D01*
X410792Y-89800D01*
X410908Y-90400D01*
X411083Y-90800D01*
X411433Y-91200D01*
X411842Y-91467D01*
X412250Y-91600D01*
X412658D01*
X413067Y-91467D01*
X413417Y-91267D01*
X413708Y-91000D01*
G01X415767Y-87600D02*
Y-90467D01*
X416000Y-91067D01*
X416467Y-91467D01*
X417050Y-91600D01*
X417633Y-91467D01*
X418100Y-91067D01*
X418333Y-90467D01*
Y-87600D01*
G01X420333Y-91600D02*
Y-87600D01*
X421850Y-90933D01*
X423367Y-87600D01*
Y-91600D01*
G01X427817D02*
X425483D01*
Y-87600D01*
X427817D01*
G01X426883Y-89533D02*
X425483D01*
G01X430108Y-91600D02*
Y-87600D01*
X432792Y-91600D01*
Y-87600D01*
G01X436250D02*
Y-91600D01*
G01X434908Y-87600D02*
X437592D01*
G01X447133Y-87933D02*
X446783Y-87733D01*
X446375Y-87600D01*
X445908D01*
X445383Y-87800D01*
X444975Y-88133D01*
X444683Y-88533D01*
X444450Y-89200D01*
X444392Y-89800D01*
X444508Y-90400D01*
X444683Y-90800D01*
X445033Y-91200D01*
X445442Y-91467D01*
X445850Y-91600D01*
X446258D01*
X446667Y-91467D01*
X447017Y-91267D01*
X447308Y-91000D01*
G01X450650Y-91600D02*
X450183Y-91533D01*
X449775Y-91267D01*
X449425Y-90867D01*
X449192Y-90400D01*
X449075Y-89867D01*
Y-89333D01*
X449192Y-88800D01*
X449425Y-88333D01*
X449775Y-87933D01*
X450183Y-87667D01*
X450650Y-87600D01*
X451117Y-87667D01*
X451525Y-87933D01*
X451875Y-88333D01*
X452108Y-88800D01*
X452225Y-89333D01*
Y-89867D01*
X452108Y-90400D01*
X451875Y-90867D01*
X451525Y-91267D01*
X451117Y-91533D01*
X450650Y-91600D01*
G01X454108D02*
Y-87600D01*
X456792Y-91600D01*
Y-87600D01*
G01X460250D02*
Y-91600D01*
G01X458908Y-87600D02*
X461592D01*
G01X463592Y-91600D02*
X465050Y-87600D01*
X466508Y-91600D01*
G01X465983Y-90200D02*
X464117D01*
G01X469150Y-87600D02*
X470550D01*
G01X469850D02*
Y-91600D01*
G01X469150D02*
X470550D01*
G01X473308D02*
Y-87600D01*
X475992Y-91600D01*
Y-87600D01*
G01X478225Y-91067D02*
X478692Y-91400D01*
X479217Y-91600D01*
X479683D01*
X480150Y-91400D01*
X480500Y-91067D01*
X480675Y-90600D01*
X480558Y-90133D01*
X480267Y-89733D01*
X479742Y-89467D01*
X479042Y-89333D01*
X478633Y-89067D01*
X478458Y-88600D01*
X478575Y-88133D01*
X478867Y-87800D01*
X479275Y-87600D01*
X479683D01*
X480092Y-87733D01*
X480442Y-88067D01*
G01X488350Y-87600D02*
X489750D01*
G01X489050D02*
Y-91600D01*
G01X488350D02*
X489750D01*
G01X492508D02*
Y-87600D01*
X495192Y-91600D01*
Y-87600D01*
G01X497542Y-91600D02*
Y-87600D01*
X499758D01*
G01X498942Y-89533D02*
X497542D01*
G01X503450Y-91600D02*
X502983Y-91533D01*
X502575Y-91267D01*
X502225Y-90867D01*
X501992Y-90400D01*
X501875Y-89867D01*
Y-89333D01*
X501992Y-88800D01*
X502225Y-88333D01*
X502575Y-87933D01*
X502983Y-87667D01*
X503450Y-87600D01*
X503917Y-87667D01*
X504325Y-87933D01*
X504675Y-88333D01*
X504908Y-88800D01*
X505025Y-89333D01*
Y-89867D01*
X504908Y-90400D01*
X504675Y-90867D01*
X504325Y-91267D01*
X503917Y-91533D01*
X503450Y-91600D01*
G01X507083D02*
Y-87600D01*
X508542D01*
X509008Y-87800D01*
X509300Y-88067D01*
X509417Y-88600D01*
X509300Y-89133D01*
X508950Y-89467D01*
X508542Y-89667D01*
X507083D01*
G01X508542D02*
X509417Y-91600D01*
G01X511533D02*
Y-87600D01*
X513050Y-90933D01*
X514567Y-87600D01*
Y-91600D01*
G01X516392D02*
X517850Y-87600D01*
X519308Y-91600D01*
G01X518783Y-90200D02*
X516917D01*
G01X522650Y-87600D02*
Y-91600D01*
G01X521308Y-87600D02*
X523992D01*
G01X526750D02*
X528150D01*
G01X527450D02*
Y-91600D01*
G01X526750D02*
X528150D01*
G01X532250D02*
X531783Y-91533D01*
X531375Y-91267D01*
X531025Y-90867D01*
X530792Y-90400D01*
X530675Y-89867D01*
Y-89333D01*
X530792Y-88800D01*
X531025Y-88333D01*
X531375Y-87933D01*
X531783Y-87667D01*
X532250Y-87600D01*
X532717Y-87667D01*
X533125Y-87933D01*
X533475Y-88333D01*
X533708Y-88800D01*
X533825Y-89333D01*
Y-89867D01*
X533708Y-90400D01*
X533475Y-90867D01*
X533125Y-91267D01*
X532717Y-91533D01*
X532250Y-91600D01*
G01X535708D02*
Y-87600D01*
X538392Y-91600D01*
Y-87600D01*
G01X389750Y-151100D02*
X389123Y-151000D01*
X388575Y-150600D01*
X388105Y-150000D01*
X387792Y-149300D01*
X387635Y-148500D01*
Y-147700D01*
X387792Y-146900D01*
X388105Y-146200D01*
X388575Y-145600D01*
X389123Y-145200D01*
X389750Y-145100D01*
X390377Y-145200D01*
X390925Y-145600D01*
X391395Y-146200D01*
X391708Y-146900D01*
X391865Y-147700D01*
Y-148500D01*
X391708Y-149300D01*
X391395Y-150000D01*
X390925Y-150600D01*
X390377Y-151000D01*
X389750Y-151100D01*
G01X394562D02*
Y-145100D01*
X397538D01*
G01X396442Y-148000D02*
X394562D01*
G01X408650Y-151100D02*
Y-145100D01*
X407710Y-146300D01*
G01Y-151100D02*
X409590D01*
G01X414950Y-145100D02*
X414323Y-145300D01*
X413853Y-145800D01*
X413540Y-146400D01*
X413305Y-147200D01*
X413227Y-148100D01*
X413305Y-149000D01*
X413540Y-149800D01*
X413853Y-150400D01*
X414323Y-150900D01*
X414950Y-151100D01*
X415577Y-150900D01*
X416047Y-150400D01*
X416360Y-149800D01*
X416595Y-149000D01*
X416673Y-148100D01*
X416595Y-147200D01*
X416360Y-146400D01*
X416047Y-145800D01*
X415577Y-145300D01*
X414950Y-145100D01*
G01X421183Y-151100D02*
Y-145100D01*
X423063D01*
X423690Y-145400D01*
X424160Y-146100D01*
X424317Y-146900D01*
X424160Y-147700D01*
X423768Y-148300D01*
X423063Y-148600D01*
X421183D01*
G01X427483Y-151100D02*
Y-145100D01*
X429442D01*
X430068Y-145400D01*
X430460Y-145800D01*
X430617Y-146600D01*
X430460Y-147400D01*
X429990Y-147900D01*
X429442Y-148200D01*
X427483D01*
G01X429442D02*
X430617Y-151100D01*
G01X434410Y-145100D02*
X436290D01*
G01X435350D02*
Y-151100D01*
G01X434410D02*
X436290D01*
G01X439613D02*
Y-145100D01*
X441650Y-150100D01*
X443687Y-145100D01*
Y-151100D01*
G01X445992D02*
X447950Y-145100D01*
X449908Y-151100D01*
G01X449203Y-149000D02*
X446697D01*
G01X452683Y-151100D02*
Y-145100D01*
X454642D01*
X455268Y-145400D01*
X455660Y-145800D01*
X455817Y-146600D01*
X455660Y-147400D01*
X455190Y-147900D01*
X454642Y-148200D01*
X452683D01*
G01X454642D02*
X455817Y-151100D01*
G01X460550D02*
Y-148400D01*
X458983Y-145100D01*
G01X462117D02*
X460550Y-148400D01*
G01X471583Y-151100D02*
Y-145100D01*
X473463D01*
X474090Y-145400D01*
X474560Y-146100D01*
X474717Y-146900D01*
X474560Y-147700D01*
X474168Y-148300D01*
X473463Y-148600D01*
X471583D01*
G01X477492Y-151100D02*
X479450Y-145100D01*
X481408Y-151100D01*
G01X480703Y-149000D02*
X478197D01*
G01X484105Y-150300D02*
X484732Y-150800D01*
X485437Y-151100D01*
X486063D01*
X486690Y-150800D01*
X487160Y-150300D01*
X487395Y-149600D01*
X487238Y-148900D01*
X486847Y-148300D01*
X486142Y-147900D01*
X485202Y-147700D01*
X484653Y-147300D01*
X484418Y-146600D01*
X484575Y-145900D01*
X484967Y-145400D01*
X485515Y-145100D01*
X486063D01*
X486612Y-145300D01*
X487082Y-145800D01*
G01X492050Y-145100D02*
Y-151100D01*
G01X490248Y-145100D02*
X493852D01*
G01X499917Y-151100D02*
X496783D01*
Y-145100D01*
X499917D01*
G01X498663Y-148000D02*
X496783D01*
G01X502613Y-151100D02*
Y-145100D01*
X504650Y-150100D01*
X506687Y-145100D01*
Y-151100D01*
G01X508992D02*
X510950Y-145100D01*
X512908Y-151100D01*
G01X512203Y-149000D02*
X509697D01*
G01X515605Y-150300D02*
X516232Y-150800D01*
X516937Y-151100D01*
X517563D01*
X518190Y-150800D01*
X518660Y-150300D01*
X518895Y-149600D01*
X518738Y-148900D01*
X518347Y-148300D01*
X517642Y-147900D01*
X516702Y-147700D01*
X516153Y-147300D01*
X515918Y-146600D01*
X516075Y-145900D01*
X516467Y-145400D01*
X517015Y-145100D01*
X517563D01*
X518112Y-145300D01*
X518582Y-145800D01*
G01X521827Y-151100D02*
Y-145100D01*
G01X524803D02*
X521827Y-148800D01*
G01X525273Y-151100D02*
X523158Y-147100D01*
G01X421542Y-142600D02*
Y-138600D01*
X423758D01*
G01X422942Y-140533D02*
X421542D01*
G01X426750Y-138600D02*
X428150D01*
G01X427450D02*
Y-142600D01*
G01X426750D02*
X428150D01*
G01X431083Y-138600D02*
Y-142600D01*
X433417D01*
G01X435533D02*
Y-138600D01*
X437050Y-141933D01*
X438567Y-138600D01*
Y-142600D01*
G01X546367D02*
Y-138600D01*
X547533D01*
X548000Y-138800D01*
X548350Y-139067D01*
X548642Y-139467D01*
X548875Y-139933D01*
X548933Y-140600D01*
X548875Y-141267D01*
X548642Y-141733D01*
X548350Y-142133D01*
X548000Y-142400D01*
X547533Y-142600D01*
X546367D01*
G01X550992D02*
X552450Y-138600D01*
X553908Y-142600D01*
G01X553383Y-141200D02*
X551517D01*
G01X557250Y-138600D02*
Y-142600D01*
G01X555908Y-138600D02*
X558592D01*
G01X563217Y-142600D02*
X560883D01*
Y-138600D01*
X563217D01*
G01X562283Y-140533D02*
X560883D01*
G01X546308Y-62600D02*
Y-58600D01*
X548992Y-62600D01*
Y-58600D01*
G01X550992Y-62600D02*
X552450Y-58600D01*
X553908Y-62600D01*
G01X553383Y-61200D02*
X551517D01*
G01X555733Y-62600D02*
Y-58600D01*
X557250Y-61933D01*
X558767Y-58600D01*
Y-62600D01*
G01X563217D02*
X560883D01*
Y-58600D01*
X563217D01*
G01X562283Y-60533D02*
X560883D01*
G01X549650Y-146600D02*
X549183Y-146733D01*
X548833Y-147067D01*
X548600Y-147467D01*
X548425Y-148000D01*
X548367Y-148600D01*
X548425Y-149200D01*
X548600Y-149733D01*
X548833Y-150133D01*
X549183Y-150467D01*
X549650Y-150600D01*
X550117Y-150467D01*
X550467Y-150133D01*
X550700Y-149733D01*
X550875Y-149200D01*
X550933Y-148600D01*
X550875Y-148000D01*
X550700Y-147467D01*
X550467Y-147067D01*
X550117Y-146733D01*
X549650Y-146600D01*
G01X553458Y-150133D02*
X553867Y-150467D01*
X554333Y-150600D01*
X554800Y-150467D01*
X555208Y-150067D01*
X555500Y-149467D01*
X555617Y-148867D01*
Y-148133D01*
X555500Y-147533D01*
X555208Y-147000D01*
X554858Y-146733D01*
X554450Y-146600D01*
X553983Y-146733D01*
X553633Y-147000D01*
X553400Y-147400D01*
X553283Y-147933D01*
X553400Y-148400D01*
X553692Y-148867D01*
X554042Y-149133D01*
X554450Y-149200D01*
X554917Y-149067D01*
X555267Y-148733D01*
X555617Y-148133D01*
G01X558492Y-149267D02*
X560008D01*
G01X564050Y-150600D02*
Y-146600D01*
X563350Y-147400D01*
G01Y-150600D02*
X564750D01*
G01X567567Y-150000D02*
X567917Y-150333D01*
X568325Y-150533D01*
X568850Y-150600D01*
X569375Y-150467D01*
X569783Y-150200D01*
X570075Y-149733D01*
X570133Y-149200D01*
X570017Y-148667D01*
X569725Y-148333D01*
X569317Y-148067D01*
X568908Y-148000D01*
X568500Y-148067D01*
X567975Y-148333D01*
X568150Y-146600D01*
X569725D01*
G01X572892Y-149267D02*
X574408D01*
G01X577342Y-147267D02*
X577692Y-146867D01*
X578100Y-146667D01*
X578567Y-146600D01*
X579150Y-146733D01*
X579558Y-147067D01*
X579675Y-147467D01*
X579617Y-147867D01*
X579383Y-148200D01*
X578217Y-148867D01*
X577692Y-149333D01*
X577342Y-150000D01*
X577225Y-150600D01*
X579675D01*
G01X581967Y-149800D02*
X582317Y-150267D01*
X582783Y-150533D01*
X583308Y-150600D01*
X583775Y-150533D01*
X584242Y-150200D01*
X584533Y-149800D01*
X584592Y-149400D01*
X584475Y-148933D01*
X584067Y-148600D01*
X583658Y-148467D01*
X583133D01*
G01X583658D02*
X584008Y-148267D01*
X584300Y-147933D01*
X584417Y-147533D01*
X584300Y-147133D01*
X584008Y-146800D01*
X583483Y-146600D01*
X582958Y-146667D01*
X582433Y-146933D01*
G01X555900Y-128433D02*
X559400D01*
G01X560700D02*
X564200D01*
G01X565500D02*
X569000D01*
G01X578133Y-123433D02*
X577783Y-123233D01*
X577375Y-123100D01*
X576908D01*
X576383Y-123300D01*
X575975Y-123633D01*
X575683Y-124033D01*
X575450Y-124700D01*
X575392Y-125300D01*
X575508Y-125900D01*
X575683Y-126300D01*
X576033Y-126700D01*
X576442Y-126967D01*
X576850Y-127100D01*
X577258D01*
X577667Y-126967D01*
X578017Y-126767D01*
X578308Y-126500D01*
G01X581650Y-127100D02*
X581183Y-127033D01*
X580775Y-126767D01*
X580425Y-126367D01*
X580192Y-125900D01*
X580075Y-125367D01*
Y-124833D01*
X580192Y-124300D01*
X580425Y-123833D01*
X580775Y-123433D01*
X581183Y-123167D01*
X581650Y-123100D01*
X582117Y-123167D01*
X582525Y-123433D01*
X582875Y-123833D01*
X583108Y-124300D01*
X583225Y-124833D01*
Y-125367D01*
X583108Y-125900D01*
X582875Y-126367D01*
X582525Y-126767D01*
X582117Y-127033D01*
X581650Y-127100D01*
G01X584933D02*
Y-123100D01*
X586450Y-126433D01*
X587967Y-123100D01*
Y-127100D01*
G01X590083D02*
Y-123100D01*
X591483D01*
X591950Y-123300D01*
X592300Y-123767D01*
X592417Y-124300D01*
X592300Y-124833D01*
X592008Y-125233D01*
X591483Y-125433D01*
X590083D01*
G01X594592Y-127100D02*
X596050Y-123100D01*
X597508Y-127100D01*
G01X596983Y-125700D02*
X595117D01*
G01X599508Y-127100D02*
Y-123100D01*
X602192Y-127100D01*
Y-123100D01*
G01X605650Y-127100D02*
Y-125300D01*
X604483Y-123100D01*
G01X606817D02*
X605650Y-125300D01*
G01X616533Y-123433D02*
X616183Y-123233D01*
X615775Y-123100D01*
X615308D01*
X614783Y-123300D01*
X614375Y-123633D01*
X614083Y-124033D01*
X613850Y-124700D01*
X613792Y-125300D01*
X613908Y-125900D01*
X614083Y-126300D01*
X614433Y-126700D01*
X614842Y-126967D01*
X615250Y-127100D01*
X615658D01*
X616067Y-126967D01*
X616417Y-126767D01*
X616708Y-126500D01*
G01X620050Y-127100D02*
X619583Y-127033D01*
X619175Y-126767D01*
X618825Y-126367D01*
X618592Y-125900D01*
X618475Y-125367D01*
Y-124833D01*
X618592Y-124300D01*
X618825Y-123833D01*
X619175Y-123433D01*
X619583Y-123167D01*
X620050Y-123100D01*
X620517Y-123167D01*
X620925Y-123433D01*
X621275Y-123833D01*
X621508Y-124300D01*
X621625Y-124833D01*
Y-125367D01*
X621508Y-125900D01*
X621275Y-126367D01*
X620925Y-126767D01*
X620517Y-127033D01*
X620050Y-127100D01*
G01X623508D02*
Y-123100D01*
X626192Y-127100D01*
Y-123100D01*
G01X628542Y-127100D02*
Y-123100D01*
X630758D01*
G01X629942Y-125033D02*
X628542D01*
G01X633750Y-123100D02*
X635150D01*
G01X634450D02*
Y-127100D01*
G01X633750D02*
X635150D01*
G01X637967D02*
Y-123100D01*
X639133D01*
X639600Y-123300D01*
X639950Y-123567D01*
X640242Y-123967D01*
X640475Y-124433D01*
X640533Y-125100D01*
X640475Y-125767D01*
X640242Y-126233D01*
X639950Y-126633D01*
X639600Y-126900D01*
X639133Y-127100D01*
X637967D01*
G01X645217D02*
X642883D01*
Y-123100D01*
X645217D01*
G01X644283Y-125033D02*
X642883D01*
G01X647508Y-127100D02*
Y-123100D01*
X650192Y-127100D01*
Y-123100D01*
G01X653650D02*
Y-127100D01*
G01X652308Y-123100D02*
X654992D01*
G01X657750D02*
X659150D01*
G01X658450D02*
Y-127100D01*
G01X657750D02*
X659150D01*
G01X661792D02*
X663250Y-123100D01*
X664708Y-127100D01*
G01X664183Y-125700D02*
X662317D01*
G01X666883Y-123100D02*
Y-127100D01*
X669217D01*
G01X555900Y-111933D02*
X559400D01*
G01X560700D02*
X564200D01*
G01X565500D02*
X569000D01*
G01X578133Y-106933D02*
X577783Y-106733D01*
X577375Y-106600D01*
X576908D01*
X576383Y-106800D01*
X575975Y-107133D01*
X575683Y-107533D01*
X575450Y-108200D01*
X575392Y-108800D01*
X575508Y-109400D01*
X575683Y-109800D01*
X576033Y-110200D01*
X576442Y-110467D01*
X576850Y-110600D01*
X577258D01*
X577667Y-110467D01*
X578017Y-110267D01*
X578308Y-110000D01*
G01X581650Y-110600D02*
X581183Y-110533D01*
X580775Y-110267D01*
X580425Y-109867D01*
X580192Y-109400D01*
X580075Y-108867D01*
Y-108333D01*
X580192Y-107800D01*
X580425Y-107333D01*
X580775Y-106933D01*
X581183Y-106667D01*
X581650Y-106600D01*
X582117Y-106667D01*
X582525Y-106933D01*
X582875Y-107333D01*
X583108Y-107800D01*
X583225Y-108333D01*
Y-108867D01*
X583108Y-109400D01*
X582875Y-109867D01*
X582525Y-110267D01*
X582117Y-110533D01*
X581650Y-110600D01*
G01X584933D02*
Y-106600D01*
X586450Y-109933D01*
X587967Y-106600D01*
Y-110600D01*
G01X590083D02*
Y-106600D01*
X591483D01*
X591950Y-106800D01*
X592300Y-107267D01*
X592417Y-107800D01*
X592300Y-108333D01*
X592008Y-108733D01*
X591483Y-108933D01*
X590083D01*
G01X594592Y-110600D02*
X596050Y-106600D01*
X597508Y-110600D01*
G01X596983Y-109200D02*
X595117D01*
G01X599508Y-110600D02*
Y-106600D01*
X602192Y-110600D01*
Y-106600D01*
G01X605650Y-110600D02*
Y-108800D01*
X604483Y-106600D01*
G01X606817D02*
X605650Y-108800D01*
G01X614550Y-106600D02*
X615950D01*
G01X615250D02*
Y-110600D01*
G01X614550D02*
X615950D01*
G01X618708D02*
Y-106600D01*
X621392Y-110600D01*
Y-106600D01*
G01X624850D02*
Y-110600D01*
G01X623508Y-106600D02*
X626192D01*
G01X630817Y-110600D02*
X628483D01*
Y-106600D01*
X630817D01*
G01X629883Y-108533D02*
X628483D01*
G01X633283Y-110600D02*
Y-106600D01*
X634742D01*
X635208Y-106800D01*
X635500Y-107067D01*
X635617Y-107600D01*
X635500Y-108133D01*
X635150Y-108467D01*
X634742Y-108667D01*
X633283D01*
G01X634742D02*
X635617Y-110600D01*
G01X637908D02*
Y-106600D01*
X640592Y-110600D01*
Y-106600D01*
G01X642592Y-110600D02*
X644050Y-106600D01*
X645508Y-110600D01*
G01X644983Y-109200D02*
X643117D01*
G01X647683Y-106600D02*
Y-110600D01*
X650017D01*
G01X555900Y-95933D02*
X559400D01*
G01X560700D02*
X564200D01*
G01X565500D02*
X569000D01*
G01X578133Y-90933D02*
X577783Y-90733D01*
X577375Y-90600D01*
X576908D01*
X576383Y-90800D01*
X575975Y-91133D01*
X575683Y-91533D01*
X575450Y-92200D01*
X575392Y-92800D01*
X575508Y-93400D01*
X575683Y-93800D01*
X576033Y-94200D01*
X576442Y-94467D01*
X576850Y-94600D01*
X577258D01*
X577667Y-94467D01*
X578017Y-94267D01*
X578308Y-94000D01*
G01X581650Y-94600D02*
X581183Y-94533D01*
X580775Y-94267D01*
X580425Y-93867D01*
X580192Y-93400D01*
X580075Y-92867D01*
Y-92333D01*
X580192Y-91800D01*
X580425Y-91333D01*
X580775Y-90933D01*
X581183Y-90667D01*
X581650Y-90600D01*
X582117Y-90667D01*
X582525Y-90933D01*
X582875Y-91333D01*
X583108Y-91800D01*
X583225Y-92333D01*
Y-92867D01*
X583108Y-93400D01*
X582875Y-93867D01*
X582525Y-94267D01*
X582117Y-94533D01*
X581650Y-94600D01*
G01X584933D02*
Y-90600D01*
X586450Y-93933D01*
X587967Y-90600D01*
Y-94600D01*
G01X590083D02*
Y-90600D01*
X591483D01*
X591950Y-90800D01*
X592300Y-91267D01*
X592417Y-91800D01*
X592300Y-92333D01*
X592008Y-92733D01*
X591483Y-92933D01*
X590083D01*
G01X594592Y-94600D02*
X596050Y-90600D01*
X597508Y-94600D01*
G01X596983Y-93200D02*
X595117D01*
G01X599508Y-94600D02*
Y-90600D01*
X602192Y-94600D01*
Y-90600D01*
G01X605650Y-94600D02*
Y-92800D01*
X604483Y-90600D01*
G01X606817D02*
X605650Y-92800D01*
G01X614083Y-94600D02*
Y-90600D01*
X615483D01*
X615950Y-90800D01*
X616300Y-91267D01*
X616417Y-91800D01*
X616300Y-92333D01*
X616008Y-92733D01*
X615483Y-92933D01*
X614083D01*
G01X618767Y-90600D02*
Y-93467D01*
X619000Y-94067D01*
X619467Y-94467D01*
X620050Y-94600D01*
X620633Y-94467D01*
X621100Y-94067D01*
X621333Y-93467D01*
Y-90600D01*
G01X625317Y-92467D02*
X625550Y-92267D01*
X625725Y-91933D01*
X625842Y-91467D01*
X625725Y-91067D01*
X625492Y-90800D01*
X625083Y-90600D01*
X623508D01*
Y-94600D01*
X625433D01*
X625842Y-94333D01*
X626075Y-93933D01*
X626192Y-93467D01*
X626075Y-93000D01*
X625725Y-92600D01*
X625317Y-92467D01*
X623508D01*
G01X628483Y-90600D02*
Y-94600D01*
X630817D01*
G01X633750Y-90600D02*
X635150D01*
G01X634450D02*
Y-94600D01*
G01X633750D02*
X635150D01*
G01X640533Y-90933D02*
X640183Y-90733D01*
X639775Y-90600D01*
X639308D01*
X638783Y-90800D01*
X638375Y-91133D01*
X638083Y-91533D01*
X637850Y-92200D01*
X637792Y-92800D01*
X637908Y-93400D01*
X638083Y-93800D01*
X638433Y-94200D01*
X638842Y-94467D01*
X639250Y-94600D01*
X639658D01*
X640067Y-94467D01*
X640417Y-94267D01*
X640708Y-94000D01*
G01X560605Y-111600D02*
X563895Y-105300D01*
G01X560605D02*
X563895Y-111600D01*
G01X596308Y-142600D02*
Y-138600D01*
X598992Y-142600D01*
Y-138600D01*
G01X601167D02*
Y-141467D01*
X601400Y-142067D01*
X601867Y-142467D01*
X602450Y-142600D01*
X603033Y-142467D01*
X603500Y-142067D01*
X603733Y-141467D01*
Y-138600D01*
G01X605733Y-142600D02*
Y-138600D01*
X607250Y-141933D01*
X608767Y-138600D01*
Y-142600D01*
G01X612517Y-140467D02*
X612750Y-140267D01*
X612925Y-139933D01*
X613042Y-139467D01*
X612925Y-139067D01*
X612692Y-138800D01*
X612283Y-138600D01*
X610708D01*
Y-142600D01*
X612633D01*
X613042Y-142333D01*
X613275Y-141933D01*
X613392Y-141467D01*
X613275Y-141000D01*
X612925Y-140600D01*
X612517Y-140467D01*
X610708D01*
G01X618017Y-142600D02*
X615683D01*
Y-138600D01*
X618017D01*
G01X617083Y-140533D02*
X615683D01*
G01X620483Y-142600D02*
Y-138600D01*
X621942D01*
X622408Y-138800D01*
X622700Y-139067D01*
X622817Y-139600D01*
X622700Y-140133D01*
X622350Y-140467D01*
X621942Y-140667D01*
X620483D01*
G01X621942D02*
X622817Y-142600D01*
G01X619362Y-72700D02*
Y-66400D01*
X622338D01*
G01X621242Y-69445D02*
X619362D01*
G01X625583Y-72700D02*
Y-66400D01*
X627542D01*
X628168Y-66715D01*
X628560Y-67135D01*
X628717Y-67975D01*
X628560Y-68815D01*
X628090Y-69340D01*
X627542Y-69655D01*
X625583D01*
G01X627542D02*
X628717Y-72700D01*
G01X631727D02*
Y-66400D01*
X633293D01*
X633920Y-66715D01*
X634390Y-67135D01*
X634782Y-67765D01*
X635095Y-68500D01*
X635173Y-69550D01*
X635095Y-70600D01*
X634782Y-71335D01*
X634390Y-71965D01*
X633920Y-72385D01*
X633293Y-72700D01*
X631727D01*
G01X637713D02*
Y-66400D01*
X639750Y-71650D01*
X641787Y-66400D01*
Y-72700D01*
G01X645032Y-70600D02*
X647068D01*
G01X650313Y-72700D02*
Y-66400D01*
X652350Y-71650D01*
X654387Y-66400D01*
Y-72700D01*
G01X660373Y-66925D02*
X659903Y-66610D01*
X659355Y-66400D01*
X658728D01*
X658023Y-66715D01*
X657475Y-67240D01*
X657083Y-67870D01*
X656770Y-68920D01*
X656692Y-69865D01*
X656848Y-70810D01*
X657083Y-71440D01*
X657553Y-72070D01*
X658102Y-72490D01*
X658650Y-72700D01*
X659198D01*
X659747Y-72490D01*
X660217Y-72175D01*
X660608Y-71755D01*
G01X663305Y-72700D02*
X666595Y-66400D01*
G01X663305D02*
X666595Y-72700D01*
G01X669448D02*
Y-66400D01*
X673052Y-72700D01*
Y-66400D01*
G01X676218Y-71965D02*
X676767Y-72490D01*
X677393Y-72700D01*
X678020Y-72490D01*
X678568Y-71860D01*
X678960Y-70915D01*
X679117Y-69970D01*
Y-68815D01*
X678960Y-67870D01*
X678568Y-67030D01*
X678098Y-66610D01*
X677550Y-66400D01*
X676923Y-66610D01*
X676453Y-67030D01*
X676140Y-67660D01*
X675983Y-68500D01*
X676140Y-69235D01*
X676532Y-69970D01*
X677002Y-70390D01*
X677550Y-70495D01*
X678177Y-70285D01*
X678647Y-69760D01*
X679117Y-68815D01*
G01X684790Y-72700D02*
Y-66400D01*
X681892Y-70915D01*
X685808D01*
G01X689993Y-72700D02*
X690150Y-71335D01*
X690385Y-70180D01*
X690698Y-69130D01*
X691090Y-67975D01*
X691717Y-66400D01*
X688583D01*
G01X631250Y-149800D02*
Y-143500D01*
X630310Y-144760D01*
G01Y-149800D02*
X632190D01*
G01X637393D02*
X637550Y-148435D01*
X637785Y-147280D01*
X638098Y-146230D01*
X638490Y-145075D01*
X639117Y-143500D01*
X635983D01*
G01X643850D02*
X643223Y-143710D01*
X642753Y-144235D01*
X642440Y-144865D01*
X642205Y-145705D01*
X642127Y-146650D01*
X642205Y-147595D01*
X642440Y-148435D01*
X642753Y-149065D01*
X643223Y-149590D01*
X643850Y-149800D01*
X644477Y-149590D01*
X644947Y-149065D01*
X645260Y-148435D01*
X645495Y-147595D01*
X645573Y-146650D01*
X645495Y-145705D01*
X645260Y-144865D01*
X644947Y-144235D01*
X644477Y-143710D01*
X643850Y-143500D01*
G01X649132Y-147700D02*
X651168D01*
G01X655118Y-149065D02*
X655667Y-149590D01*
X656293Y-149800D01*
X656920Y-149590D01*
X657468Y-148960D01*
X657860Y-148015D01*
X658017Y-147070D01*
Y-145915D01*
X657860Y-144970D01*
X657468Y-144130D01*
X656998Y-143710D01*
X656450Y-143500D01*
X655823Y-143710D01*
X655353Y-144130D01*
X655040Y-144760D01*
X654883Y-145600D01*
X655040Y-146335D01*
X655432Y-147070D01*
X655902Y-147490D01*
X656450Y-147595D01*
X657077Y-147385D01*
X657547Y-146860D01*
X658017Y-145915D01*
G01X662750Y-143500D02*
X662123Y-143710D01*
X661653Y-144235D01*
X661340Y-144865D01*
X661105Y-145705D01*
X661027Y-146650D01*
X661105Y-147595D01*
X661340Y-148435D01*
X661653Y-149065D01*
X662123Y-149590D01*
X662750Y-149800D01*
X663377Y-149590D01*
X663847Y-149065D01*
X664160Y-148435D01*
X664395Y-147595D01*
X664473Y-146650D01*
X664395Y-145705D01*
X664160Y-144865D01*
X663847Y-144235D01*
X663377Y-143710D01*
X662750Y-143500D01*
G01X669050Y-149800D02*
X669598Y-149695D01*
X670225Y-149380D01*
X670617Y-148855D01*
X670773Y-148120D01*
X670617Y-147385D01*
X670147Y-146755D01*
X669442Y-146440D01*
X668658D01*
X668188Y-146230D01*
X667797Y-145705D01*
X667640Y-144970D01*
X667875Y-144235D01*
X668423Y-143710D01*
X669050Y-143500D01*
X669677Y-143710D01*
X670225Y-144235D01*
X670460Y-144970D01*
X670303Y-145705D01*
X669912Y-146230D01*
X669442Y-146440D01*
X668658D01*
X667953Y-146755D01*
X667483Y-147385D01*
X667327Y-148120D01*
X667483Y-148855D01*
X667875Y-149380D01*
X668502Y-149695D01*
X669050Y-149800D01*
G01X675350D02*
Y-143500D01*
X674410Y-144760D01*
G01Y-149800D02*
X676290D01*
G01X681650D02*
X682198Y-149695D01*
X682825Y-149380D01*
X683217Y-148855D01*
X683373Y-148120D01*
X683217Y-147385D01*
X682747Y-146755D01*
X682042Y-146440D01*
X681258D01*
X680788Y-146230D01*
X680397Y-145705D01*
X680240Y-144970D01*
X680475Y-144235D01*
X681023Y-143710D01*
X681650Y-143500D01*
X682277Y-143710D01*
X682825Y-144235D01*
X683060Y-144970D01*
X682903Y-145705D01*
X682512Y-146230D01*
X682042Y-146440D01*
X681258D01*
X680553Y-146755D01*
X680083Y-147385D01*
X679927Y-148120D01*
X680083Y-148855D01*
X680475Y-149380D01*
X681102Y-149695D01*
X681650Y-149800D01*
G01X724183D02*
Y-143500D01*
X726142D01*
X726768Y-143815D01*
X727160Y-144235D01*
X727317Y-145075D01*
X727160Y-145915D01*
X726690Y-146440D01*
X726142Y-146755D01*
X724183D01*
G01X726142D02*
X727317Y-149800D01*
G01X733617D02*
X730483D01*
Y-143500D01*
X733617D01*
G01X732363Y-146545D02*
X730483D01*
G01X736392Y-143500D02*
X738350Y-149800D01*
X740308Y-143500D01*
G01X751577Y-146440D02*
X751890Y-146125D01*
X752125Y-145600D01*
X752282Y-144865D01*
X752125Y-144235D01*
X751812Y-143815D01*
X751263Y-143500D01*
X749148D01*
Y-149800D01*
X751733D01*
X752282Y-149380D01*
X752595Y-148750D01*
X752752Y-148015D01*
X752595Y-147280D01*
X752125Y-146650D01*
X751577Y-146440D01*
X749148D01*
G54D16*
X21500Y155000D03*
Y159000D03*
Y162500D03*
Y166000D03*
X25500Y155000D03*
Y159000D03*
Y162500D03*
Y166000D03*
X30000Y42000D03*
Y46500D03*
X34000Y42000D03*
Y46500D03*
X42000Y59100D03*
X46000D03*
X62470Y133190D03*
Y137190D03*
X66470Y133190D03*
Y137190D03*
X70500Y31000D03*
Y35000D03*
X68000Y124500D03*
Y128500D03*
X74000Y31000D03*
Y35000D03*
X73500Y52000D03*
X72500Y124500D03*
Y128500D03*
X72470Y133690D03*
X76470D03*
Y137690D03*
X72470D03*
X75500Y165000D03*
Y169000D03*
X77500Y31000D03*
X81000D03*
X77500Y35000D03*
X81000D03*
Y52000D03*
X77500D03*
X80000Y113000D03*
X77500Y142500D03*
Y146500D03*
Y150500D03*
Y154500D03*
X79500Y165000D03*
Y169000D03*
X84500Y31000D03*
Y35000D03*
X85000Y52000D03*
X84000Y113000D03*
X83500Y155000D03*
Y159000D03*
X88000Y31000D03*
Y35000D03*
X87000Y155000D03*
Y159000D03*
X91500Y31000D03*
Y35000D03*
Y41500D03*
Y46000D03*
X90500Y155000D03*
X94000D03*
X90500Y159000D03*
X94000D03*
X95500Y41500D03*
Y46000D03*
X95000Y60500D03*
X98500D03*
X95000Y64500D03*
Y68000D03*
X98500Y64500D03*
Y68000D03*
X95000Y72000D03*
X98500D03*
X95000Y75500D03*
X98500D03*
X95000Y79500D03*
X98500D03*
X95000Y83000D03*
X98500D03*
X95000Y87000D03*
X98500D03*
X97500Y155000D03*
Y159000D03*
X102000Y60500D03*
Y64500D03*
X101000Y155000D03*
Y159000D03*
X105500Y60500D03*
Y64500D03*
Y92000D03*
Y96000D03*
X104500Y155000D03*
X108000D03*
X104500Y159000D03*
X108000D03*
X110500Y92000D03*
Y96000D03*
X114000Y52500D03*
Y56500D03*
X115000Y92000D03*
Y96000D03*
X118000Y52500D03*
Y56500D03*
X122000Y52500D03*
Y56500D03*
X125500Y119500D03*
X121500D03*
Y123000D03*
X125500D03*
X121500Y128000D03*
X125500D03*
X121470Y131690D03*
X125470D03*
Y135690D03*
X121470D03*
Y139690D03*
X125470D03*
Y144690D03*
X121470D03*
Y148690D03*
X125470D03*
X121500Y152500D03*
X125500D03*
X121500Y156500D03*
X125500D03*
X121500Y160500D03*
X125500D03*
X126000Y52500D03*
X130000D03*
X126000Y56500D03*
X130000D03*
X131500Y123000D03*
X134000Y130000D03*
X132000Y152500D03*
Y156500D03*
X139000Y61500D03*
Y65500D03*
Y73000D03*
Y69500D03*
Y83600D03*
Y87500D03*
X135500Y123000D03*
X138000Y130000D03*
X136000Y152500D03*
Y156500D03*
X143000Y61500D03*
Y65500D03*
Y73000D03*
Y69500D03*
Y83600D03*
Y87500D03*
X141000Y114500D03*
Y118000D03*
Y122000D03*
X145000Y106500D03*
Y110500D03*
Y114500D03*
Y118000D03*
Y122000D03*
X144000Y125500D03*
Y129500D03*
X159000Y83500D03*
Y87500D03*
X164500Y83500D03*
Y87500D03*
X162000Y102500D03*
X166000D03*
X162000Y106500D03*
X166000D03*
X168000Y96500D03*
X169500Y134000D03*
Y138000D03*
X174500Y59000D03*
Y63000D03*
X172000Y96500D03*
X173000Y134000D03*
Y138000D03*
X181500Y68500D03*
Y72500D03*
X183500Y135000D03*
Y139000D03*
X185500Y68500D03*
Y72500D03*
X186000Y97500D03*
Y101500D03*
Y105000D03*
Y109000D03*
X192500Y25000D03*
Y29000D03*
Y35500D03*
Y39500D03*
X192000Y58500D03*
Y62500D03*
X196500Y55000D03*
Y58500D03*
X200500Y55000D03*
Y58500D03*
X209000Y25500D03*
Y29500D03*
X228000Y106500D03*
Y110500D03*
Y114000D03*
Y118000D03*
X247500Y145500D03*
Y149500D03*
X268000Y147500D03*
X264500D03*
X268000Y151500D03*
X264500D03*
X280500Y71500D03*
Y75500D03*
X284500Y71500D03*
Y75500D03*
X291500Y143860D03*
Y147860D03*
X312000Y94000D03*
Y98500D03*
X314000Y32000D03*
X317500D03*
X314000Y36000D03*
X316000Y94000D03*
Y98500D03*
X321500Y32000D03*
X347500Y167000D03*
X351500D03*
X359500Y49000D03*
X361500Y77500D03*
Y81500D03*
X363500Y49000D03*
X366000Y88500D03*
Y92000D03*
X364000Y169500D03*
X370000Y88500D03*
Y92000D03*
X368000Y169500D03*
X381000Y49000D03*
X385000D03*
X397500D03*
X401500D03*
X406000D03*
X404000Y79500D03*
Y83500D03*
Y94000D03*
Y98000D03*
X409000Y20500D03*
Y25000D03*
X410000Y49000D03*
X408500Y168000D03*
Y172000D03*
X413000Y20500D03*
Y25000D03*
X412500Y168000D03*
Y172000D03*
G54D25*
X64820Y144860D03*
Y153521D03*
X71120Y144860D03*
Y153521D03*
G54D34*
X114105Y64199D03*
Y83801D03*
X127895Y64199D03*
Y83801D03*
G54D43*
X183307Y83661D03*
Y88780D03*
Y86221D03*
Y91339D03*
G54D53*
G01X367900Y-134600D02*
X767900D01*
G01X367900Y-104600D02*
Y-84600D01*
X767900D01*
G01X417900Y-154600D02*
Y-134600D01*
G01X542900Y-84600D02*
Y-54600D01*
G01X543400Y-154600D02*
Y-134600D01*
G01X592900Y-154600D02*
Y-134600D01*
G54D35*
X113000Y154472D03*
Y161128D03*
X133470Y140862D03*
Y147518D03*
G54D17*
X19700Y172000D03*
X27300D03*
G54D44*
X185660Y28090D03*
Y39910D03*
G54D26*
X77638Y40146D03*
X79213D03*
Y45854D03*
X77638D03*
X80787Y40146D03*
X82362D03*
Y45854D03*
X80787D03*
G54D54*
G01X767900Y-54600D02*
Y-154600D01*
X367900D01*
G01D02*
Y-54600D01*
X767900D01*
G54D36*
X145000Y98335D03*
Y102665D03*
X166000Y162835D03*
Y167165D03*
G54D18*
X29600Y136500D03*
Y142500D03*
X62000Y122000D03*
Y128000D03*
X104600Y36100D03*
Y42100D03*
X132000Y25500D03*
Y31500D03*
X138000Y25500D03*
Y31500D03*
X144000Y25500D03*
Y31500D03*
X150000Y25500D03*
Y31500D03*
X169500Y57500D03*
Y63500D03*
X176500Y69000D03*
Y75000D03*
X190500Y69000D03*
Y75000D03*
X200000Y23500D03*
Y29500D03*
Y34500D03*
Y40500D03*
X208000Y34500D03*
Y40500D03*
X296000Y64500D03*
Y70500D03*
Y163500D03*
Y169500D03*
X302000Y163500D03*
Y169500D03*
X307000Y92500D03*
Y98500D03*
X341000Y31000D03*
Y37000D03*
G54D45*
X218933Y108842D03*
Y114158D03*
X223067Y108842D03*
Y114158D03*
G54D27*
X77616Y42213D03*
Y43787D03*
X82384D03*
Y42213D03*
G54D46*
X263140Y160370D03*
Y168630D03*
X268260Y160370D03*
Y168630D03*
G54D19*
X33079Y27000D03*
X35579Y138500D03*
X156079Y27000D03*
G54D37*
X161827Y68441D03*
Y73559D03*
X170173Y71000D03*
G54D28*
X84500Y164728D03*
Y168272D03*
X89500Y164728D03*
Y168272D03*
X292000Y29228D03*
Y32772D03*
G54D47*
X278079Y62500D03*
X287921D03*
G54D29*
X87159Y122379D03*
Y124348D03*
X89128Y122379D03*
Y124348D03*
X87159Y126316D03*
Y130253D03*
X89128Y126316D03*
Y130253D03*
X87159Y132222D03*
Y134190D03*
X89128Y132222D03*
Y134190D03*
X87159Y136159D03*
Y138127D03*
X89128Y136159D03*
Y138127D03*
X87159Y142064D03*
X89128D03*
X87159Y144033D03*
Y146001D03*
X89128Y144033D03*
Y146001D03*
X91096Y122379D03*
Y124348D03*
Y134190D03*
Y144033D03*
Y146001D03*
X95033Y122379D03*
Y124348D03*
X97002Y122379D03*
Y124348D03*
X95033Y130253D03*
X97002D03*
X95033Y134190D03*
Y132222D03*
X97002D03*
X95033Y136159D03*
Y138127D03*
X97002D03*
Y136159D03*
X95033Y144033D03*
Y146001D03*
X97002Y144033D03*
Y146001D03*
X98970Y122379D03*
Y124348D03*
X100939Y122379D03*
Y124348D03*
Y130253D03*
X98970D03*
Y126316D03*
Y132222D03*
X100939D03*
X98970Y138127D03*
X100939D03*
X98970Y136159D03*
X100939D03*
X98970Y142064D03*
Y144033D03*
Y146001D03*
X100939Y144033D03*
Y146001D03*
X102907Y122379D03*
Y124348D03*
X106844Y122379D03*
Y124348D03*
X102907Y130253D03*
Y132222D03*
Y134190D03*
X106844D03*
X102907Y138127D03*
Y136159D03*
Y144033D03*
Y146001D03*
X106844Y144033D03*
Y146001D03*
X108813Y122379D03*
Y124348D03*
X110781Y122379D03*
Y124348D03*
X108813Y126316D03*
Y130253D03*
X110781Y126316D03*
Y130253D03*
X108813Y132222D03*
Y134190D03*
X110781Y132222D03*
Y134190D03*
X108813Y136159D03*
Y138127D03*
X110781Y136159D03*
Y138127D03*
X108813Y142064D03*
X110781D03*
X108813Y144033D03*
Y146001D03*
X110781Y144033D03*
Y146001D03*
X249720Y86252D03*
X247752D03*
X249720Y88220D03*
X247752D03*
X249720Y92157D03*
X247752D03*
X249720Y96094D03*
X247752D03*
X249720Y98063D03*
Y100031D03*
X247752D03*
X249720Y103969D03*
X247752D03*
X249720Y105937D03*
Y107906D03*
X247752D03*
X249720Y111843D03*
X247752D03*
X249720Y115780D03*
X247752D03*
X249720Y117748D03*
X247752D03*
X253657Y86252D03*
Y88220D03*
X251689D03*
X253657Y90189D03*
X251689D03*
X253657Y92157D03*
X251689D03*
X253657Y94126D03*
Y96094D03*
X251689D03*
X253657Y98063D03*
X251689Y100031D03*
X253657Y102000D03*
X251689D03*
Y103969D03*
X253657Y105937D03*
Y107906D03*
X251689D03*
X253657Y109874D03*
Y111843D03*
X251689D03*
X253657Y113811D03*
X251689D03*
X253657Y115780D03*
X251689D03*
X253657Y117748D03*
X257594Y86252D03*
Y88220D03*
Y90189D03*
X255626D03*
X257594Y92157D03*
X255626Y94126D03*
X257594Y96094D03*
X255626Y98063D03*
X257594Y100031D03*
X255626D03*
X257594Y103969D03*
X255626D03*
Y105937D03*
X257594Y107906D03*
X255626Y109874D03*
X257594Y111843D03*
Y113811D03*
X255626D03*
X257594Y115780D03*
Y117748D03*
X261531Y86252D03*
Y88220D03*
X259563D03*
X261531Y90189D03*
X259563Y92157D03*
X261531Y94126D03*
X259563D03*
X261531Y96094D03*
X259563Y98063D03*
X261531Y100031D03*
Y102000D03*
Y103969D03*
X259563Y105937D03*
X261531Y107906D03*
Y109874D03*
X259563D03*
Y111843D03*
X261531Y113811D03*
Y115780D03*
X259563D03*
X261531Y117748D03*
X265469Y86252D03*
X267437Y88220D03*
X265469D03*
Y90189D03*
X263500D03*
X267437Y92157D03*
X263500D03*
X267437Y94126D03*
X265469D03*
Y96094D03*
X267437Y98063D03*
X265469Y100031D03*
X263500D03*
X265469Y102000D03*
Y103969D03*
X263500D03*
X267437Y105937D03*
X265469Y107906D03*
X267437Y109874D03*
X265469D03*
X267437Y111843D03*
X263500D03*
X265469Y113811D03*
X263500D03*
X267437Y115780D03*
X265469D03*
Y117748D03*
X269406Y86252D03*
Y88220D03*
X271374Y90189D03*
X269406D03*
Y92157D03*
X271374Y94126D03*
X269406Y96094D03*
X271374Y98063D03*
Y100031D03*
X269406D03*
X271374Y103969D03*
X269406D03*
X271374Y105937D03*
X269406Y107906D03*
X271374Y109874D03*
X269406Y111843D03*
X271374Y113811D03*
X269406D03*
Y115780D03*
Y117748D03*
X273343Y86252D03*
X275311Y88220D03*
X273343D03*
X275311Y90189D03*
X273343D03*
X275311Y92157D03*
X273343D03*
Y94126D03*
X275311Y96094D03*
X273343D03*
Y98063D03*
X275311Y100031D03*
Y102000D03*
X273343D03*
X275311Y103969D03*
X273343Y105937D03*
X275311Y107906D03*
X273343D03*
Y109874D03*
X275311Y111843D03*
X273343D03*
X275311Y113811D03*
X273343D03*
X275311Y115780D03*
X273343D03*
Y117748D03*
X279248Y86252D03*
X277280D03*
X279248Y88220D03*
X277280D03*
X279248Y92157D03*
X277280D03*
X279248Y96094D03*
X277280D03*
Y98063D03*
X279248Y100031D03*
X277280D03*
X279248Y103969D03*
X277280D03*
Y105937D03*
X279248Y107906D03*
X277280D03*
X279248Y111843D03*
X277280D03*
X279248Y115780D03*
X277280D03*
X279248Y117748D03*
X277280D03*
G54D38*
X164500Y134154D03*
Y140846D03*
X178500Y134154D03*
Y140846D03*
G54D48*
X292525Y87500D03*
X300474D03*
G54D39*
X173590Y28090D03*
Y39910D03*
G54D49*
X372700Y113500D03*
Y118500D03*
Y123500D03*
Y128500D03*
X401300Y113500D03*
Y118500D03*
Y123500D03*
Y128500D03*
M02*
