G04 ================== begin FILE IDENTIFICATION RECORD ==================*
G04 Layout Name:  C:/Users/nxf76403/Work/90818-B/pcb/a080-1/FabOutput/LAY-90818_B.brd*
G04 Film Name:    ssp.art*
G04 File Format:  Gerber RS274X*
G04 File Origin:  Cadence Allegro 17.4-S021*
G04 Origin Date:  Mon Sep 18 14:44:30 2023*
G04 *
G04 Layer:  PIN/PASTEMASK_BOTTOM*
G04 Layer:  PACKAGE GEOMETRY/PASTEMASK_BOTTOM*
G04 Layer:  DRAWING FORMAT/FILM_TITLE_BLOCK*
G04 Layer:  BOARD GEOMETRY/DESIGN_OUTLINE*
G04 Layer:  BOARD GEOMETRY/CUTOUT*
G04 Layer:  BOARD GEOMETRY/PASTEMASK_BOTTOM*
G04 *
G04 Offset:    (0.000 0.000)*
G04 Mirror:    No*
G04 Mode:      Positive*
G04 Rotation:  0*
G04 FullContactRelief:  No*
G04 UndefLineWidth:     8.000*
G04 ================== end FILE IDENTIFICATION RECORD ====================*
%FSLAX55Y55*MOIN*%
%IR0*IPPOS*OFA0.00000B0.00000*MIA0B0*SFA1.00000B1.00000*%
%ADD11R,.025X.012*%
%ADD12O,.06X.035*%
%ADD14O,.035X.06*%
%ADD15O,.045X.035*%
%ADD17O,.035X.045*%
%ADD13R,.018X.051*%
%ADD20R,.024X.055*%
%ADD19R,.043X.094*%
%ADD10C,.025*%
%ADD16R,.039X.028*%
%ADD18R,.04X.04*%
%ADD21C,.006*%
%ADD22C,.01*%
%ADD23C,.02*%
%ADD24C,.008*%
G75*
%LPD*%
G75*
G36*
G01X102937Y30000D02*
Y27000D01*
X99000D01*
Y30000D01*
X102937D01*
G37*
G36*
G01X120437Y29000D02*
Y26000D01*
X116500D01*
Y29000D01*
X120437D01*
G37*
G36*
G01X114713Y155000D02*
Y158000D01*
X118650D01*
Y155000D01*
X114713D01*
G37*
G36*
G01X129437Y168500D02*
Y165500D01*
X125500D01*
Y168500D01*
X129437D01*
G37*
G36*
G01X139563Y147800D02*
Y150800D01*
X143500D01*
Y147800D01*
X139563D01*
G37*
G36*
G01X153937Y163500D02*
Y160500D01*
X150000D01*
Y163500D01*
X153937D01*
G37*
G36*
G01X156563Y90000D02*
Y93000D01*
X160500D01*
Y90000D01*
X156563D01*
G37*
G36*
G01X170713Y140900D02*
Y143900D01*
X174650D01*
Y140900D01*
X170713D01*
G37*
G36*
G01X179500Y39937D02*
X182500D01*
Y36000D01*
X179500D01*
Y39937D01*
G37*
G36*
G01Y61937D02*
X182500D01*
Y58000D01*
X179500D01*
Y61937D01*
G37*
G36*
G01X181363Y154900D02*
Y157900D01*
X185300D01*
Y154900D01*
X181363D01*
G37*
G36*
G01X190000Y39937D02*
X193000D01*
Y36000D01*
X190000D01*
Y39937D01*
G37*
G36*
G01Y62087D02*
X193000D01*
Y58150D01*
X190000D01*
Y62087D01*
G37*
G36*
G01X191063Y85300D02*
Y88300D01*
X195000D01*
Y85300D01*
X191063D01*
G37*
G36*
G01X195413Y101500D02*
Y104500D01*
X199350D01*
Y101500D01*
X195413D01*
G37*
G36*
G01X195913Y113000D02*
Y116000D01*
X199850D01*
Y113000D01*
X195913D01*
G37*
G36*
G01X201500Y39937D02*
X204500D01*
Y36000D01*
X201500D01*
Y39937D01*
G37*
G36*
G01Y62087D02*
X204500D01*
Y58150D01*
X201500D01*
Y62087D01*
G37*
G36*
G01X200563Y154300D02*
Y157300D01*
X204500D01*
Y154300D01*
X200563D01*
G37*
G36*
G01X218563Y97600D02*
Y100600D01*
X222500D01*
Y97600D01*
X218563D01*
G37*
G36*
G01X314300Y38563D02*
X311300D01*
Y42500D01*
X314300D01*
Y38563D01*
G37*
G36*
G01X321200D02*
X318200D01*
Y42500D01*
X321200D01*
Y38563D01*
G37*
G36*
G01X376713Y165100D02*
Y168100D01*
X380650D01*
Y165100D01*
X376713D01*
G37*
G36*
G01X392563Y165000D02*
Y168000D01*
X396500D01*
Y165000D01*
X392563D01*
G37*
G36*
G01X401563Y146500D02*
Y149500D01*
X405500D01*
Y146500D01*
X401563D01*
G37*
G36*
G01X406437Y155500D02*
Y152500D01*
X402500D01*
Y155500D01*
X406437D01*
G37*
G36*
G01X411000Y108363D02*
X408000D01*
Y112300D01*
X411000D01*
Y108363D01*
G37*
G54D10*
X-2500Y188500D03*
Y193000D03*
Y197000D03*
X1500Y188500D03*
Y193000D03*
Y197000D03*
X45500Y66500D03*
Y71000D03*
Y104000D03*
Y108000D03*
Y112000D03*
Y116000D03*
Y120500D03*
Y124000D03*
X48000Y33000D03*
X49500Y66500D03*
Y71000D03*
Y104000D03*
Y108000D03*
Y112000D03*
Y116000D03*
Y120500D03*
Y124000D03*
X52000Y33000D03*
X53000Y112000D03*
Y116000D03*
X55500Y33000D03*
X57000Y112000D03*
Y116000D03*
X59500Y33000D03*
X64700Y30000D03*
Y34000D03*
X74500Y158500D03*
X78000Y28500D03*
Y32500D03*
X81000Y45000D03*
X77000D03*
X80500Y92000D03*
Y96000D03*
X78500Y151000D03*
Y155000D03*
Y158500D03*
X82000Y40500D03*
X84000Y116500D03*
X85500Y145500D03*
X82500Y151000D03*
Y155000D03*
X88000Y31000D03*
Y35000D03*
X86000Y40500D03*
X89500Y44000D03*
Y48500D03*
X88000Y116500D03*
X89500Y145500D03*
X93500Y44000D03*
Y48500D03*
X90500Y121000D03*
Y125000D03*
X94500Y131000D03*
X90500D03*
X109000Y75000D03*
X113000Y44500D03*
X115000Y61900D03*
Y65900D03*
X113000Y75000D03*
X112500Y149500D03*
X116500D03*
X117000Y44500D03*
X120000Y63000D03*
X124000D03*
X125500Y83000D03*
X122000Y116000D03*
X129500Y83000D03*
X126000Y116000D03*
X131500Y73500D03*
Y77500D03*
X139000Y65500D03*
Y73000D03*
Y69500D03*
Y83600D03*
X143000Y65500D03*
Y73000D03*
Y69500D03*
Y83600D03*
X181000Y87000D03*
X185000D03*
X237000Y150500D03*
X239000Y78500D03*
Y82500D03*
X240500Y87500D03*
Y91500D03*
X241000Y150500D03*
X244500Y87500D03*
Y91500D03*
X244700Y97800D03*
Y101800D03*
X250000Y90000D03*
X248200Y97800D03*
Y101800D03*
X246600Y109300D03*
X250600D03*
X254000Y90000D03*
X255000Y119500D03*
Y123000D03*
Y126500D03*
X258000Y87500D03*
X259000Y119500D03*
Y123000D03*
Y126500D03*
X262000Y87500D03*
X270000Y86500D03*
X274000D03*
X278000Y102500D03*
Y106500D03*
X280000Y112500D03*
Y116500D03*
X283500Y86000D03*
Y90000D03*
X282000Y102500D03*
Y106500D03*
X284000Y112500D03*
Y116500D03*
X288000Y112500D03*
Y116500D03*
X293500Y84000D03*
Y88000D03*
X374000Y118500D03*
Y122500D03*
X378000Y114500D03*
Y118500D03*
X394000Y107000D03*
X398000D03*
X402000Y104500D03*
X398000Y127000D03*
X402000D03*
X406000Y104500D03*
G54D20*
X370213Y50094D03*
X374543D03*
X378874D03*
X383205D03*
X387535D03*
X391866D03*
X396197D03*
X400528D03*
X404858D03*
G54D11*
X22508Y35032D03*
Y38968D03*
Y37000D03*
X22008Y161000D03*
Y159032D03*
Y162968D03*
X28492Y35032D03*
Y38968D03*
Y37000D03*
X27992Y161000D03*
Y159032D03*
Y162968D03*
G54D21*
G01X371750Y-151100D02*
Y-145100D01*
X370810Y-146300D01*
G01Y-151100D02*
X372690D01*
G01X378050Y-145100D02*
X377423Y-145300D01*
X376953Y-145800D01*
X376640Y-146400D01*
X376405Y-147200D01*
X376327Y-148100D01*
X376405Y-149000D01*
X376640Y-149800D01*
X376953Y-150400D01*
X377423Y-150900D01*
X378050Y-151100D01*
X378677Y-150900D01*
X379147Y-150400D01*
X379460Y-149800D01*
X379695Y-149000D01*
X379773Y-148100D01*
X379695Y-147200D01*
X379460Y-146400D01*
X379147Y-145800D01*
X378677Y-145300D01*
X378050Y-145100D01*
G01X371425Y-142067D02*
X371892Y-142400D01*
X372417Y-142600D01*
X372883D01*
X373350Y-142400D01*
X373700Y-142067D01*
X373875Y-141600D01*
X373758Y-141133D01*
X373467Y-140733D01*
X372942Y-140467D01*
X372242Y-140333D01*
X371833Y-140067D01*
X371658Y-139600D01*
X371775Y-139133D01*
X372067Y-138800D01*
X372475Y-138600D01*
X372883D01*
X373292Y-138733D01*
X373642Y-139067D01*
G01X376225Y-142600D02*
Y-138600D01*
G01X378675D02*
Y-142600D01*
G01Y-140600D02*
X376225D01*
G01X383417Y-142600D02*
X381083D01*
Y-138600D01*
X383417D01*
G01X382483Y-140533D02*
X381083D01*
G01X388217Y-142600D02*
X385883D01*
Y-138600D01*
X388217D01*
G01X387283Y-140533D02*
X385883D01*
G01X391850Y-138600D02*
Y-142600D01*
G01X390508Y-138600D02*
X393192D01*
G01X371192Y-81600D02*
X372650Y-77600D01*
X374108Y-81600D01*
G01X373583Y-80200D02*
X371717D01*
G01X376167Y-77600D02*
Y-80467D01*
X376400Y-81067D01*
X376867Y-81467D01*
X377450Y-81600D01*
X378033Y-81467D01*
X378500Y-81067D01*
X378733Y-80467D01*
Y-77600D01*
G01X381025Y-81067D02*
X381492Y-81400D01*
X382017Y-81600D01*
X382483D01*
X382950Y-81400D01*
X383300Y-81067D01*
X383475Y-80600D01*
X383358Y-80133D01*
X383067Y-79733D01*
X382542Y-79467D01*
X381842Y-79333D01*
X381433Y-79067D01*
X381258Y-78600D01*
X381375Y-78133D01*
X381667Y-77800D01*
X382075Y-77600D01*
X382483D01*
X382892Y-77733D01*
X383242Y-78067D01*
G01X387050Y-77600D02*
Y-81600D01*
G01X385708Y-77600D02*
X388392D01*
G01X391150D02*
X392550D01*
G01X391850D02*
Y-81600D01*
G01X391150D02*
X392550D01*
G01X395308D02*
Y-77600D01*
X397992Y-81600D01*
Y-77600D01*
G01X401450Y-81733D02*
X401333Y-81667D01*
Y-81533D01*
X401450Y-81467D01*
X401567Y-81533D01*
Y-81667D01*
X401450Y-81733D01*
G01X411050Y-77600D02*
Y-81600D01*
G01X409708Y-77600D02*
X412392D01*
G01X417017Y-81600D02*
X414683D01*
Y-77600D01*
X417017D01*
G01X416083Y-79533D02*
X414683D01*
G01X419425Y-81600D02*
X421875Y-77600D01*
G01X419425D02*
X421875Y-81600D01*
G01X423992D02*
X425450Y-77600D01*
X426908Y-81600D01*
G01X426383Y-80200D02*
X424517D01*
G01X429025Y-81067D02*
X429492Y-81400D01*
X430017Y-81600D01*
X430483D01*
X430950Y-81400D01*
X431300Y-81067D01*
X431475Y-80600D01*
X431358Y-80133D01*
X431067Y-79733D01*
X430542Y-79467D01*
X429842Y-79333D01*
X429433Y-79067D01*
X429258Y-78600D01*
X429375Y-78133D01*
X429667Y-77800D01*
X430075Y-77600D01*
X430483D01*
X430892Y-77733D01*
X431242Y-78067D01*
G01X439733Y-81600D02*
X439850Y-80733D01*
X440025Y-80000D01*
X440258Y-79333D01*
X440550Y-78600D01*
X441017Y-77600D01*
X438683D01*
G01X444650Y-81600D02*
X445058Y-81533D01*
X445525Y-81333D01*
X445817Y-81000D01*
X445933Y-80533D01*
X445817Y-80067D01*
X445467Y-79667D01*
X444942Y-79467D01*
X444358D01*
X444008Y-79333D01*
X443717Y-79000D01*
X443600Y-78533D01*
X443775Y-78067D01*
X444183Y-77733D01*
X444650Y-77600D01*
X445117Y-77733D01*
X445525Y-78067D01*
X445700Y-78533D01*
X445583Y-79000D01*
X445292Y-79333D01*
X444942Y-79467D01*
X444358D01*
X443833Y-79667D01*
X443483Y-80067D01*
X443367Y-80533D01*
X443483Y-81000D01*
X443775Y-81333D01*
X444242Y-81533D01*
X444650Y-81600D01*
G01X449333D02*
X449450Y-80733D01*
X449625Y-80000D01*
X449858Y-79333D01*
X450150Y-78600D01*
X450617Y-77600D01*
X448283D01*
G01X452967Y-80800D02*
X453317Y-81267D01*
X453783Y-81533D01*
X454308Y-81600D01*
X454775Y-81533D01*
X455242Y-81200D01*
X455533Y-80800D01*
X455592Y-80400D01*
X455475Y-79933D01*
X455067Y-79600D01*
X454658Y-79467D01*
X454133D01*
G01X454658D02*
X455008Y-79267D01*
X455300Y-78933D01*
X455417Y-78533D01*
X455300Y-78133D01*
X455008Y-77800D01*
X454483Y-77600D01*
X453958Y-77667D01*
X453433Y-77933D01*
G01X457767Y-81000D02*
X458117Y-81333D01*
X458525Y-81533D01*
X459050Y-81600D01*
X459575Y-81467D01*
X459983Y-81200D01*
X460275Y-80733D01*
X460333Y-80200D01*
X460217Y-79667D01*
X459925Y-79333D01*
X459517Y-79067D01*
X459108Y-79000D01*
X458700Y-79067D01*
X458175Y-79333D01*
X458350Y-77600D01*
X459925D01*
G01X467367D02*
Y-80467D01*
X467600Y-81067D01*
X468067Y-81467D01*
X468650Y-81600D01*
X469233Y-81467D01*
X469700Y-81067D01*
X469933Y-80467D01*
Y-77600D01*
G01X472225Y-81067D02*
X472692Y-81400D01*
X473217Y-81600D01*
X473683D01*
X474150Y-81400D01*
X474500Y-81067D01*
X474675Y-80600D01*
X474558Y-80133D01*
X474267Y-79733D01*
X473742Y-79467D01*
X473042Y-79333D01*
X472633Y-79067D01*
X472458Y-78600D01*
X472575Y-78133D01*
X472867Y-77800D01*
X473275Y-77600D01*
X473683D01*
X474092Y-77733D01*
X474442Y-78067D01*
G01X476792Y-81600D02*
X478250Y-77600D01*
X479708Y-81600D01*
G01X479183Y-80200D02*
X477317D01*
G01X371542Y-72933D02*
X371950Y-72467D01*
X372300Y-72200D01*
X372767Y-72067D01*
X373175Y-72200D01*
X373467Y-72467D01*
X373700Y-72867D01*
X373758Y-73333D01*
X373700Y-73733D01*
X373467Y-74133D01*
X373117Y-74467D01*
X372708Y-74600D01*
X372242Y-74467D01*
X371833Y-74067D01*
X371600Y-73467D01*
X371542Y-72800D01*
X371658Y-71933D01*
X371833Y-71467D01*
X372125Y-71000D01*
X372533Y-70667D01*
X372942Y-70600D01*
X373350Y-70733D01*
X373642Y-71067D01*
G01X376167Y-74000D02*
X376517Y-74333D01*
X376925Y-74533D01*
X377450Y-74600D01*
X377975Y-74467D01*
X378383Y-74200D01*
X378675Y-73733D01*
X378733Y-73200D01*
X378617Y-72667D01*
X378325Y-72333D01*
X377917Y-72067D01*
X377508Y-72000D01*
X377100Y-72067D01*
X376575Y-72333D01*
X376750Y-70600D01*
X378325D01*
G01X382250D02*
X381783Y-70733D01*
X381433Y-71067D01*
X381200Y-71467D01*
X381025Y-72000D01*
X380967Y-72600D01*
X381025Y-73200D01*
X381200Y-73733D01*
X381433Y-74133D01*
X381783Y-74467D01*
X382250Y-74600D01*
X382717Y-74467D01*
X383067Y-74133D01*
X383300Y-73733D01*
X383475Y-73200D01*
X383533Y-72600D01*
X383475Y-72000D01*
X383300Y-71467D01*
X383067Y-71067D01*
X382717Y-70733D01*
X382250Y-70600D01*
G01X387050Y-74600D02*
Y-70600D01*
X386350Y-71400D01*
G01Y-74600D02*
X387750D01*
G01X394900Y-70600D02*
X395717Y-74600D01*
X396650Y-70600D01*
X397583Y-74600D01*
X398400Y-70600D01*
G01X400750D02*
X402150D01*
G01X401450D02*
Y-74600D01*
G01X400750D02*
X402150D01*
G01X405083Y-70600D02*
Y-74600D01*
X407417D01*
G01X409883Y-70600D02*
Y-74600D01*
X412217D01*
G01X415150Y-70600D02*
X416550D01*
G01X415850D02*
Y-74600D01*
G01X415150D02*
X416550D01*
G01X419192D02*
X420650Y-70600D01*
X422108Y-74600D01*
G01X421583Y-73200D02*
X419717D01*
G01X423933Y-74600D02*
Y-70600D01*
X425450Y-73933D01*
X426967Y-70600D01*
Y-74600D01*
G01X436333Y-70933D02*
X435983Y-70733D01*
X435575Y-70600D01*
X435108D01*
X434583Y-70800D01*
X434175Y-71133D01*
X433883Y-71533D01*
X433650Y-72200D01*
X433592Y-72800D01*
X433708Y-73400D01*
X433883Y-73800D01*
X434233Y-74200D01*
X434642Y-74467D01*
X435050Y-74600D01*
X435458D01*
X435867Y-74467D01*
X436217Y-74267D01*
X436508Y-74000D01*
G01X438392Y-74600D02*
X439850Y-70600D01*
X441308Y-74600D01*
G01X440783Y-73200D02*
X438917D01*
G01X443308Y-74600D02*
Y-70600D01*
X445992Y-74600D01*
Y-70600D01*
G01X448108Y-74600D02*
Y-70600D01*
X450792Y-74600D01*
Y-70600D01*
G01X454250Y-74600D02*
X453783Y-74533D01*
X453375Y-74267D01*
X453025Y-73867D01*
X452792Y-73400D01*
X452675Y-72867D01*
Y-72333D01*
X452792Y-71800D01*
X453025Y-71333D01*
X453375Y-70933D01*
X453783Y-70667D01*
X454250Y-70600D01*
X454717Y-70667D01*
X455125Y-70933D01*
X455475Y-71333D01*
X455708Y-71800D01*
X455825Y-72333D01*
Y-72867D01*
X455708Y-73400D01*
X455475Y-73867D01*
X455125Y-74267D01*
X454717Y-74533D01*
X454250Y-74600D01*
G01X457708D02*
Y-70600D01*
X460392Y-74600D01*
Y-70600D01*
G01X467367Y-74600D02*
Y-70600D01*
X468533D01*
X469000Y-70800D01*
X469350Y-71067D01*
X469642Y-71467D01*
X469875Y-71933D01*
X469933Y-72600D01*
X469875Y-73267D01*
X469642Y-73733D01*
X469350Y-74133D01*
X469000Y-74400D01*
X468533Y-74600D01*
X467367D01*
G01X472283D02*
Y-70600D01*
X473742D01*
X474208Y-70800D01*
X474500Y-71067D01*
X474617Y-71600D01*
X474500Y-72133D01*
X474150Y-72467D01*
X473742Y-72667D01*
X472283D01*
G01X473742D02*
X474617Y-74600D01*
G01X477550Y-70600D02*
X478950D01*
G01X478250D02*
Y-74600D01*
G01X477550D02*
X478950D01*
G01X481592Y-70600D02*
X483050Y-74600D01*
X484508Y-70600D01*
G01X489017Y-74600D02*
X486683D01*
Y-70600D01*
X489017D01*
G01X488083Y-72533D02*
X486683D01*
G01X495700Y-70600D02*
X496517Y-74600D01*
X497450Y-70600D01*
X498383Y-74600D01*
X499200Y-70600D01*
G01X503417Y-74600D02*
X501083D01*
Y-70600D01*
X503417D01*
G01X502483Y-72533D02*
X501083D01*
G01X505825Y-74067D02*
X506292Y-74400D01*
X506817Y-74600D01*
X507283D01*
X507750Y-74400D01*
X508100Y-74067D01*
X508275Y-73600D01*
X508158Y-73133D01*
X507867Y-72733D01*
X507342Y-72467D01*
X506642Y-72333D01*
X506233Y-72067D01*
X506058Y-71600D01*
X506175Y-71133D01*
X506467Y-70800D01*
X506875Y-70600D01*
X507283D01*
X507692Y-70733D01*
X508042Y-71067D01*
G01X511850Y-70600D02*
Y-74600D01*
G01X510508Y-70600D02*
X513192D01*
G01X371553Y-65600D02*
Y-58100D01*
X375847Y-65600D01*
Y-58100D01*
G01X379240Y-65600D02*
X383160Y-58100D01*
G01X379240D02*
X383160Y-65600D01*
G01X386833D02*
Y-58100D01*
X389073D01*
X389820Y-58475D01*
X390380Y-59350D01*
X390567Y-60350D01*
X390380Y-61350D01*
X389913Y-62100D01*
X389073Y-62475D01*
X386833D01*
G01X401740Y-64600D02*
X402487Y-65225D01*
X403327Y-65600D01*
X404073D01*
X404820Y-65225D01*
X405380Y-64600D01*
X405660Y-63725D01*
X405473Y-62850D01*
X405007Y-62100D01*
X404167Y-61600D01*
X403047Y-61350D01*
X402393Y-60850D01*
X402113Y-59975D01*
X402300Y-59100D01*
X402767Y-58475D01*
X403420Y-58100D01*
X404073D01*
X404727Y-58350D01*
X405287Y-58975D01*
G01X413067Y-65600D02*
X409333D01*
Y-58100D01*
X413067D01*
G01X411573Y-61725D02*
X409333D01*
G01X416273Y-65600D02*
Y-58100D01*
X418700Y-64350D01*
X421127Y-58100D01*
Y-65600D01*
G01X425080Y-58100D02*
X427320D01*
G01X426200D02*
Y-65600D01*
G01X425080D02*
X427320D01*
G01X435753Y-58725D02*
X435193Y-58350D01*
X434540Y-58100D01*
X433793D01*
X432953Y-58475D01*
X432300Y-59100D01*
X431833Y-59850D01*
X431460Y-61100D01*
X431367Y-62225D01*
X431553Y-63350D01*
X431833Y-64100D01*
X432393Y-64850D01*
X433047Y-65350D01*
X433700Y-65600D01*
X434353D01*
X435007Y-65350D01*
X435567Y-64975D01*
X436033Y-64475D01*
G01X441200Y-65600D02*
X440453Y-65475D01*
X439800Y-64975D01*
X439240Y-64225D01*
X438867Y-63350D01*
X438680Y-62350D01*
Y-61350D01*
X438867Y-60350D01*
X439240Y-59475D01*
X439800Y-58725D01*
X440453Y-58225D01*
X441200Y-58100D01*
X441947Y-58225D01*
X442600Y-58725D01*
X443160Y-59475D01*
X443533Y-60350D01*
X443720Y-61350D01*
Y-62350D01*
X443533Y-63350D01*
X443160Y-64225D01*
X442600Y-64975D01*
X441947Y-65475D01*
X441200Y-65600D01*
G01X446553D02*
Y-58100D01*
X450847Y-65600D01*
Y-58100D01*
G01X454147Y-65600D02*
Y-58100D01*
X456013D01*
X456760Y-58475D01*
X457320Y-58975D01*
X457787Y-59725D01*
X458160Y-60600D01*
X458253Y-61850D01*
X458160Y-63100D01*
X457787Y-63975D01*
X457320Y-64725D01*
X456760Y-65225D01*
X456013Y-65600D01*
X454147D01*
G01X461647Y-58100D02*
Y-63475D01*
X462020Y-64600D01*
X462767Y-65350D01*
X463700Y-65600D01*
X464633Y-65350D01*
X465380Y-64600D01*
X465753Y-63475D01*
Y-58100D01*
G01X473253Y-58725D02*
X472693Y-58350D01*
X472040Y-58100D01*
X471293D01*
X470453Y-58475D01*
X469800Y-59100D01*
X469333Y-59850D01*
X468960Y-61100D01*
X468867Y-62225D01*
X469053Y-63350D01*
X469333Y-64100D01*
X469893Y-64850D01*
X470547Y-65350D01*
X471200Y-65600D01*
X471853D01*
X472507Y-65350D01*
X473067Y-64975D01*
X473533Y-64475D01*
G01X478700Y-58100D02*
Y-65600D01*
G01X476553Y-58100D02*
X480847D01*
G01X486200Y-65600D02*
X485453Y-65475D01*
X484800Y-64975D01*
X484240Y-64225D01*
X483867Y-63350D01*
X483680Y-62350D01*
Y-61350D01*
X483867Y-60350D01*
X484240Y-59475D01*
X484800Y-58725D01*
X485453Y-58225D01*
X486200Y-58100D01*
X486947Y-58225D01*
X487600Y-58725D01*
X488160Y-59475D01*
X488533Y-60350D01*
X488720Y-61350D01*
Y-62350D01*
X488533Y-63350D01*
X488160Y-64225D01*
X487600Y-64975D01*
X486947Y-65475D01*
X486200Y-65600D01*
G01X491833D02*
Y-58100D01*
X494167D01*
X494913Y-58475D01*
X495380Y-58975D01*
X495567Y-59975D01*
X495380Y-60975D01*
X494820Y-61600D01*
X494167Y-61975D01*
X491833D01*
G01X494167D02*
X495567Y-65600D01*
G01X499240Y-64600D02*
X499987Y-65225D01*
X500827Y-65600D01*
X501573D01*
X502320Y-65225D01*
X502880Y-64600D01*
X503160Y-63725D01*
X502973Y-62850D01*
X502507Y-62100D01*
X501667Y-61600D01*
X500547Y-61350D01*
X499893Y-60850D01*
X499613Y-59975D01*
X499800Y-59100D01*
X500267Y-58475D01*
X500920Y-58100D01*
X501573D01*
X502227Y-58350D01*
X502787Y-58975D01*
G01X377308Y-131600D02*
Y-127600D01*
X379992Y-131600D01*
Y-127600D01*
G01X382225Y-131600D02*
X384675Y-127600D01*
G01X382225D02*
X384675Y-131600D01*
G01X387083D02*
Y-127600D01*
X388483D01*
X388950Y-127800D01*
X389300Y-128267D01*
X389417Y-128800D01*
X389300Y-129333D01*
X389008Y-129733D01*
X388483Y-129933D01*
X387083D01*
G01X393050Y-131733D02*
X392933Y-131667D01*
Y-131533D01*
X393050Y-131467D01*
X393167Y-131533D01*
Y-131667D01*
X393050Y-131733D01*
G01X379650Y-123600D02*
X379183Y-123533D01*
X378775Y-123267D01*
X378425Y-122867D01*
X378192Y-122400D01*
X378075Y-121867D01*
Y-121333D01*
X378192Y-120800D01*
X378425Y-120333D01*
X378775Y-119933D01*
X379183Y-119667D01*
X379650Y-119600D01*
X380117Y-119667D01*
X380525Y-119933D01*
X380875Y-120333D01*
X381108Y-120800D01*
X381225Y-121333D01*
Y-121867D01*
X381108Y-122400D01*
X380875Y-122867D01*
X380525Y-123267D01*
X380117Y-123533D01*
X379650Y-123600D01*
G01X383283D02*
Y-119600D01*
X384742D01*
X385208Y-119800D01*
X385500Y-120067D01*
X385617Y-120600D01*
X385500Y-121133D01*
X385150Y-121467D01*
X384742Y-121667D01*
X383283D01*
G01X384742D02*
X385617Y-123600D01*
G01X393350Y-119600D02*
X394750D01*
G01X394050D02*
Y-123600D01*
G01X393350D02*
X394750D01*
G01X397508D02*
Y-119600D01*
X400192Y-123600D01*
Y-119600D01*
G01X407283Y-123600D02*
Y-119600D01*
X408683D01*
X409150Y-119800D01*
X409500Y-120267D01*
X409617Y-120800D01*
X409500Y-121333D01*
X409208Y-121733D01*
X408683Y-121933D01*
X407283D01*
G01X411792Y-123600D02*
X413250Y-119600D01*
X414708Y-123600D01*
G01X414183Y-122200D02*
X412317D01*
G01X416883Y-123600D02*
Y-119600D01*
X418342D01*
X418808Y-119800D01*
X419100Y-120067D01*
X419217Y-120600D01*
X419100Y-121133D01*
X418750Y-121467D01*
X418342Y-121667D01*
X416883D01*
G01X418342D02*
X419217Y-123600D01*
G01X422850Y-119600D02*
Y-123600D01*
G01X421508Y-119600D02*
X424192D01*
G01X430700D02*
X431517Y-123600D01*
X432450Y-119600D01*
X433383Y-123600D01*
X434200Y-119600D01*
G01X436550D02*
X437950D01*
G01X437250D02*
Y-123600D01*
G01X436550D02*
X437950D01*
G01X442050Y-119600D02*
Y-123600D01*
G01X440708Y-119600D02*
X443392D01*
G01X445625Y-123600D02*
Y-119600D01*
G01X448075D02*
Y-123600D01*
G01Y-121600D02*
X445625D01*
G01X451650Y-123600D02*
X451183Y-123533D01*
X450775Y-123267D01*
X450425Y-122867D01*
X450192Y-122400D01*
X450075Y-121867D01*
Y-121333D01*
X450192Y-120800D01*
X450425Y-120333D01*
X450775Y-119933D01*
X451183Y-119667D01*
X451650Y-119600D01*
X452117Y-119667D01*
X452525Y-119933D01*
X452875Y-120333D01*
X453108Y-120800D01*
X453225Y-121333D01*
Y-121867D01*
X453108Y-122400D01*
X452875Y-122867D01*
X452525Y-123267D01*
X452117Y-123533D01*
X451650Y-123600D01*
G01X455167Y-119600D02*
Y-122467D01*
X455400Y-123067D01*
X455867Y-123467D01*
X456450Y-123600D01*
X457033Y-123467D01*
X457500Y-123067D01*
X457733Y-122467D01*
Y-119600D01*
G01X461250D02*
Y-123600D01*
G01X459908Y-119600D02*
X462592D01*
G01X470850D02*
Y-123600D01*
G01X469508Y-119600D02*
X472192D01*
G01X474425Y-123600D02*
Y-119600D01*
G01X476875D02*
Y-123600D01*
G01Y-121600D02*
X474425D01*
G01X481617Y-123600D02*
X479283D01*
Y-119600D01*
X481617D01*
G01X480683Y-121533D02*
X479283D01*
G01X491333Y-119933D02*
X490983Y-119733D01*
X490575Y-119600D01*
X490108D01*
X489583Y-119800D01*
X489175Y-120133D01*
X488883Y-120533D01*
X488650Y-121200D01*
X488592Y-121800D01*
X488708Y-122400D01*
X488883Y-122800D01*
X489233Y-123200D01*
X489642Y-123467D01*
X490050Y-123600D01*
X490458D01*
X490867Y-123467D01*
X491217Y-123267D01*
X491508Y-123000D01*
G01X494850Y-123600D02*
X494383Y-123533D01*
X493975Y-123267D01*
X493625Y-122867D01*
X493392Y-122400D01*
X493275Y-121867D01*
Y-121333D01*
X493392Y-120800D01*
X493625Y-120333D01*
X493975Y-119933D01*
X494383Y-119667D01*
X494850Y-119600D01*
X495317Y-119667D01*
X495725Y-119933D01*
X496075Y-120333D01*
X496308Y-120800D01*
X496425Y-121333D01*
Y-121867D01*
X496308Y-122400D01*
X496075Y-122867D01*
X495725Y-123267D01*
X495317Y-123533D01*
X494850Y-123600D01*
G01X498308D02*
Y-119600D01*
X500992Y-123600D01*
Y-119600D01*
G01X503225Y-123067D02*
X503692Y-123400D01*
X504217Y-123600D01*
X504683D01*
X505150Y-123400D01*
X505500Y-123067D01*
X505675Y-122600D01*
X505558Y-122133D01*
X505267Y-121733D01*
X504742Y-121467D01*
X504042Y-121333D01*
X503633Y-121067D01*
X503458Y-120600D01*
X503575Y-120133D01*
X503867Y-119800D01*
X504275Y-119600D01*
X504683D01*
X505092Y-119733D01*
X505442Y-120067D01*
G01X510417Y-123600D02*
X508083D01*
Y-119600D01*
X510417D01*
G01X509483Y-121533D02*
X508083D01*
G01X512708Y-123600D02*
Y-119600D01*
X515392Y-123600D01*
Y-119600D01*
G01X518850D02*
Y-123600D01*
G01X517508Y-119600D02*
X520192D01*
G01X528450Y-123600D02*
X527983Y-123533D01*
X527575Y-123267D01*
X527225Y-122867D01*
X526992Y-122400D01*
X526875Y-121867D01*
Y-121333D01*
X526992Y-120800D01*
X527225Y-120333D01*
X527575Y-119933D01*
X527983Y-119667D01*
X528450Y-119600D01*
X528917Y-119667D01*
X529325Y-119933D01*
X529675Y-120333D01*
X529908Y-120800D01*
X530025Y-121333D01*
Y-121867D01*
X529908Y-122400D01*
X529675Y-122867D01*
X529325Y-123267D01*
X528917Y-123533D01*
X528450Y-123600D01*
G01X532142D02*
Y-119600D01*
X534358D01*
G01X533542Y-121533D02*
X532142D01*
G01X378483Y-115600D02*
Y-111600D01*
X379883D01*
X380350Y-111800D01*
X380700Y-112267D01*
X380817Y-112800D01*
X380700Y-113333D01*
X380408Y-113733D01*
X379883Y-113933D01*
X378483D01*
G01X383283Y-115600D02*
Y-111600D01*
X384742D01*
X385208Y-111800D01*
X385500Y-112067D01*
X385617Y-112600D01*
X385500Y-113133D01*
X385150Y-113467D01*
X384742Y-113667D01*
X383283D01*
G01X384742D02*
X385617Y-115600D01*
G01X389250D02*
X388783Y-115533D01*
X388375Y-115267D01*
X388025Y-114867D01*
X387792Y-114400D01*
X387675Y-113867D01*
Y-113333D01*
X387792Y-112800D01*
X388025Y-112333D01*
X388375Y-111933D01*
X388783Y-111667D01*
X389250Y-111600D01*
X389717Y-111667D01*
X390125Y-111933D01*
X390475Y-112333D01*
X390708Y-112800D01*
X390825Y-113333D01*
Y-113867D01*
X390708Y-114400D01*
X390475Y-114867D01*
X390125Y-115267D01*
X389717Y-115533D01*
X389250Y-115600D01*
G01X395333Y-111933D02*
X394983Y-111733D01*
X394575Y-111600D01*
X394108D01*
X393583Y-111800D01*
X393175Y-112133D01*
X392883Y-112533D01*
X392650Y-113200D01*
X392592Y-113800D01*
X392708Y-114400D01*
X392883Y-114800D01*
X393233Y-115200D01*
X393642Y-115467D01*
X394050Y-115600D01*
X394458D01*
X394867Y-115467D01*
X395217Y-115267D01*
X395508Y-115000D01*
G01X397567Y-111600D02*
Y-114467D01*
X397800Y-115067D01*
X398267Y-115467D01*
X398850Y-115600D01*
X399433Y-115467D01*
X399900Y-115067D01*
X400133Y-114467D01*
Y-111600D01*
G01X402483Y-115600D02*
Y-111600D01*
X403942D01*
X404408Y-111800D01*
X404700Y-112067D01*
X404817Y-112600D01*
X404700Y-113133D01*
X404350Y-113467D01*
X403942Y-113667D01*
X402483D01*
G01X403942D02*
X404817Y-115600D01*
G01X409617D02*
X407283D01*
Y-111600D01*
X409617D01*
G01X408683Y-113533D02*
X407283D01*
G01X411733Y-115600D02*
Y-111600D01*
X413250Y-114933D01*
X414767Y-111600D01*
Y-115600D01*
G01X419217D02*
X416883D01*
Y-111600D01*
X419217D01*
G01X418283Y-113533D02*
X416883D01*
G01X421508Y-115600D02*
Y-111600D01*
X424192Y-115600D01*
Y-111600D01*
G01X427650D02*
Y-115600D01*
G01X426308Y-111600D02*
X428992D01*
G01X437250Y-115600D02*
X436783Y-115533D01*
X436375Y-115267D01*
X436025Y-114867D01*
X435792Y-114400D01*
X435675Y-113867D01*
Y-113333D01*
X435792Y-112800D01*
X436025Y-112333D01*
X436375Y-111933D01*
X436783Y-111667D01*
X437250Y-111600D01*
X437717Y-111667D01*
X438125Y-111933D01*
X438475Y-112333D01*
X438708Y-112800D01*
X438825Y-113333D01*
Y-113867D01*
X438708Y-114400D01*
X438475Y-114867D01*
X438125Y-115267D01*
X437717Y-115533D01*
X437250Y-115600D01*
G01X440883D02*
Y-111600D01*
X442342D01*
X442808Y-111800D01*
X443100Y-112067D01*
X443217Y-112600D01*
X443100Y-113133D01*
X442750Y-113467D01*
X442342Y-113667D01*
X440883D01*
G01X442342D02*
X443217Y-115600D01*
G01X450133D02*
Y-111600D01*
X451650Y-114933D01*
X453167Y-111600D01*
Y-115600D01*
G01X454992D02*
X456450Y-111600D01*
X457908Y-115600D01*
G01X457383Y-114200D02*
X455517D01*
G01X459908Y-115600D02*
Y-111600D01*
X462592Y-115600D01*
Y-111600D01*
G01X464767D02*
Y-114467D01*
X465000Y-115067D01*
X465467Y-115467D01*
X466050Y-115600D01*
X466633Y-115467D01*
X467100Y-115067D01*
X467333Y-114467D01*
Y-111600D01*
G01X469742Y-115600D02*
Y-111600D01*
X471958D01*
G01X471142Y-113533D02*
X469742D01*
G01X474192Y-115600D02*
X475650Y-111600D01*
X477108Y-115600D01*
G01X476583Y-114200D02*
X474717D01*
G01X481733Y-111933D02*
X481383Y-111733D01*
X480975Y-111600D01*
X480508D01*
X479983Y-111800D01*
X479575Y-112133D01*
X479283Y-112533D01*
X479050Y-113200D01*
X478992Y-113800D01*
X479108Y-114400D01*
X479283Y-114800D01*
X479633Y-115200D01*
X480042Y-115467D01*
X480450Y-115600D01*
X480858D01*
X481267Y-115467D01*
X481617Y-115267D01*
X481908Y-115000D01*
G01X485250Y-111600D02*
Y-115600D01*
G01X483908Y-111600D02*
X486592D01*
G01X488767D02*
Y-114467D01*
X489000Y-115067D01*
X489467Y-115467D01*
X490050Y-115600D01*
X490633Y-115467D01*
X491100Y-115067D01*
X491333Y-114467D01*
Y-111600D01*
G01X493683Y-115600D02*
Y-111600D01*
X495142D01*
X495608Y-111800D01*
X495900Y-112067D01*
X496017Y-112600D01*
X495900Y-113133D01*
X495550Y-113467D01*
X495142Y-113667D01*
X493683D01*
G01X495142D02*
X496017Y-115600D01*
G01X500817D02*
X498483D01*
Y-111600D01*
X500817D01*
G01X499883Y-113533D02*
X498483D01*
G01X508550Y-111600D02*
X509950D01*
G01X509250D02*
Y-115600D01*
G01X508550D02*
X509950D01*
G01X512708D02*
Y-111600D01*
X515392Y-115600D01*
Y-111600D01*
G01X521900D02*
X522717Y-115600D01*
X523650Y-111600D01*
X524583Y-115600D01*
X525400Y-111600D01*
G01X527225Y-115600D02*
Y-111600D01*
G01X529675D02*
Y-115600D01*
G01Y-113600D02*
X527225D01*
G01X533250Y-115600D02*
X532783Y-115533D01*
X532375Y-115267D01*
X532025Y-114867D01*
X531792Y-114400D01*
X531675Y-113867D01*
Y-113333D01*
X531792Y-112800D01*
X532025Y-112333D01*
X532375Y-111933D01*
X532783Y-111667D01*
X533250Y-111600D01*
X533717Y-111667D01*
X534125Y-111933D01*
X534475Y-112333D01*
X534708Y-112800D01*
X534825Y-113333D01*
Y-113867D01*
X534708Y-114400D01*
X534475Y-114867D01*
X534125Y-115267D01*
X533717Y-115533D01*
X533250Y-115600D01*
G01X536883Y-111600D02*
Y-115600D01*
X539217D01*
G01X544017D02*
X541683D01*
Y-111600D01*
X544017D01*
G01X543083Y-113533D02*
X541683D01*
G01X379117Y-105467D02*
X379350Y-105267D01*
X379525Y-104933D01*
X379642Y-104467D01*
X379525Y-104067D01*
X379292Y-103800D01*
X378883Y-103600D01*
X377308D01*
Y-107600D01*
X379233D01*
X379642Y-107333D01*
X379875Y-106933D01*
X379992Y-106467D01*
X379875Y-106000D01*
X379525Y-105600D01*
X379117Y-105467D01*
X377308D01*
G01X384617Y-107600D02*
X382283D01*
Y-103600D01*
X384617D01*
G01X383683Y-105533D02*
X382283D01*
G01X391767Y-103600D02*
Y-106467D01*
X392000Y-107067D01*
X392467Y-107467D01*
X393050Y-107600D01*
X393633Y-107467D01*
X394100Y-107067D01*
X394333Y-106467D01*
Y-103600D01*
G01X396625Y-107067D02*
X397092Y-107400D01*
X397617Y-107600D01*
X398083D01*
X398550Y-107400D01*
X398900Y-107067D01*
X399075Y-106600D01*
X398958Y-106133D01*
X398667Y-105733D01*
X398142Y-105467D01*
X397442Y-105333D01*
X397033Y-105067D01*
X396858Y-104600D01*
X396975Y-104133D01*
X397267Y-103800D01*
X397675Y-103600D01*
X398083D01*
X398492Y-103733D01*
X398842Y-104067D01*
G01X403817Y-107600D02*
X401483D01*
Y-103600D01*
X403817D01*
G01X402883Y-105533D02*
X401483D01*
G01X406167Y-107600D02*
Y-103600D01*
X407333D01*
X407800Y-103800D01*
X408150Y-104067D01*
X408442Y-104467D01*
X408675Y-104933D01*
X408733Y-105600D01*
X408675Y-106267D01*
X408442Y-106733D01*
X408150Y-107133D01*
X407800Y-107400D01*
X407333Y-107600D01*
X406167D01*
G01X415942D02*
Y-103600D01*
X418158D01*
G01X417342Y-105533D02*
X415942D01*
G01X421850Y-107600D02*
X421383Y-107533D01*
X420975Y-107267D01*
X420625Y-106867D01*
X420392Y-106400D01*
X420275Y-105867D01*
Y-105333D01*
X420392Y-104800D01*
X420625Y-104333D01*
X420975Y-103933D01*
X421383Y-103667D01*
X421850Y-103600D01*
X422317Y-103667D01*
X422725Y-103933D01*
X423075Y-104333D01*
X423308Y-104800D01*
X423425Y-105333D01*
Y-105867D01*
X423308Y-106400D01*
X423075Y-106867D01*
X422725Y-107267D01*
X422317Y-107533D01*
X421850Y-107600D01*
G01X425483D02*
Y-103600D01*
X426942D01*
X427408Y-103800D01*
X427700Y-104067D01*
X427817Y-104600D01*
X427700Y-105133D01*
X427350Y-105467D01*
X426942Y-105667D01*
X425483D01*
G01X426942D02*
X427817Y-107600D01*
G01X437417D02*
X435083D01*
Y-103600D01*
X437417D01*
G01X436483Y-105533D02*
X435083D01*
G01X439708Y-107600D02*
Y-103600D01*
X442392Y-107600D01*
Y-103600D01*
G01X446200Y-105600D02*
X447367D01*
Y-106800D01*
X447017Y-107200D01*
X446608Y-107467D01*
X446025Y-107600D01*
X445442Y-107467D01*
X445033Y-107200D01*
X444683Y-106800D01*
X444450Y-106333D01*
X444333Y-105800D01*
Y-105333D01*
X444450Y-104933D01*
X444683Y-104467D01*
X445033Y-104067D01*
X445383Y-103800D01*
X445850Y-103600D01*
X446258D01*
X446725Y-103733D01*
X447075Y-104000D01*
G01X449950Y-103600D02*
X451350D01*
G01X450650D02*
Y-107600D01*
G01X449950D02*
X451350D01*
G01X454108D02*
Y-103600D01*
X456792Y-107600D01*
Y-103600D01*
G01X461417Y-107600D02*
X459083D01*
Y-103600D01*
X461417D01*
G01X460483Y-105533D02*
X459083D01*
G01X466217Y-107600D02*
X463883D01*
Y-103600D01*
X466217D01*
G01X465283Y-105533D02*
X463883D01*
G01X468683Y-107600D02*
Y-103600D01*
X470142D01*
X470608Y-103800D01*
X470900Y-104067D01*
X471017Y-104600D01*
X470900Y-105133D01*
X470550Y-105467D01*
X470142Y-105667D01*
X468683D01*
G01X470142D02*
X471017Y-107600D01*
G01X473950Y-103600D02*
X475350D01*
G01X474650D02*
Y-107600D01*
G01X473950D02*
X475350D01*
G01X478108D02*
Y-103600D01*
X480792Y-107600D01*
Y-103600D01*
G01X484600Y-105600D02*
X485767D01*
Y-106800D01*
X485417Y-107200D01*
X485008Y-107467D01*
X484425Y-107600D01*
X483842Y-107467D01*
X483433Y-107200D01*
X483083Y-106800D01*
X482850Y-106333D01*
X482733Y-105800D01*
Y-105333D01*
X482850Y-104933D01*
X483083Y-104467D01*
X483433Y-104067D01*
X483783Y-103800D01*
X484250Y-103600D01*
X484658D01*
X485125Y-103733D01*
X485475Y-104000D01*
G01X492567Y-107600D02*
Y-103600D01*
X493733D01*
X494200Y-103800D01*
X494550Y-104067D01*
X494842Y-104467D01*
X495075Y-104933D01*
X495133Y-105600D01*
X495075Y-106267D01*
X494842Y-106733D01*
X494550Y-107133D01*
X494200Y-107400D01*
X493733Y-107600D01*
X492567D01*
G01X499817D02*
X497483D01*
Y-103600D01*
X499817D01*
G01X498883Y-105533D02*
X497483D01*
G01X502225Y-107067D02*
X502692Y-107400D01*
X503217Y-107600D01*
X503683D01*
X504150Y-107400D01*
X504500Y-107067D01*
X504675Y-106600D01*
X504558Y-106133D01*
X504267Y-105733D01*
X503742Y-105467D01*
X503042Y-105333D01*
X502633Y-105067D01*
X502458Y-104600D01*
X502575Y-104133D01*
X502867Y-103800D01*
X503275Y-103600D01*
X503683D01*
X504092Y-103733D01*
X504442Y-104067D01*
G01X507550Y-103600D02*
X508950D01*
G01X508250D02*
Y-107600D01*
G01X507550D02*
X508950D01*
G01X513400Y-105600D02*
X514567D01*
Y-106800D01*
X514217Y-107200D01*
X513808Y-107467D01*
X513225Y-107600D01*
X512642Y-107467D01*
X512233Y-107200D01*
X511883Y-106800D01*
X511650Y-106333D01*
X511533Y-105800D01*
Y-105333D01*
X511650Y-104933D01*
X511883Y-104467D01*
X512233Y-104067D01*
X512583Y-103800D01*
X513050Y-103600D01*
X513458D01*
X513925Y-103733D01*
X514275Y-104000D01*
G01X516508Y-107600D02*
Y-103600D01*
X519192Y-107600D01*
Y-103600D01*
G01X377483Y-99600D02*
Y-95600D01*
X378883D01*
X379350Y-95800D01*
X379700Y-96267D01*
X379817Y-96800D01*
X379700Y-97333D01*
X379408Y-97733D01*
X378883Y-97933D01*
X377483D01*
G01X382283Y-99600D02*
Y-95600D01*
X383742D01*
X384208Y-95800D01*
X384500Y-96067D01*
X384617Y-96600D01*
X384500Y-97133D01*
X384150Y-97467D01*
X383742Y-97667D01*
X382283D01*
G01X383742D02*
X384617Y-99600D01*
G01X388250D02*
X387783Y-99533D01*
X387375Y-99267D01*
X387025Y-98867D01*
X386792Y-98400D01*
X386675Y-97867D01*
Y-97333D01*
X386792Y-96800D01*
X387025Y-96333D01*
X387375Y-95933D01*
X387783Y-95667D01*
X388250Y-95600D01*
X388717Y-95667D01*
X389125Y-95933D01*
X389475Y-96333D01*
X389708Y-96800D01*
X389825Y-97333D01*
Y-97867D01*
X389708Y-98400D01*
X389475Y-98867D01*
X389125Y-99267D01*
X388717Y-99533D01*
X388250Y-99600D01*
G01X391883D02*
Y-95600D01*
X393283D01*
X393750Y-95800D01*
X394100Y-96267D01*
X394217Y-96800D01*
X394100Y-97333D01*
X393808Y-97733D01*
X393283Y-97933D01*
X391883D01*
G01X396683Y-99600D02*
Y-95600D01*
X398142D01*
X398608Y-95800D01*
X398900Y-96067D01*
X399017Y-96600D01*
X398900Y-97133D01*
X398550Y-97467D01*
X398142Y-97667D01*
X396683D01*
G01X398142D02*
X399017Y-99600D01*
G01X401950Y-95600D02*
X403350D01*
G01X402650D02*
Y-99600D01*
G01X401950D02*
X403350D01*
G01X408617D02*
X406283D01*
Y-95600D01*
X408617D01*
G01X407683Y-97533D02*
X406283D01*
G01X412250Y-95600D02*
Y-99600D01*
G01X410908Y-95600D02*
X413592D01*
G01X415592Y-99600D02*
X417050Y-95600D01*
X418508Y-99600D01*
G01X417983Y-98200D02*
X416117D01*
G01X420683Y-99600D02*
Y-95600D01*
X422142D01*
X422608Y-95800D01*
X422900Y-96067D01*
X423017Y-96600D01*
X422900Y-97133D01*
X422550Y-97467D01*
X422142Y-97667D01*
X420683D01*
G01X422142D02*
X423017Y-99600D01*
G01X426650D02*
Y-97800D01*
X425483Y-95600D01*
G01X427817D02*
X426650Y-97800D01*
G01X436250Y-95600D02*
Y-99600D01*
G01X434908Y-95600D02*
X437592D01*
G01X441050Y-99600D02*
X440583Y-99533D01*
X440175Y-99267D01*
X439825Y-98867D01*
X439592Y-98400D01*
X439475Y-97867D01*
Y-97333D01*
X439592Y-96800D01*
X439825Y-96333D01*
X440175Y-95933D01*
X440583Y-95667D01*
X441050Y-95600D01*
X441517Y-95667D01*
X441925Y-95933D01*
X442275Y-96333D01*
X442508Y-96800D01*
X442625Y-97333D01*
Y-97867D01*
X442508Y-98400D01*
X442275Y-98867D01*
X441925Y-99267D01*
X441517Y-99533D01*
X441050Y-99600D01*
G01X449308D02*
Y-95600D01*
X451992Y-99600D01*
Y-95600D01*
G01X454225Y-99600D02*
X456675Y-95600D01*
G01X454225D02*
X456675Y-99600D01*
G01X459083D02*
Y-95600D01*
X460483D01*
X460950Y-95800D01*
X461300Y-96267D01*
X461417Y-96800D01*
X461300Y-97333D01*
X461008Y-97733D01*
X460483Y-97933D01*
X459083D01*
G01X468392Y-99600D02*
X469850Y-95600D01*
X471308Y-99600D01*
G01X470783Y-98200D02*
X468917D01*
G01X473308Y-99600D02*
Y-95600D01*
X475992Y-99600D01*
Y-95600D01*
G01X478167Y-99600D02*
Y-95600D01*
X479333D01*
X479800Y-95800D01*
X480150Y-96067D01*
X480442Y-96467D01*
X480675Y-96933D01*
X480733Y-97600D01*
X480675Y-98267D01*
X480442Y-98733D01*
X480150Y-99133D01*
X479800Y-99400D01*
X479333Y-99600D01*
X478167D01*
G01X487825Y-99067D02*
X488292Y-99400D01*
X488817Y-99600D01*
X489283D01*
X489750Y-99400D01*
X490100Y-99067D01*
X490275Y-98600D01*
X490158Y-98133D01*
X489867Y-97733D01*
X489342Y-97467D01*
X488642Y-97333D01*
X488233Y-97067D01*
X488058Y-96600D01*
X488175Y-96133D01*
X488467Y-95800D01*
X488875Y-95600D01*
X489283D01*
X489692Y-95733D01*
X490042Y-96067D01*
G01X492625Y-99600D02*
Y-95600D01*
G01X495075D02*
Y-99600D01*
G01Y-97600D02*
X492625D01*
G01X497192Y-99600D02*
X498650Y-95600D01*
X500108Y-99600D01*
G01X499583Y-98200D02*
X497717D01*
G01X502283Y-95600D02*
Y-99600D01*
X504617D01*
G01X507083Y-95600D02*
Y-99600D01*
X509417D01*
G01X516508D02*
Y-95600D01*
X519192Y-99600D01*
Y-95600D01*
G01X522650Y-99600D02*
X522183Y-99533D01*
X521775Y-99267D01*
X521425Y-98867D01*
X521192Y-98400D01*
X521075Y-97867D01*
Y-97333D01*
X521192Y-96800D01*
X521425Y-96333D01*
X521775Y-95933D01*
X522183Y-95667D01*
X522650Y-95600D01*
X523117Y-95667D01*
X523525Y-95933D01*
X523875Y-96333D01*
X524108Y-96800D01*
X524225Y-97333D01*
Y-97867D01*
X524108Y-98400D01*
X523875Y-98867D01*
X523525Y-99267D01*
X523117Y-99533D01*
X522650Y-99600D01*
G01X527450Y-95600D02*
Y-99600D01*
G01X526108Y-95600D02*
X528792D01*
G01X378650Y-87600D02*
Y-91600D01*
G01X377308Y-87600D02*
X379992D01*
G01X382225Y-91600D02*
Y-87600D01*
G01X384675D02*
Y-91600D01*
G01Y-89600D02*
X382225D01*
G01X387550Y-87600D02*
X388950D01*
G01X388250D02*
Y-91600D01*
G01X387550D02*
X388950D01*
G01X391825Y-91067D02*
X392292Y-91400D01*
X392817Y-91600D01*
X393283D01*
X393750Y-91400D01*
X394100Y-91067D01*
X394275Y-90600D01*
X394158Y-90133D01*
X393867Y-89733D01*
X393342Y-89467D01*
X392642Y-89333D01*
X392233Y-89067D01*
X392058Y-88600D01*
X392175Y-88133D01*
X392467Y-87800D01*
X392875Y-87600D01*
X393283D01*
X393692Y-87733D01*
X394042Y-88067D01*
G01X401367Y-91600D02*
Y-87600D01*
X402533D01*
X403000Y-87800D01*
X403350Y-88067D01*
X403642Y-88467D01*
X403875Y-88933D01*
X403933Y-89600D01*
X403875Y-90267D01*
X403642Y-90733D01*
X403350Y-91133D01*
X403000Y-91400D01*
X402533Y-91600D01*
X401367D01*
G01X407450D02*
X406983Y-91533D01*
X406575Y-91267D01*
X406225Y-90867D01*
X405992Y-90400D01*
X405875Y-89867D01*
Y-89333D01*
X405992Y-88800D01*
X406225Y-88333D01*
X406575Y-87933D01*
X406983Y-87667D01*
X407450Y-87600D01*
X407917Y-87667D01*
X408325Y-87933D01*
X408675Y-88333D01*
X408908Y-88800D01*
X409025Y-89333D01*
Y-89867D01*
X408908Y-90400D01*
X408675Y-90867D01*
X408325Y-91267D01*
X407917Y-91533D01*
X407450Y-91600D01*
G01X413533Y-87933D02*
X413183Y-87733D01*
X412775Y-87600D01*
X412308D01*
X411783Y-87800D01*
X411375Y-88133D01*
X411083Y-88533D01*
X410850Y-89200D01*
X410792Y-89800D01*
X410908Y-90400D01*
X411083Y-90800D01*
X411433Y-91200D01*
X411842Y-91467D01*
X412250Y-91600D01*
X412658D01*
X413067Y-91467D01*
X413417Y-91267D01*
X413708Y-91000D01*
G01X415767Y-87600D02*
Y-90467D01*
X416000Y-91067D01*
X416467Y-91467D01*
X417050Y-91600D01*
X417633Y-91467D01*
X418100Y-91067D01*
X418333Y-90467D01*
Y-87600D01*
G01X420333Y-91600D02*
Y-87600D01*
X421850Y-90933D01*
X423367Y-87600D01*
Y-91600D01*
G01X427817D02*
X425483D01*
Y-87600D01*
X427817D01*
G01X426883Y-89533D02*
X425483D01*
G01X430108Y-91600D02*
Y-87600D01*
X432792Y-91600D01*
Y-87600D01*
G01X436250D02*
Y-91600D01*
G01X434908Y-87600D02*
X437592D01*
G01X447133Y-87933D02*
X446783Y-87733D01*
X446375Y-87600D01*
X445908D01*
X445383Y-87800D01*
X444975Y-88133D01*
X444683Y-88533D01*
X444450Y-89200D01*
X444392Y-89800D01*
X444508Y-90400D01*
X444683Y-90800D01*
X445033Y-91200D01*
X445442Y-91467D01*
X445850Y-91600D01*
X446258D01*
X446667Y-91467D01*
X447017Y-91267D01*
X447308Y-91000D01*
G01X450650Y-91600D02*
X450183Y-91533D01*
X449775Y-91267D01*
X449425Y-90867D01*
X449192Y-90400D01*
X449075Y-89867D01*
Y-89333D01*
X449192Y-88800D01*
X449425Y-88333D01*
X449775Y-87933D01*
X450183Y-87667D01*
X450650Y-87600D01*
X451117Y-87667D01*
X451525Y-87933D01*
X451875Y-88333D01*
X452108Y-88800D01*
X452225Y-89333D01*
Y-89867D01*
X452108Y-90400D01*
X451875Y-90867D01*
X451525Y-91267D01*
X451117Y-91533D01*
X450650Y-91600D01*
G01X454108D02*
Y-87600D01*
X456792Y-91600D01*
Y-87600D01*
G01X460250D02*
Y-91600D01*
G01X458908Y-87600D02*
X461592D01*
G01X463592Y-91600D02*
X465050Y-87600D01*
X466508Y-91600D01*
G01X465983Y-90200D02*
X464117D01*
G01X469150Y-87600D02*
X470550D01*
G01X469850D02*
Y-91600D01*
G01X469150D02*
X470550D01*
G01X473308D02*
Y-87600D01*
X475992Y-91600D01*
Y-87600D01*
G01X478225Y-91067D02*
X478692Y-91400D01*
X479217Y-91600D01*
X479683D01*
X480150Y-91400D01*
X480500Y-91067D01*
X480675Y-90600D01*
X480558Y-90133D01*
X480267Y-89733D01*
X479742Y-89467D01*
X479042Y-89333D01*
X478633Y-89067D01*
X478458Y-88600D01*
X478575Y-88133D01*
X478867Y-87800D01*
X479275Y-87600D01*
X479683D01*
X480092Y-87733D01*
X480442Y-88067D01*
G01X488350Y-87600D02*
X489750D01*
G01X489050D02*
Y-91600D01*
G01X488350D02*
X489750D01*
G01X492508D02*
Y-87600D01*
X495192Y-91600D01*
Y-87600D01*
G01X497542Y-91600D02*
Y-87600D01*
X499758D01*
G01X498942Y-89533D02*
X497542D01*
G01X503450Y-91600D02*
X502983Y-91533D01*
X502575Y-91267D01*
X502225Y-90867D01*
X501992Y-90400D01*
X501875Y-89867D01*
Y-89333D01*
X501992Y-88800D01*
X502225Y-88333D01*
X502575Y-87933D01*
X502983Y-87667D01*
X503450Y-87600D01*
X503917Y-87667D01*
X504325Y-87933D01*
X504675Y-88333D01*
X504908Y-88800D01*
X505025Y-89333D01*
Y-89867D01*
X504908Y-90400D01*
X504675Y-90867D01*
X504325Y-91267D01*
X503917Y-91533D01*
X503450Y-91600D01*
G01X507083D02*
Y-87600D01*
X508542D01*
X509008Y-87800D01*
X509300Y-88067D01*
X509417Y-88600D01*
X509300Y-89133D01*
X508950Y-89467D01*
X508542Y-89667D01*
X507083D01*
G01X508542D02*
X509417Y-91600D01*
G01X511533D02*
Y-87600D01*
X513050Y-90933D01*
X514567Y-87600D01*
Y-91600D01*
G01X516392D02*
X517850Y-87600D01*
X519308Y-91600D01*
G01X518783Y-90200D02*
X516917D01*
G01X522650Y-87600D02*
Y-91600D01*
G01X521308Y-87600D02*
X523992D01*
G01X526750D02*
X528150D01*
G01X527450D02*
Y-91600D01*
G01X526750D02*
X528150D01*
G01X532250D02*
X531783Y-91533D01*
X531375Y-91267D01*
X531025Y-90867D01*
X530792Y-90400D01*
X530675Y-89867D01*
Y-89333D01*
X530792Y-88800D01*
X531025Y-88333D01*
X531375Y-87933D01*
X531783Y-87667D01*
X532250Y-87600D01*
X532717Y-87667D01*
X533125Y-87933D01*
X533475Y-88333D01*
X533708Y-88800D01*
X533825Y-89333D01*
Y-89867D01*
X533708Y-90400D01*
X533475Y-90867D01*
X533125Y-91267D01*
X532717Y-91533D01*
X532250Y-91600D01*
G01X535708D02*
Y-87600D01*
X538392Y-91600D01*
Y-87600D01*
G01X389750Y-151100D02*
X389123Y-151000D01*
X388575Y-150600D01*
X388105Y-150000D01*
X387792Y-149300D01*
X387635Y-148500D01*
Y-147700D01*
X387792Y-146900D01*
X388105Y-146200D01*
X388575Y-145600D01*
X389123Y-145200D01*
X389750Y-145100D01*
X390377Y-145200D01*
X390925Y-145600D01*
X391395Y-146200D01*
X391708Y-146900D01*
X391865Y-147700D01*
Y-148500D01*
X391708Y-149300D01*
X391395Y-150000D01*
X390925Y-150600D01*
X390377Y-151000D01*
X389750Y-151100D01*
G01X394562D02*
Y-145100D01*
X397538D01*
G01X396442Y-148000D02*
X394562D01*
G01X408650Y-151100D02*
Y-145100D01*
X407710Y-146300D01*
G01Y-151100D02*
X409590D01*
G01X414950Y-145100D02*
X414323Y-145300D01*
X413853Y-145800D01*
X413540Y-146400D01*
X413305Y-147200D01*
X413227Y-148100D01*
X413305Y-149000D01*
X413540Y-149800D01*
X413853Y-150400D01*
X414323Y-150900D01*
X414950Y-151100D01*
X415577Y-150900D01*
X416047Y-150400D01*
X416360Y-149800D01*
X416595Y-149000D01*
X416673Y-148100D01*
X416595Y-147200D01*
X416360Y-146400D01*
X416047Y-145800D01*
X415577Y-145300D01*
X414950Y-145100D01*
G01X420605Y-150300D02*
X421232Y-150800D01*
X421937Y-151100D01*
X422563D01*
X423190Y-150800D01*
X423660Y-150300D01*
X423895Y-149600D01*
X423738Y-148900D01*
X423347Y-148300D01*
X422642Y-147900D01*
X421702Y-147700D01*
X421153Y-147300D01*
X420918Y-146600D01*
X421075Y-145900D01*
X421467Y-145400D01*
X422015Y-145100D01*
X422563D01*
X423112Y-145300D01*
X423582Y-145800D01*
G01X430117Y-151100D02*
X426983D01*
Y-145100D01*
X430117D01*
G01X428863Y-148000D02*
X426983D01*
G01X436573Y-145600D02*
X436103Y-145300D01*
X435555Y-145100D01*
X434928D01*
X434223Y-145400D01*
X433675Y-145900D01*
X433283Y-146500D01*
X432970Y-147500D01*
X432892Y-148400D01*
X433048Y-149300D01*
X433283Y-149900D01*
X433753Y-150500D01*
X434302Y-150900D01*
X434850Y-151100D01*
X435398D01*
X435947Y-150900D01*
X436417Y-150600D01*
X436808Y-150200D01*
G01X441150Y-151100D02*
X440523Y-151000D01*
X439975Y-150600D01*
X439505Y-150000D01*
X439192Y-149300D01*
X439035Y-148500D01*
Y-147700D01*
X439192Y-146900D01*
X439505Y-146200D01*
X439975Y-145600D01*
X440523Y-145200D01*
X441150Y-145100D01*
X441777Y-145200D01*
X442325Y-145600D01*
X442795Y-146200D01*
X443108Y-146900D01*
X443265Y-147700D01*
Y-148500D01*
X443108Y-149300D01*
X442795Y-150000D01*
X442325Y-150600D01*
X441777Y-151000D01*
X441150Y-151100D01*
G01X445648D02*
Y-145100D01*
X449252Y-151100D01*
Y-145100D01*
G01X452027Y-151100D02*
Y-145100D01*
X453593D01*
X454220Y-145400D01*
X454690Y-145800D01*
X455082Y-146400D01*
X455395Y-147100D01*
X455473Y-148100D01*
X455395Y-149100D01*
X455082Y-149800D01*
X454690Y-150400D01*
X454220Y-150800D01*
X453593Y-151100D01*
X452027D01*
G01X458092D02*
X460050Y-145100D01*
X462008Y-151100D01*
G01X461303Y-149000D02*
X458797D01*
G01X464783Y-151100D02*
Y-145100D01*
X466742D01*
X467368Y-145400D01*
X467760Y-145800D01*
X467917Y-146600D01*
X467760Y-147400D01*
X467290Y-147900D01*
X466742Y-148200D01*
X464783D01*
G01X466742D02*
X467917Y-151100D01*
G01X472650D02*
Y-148400D01*
X471083Y-145100D01*
G01X474217D02*
X472650Y-148400D01*
G01X483683Y-151100D02*
Y-145100D01*
X485563D01*
X486190Y-145400D01*
X486660Y-146100D01*
X486817Y-146900D01*
X486660Y-147700D01*
X486268Y-148300D01*
X485563Y-148600D01*
X483683D01*
G01X489592Y-151100D02*
X491550Y-145100D01*
X493508Y-151100D01*
G01X492803Y-149000D02*
X490297D01*
G01X496205Y-150300D02*
X496832Y-150800D01*
X497537Y-151100D01*
X498163D01*
X498790Y-150800D01*
X499260Y-150300D01*
X499495Y-149600D01*
X499338Y-148900D01*
X498947Y-148300D01*
X498242Y-147900D01*
X497302Y-147700D01*
X496753Y-147300D01*
X496518Y-146600D01*
X496675Y-145900D01*
X497067Y-145400D01*
X497615Y-145100D01*
X498163D01*
X498712Y-145300D01*
X499182Y-145800D01*
G01X504150Y-145100D02*
Y-151100D01*
G01X502348Y-145100D02*
X505952D01*
G01X512017Y-151100D02*
X508883D01*
Y-145100D01*
X512017D01*
G01X510763Y-148000D02*
X508883D01*
G01X514713Y-151100D02*
Y-145100D01*
X516750Y-150100D01*
X518787Y-145100D01*
Y-151100D01*
G01X521092D02*
X523050Y-145100D01*
X525008Y-151100D01*
G01X524303Y-149000D02*
X521797D01*
G01X527705Y-150300D02*
X528332Y-150800D01*
X529037Y-151100D01*
X529663D01*
X530290Y-150800D01*
X530760Y-150300D01*
X530995Y-149600D01*
X530838Y-148900D01*
X530447Y-148300D01*
X529742Y-147900D01*
X528802Y-147700D01*
X528253Y-147300D01*
X528018Y-146600D01*
X528175Y-145900D01*
X528567Y-145400D01*
X529115Y-145100D01*
X529663D01*
X530212Y-145300D01*
X530682Y-145800D01*
G01X533927Y-151100D02*
Y-145100D01*
G01X536903D02*
X533927Y-148800D01*
G01X537373Y-151100D02*
X535258Y-147100D01*
G01X421542Y-142600D02*
Y-138600D01*
X423758D01*
G01X422942Y-140533D02*
X421542D01*
G01X426750Y-138600D02*
X428150D01*
G01X427450D02*
Y-142600D01*
G01X426750D02*
X428150D01*
G01X431083Y-138600D02*
Y-142600D01*
X433417D01*
G01X435533D02*
Y-138600D01*
X437050Y-141933D01*
X438567Y-138600D01*
Y-142600D01*
G01X546367D02*
Y-138600D01*
X547533D01*
X548000Y-138800D01*
X548350Y-139067D01*
X548642Y-139467D01*
X548875Y-139933D01*
X548933Y-140600D01*
X548875Y-141267D01*
X548642Y-141733D01*
X548350Y-142133D01*
X548000Y-142400D01*
X547533Y-142600D01*
X546367D01*
G01X550992D02*
X552450Y-138600D01*
X553908Y-142600D01*
G01X553383Y-141200D02*
X551517D01*
G01X557250Y-138600D02*
Y-142600D01*
G01X555908Y-138600D02*
X558592D01*
G01X563217Y-142600D02*
X560883D01*
Y-138600D01*
X563217D01*
G01X562283Y-140533D02*
X560883D01*
G01X546308Y-62600D02*
Y-58600D01*
X548992Y-62600D01*
Y-58600D01*
G01X550992Y-62600D02*
X552450Y-58600D01*
X553908Y-62600D01*
G01X553383Y-61200D02*
X551517D01*
G01X555733Y-62600D02*
Y-58600D01*
X557250Y-61933D01*
X558767Y-58600D01*
Y-62600D01*
G01X563217D02*
X560883D01*
Y-58600D01*
X563217D01*
G01X562283Y-60533D02*
X560883D01*
G01X549650Y-146600D02*
X549183Y-146733D01*
X548833Y-147067D01*
X548600Y-147467D01*
X548425Y-148000D01*
X548367Y-148600D01*
X548425Y-149200D01*
X548600Y-149733D01*
X548833Y-150133D01*
X549183Y-150467D01*
X549650Y-150600D01*
X550117Y-150467D01*
X550467Y-150133D01*
X550700Y-149733D01*
X550875Y-149200D01*
X550933Y-148600D01*
X550875Y-148000D01*
X550700Y-147467D01*
X550467Y-147067D01*
X550117Y-146733D01*
X549650Y-146600D01*
G01X553458Y-150133D02*
X553867Y-150467D01*
X554333Y-150600D01*
X554800Y-150467D01*
X555208Y-150067D01*
X555500Y-149467D01*
X555617Y-148867D01*
Y-148133D01*
X555500Y-147533D01*
X555208Y-147000D01*
X554858Y-146733D01*
X554450Y-146600D01*
X553983Y-146733D01*
X553633Y-147000D01*
X553400Y-147400D01*
X553283Y-147933D01*
X553400Y-148400D01*
X553692Y-148867D01*
X554042Y-149133D01*
X554450Y-149200D01*
X554917Y-149067D01*
X555267Y-148733D01*
X555617Y-148133D01*
G01X558492Y-149267D02*
X560008D01*
G01X564050Y-150600D02*
Y-146600D01*
X563350Y-147400D01*
G01Y-150600D02*
X564750D01*
G01X567567Y-150000D02*
X567917Y-150333D01*
X568325Y-150533D01*
X568850Y-150600D01*
X569375Y-150467D01*
X569783Y-150200D01*
X570075Y-149733D01*
X570133Y-149200D01*
X570017Y-148667D01*
X569725Y-148333D01*
X569317Y-148067D01*
X568908Y-148000D01*
X568500Y-148067D01*
X567975Y-148333D01*
X568150Y-146600D01*
X569725D01*
G01X572892Y-149267D02*
X574408D01*
G01X577342Y-147267D02*
X577692Y-146867D01*
X578100Y-146667D01*
X578567Y-146600D01*
X579150Y-146733D01*
X579558Y-147067D01*
X579675Y-147467D01*
X579617Y-147867D01*
X579383Y-148200D01*
X578217Y-148867D01*
X577692Y-149333D01*
X577342Y-150000D01*
X577225Y-150600D01*
X579675D01*
G01X581967Y-149800D02*
X582317Y-150267D01*
X582783Y-150533D01*
X583308Y-150600D01*
X583775Y-150533D01*
X584242Y-150200D01*
X584533Y-149800D01*
X584592Y-149400D01*
X584475Y-148933D01*
X584067Y-148600D01*
X583658Y-148467D01*
X583133D01*
G01X583658D02*
X584008Y-148267D01*
X584300Y-147933D01*
X584417Y-147533D01*
X584300Y-147133D01*
X584008Y-146800D01*
X583483Y-146600D01*
X582958Y-146667D01*
X582433Y-146933D01*
G01X555900Y-128433D02*
X559400D01*
G01X560700D02*
X564200D01*
G01X565500D02*
X569000D01*
G01X578133Y-123433D02*
X577783Y-123233D01*
X577375Y-123100D01*
X576908D01*
X576383Y-123300D01*
X575975Y-123633D01*
X575683Y-124033D01*
X575450Y-124700D01*
X575392Y-125300D01*
X575508Y-125900D01*
X575683Y-126300D01*
X576033Y-126700D01*
X576442Y-126967D01*
X576850Y-127100D01*
X577258D01*
X577667Y-126967D01*
X578017Y-126767D01*
X578308Y-126500D01*
G01X581650Y-127100D02*
X581183Y-127033D01*
X580775Y-126767D01*
X580425Y-126367D01*
X580192Y-125900D01*
X580075Y-125367D01*
Y-124833D01*
X580192Y-124300D01*
X580425Y-123833D01*
X580775Y-123433D01*
X581183Y-123167D01*
X581650Y-123100D01*
X582117Y-123167D01*
X582525Y-123433D01*
X582875Y-123833D01*
X583108Y-124300D01*
X583225Y-124833D01*
Y-125367D01*
X583108Y-125900D01*
X582875Y-126367D01*
X582525Y-126767D01*
X582117Y-127033D01*
X581650Y-127100D01*
G01X584933D02*
Y-123100D01*
X586450Y-126433D01*
X587967Y-123100D01*
Y-127100D01*
G01X590083D02*
Y-123100D01*
X591483D01*
X591950Y-123300D01*
X592300Y-123767D01*
X592417Y-124300D01*
X592300Y-124833D01*
X592008Y-125233D01*
X591483Y-125433D01*
X590083D01*
G01X594592Y-127100D02*
X596050Y-123100D01*
X597508Y-127100D01*
G01X596983Y-125700D02*
X595117D01*
G01X599508Y-127100D02*
Y-123100D01*
X602192Y-127100D01*
Y-123100D01*
G01X605650Y-127100D02*
Y-125300D01*
X604483Y-123100D01*
G01X606817D02*
X605650Y-125300D01*
G01X616533Y-123433D02*
X616183Y-123233D01*
X615775Y-123100D01*
X615308D01*
X614783Y-123300D01*
X614375Y-123633D01*
X614083Y-124033D01*
X613850Y-124700D01*
X613792Y-125300D01*
X613908Y-125900D01*
X614083Y-126300D01*
X614433Y-126700D01*
X614842Y-126967D01*
X615250Y-127100D01*
X615658D01*
X616067Y-126967D01*
X616417Y-126767D01*
X616708Y-126500D01*
G01X620050Y-127100D02*
X619583Y-127033D01*
X619175Y-126767D01*
X618825Y-126367D01*
X618592Y-125900D01*
X618475Y-125367D01*
Y-124833D01*
X618592Y-124300D01*
X618825Y-123833D01*
X619175Y-123433D01*
X619583Y-123167D01*
X620050Y-123100D01*
X620517Y-123167D01*
X620925Y-123433D01*
X621275Y-123833D01*
X621508Y-124300D01*
X621625Y-124833D01*
Y-125367D01*
X621508Y-125900D01*
X621275Y-126367D01*
X620925Y-126767D01*
X620517Y-127033D01*
X620050Y-127100D01*
G01X623508D02*
Y-123100D01*
X626192Y-127100D01*
Y-123100D01*
G01X628542Y-127100D02*
Y-123100D01*
X630758D01*
G01X629942Y-125033D02*
X628542D01*
G01X633750Y-123100D02*
X635150D01*
G01X634450D02*
Y-127100D01*
G01X633750D02*
X635150D01*
G01X637967D02*
Y-123100D01*
X639133D01*
X639600Y-123300D01*
X639950Y-123567D01*
X640242Y-123967D01*
X640475Y-124433D01*
X640533Y-125100D01*
X640475Y-125767D01*
X640242Y-126233D01*
X639950Y-126633D01*
X639600Y-126900D01*
X639133Y-127100D01*
X637967D01*
G01X645217D02*
X642883D01*
Y-123100D01*
X645217D01*
G01X644283Y-125033D02*
X642883D01*
G01X647508Y-127100D02*
Y-123100D01*
X650192Y-127100D01*
Y-123100D01*
G01X653650D02*
Y-127100D01*
G01X652308Y-123100D02*
X654992D01*
G01X657750D02*
X659150D01*
G01X658450D02*
Y-127100D01*
G01X657750D02*
X659150D01*
G01X661792D02*
X663250Y-123100D01*
X664708Y-127100D01*
G01X664183Y-125700D02*
X662317D01*
G01X666883Y-123100D02*
Y-127100D01*
X669217D01*
G01X555900Y-111933D02*
X559400D01*
G01X560700D02*
X564200D01*
G01X565500D02*
X569000D01*
G01X578133Y-106933D02*
X577783Y-106733D01*
X577375Y-106600D01*
X576908D01*
X576383Y-106800D01*
X575975Y-107133D01*
X575683Y-107533D01*
X575450Y-108200D01*
X575392Y-108800D01*
X575508Y-109400D01*
X575683Y-109800D01*
X576033Y-110200D01*
X576442Y-110467D01*
X576850Y-110600D01*
X577258D01*
X577667Y-110467D01*
X578017Y-110267D01*
X578308Y-110000D01*
G01X581650Y-110600D02*
X581183Y-110533D01*
X580775Y-110267D01*
X580425Y-109867D01*
X580192Y-109400D01*
X580075Y-108867D01*
Y-108333D01*
X580192Y-107800D01*
X580425Y-107333D01*
X580775Y-106933D01*
X581183Y-106667D01*
X581650Y-106600D01*
X582117Y-106667D01*
X582525Y-106933D01*
X582875Y-107333D01*
X583108Y-107800D01*
X583225Y-108333D01*
Y-108867D01*
X583108Y-109400D01*
X582875Y-109867D01*
X582525Y-110267D01*
X582117Y-110533D01*
X581650Y-110600D01*
G01X584933D02*
Y-106600D01*
X586450Y-109933D01*
X587967Y-106600D01*
Y-110600D01*
G01X590083D02*
Y-106600D01*
X591483D01*
X591950Y-106800D01*
X592300Y-107267D01*
X592417Y-107800D01*
X592300Y-108333D01*
X592008Y-108733D01*
X591483Y-108933D01*
X590083D01*
G01X594592Y-110600D02*
X596050Y-106600D01*
X597508Y-110600D01*
G01X596983Y-109200D02*
X595117D01*
G01X599508Y-110600D02*
Y-106600D01*
X602192Y-110600D01*
Y-106600D01*
G01X605650Y-110600D02*
Y-108800D01*
X604483Y-106600D01*
G01X606817D02*
X605650Y-108800D01*
G01X614550Y-106600D02*
X615950D01*
G01X615250D02*
Y-110600D01*
G01X614550D02*
X615950D01*
G01X618708D02*
Y-106600D01*
X621392Y-110600D01*
Y-106600D01*
G01X624850D02*
Y-110600D01*
G01X623508Y-106600D02*
X626192D01*
G01X630817Y-110600D02*
X628483D01*
Y-106600D01*
X630817D01*
G01X629883Y-108533D02*
X628483D01*
G01X633283Y-110600D02*
Y-106600D01*
X634742D01*
X635208Y-106800D01*
X635500Y-107067D01*
X635617Y-107600D01*
X635500Y-108133D01*
X635150Y-108467D01*
X634742Y-108667D01*
X633283D01*
G01X634742D02*
X635617Y-110600D01*
G01X637908D02*
Y-106600D01*
X640592Y-110600D01*
Y-106600D01*
G01X642592Y-110600D02*
X644050Y-106600D01*
X645508Y-110600D01*
G01X644983Y-109200D02*
X643117D01*
G01X647683Y-106600D02*
Y-110600D01*
X650017D01*
G01X555900Y-95933D02*
X559400D01*
G01X560700D02*
X564200D01*
G01X565500D02*
X569000D01*
G01X578133Y-90933D02*
X577783Y-90733D01*
X577375Y-90600D01*
X576908D01*
X576383Y-90800D01*
X575975Y-91133D01*
X575683Y-91533D01*
X575450Y-92200D01*
X575392Y-92800D01*
X575508Y-93400D01*
X575683Y-93800D01*
X576033Y-94200D01*
X576442Y-94467D01*
X576850Y-94600D01*
X577258D01*
X577667Y-94467D01*
X578017Y-94267D01*
X578308Y-94000D01*
G01X581650Y-94600D02*
X581183Y-94533D01*
X580775Y-94267D01*
X580425Y-93867D01*
X580192Y-93400D01*
X580075Y-92867D01*
Y-92333D01*
X580192Y-91800D01*
X580425Y-91333D01*
X580775Y-90933D01*
X581183Y-90667D01*
X581650Y-90600D01*
X582117Y-90667D01*
X582525Y-90933D01*
X582875Y-91333D01*
X583108Y-91800D01*
X583225Y-92333D01*
Y-92867D01*
X583108Y-93400D01*
X582875Y-93867D01*
X582525Y-94267D01*
X582117Y-94533D01*
X581650Y-94600D01*
G01X584933D02*
Y-90600D01*
X586450Y-93933D01*
X587967Y-90600D01*
Y-94600D01*
G01X590083D02*
Y-90600D01*
X591483D01*
X591950Y-90800D01*
X592300Y-91267D01*
X592417Y-91800D01*
X592300Y-92333D01*
X592008Y-92733D01*
X591483Y-92933D01*
X590083D01*
G01X594592Y-94600D02*
X596050Y-90600D01*
X597508Y-94600D01*
G01X596983Y-93200D02*
X595117D01*
G01X599508Y-94600D02*
Y-90600D01*
X602192Y-94600D01*
Y-90600D01*
G01X605650Y-94600D02*
Y-92800D01*
X604483Y-90600D01*
G01X606817D02*
X605650Y-92800D01*
G01X614083Y-94600D02*
Y-90600D01*
X615483D01*
X615950Y-90800D01*
X616300Y-91267D01*
X616417Y-91800D01*
X616300Y-92333D01*
X616008Y-92733D01*
X615483Y-92933D01*
X614083D01*
G01X618767Y-90600D02*
Y-93467D01*
X619000Y-94067D01*
X619467Y-94467D01*
X620050Y-94600D01*
X620633Y-94467D01*
X621100Y-94067D01*
X621333Y-93467D01*
Y-90600D01*
G01X625317Y-92467D02*
X625550Y-92267D01*
X625725Y-91933D01*
X625842Y-91467D01*
X625725Y-91067D01*
X625492Y-90800D01*
X625083Y-90600D01*
X623508D01*
Y-94600D01*
X625433D01*
X625842Y-94333D01*
X626075Y-93933D01*
X626192Y-93467D01*
X626075Y-93000D01*
X625725Y-92600D01*
X625317Y-92467D01*
X623508D01*
G01X628483Y-90600D02*
Y-94600D01*
X630817D01*
G01X633750Y-90600D02*
X635150D01*
G01X634450D02*
Y-94600D01*
G01X633750D02*
X635150D01*
G01X640533Y-90933D02*
X640183Y-90733D01*
X639775Y-90600D01*
X639308D01*
X638783Y-90800D01*
X638375Y-91133D01*
X638083Y-91533D01*
X637850Y-92200D01*
X637792Y-92800D01*
X637908Y-93400D01*
X638083Y-93800D01*
X638433Y-94200D01*
X638842Y-94467D01*
X639250Y-94600D01*
X639658D01*
X640067Y-94467D01*
X640417Y-94267D01*
X640708Y-94000D01*
G01X560605Y-111600D02*
X563895Y-105300D01*
G01X560605D02*
X563895Y-111600D01*
G01X596308Y-142600D02*
Y-138600D01*
X598992Y-142600D01*
Y-138600D01*
G01X601167D02*
Y-141467D01*
X601400Y-142067D01*
X601867Y-142467D01*
X602450Y-142600D01*
X603033Y-142467D01*
X603500Y-142067D01*
X603733Y-141467D01*
Y-138600D01*
G01X605733Y-142600D02*
Y-138600D01*
X607250Y-141933D01*
X608767Y-138600D01*
Y-142600D01*
G01X612517Y-140467D02*
X612750Y-140267D01*
X612925Y-139933D01*
X613042Y-139467D01*
X612925Y-139067D01*
X612692Y-138800D01*
X612283Y-138600D01*
X610708D01*
Y-142600D01*
X612633D01*
X613042Y-142333D01*
X613275Y-141933D01*
X613392Y-141467D01*
X613275Y-141000D01*
X612925Y-140600D01*
X612517Y-140467D01*
X610708D01*
G01X618017Y-142600D02*
X615683D01*
Y-138600D01*
X618017D01*
G01X617083Y-140533D02*
X615683D01*
G01X620483Y-142600D02*
Y-138600D01*
X621942D01*
X622408Y-138800D01*
X622700Y-139067D01*
X622817Y-139600D01*
X622700Y-140133D01*
X622350Y-140467D01*
X621942Y-140667D01*
X620483D01*
G01X621942D02*
X622817Y-142600D01*
G01X619362Y-72700D02*
Y-66400D01*
X622338D01*
G01X621242Y-69445D02*
X619362D01*
G01X625583Y-72700D02*
Y-66400D01*
X627542D01*
X628168Y-66715D01*
X628560Y-67135D01*
X628717Y-67975D01*
X628560Y-68815D01*
X628090Y-69340D01*
X627542Y-69655D01*
X625583D01*
G01X627542D02*
X628717Y-72700D01*
G01X631727D02*
Y-66400D01*
X633293D01*
X633920Y-66715D01*
X634390Y-67135D01*
X634782Y-67765D01*
X635095Y-68500D01*
X635173Y-69550D01*
X635095Y-70600D01*
X634782Y-71335D01*
X634390Y-71965D01*
X633920Y-72385D01*
X633293Y-72700D01*
X631727D01*
G01X637713D02*
Y-66400D01*
X639750Y-71650D01*
X641787Y-66400D01*
Y-72700D01*
G01X645032Y-70600D02*
X647068D01*
G01X650313Y-72700D02*
Y-66400D01*
X652350Y-71650D01*
X654387Y-66400D01*
Y-72700D01*
G01X660373Y-66925D02*
X659903Y-66610D01*
X659355Y-66400D01*
X658728D01*
X658023Y-66715D01*
X657475Y-67240D01*
X657083Y-67870D01*
X656770Y-68920D01*
X656692Y-69865D01*
X656848Y-70810D01*
X657083Y-71440D01*
X657553Y-72070D01*
X658102Y-72490D01*
X658650Y-72700D01*
X659198D01*
X659747Y-72490D01*
X660217Y-72175D01*
X660608Y-71755D01*
G01X663305Y-72700D02*
X666595Y-66400D01*
G01X663305D02*
X666595Y-72700D01*
G01X669448D02*
Y-66400D01*
X673052Y-72700D01*
Y-66400D01*
G01X676218Y-71965D02*
X676767Y-72490D01*
X677393Y-72700D01*
X678020Y-72490D01*
X678568Y-71860D01*
X678960Y-70915D01*
X679117Y-69970D01*
Y-68815D01*
X678960Y-67870D01*
X678568Y-67030D01*
X678098Y-66610D01*
X677550Y-66400D01*
X676923Y-66610D01*
X676453Y-67030D01*
X676140Y-67660D01*
X675983Y-68500D01*
X676140Y-69235D01*
X676532Y-69970D01*
X677002Y-70390D01*
X677550Y-70495D01*
X678177Y-70285D01*
X678647Y-69760D01*
X679117Y-68815D01*
G01X684790Y-72700D02*
Y-66400D01*
X681892Y-70915D01*
X685808D01*
G01X689993Y-72700D02*
X690150Y-71335D01*
X690385Y-70180D01*
X690698Y-69130D01*
X691090Y-67975D01*
X691717Y-66400D01*
X688583D01*
G01X631250Y-149800D02*
Y-143500D01*
X630310Y-144760D01*
G01Y-149800D02*
X632190D01*
G01X637393D02*
X637550Y-148435D01*
X637785Y-147280D01*
X638098Y-146230D01*
X638490Y-145075D01*
X639117Y-143500D01*
X635983D01*
G01X643850D02*
X643223Y-143710D01*
X642753Y-144235D01*
X642440Y-144865D01*
X642205Y-145705D01*
X642127Y-146650D01*
X642205Y-147595D01*
X642440Y-148435D01*
X642753Y-149065D01*
X643223Y-149590D01*
X643850Y-149800D01*
X644477Y-149590D01*
X644947Y-149065D01*
X645260Y-148435D01*
X645495Y-147595D01*
X645573Y-146650D01*
X645495Y-145705D01*
X645260Y-144865D01*
X644947Y-144235D01*
X644477Y-143710D01*
X643850Y-143500D01*
G01X649132Y-147700D02*
X651168D01*
G01X655118Y-149065D02*
X655667Y-149590D01*
X656293Y-149800D01*
X656920Y-149590D01*
X657468Y-148960D01*
X657860Y-148015D01*
X658017Y-147070D01*
Y-145915D01*
X657860Y-144970D01*
X657468Y-144130D01*
X656998Y-143710D01*
X656450Y-143500D01*
X655823Y-143710D01*
X655353Y-144130D01*
X655040Y-144760D01*
X654883Y-145600D01*
X655040Y-146335D01*
X655432Y-147070D01*
X655902Y-147490D01*
X656450Y-147595D01*
X657077Y-147385D01*
X657547Y-146860D01*
X658017Y-145915D01*
G01X662750Y-143500D02*
X662123Y-143710D01*
X661653Y-144235D01*
X661340Y-144865D01*
X661105Y-145705D01*
X661027Y-146650D01*
X661105Y-147595D01*
X661340Y-148435D01*
X661653Y-149065D01*
X662123Y-149590D01*
X662750Y-149800D01*
X663377Y-149590D01*
X663847Y-149065D01*
X664160Y-148435D01*
X664395Y-147595D01*
X664473Y-146650D01*
X664395Y-145705D01*
X664160Y-144865D01*
X663847Y-144235D01*
X663377Y-143710D01*
X662750Y-143500D01*
G01X669050Y-149800D02*
X669598Y-149695D01*
X670225Y-149380D01*
X670617Y-148855D01*
X670773Y-148120D01*
X670617Y-147385D01*
X670147Y-146755D01*
X669442Y-146440D01*
X668658D01*
X668188Y-146230D01*
X667797Y-145705D01*
X667640Y-144970D01*
X667875Y-144235D01*
X668423Y-143710D01*
X669050Y-143500D01*
X669677Y-143710D01*
X670225Y-144235D01*
X670460Y-144970D01*
X670303Y-145705D01*
X669912Y-146230D01*
X669442Y-146440D01*
X668658D01*
X667953Y-146755D01*
X667483Y-147385D01*
X667327Y-148120D01*
X667483Y-148855D01*
X667875Y-149380D01*
X668502Y-149695D01*
X669050Y-149800D01*
G01X675350D02*
Y-143500D01*
X674410Y-144760D01*
G01Y-149800D02*
X676290D01*
G01X681650D02*
X682198Y-149695D01*
X682825Y-149380D01*
X683217Y-148855D01*
X683373Y-148120D01*
X683217Y-147385D01*
X682747Y-146755D01*
X682042Y-146440D01*
X681258D01*
X680788Y-146230D01*
X680397Y-145705D01*
X680240Y-144970D01*
X680475Y-144235D01*
X681023Y-143710D01*
X681650Y-143500D01*
X682277Y-143710D01*
X682825Y-144235D01*
X683060Y-144970D01*
X682903Y-145705D01*
X682512Y-146230D01*
X682042Y-146440D01*
X681258D01*
X680553Y-146755D01*
X680083Y-147385D01*
X679927Y-148120D01*
X680083Y-148855D01*
X680475Y-149380D01*
X681102Y-149695D01*
X681650Y-149800D01*
G01X724183D02*
Y-143500D01*
X726142D01*
X726768Y-143815D01*
X727160Y-144235D01*
X727317Y-145075D01*
X727160Y-145915D01*
X726690Y-146440D01*
X726142Y-146755D01*
X724183D01*
G01X726142D02*
X727317Y-149800D01*
G01X733617D02*
X730483D01*
Y-143500D01*
X733617D01*
G01X732363Y-146545D02*
X730483D01*
G01X736392Y-143500D02*
X738350Y-149800D01*
X740308Y-143500D01*
G01X751577Y-146440D02*
X751890Y-146125D01*
X752125Y-145600D01*
X752282Y-144865D01*
X752125Y-144235D01*
X751812Y-143815D01*
X751263Y-143500D01*
X749148D01*
Y-149800D01*
X751733D01*
X752282Y-149380D01*
X752595Y-148750D01*
X752752Y-148015D01*
X752595Y-147280D01*
X752125Y-146650D01*
X751577Y-146440D01*
X749148D01*
G54D12*
X24500Y46700D03*
Y54300D03*
X33500Y46700D03*
Y54300D03*
G54D22*
G01X367900Y-134600D02*
X767900D01*
G01X367900Y-104600D02*
Y-84600D01*
X767900D01*
G01X417900Y-154600D02*
Y-134600D01*
G01X542900Y-84600D02*
Y-54600D01*
G01X543400Y-154600D02*
Y-134600D01*
G01X592900Y-154600D02*
Y-134600D01*
G54D13*
X25500Y37000D03*
X25000Y161000D03*
G54D23*
G01X767900Y-54600D02*
Y-154600D01*
X367900D01*
G01D02*
Y-54600D01*
X767900D01*
G54D14*
X42200Y24000D03*
X49800D03*
X57200D03*
X64800D03*
G54D24*
G01X428169Y205268D02*
X-7518D01*
G03X-14744Y197724I324J-7543D01*
G01Y-3394D01*
G03X-6870Y-11268I7874J0D01*
G01X30532D01*
X430138D01*
X441949D01*
G03X449823Y-3394I0J7874D01*
G01Y197394D01*
G03X441949Y205268I-7874J0D01*
G01X428169D01*
G01X-14744Y123784D02*
X7770D01*
G02X17838Y123220I4988J-1114D01*
G01Y69867D01*
G02X7770Y68665I-5106J-2D01*
G01X-14744D01*
Y123784D01*
G54D15*
X50500Y38500D03*
Y44500D03*
X57000Y38500D03*
Y44500D03*
X71500Y38500D03*
Y44500D03*
X80500Y65500D03*
Y71500D03*
X79000Y111500D03*
Y117500D03*
X110000Y64500D03*
Y70500D03*
X130100Y63000D03*
Y69000D03*
X229500Y86300D03*
Y92300D03*
X235500Y86300D03*
Y92300D03*
X235300Y98500D03*
Y104500D03*
X244000Y77000D03*
Y83000D03*
X288000Y29000D03*
Y35000D03*
X288500Y85500D03*
Y91500D03*
X295500Y111000D03*
Y117000D03*
X298500Y85500D03*
Y91500D03*
X301500Y111000D03*
Y117000D03*
X306000Y85500D03*
Y91500D03*
X368500Y117500D03*
Y123500D03*
G54D16*
X66172Y112000D03*
X72828D03*
G54D17*
X111000Y94000D03*
X114500Y83300D03*
X117000Y94000D03*
X120500Y83300D03*
X129500Y57000D03*
Y92500D03*
X127500Y123500D03*
X133500D03*
X135500Y57000D03*
Y92500D03*
X138500Y129500D03*
Y136000D03*
X142000Y102500D03*
Y112500D03*
Y119000D03*
X148000Y102500D03*
Y112500D03*
Y119000D03*
X144500Y129500D03*
Y136000D03*
X178900Y92600D03*
X175500Y102500D03*
X181500D03*
X184900Y92600D03*
X195500Y93200D03*
X196000Y121000D03*
X201500Y93200D03*
X202000Y121000D03*
X214000Y123000D03*
X220000D03*
X226500Y80500D03*
X232500D03*
X243500Y116500D03*
Y122500D03*
X249500Y116500D03*
Y122500D03*
X257000Y76500D03*
Y82600D03*
X263000Y76500D03*
Y82600D03*
X268000Y76500D03*
X274000D03*
X286500Y105800D03*
X292500D03*
X316500Y88500D03*
X322500D03*
X387000Y134500D03*
X393000D03*
X405500Y166500D03*
X411500D03*
G54D18*
X296050Y28100D03*
Y35500D03*
X303950Y31800D03*
G54D19*
X346709Y6787D03*
Y42220D03*
X410291Y6787D03*
Y42220D03*
M02*
